%
M48
M72
T01C0.0197
T02C0.0276
T03C0.0394
T04C0.1102
T05C0.1300
T06C0.4000
%
T01
X2800Y850
X2800Y2400
X2600Y2950
X3100Y2950
X3100Y3450
X3100Y3950
X2600Y3950
X2600Y3450
X2150Y3450
X1650Y3450
X1150Y3450
X1150Y2950
X1600Y2950
X2100Y2950
X3650Y2950
X4150Y2950
X4150Y3450
X4150Y3950
X3650Y3950
X3650Y3450
X3650Y4450
X3650Y4950
X4150Y4950
X4150Y4450
X4150Y5450
X4150Y5950
X3650Y5950
X3650Y5450
X3650Y6450
X3150Y6450
X3100Y4450
X2600Y4450
X5600Y2350
X5600Y1850
X5600Y1350
X5600Y850
X14150Y800
X14150Y1300
X14150Y1800
X14150Y2300
X15550Y2900
X16050Y2900
X16050Y3400
X16050Y3900
X15550Y3900
X15550Y3400
X16550Y3400
X16550Y3900
X17050Y3900
X17050Y3400
X17050Y2900
X16550Y2900
X16900Y2400
X17550Y2900
X18050Y2900
X18050Y3400
X17550Y3400
X18550Y3400
X18550Y2900
X16900Y850
X16050Y4400
X16050Y4900
X16050Y5400
X17800Y8800
X17800Y9300
X17800Y9800
X17800Y10300
X17800Y10800
X18300Y10800
X18300Y10300
X18300Y9800
X18300Y9300
X18300Y8800
X15800Y11800
X15800Y12300
X15800Y12800
X15800Y13300
X15800Y13800
X15800Y14300
X15800Y14800
X15800Y15300
X15800Y15800
X16300Y15800
X16300Y15300
X16800Y15300
X16800Y15800
X17300Y15800
X17300Y15300
X17100Y16300
X17100Y16800
X17600Y16800
X17600Y16300
X18100Y16800
X16900Y17300
X16600Y16800
X16150Y16800
X16150Y16300
X16600Y16300
X15650Y16300
X15650Y16800
X14200Y17350
X14200Y17850
X14200Y18350
X14200Y18850
X16900Y18850
X16300Y14800
X16300Y14300
X16300Y13800
X16300Y13300
X16300Y12800
X16800Y12800
X16800Y12300
X16300Y12300
X17300Y12300
X17300Y12800
X5600Y17350
X5600Y17850
X5600Y18350
X5600Y18850
X4300Y16800
X4300Y16300
X3800Y16300
X3800Y16800
X3300Y16800
X3300Y16300
X2800Y16300
X2800Y16800
X2300Y16800
X2300Y16300
X1800Y16800
X1300Y16800
X2300Y15800
X2300Y15300
X2800Y15300
X2800Y15800
X3300Y15800
X3300Y15300
X3800Y15800
X2800Y17350
X2800Y18850
T02
X3900Y15250
X3300Y14450
X3900Y14000
X4800Y15250
X5300Y13500
X6500Y13200
X6550Y12300
X6750Y11700
X4500Y8700
X4600Y6400
X9100Y4750
X9900Y5100
X9900Y4300
X9100Y1200
X10700Y1200
X18100Y12500
X11450Y15600
X9800Y15050
X9100Y15050
X9800Y14100
X9100Y18500
X10600Y18500
T03
X18100Y15450
X18100Y14450
X18100Y13450
X18100Y6100
X18100Y5100
X18100Y4100
X1600Y4100
X1600Y5100
X1600Y6100
X1600Y13450
X1600Y14450
X1600Y15450
T04
X13500Y12150
X16350Y6950
T05
X1600Y1500
X1600Y18000
X18100Y18000
X18100Y1500
T06
X9800Y9800
M30
