G04 #@! TF.GenerationSoftware,KiCad,Pcbnew,(2017-02-19 revision a416f3a4e)-master*
G04 #@! TF.CreationDate,2017-03-09T22:42:25-08:00*
G04 #@! TF.ProjectId,Flight Computer,466C6967687420436F6D70757465722E,rev?*
G04 #@! TF.FileFunction,Copper,L3,Inr,Mixed*
G04 #@! TF.FilePolarity,Positive*
%FSLAX46Y46*%
G04 Gerber Fmt 4.6, Leading zero omitted, Abs format (unit mm)*
G04 Created by KiCad (PCBNEW (2017-02-19 revision a416f3a4e)-master) date 03/09/17 22:42:25*
%MOMM*%
%LPD*%
G01*
G04 APERTURE LIST*
%ADD10C,0.150000*%
%ADD11C,0.625000*%
%ADD12C,0.300000*%
%ADD13C,0.500000*%
%ADD14C,0.130000*%
%ADD15C,0.160000*%
%ADD16C,0.250000*%
G04 APERTURE END LIST*
D10*
D11*
X80450000Y-97250000D03*
X79400000Y-102650000D03*
X78150000Y-101300000D03*
X69050000Y-96600000D03*
X68850000Y-100500000D03*
X73600000Y-101800000D03*
X89200000Y-94799996D03*
X86000000Y-91600000D03*
X95250000Y-121500000D03*
X62700000Y-108777432D03*
X53200000Y-110150000D03*
X57700000Y-92500000D03*
X89100526Y-98399723D03*
X50700000Y-118250000D03*
X74540000Y-111562490D03*
X77000000Y-123700000D03*
X77000526Y-121549723D03*
X53400000Y-101900000D03*
X65544178Y-97540594D03*
X59200000Y-90300000D03*
X54400000Y-91000000D03*
X52900000Y-98000000D03*
X97000000Y-96800000D03*
X99300000Y-104500000D03*
X84400000Y-105000000D03*
X97100000Y-91800000D03*
X94800000Y-91400000D03*
X87200000Y-91600000D03*
X66415299Y-96715299D03*
X80299990Y-118400000D03*
X65700000Y-90650000D03*
X60231685Y-115143826D03*
X60231685Y-116431326D03*
X60550000Y-124250000D03*
X55150000Y-100150000D03*
X55100435Y-101827521D03*
X88459847Y-114039799D03*
X50700000Y-97500000D03*
X50700000Y-98300000D03*
X99300000Y-102300000D03*
X99300000Y-101500000D03*
X97050000Y-93299980D03*
X93650000Y-85700008D03*
X94800000Y-90542406D03*
X62650526Y-103459704D03*
X54299984Y-110650000D03*
X58900000Y-102800000D03*
X71750000Y-114450000D03*
X57300000Y-90300000D03*
X57300000Y-89500000D03*
X89600000Y-115450004D03*
X85650000Y-118575069D03*
X88500000Y-115450000D03*
X89560506Y-87425148D03*
X79497500Y-92311250D03*
X80750000Y-95500000D03*
X94794930Y-119355076D03*
X96032471Y-115497608D03*
X95800000Y-112200004D03*
X96500000Y-123750010D03*
X88750000Y-110250000D03*
X88800000Y-103050000D03*
X92600000Y-105400000D03*
X90900000Y-107449988D03*
X91200000Y-97550000D03*
X61100000Y-92550004D03*
X62650000Y-94950000D03*
X61750000Y-100100000D03*
X61550020Y-101850000D03*
X81400526Y-121024723D03*
X60600000Y-120950000D03*
X60000000Y-101850000D03*
X60000000Y-100100000D03*
X84100000Y-109650000D03*
X57750000Y-112700000D03*
X57656676Y-116537510D03*
X53700002Y-118250000D03*
X58944185Y-116431326D03*
X89606326Y-113955815D03*
X65973070Y-119500000D03*
X85500000Y-88500000D03*
X94800000Y-98750000D03*
X89606326Y-112668315D03*
X99400000Y-110800000D03*
X95950000Y-110500000D03*
X84500526Y-121024723D03*
X94800518Y-96749723D03*
X81400526Y-123999723D03*
X64900526Y-90099723D03*
X78750000Y-90800000D03*
X71350526Y-89049723D03*
X79800526Y-86199723D03*
X84500526Y-123974723D03*
X77000526Y-119799723D03*
X58944185Y-115143826D03*
X57656685Y-115143826D03*
X58944185Y-113856326D03*
X57656685Y-113856326D03*
X56975526Y-85999723D03*
X54025526Y-85999723D03*
X98975526Y-85974723D03*
X96025526Y-85999723D03*
X66000526Y-113749723D03*
X55100526Y-95749723D03*
X57900526Y-95749723D03*
X65150000Y-118100000D03*
X66000870Y-124400144D03*
X78470120Y-103619520D03*
X76320120Y-107769520D03*
X59425435Y-97700076D03*
X87900749Y-87409905D03*
X87900749Y-89084905D03*
X89575749Y-89084905D03*
X90050435Y-101850076D03*
X55100435Y-99000076D03*
X95600435Y-102550076D03*
X88800435Y-101850076D03*
X99400000Y-106900000D03*
X58450000Y-120887510D03*
X62650000Y-113500000D03*
X61800000Y-111237526D03*
X63500000Y-114850000D03*
X52949034Y-111585276D03*
X53047544Y-116600000D03*
X60600435Y-119550076D03*
X68300000Y-98500000D03*
X67100000Y-100600000D03*
X88100000Y-91200000D03*
X55750000Y-121650000D03*
X99400000Y-113700000D03*
X99400000Y-100700000D03*
X99400000Y-99900000D03*
X50700000Y-95900000D03*
X50700000Y-96700000D03*
X96250000Y-89400008D03*
X54950000Y-109950000D03*
X54350000Y-92962500D03*
X81500000Y-118077488D03*
X95850000Y-97300000D03*
X84350000Y-99950000D03*
X82934999Y-101450000D03*
X77225000Y-102375000D03*
X54200000Y-107450000D03*
X84300000Y-110805023D03*
X65589989Y-110265784D03*
X78750000Y-93200000D03*
X84564989Y-88400768D03*
X81750000Y-90700000D03*
X78320120Y-105819520D03*
X66250000Y-118100000D03*
X50700526Y-114599723D03*
X90700526Y-91099723D03*
X79000526Y-88449723D03*
X87650000Y-98400000D03*
X77670120Y-110119520D03*
X74060120Y-107469520D03*
X67000870Y-121750152D03*
X85100000Y-116049999D03*
X97230809Y-112202127D03*
X95950000Y-107900000D03*
X96149998Y-114400000D03*
X92400000Y-119950000D03*
X84400000Y-93747544D03*
X89400000Y-91212490D03*
X69550000Y-89650000D03*
X68200000Y-89600000D03*
X92362490Y-87400000D03*
X91650000Y-87597405D03*
X86649990Y-90500000D03*
X66900000Y-97500000D03*
X64327950Y-115055058D03*
X60800000Y-90500004D03*
X68600000Y-86400000D03*
X76250526Y-88199723D03*
X72350000Y-90750000D03*
X64300000Y-95627221D03*
X76675526Y-90949723D03*
X78950526Y-96699723D03*
X78950526Y-95899723D03*
X90050000Y-120100000D03*
X96250247Y-113403900D03*
X76000000Y-117000020D03*
X87750000Y-94900000D03*
X82000000Y-110150000D03*
X81410001Y-96289999D03*
X80600000Y-91250000D03*
X65550000Y-109450000D03*
X73900000Y-91800000D03*
X65550000Y-96750000D03*
X82000000Y-111600000D03*
X84300000Y-112212488D03*
X62150000Y-105702245D03*
X59500000Y-105702237D03*
X62500000Y-107600000D03*
X59500000Y-108300000D03*
X63046085Y-106401390D03*
X59300000Y-107150000D03*
X66100526Y-98249723D03*
X76650000Y-103300000D03*
X67150526Y-107399723D03*
X65959017Y-108759462D03*
X68199998Y-103850000D03*
X70541831Y-112200000D03*
X71060721Y-105964028D03*
X72100000Y-109750000D03*
X72650002Y-105750000D03*
X73200000Y-117300000D03*
X81350000Y-107250000D03*
X89864997Y-109750000D03*
X57650000Y-110350000D03*
X58424988Y-108350000D03*
X69250000Y-114050000D03*
X72350000Y-117300000D03*
X80500000Y-107250000D03*
X90650000Y-109750000D03*
X66750000Y-111800000D03*
X57400000Y-119950000D03*
X98950000Y-121500000D03*
X68510147Y-105839855D03*
X70450000Y-122750000D03*
X64100000Y-124250000D03*
X58824797Y-118988907D03*
X98550000Y-122400000D03*
X99350000Y-118750000D03*
X74550000Y-99200000D03*
X54977968Y-108700000D03*
X69050000Y-110550000D03*
X74600000Y-117500000D03*
X75800000Y-118700000D03*
X67950000Y-105100000D03*
X55199996Y-107500000D03*
X72800000Y-112800000D03*
X80250000Y-108550000D03*
X91400000Y-109400000D03*
X67450000Y-112300000D03*
X84100000Y-106400000D03*
X64849996Y-123700000D03*
X67501056Y-108102117D03*
X50700000Y-109500000D03*
X57450000Y-120800000D03*
X66150526Y-107799723D03*
X66800526Y-119449723D03*
X82827488Y-110450000D03*
X94899996Y-105650000D03*
X75625000Y-109575000D03*
X82800000Y-107800004D03*
X94900000Y-104700000D03*
X77650000Y-107825000D03*
X73800000Y-118700000D03*
X53000000Y-108250000D03*
X65600000Y-106750002D03*
X87339854Y-118689854D03*
X86500000Y-119150000D03*
X53050000Y-118900000D03*
X54422502Y-117700000D03*
X93951510Y-88764364D03*
X91550526Y-88899723D03*
X95058137Y-88765707D03*
X91000000Y-86050028D03*
X65543688Y-99036855D03*
X83550006Y-112500000D03*
X59800526Y-92549723D03*
X94821842Y-114485754D03*
X94787460Y-115270435D03*
X95739255Y-116272512D03*
X95700000Y-117100001D03*
X96012478Y-120647743D03*
X94754751Y-117879943D03*
X96051088Y-119014989D03*
X96050000Y-119849992D03*
X54052507Y-115788738D03*
X50700000Y-116700000D03*
X52855071Y-115105070D03*
X53545563Y-114235207D03*
X52823989Y-113926054D03*
X50700000Y-113500000D03*
X53796247Y-112837510D03*
X53100000Y-112400000D03*
X50750000Y-120700000D03*
X50750000Y-119900000D03*
X54450000Y-120550000D03*
X55100000Y-119900000D03*
X52850000Y-120400004D03*
X63784489Y-115621519D03*
X64600000Y-116200006D03*
X64100000Y-116850000D03*
X63515656Y-118604799D03*
X63300000Y-117850000D03*
X62470405Y-117749325D03*
X61700000Y-117900000D03*
X62700000Y-118500000D03*
X50700000Y-111100000D03*
X50700006Y-110300000D03*
X59600000Y-109850000D03*
X58700000Y-85900000D03*
X63550000Y-86100000D03*
X91800000Y-124062490D03*
X98150000Y-124300000D03*
X90800000Y-124400000D03*
X93100000Y-122100000D03*
X90800000Y-122800000D03*
X90800000Y-123600006D03*
X91450000Y-120400000D03*
X88850000Y-120457208D03*
X80850000Y-99000000D03*
X99322937Y-93500000D03*
X81500000Y-99550000D03*
X99322937Y-94300000D03*
X80850000Y-100100000D03*
X99322937Y-95100000D03*
X76750000Y-96250000D03*
X99322949Y-92700000D03*
X81500000Y-100650000D03*
X99300000Y-95900000D03*
X75550002Y-95700000D03*
X99305666Y-91913496D03*
X80800000Y-101200000D03*
X99300000Y-96700000D03*
X81499764Y-101787510D03*
X99322937Y-97485003D03*
X76100000Y-92900000D03*
X99350000Y-91100000D03*
X65627931Y-93732224D03*
X52800000Y-93500000D03*
X74050000Y-90800000D03*
X94859346Y-110307778D03*
X85743093Y-115577498D03*
X95150000Y-109250000D03*
X84550000Y-115350000D03*
X95150000Y-108400000D03*
X81600000Y-113350000D03*
X96950000Y-107900000D03*
X82650000Y-113350004D03*
X96950000Y-107050000D03*
X83553126Y-113653750D03*
X94877500Y-106650000D03*
X84350000Y-113425000D03*
X69200000Y-108700000D03*
X50700000Y-108700000D03*
X69200000Y-107700000D03*
X50700000Y-107900000D03*
X69200000Y-106850000D03*
X50700000Y-107100000D03*
X70350000Y-107200000D03*
X50700000Y-106300000D03*
X50700000Y-105500000D03*
X71659363Y-107221483D03*
X71850000Y-105700000D03*
X50700000Y-104700000D03*
X50700000Y-103900000D03*
X69900000Y-104350000D03*
X50700000Y-103100000D03*
X70700000Y-104350000D03*
X50700000Y-102300000D03*
X71500000Y-104050000D03*
X50700000Y-101500000D03*
X72350000Y-103750000D03*
X50700000Y-100700000D03*
X72300000Y-102950000D03*
X70800000Y-102400000D03*
X50700000Y-99900000D03*
X78800000Y-110000000D03*
X97150000Y-103700000D03*
X81350000Y-105350000D03*
X78800012Y-110900000D03*
X97050000Y-104500000D03*
X81350000Y-106162500D03*
D12*
X59164933Y-120172577D02*
X58762499Y-120575011D01*
X58762499Y-120575011D02*
X58450000Y-120887510D01*
X65222501Y-115028307D02*
X65222501Y-116790342D01*
X63694194Y-113500000D02*
X65222501Y-115028307D01*
X65222501Y-116790342D02*
X64138157Y-117874686D01*
X62650000Y-113500000D02*
X63694194Y-113500000D01*
X64138157Y-118903600D02*
X62869180Y-120172577D01*
X62869180Y-120172577D02*
X59164933Y-120172577D01*
X64138157Y-117874686D02*
X64138157Y-118903600D01*
X61800000Y-111237526D02*
X61800000Y-112650000D01*
X61800000Y-112650000D02*
X62650000Y-113500000D01*
X54950000Y-116600000D02*
X54950000Y-113069961D01*
X54950000Y-113069961D02*
X53465315Y-111585276D01*
X53465315Y-111585276D02*
X53390975Y-111585276D01*
X53390975Y-111585276D02*
X52949034Y-111585276D01*
X56099565Y-117749565D02*
X54950000Y-116600000D01*
X54950000Y-116600000D02*
X53047544Y-116600000D01*
X60600435Y-117749565D02*
X56099565Y-117749565D01*
X60600435Y-119550076D02*
X60600435Y-117749565D01*
X60600435Y-117749565D02*
X63500000Y-114850000D01*
D13*
X95837509Y-89812499D02*
X95937501Y-89712507D01*
X81750000Y-90700000D02*
X82673271Y-89776729D01*
X95937501Y-89712507D02*
X96250000Y-89400008D01*
X87559041Y-89812499D02*
X95837509Y-89812499D01*
X87523271Y-89776729D02*
X87559041Y-89812499D01*
X82673271Y-89776729D02*
X87523271Y-89776729D01*
D12*
X82969988Y-109475011D02*
X80425011Y-109475011D01*
X80425011Y-109475011D02*
X80350000Y-109400000D01*
X84300000Y-110805023D02*
X82969988Y-109475011D01*
X92400000Y-114450000D02*
X92986747Y-113863253D01*
X92986747Y-113863253D02*
X95613251Y-113863253D01*
X95613251Y-113863253D02*
X95837499Y-114087501D01*
X95837499Y-114087501D02*
X96149998Y-114400000D01*
X92400000Y-118704728D02*
X92400000Y-114450000D01*
X92400000Y-119950000D02*
X90050000Y-117600000D01*
X86650001Y-117600000D02*
X85412499Y-116362498D01*
X90050000Y-117600000D02*
X86650001Y-117600000D01*
X85412499Y-116362498D02*
X85100000Y-116049999D01*
X92400000Y-119950000D02*
X92400000Y-118704728D01*
X95950000Y-107900000D02*
X97230809Y-109180809D01*
X97230809Y-109180809D02*
X97230809Y-112202127D01*
X84841941Y-93747544D02*
X84400000Y-93747544D01*
X86864946Y-93747544D02*
X84841941Y-93747544D01*
X89400000Y-91212490D02*
X86864946Y-93747544D01*
X95171302Y-118600000D02*
X94350000Y-118600000D01*
X96822499Y-113976152D02*
X96822499Y-116948803D01*
X94350000Y-118600000D02*
X93200000Y-119750000D01*
X92342493Y-121100000D02*
X91050000Y-121100000D01*
X96250247Y-113403900D02*
X96822499Y-113976152D01*
X96822499Y-116948803D02*
X95171302Y-118600000D01*
X90362499Y-120412499D02*
X90050000Y-120100000D01*
X93200000Y-120242493D02*
X92342493Y-121100000D01*
X93200000Y-119750000D02*
X93200000Y-120242493D01*
X91050000Y-121100000D02*
X90362499Y-120412499D01*
X65550000Y-109450000D02*
X66950000Y-109450000D01*
X66950000Y-109450000D02*
X68700000Y-111200000D01*
X68700000Y-111200000D02*
X69550000Y-111200000D01*
X69550000Y-111200000D02*
X70000000Y-110750000D01*
X70000000Y-110750000D02*
X74648812Y-110750000D01*
X74648812Y-110750000D02*
X76000000Y-112101188D01*
X76000000Y-112101188D02*
X76000000Y-116558079D01*
X76000000Y-116558079D02*
X76000000Y-117000020D01*
X87308059Y-94900000D02*
X87750000Y-94900000D01*
X82800000Y-94900000D02*
X87308059Y-94900000D01*
X81410001Y-96289999D02*
X82800000Y-94900000D01*
X67958059Y-93900000D02*
X65550000Y-96308059D01*
X67958059Y-93900000D02*
X71800000Y-93900000D01*
X71800000Y-93900000D02*
X73900000Y-91800000D01*
X65550000Y-96308059D02*
X65550000Y-96750000D01*
X83687512Y-111600000D02*
X83987501Y-111899989D01*
X83987501Y-111899989D02*
X84300000Y-112212488D01*
X82000000Y-111600000D02*
X83687512Y-111600000D01*
D14*
X59500000Y-105702237D02*
X62149992Y-105702237D01*
X62149992Y-105702237D02*
X62150000Y-105702245D01*
X59500000Y-108300000D02*
X60227444Y-107572556D01*
X60227444Y-107572556D02*
X61800000Y-107572556D01*
X61800000Y-107572556D02*
X61827444Y-107600000D01*
X61827444Y-107600000D02*
X62500000Y-107600000D01*
X59900000Y-106550000D02*
X62897475Y-106550000D01*
X59300000Y-107150000D02*
X59900000Y-106550000D01*
X62897475Y-106550000D02*
X63046085Y-106401390D01*
X81350000Y-107691941D02*
X81350000Y-107250000D01*
X88924988Y-108809991D02*
X82112067Y-108809990D01*
X81350000Y-108047923D02*
X81350000Y-107691941D01*
X89864997Y-109750000D02*
X88924988Y-108809991D01*
X82112067Y-108809990D02*
X81350000Y-108047923D01*
D15*
X69250000Y-114050000D02*
X67318652Y-114050000D01*
X67318652Y-114050000D02*
X64702190Y-111433539D01*
X61900000Y-109450000D02*
X61747499Y-109297499D01*
X61747499Y-109297499D02*
X59270645Y-109297499D01*
X64702190Y-110202190D02*
X63950000Y-109450000D01*
X64702190Y-111433539D02*
X64702190Y-110202190D01*
X59270645Y-109297499D02*
X58424988Y-108451842D01*
X63950000Y-109450000D02*
X61900000Y-109450000D01*
X58424988Y-108451842D02*
X58424988Y-108350000D01*
D14*
X81037501Y-106712499D02*
X80812499Y-106937501D01*
X81608001Y-106712499D02*
X81037501Y-106712499D01*
X80812499Y-106937501D02*
X80500000Y-107250000D01*
X81887501Y-107683007D02*
X81887501Y-106991999D01*
X90650000Y-109750000D02*
X89302513Y-108402513D01*
X82607007Y-108402513D02*
X81887501Y-107683007D01*
X89302513Y-108402513D02*
X82607007Y-108402513D01*
X81887501Y-106991999D02*
X81608001Y-106712499D01*
X95119233Y-120550000D02*
X96069233Y-121500000D01*
X93422837Y-120550000D02*
X95119233Y-120550000D01*
X70450000Y-122750000D02*
X85761706Y-122750000D01*
X85761706Y-122750000D02*
X88591999Y-119919707D01*
X89074205Y-119919707D02*
X90949488Y-121794990D01*
X96069233Y-121500000D02*
X98508059Y-121500000D01*
X90949488Y-121794990D02*
X92177847Y-121794990D01*
X92177847Y-121794990D02*
X93422837Y-120550000D01*
X98508059Y-121500000D02*
X98950000Y-121500000D01*
X88591999Y-119919707D02*
X89074205Y-119919707D01*
D15*
X64102501Y-124252501D02*
X65115197Y-124252501D01*
X65115197Y-124252501D02*
X65520055Y-123847643D01*
X65520055Y-123847643D02*
X66572643Y-123847643D01*
X66572643Y-123847643D02*
X67277224Y-124552224D01*
X95650000Y-123500000D02*
X96750000Y-122400000D01*
X96750000Y-122400000D02*
X98108059Y-122400000D01*
X67277224Y-124552224D02*
X85447776Y-124552224D01*
X87000000Y-123000000D02*
X87000000Y-122295047D01*
X85447776Y-124552224D02*
X87000000Y-123000000D01*
X89715727Y-121009722D02*
X90806005Y-122100000D01*
X87000000Y-122295047D02*
X88285325Y-121009722D01*
X88285325Y-121009722D02*
X89715727Y-121009722D01*
X90806005Y-122100000D02*
X91300000Y-122100000D01*
X91300000Y-122100000D02*
X92700000Y-123500000D01*
X92700000Y-123500000D02*
X95650000Y-123500000D01*
X98108059Y-122400000D02*
X98550000Y-122400000D01*
D14*
X74550000Y-99200000D02*
X74108059Y-99200000D01*
X74108059Y-99200000D02*
X72950000Y-100358059D01*
X73187503Y-106512497D02*
X71900000Y-107800000D01*
X72950000Y-100358059D02*
X72950000Y-105100000D01*
X72950000Y-105100000D02*
X73187503Y-105337503D01*
X73187503Y-105337503D02*
X73187503Y-106512497D01*
X71900000Y-107800000D02*
X71000000Y-107800000D01*
X71000000Y-107800000D02*
X69050000Y-109750000D01*
X69050000Y-109750000D02*
X69050000Y-110550000D01*
X80250000Y-108550000D02*
X80800000Y-109100000D01*
X91400000Y-109841941D02*
X91400000Y-109400000D01*
X80800000Y-109100000D02*
X88419495Y-109100000D01*
X88419495Y-109100000D02*
X89669495Y-110350000D01*
X89669495Y-110350000D02*
X90891941Y-110350000D01*
X90891941Y-110350000D02*
X91400000Y-109841941D01*
X67950000Y-112800000D02*
X72358059Y-112800000D01*
X67450000Y-112300000D02*
X67950000Y-112800000D01*
X72358059Y-112800000D02*
X72800000Y-112800000D01*
X59662499Y-107687501D02*
X60350000Y-107000000D01*
X50700000Y-109500000D02*
X52900000Y-107300000D01*
X67813555Y-107789618D02*
X67501056Y-108102117D01*
X52900000Y-107300000D02*
X52900000Y-106910136D01*
X59041999Y-107687501D02*
X59662499Y-107687501D01*
X52900000Y-106910136D02*
X54065380Y-105744756D01*
X60350000Y-107000000D02*
X63337224Y-107000000D01*
X58762499Y-107408001D02*
X59041999Y-107687501D01*
X54065380Y-105744756D02*
X58294756Y-105744756D01*
X58294756Y-105744756D02*
X58762499Y-106212499D01*
X64487224Y-105850000D02*
X66350000Y-105850000D01*
X58762499Y-106212499D02*
X58762499Y-107408001D01*
X63337224Y-107000000D02*
X64487224Y-105850000D01*
X66350000Y-105850000D02*
X67000000Y-106500000D01*
X67000000Y-106500000D02*
X67046305Y-106500000D01*
X67046305Y-106500000D02*
X67813555Y-107267250D01*
X67813555Y-107267250D02*
X67813555Y-107789618D01*
X66150526Y-107799723D02*
X65007200Y-108943049D01*
X65007200Y-108943049D02*
X65007200Y-111307200D01*
X65007200Y-111307200D02*
X67050000Y-113350000D01*
X67050000Y-113350000D02*
X69550000Y-113350000D01*
X69550000Y-113350000D02*
X69900000Y-113700000D01*
X69900000Y-113700000D02*
X69900000Y-114500000D01*
X69900000Y-114500000D02*
X69300000Y-115100000D01*
X69300000Y-115100000D02*
X66400000Y-115100000D01*
X65712499Y-118361696D02*
X66800526Y-119449723D01*
X66400000Y-115100000D02*
X65712499Y-115787501D01*
X65712499Y-115787501D02*
X65712499Y-118361696D01*
X94899996Y-105650000D02*
X92996140Y-107553856D01*
X84050000Y-111400000D02*
X83412499Y-110762499D01*
X92996140Y-107553856D02*
X92996140Y-108673452D01*
X83139987Y-110762499D02*
X82827488Y-110450000D01*
X92996140Y-108673452D02*
X90439625Y-111229967D01*
X90439625Y-111229967D02*
X84770033Y-111229967D01*
X83412499Y-110762499D02*
X83139987Y-110762499D01*
X84770033Y-111229967D02*
X84600000Y-111400000D01*
X84600000Y-111400000D02*
X84050000Y-111400000D01*
X82800000Y-107800004D02*
X83112499Y-108112503D01*
X83112499Y-108112503D02*
X89512503Y-108112503D01*
X91489860Y-108650000D02*
X94200000Y-105939860D01*
X89512503Y-108112503D02*
X90050000Y-108650000D01*
X90050000Y-108650000D02*
X91489860Y-108650000D01*
X94200000Y-105939860D02*
X94200000Y-105400000D01*
X94200000Y-105400000D02*
X94900000Y-104700000D01*
X65600000Y-106750002D02*
X64112500Y-108237502D01*
X58084766Y-106034766D02*
X54185506Y-106034766D01*
X60607994Y-108237502D02*
X60007995Y-108837501D01*
X59241998Y-108837502D02*
X58962498Y-108558002D01*
X58472489Y-107528127D02*
X58472489Y-106422489D01*
X53000000Y-107808059D02*
X53000000Y-108250000D01*
X58472489Y-106422489D02*
X58084766Y-106034766D01*
X58962498Y-108018136D02*
X58472489Y-107528127D01*
X54185506Y-106034766D02*
X53250000Y-106970272D01*
X58962498Y-108558002D02*
X58962498Y-108018136D01*
X64112500Y-108237502D02*
X60607994Y-108237502D01*
X53250000Y-107558059D02*
X53000000Y-107808059D01*
X60007995Y-108837501D02*
X59241998Y-108837502D01*
X53250000Y-106970272D02*
X53250000Y-107558059D01*
X91550526Y-88899723D02*
X93200277Y-88899723D01*
X93200277Y-88899723D02*
X93335636Y-88764364D01*
X93335636Y-88764364D02*
X93951510Y-88764364D01*
X95058137Y-88765707D02*
X95500000Y-88323844D01*
X91312499Y-86362527D02*
X91000000Y-86050028D01*
X95500000Y-88323844D02*
X95500000Y-87293639D01*
X95500000Y-87293639D02*
X94568888Y-86362527D01*
X94568888Y-86362527D02*
X91312499Y-86362527D01*
X63836855Y-99036855D02*
X59800526Y-95000526D01*
X59800526Y-95000526D02*
X59800526Y-92549723D01*
X65543688Y-99036855D02*
X63836855Y-99036855D01*
X59600000Y-109850000D02*
X59158059Y-109850000D01*
X59158059Y-109850000D02*
X58720558Y-109412499D01*
X58720558Y-109412499D02*
X58716997Y-109412499D01*
X53662499Y-106987501D02*
X53662499Y-108650000D01*
X51541947Y-109900000D02*
X51141947Y-110300000D01*
X58716997Y-109412499D02*
X57750000Y-108445502D01*
X57750000Y-108445502D02*
X57750000Y-106700000D01*
X57750000Y-106700000D02*
X57374776Y-106324776D01*
X52900000Y-109412499D02*
X52037501Y-109412499D01*
X57374776Y-106324776D02*
X54325224Y-106324776D01*
X54325224Y-106324776D02*
X53662499Y-106987501D01*
X53662499Y-108650000D02*
X52900000Y-109412499D01*
X52037501Y-109412499D02*
X51550000Y-109900000D01*
X51550000Y-109900000D02*
X51541947Y-109900000D01*
X51141947Y-110300000D02*
X50700006Y-110300000D01*
X98150000Y-124300000D02*
X92037510Y-124300000D01*
X92037510Y-124300000D02*
X91837510Y-124100000D01*
X91837510Y-124100000D02*
X91800000Y-124062490D01*
X84090154Y-96319980D02*
X81410134Y-99000000D01*
X89085659Y-96319980D02*
X84090154Y-96319980D01*
X98092915Y-94730022D02*
X90675617Y-94730022D01*
X99322937Y-93500000D02*
X98092915Y-94730022D01*
X90675617Y-94730022D02*
X89085659Y-96319980D01*
X81291941Y-99000000D02*
X80850000Y-99000000D01*
X81410134Y-99000000D02*
X81291941Y-99000000D01*
X84440009Y-96609991D02*
X89205785Y-96609991D01*
X99010438Y-94612499D02*
X99322937Y-94300000D01*
X98620575Y-94612499D02*
X99010438Y-94612499D01*
X81500000Y-99550000D02*
X84440009Y-96609991D01*
X98213041Y-95020033D02*
X98620575Y-94612499D01*
X89205785Y-96609991D02*
X90795743Y-95020033D01*
X90795743Y-95020033D02*
X98213041Y-95020033D01*
X81291941Y-100100000D02*
X80850000Y-100100000D01*
X84960134Y-96900002D02*
X81760136Y-100100000D01*
X81760136Y-100100000D02*
X81291941Y-100100000D01*
X98880996Y-95100000D02*
X98670952Y-95310044D01*
X90915869Y-95310044D02*
X89325911Y-96900002D01*
X98670952Y-95310044D02*
X90915869Y-95310044D01*
X99322937Y-95100000D02*
X98880996Y-95100000D01*
X89325911Y-96900002D02*
X84960134Y-96900002D01*
X77062499Y-96562499D02*
X76750000Y-96250000D01*
X83970026Y-96029969D02*
X81599995Y-98400000D01*
X81599995Y-98400000D02*
X78900000Y-98400000D01*
X90555491Y-94440011D02*
X88965533Y-96029969D01*
X78900000Y-98400000D02*
X77062499Y-96562499D01*
X97582938Y-94440011D02*
X90555491Y-94440011D01*
X99322949Y-92700000D02*
X97582938Y-94440011D01*
X88965533Y-96029969D02*
X83970026Y-96029969D01*
X89446037Y-97190013D02*
X85080259Y-97190013D01*
X85080259Y-97190013D02*
X81620272Y-100650000D01*
X99300000Y-95900000D02*
X99000055Y-95600055D01*
X99000055Y-95600055D02*
X91035995Y-95600055D01*
X81620272Y-100650000D02*
X81500000Y-100650000D01*
X91035995Y-95600055D02*
X89446037Y-97190013D01*
X75550002Y-95700000D02*
X77100000Y-95700000D01*
X77100000Y-95700000D02*
X78000000Y-96600000D01*
X78000000Y-96600000D02*
X78000000Y-97054496D01*
X78000000Y-97054496D02*
X78745504Y-97800000D01*
X81760136Y-97800000D02*
X83820178Y-95739958D01*
X78745504Y-97800000D02*
X81760136Y-97800000D01*
X83820178Y-95739958D02*
X88115678Y-95739958D01*
X88115678Y-95739958D02*
X88577512Y-95278124D01*
X88577512Y-95278124D02*
X88577512Y-94632624D01*
X88577512Y-94632624D02*
X89060135Y-94150001D01*
X89060135Y-94150001D02*
X97069162Y-94150000D01*
X97069162Y-94150000D02*
X99305666Y-91913496D01*
X85465478Y-97480024D02*
X81745502Y-101200000D01*
X91156121Y-95890066D02*
X89566163Y-97480024D01*
X89566163Y-97480024D02*
X85465478Y-97480024D01*
X99300000Y-96700000D02*
X98490066Y-95890066D01*
X81745502Y-101200000D02*
X81241941Y-101200000D01*
X98490066Y-95890066D02*
X91156121Y-95890066D01*
X81241941Y-101200000D02*
X80800000Y-101200000D01*
X85555638Y-97800000D02*
X81568128Y-101787510D01*
X81568128Y-101787510D02*
X81499764Y-101787510D01*
X99322937Y-97485003D02*
X98018011Y-96180077D01*
X91276246Y-96180077D02*
X89656323Y-97800000D01*
X89656323Y-97800000D02*
X85555638Y-97800000D01*
X98018011Y-96180077D02*
X91276246Y-96180077D01*
X76541941Y-92900000D02*
X76100000Y-92900000D01*
X81027419Y-96950000D02*
X76977419Y-92900000D01*
X82180344Y-96950000D02*
X81027419Y-96950000D01*
X87995552Y-95449947D02*
X83680397Y-95449947D01*
X88287501Y-95157998D02*
X87995552Y-95449947D01*
X76977419Y-92900000D02*
X76541941Y-92900000D01*
X83680397Y-95449947D02*
X82180344Y-96950000D01*
X97750000Y-92700000D02*
X90100000Y-92700000D01*
X90100000Y-92700000D02*
X88287501Y-94512499D01*
X99350000Y-91100000D02*
X97750000Y-92700000D01*
X88287501Y-94512499D02*
X88287501Y-95157998D01*
X65315432Y-93419725D02*
X65627931Y-93732224D01*
X63045707Y-91150000D02*
X65315432Y-93419725D01*
X52800000Y-93500000D02*
X55150000Y-91150000D01*
X55150000Y-91150000D02*
X63045707Y-91150000D01*
X85743093Y-115577498D02*
X86153100Y-115987505D01*
X86153100Y-115987505D02*
X89858001Y-115987505D01*
X89858001Y-115987505D02*
X90200000Y-115645506D01*
X90200000Y-115645506D02*
X90200000Y-114967124D01*
X90200000Y-114967124D02*
X94859346Y-110307778D01*
X94837501Y-109562499D02*
X95150000Y-109250000D01*
X94446194Y-109953806D02*
X94837501Y-109562499D01*
X84550000Y-115350000D02*
X85009989Y-114890011D01*
X85009989Y-114890011D02*
X89520126Y-114890011D01*
X94446194Y-109963943D02*
X94446194Y-109953806D01*
X89520126Y-114890011D02*
X94446194Y-109963943D01*
X81600000Y-113350000D02*
X82850000Y-114600000D01*
X82850000Y-114600000D02*
X85000000Y-114600000D01*
X90144184Y-113205816D02*
X94950000Y-108400000D01*
X85000000Y-114600000D02*
X86394184Y-113205816D01*
X86394184Y-113205816D02*
X90144184Y-113205816D01*
X94950000Y-108400000D02*
X95150000Y-108400000D01*
X93866173Y-108888325D02*
X95391999Y-107362499D01*
X82650000Y-113350004D02*
X82650000Y-113791945D01*
X90800000Y-112100000D02*
X93866173Y-109033827D01*
X93866173Y-109033827D02*
X93866173Y-108888325D01*
X84740011Y-114309989D02*
X86950000Y-112100000D01*
X82650000Y-113791945D02*
X83168044Y-114309989D01*
X83168044Y-114309989D02*
X84740011Y-114309989D01*
X86950000Y-112100000D02*
X90800000Y-112100000D01*
X95391999Y-107362499D02*
X96412499Y-107362499D01*
X96412499Y-107362499D02*
X96637501Y-107587501D01*
X96637501Y-107587501D02*
X96950000Y-107900000D01*
X93576162Y-108768199D02*
X95294362Y-107050000D01*
X95294362Y-107050000D02*
X96508059Y-107050000D01*
X93576162Y-108913702D02*
X93576162Y-108768199D01*
X86829874Y-111809989D02*
X90679875Y-111809989D01*
X96508059Y-107050000D02*
X96950000Y-107050000D01*
X84673615Y-113966249D02*
X86829874Y-111809989D01*
X83553126Y-113653750D02*
X83865625Y-113966249D01*
X83865625Y-113966249D02*
X84673615Y-113966249D01*
X90679875Y-111809989D02*
X93576162Y-108913702D01*
X94565001Y-106962499D02*
X94877500Y-106650000D01*
X93286151Y-108793577D02*
X93286151Y-108241349D01*
X90559750Y-111519978D02*
X93286151Y-108793577D01*
X86709748Y-111519978D02*
X90559750Y-111519978D01*
X93286151Y-108241349D02*
X94565001Y-106962499D01*
X84804726Y-113425000D02*
X86709748Y-111519978D01*
X84350000Y-113425000D02*
X84804726Y-113425000D01*
X69200000Y-108700000D02*
X68103564Y-107603564D01*
X52950000Y-106450000D02*
X50700000Y-108700000D01*
X68103564Y-107603564D02*
X68103564Y-107147123D01*
X68103564Y-107147123D02*
X66456441Y-105500000D01*
X66456441Y-105500000D02*
X63150000Y-105500000D01*
X63150000Y-105500000D02*
X62390010Y-106259990D01*
X62390010Y-106259990D02*
X59262251Y-106259990D01*
X59262251Y-106259990D02*
X58457007Y-105454746D01*
X58457007Y-105454746D02*
X53945254Y-105454746D01*
X53945254Y-105454746D02*
X52950000Y-106450000D01*
X66664736Y-105164736D02*
X68887501Y-107387501D01*
X53435264Y-105164736D02*
X66664736Y-105164736D01*
X50700000Y-107900000D02*
X53435264Y-105164736D01*
X68887501Y-107387501D02*
X69200000Y-107700000D01*
X68447638Y-106537501D02*
X68887501Y-106537501D01*
X66784862Y-104874725D02*
X68447638Y-106537501D01*
X51012499Y-106787501D02*
X51402362Y-106787501D01*
X53315138Y-104874725D02*
X66784862Y-104874725D01*
X51402362Y-106787501D02*
X53315138Y-104874725D01*
X50700000Y-107100000D02*
X51012499Y-106787501D01*
X68887501Y-106537501D02*
X69200000Y-106850000D01*
X67400000Y-104450000D02*
X68250000Y-104450000D01*
X51479727Y-106300000D02*
X53195009Y-104584718D01*
X70350000Y-106550000D02*
X70350000Y-106758059D01*
X68250000Y-104450000D02*
X70350000Y-106550000D01*
X50700000Y-106300000D02*
X51479727Y-106300000D01*
X53195009Y-104584718D02*
X67265282Y-104584718D01*
X67265282Y-104584718D02*
X67400000Y-104450000D01*
X70350000Y-106758059D02*
X70350000Y-107200000D01*
X71659363Y-107221483D02*
X71346864Y-106908984D01*
X71346864Y-106908984D02*
X71158984Y-106908984D01*
X68950000Y-104700000D02*
X68950000Y-103804496D01*
X68458003Y-103312499D02*
X67691987Y-103312499D01*
X71158984Y-106908984D02*
X68950000Y-104700000D01*
X68950000Y-103804496D02*
X68458003Y-103312499D01*
X51869589Y-105500000D02*
X51141941Y-105500000D01*
X67691987Y-103312499D02*
X66709783Y-104294703D01*
X53074886Y-104294703D02*
X51869589Y-105500000D01*
X66709783Y-104294703D02*
X53074886Y-104294703D01*
X51141941Y-105500000D02*
X50700000Y-105500000D01*
X66597136Y-103997213D02*
X67571861Y-103022488D01*
X52259453Y-104700000D02*
X52962240Y-103997213D01*
X69290011Y-103734372D02*
X69290011Y-104629875D01*
X70047637Y-105387501D02*
X71537501Y-105387501D01*
X69290011Y-104629875D02*
X70047637Y-105387501D01*
X67571861Y-103022488D02*
X68578127Y-103022488D01*
X52962240Y-103997213D02*
X66597136Y-103997213D01*
X71537501Y-105387501D02*
X71850000Y-105700000D01*
X50700000Y-104700000D02*
X52259453Y-104700000D01*
X68578127Y-103022488D02*
X69290011Y-103734372D01*
X61432660Y-103707204D02*
X51334737Y-103707204D01*
X51334737Y-103707204D02*
X51141941Y-103900000D01*
X69587501Y-103621725D02*
X68698256Y-102732480D01*
X68698256Y-102732480D02*
X62407384Y-102732480D01*
X62407384Y-102732480D02*
X61432660Y-103707204D01*
X69587501Y-104037501D02*
X69587501Y-103621725D01*
X69900000Y-104350000D02*
X69587501Y-104037501D01*
X51141941Y-103900000D02*
X50700000Y-103900000D01*
X62287258Y-102442469D02*
X61317228Y-103412499D01*
X70387501Y-104037501D02*
X70387501Y-104011588D01*
X70700000Y-104350000D02*
X70387501Y-104037501D01*
X51012499Y-103412499D02*
X50700000Y-103100000D01*
X68818382Y-102442469D02*
X62287258Y-102442469D01*
X61317228Y-103412499D02*
X51012499Y-103412499D01*
X70387501Y-104011588D02*
X68818382Y-102442469D01*
X55460959Y-102262499D02*
X55110959Y-102612499D01*
X59158001Y-102262499D02*
X55460959Y-102262499D01*
X55110959Y-102612499D02*
X51012499Y-102612499D01*
X61745522Y-102450000D02*
X59345502Y-102450000D01*
X71500000Y-104050000D02*
X71187501Y-103737501D01*
X62045522Y-102150000D02*
X61745522Y-102450000D01*
X71187501Y-103737501D02*
X70523551Y-103737501D01*
X70523551Y-103737501D02*
X68936050Y-102150000D01*
X59345502Y-102450000D02*
X59158001Y-102262499D01*
X51012499Y-102612499D02*
X50700000Y-102300000D01*
X68936050Y-102150000D02*
X62045522Y-102150000D01*
X69056177Y-101859990D02*
X62355512Y-101859990D01*
X70633688Y-103437501D02*
X69056177Y-101859990D01*
X61785533Y-101290011D02*
X51351930Y-101290011D01*
X62355512Y-101859990D02*
X61785533Y-101290011D01*
X72037501Y-103437501D02*
X70633688Y-103437501D01*
X72350000Y-103750000D02*
X72037501Y-103437501D01*
X51351930Y-101290011D02*
X51141941Y-101500000D01*
X51141941Y-101500000D02*
X50700000Y-101500000D01*
X51141941Y-100700000D02*
X50700000Y-100700000D01*
X61905659Y-101000000D02*
X52200000Y-101000000D01*
X70556324Y-102950000D02*
X69156324Y-101550000D01*
X62455658Y-101550000D02*
X61905659Y-101000000D01*
X72300000Y-102950000D02*
X70556324Y-102950000D01*
X52200000Y-101000000D02*
X51900000Y-100700000D01*
X69156324Y-101550000D02*
X62455658Y-101550000D01*
X51900000Y-100700000D02*
X51141941Y-100700000D01*
X69550000Y-101150000D02*
X70487501Y-102087501D01*
X62025784Y-100709990D02*
X62465794Y-101150000D01*
X52320126Y-100709990D02*
X62025784Y-100709990D01*
X51510136Y-99900000D02*
X52320126Y-100709990D01*
X70487501Y-102087501D02*
X70800000Y-102400000D01*
X62465794Y-101150000D02*
X69550000Y-101150000D01*
X50700000Y-99900000D02*
X51510136Y-99900000D01*
X81350000Y-105350000D02*
X81662499Y-105662499D01*
X83782483Y-107532483D02*
X90092620Y-107532484D01*
X81662499Y-105662499D02*
X81912499Y-105662499D01*
X94694362Y-103700000D02*
X96708059Y-103700000D01*
X81912499Y-105662499D02*
X83782483Y-107532483D01*
X90092620Y-107532484D02*
X90547625Y-107987489D01*
X91332099Y-107987489D02*
X93619980Y-105699608D01*
X90547625Y-107987489D02*
X91332099Y-107987489D01*
X93619980Y-105699608D02*
X93619981Y-104774381D01*
X93619981Y-104774381D02*
X94694362Y-103700000D01*
X96708059Y-103700000D02*
X97150000Y-103700000D01*
X81350000Y-106162500D02*
X81712500Y-106162500D01*
X83617991Y-107822493D02*
X89972493Y-107822493D01*
X81712500Y-106162500D02*
X82550000Y-107000000D01*
X82550000Y-107000000D02*
X82795498Y-107000000D01*
X93909990Y-104894508D02*
X94666997Y-104137501D01*
X82795498Y-107000000D02*
X83617991Y-107822493D01*
X89972493Y-107822493D02*
X90509990Y-108359990D01*
X90509990Y-108359990D02*
X91369734Y-108359990D01*
X91369734Y-108359990D02*
X93909990Y-105819734D01*
X93909990Y-105819734D02*
X93909990Y-104894508D01*
X94666997Y-104137501D02*
X96687501Y-104137501D01*
X96687501Y-104137501D02*
X96737501Y-104187501D01*
X96737501Y-104187501D02*
X97050000Y-104500000D01*
D16*
G36*
X53664883Y-85458962D02*
X53485395Y-85638137D01*
X53388137Y-85872360D01*
X53387916Y-86125973D01*
X53484765Y-86360366D01*
X53663940Y-86539854D01*
X53898163Y-86637112D01*
X54151776Y-86637333D01*
X54386169Y-86540484D01*
X54565657Y-86361309D01*
X54662915Y-86127086D01*
X54663136Y-85873473D01*
X54566287Y-85639080D01*
X54387112Y-85459592D01*
X54303988Y-85425076D01*
X56696894Y-85425076D01*
X56614883Y-85458962D01*
X56435395Y-85638137D01*
X56338137Y-85872360D01*
X56337916Y-86125973D01*
X56434765Y-86360366D01*
X56613940Y-86539854D01*
X56848163Y-86637112D01*
X57101776Y-86637333D01*
X57336169Y-86540484D01*
X57515657Y-86361309D01*
X57612915Y-86127086D01*
X57613136Y-85873473D01*
X57516287Y-85639080D01*
X57337112Y-85459592D01*
X57253988Y-85425076D01*
X58273405Y-85425076D01*
X58159869Y-85538414D01*
X58062611Y-85772637D01*
X58062390Y-86026250D01*
X58159239Y-86260643D01*
X58338414Y-86440131D01*
X58572637Y-86537389D01*
X58826250Y-86537610D01*
X59060643Y-86440761D01*
X59240131Y-86261586D01*
X59337389Y-86027363D01*
X59337610Y-85773750D01*
X59240761Y-85539357D01*
X59126679Y-85425076D01*
X67375000Y-85425076D01*
X67375000Y-91500000D01*
X67403545Y-91643506D01*
X67484835Y-91765165D01*
X67606494Y-91846455D01*
X67750000Y-91875000D01*
X69500000Y-91875000D01*
X69643506Y-91846455D01*
X69765165Y-91765165D01*
X70654080Y-90876250D01*
X71712390Y-90876250D01*
X71809239Y-91110643D01*
X71988414Y-91290131D01*
X72222637Y-91387389D01*
X72476250Y-91387610D01*
X72710643Y-91290761D01*
X72890131Y-91111586D01*
X72987389Y-90877363D01*
X72987610Y-90623750D01*
X72890761Y-90389357D01*
X72711586Y-90209869D01*
X72477363Y-90112611D01*
X72223750Y-90112390D01*
X71989357Y-90209239D01*
X71809869Y-90388414D01*
X71712611Y-90622637D01*
X71712390Y-90876250D01*
X70654080Y-90876250D01*
X72319175Y-89211155D01*
X87263139Y-89211155D01*
X87359988Y-89445548D01*
X87539163Y-89625036D01*
X87773386Y-89722294D01*
X88026999Y-89722515D01*
X88261392Y-89625666D01*
X88440880Y-89446491D01*
X88538138Y-89212268D01*
X88538138Y-89211155D01*
X88938139Y-89211155D01*
X89034988Y-89445548D01*
X89214163Y-89625036D01*
X89448386Y-89722294D01*
X89701999Y-89722515D01*
X89936392Y-89625666D01*
X90115880Y-89446491D01*
X90213138Y-89212268D01*
X90213359Y-88958655D01*
X90116510Y-88724262D01*
X89937335Y-88544774D01*
X89703112Y-88447516D01*
X89449499Y-88447295D01*
X89215106Y-88544144D01*
X89035618Y-88723319D01*
X88938360Y-88957542D01*
X88938139Y-89211155D01*
X88538138Y-89211155D01*
X88538359Y-88958655D01*
X88441510Y-88724262D01*
X88262335Y-88544774D01*
X88028112Y-88447516D01*
X87774499Y-88447295D01*
X87540106Y-88544144D01*
X87360618Y-88723319D01*
X87263360Y-88957542D01*
X87263139Y-89211155D01*
X72319175Y-89211155D01*
X72655330Y-88875000D01*
X77750000Y-88875000D01*
X77893506Y-88846455D01*
X78015165Y-88765165D01*
X78405330Y-88375000D01*
X79344670Y-88375000D01*
X79734835Y-88765165D01*
X79856494Y-88846455D01*
X80000000Y-88875000D01*
X83750000Y-88875000D01*
X83893506Y-88846455D01*
X84015165Y-88765165D01*
X84655330Y-88125000D01*
X84973306Y-88125000D01*
X84959869Y-88138414D01*
X84862611Y-88372637D01*
X84862390Y-88626250D01*
X84959239Y-88860643D01*
X85138414Y-89040131D01*
X85372637Y-89137389D01*
X85626250Y-89137610D01*
X85860643Y-89040761D01*
X86040131Y-88861586D01*
X86137389Y-88627363D01*
X86137609Y-88375000D01*
X91173817Y-88375000D01*
X91010395Y-88538137D01*
X90913137Y-88772360D01*
X90912916Y-89025973D01*
X91009765Y-89260366D01*
X91188940Y-89439854D01*
X91423163Y-89537112D01*
X91676776Y-89537333D01*
X91911169Y-89440484D01*
X92062193Y-89289723D01*
X93200272Y-89289723D01*
X93200277Y-89289724D01*
X93324762Y-89264962D01*
X93349524Y-89260036D01*
X93467111Y-89181467D01*
X93589924Y-89304495D01*
X93824147Y-89401753D01*
X94077760Y-89401974D01*
X94312153Y-89305125D01*
X94491641Y-89125950D01*
X94504457Y-89095085D01*
X94517376Y-89126350D01*
X94696551Y-89305838D01*
X94930774Y-89403096D01*
X95184387Y-89403317D01*
X95418780Y-89306468D01*
X95598268Y-89127293D01*
X95695526Y-88893070D01*
X95695712Y-88679675D01*
X95775769Y-88599618D01*
X95775772Y-88599616D01*
X95860313Y-88473091D01*
X95860314Y-88473090D01*
X95890001Y-88323844D01*
X95890000Y-88323839D01*
X95890000Y-87293639D01*
X95860313Y-87144392D01*
X95775772Y-87017867D01*
X95775769Y-87017865D01*
X94844660Y-86086755D01*
X94823116Y-86072360D01*
X94718135Y-86002214D01*
X94693373Y-85997288D01*
X94568888Y-85972526D01*
X94568883Y-85972527D01*
X94227115Y-85972527D01*
X94287389Y-85827371D01*
X94287610Y-85573758D01*
X94226176Y-85425076D01*
X95746894Y-85425076D01*
X95664883Y-85458962D01*
X95485395Y-85638137D01*
X95388137Y-85872360D01*
X95387916Y-86125973D01*
X95484765Y-86360366D01*
X95663940Y-86539854D01*
X95898163Y-86637112D01*
X96151776Y-86637333D01*
X96386169Y-86540484D01*
X96565657Y-86361309D01*
X96662915Y-86127086D01*
X96663136Y-85873473D01*
X96566287Y-85639080D01*
X96387112Y-85459592D01*
X96303988Y-85425076D01*
X98636389Y-85425076D01*
X98614883Y-85433962D01*
X98435395Y-85613137D01*
X98338137Y-85847360D01*
X98337916Y-86100973D01*
X98434765Y-86335366D01*
X98613940Y-86514854D01*
X98848163Y-86612112D01*
X99101776Y-86612333D01*
X99336169Y-86515484D01*
X99515657Y-86336309D01*
X99575435Y-86192348D01*
X99575435Y-90503334D01*
X99477363Y-90462611D01*
X99223750Y-90462390D01*
X98989357Y-90559239D01*
X98809869Y-90738414D01*
X98712611Y-90972637D01*
X98712425Y-91186032D01*
X97588456Y-92310000D01*
X97491458Y-92310000D01*
X97640131Y-92161586D01*
X97737389Y-91927363D01*
X97737610Y-91673750D01*
X97640761Y-91439357D01*
X97461586Y-91259869D01*
X97227363Y-91162611D01*
X96973750Y-91162390D01*
X96739357Y-91259239D01*
X96559869Y-91438414D01*
X96462611Y-91672637D01*
X96462390Y-91926250D01*
X96559239Y-92160643D01*
X96708336Y-92310000D01*
X90100005Y-92310000D01*
X90100000Y-92309999D01*
X89950754Y-92339686D01*
X89921491Y-92359239D01*
X89824228Y-92424228D01*
X89824226Y-92424231D01*
X88011729Y-94236727D01*
X87969007Y-94300665D01*
X87877363Y-94262611D01*
X87623750Y-94262390D01*
X87389357Y-94359239D01*
X87323481Y-94425000D01*
X82800000Y-94425000D01*
X82618225Y-94461157D01*
X82464124Y-94564124D01*
X82464122Y-94564127D01*
X81377805Y-95650443D01*
X81387389Y-95627363D01*
X81387610Y-95373750D01*
X81290761Y-95139357D01*
X81111586Y-94959869D01*
X80877363Y-94862611D01*
X80623750Y-94862390D01*
X80389357Y-94959239D01*
X80209869Y-95138414D01*
X80112611Y-95372637D01*
X80112514Y-95483551D01*
X78502757Y-93873794D01*
X83762390Y-93873794D01*
X83859239Y-94108187D01*
X84038414Y-94287675D01*
X84272637Y-94384933D01*
X84526250Y-94385154D01*
X84760643Y-94288305D01*
X84826519Y-94222544D01*
X86864946Y-94222544D01*
X87046721Y-94186387D01*
X87200822Y-94083420D01*
X89434222Y-91850020D01*
X89526250Y-91850100D01*
X89760643Y-91753251D01*
X89940131Y-91574076D01*
X90037389Y-91339853D01*
X90037610Y-91086240D01*
X89940761Y-90851847D01*
X89761586Y-90672359D01*
X89752669Y-90668656D01*
X94162390Y-90668656D01*
X94259239Y-90903049D01*
X94327236Y-90971165D01*
X94259869Y-91038414D01*
X94162611Y-91272637D01*
X94162390Y-91526250D01*
X94259239Y-91760643D01*
X94438414Y-91940131D01*
X94672637Y-92037389D01*
X94926250Y-92037610D01*
X95160643Y-91940761D01*
X95340131Y-91761586D01*
X95437389Y-91527363D01*
X95437610Y-91273750D01*
X95340761Y-91039357D01*
X95272764Y-90971241D01*
X95340131Y-90903992D01*
X95437389Y-90669769D01*
X95437610Y-90416156D01*
X95340761Y-90181763D01*
X95161586Y-90002275D01*
X94927363Y-89905017D01*
X94673750Y-89904796D01*
X94439357Y-90001645D01*
X94259869Y-90180820D01*
X94162611Y-90415043D01*
X94162390Y-90668656D01*
X89752669Y-90668656D01*
X89527363Y-90575101D01*
X89273750Y-90574880D01*
X89039357Y-90671729D01*
X88859869Y-90850904D01*
X88762611Y-91085127D01*
X88762530Y-91178208D01*
X86668194Y-93272544D01*
X84826603Y-93272544D01*
X84761586Y-93207413D01*
X84527363Y-93110155D01*
X84273750Y-93109934D01*
X84039357Y-93206783D01*
X83859869Y-93385958D01*
X83762611Y-93620181D01*
X83762390Y-93873794D01*
X78502757Y-93873794D01*
X77253191Y-92624228D01*
X77126666Y-92539687D01*
X77101904Y-92534761D01*
X76977419Y-92509999D01*
X76977414Y-92510000D01*
X76611455Y-92510000D01*
X76539082Y-92437500D01*
X78859890Y-92437500D01*
X78956739Y-92671893D01*
X79135914Y-92851381D01*
X79370137Y-92948639D01*
X79623750Y-92948860D01*
X79858143Y-92852011D01*
X80037631Y-92672836D01*
X80134889Y-92438613D01*
X80135110Y-92185000D01*
X80038261Y-91950607D01*
X79859086Y-91771119D01*
X79624863Y-91673861D01*
X79371250Y-91673640D01*
X79136857Y-91770489D01*
X78957369Y-91949664D01*
X78860111Y-92183887D01*
X78859890Y-92437500D01*
X76539082Y-92437500D01*
X76461586Y-92359869D01*
X76227363Y-92262611D01*
X75973750Y-92262390D01*
X75739357Y-92359239D01*
X75559869Y-92538414D01*
X75462611Y-92772637D01*
X75462390Y-93026250D01*
X75559239Y-93260643D01*
X75738414Y-93440131D01*
X75972637Y-93537389D01*
X76226250Y-93537610D01*
X76460643Y-93440761D01*
X76611667Y-93290000D01*
X76815875Y-93290000D01*
X78798598Y-95272723D01*
X78589883Y-95358962D01*
X78410395Y-95538137D01*
X78313137Y-95772360D01*
X78312916Y-96025973D01*
X78409765Y-96260366D01*
X78448965Y-96299634D01*
X78410395Y-96338137D01*
X78361388Y-96456158D01*
X78360313Y-96450753D01*
X78275772Y-96324228D01*
X78275769Y-96324226D01*
X77375772Y-95424228D01*
X77354529Y-95410034D01*
X77249247Y-95339687D01*
X77224485Y-95334761D01*
X77100000Y-95309999D01*
X77099995Y-95310000D01*
X76061457Y-95310000D01*
X75911588Y-95159869D01*
X75677365Y-95062611D01*
X75423752Y-95062390D01*
X75189359Y-95159239D01*
X75009871Y-95338414D01*
X74912613Y-95572637D01*
X74912392Y-95826250D01*
X75009241Y-96060643D01*
X75188416Y-96240131D01*
X75422639Y-96337389D01*
X75676252Y-96337610D01*
X75910645Y-96240761D01*
X76061669Y-96090000D01*
X76126163Y-96090000D01*
X76112611Y-96122637D01*
X76112390Y-96376250D01*
X76209239Y-96610643D01*
X76388414Y-96790131D01*
X76622637Y-96887389D01*
X76836031Y-96887575D01*
X78624228Y-98675772D01*
X78750753Y-98760313D01*
X78775515Y-98765239D01*
X78900000Y-98790001D01*
X78900005Y-98790000D01*
X80246925Y-98790000D01*
X80212611Y-98872637D01*
X80212390Y-99126250D01*
X80309239Y-99360643D01*
X80488414Y-99540131D01*
X80511950Y-99549904D01*
X80489357Y-99559239D01*
X80309869Y-99738414D01*
X80212611Y-99972637D01*
X80212390Y-100226250D01*
X80309239Y-100460643D01*
X80487593Y-100639308D01*
X80439357Y-100659239D01*
X80259869Y-100838414D01*
X80162611Y-101072637D01*
X80162390Y-101326250D01*
X80259239Y-101560643D01*
X80438414Y-101740131D01*
X80672637Y-101837389D01*
X80862220Y-101837554D01*
X80862154Y-101913760D01*
X80959003Y-102148153D01*
X81138178Y-102327641D01*
X81372401Y-102424899D01*
X81626014Y-102425120D01*
X81860407Y-102328271D01*
X82039895Y-102149096D01*
X82137153Y-101914873D01*
X82137279Y-101769903D01*
X85717181Y-98190000D01*
X88497336Y-98190000D01*
X88463137Y-98272360D01*
X88462916Y-98525973D01*
X88559765Y-98760366D01*
X88738940Y-98939854D01*
X88973163Y-99037112D01*
X89226776Y-99037333D01*
X89461169Y-98940484D01*
X89525515Y-98876250D01*
X94162390Y-98876250D01*
X94259239Y-99110643D01*
X94438414Y-99290131D01*
X94672637Y-99387389D01*
X94926250Y-99387610D01*
X95160643Y-99290761D01*
X95340131Y-99111586D01*
X95437389Y-98877363D01*
X95437610Y-98623750D01*
X95340761Y-98389357D01*
X95161586Y-98209869D01*
X94927363Y-98112611D01*
X94673750Y-98112390D01*
X94439357Y-98209239D01*
X94259869Y-98388414D01*
X94162611Y-98622637D01*
X94162390Y-98876250D01*
X89525515Y-98876250D01*
X89640657Y-98761309D01*
X89737915Y-98527086D01*
X89738136Y-98273473D01*
X89700052Y-98181302D01*
X89780808Y-98165239D01*
X89805570Y-98160313D01*
X89932095Y-98075772D01*
X90562591Y-97445276D01*
X90562390Y-97676250D01*
X90659239Y-97910643D01*
X90838414Y-98090131D01*
X91072637Y-98187389D01*
X91326250Y-98187610D01*
X91560643Y-98090761D01*
X91740131Y-97911586D01*
X91837389Y-97677363D01*
X91837610Y-97423750D01*
X91740761Y-97189357D01*
X91561586Y-97009869D01*
X91327363Y-96912611D01*
X91095458Y-96912409D01*
X91437790Y-96570077D01*
X94184839Y-96570077D01*
X94163129Y-96622360D01*
X94162908Y-96875973D01*
X94259757Y-97110366D01*
X94438932Y-97289854D01*
X94673155Y-97387112D01*
X94926768Y-97387333D01*
X95161161Y-97290484D01*
X95340649Y-97111309D01*
X95437907Y-96877086D01*
X95438128Y-96623473D01*
X95416065Y-96570077D01*
X96405198Y-96570077D01*
X96362611Y-96672637D01*
X96362390Y-96926250D01*
X96459239Y-97160643D01*
X96638414Y-97340131D01*
X96872637Y-97437389D01*
X97126250Y-97437610D01*
X97360643Y-97340761D01*
X97540131Y-97161586D01*
X97637389Y-96927363D01*
X97637610Y-96673750D01*
X97594773Y-96570077D01*
X97856467Y-96570077D01*
X98685512Y-97399122D01*
X98685327Y-97611253D01*
X98782176Y-97845646D01*
X98961351Y-98025134D01*
X99195574Y-98122392D01*
X99449187Y-98122613D01*
X99575435Y-98070449D01*
X99575435Y-100924096D01*
X99427363Y-100862611D01*
X99173750Y-100862390D01*
X98939357Y-100959239D01*
X98759869Y-101138414D01*
X98662611Y-101372637D01*
X98662390Y-101626250D01*
X98759239Y-101860643D01*
X98798439Y-101899911D01*
X98759869Y-101938414D01*
X98662611Y-102172637D01*
X98662390Y-102426250D01*
X98759239Y-102660643D01*
X98938414Y-102840131D01*
X99172637Y-102937389D01*
X99426250Y-102937610D01*
X99575435Y-102875968D01*
X99575435Y-103924096D01*
X99427363Y-103862611D01*
X99173750Y-103862390D01*
X98939357Y-103959239D01*
X98759869Y-104138414D01*
X98662611Y-104372637D01*
X98662390Y-104626250D01*
X98759239Y-104860643D01*
X98938414Y-105040131D01*
X99172637Y-105137389D01*
X99426250Y-105137610D01*
X99575435Y-105075968D01*
X99575435Y-106282572D01*
X99527363Y-106262611D01*
X99273750Y-106262390D01*
X99039357Y-106359239D01*
X98859869Y-106538414D01*
X98762611Y-106772637D01*
X98762390Y-107026250D01*
X98859239Y-107260643D01*
X99038414Y-107440131D01*
X99272637Y-107537389D01*
X99526250Y-107537610D01*
X99575435Y-107517287D01*
X99575435Y-110182572D01*
X99527363Y-110162611D01*
X99273750Y-110162390D01*
X99039357Y-110259239D01*
X98859869Y-110438414D01*
X98762611Y-110672637D01*
X98762390Y-110926250D01*
X98859239Y-111160643D01*
X99038414Y-111340131D01*
X99272637Y-111437389D01*
X99526250Y-111437610D01*
X99575435Y-111417287D01*
X99575435Y-118153334D01*
X99477363Y-118112611D01*
X99223750Y-118112390D01*
X98989357Y-118209239D01*
X98809869Y-118388414D01*
X98712611Y-118622637D01*
X98712390Y-118876250D01*
X98809239Y-119110643D01*
X98988414Y-119290131D01*
X99222637Y-119387389D01*
X99476250Y-119387610D01*
X99575435Y-119346628D01*
X99575435Y-121344284D01*
X99490761Y-121139357D01*
X99311586Y-120959869D01*
X99077363Y-120862611D01*
X98823750Y-120862390D01*
X98589357Y-120959239D01*
X98438333Y-121110000D01*
X96451762Y-121110000D01*
X96552609Y-121009329D01*
X96649867Y-120775106D01*
X96650088Y-120521493D01*
X96553239Y-120287100D01*
X96533892Y-120267719D01*
X96590131Y-120211578D01*
X96687389Y-119977355D01*
X96687610Y-119723742D01*
X96590761Y-119489349D01*
X96534603Y-119433093D01*
X96591219Y-119376575D01*
X96688477Y-119142352D01*
X96688698Y-118888739D01*
X96591849Y-118654346D01*
X96412674Y-118474858D01*
X96178451Y-118377600D01*
X96065552Y-118377502D01*
X97158375Y-117284679D01*
X97261342Y-117130578D01*
X97297499Y-116948803D01*
X97297499Y-113976157D01*
X97297500Y-113976152D01*
X97261343Y-113794378D01*
X97191170Y-113689357D01*
X97158375Y-113640276D01*
X97158372Y-113640274D01*
X96887777Y-113369678D01*
X96887857Y-113277650D01*
X96791008Y-113043257D01*
X96611833Y-112863769D01*
X96377610Y-112766511D01*
X96123997Y-112766290D01*
X95889604Y-112863139D01*
X95710116Y-113042314D01*
X95612858Y-113276537D01*
X95612761Y-113388253D01*
X92986752Y-113388253D01*
X92986747Y-113388252D01*
X92804973Y-113424409D01*
X92753839Y-113458576D01*
X92650871Y-113527377D01*
X92650869Y-113527380D01*
X92064124Y-114114124D01*
X91961157Y-114268225D01*
X91925000Y-114450000D01*
X91925000Y-118803248D01*
X90385876Y-117264124D01*
X90231775Y-117161157D01*
X90050000Y-117125000D01*
X86846753Y-117125000D01*
X86085889Y-116364136D01*
X86153100Y-116377505D01*
X89857996Y-116377505D01*
X89858001Y-116377506D01*
X89988742Y-116351499D01*
X90007248Y-116347818D01*
X90133773Y-116263277D01*
X90133774Y-116263276D01*
X90475769Y-115921280D01*
X90475772Y-115921278D01*
X90560313Y-115794753D01*
X90560314Y-115794752D01*
X90590001Y-115645506D01*
X90590000Y-115645501D01*
X90590000Y-115128668D01*
X93392413Y-112326254D01*
X95162390Y-112326254D01*
X95259239Y-112560647D01*
X95438414Y-112740135D01*
X95672637Y-112837393D01*
X95926250Y-112837614D01*
X96160643Y-112740765D01*
X96340131Y-112561590D01*
X96437389Y-112327367D01*
X96437610Y-112073754D01*
X96340761Y-111839361D01*
X96161586Y-111659873D01*
X95927363Y-111562615D01*
X95673750Y-111562394D01*
X95439357Y-111659243D01*
X95259869Y-111838418D01*
X95162611Y-112072641D01*
X95162390Y-112326254D01*
X93392413Y-112326254D01*
X94773464Y-110945203D01*
X94985596Y-110945388D01*
X95219989Y-110848539D01*
X95350433Y-110718322D01*
X95409239Y-110860643D01*
X95588414Y-111040131D01*
X95822637Y-111137389D01*
X96076250Y-111137610D01*
X96310643Y-111040761D01*
X96490131Y-110861586D01*
X96587389Y-110627363D01*
X96587610Y-110373750D01*
X96490761Y-110139357D01*
X96311586Y-109959869D01*
X96077363Y-109862611D01*
X95823750Y-109862390D01*
X95589357Y-109959239D01*
X95458913Y-110089456D01*
X95400107Y-109947135D01*
X95321869Y-109868761D01*
X95510643Y-109790761D01*
X95690131Y-109611586D01*
X95787389Y-109377363D01*
X95787610Y-109123750D01*
X95690761Y-108889357D01*
X95626561Y-108825045D01*
X95690131Y-108761586D01*
X95787389Y-108527363D01*
X95787393Y-108522754D01*
X95822637Y-108537389D01*
X95915718Y-108537470D01*
X96755809Y-109377560D01*
X96755809Y-111775524D01*
X96690678Y-111840541D01*
X96593420Y-112074764D01*
X96593199Y-112328377D01*
X96690048Y-112562770D01*
X96869223Y-112742258D01*
X97103446Y-112839516D01*
X97357059Y-112839737D01*
X97591452Y-112742888D01*
X97770940Y-112563713D01*
X97868198Y-112329490D01*
X97868419Y-112075877D01*
X97771570Y-111841484D01*
X97705809Y-111775608D01*
X97705809Y-109180809D01*
X97669652Y-108999034D01*
X97566685Y-108844933D01*
X97566682Y-108844931D01*
X97205823Y-108484072D01*
X97310643Y-108440761D01*
X97490131Y-108261586D01*
X97587389Y-108027363D01*
X97587610Y-107773750D01*
X97490761Y-107539357D01*
X97426561Y-107475045D01*
X97490131Y-107411586D01*
X97587389Y-107177363D01*
X97587610Y-106923750D01*
X97490761Y-106689357D01*
X97311586Y-106509869D01*
X97077363Y-106412611D01*
X96823750Y-106412390D01*
X96589357Y-106509239D01*
X96438333Y-106660000D01*
X95514991Y-106660000D01*
X95515110Y-106523750D01*
X95418261Y-106289357D01*
X95290290Y-106161162D01*
X95440127Y-106011586D01*
X95537385Y-105777363D01*
X95537606Y-105523750D01*
X95440757Y-105289357D01*
X95326559Y-105174960D01*
X95440131Y-105061586D01*
X95537389Y-104827363D01*
X95537610Y-104573750D01*
X95518500Y-104527501D01*
X96412476Y-104527501D01*
X96412390Y-104626250D01*
X96509239Y-104860643D01*
X96688414Y-105040131D01*
X96922637Y-105137389D01*
X97176250Y-105137610D01*
X97410643Y-105040761D01*
X97590131Y-104861586D01*
X97687389Y-104627363D01*
X97687610Y-104373750D01*
X97597029Y-104154526D01*
X97690131Y-104061586D01*
X97787389Y-103827363D01*
X97787610Y-103573750D01*
X97690761Y-103339357D01*
X97511586Y-103159869D01*
X97277363Y-103062611D01*
X97023750Y-103062390D01*
X96789357Y-103159239D01*
X96638333Y-103310000D01*
X94694362Y-103310000D01*
X94545115Y-103339687D01*
X94437510Y-103411586D01*
X94418590Y-103424228D01*
X93344209Y-104498609D01*
X93259668Y-104625134D01*
X93256839Y-104639357D01*
X93229980Y-104774381D01*
X93229981Y-104774386D01*
X93229980Y-105255285D01*
X93140761Y-105039357D01*
X92961586Y-104859869D01*
X92727363Y-104762611D01*
X92473750Y-104762390D01*
X92239357Y-104859239D01*
X92059869Y-105038414D01*
X91962611Y-105272637D01*
X91962390Y-105526250D01*
X92059239Y-105760643D01*
X92238414Y-105940131D01*
X92472637Y-106037389D01*
X92726250Y-106037610D01*
X92733381Y-106034663D01*
X91510330Y-107257714D01*
X91440761Y-107089345D01*
X91261586Y-106909857D01*
X91027363Y-106812599D01*
X90773750Y-106812378D01*
X90539357Y-106909227D01*
X90359869Y-107088402D01*
X90307011Y-107215699D01*
X90241867Y-107172171D01*
X90200065Y-107163856D01*
X90092620Y-107142483D01*
X90092615Y-107142484D01*
X83944026Y-107142483D01*
X83743989Y-106942446D01*
X83972637Y-107037389D01*
X84226250Y-107037610D01*
X84460643Y-106940761D01*
X84640131Y-106761586D01*
X84737389Y-106527363D01*
X84737610Y-106273750D01*
X84640761Y-106039357D01*
X84461586Y-105859869D01*
X84227363Y-105762611D01*
X83973750Y-105762390D01*
X83739357Y-105859239D01*
X83559869Y-106038414D01*
X83462611Y-106272637D01*
X83462390Y-106526250D01*
X83557164Y-106755620D01*
X82188271Y-105386727D01*
X82184853Y-105384443D01*
X82061746Y-105302186D01*
X82036984Y-105297260D01*
X81987555Y-105287428D01*
X81987610Y-105223750D01*
X81947324Y-105126250D01*
X83762390Y-105126250D01*
X83859239Y-105360643D01*
X84038414Y-105540131D01*
X84272637Y-105637389D01*
X84526250Y-105637610D01*
X84760643Y-105540761D01*
X84940131Y-105361586D01*
X85037389Y-105127363D01*
X85037610Y-104873750D01*
X84940761Y-104639357D01*
X84761586Y-104459869D01*
X84527363Y-104362611D01*
X84273750Y-104362390D01*
X84039357Y-104459239D01*
X83859869Y-104638414D01*
X83762611Y-104872637D01*
X83762390Y-105126250D01*
X81947324Y-105126250D01*
X81890761Y-104989357D01*
X81711586Y-104809869D01*
X81477363Y-104712611D01*
X81223750Y-104712390D01*
X80989357Y-104809239D01*
X80809869Y-104988414D01*
X80712611Y-105222637D01*
X80712390Y-105476250D01*
X80809239Y-105710643D01*
X80854689Y-105756172D01*
X80809869Y-105800914D01*
X80712611Y-106035137D01*
X80712390Y-106288750D01*
X80770979Y-106430546D01*
X80761729Y-106436727D01*
X80585881Y-106612575D01*
X80373750Y-106612390D01*
X80139357Y-106709239D01*
X79959869Y-106888414D01*
X79862611Y-107122637D01*
X79862390Y-107376250D01*
X79959239Y-107610643D01*
X80138414Y-107790131D01*
X80372637Y-107887389D01*
X80626250Y-107887610D01*
X80860643Y-107790761D01*
X80924955Y-107726561D01*
X80960000Y-107761667D01*
X80960000Y-108047918D01*
X80959999Y-108047923D01*
X80980454Y-108150754D01*
X80989687Y-108197170D01*
X81055894Y-108296256D01*
X81074228Y-108323695D01*
X81460534Y-108710000D01*
X80961543Y-108710000D01*
X80887425Y-108635882D01*
X80887610Y-108423750D01*
X80790761Y-108189357D01*
X80611586Y-108009869D01*
X80377363Y-107912611D01*
X80123750Y-107912390D01*
X79889357Y-108009239D01*
X79709869Y-108188414D01*
X79612611Y-108422637D01*
X79612390Y-108676250D01*
X79709239Y-108910643D01*
X79888414Y-109090131D01*
X80122637Y-109187389D01*
X80336032Y-109187575D01*
X80524226Y-109375769D01*
X80524228Y-109375772D01*
X80650753Y-109460313D01*
X80800000Y-109490000D01*
X83476163Y-109490000D01*
X83462611Y-109522637D01*
X83462390Y-109776250D01*
X83559239Y-110010643D01*
X83738414Y-110190131D01*
X83972637Y-110287389D01*
X84226250Y-110287610D01*
X84460643Y-110190761D01*
X84640131Y-110011586D01*
X84737389Y-109777363D01*
X84737610Y-109523750D01*
X84723665Y-109490000D01*
X88257951Y-109490000D01*
X88451509Y-109683558D01*
X88389357Y-109709239D01*
X88209869Y-109888414D01*
X88112611Y-110122637D01*
X88112390Y-110376250D01*
X88209239Y-110610643D01*
X88388414Y-110790131D01*
X88508432Y-110839967D01*
X84770038Y-110839967D01*
X84770033Y-110839966D01*
X84648587Y-110864124D01*
X84620786Y-110869654D01*
X84507442Y-110945388D01*
X84494261Y-110954195D01*
X84438456Y-111010000D01*
X84211543Y-111010000D01*
X83688271Y-110486727D01*
X83672591Y-110476250D01*
X83561746Y-110402186D01*
X83536984Y-110397260D01*
X83465046Y-110382951D01*
X83465098Y-110323750D01*
X83368249Y-110089357D01*
X83189074Y-109909869D01*
X82954851Y-109812611D01*
X82701238Y-109812390D01*
X82572292Y-109865669D01*
X82540761Y-109789357D01*
X82361586Y-109609869D01*
X82127363Y-109512611D01*
X81873750Y-109512390D01*
X81639357Y-109609239D01*
X81459869Y-109788414D01*
X81362611Y-110022637D01*
X81362390Y-110276250D01*
X81459239Y-110510643D01*
X81638414Y-110690131D01*
X81872637Y-110787389D01*
X82126250Y-110787610D01*
X82255196Y-110734331D01*
X82286727Y-110810643D01*
X82465902Y-110990131D01*
X82700125Y-111087389D01*
X82938036Y-111087596D01*
X82990740Y-111122812D01*
X83001740Y-111125000D01*
X82426603Y-111125000D01*
X82361586Y-111059869D01*
X82127363Y-110962611D01*
X81873750Y-110962390D01*
X81639357Y-111059239D01*
X81459869Y-111238414D01*
X81362611Y-111472637D01*
X81362390Y-111726250D01*
X81459239Y-111960643D01*
X81638414Y-112140131D01*
X81872637Y-112237389D01*
X82126250Y-112237610D01*
X82360643Y-112140761D01*
X82426519Y-112075000D01*
X83073400Y-112075000D01*
X83009875Y-112138414D01*
X82912617Y-112372637D01*
X82912396Y-112626250D01*
X82983438Y-112798185D01*
X82777363Y-112712615D01*
X82523750Y-112712394D01*
X82289357Y-112809243D01*
X82124872Y-112973441D01*
X81961586Y-112809869D01*
X81727363Y-112712611D01*
X81473750Y-112712390D01*
X81239357Y-112809239D01*
X81059869Y-112988414D01*
X80962611Y-113222637D01*
X80962390Y-113476250D01*
X81059239Y-113710643D01*
X81238414Y-113890131D01*
X81472637Y-113987389D01*
X81686031Y-113987575D01*
X82574228Y-114875772D01*
X82700753Y-114960313D01*
X82725515Y-114965239D01*
X82850000Y-114990001D01*
X82850005Y-114990000D01*
X84009210Y-114990000D01*
X83912611Y-115222637D01*
X83912390Y-115476250D01*
X84009239Y-115710643D01*
X84188414Y-115890131D01*
X84422637Y-115987389D01*
X84462555Y-115987424D01*
X84462390Y-116176249D01*
X84559239Y-116410642D01*
X84738414Y-116590130D01*
X84972637Y-116687388D01*
X85065719Y-116687469D01*
X85076621Y-116698371D01*
X85076623Y-116698374D01*
X86314125Y-117935876D01*
X86468226Y-118038843D01*
X86650001Y-118075000D01*
X87158530Y-118075000D01*
X86979211Y-118149093D01*
X86799723Y-118328268D01*
X86709086Y-118546545D01*
X86627363Y-118512611D01*
X86373750Y-118512390D01*
X86287524Y-118548018D01*
X86287610Y-118448819D01*
X86190761Y-118214426D01*
X86011586Y-118034938D01*
X85777363Y-117937680D01*
X85523750Y-117937459D01*
X85289357Y-118034308D01*
X85109869Y-118213483D01*
X85012611Y-118447706D01*
X85012390Y-118701319D01*
X85109239Y-118935712D01*
X85288414Y-119115200D01*
X85522637Y-119212458D01*
X85776250Y-119212679D01*
X85862476Y-119177051D01*
X85862390Y-119276250D01*
X85959239Y-119510643D01*
X86138414Y-119690131D01*
X86372637Y-119787389D01*
X86626250Y-119787610D01*
X86860643Y-119690761D01*
X87040131Y-119511586D01*
X87130768Y-119293309D01*
X87212491Y-119327243D01*
X87466104Y-119327464D01*
X87700497Y-119230615D01*
X87879985Y-119051440D01*
X87977243Y-118817217D01*
X87977464Y-118563604D01*
X87880615Y-118329211D01*
X87701440Y-118149723D01*
X87521487Y-118075000D01*
X89853248Y-118075000D01*
X91540827Y-119762579D01*
X91323750Y-119762390D01*
X91089357Y-119859239D01*
X90909869Y-120038414D01*
X90836605Y-120214853D01*
X90698375Y-120076623D01*
X90698372Y-120076621D01*
X90687530Y-120065779D01*
X90687610Y-119973750D01*
X90590761Y-119739357D01*
X90411586Y-119559869D01*
X90177363Y-119462611D01*
X89923750Y-119462390D01*
X89689357Y-119559239D01*
X89509869Y-119738414D01*
X89490677Y-119784635D01*
X89349977Y-119643935D01*
X89323509Y-119626250D01*
X89223452Y-119559394D01*
X89198690Y-119554468D01*
X89074205Y-119529706D01*
X89074200Y-119529707D01*
X88592004Y-119529707D01*
X88591999Y-119529706D01*
X88442753Y-119559393D01*
X88416274Y-119577086D01*
X88316227Y-119643935D01*
X88316225Y-119643938D01*
X85600162Y-122360000D01*
X70961455Y-122360000D01*
X70811586Y-122209869D01*
X70577363Y-122112611D01*
X70323750Y-122112390D01*
X70089357Y-122209239D01*
X69909869Y-122388414D01*
X69812611Y-122622637D01*
X69812390Y-122876250D01*
X69909239Y-123110643D01*
X70088414Y-123290131D01*
X70322637Y-123387389D01*
X70576250Y-123387610D01*
X70810643Y-123290761D01*
X70961667Y-123140000D01*
X76685919Y-123140000D01*
X76639357Y-123159239D01*
X76459869Y-123338414D01*
X76362611Y-123572637D01*
X76362390Y-123826250D01*
X76459239Y-124060643D01*
X76545669Y-124147224D01*
X67444980Y-124147224D01*
X66859021Y-123561265D01*
X66799851Y-123521729D01*
X66727630Y-123473472D01*
X66572643Y-123442643D01*
X65520055Y-123442643D01*
X65440012Y-123458565D01*
X65390757Y-123339357D01*
X65211582Y-123159869D01*
X64977359Y-123062611D01*
X64723746Y-123062390D01*
X64489353Y-123159239D01*
X64309865Y-123338414D01*
X64212607Y-123572637D01*
X64212572Y-123612598D01*
X63973750Y-123612390D01*
X63739357Y-123709239D01*
X63559869Y-123888414D01*
X63462611Y-124122637D01*
X63462390Y-124376250D01*
X63544543Y-124575076D01*
X61105291Y-124575076D01*
X61187389Y-124377363D01*
X61187610Y-124123750D01*
X61090761Y-123889357D01*
X60911586Y-123709869D01*
X60677363Y-123612611D01*
X60423750Y-123612390D01*
X60189357Y-123709239D01*
X60009869Y-123888414D01*
X59912611Y-124122637D01*
X59912390Y-124376250D01*
X59994543Y-124575076D01*
X50425435Y-124575076D01*
X50425435Y-122708018D01*
X51450253Y-122708018D01*
X51609769Y-123094076D01*
X51904881Y-123389704D01*
X52290661Y-123549894D01*
X52708377Y-123550258D01*
X53094435Y-123390742D01*
X53390063Y-123095630D01*
X53550253Y-122709850D01*
X53550617Y-122292134D01*
X53391101Y-121906076D01*
X53161400Y-121675973D01*
X76362916Y-121675973D01*
X76459765Y-121910366D01*
X76638940Y-122089854D01*
X76873163Y-122187112D01*
X77126776Y-122187333D01*
X77361169Y-122090484D01*
X77540657Y-121911309D01*
X77637915Y-121677086D01*
X77638136Y-121423473D01*
X77541287Y-121189080D01*
X77503247Y-121150973D01*
X80762916Y-121150973D01*
X80859765Y-121385366D01*
X81038940Y-121564854D01*
X81273163Y-121662112D01*
X81526776Y-121662333D01*
X81761169Y-121565484D01*
X81940657Y-121386309D01*
X82037915Y-121152086D01*
X82037915Y-121150973D01*
X83862916Y-121150973D01*
X83959765Y-121385366D01*
X84138940Y-121564854D01*
X84373163Y-121662112D01*
X84626776Y-121662333D01*
X84861169Y-121565484D01*
X85040657Y-121386309D01*
X85137915Y-121152086D01*
X85138136Y-120898473D01*
X85041287Y-120664080D01*
X84862112Y-120484592D01*
X84627889Y-120387334D01*
X84374276Y-120387113D01*
X84139883Y-120483962D01*
X83960395Y-120663137D01*
X83863137Y-120897360D01*
X83862916Y-121150973D01*
X82037915Y-121150973D01*
X82038136Y-120898473D01*
X81941287Y-120664080D01*
X81762112Y-120484592D01*
X81527889Y-120387334D01*
X81274276Y-120387113D01*
X81039883Y-120483962D01*
X80860395Y-120663137D01*
X80763137Y-120897360D01*
X80762916Y-121150973D01*
X77503247Y-121150973D01*
X77362112Y-121009592D01*
X77127889Y-120912334D01*
X76874276Y-120912113D01*
X76639883Y-121008962D01*
X76460395Y-121188137D01*
X76363137Y-121422360D01*
X76362916Y-121675973D01*
X53161400Y-121675973D01*
X53095989Y-121610448D01*
X52710209Y-121450258D01*
X52292493Y-121449894D01*
X51906435Y-121609410D01*
X51610807Y-121904522D01*
X51450617Y-122290302D01*
X51450253Y-122708018D01*
X50425435Y-122708018D01*
X50425435Y-121255503D01*
X50622637Y-121337389D01*
X50876250Y-121337610D01*
X51110643Y-121240761D01*
X51290131Y-121061586D01*
X51387389Y-120827363D01*
X51387610Y-120573750D01*
X51367986Y-120526254D01*
X52212390Y-120526254D01*
X52309239Y-120760647D01*
X52488414Y-120940135D01*
X52722637Y-121037393D01*
X52976250Y-121037614D01*
X53210643Y-120940765D01*
X53390131Y-120761590D01*
X53425567Y-120676250D01*
X53812390Y-120676250D01*
X53909239Y-120910643D01*
X54088414Y-121090131D01*
X54322637Y-121187389D01*
X54576250Y-121187610D01*
X54810643Y-121090761D01*
X54990131Y-120911586D01*
X55087389Y-120677363D01*
X55087511Y-120537489D01*
X55226250Y-120537610D01*
X55460643Y-120440761D01*
X55640131Y-120261586D01*
X55737389Y-120027363D01*
X55737610Y-119773750D01*
X55640761Y-119539357D01*
X55461586Y-119359869D01*
X55227363Y-119262611D01*
X54973750Y-119262390D01*
X54739357Y-119359239D01*
X54559869Y-119538414D01*
X54462611Y-119772637D01*
X54462489Y-119912511D01*
X54323750Y-119912390D01*
X54089357Y-120009239D01*
X53909869Y-120188414D01*
X53812611Y-120422637D01*
X53812390Y-120676250D01*
X53425567Y-120676250D01*
X53487389Y-120527367D01*
X53487610Y-120273754D01*
X53390761Y-120039361D01*
X53211586Y-119859873D01*
X52977363Y-119762615D01*
X52723750Y-119762394D01*
X52489357Y-119859243D01*
X52309869Y-120038418D01*
X52212611Y-120272641D01*
X52212390Y-120526254D01*
X51367986Y-120526254D01*
X51290761Y-120339357D01*
X51251561Y-120300089D01*
X51290131Y-120261586D01*
X51387389Y-120027363D01*
X51387610Y-119773750D01*
X51290761Y-119539357D01*
X51111586Y-119359869D01*
X50877363Y-119262611D01*
X50623750Y-119262390D01*
X50425435Y-119344332D01*
X50425435Y-118826265D01*
X50572637Y-118887389D01*
X50826250Y-118887610D01*
X51060643Y-118790761D01*
X51240131Y-118611586D01*
X51337389Y-118377363D01*
X51337610Y-118123750D01*
X51240761Y-117889357D01*
X51061586Y-117709869D01*
X50827363Y-117612611D01*
X50573750Y-117612390D01*
X50425435Y-117673672D01*
X50425435Y-117276265D01*
X50572637Y-117337389D01*
X50826250Y-117337610D01*
X51060643Y-117240761D01*
X51240131Y-117061586D01*
X51337389Y-116827363D01*
X51337610Y-116573750D01*
X51240761Y-116339357D01*
X51061586Y-116159869D01*
X50827363Y-116062611D01*
X50573750Y-116062390D01*
X50425435Y-116123672D01*
X50425435Y-114076265D01*
X50572637Y-114137389D01*
X50826250Y-114137610D01*
X51032706Y-114052304D01*
X52186379Y-114052304D01*
X52283228Y-114286697D01*
X52462403Y-114466185D01*
X52596822Y-114522001D01*
X52494428Y-114564309D01*
X52314940Y-114743484D01*
X52217682Y-114977707D01*
X52217461Y-115231320D01*
X52314310Y-115465713D01*
X52493485Y-115645201D01*
X52727708Y-115742459D01*
X52981321Y-115742680D01*
X53215714Y-115645831D01*
X53395202Y-115466656D01*
X53492460Y-115232433D01*
X53492681Y-114978820D01*
X53448801Y-114872623D01*
X53671813Y-114872817D01*
X53906206Y-114775968D01*
X54085694Y-114596793D01*
X54182952Y-114362570D01*
X54183173Y-114108957D01*
X54086324Y-113874564D01*
X53907149Y-113695076D01*
X53672926Y-113597818D01*
X53419313Y-113597597D01*
X53384066Y-113612161D01*
X53364750Y-113565411D01*
X53185575Y-113385923D01*
X52951352Y-113288665D01*
X52697739Y-113288444D01*
X52463346Y-113385293D01*
X52283858Y-113564468D01*
X52186600Y-113798691D01*
X52186379Y-114052304D01*
X51032706Y-114052304D01*
X51060643Y-114040761D01*
X51240131Y-113861586D01*
X51337389Y-113627363D01*
X51337610Y-113373750D01*
X51240761Y-113139357D01*
X51061586Y-112959869D01*
X50827363Y-112862611D01*
X50573750Y-112862390D01*
X50425435Y-112923672D01*
X50425435Y-111676265D01*
X50572637Y-111737389D01*
X50826250Y-111737610D01*
X51060643Y-111640761D01*
X51240131Y-111461586D01*
X51337389Y-111227363D01*
X51337610Y-110973750D01*
X51240761Y-110739357D01*
X51201564Y-110700092D01*
X51229024Y-110672680D01*
X51266432Y-110665239D01*
X51291194Y-110660313D01*
X51417719Y-110575772D01*
X51801500Y-110191990D01*
X51825772Y-110175772D01*
X52199044Y-109802499D01*
X52654020Y-109802499D01*
X52562611Y-110022637D01*
X52562390Y-110276250D01*
X52659239Y-110510643D01*
X52838414Y-110690131D01*
X53072637Y-110787389D01*
X53326250Y-110787610D01*
X53560643Y-110690761D01*
X53662537Y-110589045D01*
X53662374Y-110776250D01*
X53759223Y-111010643D01*
X53938398Y-111190131D01*
X54172621Y-111287389D01*
X54426234Y-111287610D01*
X54660627Y-111190761D01*
X54840115Y-111011586D01*
X54937373Y-110777363D01*
X54937594Y-110523750D01*
X54917968Y-110476250D01*
X57012390Y-110476250D01*
X57109239Y-110710643D01*
X57288414Y-110890131D01*
X57522637Y-110987389D01*
X57776250Y-110987610D01*
X58010643Y-110890761D01*
X58190131Y-110711586D01*
X58287389Y-110477363D01*
X58287610Y-110223750D01*
X58190761Y-109989357D01*
X58011586Y-109809869D01*
X57777363Y-109712611D01*
X57523750Y-109712390D01*
X57289357Y-109809239D01*
X57109869Y-109988414D01*
X57012611Y-110222637D01*
X57012390Y-110476250D01*
X54917968Y-110476250D01*
X54840745Y-110289357D01*
X54661570Y-110109869D01*
X54427347Y-110012611D01*
X54173734Y-110012390D01*
X53939341Y-110109239D01*
X53837447Y-110210955D01*
X53837610Y-110023750D01*
X53740761Y-109789357D01*
X53561586Y-109609869D01*
X53344370Y-109519673D01*
X53938268Y-108925774D01*
X53938271Y-108925772D01*
X54004769Y-108826250D01*
X54340358Y-108826250D01*
X54437207Y-109060643D01*
X54616382Y-109240131D01*
X54850605Y-109337389D01*
X55104218Y-109337610D01*
X55338611Y-109240761D01*
X55518099Y-109061586D01*
X55615357Y-108827363D01*
X55615578Y-108573750D01*
X55518729Y-108339357D01*
X55339554Y-108159869D01*
X55285864Y-108137575D01*
X55326246Y-108137610D01*
X55560639Y-108040761D01*
X55740127Y-107861586D01*
X55837385Y-107627363D01*
X55837606Y-107373750D01*
X55740757Y-107139357D01*
X55561582Y-106959869D01*
X55327359Y-106862611D01*
X55073746Y-106862390D01*
X54839353Y-106959239D01*
X54659865Y-107138414D01*
X54562607Y-107372637D01*
X54562386Y-107626250D01*
X54659235Y-107860643D01*
X54838410Y-108040131D01*
X54892100Y-108062425D01*
X54851718Y-108062390D01*
X54617325Y-108159239D01*
X54437837Y-108338414D01*
X54340579Y-108572637D01*
X54340358Y-108826250D01*
X54004769Y-108826250D01*
X54022812Y-108799247D01*
X54052499Y-108650000D01*
X54052499Y-107149045D01*
X54486767Y-106714776D01*
X57213232Y-106714776D01*
X57360000Y-106861544D01*
X57360000Y-108445497D01*
X57359999Y-108445502D01*
X57383119Y-108561729D01*
X57389687Y-108594749D01*
X57466694Y-108709999D01*
X57474228Y-108721274D01*
X58441223Y-109688268D01*
X58441225Y-109688271D01*
X58451957Y-109695442D01*
X58882287Y-110125772D01*
X59008812Y-110210313D01*
X59019249Y-110212389D01*
X59071322Y-110222747D01*
X59238414Y-110390131D01*
X59472637Y-110487389D01*
X59726250Y-110487610D01*
X59960643Y-110390761D01*
X60140131Y-110211586D01*
X60237389Y-109977363D01*
X60237610Y-109723750D01*
X60228829Y-109702499D01*
X61579743Y-109702499D01*
X61613622Y-109736378D01*
X61745013Y-109824171D01*
X61900000Y-109855000D01*
X63782244Y-109855000D01*
X64297190Y-110369946D01*
X64297190Y-111433539D01*
X64328019Y-111588526D01*
X64415812Y-111719917D01*
X65827384Y-113131488D01*
X65639883Y-113208962D01*
X65460395Y-113388137D01*
X65363137Y-113622360D01*
X65362916Y-113875973D01*
X65459765Y-114110366D01*
X65638940Y-114289854D01*
X65873163Y-114387112D01*
X66126776Y-114387333D01*
X66361169Y-114290484D01*
X66540657Y-114111309D01*
X66618863Y-113922967D01*
X67032274Y-114336378D01*
X67163665Y-114424171D01*
X67318652Y-114455000D01*
X68753519Y-114455000D01*
X68888414Y-114590131D01*
X69122637Y-114687389D01*
X69161034Y-114687422D01*
X69138456Y-114710000D01*
X66400000Y-114710000D01*
X66250753Y-114739687D01*
X66124228Y-114824228D01*
X66124226Y-114824231D01*
X65697501Y-115250955D01*
X65697501Y-115028307D01*
X65661344Y-114846532D01*
X65558377Y-114692431D01*
X65558374Y-114692429D01*
X64030070Y-113164124D01*
X63875969Y-113061157D01*
X63694194Y-113025000D01*
X63076603Y-113025000D01*
X63011586Y-112959869D01*
X62777363Y-112862611D01*
X62684281Y-112862530D01*
X62275000Y-112453248D01*
X62275000Y-111664129D01*
X62340131Y-111599112D01*
X62437389Y-111364889D01*
X62437610Y-111111276D01*
X62340761Y-110876883D01*
X62161586Y-110697395D01*
X61927363Y-110600137D01*
X61673750Y-110599916D01*
X61439357Y-110696765D01*
X61259869Y-110875940D01*
X61162611Y-111110163D01*
X61162390Y-111363776D01*
X61259239Y-111598169D01*
X61325000Y-111664045D01*
X61325000Y-112650000D01*
X61361157Y-112831775D01*
X61464124Y-112985876D01*
X62012470Y-113534222D01*
X62012390Y-113626250D01*
X62109239Y-113860643D01*
X62288414Y-114040131D01*
X62522637Y-114137389D01*
X62776250Y-114137610D01*
X63010643Y-114040761D01*
X63076519Y-113975000D01*
X63497442Y-113975000D01*
X63811524Y-114289081D01*
X63627363Y-114212611D01*
X63373750Y-114212390D01*
X63139357Y-114309239D01*
X62959869Y-114488414D01*
X62862611Y-114722637D01*
X62862530Y-114815718D01*
X60403683Y-117274565D01*
X56296316Y-117274565D01*
X55685512Y-116663760D01*
X57019066Y-116663760D01*
X57115915Y-116898153D01*
X57295090Y-117077641D01*
X57529313Y-117174899D01*
X57782926Y-117175120D01*
X58017319Y-117078271D01*
X58196807Y-116899096D01*
X58294065Y-116664873D01*
X58294158Y-116557576D01*
X58306575Y-116557576D01*
X58403424Y-116791969D01*
X58582599Y-116971457D01*
X58816822Y-117068715D01*
X59070435Y-117068936D01*
X59304828Y-116972087D01*
X59484316Y-116792912D01*
X59581574Y-116558689D01*
X59581574Y-116557576D01*
X59594075Y-116557576D01*
X59690924Y-116791969D01*
X59870099Y-116971457D01*
X60104322Y-117068715D01*
X60357935Y-117068936D01*
X60592328Y-116972087D01*
X60771816Y-116792912D01*
X60869074Y-116558689D01*
X60869295Y-116305076D01*
X60772446Y-116070683D01*
X60593271Y-115891195D01*
X60359048Y-115793937D01*
X60105435Y-115793716D01*
X59871042Y-115890565D01*
X59691554Y-116069740D01*
X59594296Y-116303963D01*
X59594075Y-116557576D01*
X59581574Y-116557576D01*
X59581795Y-116305076D01*
X59484946Y-116070683D01*
X59305771Y-115891195D01*
X59071548Y-115793937D01*
X58817935Y-115793716D01*
X58583542Y-115890565D01*
X58404054Y-116069740D01*
X58306796Y-116303963D01*
X58306575Y-116557576D01*
X58294158Y-116557576D01*
X58294286Y-116411260D01*
X58197437Y-116176867D01*
X58018262Y-115997379D01*
X57784039Y-115900121D01*
X57530426Y-115899900D01*
X57296033Y-115996749D01*
X57116545Y-116175924D01*
X57019287Y-116410147D01*
X57019066Y-116663760D01*
X55685512Y-116663760D01*
X55425000Y-116403248D01*
X55425000Y-115270076D01*
X57019075Y-115270076D01*
X57115924Y-115504469D01*
X57295099Y-115683957D01*
X57529322Y-115781215D01*
X57782935Y-115781436D01*
X58017328Y-115684587D01*
X58196816Y-115505412D01*
X58294074Y-115271189D01*
X58294074Y-115270076D01*
X58306575Y-115270076D01*
X58403424Y-115504469D01*
X58582599Y-115683957D01*
X58816822Y-115781215D01*
X59070435Y-115781436D01*
X59304828Y-115684587D01*
X59484316Y-115505412D01*
X59581574Y-115271189D01*
X59581574Y-115270076D01*
X59594075Y-115270076D01*
X59690924Y-115504469D01*
X59870099Y-115683957D01*
X60104322Y-115781215D01*
X60357935Y-115781436D01*
X60592328Y-115684587D01*
X60771816Y-115505412D01*
X60869074Y-115271189D01*
X60869295Y-115017576D01*
X60772446Y-114783183D01*
X60593271Y-114603695D01*
X60359048Y-114506437D01*
X60105435Y-114506216D01*
X59871042Y-114603065D01*
X59691554Y-114782240D01*
X59594296Y-115016463D01*
X59594075Y-115270076D01*
X59581574Y-115270076D01*
X59581795Y-115017576D01*
X59484946Y-114783183D01*
X59305771Y-114603695D01*
X59071548Y-114506437D01*
X58817935Y-114506216D01*
X58583542Y-114603065D01*
X58404054Y-114782240D01*
X58306796Y-115016463D01*
X58306575Y-115270076D01*
X58294074Y-115270076D01*
X58294295Y-115017576D01*
X58197446Y-114783183D01*
X58018271Y-114603695D01*
X57784048Y-114506437D01*
X57530435Y-114506216D01*
X57296042Y-114603065D01*
X57116554Y-114782240D01*
X57019296Y-115016463D01*
X57019075Y-115270076D01*
X55425000Y-115270076D01*
X55425000Y-113982576D01*
X57019075Y-113982576D01*
X57115924Y-114216969D01*
X57295099Y-114396457D01*
X57529322Y-114493715D01*
X57782935Y-114493936D01*
X58017328Y-114397087D01*
X58196816Y-114217912D01*
X58294074Y-113983689D01*
X58294074Y-113982576D01*
X58306575Y-113982576D01*
X58403424Y-114216969D01*
X58582599Y-114396457D01*
X58816822Y-114493715D01*
X59070435Y-114493936D01*
X59304828Y-114397087D01*
X59484316Y-114217912D01*
X59581574Y-113983689D01*
X59581795Y-113730076D01*
X59484946Y-113495683D01*
X59305771Y-113316195D01*
X59071548Y-113218937D01*
X58817935Y-113218716D01*
X58583542Y-113315565D01*
X58404054Y-113494740D01*
X58306796Y-113728963D01*
X58306575Y-113982576D01*
X58294074Y-113982576D01*
X58294295Y-113730076D01*
X58197446Y-113495683D01*
X58018271Y-113316195D01*
X57973286Y-113297516D01*
X58110643Y-113240761D01*
X58290131Y-113061586D01*
X58387389Y-112827363D01*
X58387610Y-112573750D01*
X58290761Y-112339357D01*
X58111586Y-112159869D01*
X57877363Y-112062611D01*
X57623750Y-112062390D01*
X57389357Y-112159239D01*
X57209869Y-112338414D01*
X57112611Y-112572637D01*
X57112390Y-112826250D01*
X57209239Y-113060643D01*
X57388414Y-113240131D01*
X57433399Y-113258810D01*
X57296042Y-113315565D01*
X57116554Y-113494740D01*
X57019296Y-113728963D01*
X57019075Y-113982576D01*
X55425000Y-113982576D01*
X55425000Y-113069966D01*
X55425001Y-113069961D01*
X55388843Y-112888187D01*
X55388843Y-112888186D01*
X55285876Y-112734085D01*
X55285873Y-112734083D01*
X53801191Y-111249400D01*
X53647090Y-111146433D01*
X53465315Y-111110276D01*
X53375637Y-111110276D01*
X53310620Y-111045145D01*
X53076397Y-110947887D01*
X52822784Y-110947666D01*
X52588391Y-111044515D01*
X52408903Y-111223690D01*
X52311645Y-111457913D01*
X52311424Y-111711526D01*
X52408273Y-111945919D01*
X52542460Y-112080340D01*
X52462611Y-112272637D01*
X52462390Y-112526250D01*
X52559239Y-112760643D01*
X52738414Y-112940131D01*
X52972637Y-113037389D01*
X53189138Y-113037578D01*
X53255486Y-113198153D01*
X53434661Y-113377641D01*
X53668884Y-113474899D01*
X53922497Y-113475120D01*
X54156890Y-113378271D01*
X54336378Y-113199096D01*
X54357211Y-113148924D01*
X54475000Y-113266712D01*
X54475000Y-115309620D01*
X54414093Y-115248607D01*
X54179870Y-115151349D01*
X53926257Y-115151128D01*
X53691864Y-115247977D01*
X53512376Y-115427152D01*
X53415118Y-115661375D01*
X53414897Y-115914988D01*
X53501672Y-116125000D01*
X53474147Y-116125000D01*
X53409130Y-116059869D01*
X53174907Y-115962611D01*
X52921294Y-115962390D01*
X52686901Y-116059239D01*
X52507413Y-116238414D01*
X52410155Y-116472637D01*
X52409934Y-116726250D01*
X52506783Y-116960643D01*
X52685958Y-117140131D01*
X52920181Y-117237389D01*
X53173794Y-117237610D01*
X53408187Y-117140761D01*
X53474063Y-117075000D01*
X54265733Y-117075000D01*
X54061859Y-117159239D01*
X53882371Y-117338414D01*
X53785113Y-117572637D01*
X53785078Y-117612574D01*
X53573752Y-117612390D01*
X53339359Y-117709239D01*
X53159871Y-117888414D01*
X53062613Y-118122637D01*
X53062491Y-118262511D01*
X52923750Y-118262390D01*
X52689357Y-118359239D01*
X52509869Y-118538414D01*
X52412611Y-118772637D01*
X52412390Y-119026250D01*
X52509239Y-119260643D01*
X52688414Y-119440131D01*
X52922637Y-119537389D01*
X53176250Y-119537610D01*
X53410643Y-119440761D01*
X53590131Y-119261586D01*
X53650933Y-119115157D01*
X58187187Y-119115157D01*
X58284036Y-119349550D01*
X58463211Y-119529038D01*
X58697434Y-119626296D01*
X58951047Y-119626517D01*
X59185440Y-119529668D01*
X59364928Y-119350493D01*
X59462186Y-119116270D01*
X59462407Y-118862657D01*
X59365558Y-118628264D01*
X59186383Y-118448776D01*
X58952160Y-118351518D01*
X58698547Y-118351297D01*
X58464154Y-118448146D01*
X58284666Y-118627321D01*
X58187408Y-118861544D01*
X58187187Y-119115157D01*
X53650933Y-119115157D01*
X53687389Y-119027363D01*
X53687511Y-118887489D01*
X53826252Y-118887610D01*
X54060645Y-118790761D01*
X54240133Y-118611586D01*
X54337391Y-118377363D01*
X54337426Y-118337426D01*
X54548752Y-118337610D01*
X54783145Y-118240761D01*
X54962633Y-118061586D01*
X55059891Y-117827363D01*
X55060112Y-117573750D01*
X54963263Y-117339357D01*
X54784088Y-117159869D01*
X54579701Y-117075000D01*
X54753248Y-117075000D01*
X55763687Y-118085438D01*
X55763689Y-118085441D01*
X55917790Y-118188408D01*
X56099565Y-118224565D01*
X60125435Y-118224565D01*
X60125435Y-119123473D01*
X60060304Y-119188490D01*
X59963046Y-119422713D01*
X59962825Y-119676326D01*
X59971606Y-119697577D01*
X59164938Y-119697577D01*
X59164933Y-119697576D01*
X59013317Y-119727735D01*
X58983158Y-119733734D01*
X58829057Y-119836701D01*
X58829055Y-119836704D01*
X58426623Y-120239135D01*
X58426621Y-120239138D01*
X58415779Y-120249980D01*
X58323750Y-120249900D01*
X58089357Y-120346749D01*
X57992462Y-120443475D01*
X57990761Y-120439357D01*
X57901605Y-120350045D01*
X57940131Y-120311586D01*
X58037389Y-120077363D01*
X58037610Y-119823750D01*
X57940761Y-119589357D01*
X57761586Y-119409869D01*
X57527363Y-119312611D01*
X57273750Y-119312390D01*
X57039357Y-119409239D01*
X56859869Y-119588414D01*
X56762611Y-119822637D01*
X56762390Y-120076250D01*
X56859239Y-120310643D01*
X56948395Y-120399955D01*
X56909869Y-120438414D01*
X56812611Y-120672637D01*
X56812390Y-120926250D01*
X56909239Y-121160643D01*
X57088414Y-121340131D01*
X57322637Y-121437389D01*
X57576250Y-121437610D01*
X57810643Y-121340761D01*
X57907538Y-121244035D01*
X57909239Y-121248153D01*
X58088414Y-121427641D01*
X58322637Y-121524899D01*
X58576250Y-121525120D01*
X58810643Y-121428271D01*
X58990131Y-121249096D01*
X59087389Y-121014873D01*
X59087470Y-120921791D01*
X59098372Y-120910889D01*
X59098375Y-120910887D01*
X59361684Y-120647577D01*
X60035302Y-120647577D01*
X59962611Y-120822637D01*
X59962390Y-121076250D01*
X60059239Y-121310643D01*
X60238414Y-121490131D01*
X60472637Y-121587389D01*
X60726250Y-121587610D01*
X60960643Y-121490761D01*
X61140131Y-121311586D01*
X61237389Y-121077363D01*
X61237610Y-120823750D01*
X61164817Y-120647577D01*
X62869180Y-120647577D01*
X63050955Y-120611420D01*
X63205056Y-120508453D01*
X63205057Y-120508452D01*
X64474030Y-119239478D01*
X64474033Y-119239476D01*
X64577000Y-119085375D01*
X64613157Y-118903600D01*
X64613157Y-118464568D01*
X64788414Y-118640131D01*
X65022637Y-118737389D01*
X65276250Y-118737610D01*
X65460669Y-118661410D01*
X65715790Y-118916530D01*
X65612427Y-118959239D01*
X65432939Y-119138414D01*
X65335681Y-119372637D01*
X65335460Y-119626250D01*
X65432309Y-119860643D01*
X65611484Y-120040131D01*
X65845707Y-120137389D01*
X66099320Y-120137610D01*
X66333713Y-120040761D01*
X66411872Y-119962739D01*
X66438940Y-119989854D01*
X66673163Y-120087112D01*
X66926776Y-120087333D01*
X67161169Y-119990484D01*
X67225792Y-119925973D01*
X76362916Y-119925973D01*
X76459765Y-120160366D01*
X76638940Y-120339854D01*
X76873163Y-120437112D01*
X77126776Y-120437333D01*
X77361169Y-120340484D01*
X77540657Y-120161309D01*
X77637915Y-119927086D01*
X77638136Y-119673473D01*
X77541287Y-119439080D01*
X77362112Y-119259592D01*
X77127889Y-119162334D01*
X76874276Y-119162113D01*
X76639883Y-119258962D01*
X76460395Y-119438137D01*
X76363137Y-119672360D01*
X76362916Y-119925973D01*
X67225792Y-119925973D01*
X67340657Y-119811309D01*
X67437915Y-119577086D01*
X67438136Y-119323473D01*
X67341287Y-119089080D01*
X67162112Y-118909592D01*
X66961403Y-118826250D01*
X73162390Y-118826250D01*
X73259239Y-119060643D01*
X73438414Y-119240131D01*
X73672637Y-119337389D01*
X73926250Y-119337610D01*
X74160643Y-119240761D01*
X74340131Y-119061586D01*
X74437389Y-118827363D01*
X74437389Y-118826250D01*
X75162390Y-118826250D01*
X75259239Y-119060643D01*
X75438414Y-119240131D01*
X75672637Y-119337389D01*
X75926250Y-119337610D01*
X76160643Y-119240761D01*
X76340131Y-119061586D01*
X76437389Y-118827363D01*
X76437610Y-118573750D01*
X76417984Y-118526250D01*
X79662380Y-118526250D01*
X79759229Y-118760643D01*
X79938404Y-118940131D01*
X80172627Y-119037389D01*
X80426240Y-119037610D01*
X80660633Y-118940761D01*
X80840121Y-118761586D01*
X80937379Y-118527363D01*
X80937600Y-118273750D01*
X80840751Y-118039357D01*
X80661576Y-117859869D01*
X80427353Y-117762611D01*
X80173740Y-117762390D01*
X79939347Y-117859239D01*
X79759859Y-118038414D01*
X79662601Y-118272637D01*
X79662380Y-118526250D01*
X76417984Y-118526250D01*
X76340761Y-118339357D01*
X76161586Y-118159869D01*
X75927363Y-118062611D01*
X75673750Y-118062390D01*
X75439357Y-118159239D01*
X75259869Y-118338414D01*
X75162611Y-118572637D01*
X75162390Y-118826250D01*
X74437389Y-118826250D01*
X74437610Y-118573750D01*
X74340761Y-118339357D01*
X74161586Y-118159869D01*
X73927363Y-118062611D01*
X73673750Y-118062390D01*
X73439357Y-118159239D01*
X73259869Y-118338414D01*
X73162611Y-118572637D01*
X73162390Y-118826250D01*
X66961403Y-118826250D01*
X66927889Y-118812334D01*
X66714494Y-118812148D01*
X66102499Y-118200152D01*
X66102499Y-117426250D01*
X71712390Y-117426250D01*
X71809239Y-117660643D01*
X71988414Y-117840131D01*
X72222637Y-117937389D01*
X72476250Y-117937610D01*
X72710643Y-117840761D01*
X72774955Y-117776561D01*
X72838414Y-117840131D01*
X73072637Y-117937389D01*
X73326250Y-117937610D01*
X73560643Y-117840761D01*
X73740131Y-117661586D01*
X73754803Y-117626250D01*
X73962390Y-117626250D01*
X74059239Y-117860643D01*
X74238414Y-118040131D01*
X74472637Y-118137389D01*
X74726250Y-118137610D01*
X74960643Y-118040761D01*
X75140131Y-117861586D01*
X75237389Y-117627363D01*
X75237610Y-117373750D01*
X75140761Y-117139357D01*
X74961586Y-116959869D01*
X74727363Y-116862611D01*
X74473750Y-116862390D01*
X74239357Y-116959239D01*
X74059869Y-117138414D01*
X73962611Y-117372637D01*
X73962390Y-117626250D01*
X73754803Y-117626250D01*
X73837389Y-117427363D01*
X73837610Y-117173750D01*
X73740761Y-116939357D01*
X73561586Y-116759869D01*
X73327363Y-116662611D01*
X73073750Y-116662390D01*
X72839357Y-116759239D01*
X72775045Y-116823439D01*
X72711586Y-116759869D01*
X72477363Y-116662611D01*
X72223750Y-116662390D01*
X71989357Y-116759239D01*
X71809869Y-116938414D01*
X71712611Y-117172637D01*
X71712390Y-117426250D01*
X66102499Y-117426250D01*
X66102499Y-115949045D01*
X66561543Y-115490000D01*
X69299995Y-115490000D01*
X69300000Y-115490001D01*
X69424485Y-115465239D01*
X69449247Y-115460313D01*
X69575772Y-115375772D01*
X70175772Y-114775772D01*
X70199163Y-114740765D01*
X70260313Y-114649247D01*
X70274832Y-114576250D01*
X71112390Y-114576250D01*
X71209239Y-114810643D01*
X71388414Y-114990131D01*
X71622637Y-115087389D01*
X71876250Y-115087610D01*
X72110643Y-114990761D01*
X72290131Y-114811586D01*
X72387389Y-114577363D01*
X72387610Y-114323750D01*
X72290761Y-114089357D01*
X72111586Y-113909869D01*
X71877363Y-113812611D01*
X71623750Y-113812390D01*
X71389357Y-113909239D01*
X71209869Y-114088414D01*
X71112611Y-114322637D01*
X71112390Y-114576250D01*
X70274832Y-114576250D01*
X70290000Y-114500000D01*
X70290000Y-113700005D01*
X70290001Y-113700000D01*
X70260314Y-113550754D01*
X70232261Y-113508770D01*
X70175772Y-113424228D01*
X70175769Y-113424226D01*
X69941544Y-113190000D01*
X72288545Y-113190000D01*
X72438414Y-113340131D01*
X72672637Y-113437389D01*
X72926250Y-113437610D01*
X73160643Y-113340761D01*
X73340131Y-113161586D01*
X73437389Y-112927363D01*
X73437610Y-112673750D01*
X73340761Y-112439357D01*
X73161586Y-112259869D01*
X72927363Y-112162611D01*
X72673750Y-112162390D01*
X72439357Y-112259239D01*
X72288333Y-112410000D01*
X71144906Y-112410000D01*
X71179220Y-112327363D01*
X71179441Y-112073750D01*
X71082592Y-111839357D01*
X70903417Y-111659869D01*
X70669194Y-111562611D01*
X70415581Y-111562390D01*
X70181188Y-111659239D01*
X70001700Y-111838414D01*
X69904442Y-112072637D01*
X69904221Y-112326250D01*
X69938826Y-112410000D01*
X68111543Y-112410000D01*
X68087425Y-112385882D01*
X68087610Y-112173750D01*
X67990761Y-111939357D01*
X67811586Y-111759869D01*
X67577363Y-111662611D01*
X67382937Y-111662442D01*
X67290761Y-111439357D01*
X67111586Y-111259869D01*
X66877363Y-111162611D01*
X66623750Y-111162390D01*
X66389357Y-111259239D01*
X66209869Y-111438414D01*
X66112611Y-111672637D01*
X66112447Y-111860903D01*
X65397200Y-111145656D01*
X65397200Y-110076827D01*
X65422637Y-110087389D01*
X65676250Y-110087610D01*
X65910643Y-109990761D01*
X65976519Y-109925000D01*
X66753248Y-109925000D01*
X68364124Y-111535876D01*
X68518225Y-111638843D01*
X68527868Y-111640761D01*
X68700000Y-111675001D01*
X68700005Y-111675000D01*
X69550000Y-111675000D01*
X69731775Y-111638843D01*
X69885876Y-111535876D01*
X70196752Y-111225000D01*
X73989863Y-111225000D01*
X73902611Y-111435127D01*
X73902390Y-111688740D01*
X73999239Y-111923133D01*
X74178414Y-112102621D01*
X74412637Y-112199879D01*
X74666250Y-112200100D01*
X74900643Y-112103251D01*
X75080131Y-111924076D01*
X75100964Y-111873904D01*
X75525000Y-112297939D01*
X75525000Y-116573417D01*
X75459869Y-116638434D01*
X75362611Y-116872657D01*
X75362390Y-117126270D01*
X75459239Y-117360663D01*
X75638414Y-117540151D01*
X75872637Y-117637409D01*
X76126250Y-117637630D01*
X76360643Y-117540781D01*
X76540131Y-117361606D01*
X76637389Y-117127383D01*
X76637610Y-116873770D01*
X76540761Y-116639377D01*
X76475000Y-116573501D01*
X76475000Y-112101188D01*
X76438843Y-111919413D01*
X76335876Y-111765312D01*
X76335873Y-111765310D01*
X74984688Y-110414124D01*
X74830587Y-110311157D01*
X74648812Y-110275000D01*
X72476432Y-110275000D01*
X72640131Y-110111586D01*
X72737389Y-109877363D01*
X72737542Y-109701250D01*
X74987390Y-109701250D01*
X75084239Y-109935643D01*
X75263414Y-110115131D01*
X75497637Y-110212389D01*
X75751250Y-110212610D01*
X75960257Y-110126250D01*
X78162390Y-110126250D01*
X78259239Y-110360643D01*
X78348445Y-110450005D01*
X78259881Y-110538414D01*
X78162623Y-110772637D01*
X78162402Y-111026250D01*
X78259251Y-111260643D01*
X78438426Y-111440131D01*
X78672649Y-111537389D01*
X78926262Y-111537610D01*
X79160655Y-111440761D01*
X79340143Y-111261586D01*
X79437401Y-111027363D01*
X79437622Y-110773750D01*
X79340773Y-110539357D01*
X79251567Y-110449995D01*
X79340131Y-110361586D01*
X79437389Y-110127363D01*
X79437610Y-109873750D01*
X79340761Y-109639357D01*
X79161586Y-109459869D01*
X78927363Y-109362611D01*
X78673750Y-109362390D01*
X78439357Y-109459239D01*
X78259869Y-109638414D01*
X78162611Y-109872637D01*
X78162390Y-110126250D01*
X75960257Y-110126250D01*
X75985643Y-110115761D01*
X76165131Y-109936586D01*
X76262389Y-109702363D01*
X76262610Y-109448750D01*
X76165761Y-109214357D01*
X75986586Y-109034869D01*
X75752363Y-108937611D01*
X75498750Y-108937390D01*
X75264357Y-109034239D01*
X75084869Y-109213414D01*
X74987611Y-109447637D01*
X74987390Y-109701250D01*
X72737542Y-109701250D01*
X72737610Y-109623750D01*
X72640761Y-109389357D01*
X72461586Y-109209869D01*
X72227363Y-109112611D01*
X71973750Y-109112390D01*
X71739357Y-109209239D01*
X71559869Y-109388414D01*
X71462611Y-109622637D01*
X71462390Y-109876250D01*
X71559239Y-110110643D01*
X71723309Y-110275000D01*
X70000000Y-110275000D01*
X69818225Y-110311157D01*
X69679412Y-110403909D01*
X69590761Y-110189357D01*
X69440000Y-110038333D01*
X69440000Y-109911544D01*
X71161543Y-108190000D01*
X71899995Y-108190000D01*
X71900000Y-108190001D01*
X72024485Y-108165239D01*
X72049247Y-108160313D01*
X72175772Y-108075772D01*
X72355774Y-107895770D01*
X75682510Y-107895770D01*
X75779359Y-108130163D01*
X75958534Y-108309651D01*
X76192757Y-108406909D01*
X76446370Y-108407130D01*
X76680763Y-108310281D01*
X76860251Y-108131106D01*
X76934933Y-107951250D01*
X77012390Y-107951250D01*
X77109239Y-108185643D01*
X77288414Y-108365131D01*
X77522637Y-108462389D01*
X77776250Y-108462610D01*
X78010643Y-108365761D01*
X78190131Y-108186586D01*
X78287389Y-107952363D01*
X78287610Y-107698750D01*
X78190761Y-107464357D01*
X78011586Y-107284869D01*
X77777363Y-107187611D01*
X77523750Y-107187390D01*
X77289357Y-107284239D01*
X77109869Y-107463414D01*
X77012611Y-107697637D01*
X77012390Y-107951250D01*
X76934933Y-107951250D01*
X76957509Y-107896883D01*
X76957730Y-107643270D01*
X76860881Y-107408877D01*
X76681706Y-107229389D01*
X76447483Y-107132131D01*
X76193870Y-107131910D01*
X75959477Y-107228759D01*
X75779989Y-107407934D01*
X75682731Y-107642157D01*
X75682510Y-107895770D01*
X72355774Y-107895770D01*
X73463275Y-106788269D01*
X73482339Y-106759737D01*
X73547816Y-106661744D01*
X73577503Y-106512497D01*
X73577503Y-105337508D01*
X73577504Y-105337503D01*
X73551990Y-105209239D01*
X73547816Y-105188256D01*
X73463275Y-105061731D01*
X73340000Y-104938456D01*
X73340000Y-103426250D01*
X76012390Y-103426250D01*
X76109239Y-103660643D01*
X76288414Y-103840131D01*
X76522637Y-103937389D01*
X76776250Y-103937610D01*
X77010643Y-103840761D01*
X77105799Y-103745770D01*
X77832510Y-103745770D01*
X77929359Y-103980163D01*
X78108534Y-104159651D01*
X78342757Y-104256909D01*
X78596370Y-104257130D01*
X78830763Y-104160281D01*
X79010251Y-103981106D01*
X79107509Y-103746883D01*
X79107730Y-103493270D01*
X79010881Y-103258877D01*
X78831706Y-103079389D01*
X78597483Y-102982131D01*
X78343870Y-102981910D01*
X78109477Y-103078759D01*
X77929989Y-103257934D01*
X77832731Y-103492157D01*
X77832510Y-103745770D01*
X77105799Y-103745770D01*
X77190131Y-103661586D01*
X77287389Y-103427363D01*
X77287610Y-103173750D01*
X77190761Y-102939357D01*
X77027939Y-102776250D01*
X78762390Y-102776250D01*
X78859239Y-103010643D01*
X79038414Y-103190131D01*
X79272637Y-103287389D01*
X79526250Y-103287610D01*
X79760643Y-103190761D01*
X79775179Y-103176250D01*
X88162390Y-103176250D01*
X88259239Y-103410643D01*
X88438414Y-103590131D01*
X88672637Y-103687389D01*
X88926250Y-103687610D01*
X89160643Y-103590761D01*
X89340131Y-103411586D01*
X89437389Y-103177363D01*
X89437610Y-102923750D01*
X89340761Y-102689357D01*
X89327753Y-102676326D01*
X94962825Y-102676326D01*
X95059674Y-102910719D01*
X95238849Y-103090207D01*
X95473072Y-103187465D01*
X95726685Y-103187686D01*
X95961078Y-103090837D01*
X96140566Y-102911662D01*
X96237824Y-102677439D01*
X96238045Y-102423826D01*
X96141196Y-102189433D01*
X95962021Y-102009945D01*
X95727798Y-101912687D01*
X95474185Y-101912466D01*
X95239792Y-102009315D01*
X95060304Y-102188490D01*
X94963046Y-102422713D01*
X94962825Y-102676326D01*
X89327753Y-102676326D01*
X89161586Y-102509869D01*
X89017648Y-102450101D01*
X89161078Y-102390837D01*
X89340566Y-102211662D01*
X89425524Y-102007060D01*
X89509674Y-102210719D01*
X89688849Y-102390207D01*
X89923072Y-102487465D01*
X90176685Y-102487686D01*
X90411078Y-102390837D01*
X90590566Y-102211662D01*
X90687824Y-101977439D01*
X90688045Y-101723826D01*
X90591196Y-101489433D01*
X90412021Y-101309945D01*
X90177798Y-101212687D01*
X89924185Y-101212466D01*
X89689792Y-101309315D01*
X89510304Y-101488490D01*
X89425346Y-101693092D01*
X89341196Y-101489433D01*
X89162021Y-101309945D01*
X88927798Y-101212687D01*
X88674185Y-101212466D01*
X88439792Y-101309315D01*
X88260304Y-101488490D01*
X88163046Y-101722713D01*
X88162825Y-101976326D01*
X88259674Y-102210719D01*
X88438849Y-102390207D01*
X88582787Y-102449975D01*
X88439357Y-102509239D01*
X88259869Y-102688414D01*
X88162611Y-102922637D01*
X88162390Y-103176250D01*
X79775179Y-103176250D01*
X79940131Y-103011586D01*
X80037389Y-102777363D01*
X80037610Y-102523750D01*
X79940761Y-102289357D01*
X79761586Y-102109869D01*
X79527363Y-102012611D01*
X79273750Y-102012390D01*
X79039357Y-102109239D01*
X78859869Y-102288414D01*
X78762611Y-102522637D01*
X78762390Y-102776250D01*
X77027939Y-102776250D01*
X77011586Y-102759869D01*
X76777363Y-102662611D01*
X76523750Y-102662390D01*
X76289357Y-102759239D01*
X76109869Y-102938414D01*
X76012611Y-103172637D01*
X76012390Y-103426250D01*
X73340000Y-103426250D01*
X73340000Y-102382313D01*
X73472637Y-102437389D01*
X73726250Y-102437610D01*
X73960643Y-102340761D01*
X74140131Y-102161586D01*
X74237389Y-101927363D01*
X74237610Y-101673750D01*
X74140761Y-101439357D01*
X74127677Y-101426250D01*
X77512390Y-101426250D01*
X77609239Y-101660643D01*
X77788414Y-101840131D01*
X78022637Y-101937389D01*
X78276250Y-101937610D01*
X78510643Y-101840761D01*
X78690131Y-101661586D01*
X78787389Y-101427363D01*
X78787610Y-101173750D01*
X78690761Y-100939357D01*
X78511586Y-100759869D01*
X78277363Y-100662611D01*
X78023750Y-100662390D01*
X77789357Y-100759239D01*
X77609869Y-100938414D01*
X77512611Y-101172637D01*
X77512390Y-101426250D01*
X74127677Y-101426250D01*
X73961586Y-101259869D01*
X73727363Y-101162611D01*
X73473750Y-101162390D01*
X73340000Y-101217654D01*
X73340000Y-100519603D01*
X74153973Y-99705630D01*
X74188414Y-99740131D01*
X74422637Y-99837389D01*
X74676250Y-99837610D01*
X74910643Y-99740761D01*
X75090131Y-99561586D01*
X75187389Y-99327363D01*
X75187610Y-99073750D01*
X75090761Y-98839357D01*
X74911586Y-98659869D01*
X74677363Y-98562611D01*
X74423750Y-98562390D01*
X74189357Y-98659239D01*
X74020983Y-98827320D01*
X73958813Y-98839686D01*
X73942249Y-98850754D01*
X73832287Y-98924228D01*
X73832285Y-98924231D01*
X72674228Y-100082287D01*
X72589687Y-100208812D01*
X72589687Y-100208813D01*
X72559999Y-100358059D01*
X72560000Y-100358064D01*
X72560000Y-102367687D01*
X72427363Y-102312611D01*
X72173750Y-102312390D01*
X71939357Y-102409239D01*
X71788333Y-102560000D01*
X71423837Y-102560000D01*
X71437389Y-102527363D01*
X71437610Y-102273750D01*
X71340761Y-102039357D01*
X71161586Y-101859869D01*
X70927363Y-101762611D01*
X70713968Y-101762425D01*
X69825772Y-100874228D01*
X69806852Y-100861586D01*
X69699247Y-100789687D01*
X69674485Y-100784761D01*
X69550000Y-100759999D01*
X69549995Y-100760000D01*
X69432313Y-100760000D01*
X69487389Y-100627363D01*
X69487610Y-100373750D01*
X69390761Y-100139357D01*
X69211586Y-99959869D01*
X68977363Y-99862611D01*
X68723750Y-99862390D01*
X68489357Y-99959239D01*
X68309869Y-100138414D01*
X68212611Y-100372637D01*
X68212390Y-100626250D01*
X68267654Y-100760000D01*
X62627338Y-100760000D01*
X62301556Y-100434218D01*
X62301508Y-100434186D01*
X62387389Y-100227363D01*
X62387610Y-99973750D01*
X62290761Y-99739357D01*
X62111586Y-99559869D01*
X61877363Y-99462611D01*
X61623750Y-99462390D01*
X61389357Y-99559239D01*
X61209869Y-99738414D01*
X61112611Y-99972637D01*
X61112390Y-100226250D01*
X61151122Y-100319990D01*
X60598927Y-100319990D01*
X60637389Y-100227363D01*
X60637610Y-99973750D01*
X60540761Y-99739357D01*
X60361586Y-99559869D01*
X60127363Y-99462611D01*
X59873750Y-99462390D01*
X59639357Y-99559239D01*
X59459869Y-99738414D01*
X59362611Y-99972637D01*
X59362390Y-100226250D01*
X59401122Y-100319990D01*
X55769689Y-100319990D01*
X55787389Y-100277363D01*
X55787610Y-100023750D01*
X55690761Y-99789357D01*
X55511586Y-99609869D01*
X55403065Y-99564807D01*
X55461078Y-99540837D01*
X55640566Y-99361662D01*
X55737824Y-99127439D01*
X55738045Y-98873826D01*
X55641196Y-98639433D01*
X55462021Y-98459945D01*
X55227798Y-98362687D01*
X54974185Y-98362466D01*
X54739792Y-98459315D01*
X54560304Y-98638490D01*
X54463046Y-98872713D01*
X54462825Y-99126326D01*
X54559674Y-99360719D01*
X54738849Y-99540207D01*
X54847370Y-99585269D01*
X54789357Y-99609239D01*
X54609869Y-99788414D01*
X54512611Y-100022637D01*
X54512390Y-100276250D01*
X54530463Y-100319990D01*
X52481670Y-100319990D01*
X51785908Y-99624228D01*
X51734682Y-99590000D01*
X51659383Y-99539687D01*
X51634621Y-99534761D01*
X51510136Y-99509999D01*
X51510131Y-99510000D01*
X51211455Y-99510000D01*
X51061586Y-99359869D01*
X50827363Y-99262611D01*
X50573750Y-99262390D01*
X50425435Y-99323672D01*
X50425435Y-98876265D01*
X50572637Y-98937389D01*
X50826250Y-98937610D01*
X51060643Y-98840761D01*
X51240131Y-98661586D01*
X51337389Y-98427363D01*
X51337610Y-98173750D01*
X51317984Y-98126250D01*
X52262390Y-98126250D01*
X52359239Y-98360643D01*
X52538414Y-98540131D01*
X52772637Y-98637389D01*
X53026250Y-98637610D01*
X53260643Y-98540761D01*
X53440131Y-98361586D01*
X53537389Y-98127363D01*
X53537610Y-97873750D01*
X53518015Y-97826326D01*
X58787825Y-97826326D01*
X58884674Y-98060719D01*
X59063849Y-98240207D01*
X59298072Y-98337465D01*
X59551685Y-98337686D01*
X59786078Y-98240837D01*
X59965566Y-98061662D01*
X60062824Y-97827439D01*
X60063045Y-97573826D01*
X59966196Y-97339433D01*
X59787021Y-97159945D01*
X59552798Y-97062687D01*
X59299185Y-97062466D01*
X59064792Y-97159315D01*
X58885304Y-97338490D01*
X58788046Y-97572713D01*
X58787825Y-97826326D01*
X53518015Y-97826326D01*
X53440761Y-97639357D01*
X53261586Y-97459869D01*
X53027363Y-97362611D01*
X52773750Y-97362390D01*
X52539357Y-97459239D01*
X52359869Y-97638414D01*
X52262611Y-97872637D01*
X52262390Y-98126250D01*
X51317984Y-98126250D01*
X51240761Y-97939357D01*
X51201561Y-97900089D01*
X51240131Y-97861586D01*
X51337389Y-97627363D01*
X51337610Y-97373750D01*
X51240761Y-97139357D01*
X51061586Y-96959869D01*
X50827363Y-96862611D01*
X50573750Y-96862390D01*
X50425435Y-96923672D01*
X50425435Y-95875973D01*
X54462916Y-95875973D01*
X54559765Y-96110366D01*
X54738940Y-96289854D01*
X54973163Y-96387112D01*
X55226776Y-96387333D01*
X55461169Y-96290484D01*
X55640657Y-96111309D01*
X55737915Y-95877086D01*
X55737915Y-95875973D01*
X57262916Y-95875973D01*
X57359765Y-96110366D01*
X57538940Y-96289854D01*
X57773163Y-96387112D01*
X58026776Y-96387333D01*
X58261169Y-96290484D01*
X58440657Y-96111309D01*
X58537915Y-95877086D01*
X58538136Y-95623473D01*
X58441287Y-95389080D01*
X58262112Y-95209592D01*
X58027889Y-95112334D01*
X57774276Y-95112113D01*
X57539883Y-95208962D01*
X57360395Y-95388137D01*
X57263137Y-95622360D01*
X57262916Y-95875973D01*
X55737915Y-95875973D01*
X55738136Y-95623473D01*
X55641287Y-95389080D01*
X55462112Y-95209592D01*
X55227889Y-95112334D01*
X54974276Y-95112113D01*
X54739883Y-95208962D01*
X54560395Y-95388137D01*
X54463137Y-95622360D01*
X54462916Y-95875973D01*
X50425435Y-95875973D01*
X50425435Y-93626250D01*
X52162390Y-93626250D01*
X52259239Y-93860643D01*
X52438414Y-94040131D01*
X52672637Y-94137389D01*
X52926250Y-94137610D01*
X53160643Y-94040761D01*
X53340131Y-93861586D01*
X53437389Y-93627363D01*
X53437575Y-93413969D01*
X54225294Y-92626250D01*
X57062390Y-92626250D01*
X57159239Y-92860643D01*
X57338414Y-93040131D01*
X57572637Y-93137389D01*
X57826250Y-93137610D01*
X58060643Y-93040761D01*
X58240131Y-92861586D01*
X58317204Y-92675973D01*
X59162916Y-92675973D01*
X59259765Y-92910366D01*
X59410526Y-93061390D01*
X59410526Y-95000521D01*
X59410525Y-95000526D01*
X59432722Y-95112113D01*
X59440213Y-95149773D01*
X59506679Y-95249247D01*
X59524754Y-95276298D01*
X63561081Y-99312624D01*
X63561083Y-99312627D01*
X63687608Y-99397168D01*
X63836855Y-99426855D01*
X65032233Y-99426855D01*
X65182102Y-99576986D01*
X65416325Y-99674244D01*
X65669938Y-99674465D01*
X65904331Y-99577616D01*
X66083819Y-99398441D01*
X66181077Y-99164218D01*
X66181298Y-98910605D01*
X66171662Y-98887285D01*
X66226776Y-98887333D01*
X66461169Y-98790484D01*
X66640657Y-98611309D01*
X66737915Y-98377086D01*
X66738136Y-98123473D01*
X66737931Y-98122978D01*
X66772637Y-98137389D01*
X67026250Y-98137610D01*
X67260643Y-98040761D01*
X67440131Y-97861586D01*
X67537389Y-97627363D01*
X67537610Y-97373750D01*
X67440761Y-97139357D01*
X67261586Y-96959869D01*
X67041898Y-96868647D01*
X67052688Y-96842662D01*
X67052789Y-96726250D01*
X68412390Y-96726250D01*
X68509239Y-96960643D01*
X68688414Y-97140131D01*
X68922637Y-97237389D01*
X69176250Y-97237610D01*
X69410643Y-97140761D01*
X69590131Y-96961586D01*
X69687389Y-96727363D01*
X69687610Y-96473750D01*
X69590761Y-96239357D01*
X69411586Y-96059869D01*
X69177363Y-95962611D01*
X68923750Y-95962390D01*
X68689357Y-96059239D01*
X68509869Y-96238414D01*
X68412611Y-96472637D01*
X68412390Y-96726250D01*
X67052789Y-96726250D01*
X67052909Y-96589049D01*
X66956060Y-96354656D01*
X66776885Y-96175168D01*
X66542662Y-96077910D01*
X66451980Y-96077831D01*
X68154811Y-94375000D01*
X71800000Y-94375000D01*
X71981775Y-94338843D01*
X72135876Y-94235876D01*
X73934221Y-92437530D01*
X74026250Y-92437610D01*
X74260643Y-92340761D01*
X74440131Y-92161586D01*
X74537389Y-91927363D01*
X74537610Y-91673750D01*
X74440761Y-91439357D01*
X74362284Y-91360743D01*
X74410643Y-91340761D01*
X74590131Y-91161586D01*
X74625680Y-91075973D01*
X76037916Y-91075973D01*
X76134765Y-91310366D01*
X76313940Y-91489854D01*
X76548163Y-91587112D01*
X76801776Y-91587333D01*
X77036169Y-91490484D01*
X77215657Y-91311309D01*
X77312915Y-91077086D01*
X77313046Y-90926250D01*
X78112390Y-90926250D01*
X78209239Y-91160643D01*
X78388414Y-91340131D01*
X78622637Y-91437389D01*
X78876250Y-91437610D01*
X79024752Y-91376250D01*
X79962390Y-91376250D01*
X80059239Y-91610643D01*
X80238414Y-91790131D01*
X80472637Y-91887389D01*
X80726250Y-91887610D01*
X80960643Y-91790761D01*
X81025266Y-91726250D01*
X85362390Y-91726250D01*
X85459239Y-91960643D01*
X85638414Y-92140131D01*
X85872637Y-92237389D01*
X86126250Y-92237610D01*
X86360643Y-92140761D01*
X86540131Y-91961586D01*
X86600027Y-91817340D01*
X86659239Y-91960643D01*
X86838414Y-92140131D01*
X87072637Y-92237389D01*
X87326250Y-92237610D01*
X87560643Y-92140761D01*
X87740131Y-91961586D01*
X87837389Y-91727363D01*
X87837610Y-91473750D01*
X87740761Y-91239357D01*
X87561586Y-91059869D01*
X87327363Y-90962611D01*
X87089127Y-90962403D01*
X87190121Y-90861586D01*
X87287379Y-90627363D01*
X87287600Y-90373750D01*
X87190751Y-90139357D01*
X87011576Y-89959869D01*
X86777353Y-89862611D01*
X86523740Y-89862390D01*
X86289347Y-89959239D01*
X86109859Y-90138414D01*
X86012601Y-90372637D01*
X86012380Y-90626250D01*
X86109229Y-90860643D01*
X86270246Y-91021941D01*
X86127363Y-90962611D01*
X85873750Y-90962390D01*
X85639357Y-91059239D01*
X85459869Y-91238414D01*
X85362611Y-91472637D01*
X85362390Y-91726250D01*
X81025266Y-91726250D01*
X81140131Y-91611586D01*
X81237389Y-91377363D01*
X81237610Y-91123750D01*
X81140761Y-90889357D01*
X80961586Y-90709869D01*
X80727363Y-90612611D01*
X80473750Y-90612390D01*
X80239357Y-90709239D01*
X80059869Y-90888414D01*
X79962611Y-91122637D01*
X79962390Y-91376250D01*
X79024752Y-91376250D01*
X79110643Y-91340761D01*
X79290131Y-91161586D01*
X79387389Y-90927363D01*
X79387610Y-90673750D01*
X79290761Y-90439357D01*
X79111586Y-90259869D01*
X78877363Y-90162611D01*
X78623750Y-90162390D01*
X78389357Y-90259239D01*
X78209869Y-90438414D01*
X78112611Y-90672637D01*
X78112390Y-90926250D01*
X77313046Y-90926250D01*
X77313136Y-90823473D01*
X77216287Y-90589080D01*
X77037112Y-90409592D01*
X76802889Y-90312334D01*
X76549276Y-90312113D01*
X76314883Y-90408962D01*
X76135395Y-90588137D01*
X76038137Y-90822360D01*
X76037916Y-91075973D01*
X74625680Y-91075973D01*
X74687389Y-90927363D01*
X74687610Y-90673750D01*
X74590761Y-90439357D01*
X74411586Y-90259869D01*
X74177363Y-90162611D01*
X73923750Y-90162390D01*
X73689357Y-90259239D01*
X73509869Y-90438414D01*
X73412611Y-90672637D01*
X73412390Y-90926250D01*
X73509239Y-91160643D01*
X73587716Y-91239257D01*
X73539357Y-91259239D01*
X73359869Y-91438414D01*
X73262611Y-91672637D01*
X73262530Y-91765719D01*
X71603248Y-93425000D01*
X67958064Y-93425000D01*
X67958059Y-93424999D01*
X67806443Y-93455158D01*
X67776284Y-93461157D01*
X67662195Y-93537389D01*
X67622183Y-93564124D01*
X65214124Y-95972183D01*
X65111157Y-96126284D01*
X65075000Y-96308059D01*
X65075000Y-96323397D01*
X65009869Y-96388414D01*
X64912611Y-96622637D01*
X64912390Y-96876250D01*
X65009239Y-97110643D01*
X65040830Y-97142289D01*
X65004047Y-97179008D01*
X64906789Y-97413231D01*
X64906568Y-97666844D01*
X65003417Y-97901237D01*
X65182592Y-98080725D01*
X65416815Y-98177983D01*
X65463088Y-98178023D01*
X65462916Y-98375973D01*
X65472552Y-98399293D01*
X65417438Y-98399245D01*
X65183045Y-98496094D01*
X65032021Y-98646855D01*
X63998398Y-98646855D01*
X61105015Y-95753471D01*
X63662390Y-95753471D01*
X63759239Y-95987864D01*
X63938414Y-96167352D01*
X64172637Y-96264610D01*
X64426250Y-96264831D01*
X64660643Y-96167982D01*
X64840131Y-95988807D01*
X64937389Y-95754584D01*
X64937610Y-95500971D01*
X64840761Y-95266578D01*
X64661586Y-95087090D01*
X64427363Y-94989832D01*
X64173750Y-94989611D01*
X63939357Y-95086460D01*
X63759869Y-95265635D01*
X63662611Y-95499858D01*
X63662390Y-95753471D01*
X61105015Y-95753471D01*
X60427794Y-95076250D01*
X62012390Y-95076250D01*
X62109239Y-95310643D01*
X62288414Y-95490131D01*
X62522637Y-95587389D01*
X62776250Y-95587610D01*
X63010643Y-95490761D01*
X63190131Y-95311586D01*
X63287389Y-95077363D01*
X63287610Y-94823750D01*
X63190761Y-94589357D01*
X63011586Y-94409869D01*
X62777363Y-94312611D01*
X62523750Y-94312390D01*
X62289357Y-94409239D01*
X62109869Y-94588414D01*
X62012611Y-94822637D01*
X62012390Y-95076250D01*
X60427794Y-95076250D01*
X60190526Y-94838982D01*
X60190526Y-93061178D01*
X60340657Y-92911309D01*
X60437915Y-92677086D01*
X60437915Y-92676254D01*
X60462390Y-92676254D01*
X60559239Y-92910647D01*
X60738414Y-93090135D01*
X60972637Y-93187393D01*
X61226250Y-93187614D01*
X61460643Y-93090765D01*
X61640131Y-92911590D01*
X61737389Y-92677367D01*
X61737610Y-92423754D01*
X61640761Y-92189361D01*
X61461586Y-92009873D01*
X61227363Y-91912615D01*
X60973750Y-91912394D01*
X60739357Y-92009243D01*
X60559869Y-92188418D01*
X60462611Y-92422641D01*
X60462390Y-92676254D01*
X60437915Y-92676254D01*
X60438136Y-92423473D01*
X60341287Y-92189080D01*
X60162112Y-92009592D01*
X59927889Y-91912334D01*
X59674276Y-91912113D01*
X59439883Y-92008962D01*
X59260395Y-92188137D01*
X59163137Y-92422360D01*
X59162916Y-92675973D01*
X58317204Y-92675973D01*
X58337389Y-92627363D01*
X58337610Y-92373750D01*
X58240761Y-92139357D01*
X58061586Y-91959869D01*
X57827363Y-91862611D01*
X57573750Y-91862390D01*
X57339357Y-91959239D01*
X57159869Y-92138414D01*
X57062611Y-92372637D01*
X57062390Y-92626250D01*
X54225294Y-92626250D01*
X55311544Y-91540000D01*
X62884163Y-91540000D01*
X64990506Y-93646343D01*
X64990321Y-93858474D01*
X65087170Y-94092867D01*
X65266345Y-94272355D01*
X65500568Y-94369613D01*
X65754181Y-94369834D01*
X65988574Y-94272985D01*
X66168062Y-94093810D01*
X66265320Y-93859587D01*
X66265541Y-93605974D01*
X66168692Y-93371581D01*
X65989517Y-93192093D01*
X65755294Y-93094835D01*
X65541900Y-93094649D01*
X63321479Y-90874228D01*
X63302559Y-90861586D01*
X63194954Y-90789687D01*
X63170192Y-90784761D01*
X63045707Y-90759999D01*
X63045702Y-90760000D01*
X61382315Y-90760000D01*
X61437389Y-90627367D01*
X61437610Y-90373754D01*
X61376549Y-90225973D01*
X64262916Y-90225973D01*
X64359765Y-90460366D01*
X64538940Y-90639854D01*
X64773163Y-90737112D01*
X65026776Y-90737333D01*
X65062437Y-90722598D01*
X65062390Y-90776250D01*
X65159239Y-91010643D01*
X65338414Y-91190131D01*
X65572637Y-91287389D01*
X65826250Y-91287610D01*
X66060643Y-91190761D01*
X66240131Y-91011586D01*
X66337389Y-90777363D01*
X66337610Y-90523750D01*
X66240761Y-90289357D01*
X66061586Y-90109869D01*
X65827363Y-90012611D01*
X65573750Y-90012390D01*
X65538089Y-90027125D01*
X65538136Y-89973473D01*
X65441287Y-89739080D01*
X65262112Y-89559592D01*
X65027889Y-89462334D01*
X64774276Y-89462113D01*
X64539883Y-89558962D01*
X64360395Y-89738137D01*
X64263137Y-89972360D01*
X64262916Y-90225973D01*
X61376549Y-90225973D01*
X61340761Y-90139361D01*
X61161586Y-89959873D01*
X60927363Y-89862615D01*
X60673750Y-89862394D01*
X60439357Y-89959243D01*
X60259869Y-90138418D01*
X60162611Y-90372641D01*
X60162390Y-90626254D01*
X60217653Y-90760000D01*
X59641545Y-90760000D01*
X59740131Y-90661586D01*
X59837389Y-90427363D01*
X59837610Y-90173750D01*
X59740761Y-89939357D01*
X59561586Y-89759869D01*
X59327363Y-89662611D01*
X59073750Y-89662390D01*
X58839357Y-89759239D01*
X58659869Y-89938414D01*
X58562611Y-90172637D01*
X58562390Y-90426250D01*
X58659239Y-90660643D01*
X58758423Y-90760000D01*
X57741545Y-90760000D01*
X57840131Y-90661586D01*
X57937389Y-90427363D01*
X57937610Y-90173750D01*
X57840761Y-89939357D01*
X57801561Y-89900089D01*
X57840131Y-89861586D01*
X57937389Y-89627363D01*
X57937610Y-89373750D01*
X57840761Y-89139357D01*
X57661586Y-88959869D01*
X57427363Y-88862611D01*
X57173750Y-88862390D01*
X56939357Y-88959239D01*
X56759869Y-89138414D01*
X56662611Y-89372637D01*
X56662390Y-89626250D01*
X56759239Y-89860643D01*
X56798439Y-89899911D01*
X56759869Y-89938414D01*
X56662611Y-90172637D01*
X56662390Y-90426250D01*
X56759239Y-90660643D01*
X56858423Y-90760000D01*
X55150005Y-90760000D01*
X55150000Y-90759999D01*
X55025515Y-90784761D01*
X55002715Y-90789297D01*
X54940761Y-90639357D01*
X54761586Y-90459869D01*
X54527363Y-90362611D01*
X54273750Y-90362390D01*
X54039357Y-90459239D01*
X53859869Y-90638414D01*
X53762611Y-90872637D01*
X53762390Y-91126250D01*
X53859239Y-91360643D01*
X54038414Y-91540131D01*
X54158472Y-91589984D01*
X52885881Y-92862575D01*
X52673750Y-92862390D01*
X52439357Y-92959239D01*
X52259869Y-93138414D01*
X52162611Y-93372637D01*
X52162390Y-93626250D01*
X50425435Y-93626250D01*
X50425435Y-87908018D01*
X51450253Y-87908018D01*
X51609769Y-88294076D01*
X51904881Y-88589704D01*
X52290661Y-88749894D01*
X52708377Y-88750258D01*
X53094435Y-88590742D01*
X53390063Y-88295630D01*
X53550253Y-87909850D01*
X53550338Y-87811635D01*
X59425253Y-87811635D01*
X59664527Y-88390723D01*
X60107195Y-88834164D01*
X60685865Y-89074449D01*
X61312438Y-89074996D01*
X61891526Y-88835722D01*
X62334967Y-88393054D01*
X62575252Y-87814384D01*
X62575799Y-87187811D01*
X62336525Y-86608723D01*
X61954719Y-86226250D01*
X62912390Y-86226250D01*
X63009239Y-86460643D01*
X63188414Y-86640131D01*
X63422637Y-86737389D01*
X63676250Y-86737610D01*
X63910643Y-86640761D01*
X64090131Y-86461586D01*
X64187389Y-86227363D01*
X64187610Y-85973750D01*
X64090761Y-85739357D01*
X63911586Y-85559869D01*
X63677363Y-85462611D01*
X63423750Y-85462390D01*
X63189357Y-85559239D01*
X63009869Y-85738414D01*
X62912611Y-85972637D01*
X62912390Y-86226250D01*
X61954719Y-86226250D01*
X61893857Y-86165282D01*
X61315187Y-85924997D01*
X60688614Y-85924450D01*
X60109526Y-86163724D01*
X59666085Y-86606392D01*
X59425800Y-87185062D01*
X59425253Y-87811635D01*
X53550338Y-87811635D01*
X53550617Y-87492134D01*
X53391101Y-87106076D01*
X53095989Y-86810448D01*
X52710209Y-86650258D01*
X52292493Y-86649894D01*
X51906435Y-86809410D01*
X51610807Y-87104522D01*
X51450617Y-87490302D01*
X51450253Y-87908018D01*
X50425435Y-87908018D01*
X50425435Y-85425076D01*
X53746894Y-85425076D01*
X53664883Y-85458962D01*
X53664883Y-85458962D01*
G37*
X53664883Y-85458962D02*
X53485395Y-85638137D01*
X53388137Y-85872360D01*
X53387916Y-86125973D01*
X53484765Y-86360366D01*
X53663940Y-86539854D01*
X53898163Y-86637112D01*
X54151776Y-86637333D01*
X54386169Y-86540484D01*
X54565657Y-86361309D01*
X54662915Y-86127086D01*
X54663136Y-85873473D01*
X54566287Y-85639080D01*
X54387112Y-85459592D01*
X54303988Y-85425076D01*
X56696894Y-85425076D01*
X56614883Y-85458962D01*
X56435395Y-85638137D01*
X56338137Y-85872360D01*
X56337916Y-86125973D01*
X56434765Y-86360366D01*
X56613940Y-86539854D01*
X56848163Y-86637112D01*
X57101776Y-86637333D01*
X57336169Y-86540484D01*
X57515657Y-86361309D01*
X57612915Y-86127086D01*
X57613136Y-85873473D01*
X57516287Y-85639080D01*
X57337112Y-85459592D01*
X57253988Y-85425076D01*
X58273405Y-85425076D01*
X58159869Y-85538414D01*
X58062611Y-85772637D01*
X58062390Y-86026250D01*
X58159239Y-86260643D01*
X58338414Y-86440131D01*
X58572637Y-86537389D01*
X58826250Y-86537610D01*
X59060643Y-86440761D01*
X59240131Y-86261586D01*
X59337389Y-86027363D01*
X59337610Y-85773750D01*
X59240761Y-85539357D01*
X59126679Y-85425076D01*
X67375000Y-85425076D01*
X67375000Y-91500000D01*
X67403545Y-91643506D01*
X67484835Y-91765165D01*
X67606494Y-91846455D01*
X67750000Y-91875000D01*
X69500000Y-91875000D01*
X69643506Y-91846455D01*
X69765165Y-91765165D01*
X70654080Y-90876250D01*
X71712390Y-90876250D01*
X71809239Y-91110643D01*
X71988414Y-91290131D01*
X72222637Y-91387389D01*
X72476250Y-91387610D01*
X72710643Y-91290761D01*
X72890131Y-91111586D01*
X72987389Y-90877363D01*
X72987610Y-90623750D01*
X72890761Y-90389357D01*
X72711586Y-90209869D01*
X72477363Y-90112611D01*
X72223750Y-90112390D01*
X71989357Y-90209239D01*
X71809869Y-90388414D01*
X71712611Y-90622637D01*
X71712390Y-90876250D01*
X70654080Y-90876250D01*
X72319175Y-89211155D01*
X87263139Y-89211155D01*
X87359988Y-89445548D01*
X87539163Y-89625036D01*
X87773386Y-89722294D01*
X88026999Y-89722515D01*
X88261392Y-89625666D01*
X88440880Y-89446491D01*
X88538138Y-89212268D01*
X88538138Y-89211155D01*
X88938139Y-89211155D01*
X89034988Y-89445548D01*
X89214163Y-89625036D01*
X89448386Y-89722294D01*
X89701999Y-89722515D01*
X89936392Y-89625666D01*
X90115880Y-89446491D01*
X90213138Y-89212268D01*
X90213359Y-88958655D01*
X90116510Y-88724262D01*
X89937335Y-88544774D01*
X89703112Y-88447516D01*
X89449499Y-88447295D01*
X89215106Y-88544144D01*
X89035618Y-88723319D01*
X88938360Y-88957542D01*
X88938139Y-89211155D01*
X88538138Y-89211155D01*
X88538359Y-88958655D01*
X88441510Y-88724262D01*
X88262335Y-88544774D01*
X88028112Y-88447516D01*
X87774499Y-88447295D01*
X87540106Y-88544144D01*
X87360618Y-88723319D01*
X87263360Y-88957542D01*
X87263139Y-89211155D01*
X72319175Y-89211155D01*
X72655330Y-88875000D01*
X77750000Y-88875000D01*
X77893506Y-88846455D01*
X78015165Y-88765165D01*
X78405330Y-88375000D01*
X79344670Y-88375000D01*
X79734835Y-88765165D01*
X79856494Y-88846455D01*
X80000000Y-88875000D01*
X83750000Y-88875000D01*
X83893506Y-88846455D01*
X84015165Y-88765165D01*
X84655330Y-88125000D01*
X84973306Y-88125000D01*
X84959869Y-88138414D01*
X84862611Y-88372637D01*
X84862390Y-88626250D01*
X84959239Y-88860643D01*
X85138414Y-89040131D01*
X85372637Y-89137389D01*
X85626250Y-89137610D01*
X85860643Y-89040761D01*
X86040131Y-88861586D01*
X86137389Y-88627363D01*
X86137609Y-88375000D01*
X91173817Y-88375000D01*
X91010395Y-88538137D01*
X90913137Y-88772360D01*
X90912916Y-89025973D01*
X91009765Y-89260366D01*
X91188940Y-89439854D01*
X91423163Y-89537112D01*
X91676776Y-89537333D01*
X91911169Y-89440484D01*
X92062193Y-89289723D01*
X93200272Y-89289723D01*
X93200277Y-89289724D01*
X93324762Y-89264962D01*
X93349524Y-89260036D01*
X93467111Y-89181467D01*
X93589924Y-89304495D01*
X93824147Y-89401753D01*
X94077760Y-89401974D01*
X94312153Y-89305125D01*
X94491641Y-89125950D01*
X94504457Y-89095085D01*
X94517376Y-89126350D01*
X94696551Y-89305838D01*
X94930774Y-89403096D01*
X95184387Y-89403317D01*
X95418780Y-89306468D01*
X95598268Y-89127293D01*
X95695526Y-88893070D01*
X95695712Y-88679675D01*
X95775769Y-88599618D01*
X95775772Y-88599616D01*
X95860313Y-88473091D01*
X95860314Y-88473090D01*
X95890001Y-88323844D01*
X95890000Y-88323839D01*
X95890000Y-87293639D01*
X95860313Y-87144392D01*
X95775772Y-87017867D01*
X95775769Y-87017865D01*
X94844660Y-86086755D01*
X94823116Y-86072360D01*
X94718135Y-86002214D01*
X94693373Y-85997288D01*
X94568888Y-85972526D01*
X94568883Y-85972527D01*
X94227115Y-85972527D01*
X94287389Y-85827371D01*
X94287610Y-85573758D01*
X94226176Y-85425076D01*
X95746894Y-85425076D01*
X95664883Y-85458962D01*
X95485395Y-85638137D01*
X95388137Y-85872360D01*
X95387916Y-86125973D01*
X95484765Y-86360366D01*
X95663940Y-86539854D01*
X95898163Y-86637112D01*
X96151776Y-86637333D01*
X96386169Y-86540484D01*
X96565657Y-86361309D01*
X96662915Y-86127086D01*
X96663136Y-85873473D01*
X96566287Y-85639080D01*
X96387112Y-85459592D01*
X96303988Y-85425076D01*
X98636389Y-85425076D01*
X98614883Y-85433962D01*
X98435395Y-85613137D01*
X98338137Y-85847360D01*
X98337916Y-86100973D01*
X98434765Y-86335366D01*
X98613940Y-86514854D01*
X98848163Y-86612112D01*
X99101776Y-86612333D01*
X99336169Y-86515484D01*
X99515657Y-86336309D01*
X99575435Y-86192348D01*
X99575435Y-90503334D01*
X99477363Y-90462611D01*
X99223750Y-90462390D01*
X98989357Y-90559239D01*
X98809869Y-90738414D01*
X98712611Y-90972637D01*
X98712425Y-91186032D01*
X97588456Y-92310000D01*
X97491458Y-92310000D01*
X97640131Y-92161586D01*
X97737389Y-91927363D01*
X97737610Y-91673750D01*
X97640761Y-91439357D01*
X97461586Y-91259869D01*
X97227363Y-91162611D01*
X96973750Y-91162390D01*
X96739357Y-91259239D01*
X96559869Y-91438414D01*
X96462611Y-91672637D01*
X96462390Y-91926250D01*
X96559239Y-92160643D01*
X96708336Y-92310000D01*
X90100005Y-92310000D01*
X90100000Y-92309999D01*
X89950754Y-92339686D01*
X89921491Y-92359239D01*
X89824228Y-92424228D01*
X89824226Y-92424231D01*
X88011729Y-94236727D01*
X87969007Y-94300665D01*
X87877363Y-94262611D01*
X87623750Y-94262390D01*
X87389357Y-94359239D01*
X87323481Y-94425000D01*
X82800000Y-94425000D01*
X82618225Y-94461157D01*
X82464124Y-94564124D01*
X82464122Y-94564127D01*
X81377805Y-95650443D01*
X81387389Y-95627363D01*
X81387610Y-95373750D01*
X81290761Y-95139357D01*
X81111586Y-94959869D01*
X80877363Y-94862611D01*
X80623750Y-94862390D01*
X80389357Y-94959239D01*
X80209869Y-95138414D01*
X80112611Y-95372637D01*
X80112514Y-95483551D01*
X78502757Y-93873794D01*
X83762390Y-93873794D01*
X83859239Y-94108187D01*
X84038414Y-94287675D01*
X84272637Y-94384933D01*
X84526250Y-94385154D01*
X84760643Y-94288305D01*
X84826519Y-94222544D01*
X86864946Y-94222544D01*
X87046721Y-94186387D01*
X87200822Y-94083420D01*
X89434222Y-91850020D01*
X89526250Y-91850100D01*
X89760643Y-91753251D01*
X89940131Y-91574076D01*
X90037389Y-91339853D01*
X90037610Y-91086240D01*
X89940761Y-90851847D01*
X89761586Y-90672359D01*
X89752669Y-90668656D01*
X94162390Y-90668656D01*
X94259239Y-90903049D01*
X94327236Y-90971165D01*
X94259869Y-91038414D01*
X94162611Y-91272637D01*
X94162390Y-91526250D01*
X94259239Y-91760643D01*
X94438414Y-91940131D01*
X94672637Y-92037389D01*
X94926250Y-92037610D01*
X95160643Y-91940761D01*
X95340131Y-91761586D01*
X95437389Y-91527363D01*
X95437610Y-91273750D01*
X95340761Y-91039357D01*
X95272764Y-90971241D01*
X95340131Y-90903992D01*
X95437389Y-90669769D01*
X95437610Y-90416156D01*
X95340761Y-90181763D01*
X95161586Y-90002275D01*
X94927363Y-89905017D01*
X94673750Y-89904796D01*
X94439357Y-90001645D01*
X94259869Y-90180820D01*
X94162611Y-90415043D01*
X94162390Y-90668656D01*
X89752669Y-90668656D01*
X89527363Y-90575101D01*
X89273750Y-90574880D01*
X89039357Y-90671729D01*
X88859869Y-90850904D01*
X88762611Y-91085127D01*
X88762530Y-91178208D01*
X86668194Y-93272544D01*
X84826603Y-93272544D01*
X84761586Y-93207413D01*
X84527363Y-93110155D01*
X84273750Y-93109934D01*
X84039357Y-93206783D01*
X83859869Y-93385958D01*
X83762611Y-93620181D01*
X83762390Y-93873794D01*
X78502757Y-93873794D01*
X77253191Y-92624228D01*
X77126666Y-92539687D01*
X77101904Y-92534761D01*
X76977419Y-92509999D01*
X76977414Y-92510000D01*
X76611455Y-92510000D01*
X76539082Y-92437500D01*
X78859890Y-92437500D01*
X78956739Y-92671893D01*
X79135914Y-92851381D01*
X79370137Y-92948639D01*
X79623750Y-92948860D01*
X79858143Y-92852011D01*
X80037631Y-92672836D01*
X80134889Y-92438613D01*
X80135110Y-92185000D01*
X80038261Y-91950607D01*
X79859086Y-91771119D01*
X79624863Y-91673861D01*
X79371250Y-91673640D01*
X79136857Y-91770489D01*
X78957369Y-91949664D01*
X78860111Y-92183887D01*
X78859890Y-92437500D01*
X76539082Y-92437500D01*
X76461586Y-92359869D01*
X76227363Y-92262611D01*
X75973750Y-92262390D01*
X75739357Y-92359239D01*
X75559869Y-92538414D01*
X75462611Y-92772637D01*
X75462390Y-93026250D01*
X75559239Y-93260643D01*
X75738414Y-93440131D01*
X75972637Y-93537389D01*
X76226250Y-93537610D01*
X76460643Y-93440761D01*
X76611667Y-93290000D01*
X76815875Y-93290000D01*
X78798598Y-95272723D01*
X78589883Y-95358962D01*
X78410395Y-95538137D01*
X78313137Y-95772360D01*
X78312916Y-96025973D01*
X78409765Y-96260366D01*
X78448965Y-96299634D01*
X78410395Y-96338137D01*
X78361388Y-96456158D01*
X78360313Y-96450753D01*
X78275772Y-96324228D01*
X78275769Y-96324226D01*
X77375772Y-95424228D01*
X77354529Y-95410034D01*
X77249247Y-95339687D01*
X77224485Y-95334761D01*
X77100000Y-95309999D01*
X77099995Y-95310000D01*
X76061457Y-95310000D01*
X75911588Y-95159869D01*
X75677365Y-95062611D01*
X75423752Y-95062390D01*
X75189359Y-95159239D01*
X75009871Y-95338414D01*
X74912613Y-95572637D01*
X74912392Y-95826250D01*
X75009241Y-96060643D01*
X75188416Y-96240131D01*
X75422639Y-96337389D01*
X75676252Y-96337610D01*
X75910645Y-96240761D01*
X76061669Y-96090000D01*
X76126163Y-96090000D01*
X76112611Y-96122637D01*
X76112390Y-96376250D01*
X76209239Y-96610643D01*
X76388414Y-96790131D01*
X76622637Y-96887389D01*
X76836031Y-96887575D01*
X78624228Y-98675772D01*
X78750753Y-98760313D01*
X78775515Y-98765239D01*
X78900000Y-98790001D01*
X78900005Y-98790000D01*
X80246925Y-98790000D01*
X80212611Y-98872637D01*
X80212390Y-99126250D01*
X80309239Y-99360643D01*
X80488414Y-99540131D01*
X80511950Y-99549904D01*
X80489357Y-99559239D01*
X80309869Y-99738414D01*
X80212611Y-99972637D01*
X80212390Y-100226250D01*
X80309239Y-100460643D01*
X80487593Y-100639308D01*
X80439357Y-100659239D01*
X80259869Y-100838414D01*
X80162611Y-101072637D01*
X80162390Y-101326250D01*
X80259239Y-101560643D01*
X80438414Y-101740131D01*
X80672637Y-101837389D01*
X80862220Y-101837554D01*
X80862154Y-101913760D01*
X80959003Y-102148153D01*
X81138178Y-102327641D01*
X81372401Y-102424899D01*
X81626014Y-102425120D01*
X81860407Y-102328271D01*
X82039895Y-102149096D01*
X82137153Y-101914873D01*
X82137279Y-101769903D01*
X85717181Y-98190000D01*
X88497336Y-98190000D01*
X88463137Y-98272360D01*
X88462916Y-98525973D01*
X88559765Y-98760366D01*
X88738940Y-98939854D01*
X88973163Y-99037112D01*
X89226776Y-99037333D01*
X89461169Y-98940484D01*
X89525515Y-98876250D01*
X94162390Y-98876250D01*
X94259239Y-99110643D01*
X94438414Y-99290131D01*
X94672637Y-99387389D01*
X94926250Y-99387610D01*
X95160643Y-99290761D01*
X95340131Y-99111586D01*
X95437389Y-98877363D01*
X95437610Y-98623750D01*
X95340761Y-98389357D01*
X95161586Y-98209869D01*
X94927363Y-98112611D01*
X94673750Y-98112390D01*
X94439357Y-98209239D01*
X94259869Y-98388414D01*
X94162611Y-98622637D01*
X94162390Y-98876250D01*
X89525515Y-98876250D01*
X89640657Y-98761309D01*
X89737915Y-98527086D01*
X89738136Y-98273473D01*
X89700052Y-98181302D01*
X89780808Y-98165239D01*
X89805570Y-98160313D01*
X89932095Y-98075772D01*
X90562591Y-97445276D01*
X90562390Y-97676250D01*
X90659239Y-97910643D01*
X90838414Y-98090131D01*
X91072637Y-98187389D01*
X91326250Y-98187610D01*
X91560643Y-98090761D01*
X91740131Y-97911586D01*
X91837389Y-97677363D01*
X91837610Y-97423750D01*
X91740761Y-97189357D01*
X91561586Y-97009869D01*
X91327363Y-96912611D01*
X91095458Y-96912409D01*
X91437790Y-96570077D01*
X94184839Y-96570077D01*
X94163129Y-96622360D01*
X94162908Y-96875973D01*
X94259757Y-97110366D01*
X94438932Y-97289854D01*
X94673155Y-97387112D01*
X94926768Y-97387333D01*
X95161161Y-97290484D01*
X95340649Y-97111309D01*
X95437907Y-96877086D01*
X95438128Y-96623473D01*
X95416065Y-96570077D01*
X96405198Y-96570077D01*
X96362611Y-96672637D01*
X96362390Y-96926250D01*
X96459239Y-97160643D01*
X96638414Y-97340131D01*
X96872637Y-97437389D01*
X97126250Y-97437610D01*
X97360643Y-97340761D01*
X97540131Y-97161586D01*
X97637389Y-96927363D01*
X97637610Y-96673750D01*
X97594773Y-96570077D01*
X97856467Y-96570077D01*
X98685512Y-97399122D01*
X98685327Y-97611253D01*
X98782176Y-97845646D01*
X98961351Y-98025134D01*
X99195574Y-98122392D01*
X99449187Y-98122613D01*
X99575435Y-98070449D01*
X99575435Y-100924096D01*
X99427363Y-100862611D01*
X99173750Y-100862390D01*
X98939357Y-100959239D01*
X98759869Y-101138414D01*
X98662611Y-101372637D01*
X98662390Y-101626250D01*
X98759239Y-101860643D01*
X98798439Y-101899911D01*
X98759869Y-101938414D01*
X98662611Y-102172637D01*
X98662390Y-102426250D01*
X98759239Y-102660643D01*
X98938414Y-102840131D01*
X99172637Y-102937389D01*
X99426250Y-102937610D01*
X99575435Y-102875968D01*
X99575435Y-103924096D01*
X99427363Y-103862611D01*
X99173750Y-103862390D01*
X98939357Y-103959239D01*
X98759869Y-104138414D01*
X98662611Y-104372637D01*
X98662390Y-104626250D01*
X98759239Y-104860643D01*
X98938414Y-105040131D01*
X99172637Y-105137389D01*
X99426250Y-105137610D01*
X99575435Y-105075968D01*
X99575435Y-106282572D01*
X99527363Y-106262611D01*
X99273750Y-106262390D01*
X99039357Y-106359239D01*
X98859869Y-106538414D01*
X98762611Y-106772637D01*
X98762390Y-107026250D01*
X98859239Y-107260643D01*
X99038414Y-107440131D01*
X99272637Y-107537389D01*
X99526250Y-107537610D01*
X99575435Y-107517287D01*
X99575435Y-110182572D01*
X99527363Y-110162611D01*
X99273750Y-110162390D01*
X99039357Y-110259239D01*
X98859869Y-110438414D01*
X98762611Y-110672637D01*
X98762390Y-110926250D01*
X98859239Y-111160643D01*
X99038414Y-111340131D01*
X99272637Y-111437389D01*
X99526250Y-111437610D01*
X99575435Y-111417287D01*
X99575435Y-118153334D01*
X99477363Y-118112611D01*
X99223750Y-118112390D01*
X98989357Y-118209239D01*
X98809869Y-118388414D01*
X98712611Y-118622637D01*
X98712390Y-118876250D01*
X98809239Y-119110643D01*
X98988414Y-119290131D01*
X99222637Y-119387389D01*
X99476250Y-119387610D01*
X99575435Y-119346628D01*
X99575435Y-121344284D01*
X99490761Y-121139357D01*
X99311586Y-120959869D01*
X99077363Y-120862611D01*
X98823750Y-120862390D01*
X98589357Y-120959239D01*
X98438333Y-121110000D01*
X96451762Y-121110000D01*
X96552609Y-121009329D01*
X96649867Y-120775106D01*
X96650088Y-120521493D01*
X96553239Y-120287100D01*
X96533892Y-120267719D01*
X96590131Y-120211578D01*
X96687389Y-119977355D01*
X96687610Y-119723742D01*
X96590761Y-119489349D01*
X96534603Y-119433093D01*
X96591219Y-119376575D01*
X96688477Y-119142352D01*
X96688698Y-118888739D01*
X96591849Y-118654346D01*
X96412674Y-118474858D01*
X96178451Y-118377600D01*
X96065552Y-118377502D01*
X97158375Y-117284679D01*
X97261342Y-117130578D01*
X97297499Y-116948803D01*
X97297499Y-113976157D01*
X97297500Y-113976152D01*
X97261343Y-113794378D01*
X97191170Y-113689357D01*
X97158375Y-113640276D01*
X97158372Y-113640274D01*
X96887777Y-113369678D01*
X96887857Y-113277650D01*
X96791008Y-113043257D01*
X96611833Y-112863769D01*
X96377610Y-112766511D01*
X96123997Y-112766290D01*
X95889604Y-112863139D01*
X95710116Y-113042314D01*
X95612858Y-113276537D01*
X95612761Y-113388253D01*
X92986752Y-113388253D01*
X92986747Y-113388252D01*
X92804973Y-113424409D01*
X92753839Y-113458576D01*
X92650871Y-113527377D01*
X92650869Y-113527380D01*
X92064124Y-114114124D01*
X91961157Y-114268225D01*
X91925000Y-114450000D01*
X91925000Y-118803248D01*
X90385876Y-117264124D01*
X90231775Y-117161157D01*
X90050000Y-117125000D01*
X86846753Y-117125000D01*
X86085889Y-116364136D01*
X86153100Y-116377505D01*
X89857996Y-116377505D01*
X89858001Y-116377506D01*
X89988742Y-116351499D01*
X90007248Y-116347818D01*
X90133773Y-116263277D01*
X90133774Y-116263276D01*
X90475769Y-115921280D01*
X90475772Y-115921278D01*
X90560313Y-115794753D01*
X90560314Y-115794752D01*
X90590001Y-115645506D01*
X90590000Y-115645501D01*
X90590000Y-115128668D01*
X93392413Y-112326254D01*
X95162390Y-112326254D01*
X95259239Y-112560647D01*
X95438414Y-112740135D01*
X95672637Y-112837393D01*
X95926250Y-112837614D01*
X96160643Y-112740765D01*
X96340131Y-112561590D01*
X96437389Y-112327367D01*
X96437610Y-112073754D01*
X96340761Y-111839361D01*
X96161586Y-111659873D01*
X95927363Y-111562615D01*
X95673750Y-111562394D01*
X95439357Y-111659243D01*
X95259869Y-111838418D01*
X95162611Y-112072641D01*
X95162390Y-112326254D01*
X93392413Y-112326254D01*
X94773464Y-110945203D01*
X94985596Y-110945388D01*
X95219989Y-110848539D01*
X95350433Y-110718322D01*
X95409239Y-110860643D01*
X95588414Y-111040131D01*
X95822637Y-111137389D01*
X96076250Y-111137610D01*
X96310643Y-111040761D01*
X96490131Y-110861586D01*
X96587389Y-110627363D01*
X96587610Y-110373750D01*
X96490761Y-110139357D01*
X96311586Y-109959869D01*
X96077363Y-109862611D01*
X95823750Y-109862390D01*
X95589357Y-109959239D01*
X95458913Y-110089456D01*
X95400107Y-109947135D01*
X95321869Y-109868761D01*
X95510643Y-109790761D01*
X95690131Y-109611586D01*
X95787389Y-109377363D01*
X95787610Y-109123750D01*
X95690761Y-108889357D01*
X95626561Y-108825045D01*
X95690131Y-108761586D01*
X95787389Y-108527363D01*
X95787393Y-108522754D01*
X95822637Y-108537389D01*
X95915718Y-108537470D01*
X96755809Y-109377560D01*
X96755809Y-111775524D01*
X96690678Y-111840541D01*
X96593420Y-112074764D01*
X96593199Y-112328377D01*
X96690048Y-112562770D01*
X96869223Y-112742258D01*
X97103446Y-112839516D01*
X97357059Y-112839737D01*
X97591452Y-112742888D01*
X97770940Y-112563713D01*
X97868198Y-112329490D01*
X97868419Y-112075877D01*
X97771570Y-111841484D01*
X97705809Y-111775608D01*
X97705809Y-109180809D01*
X97669652Y-108999034D01*
X97566685Y-108844933D01*
X97566682Y-108844931D01*
X97205823Y-108484072D01*
X97310643Y-108440761D01*
X97490131Y-108261586D01*
X97587389Y-108027363D01*
X97587610Y-107773750D01*
X97490761Y-107539357D01*
X97426561Y-107475045D01*
X97490131Y-107411586D01*
X97587389Y-107177363D01*
X97587610Y-106923750D01*
X97490761Y-106689357D01*
X97311586Y-106509869D01*
X97077363Y-106412611D01*
X96823750Y-106412390D01*
X96589357Y-106509239D01*
X96438333Y-106660000D01*
X95514991Y-106660000D01*
X95515110Y-106523750D01*
X95418261Y-106289357D01*
X95290290Y-106161162D01*
X95440127Y-106011586D01*
X95537385Y-105777363D01*
X95537606Y-105523750D01*
X95440757Y-105289357D01*
X95326559Y-105174960D01*
X95440131Y-105061586D01*
X95537389Y-104827363D01*
X95537610Y-104573750D01*
X95518500Y-104527501D01*
X96412476Y-104527501D01*
X96412390Y-104626250D01*
X96509239Y-104860643D01*
X96688414Y-105040131D01*
X96922637Y-105137389D01*
X97176250Y-105137610D01*
X97410643Y-105040761D01*
X97590131Y-104861586D01*
X97687389Y-104627363D01*
X97687610Y-104373750D01*
X97597029Y-104154526D01*
X97690131Y-104061586D01*
X97787389Y-103827363D01*
X97787610Y-103573750D01*
X97690761Y-103339357D01*
X97511586Y-103159869D01*
X97277363Y-103062611D01*
X97023750Y-103062390D01*
X96789357Y-103159239D01*
X96638333Y-103310000D01*
X94694362Y-103310000D01*
X94545115Y-103339687D01*
X94437510Y-103411586D01*
X94418590Y-103424228D01*
X93344209Y-104498609D01*
X93259668Y-104625134D01*
X93256839Y-104639357D01*
X93229980Y-104774381D01*
X93229981Y-104774386D01*
X93229980Y-105255285D01*
X93140761Y-105039357D01*
X92961586Y-104859869D01*
X92727363Y-104762611D01*
X92473750Y-104762390D01*
X92239357Y-104859239D01*
X92059869Y-105038414D01*
X91962611Y-105272637D01*
X91962390Y-105526250D01*
X92059239Y-105760643D01*
X92238414Y-105940131D01*
X92472637Y-106037389D01*
X92726250Y-106037610D01*
X92733381Y-106034663D01*
X91510330Y-107257714D01*
X91440761Y-107089345D01*
X91261586Y-106909857D01*
X91027363Y-106812599D01*
X90773750Y-106812378D01*
X90539357Y-106909227D01*
X90359869Y-107088402D01*
X90307011Y-107215699D01*
X90241867Y-107172171D01*
X90200065Y-107163856D01*
X90092620Y-107142483D01*
X90092615Y-107142484D01*
X83944026Y-107142483D01*
X83743989Y-106942446D01*
X83972637Y-107037389D01*
X84226250Y-107037610D01*
X84460643Y-106940761D01*
X84640131Y-106761586D01*
X84737389Y-106527363D01*
X84737610Y-106273750D01*
X84640761Y-106039357D01*
X84461586Y-105859869D01*
X84227363Y-105762611D01*
X83973750Y-105762390D01*
X83739357Y-105859239D01*
X83559869Y-106038414D01*
X83462611Y-106272637D01*
X83462390Y-106526250D01*
X83557164Y-106755620D01*
X82188271Y-105386727D01*
X82184853Y-105384443D01*
X82061746Y-105302186D01*
X82036984Y-105297260D01*
X81987555Y-105287428D01*
X81987610Y-105223750D01*
X81947324Y-105126250D01*
X83762390Y-105126250D01*
X83859239Y-105360643D01*
X84038414Y-105540131D01*
X84272637Y-105637389D01*
X84526250Y-105637610D01*
X84760643Y-105540761D01*
X84940131Y-105361586D01*
X85037389Y-105127363D01*
X85037610Y-104873750D01*
X84940761Y-104639357D01*
X84761586Y-104459869D01*
X84527363Y-104362611D01*
X84273750Y-104362390D01*
X84039357Y-104459239D01*
X83859869Y-104638414D01*
X83762611Y-104872637D01*
X83762390Y-105126250D01*
X81947324Y-105126250D01*
X81890761Y-104989357D01*
X81711586Y-104809869D01*
X81477363Y-104712611D01*
X81223750Y-104712390D01*
X80989357Y-104809239D01*
X80809869Y-104988414D01*
X80712611Y-105222637D01*
X80712390Y-105476250D01*
X80809239Y-105710643D01*
X80854689Y-105756172D01*
X80809869Y-105800914D01*
X80712611Y-106035137D01*
X80712390Y-106288750D01*
X80770979Y-106430546D01*
X80761729Y-106436727D01*
X80585881Y-106612575D01*
X80373750Y-106612390D01*
X80139357Y-106709239D01*
X79959869Y-106888414D01*
X79862611Y-107122637D01*
X79862390Y-107376250D01*
X79959239Y-107610643D01*
X80138414Y-107790131D01*
X80372637Y-107887389D01*
X80626250Y-107887610D01*
X80860643Y-107790761D01*
X80924955Y-107726561D01*
X80960000Y-107761667D01*
X80960000Y-108047918D01*
X80959999Y-108047923D01*
X80980454Y-108150754D01*
X80989687Y-108197170D01*
X81055894Y-108296256D01*
X81074228Y-108323695D01*
X81460534Y-108710000D01*
X80961543Y-108710000D01*
X80887425Y-108635882D01*
X80887610Y-108423750D01*
X80790761Y-108189357D01*
X80611586Y-108009869D01*
X80377363Y-107912611D01*
X80123750Y-107912390D01*
X79889357Y-108009239D01*
X79709869Y-108188414D01*
X79612611Y-108422637D01*
X79612390Y-108676250D01*
X79709239Y-108910643D01*
X79888414Y-109090131D01*
X80122637Y-109187389D01*
X80336032Y-109187575D01*
X80524226Y-109375769D01*
X80524228Y-109375772D01*
X80650753Y-109460313D01*
X80800000Y-109490000D01*
X83476163Y-109490000D01*
X83462611Y-109522637D01*
X83462390Y-109776250D01*
X83559239Y-110010643D01*
X83738414Y-110190131D01*
X83972637Y-110287389D01*
X84226250Y-110287610D01*
X84460643Y-110190761D01*
X84640131Y-110011586D01*
X84737389Y-109777363D01*
X84737610Y-109523750D01*
X84723665Y-109490000D01*
X88257951Y-109490000D01*
X88451509Y-109683558D01*
X88389357Y-109709239D01*
X88209869Y-109888414D01*
X88112611Y-110122637D01*
X88112390Y-110376250D01*
X88209239Y-110610643D01*
X88388414Y-110790131D01*
X88508432Y-110839967D01*
X84770038Y-110839967D01*
X84770033Y-110839966D01*
X84648587Y-110864124D01*
X84620786Y-110869654D01*
X84507442Y-110945388D01*
X84494261Y-110954195D01*
X84438456Y-111010000D01*
X84211543Y-111010000D01*
X83688271Y-110486727D01*
X83672591Y-110476250D01*
X83561746Y-110402186D01*
X83536984Y-110397260D01*
X83465046Y-110382951D01*
X83465098Y-110323750D01*
X83368249Y-110089357D01*
X83189074Y-109909869D01*
X82954851Y-109812611D01*
X82701238Y-109812390D01*
X82572292Y-109865669D01*
X82540761Y-109789357D01*
X82361586Y-109609869D01*
X82127363Y-109512611D01*
X81873750Y-109512390D01*
X81639357Y-109609239D01*
X81459869Y-109788414D01*
X81362611Y-110022637D01*
X81362390Y-110276250D01*
X81459239Y-110510643D01*
X81638414Y-110690131D01*
X81872637Y-110787389D01*
X82126250Y-110787610D01*
X82255196Y-110734331D01*
X82286727Y-110810643D01*
X82465902Y-110990131D01*
X82700125Y-111087389D01*
X82938036Y-111087596D01*
X82990740Y-111122812D01*
X83001740Y-111125000D01*
X82426603Y-111125000D01*
X82361586Y-111059869D01*
X82127363Y-110962611D01*
X81873750Y-110962390D01*
X81639357Y-111059239D01*
X81459869Y-111238414D01*
X81362611Y-111472637D01*
X81362390Y-111726250D01*
X81459239Y-111960643D01*
X81638414Y-112140131D01*
X81872637Y-112237389D01*
X82126250Y-112237610D01*
X82360643Y-112140761D01*
X82426519Y-112075000D01*
X83073400Y-112075000D01*
X83009875Y-112138414D01*
X82912617Y-112372637D01*
X82912396Y-112626250D01*
X82983438Y-112798185D01*
X82777363Y-112712615D01*
X82523750Y-112712394D01*
X82289357Y-112809243D01*
X82124872Y-112973441D01*
X81961586Y-112809869D01*
X81727363Y-112712611D01*
X81473750Y-112712390D01*
X81239357Y-112809239D01*
X81059869Y-112988414D01*
X80962611Y-113222637D01*
X80962390Y-113476250D01*
X81059239Y-113710643D01*
X81238414Y-113890131D01*
X81472637Y-113987389D01*
X81686031Y-113987575D01*
X82574228Y-114875772D01*
X82700753Y-114960313D01*
X82725515Y-114965239D01*
X82850000Y-114990001D01*
X82850005Y-114990000D01*
X84009210Y-114990000D01*
X83912611Y-115222637D01*
X83912390Y-115476250D01*
X84009239Y-115710643D01*
X84188414Y-115890131D01*
X84422637Y-115987389D01*
X84462555Y-115987424D01*
X84462390Y-116176249D01*
X84559239Y-116410642D01*
X84738414Y-116590130D01*
X84972637Y-116687388D01*
X85065719Y-116687469D01*
X85076621Y-116698371D01*
X85076623Y-116698374D01*
X86314125Y-117935876D01*
X86468226Y-118038843D01*
X86650001Y-118075000D01*
X87158530Y-118075000D01*
X86979211Y-118149093D01*
X86799723Y-118328268D01*
X86709086Y-118546545D01*
X86627363Y-118512611D01*
X86373750Y-118512390D01*
X86287524Y-118548018D01*
X86287610Y-118448819D01*
X86190761Y-118214426D01*
X86011586Y-118034938D01*
X85777363Y-117937680D01*
X85523750Y-117937459D01*
X85289357Y-118034308D01*
X85109869Y-118213483D01*
X85012611Y-118447706D01*
X85012390Y-118701319D01*
X85109239Y-118935712D01*
X85288414Y-119115200D01*
X85522637Y-119212458D01*
X85776250Y-119212679D01*
X85862476Y-119177051D01*
X85862390Y-119276250D01*
X85959239Y-119510643D01*
X86138414Y-119690131D01*
X86372637Y-119787389D01*
X86626250Y-119787610D01*
X86860643Y-119690761D01*
X87040131Y-119511586D01*
X87130768Y-119293309D01*
X87212491Y-119327243D01*
X87466104Y-119327464D01*
X87700497Y-119230615D01*
X87879985Y-119051440D01*
X87977243Y-118817217D01*
X87977464Y-118563604D01*
X87880615Y-118329211D01*
X87701440Y-118149723D01*
X87521487Y-118075000D01*
X89853248Y-118075000D01*
X91540827Y-119762579D01*
X91323750Y-119762390D01*
X91089357Y-119859239D01*
X90909869Y-120038414D01*
X90836605Y-120214853D01*
X90698375Y-120076623D01*
X90698372Y-120076621D01*
X90687530Y-120065779D01*
X90687610Y-119973750D01*
X90590761Y-119739357D01*
X90411586Y-119559869D01*
X90177363Y-119462611D01*
X89923750Y-119462390D01*
X89689357Y-119559239D01*
X89509869Y-119738414D01*
X89490677Y-119784635D01*
X89349977Y-119643935D01*
X89323509Y-119626250D01*
X89223452Y-119559394D01*
X89198690Y-119554468D01*
X89074205Y-119529706D01*
X89074200Y-119529707D01*
X88592004Y-119529707D01*
X88591999Y-119529706D01*
X88442753Y-119559393D01*
X88416274Y-119577086D01*
X88316227Y-119643935D01*
X88316225Y-119643938D01*
X85600162Y-122360000D01*
X70961455Y-122360000D01*
X70811586Y-122209869D01*
X70577363Y-122112611D01*
X70323750Y-122112390D01*
X70089357Y-122209239D01*
X69909869Y-122388414D01*
X69812611Y-122622637D01*
X69812390Y-122876250D01*
X69909239Y-123110643D01*
X70088414Y-123290131D01*
X70322637Y-123387389D01*
X70576250Y-123387610D01*
X70810643Y-123290761D01*
X70961667Y-123140000D01*
X76685919Y-123140000D01*
X76639357Y-123159239D01*
X76459869Y-123338414D01*
X76362611Y-123572637D01*
X76362390Y-123826250D01*
X76459239Y-124060643D01*
X76545669Y-124147224D01*
X67444980Y-124147224D01*
X66859021Y-123561265D01*
X66799851Y-123521729D01*
X66727630Y-123473472D01*
X66572643Y-123442643D01*
X65520055Y-123442643D01*
X65440012Y-123458565D01*
X65390757Y-123339357D01*
X65211582Y-123159869D01*
X64977359Y-123062611D01*
X64723746Y-123062390D01*
X64489353Y-123159239D01*
X64309865Y-123338414D01*
X64212607Y-123572637D01*
X64212572Y-123612598D01*
X63973750Y-123612390D01*
X63739357Y-123709239D01*
X63559869Y-123888414D01*
X63462611Y-124122637D01*
X63462390Y-124376250D01*
X63544543Y-124575076D01*
X61105291Y-124575076D01*
X61187389Y-124377363D01*
X61187610Y-124123750D01*
X61090761Y-123889357D01*
X60911586Y-123709869D01*
X60677363Y-123612611D01*
X60423750Y-123612390D01*
X60189357Y-123709239D01*
X60009869Y-123888414D01*
X59912611Y-124122637D01*
X59912390Y-124376250D01*
X59994543Y-124575076D01*
X50425435Y-124575076D01*
X50425435Y-122708018D01*
X51450253Y-122708018D01*
X51609769Y-123094076D01*
X51904881Y-123389704D01*
X52290661Y-123549894D01*
X52708377Y-123550258D01*
X53094435Y-123390742D01*
X53390063Y-123095630D01*
X53550253Y-122709850D01*
X53550617Y-122292134D01*
X53391101Y-121906076D01*
X53161400Y-121675973D01*
X76362916Y-121675973D01*
X76459765Y-121910366D01*
X76638940Y-122089854D01*
X76873163Y-122187112D01*
X77126776Y-122187333D01*
X77361169Y-122090484D01*
X77540657Y-121911309D01*
X77637915Y-121677086D01*
X77638136Y-121423473D01*
X77541287Y-121189080D01*
X77503247Y-121150973D01*
X80762916Y-121150973D01*
X80859765Y-121385366D01*
X81038940Y-121564854D01*
X81273163Y-121662112D01*
X81526776Y-121662333D01*
X81761169Y-121565484D01*
X81940657Y-121386309D01*
X82037915Y-121152086D01*
X82037915Y-121150973D01*
X83862916Y-121150973D01*
X83959765Y-121385366D01*
X84138940Y-121564854D01*
X84373163Y-121662112D01*
X84626776Y-121662333D01*
X84861169Y-121565484D01*
X85040657Y-121386309D01*
X85137915Y-121152086D01*
X85138136Y-120898473D01*
X85041287Y-120664080D01*
X84862112Y-120484592D01*
X84627889Y-120387334D01*
X84374276Y-120387113D01*
X84139883Y-120483962D01*
X83960395Y-120663137D01*
X83863137Y-120897360D01*
X83862916Y-121150973D01*
X82037915Y-121150973D01*
X82038136Y-120898473D01*
X81941287Y-120664080D01*
X81762112Y-120484592D01*
X81527889Y-120387334D01*
X81274276Y-120387113D01*
X81039883Y-120483962D01*
X80860395Y-120663137D01*
X80763137Y-120897360D01*
X80762916Y-121150973D01*
X77503247Y-121150973D01*
X77362112Y-121009592D01*
X77127889Y-120912334D01*
X76874276Y-120912113D01*
X76639883Y-121008962D01*
X76460395Y-121188137D01*
X76363137Y-121422360D01*
X76362916Y-121675973D01*
X53161400Y-121675973D01*
X53095989Y-121610448D01*
X52710209Y-121450258D01*
X52292493Y-121449894D01*
X51906435Y-121609410D01*
X51610807Y-121904522D01*
X51450617Y-122290302D01*
X51450253Y-122708018D01*
X50425435Y-122708018D01*
X50425435Y-121255503D01*
X50622637Y-121337389D01*
X50876250Y-121337610D01*
X51110643Y-121240761D01*
X51290131Y-121061586D01*
X51387389Y-120827363D01*
X51387610Y-120573750D01*
X51367986Y-120526254D01*
X52212390Y-120526254D01*
X52309239Y-120760647D01*
X52488414Y-120940135D01*
X52722637Y-121037393D01*
X52976250Y-121037614D01*
X53210643Y-120940765D01*
X53390131Y-120761590D01*
X53425567Y-120676250D01*
X53812390Y-120676250D01*
X53909239Y-120910643D01*
X54088414Y-121090131D01*
X54322637Y-121187389D01*
X54576250Y-121187610D01*
X54810643Y-121090761D01*
X54990131Y-120911586D01*
X55087389Y-120677363D01*
X55087511Y-120537489D01*
X55226250Y-120537610D01*
X55460643Y-120440761D01*
X55640131Y-120261586D01*
X55737389Y-120027363D01*
X55737610Y-119773750D01*
X55640761Y-119539357D01*
X55461586Y-119359869D01*
X55227363Y-119262611D01*
X54973750Y-119262390D01*
X54739357Y-119359239D01*
X54559869Y-119538414D01*
X54462611Y-119772637D01*
X54462489Y-119912511D01*
X54323750Y-119912390D01*
X54089357Y-120009239D01*
X53909869Y-120188414D01*
X53812611Y-120422637D01*
X53812390Y-120676250D01*
X53425567Y-120676250D01*
X53487389Y-120527367D01*
X53487610Y-120273754D01*
X53390761Y-120039361D01*
X53211586Y-119859873D01*
X52977363Y-119762615D01*
X52723750Y-119762394D01*
X52489357Y-119859243D01*
X52309869Y-120038418D01*
X52212611Y-120272641D01*
X52212390Y-120526254D01*
X51367986Y-120526254D01*
X51290761Y-120339357D01*
X51251561Y-120300089D01*
X51290131Y-120261586D01*
X51387389Y-120027363D01*
X51387610Y-119773750D01*
X51290761Y-119539357D01*
X51111586Y-119359869D01*
X50877363Y-119262611D01*
X50623750Y-119262390D01*
X50425435Y-119344332D01*
X50425435Y-118826265D01*
X50572637Y-118887389D01*
X50826250Y-118887610D01*
X51060643Y-118790761D01*
X51240131Y-118611586D01*
X51337389Y-118377363D01*
X51337610Y-118123750D01*
X51240761Y-117889357D01*
X51061586Y-117709869D01*
X50827363Y-117612611D01*
X50573750Y-117612390D01*
X50425435Y-117673672D01*
X50425435Y-117276265D01*
X50572637Y-117337389D01*
X50826250Y-117337610D01*
X51060643Y-117240761D01*
X51240131Y-117061586D01*
X51337389Y-116827363D01*
X51337610Y-116573750D01*
X51240761Y-116339357D01*
X51061586Y-116159869D01*
X50827363Y-116062611D01*
X50573750Y-116062390D01*
X50425435Y-116123672D01*
X50425435Y-114076265D01*
X50572637Y-114137389D01*
X50826250Y-114137610D01*
X51032706Y-114052304D01*
X52186379Y-114052304D01*
X52283228Y-114286697D01*
X52462403Y-114466185D01*
X52596822Y-114522001D01*
X52494428Y-114564309D01*
X52314940Y-114743484D01*
X52217682Y-114977707D01*
X52217461Y-115231320D01*
X52314310Y-115465713D01*
X52493485Y-115645201D01*
X52727708Y-115742459D01*
X52981321Y-115742680D01*
X53215714Y-115645831D01*
X53395202Y-115466656D01*
X53492460Y-115232433D01*
X53492681Y-114978820D01*
X53448801Y-114872623D01*
X53671813Y-114872817D01*
X53906206Y-114775968D01*
X54085694Y-114596793D01*
X54182952Y-114362570D01*
X54183173Y-114108957D01*
X54086324Y-113874564D01*
X53907149Y-113695076D01*
X53672926Y-113597818D01*
X53419313Y-113597597D01*
X53384066Y-113612161D01*
X53364750Y-113565411D01*
X53185575Y-113385923D01*
X52951352Y-113288665D01*
X52697739Y-113288444D01*
X52463346Y-113385293D01*
X52283858Y-113564468D01*
X52186600Y-113798691D01*
X52186379Y-114052304D01*
X51032706Y-114052304D01*
X51060643Y-114040761D01*
X51240131Y-113861586D01*
X51337389Y-113627363D01*
X51337610Y-113373750D01*
X51240761Y-113139357D01*
X51061586Y-112959869D01*
X50827363Y-112862611D01*
X50573750Y-112862390D01*
X50425435Y-112923672D01*
X50425435Y-111676265D01*
X50572637Y-111737389D01*
X50826250Y-111737610D01*
X51060643Y-111640761D01*
X51240131Y-111461586D01*
X51337389Y-111227363D01*
X51337610Y-110973750D01*
X51240761Y-110739357D01*
X51201564Y-110700092D01*
X51229024Y-110672680D01*
X51266432Y-110665239D01*
X51291194Y-110660313D01*
X51417719Y-110575772D01*
X51801500Y-110191990D01*
X51825772Y-110175772D01*
X52199044Y-109802499D01*
X52654020Y-109802499D01*
X52562611Y-110022637D01*
X52562390Y-110276250D01*
X52659239Y-110510643D01*
X52838414Y-110690131D01*
X53072637Y-110787389D01*
X53326250Y-110787610D01*
X53560643Y-110690761D01*
X53662537Y-110589045D01*
X53662374Y-110776250D01*
X53759223Y-111010643D01*
X53938398Y-111190131D01*
X54172621Y-111287389D01*
X54426234Y-111287610D01*
X54660627Y-111190761D01*
X54840115Y-111011586D01*
X54937373Y-110777363D01*
X54937594Y-110523750D01*
X54917968Y-110476250D01*
X57012390Y-110476250D01*
X57109239Y-110710643D01*
X57288414Y-110890131D01*
X57522637Y-110987389D01*
X57776250Y-110987610D01*
X58010643Y-110890761D01*
X58190131Y-110711586D01*
X58287389Y-110477363D01*
X58287610Y-110223750D01*
X58190761Y-109989357D01*
X58011586Y-109809869D01*
X57777363Y-109712611D01*
X57523750Y-109712390D01*
X57289357Y-109809239D01*
X57109869Y-109988414D01*
X57012611Y-110222637D01*
X57012390Y-110476250D01*
X54917968Y-110476250D01*
X54840745Y-110289357D01*
X54661570Y-110109869D01*
X54427347Y-110012611D01*
X54173734Y-110012390D01*
X53939341Y-110109239D01*
X53837447Y-110210955D01*
X53837610Y-110023750D01*
X53740761Y-109789357D01*
X53561586Y-109609869D01*
X53344370Y-109519673D01*
X53938268Y-108925774D01*
X53938271Y-108925772D01*
X54004769Y-108826250D01*
X54340358Y-108826250D01*
X54437207Y-109060643D01*
X54616382Y-109240131D01*
X54850605Y-109337389D01*
X55104218Y-109337610D01*
X55338611Y-109240761D01*
X55518099Y-109061586D01*
X55615357Y-108827363D01*
X55615578Y-108573750D01*
X55518729Y-108339357D01*
X55339554Y-108159869D01*
X55285864Y-108137575D01*
X55326246Y-108137610D01*
X55560639Y-108040761D01*
X55740127Y-107861586D01*
X55837385Y-107627363D01*
X55837606Y-107373750D01*
X55740757Y-107139357D01*
X55561582Y-106959869D01*
X55327359Y-106862611D01*
X55073746Y-106862390D01*
X54839353Y-106959239D01*
X54659865Y-107138414D01*
X54562607Y-107372637D01*
X54562386Y-107626250D01*
X54659235Y-107860643D01*
X54838410Y-108040131D01*
X54892100Y-108062425D01*
X54851718Y-108062390D01*
X54617325Y-108159239D01*
X54437837Y-108338414D01*
X54340579Y-108572637D01*
X54340358Y-108826250D01*
X54004769Y-108826250D01*
X54022812Y-108799247D01*
X54052499Y-108650000D01*
X54052499Y-107149045D01*
X54486767Y-106714776D01*
X57213232Y-106714776D01*
X57360000Y-106861544D01*
X57360000Y-108445497D01*
X57359999Y-108445502D01*
X57383119Y-108561729D01*
X57389687Y-108594749D01*
X57466694Y-108709999D01*
X57474228Y-108721274D01*
X58441223Y-109688268D01*
X58441225Y-109688271D01*
X58451957Y-109695442D01*
X58882287Y-110125772D01*
X59008812Y-110210313D01*
X59019249Y-110212389D01*
X59071322Y-110222747D01*
X59238414Y-110390131D01*
X59472637Y-110487389D01*
X59726250Y-110487610D01*
X59960643Y-110390761D01*
X60140131Y-110211586D01*
X60237389Y-109977363D01*
X60237610Y-109723750D01*
X60228829Y-109702499D01*
X61579743Y-109702499D01*
X61613622Y-109736378D01*
X61745013Y-109824171D01*
X61900000Y-109855000D01*
X63782244Y-109855000D01*
X64297190Y-110369946D01*
X64297190Y-111433539D01*
X64328019Y-111588526D01*
X64415812Y-111719917D01*
X65827384Y-113131488D01*
X65639883Y-113208962D01*
X65460395Y-113388137D01*
X65363137Y-113622360D01*
X65362916Y-113875973D01*
X65459765Y-114110366D01*
X65638940Y-114289854D01*
X65873163Y-114387112D01*
X66126776Y-114387333D01*
X66361169Y-114290484D01*
X66540657Y-114111309D01*
X66618863Y-113922967D01*
X67032274Y-114336378D01*
X67163665Y-114424171D01*
X67318652Y-114455000D01*
X68753519Y-114455000D01*
X68888414Y-114590131D01*
X69122637Y-114687389D01*
X69161034Y-114687422D01*
X69138456Y-114710000D01*
X66400000Y-114710000D01*
X66250753Y-114739687D01*
X66124228Y-114824228D01*
X66124226Y-114824231D01*
X65697501Y-115250955D01*
X65697501Y-115028307D01*
X65661344Y-114846532D01*
X65558377Y-114692431D01*
X65558374Y-114692429D01*
X64030070Y-113164124D01*
X63875969Y-113061157D01*
X63694194Y-113025000D01*
X63076603Y-113025000D01*
X63011586Y-112959869D01*
X62777363Y-112862611D01*
X62684281Y-112862530D01*
X62275000Y-112453248D01*
X62275000Y-111664129D01*
X62340131Y-111599112D01*
X62437389Y-111364889D01*
X62437610Y-111111276D01*
X62340761Y-110876883D01*
X62161586Y-110697395D01*
X61927363Y-110600137D01*
X61673750Y-110599916D01*
X61439357Y-110696765D01*
X61259869Y-110875940D01*
X61162611Y-111110163D01*
X61162390Y-111363776D01*
X61259239Y-111598169D01*
X61325000Y-111664045D01*
X61325000Y-112650000D01*
X61361157Y-112831775D01*
X61464124Y-112985876D01*
X62012470Y-113534222D01*
X62012390Y-113626250D01*
X62109239Y-113860643D01*
X62288414Y-114040131D01*
X62522637Y-114137389D01*
X62776250Y-114137610D01*
X63010643Y-114040761D01*
X63076519Y-113975000D01*
X63497442Y-113975000D01*
X63811524Y-114289081D01*
X63627363Y-114212611D01*
X63373750Y-114212390D01*
X63139357Y-114309239D01*
X62959869Y-114488414D01*
X62862611Y-114722637D01*
X62862530Y-114815718D01*
X60403683Y-117274565D01*
X56296316Y-117274565D01*
X55685512Y-116663760D01*
X57019066Y-116663760D01*
X57115915Y-116898153D01*
X57295090Y-117077641D01*
X57529313Y-117174899D01*
X57782926Y-117175120D01*
X58017319Y-117078271D01*
X58196807Y-116899096D01*
X58294065Y-116664873D01*
X58294158Y-116557576D01*
X58306575Y-116557576D01*
X58403424Y-116791969D01*
X58582599Y-116971457D01*
X58816822Y-117068715D01*
X59070435Y-117068936D01*
X59304828Y-116972087D01*
X59484316Y-116792912D01*
X59581574Y-116558689D01*
X59581574Y-116557576D01*
X59594075Y-116557576D01*
X59690924Y-116791969D01*
X59870099Y-116971457D01*
X60104322Y-117068715D01*
X60357935Y-117068936D01*
X60592328Y-116972087D01*
X60771816Y-116792912D01*
X60869074Y-116558689D01*
X60869295Y-116305076D01*
X60772446Y-116070683D01*
X60593271Y-115891195D01*
X60359048Y-115793937D01*
X60105435Y-115793716D01*
X59871042Y-115890565D01*
X59691554Y-116069740D01*
X59594296Y-116303963D01*
X59594075Y-116557576D01*
X59581574Y-116557576D01*
X59581795Y-116305076D01*
X59484946Y-116070683D01*
X59305771Y-115891195D01*
X59071548Y-115793937D01*
X58817935Y-115793716D01*
X58583542Y-115890565D01*
X58404054Y-116069740D01*
X58306796Y-116303963D01*
X58306575Y-116557576D01*
X58294158Y-116557576D01*
X58294286Y-116411260D01*
X58197437Y-116176867D01*
X58018262Y-115997379D01*
X57784039Y-115900121D01*
X57530426Y-115899900D01*
X57296033Y-115996749D01*
X57116545Y-116175924D01*
X57019287Y-116410147D01*
X57019066Y-116663760D01*
X55685512Y-116663760D01*
X55425000Y-116403248D01*
X55425000Y-115270076D01*
X57019075Y-115270076D01*
X57115924Y-115504469D01*
X57295099Y-115683957D01*
X57529322Y-115781215D01*
X57782935Y-115781436D01*
X58017328Y-115684587D01*
X58196816Y-115505412D01*
X58294074Y-115271189D01*
X58294074Y-115270076D01*
X58306575Y-115270076D01*
X58403424Y-115504469D01*
X58582599Y-115683957D01*
X58816822Y-115781215D01*
X59070435Y-115781436D01*
X59304828Y-115684587D01*
X59484316Y-115505412D01*
X59581574Y-115271189D01*
X59581574Y-115270076D01*
X59594075Y-115270076D01*
X59690924Y-115504469D01*
X59870099Y-115683957D01*
X60104322Y-115781215D01*
X60357935Y-115781436D01*
X60592328Y-115684587D01*
X60771816Y-115505412D01*
X60869074Y-115271189D01*
X60869295Y-115017576D01*
X60772446Y-114783183D01*
X60593271Y-114603695D01*
X60359048Y-114506437D01*
X60105435Y-114506216D01*
X59871042Y-114603065D01*
X59691554Y-114782240D01*
X59594296Y-115016463D01*
X59594075Y-115270076D01*
X59581574Y-115270076D01*
X59581795Y-115017576D01*
X59484946Y-114783183D01*
X59305771Y-114603695D01*
X59071548Y-114506437D01*
X58817935Y-114506216D01*
X58583542Y-114603065D01*
X58404054Y-114782240D01*
X58306796Y-115016463D01*
X58306575Y-115270076D01*
X58294074Y-115270076D01*
X58294295Y-115017576D01*
X58197446Y-114783183D01*
X58018271Y-114603695D01*
X57784048Y-114506437D01*
X57530435Y-114506216D01*
X57296042Y-114603065D01*
X57116554Y-114782240D01*
X57019296Y-115016463D01*
X57019075Y-115270076D01*
X55425000Y-115270076D01*
X55425000Y-113982576D01*
X57019075Y-113982576D01*
X57115924Y-114216969D01*
X57295099Y-114396457D01*
X57529322Y-114493715D01*
X57782935Y-114493936D01*
X58017328Y-114397087D01*
X58196816Y-114217912D01*
X58294074Y-113983689D01*
X58294074Y-113982576D01*
X58306575Y-113982576D01*
X58403424Y-114216969D01*
X58582599Y-114396457D01*
X58816822Y-114493715D01*
X59070435Y-114493936D01*
X59304828Y-114397087D01*
X59484316Y-114217912D01*
X59581574Y-113983689D01*
X59581795Y-113730076D01*
X59484946Y-113495683D01*
X59305771Y-113316195D01*
X59071548Y-113218937D01*
X58817935Y-113218716D01*
X58583542Y-113315565D01*
X58404054Y-113494740D01*
X58306796Y-113728963D01*
X58306575Y-113982576D01*
X58294074Y-113982576D01*
X58294295Y-113730076D01*
X58197446Y-113495683D01*
X58018271Y-113316195D01*
X57973286Y-113297516D01*
X58110643Y-113240761D01*
X58290131Y-113061586D01*
X58387389Y-112827363D01*
X58387610Y-112573750D01*
X58290761Y-112339357D01*
X58111586Y-112159869D01*
X57877363Y-112062611D01*
X57623750Y-112062390D01*
X57389357Y-112159239D01*
X57209869Y-112338414D01*
X57112611Y-112572637D01*
X57112390Y-112826250D01*
X57209239Y-113060643D01*
X57388414Y-113240131D01*
X57433399Y-113258810D01*
X57296042Y-113315565D01*
X57116554Y-113494740D01*
X57019296Y-113728963D01*
X57019075Y-113982576D01*
X55425000Y-113982576D01*
X55425000Y-113069966D01*
X55425001Y-113069961D01*
X55388843Y-112888187D01*
X55388843Y-112888186D01*
X55285876Y-112734085D01*
X55285873Y-112734083D01*
X53801191Y-111249400D01*
X53647090Y-111146433D01*
X53465315Y-111110276D01*
X53375637Y-111110276D01*
X53310620Y-111045145D01*
X53076397Y-110947887D01*
X52822784Y-110947666D01*
X52588391Y-111044515D01*
X52408903Y-111223690D01*
X52311645Y-111457913D01*
X52311424Y-111711526D01*
X52408273Y-111945919D01*
X52542460Y-112080340D01*
X52462611Y-112272637D01*
X52462390Y-112526250D01*
X52559239Y-112760643D01*
X52738414Y-112940131D01*
X52972637Y-113037389D01*
X53189138Y-113037578D01*
X53255486Y-113198153D01*
X53434661Y-113377641D01*
X53668884Y-113474899D01*
X53922497Y-113475120D01*
X54156890Y-113378271D01*
X54336378Y-113199096D01*
X54357211Y-113148924D01*
X54475000Y-113266712D01*
X54475000Y-115309620D01*
X54414093Y-115248607D01*
X54179870Y-115151349D01*
X53926257Y-115151128D01*
X53691864Y-115247977D01*
X53512376Y-115427152D01*
X53415118Y-115661375D01*
X53414897Y-115914988D01*
X53501672Y-116125000D01*
X53474147Y-116125000D01*
X53409130Y-116059869D01*
X53174907Y-115962611D01*
X52921294Y-115962390D01*
X52686901Y-116059239D01*
X52507413Y-116238414D01*
X52410155Y-116472637D01*
X52409934Y-116726250D01*
X52506783Y-116960643D01*
X52685958Y-117140131D01*
X52920181Y-117237389D01*
X53173794Y-117237610D01*
X53408187Y-117140761D01*
X53474063Y-117075000D01*
X54265733Y-117075000D01*
X54061859Y-117159239D01*
X53882371Y-117338414D01*
X53785113Y-117572637D01*
X53785078Y-117612574D01*
X53573752Y-117612390D01*
X53339359Y-117709239D01*
X53159871Y-117888414D01*
X53062613Y-118122637D01*
X53062491Y-118262511D01*
X52923750Y-118262390D01*
X52689357Y-118359239D01*
X52509869Y-118538414D01*
X52412611Y-118772637D01*
X52412390Y-119026250D01*
X52509239Y-119260643D01*
X52688414Y-119440131D01*
X52922637Y-119537389D01*
X53176250Y-119537610D01*
X53410643Y-119440761D01*
X53590131Y-119261586D01*
X53650933Y-119115157D01*
X58187187Y-119115157D01*
X58284036Y-119349550D01*
X58463211Y-119529038D01*
X58697434Y-119626296D01*
X58951047Y-119626517D01*
X59185440Y-119529668D01*
X59364928Y-119350493D01*
X59462186Y-119116270D01*
X59462407Y-118862657D01*
X59365558Y-118628264D01*
X59186383Y-118448776D01*
X58952160Y-118351518D01*
X58698547Y-118351297D01*
X58464154Y-118448146D01*
X58284666Y-118627321D01*
X58187408Y-118861544D01*
X58187187Y-119115157D01*
X53650933Y-119115157D01*
X53687389Y-119027363D01*
X53687511Y-118887489D01*
X53826252Y-118887610D01*
X54060645Y-118790761D01*
X54240133Y-118611586D01*
X54337391Y-118377363D01*
X54337426Y-118337426D01*
X54548752Y-118337610D01*
X54783145Y-118240761D01*
X54962633Y-118061586D01*
X55059891Y-117827363D01*
X55060112Y-117573750D01*
X54963263Y-117339357D01*
X54784088Y-117159869D01*
X54579701Y-117075000D01*
X54753248Y-117075000D01*
X55763687Y-118085438D01*
X55763689Y-118085441D01*
X55917790Y-118188408D01*
X56099565Y-118224565D01*
X60125435Y-118224565D01*
X60125435Y-119123473D01*
X60060304Y-119188490D01*
X59963046Y-119422713D01*
X59962825Y-119676326D01*
X59971606Y-119697577D01*
X59164938Y-119697577D01*
X59164933Y-119697576D01*
X59013317Y-119727735D01*
X58983158Y-119733734D01*
X58829057Y-119836701D01*
X58829055Y-119836704D01*
X58426623Y-120239135D01*
X58426621Y-120239138D01*
X58415779Y-120249980D01*
X58323750Y-120249900D01*
X58089357Y-120346749D01*
X57992462Y-120443475D01*
X57990761Y-120439357D01*
X57901605Y-120350045D01*
X57940131Y-120311586D01*
X58037389Y-120077363D01*
X58037610Y-119823750D01*
X57940761Y-119589357D01*
X57761586Y-119409869D01*
X57527363Y-119312611D01*
X57273750Y-119312390D01*
X57039357Y-119409239D01*
X56859869Y-119588414D01*
X56762611Y-119822637D01*
X56762390Y-120076250D01*
X56859239Y-120310643D01*
X56948395Y-120399955D01*
X56909869Y-120438414D01*
X56812611Y-120672637D01*
X56812390Y-120926250D01*
X56909239Y-121160643D01*
X57088414Y-121340131D01*
X57322637Y-121437389D01*
X57576250Y-121437610D01*
X57810643Y-121340761D01*
X57907538Y-121244035D01*
X57909239Y-121248153D01*
X58088414Y-121427641D01*
X58322637Y-121524899D01*
X58576250Y-121525120D01*
X58810643Y-121428271D01*
X58990131Y-121249096D01*
X59087389Y-121014873D01*
X59087470Y-120921791D01*
X59098372Y-120910889D01*
X59098375Y-120910887D01*
X59361684Y-120647577D01*
X60035302Y-120647577D01*
X59962611Y-120822637D01*
X59962390Y-121076250D01*
X60059239Y-121310643D01*
X60238414Y-121490131D01*
X60472637Y-121587389D01*
X60726250Y-121587610D01*
X60960643Y-121490761D01*
X61140131Y-121311586D01*
X61237389Y-121077363D01*
X61237610Y-120823750D01*
X61164817Y-120647577D01*
X62869180Y-120647577D01*
X63050955Y-120611420D01*
X63205056Y-120508453D01*
X63205057Y-120508452D01*
X64474030Y-119239478D01*
X64474033Y-119239476D01*
X64577000Y-119085375D01*
X64613157Y-118903600D01*
X64613157Y-118464568D01*
X64788414Y-118640131D01*
X65022637Y-118737389D01*
X65276250Y-118737610D01*
X65460669Y-118661410D01*
X65715790Y-118916530D01*
X65612427Y-118959239D01*
X65432939Y-119138414D01*
X65335681Y-119372637D01*
X65335460Y-119626250D01*
X65432309Y-119860643D01*
X65611484Y-120040131D01*
X65845707Y-120137389D01*
X66099320Y-120137610D01*
X66333713Y-120040761D01*
X66411872Y-119962739D01*
X66438940Y-119989854D01*
X66673163Y-120087112D01*
X66926776Y-120087333D01*
X67161169Y-119990484D01*
X67225792Y-119925973D01*
X76362916Y-119925973D01*
X76459765Y-120160366D01*
X76638940Y-120339854D01*
X76873163Y-120437112D01*
X77126776Y-120437333D01*
X77361169Y-120340484D01*
X77540657Y-120161309D01*
X77637915Y-119927086D01*
X77638136Y-119673473D01*
X77541287Y-119439080D01*
X77362112Y-119259592D01*
X77127889Y-119162334D01*
X76874276Y-119162113D01*
X76639883Y-119258962D01*
X76460395Y-119438137D01*
X76363137Y-119672360D01*
X76362916Y-119925973D01*
X67225792Y-119925973D01*
X67340657Y-119811309D01*
X67437915Y-119577086D01*
X67438136Y-119323473D01*
X67341287Y-119089080D01*
X67162112Y-118909592D01*
X66961403Y-118826250D01*
X73162390Y-118826250D01*
X73259239Y-119060643D01*
X73438414Y-119240131D01*
X73672637Y-119337389D01*
X73926250Y-119337610D01*
X74160643Y-119240761D01*
X74340131Y-119061586D01*
X74437389Y-118827363D01*
X74437389Y-118826250D01*
X75162390Y-118826250D01*
X75259239Y-119060643D01*
X75438414Y-119240131D01*
X75672637Y-119337389D01*
X75926250Y-119337610D01*
X76160643Y-119240761D01*
X76340131Y-119061586D01*
X76437389Y-118827363D01*
X76437610Y-118573750D01*
X76417984Y-118526250D01*
X79662380Y-118526250D01*
X79759229Y-118760643D01*
X79938404Y-118940131D01*
X80172627Y-119037389D01*
X80426240Y-119037610D01*
X80660633Y-118940761D01*
X80840121Y-118761586D01*
X80937379Y-118527363D01*
X80937600Y-118273750D01*
X80840751Y-118039357D01*
X80661576Y-117859869D01*
X80427353Y-117762611D01*
X80173740Y-117762390D01*
X79939347Y-117859239D01*
X79759859Y-118038414D01*
X79662601Y-118272637D01*
X79662380Y-118526250D01*
X76417984Y-118526250D01*
X76340761Y-118339357D01*
X76161586Y-118159869D01*
X75927363Y-118062611D01*
X75673750Y-118062390D01*
X75439357Y-118159239D01*
X75259869Y-118338414D01*
X75162611Y-118572637D01*
X75162390Y-118826250D01*
X74437389Y-118826250D01*
X74437610Y-118573750D01*
X74340761Y-118339357D01*
X74161586Y-118159869D01*
X73927363Y-118062611D01*
X73673750Y-118062390D01*
X73439357Y-118159239D01*
X73259869Y-118338414D01*
X73162611Y-118572637D01*
X73162390Y-118826250D01*
X66961403Y-118826250D01*
X66927889Y-118812334D01*
X66714494Y-118812148D01*
X66102499Y-118200152D01*
X66102499Y-117426250D01*
X71712390Y-117426250D01*
X71809239Y-117660643D01*
X71988414Y-117840131D01*
X72222637Y-117937389D01*
X72476250Y-117937610D01*
X72710643Y-117840761D01*
X72774955Y-117776561D01*
X72838414Y-117840131D01*
X73072637Y-117937389D01*
X73326250Y-117937610D01*
X73560643Y-117840761D01*
X73740131Y-117661586D01*
X73754803Y-117626250D01*
X73962390Y-117626250D01*
X74059239Y-117860643D01*
X74238414Y-118040131D01*
X74472637Y-118137389D01*
X74726250Y-118137610D01*
X74960643Y-118040761D01*
X75140131Y-117861586D01*
X75237389Y-117627363D01*
X75237610Y-117373750D01*
X75140761Y-117139357D01*
X74961586Y-116959869D01*
X74727363Y-116862611D01*
X74473750Y-116862390D01*
X74239357Y-116959239D01*
X74059869Y-117138414D01*
X73962611Y-117372637D01*
X73962390Y-117626250D01*
X73754803Y-117626250D01*
X73837389Y-117427363D01*
X73837610Y-117173750D01*
X73740761Y-116939357D01*
X73561586Y-116759869D01*
X73327363Y-116662611D01*
X73073750Y-116662390D01*
X72839357Y-116759239D01*
X72775045Y-116823439D01*
X72711586Y-116759869D01*
X72477363Y-116662611D01*
X72223750Y-116662390D01*
X71989357Y-116759239D01*
X71809869Y-116938414D01*
X71712611Y-117172637D01*
X71712390Y-117426250D01*
X66102499Y-117426250D01*
X66102499Y-115949045D01*
X66561543Y-115490000D01*
X69299995Y-115490000D01*
X69300000Y-115490001D01*
X69424485Y-115465239D01*
X69449247Y-115460313D01*
X69575772Y-115375772D01*
X70175772Y-114775772D01*
X70199163Y-114740765D01*
X70260313Y-114649247D01*
X70274832Y-114576250D01*
X71112390Y-114576250D01*
X71209239Y-114810643D01*
X71388414Y-114990131D01*
X71622637Y-115087389D01*
X71876250Y-115087610D01*
X72110643Y-114990761D01*
X72290131Y-114811586D01*
X72387389Y-114577363D01*
X72387610Y-114323750D01*
X72290761Y-114089357D01*
X72111586Y-113909869D01*
X71877363Y-113812611D01*
X71623750Y-113812390D01*
X71389357Y-113909239D01*
X71209869Y-114088414D01*
X71112611Y-114322637D01*
X71112390Y-114576250D01*
X70274832Y-114576250D01*
X70290000Y-114500000D01*
X70290000Y-113700005D01*
X70290001Y-113700000D01*
X70260314Y-113550754D01*
X70232261Y-113508770D01*
X70175772Y-113424228D01*
X70175769Y-113424226D01*
X69941544Y-113190000D01*
X72288545Y-113190000D01*
X72438414Y-113340131D01*
X72672637Y-113437389D01*
X72926250Y-113437610D01*
X73160643Y-113340761D01*
X73340131Y-113161586D01*
X73437389Y-112927363D01*
X73437610Y-112673750D01*
X73340761Y-112439357D01*
X73161586Y-112259869D01*
X72927363Y-112162611D01*
X72673750Y-112162390D01*
X72439357Y-112259239D01*
X72288333Y-112410000D01*
X71144906Y-112410000D01*
X71179220Y-112327363D01*
X71179441Y-112073750D01*
X71082592Y-111839357D01*
X70903417Y-111659869D01*
X70669194Y-111562611D01*
X70415581Y-111562390D01*
X70181188Y-111659239D01*
X70001700Y-111838414D01*
X69904442Y-112072637D01*
X69904221Y-112326250D01*
X69938826Y-112410000D01*
X68111543Y-112410000D01*
X68087425Y-112385882D01*
X68087610Y-112173750D01*
X67990761Y-111939357D01*
X67811586Y-111759869D01*
X67577363Y-111662611D01*
X67382937Y-111662442D01*
X67290761Y-111439357D01*
X67111586Y-111259869D01*
X66877363Y-111162611D01*
X66623750Y-111162390D01*
X66389357Y-111259239D01*
X66209869Y-111438414D01*
X66112611Y-111672637D01*
X66112447Y-111860903D01*
X65397200Y-111145656D01*
X65397200Y-110076827D01*
X65422637Y-110087389D01*
X65676250Y-110087610D01*
X65910643Y-109990761D01*
X65976519Y-109925000D01*
X66753248Y-109925000D01*
X68364124Y-111535876D01*
X68518225Y-111638843D01*
X68527868Y-111640761D01*
X68700000Y-111675001D01*
X68700005Y-111675000D01*
X69550000Y-111675000D01*
X69731775Y-111638843D01*
X69885876Y-111535876D01*
X70196752Y-111225000D01*
X73989863Y-111225000D01*
X73902611Y-111435127D01*
X73902390Y-111688740D01*
X73999239Y-111923133D01*
X74178414Y-112102621D01*
X74412637Y-112199879D01*
X74666250Y-112200100D01*
X74900643Y-112103251D01*
X75080131Y-111924076D01*
X75100964Y-111873904D01*
X75525000Y-112297939D01*
X75525000Y-116573417D01*
X75459869Y-116638434D01*
X75362611Y-116872657D01*
X75362390Y-117126270D01*
X75459239Y-117360663D01*
X75638414Y-117540151D01*
X75872637Y-117637409D01*
X76126250Y-117637630D01*
X76360643Y-117540781D01*
X76540131Y-117361606D01*
X76637389Y-117127383D01*
X76637610Y-116873770D01*
X76540761Y-116639377D01*
X76475000Y-116573501D01*
X76475000Y-112101188D01*
X76438843Y-111919413D01*
X76335876Y-111765312D01*
X76335873Y-111765310D01*
X74984688Y-110414124D01*
X74830587Y-110311157D01*
X74648812Y-110275000D01*
X72476432Y-110275000D01*
X72640131Y-110111586D01*
X72737389Y-109877363D01*
X72737542Y-109701250D01*
X74987390Y-109701250D01*
X75084239Y-109935643D01*
X75263414Y-110115131D01*
X75497637Y-110212389D01*
X75751250Y-110212610D01*
X75960257Y-110126250D01*
X78162390Y-110126250D01*
X78259239Y-110360643D01*
X78348445Y-110450005D01*
X78259881Y-110538414D01*
X78162623Y-110772637D01*
X78162402Y-111026250D01*
X78259251Y-111260643D01*
X78438426Y-111440131D01*
X78672649Y-111537389D01*
X78926262Y-111537610D01*
X79160655Y-111440761D01*
X79340143Y-111261586D01*
X79437401Y-111027363D01*
X79437622Y-110773750D01*
X79340773Y-110539357D01*
X79251567Y-110449995D01*
X79340131Y-110361586D01*
X79437389Y-110127363D01*
X79437610Y-109873750D01*
X79340761Y-109639357D01*
X79161586Y-109459869D01*
X78927363Y-109362611D01*
X78673750Y-109362390D01*
X78439357Y-109459239D01*
X78259869Y-109638414D01*
X78162611Y-109872637D01*
X78162390Y-110126250D01*
X75960257Y-110126250D01*
X75985643Y-110115761D01*
X76165131Y-109936586D01*
X76262389Y-109702363D01*
X76262610Y-109448750D01*
X76165761Y-109214357D01*
X75986586Y-109034869D01*
X75752363Y-108937611D01*
X75498750Y-108937390D01*
X75264357Y-109034239D01*
X75084869Y-109213414D01*
X74987611Y-109447637D01*
X74987390Y-109701250D01*
X72737542Y-109701250D01*
X72737610Y-109623750D01*
X72640761Y-109389357D01*
X72461586Y-109209869D01*
X72227363Y-109112611D01*
X71973750Y-109112390D01*
X71739357Y-109209239D01*
X71559869Y-109388414D01*
X71462611Y-109622637D01*
X71462390Y-109876250D01*
X71559239Y-110110643D01*
X71723309Y-110275000D01*
X70000000Y-110275000D01*
X69818225Y-110311157D01*
X69679412Y-110403909D01*
X69590761Y-110189357D01*
X69440000Y-110038333D01*
X69440000Y-109911544D01*
X71161543Y-108190000D01*
X71899995Y-108190000D01*
X71900000Y-108190001D01*
X72024485Y-108165239D01*
X72049247Y-108160313D01*
X72175772Y-108075772D01*
X72355774Y-107895770D01*
X75682510Y-107895770D01*
X75779359Y-108130163D01*
X75958534Y-108309651D01*
X76192757Y-108406909D01*
X76446370Y-108407130D01*
X76680763Y-108310281D01*
X76860251Y-108131106D01*
X76934933Y-107951250D01*
X77012390Y-107951250D01*
X77109239Y-108185643D01*
X77288414Y-108365131D01*
X77522637Y-108462389D01*
X77776250Y-108462610D01*
X78010643Y-108365761D01*
X78190131Y-108186586D01*
X78287389Y-107952363D01*
X78287610Y-107698750D01*
X78190761Y-107464357D01*
X78011586Y-107284869D01*
X77777363Y-107187611D01*
X77523750Y-107187390D01*
X77289357Y-107284239D01*
X77109869Y-107463414D01*
X77012611Y-107697637D01*
X77012390Y-107951250D01*
X76934933Y-107951250D01*
X76957509Y-107896883D01*
X76957730Y-107643270D01*
X76860881Y-107408877D01*
X76681706Y-107229389D01*
X76447483Y-107132131D01*
X76193870Y-107131910D01*
X75959477Y-107228759D01*
X75779989Y-107407934D01*
X75682731Y-107642157D01*
X75682510Y-107895770D01*
X72355774Y-107895770D01*
X73463275Y-106788269D01*
X73482339Y-106759737D01*
X73547816Y-106661744D01*
X73577503Y-106512497D01*
X73577503Y-105337508D01*
X73577504Y-105337503D01*
X73551990Y-105209239D01*
X73547816Y-105188256D01*
X73463275Y-105061731D01*
X73340000Y-104938456D01*
X73340000Y-103426250D01*
X76012390Y-103426250D01*
X76109239Y-103660643D01*
X76288414Y-103840131D01*
X76522637Y-103937389D01*
X76776250Y-103937610D01*
X77010643Y-103840761D01*
X77105799Y-103745770D01*
X77832510Y-103745770D01*
X77929359Y-103980163D01*
X78108534Y-104159651D01*
X78342757Y-104256909D01*
X78596370Y-104257130D01*
X78830763Y-104160281D01*
X79010251Y-103981106D01*
X79107509Y-103746883D01*
X79107730Y-103493270D01*
X79010881Y-103258877D01*
X78831706Y-103079389D01*
X78597483Y-102982131D01*
X78343870Y-102981910D01*
X78109477Y-103078759D01*
X77929989Y-103257934D01*
X77832731Y-103492157D01*
X77832510Y-103745770D01*
X77105799Y-103745770D01*
X77190131Y-103661586D01*
X77287389Y-103427363D01*
X77287610Y-103173750D01*
X77190761Y-102939357D01*
X77027939Y-102776250D01*
X78762390Y-102776250D01*
X78859239Y-103010643D01*
X79038414Y-103190131D01*
X79272637Y-103287389D01*
X79526250Y-103287610D01*
X79760643Y-103190761D01*
X79775179Y-103176250D01*
X88162390Y-103176250D01*
X88259239Y-103410643D01*
X88438414Y-103590131D01*
X88672637Y-103687389D01*
X88926250Y-103687610D01*
X89160643Y-103590761D01*
X89340131Y-103411586D01*
X89437389Y-103177363D01*
X89437610Y-102923750D01*
X89340761Y-102689357D01*
X89327753Y-102676326D01*
X94962825Y-102676326D01*
X95059674Y-102910719D01*
X95238849Y-103090207D01*
X95473072Y-103187465D01*
X95726685Y-103187686D01*
X95961078Y-103090837D01*
X96140566Y-102911662D01*
X96237824Y-102677439D01*
X96238045Y-102423826D01*
X96141196Y-102189433D01*
X95962021Y-102009945D01*
X95727798Y-101912687D01*
X95474185Y-101912466D01*
X95239792Y-102009315D01*
X95060304Y-102188490D01*
X94963046Y-102422713D01*
X94962825Y-102676326D01*
X89327753Y-102676326D01*
X89161586Y-102509869D01*
X89017648Y-102450101D01*
X89161078Y-102390837D01*
X89340566Y-102211662D01*
X89425524Y-102007060D01*
X89509674Y-102210719D01*
X89688849Y-102390207D01*
X89923072Y-102487465D01*
X90176685Y-102487686D01*
X90411078Y-102390837D01*
X90590566Y-102211662D01*
X90687824Y-101977439D01*
X90688045Y-101723826D01*
X90591196Y-101489433D01*
X90412021Y-101309945D01*
X90177798Y-101212687D01*
X89924185Y-101212466D01*
X89689792Y-101309315D01*
X89510304Y-101488490D01*
X89425346Y-101693092D01*
X89341196Y-101489433D01*
X89162021Y-101309945D01*
X88927798Y-101212687D01*
X88674185Y-101212466D01*
X88439792Y-101309315D01*
X88260304Y-101488490D01*
X88163046Y-101722713D01*
X88162825Y-101976326D01*
X88259674Y-102210719D01*
X88438849Y-102390207D01*
X88582787Y-102449975D01*
X88439357Y-102509239D01*
X88259869Y-102688414D01*
X88162611Y-102922637D01*
X88162390Y-103176250D01*
X79775179Y-103176250D01*
X79940131Y-103011586D01*
X80037389Y-102777363D01*
X80037610Y-102523750D01*
X79940761Y-102289357D01*
X79761586Y-102109869D01*
X79527363Y-102012611D01*
X79273750Y-102012390D01*
X79039357Y-102109239D01*
X78859869Y-102288414D01*
X78762611Y-102522637D01*
X78762390Y-102776250D01*
X77027939Y-102776250D01*
X77011586Y-102759869D01*
X76777363Y-102662611D01*
X76523750Y-102662390D01*
X76289357Y-102759239D01*
X76109869Y-102938414D01*
X76012611Y-103172637D01*
X76012390Y-103426250D01*
X73340000Y-103426250D01*
X73340000Y-102382313D01*
X73472637Y-102437389D01*
X73726250Y-102437610D01*
X73960643Y-102340761D01*
X74140131Y-102161586D01*
X74237389Y-101927363D01*
X74237610Y-101673750D01*
X74140761Y-101439357D01*
X74127677Y-101426250D01*
X77512390Y-101426250D01*
X77609239Y-101660643D01*
X77788414Y-101840131D01*
X78022637Y-101937389D01*
X78276250Y-101937610D01*
X78510643Y-101840761D01*
X78690131Y-101661586D01*
X78787389Y-101427363D01*
X78787610Y-101173750D01*
X78690761Y-100939357D01*
X78511586Y-100759869D01*
X78277363Y-100662611D01*
X78023750Y-100662390D01*
X77789357Y-100759239D01*
X77609869Y-100938414D01*
X77512611Y-101172637D01*
X77512390Y-101426250D01*
X74127677Y-101426250D01*
X73961586Y-101259869D01*
X73727363Y-101162611D01*
X73473750Y-101162390D01*
X73340000Y-101217654D01*
X73340000Y-100519603D01*
X74153973Y-99705630D01*
X74188414Y-99740131D01*
X74422637Y-99837389D01*
X74676250Y-99837610D01*
X74910643Y-99740761D01*
X75090131Y-99561586D01*
X75187389Y-99327363D01*
X75187610Y-99073750D01*
X75090761Y-98839357D01*
X74911586Y-98659869D01*
X74677363Y-98562611D01*
X74423750Y-98562390D01*
X74189357Y-98659239D01*
X74020983Y-98827320D01*
X73958813Y-98839686D01*
X73942249Y-98850754D01*
X73832287Y-98924228D01*
X73832285Y-98924231D01*
X72674228Y-100082287D01*
X72589687Y-100208812D01*
X72589687Y-100208813D01*
X72559999Y-100358059D01*
X72560000Y-100358064D01*
X72560000Y-102367687D01*
X72427363Y-102312611D01*
X72173750Y-102312390D01*
X71939357Y-102409239D01*
X71788333Y-102560000D01*
X71423837Y-102560000D01*
X71437389Y-102527363D01*
X71437610Y-102273750D01*
X71340761Y-102039357D01*
X71161586Y-101859869D01*
X70927363Y-101762611D01*
X70713968Y-101762425D01*
X69825772Y-100874228D01*
X69806852Y-100861586D01*
X69699247Y-100789687D01*
X69674485Y-100784761D01*
X69550000Y-100759999D01*
X69549995Y-100760000D01*
X69432313Y-100760000D01*
X69487389Y-100627363D01*
X69487610Y-100373750D01*
X69390761Y-100139357D01*
X69211586Y-99959869D01*
X68977363Y-99862611D01*
X68723750Y-99862390D01*
X68489357Y-99959239D01*
X68309869Y-100138414D01*
X68212611Y-100372637D01*
X68212390Y-100626250D01*
X68267654Y-100760000D01*
X62627338Y-100760000D01*
X62301556Y-100434218D01*
X62301508Y-100434186D01*
X62387389Y-100227363D01*
X62387610Y-99973750D01*
X62290761Y-99739357D01*
X62111586Y-99559869D01*
X61877363Y-99462611D01*
X61623750Y-99462390D01*
X61389357Y-99559239D01*
X61209869Y-99738414D01*
X61112611Y-99972637D01*
X61112390Y-100226250D01*
X61151122Y-100319990D01*
X60598927Y-100319990D01*
X60637389Y-100227363D01*
X60637610Y-99973750D01*
X60540761Y-99739357D01*
X60361586Y-99559869D01*
X60127363Y-99462611D01*
X59873750Y-99462390D01*
X59639357Y-99559239D01*
X59459869Y-99738414D01*
X59362611Y-99972637D01*
X59362390Y-100226250D01*
X59401122Y-100319990D01*
X55769689Y-100319990D01*
X55787389Y-100277363D01*
X55787610Y-100023750D01*
X55690761Y-99789357D01*
X55511586Y-99609869D01*
X55403065Y-99564807D01*
X55461078Y-99540837D01*
X55640566Y-99361662D01*
X55737824Y-99127439D01*
X55738045Y-98873826D01*
X55641196Y-98639433D01*
X55462021Y-98459945D01*
X55227798Y-98362687D01*
X54974185Y-98362466D01*
X54739792Y-98459315D01*
X54560304Y-98638490D01*
X54463046Y-98872713D01*
X54462825Y-99126326D01*
X54559674Y-99360719D01*
X54738849Y-99540207D01*
X54847370Y-99585269D01*
X54789357Y-99609239D01*
X54609869Y-99788414D01*
X54512611Y-100022637D01*
X54512390Y-100276250D01*
X54530463Y-100319990D01*
X52481670Y-100319990D01*
X51785908Y-99624228D01*
X51734682Y-99590000D01*
X51659383Y-99539687D01*
X51634621Y-99534761D01*
X51510136Y-99509999D01*
X51510131Y-99510000D01*
X51211455Y-99510000D01*
X51061586Y-99359869D01*
X50827363Y-99262611D01*
X50573750Y-99262390D01*
X50425435Y-99323672D01*
X50425435Y-98876265D01*
X50572637Y-98937389D01*
X50826250Y-98937610D01*
X51060643Y-98840761D01*
X51240131Y-98661586D01*
X51337389Y-98427363D01*
X51337610Y-98173750D01*
X51317984Y-98126250D01*
X52262390Y-98126250D01*
X52359239Y-98360643D01*
X52538414Y-98540131D01*
X52772637Y-98637389D01*
X53026250Y-98637610D01*
X53260643Y-98540761D01*
X53440131Y-98361586D01*
X53537389Y-98127363D01*
X53537610Y-97873750D01*
X53518015Y-97826326D01*
X58787825Y-97826326D01*
X58884674Y-98060719D01*
X59063849Y-98240207D01*
X59298072Y-98337465D01*
X59551685Y-98337686D01*
X59786078Y-98240837D01*
X59965566Y-98061662D01*
X60062824Y-97827439D01*
X60063045Y-97573826D01*
X59966196Y-97339433D01*
X59787021Y-97159945D01*
X59552798Y-97062687D01*
X59299185Y-97062466D01*
X59064792Y-97159315D01*
X58885304Y-97338490D01*
X58788046Y-97572713D01*
X58787825Y-97826326D01*
X53518015Y-97826326D01*
X53440761Y-97639357D01*
X53261586Y-97459869D01*
X53027363Y-97362611D01*
X52773750Y-97362390D01*
X52539357Y-97459239D01*
X52359869Y-97638414D01*
X52262611Y-97872637D01*
X52262390Y-98126250D01*
X51317984Y-98126250D01*
X51240761Y-97939357D01*
X51201561Y-97900089D01*
X51240131Y-97861586D01*
X51337389Y-97627363D01*
X51337610Y-97373750D01*
X51240761Y-97139357D01*
X51061586Y-96959869D01*
X50827363Y-96862611D01*
X50573750Y-96862390D01*
X50425435Y-96923672D01*
X50425435Y-95875973D01*
X54462916Y-95875973D01*
X54559765Y-96110366D01*
X54738940Y-96289854D01*
X54973163Y-96387112D01*
X55226776Y-96387333D01*
X55461169Y-96290484D01*
X55640657Y-96111309D01*
X55737915Y-95877086D01*
X55737915Y-95875973D01*
X57262916Y-95875973D01*
X57359765Y-96110366D01*
X57538940Y-96289854D01*
X57773163Y-96387112D01*
X58026776Y-96387333D01*
X58261169Y-96290484D01*
X58440657Y-96111309D01*
X58537915Y-95877086D01*
X58538136Y-95623473D01*
X58441287Y-95389080D01*
X58262112Y-95209592D01*
X58027889Y-95112334D01*
X57774276Y-95112113D01*
X57539883Y-95208962D01*
X57360395Y-95388137D01*
X57263137Y-95622360D01*
X57262916Y-95875973D01*
X55737915Y-95875973D01*
X55738136Y-95623473D01*
X55641287Y-95389080D01*
X55462112Y-95209592D01*
X55227889Y-95112334D01*
X54974276Y-95112113D01*
X54739883Y-95208962D01*
X54560395Y-95388137D01*
X54463137Y-95622360D01*
X54462916Y-95875973D01*
X50425435Y-95875973D01*
X50425435Y-93626250D01*
X52162390Y-93626250D01*
X52259239Y-93860643D01*
X52438414Y-94040131D01*
X52672637Y-94137389D01*
X52926250Y-94137610D01*
X53160643Y-94040761D01*
X53340131Y-93861586D01*
X53437389Y-93627363D01*
X53437575Y-93413969D01*
X54225294Y-92626250D01*
X57062390Y-92626250D01*
X57159239Y-92860643D01*
X57338414Y-93040131D01*
X57572637Y-93137389D01*
X57826250Y-93137610D01*
X58060643Y-93040761D01*
X58240131Y-92861586D01*
X58317204Y-92675973D01*
X59162916Y-92675973D01*
X59259765Y-92910366D01*
X59410526Y-93061390D01*
X59410526Y-95000521D01*
X59410525Y-95000526D01*
X59432722Y-95112113D01*
X59440213Y-95149773D01*
X59506679Y-95249247D01*
X59524754Y-95276298D01*
X63561081Y-99312624D01*
X63561083Y-99312627D01*
X63687608Y-99397168D01*
X63836855Y-99426855D01*
X65032233Y-99426855D01*
X65182102Y-99576986D01*
X65416325Y-99674244D01*
X65669938Y-99674465D01*
X65904331Y-99577616D01*
X66083819Y-99398441D01*
X66181077Y-99164218D01*
X66181298Y-98910605D01*
X66171662Y-98887285D01*
X66226776Y-98887333D01*
X66461169Y-98790484D01*
X66640657Y-98611309D01*
X66737915Y-98377086D01*
X66738136Y-98123473D01*
X66737931Y-98122978D01*
X66772637Y-98137389D01*
X67026250Y-98137610D01*
X67260643Y-98040761D01*
X67440131Y-97861586D01*
X67537389Y-97627363D01*
X67537610Y-97373750D01*
X67440761Y-97139357D01*
X67261586Y-96959869D01*
X67041898Y-96868647D01*
X67052688Y-96842662D01*
X67052789Y-96726250D01*
X68412390Y-96726250D01*
X68509239Y-96960643D01*
X68688414Y-97140131D01*
X68922637Y-97237389D01*
X69176250Y-97237610D01*
X69410643Y-97140761D01*
X69590131Y-96961586D01*
X69687389Y-96727363D01*
X69687610Y-96473750D01*
X69590761Y-96239357D01*
X69411586Y-96059869D01*
X69177363Y-95962611D01*
X68923750Y-95962390D01*
X68689357Y-96059239D01*
X68509869Y-96238414D01*
X68412611Y-96472637D01*
X68412390Y-96726250D01*
X67052789Y-96726250D01*
X67052909Y-96589049D01*
X66956060Y-96354656D01*
X66776885Y-96175168D01*
X66542662Y-96077910D01*
X66451980Y-96077831D01*
X68154811Y-94375000D01*
X71800000Y-94375000D01*
X71981775Y-94338843D01*
X72135876Y-94235876D01*
X73934221Y-92437530D01*
X74026250Y-92437610D01*
X74260643Y-92340761D01*
X74440131Y-92161586D01*
X74537389Y-91927363D01*
X74537610Y-91673750D01*
X74440761Y-91439357D01*
X74362284Y-91360743D01*
X74410643Y-91340761D01*
X74590131Y-91161586D01*
X74625680Y-91075973D01*
X76037916Y-91075973D01*
X76134765Y-91310366D01*
X76313940Y-91489854D01*
X76548163Y-91587112D01*
X76801776Y-91587333D01*
X77036169Y-91490484D01*
X77215657Y-91311309D01*
X77312915Y-91077086D01*
X77313046Y-90926250D01*
X78112390Y-90926250D01*
X78209239Y-91160643D01*
X78388414Y-91340131D01*
X78622637Y-91437389D01*
X78876250Y-91437610D01*
X79024752Y-91376250D01*
X79962390Y-91376250D01*
X80059239Y-91610643D01*
X80238414Y-91790131D01*
X80472637Y-91887389D01*
X80726250Y-91887610D01*
X80960643Y-91790761D01*
X81025266Y-91726250D01*
X85362390Y-91726250D01*
X85459239Y-91960643D01*
X85638414Y-92140131D01*
X85872637Y-92237389D01*
X86126250Y-92237610D01*
X86360643Y-92140761D01*
X86540131Y-91961586D01*
X86600027Y-91817340D01*
X86659239Y-91960643D01*
X86838414Y-92140131D01*
X87072637Y-92237389D01*
X87326250Y-92237610D01*
X87560643Y-92140761D01*
X87740131Y-91961586D01*
X87837389Y-91727363D01*
X87837610Y-91473750D01*
X87740761Y-91239357D01*
X87561586Y-91059869D01*
X87327363Y-90962611D01*
X87089127Y-90962403D01*
X87190121Y-90861586D01*
X87287379Y-90627363D01*
X87287600Y-90373750D01*
X87190751Y-90139357D01*
X87011576Y-89959869D01*
X86777353Y-89862611D01*
X86523740Y-89862390D01*
X86289347Y-89959239D01*
X86109859Y-90138414D01*
X86012601Y-90372637D01*
X86012380Y-90626250D01*
X86109229Y-90860643D01*
X86270246Y-91021941D01*
X86127363Y-90962611D01*
X85873750Y-90962390D01*
X85639357Y-91059239D01*
X85459869Y-91238414D01*
X85362611Y-91472637D01*
X85362390Y-91726250D01*
X81025266Y-91726250D01*
X81140131Y-91611586D01*
X81237389Y-91377363D01*
X81237610Y-91123750D01*
X81140761Y-90889357D01*
X80961586Y-90709869D01*
X80727363Y-90612611D01*
X80473750Y-90612390D01*
X80239357Y-90709239D01*
X80059869Y-90888414D01*
X79962611Y-91122637D01*
X79962390Y-91376250D01*
X79024752Y-91376250D01*
X79110643Y-91340761D01*
X79290131Y-91161586D01*
X79387389Y-90927363D01*
X79387610Y-90673750D01*
X79290761Y-90439357D01*
X79111586Y-90259869D01*
X78877363Y-90162611D01*
X78623750Y-90162390D01*
X78389357Y-90259239D01*
X78209869Y-90438414D01*
X78112611Y-90672637D01*
X78112390Y-90926250D01*
X77313046Y-90926250D01*
X77313136Y-90823473D01*
X77216287Y-90589080D01*
X77037112Y-90409592D01*
X76802889Y-90312334D01*
X76549276Y-90312113D01*
X76314883Y-90408962D01*
X76135395Y-90588137D01*
X76038137Y-90822360D01*
X76037916Y-91075973D01*
X74625680Y-91075973D01*
X74687389Y-90927363D01*
X74687610Y-90673750D01*
X74590761Y-90439357D01*
X74411586Y-90259869D01*
X74177363Y-90162611D01*
X73923750Y-90162390D01*
X73689357Y-90259239D01*
X73509869Y-90438414D01*
X73412611Y-90672637D01*
X73412390Y-90926250D01*
X73509239Y-91160643D01*
X73587716Y-91239257D01*
X73539357Y-91259239D01*
X73359869Y-91438414D01*
X73262611Y-91672637D01*
X73262530Y-91765719D01*
X71603248Y-93425000D01*
X67958064Y-93425000D01*
X67958059Y-93424999D01*
X67806443Y-93455158D01*
X67776284Y-93461157D01*
X67662195Y-93537389D01*
X67622183Y-93564124D01*
X65214124Y-95972183D01*
X65111157Y-96126284D01*
X65075000Y-96308059D01*
X65075000Y-96323397D01*
X65009869Y-96388414D01*
X64912611Y-96622637D01*
X64912390Y-96876250D01*
X65009239Y-97110643D01*
X65040830Y-97142289D01*
X65004047Y-97179008D01*
X64906789Y-97413231D01*
X64906568Y-97666844D01*
X65003417Y-97901237D01*
X65182592Y-98080725D01*
X65416815Y-98177983D01*
X65463088Y-98178023D01*
X65462916Y-98375973D01*
X65472552Y-98399293D01*
X65417438Y-98399245D01*
X65183045Y-98496094D01*
X65032021Y-98646855D01*
X63998398Y-98646855D01*
X61105015Y-95753471D01*
X63662390Y-95753471D01*
X63759239Y-95987864D01*
X63938414Y-96167352D01*
X64172637Y-96264610D01*
X64426250Y-96264831D01*
X64660643Y-96167982D01*
X64840131Y-95988807D01*
X64937389Y-95754584D01*
X64937610Y-95500971D01*
X64840761Y-95266578D01*
X64661586Y-95087090D01*
X64427363Y-94989832D01*
X64173750Y-94989611D01*
X63939357Y-95086460D01*
X63759869Y-95265635D01*
X63662611Y-95499858D01*
X63662390Y-95753471D01*
X61105015Y-95753471D01*
X60427794Y-95076250D01*
X62012390Y-95076250D01*
X62109239Y-95310643D01*
X62288414Y-95490131D01*
X62522637Y-95587389D01*
X62776250Y-95587610D01*
X63010643Y-95490761D01*
X63190131Y-95311586D01*
X63287389Y-95077363D01*
X63287610Y-94823750D01*
X63190761Y-94589357D01*
X63011586Y-94409869D01*
X62777363Y-94312611D01*
X62523750Y-94312390D01*
X62289357Y-94409239D01*
X62109869Y-94588414D01*
X62012611Y-94822637D01*
X62012390Y-95076250D01*
X60427794Y-95076250D01*
X60190526Y-94838982D01*
X60190526Y-93061178D01*
X60340657Y-92911309D01*
X60437915Y-92677086D01*
X60437915Y-92676254D01*
X60462390Y-92676254D01*
X60559239Y-92910647D01*
X60738414Y-93090135D01*
X60972637Y-93187393D01*
X61226250Y-93187614D01*
X61460643Y-93090765D01*
X61640131Y-92911590D01*
X61737389Y-92677367D01*
X61737610Y-92423754D01*
X61640761Y-92189361D01*
X61461586Y-92009873D01*
X61227363Y-91912615D01*
X60973750Y-91912394D01*
X60739357Y-92009243D01*
X60559869Y-92188418D01*
X60462611Y-92422641D01*
X60462390Y-92676254D01*
X60437915Y-92676254D01*
X60438136Y-92423473D01*
X60341287Y-92189080D01*
X60162112Y-92009592D01*
X59927889Y-91912334D01*
X59674276Y-91912113D01*
X59439883Y-92008962D01*
X59260395Y-92188137D01*
X59163137Y-92422360D01*
X59162916Y-92675973D01*
X58317204Y-92675973D01*
X58337389Y-92627363D01*
X58337610Y-92373750D01*
X58240761Y-92139357D01*
X58061586Y-91959869D01*
X57827363Y-91862611D01*
X57573750Y-91862390D01*
X57339357Y-91959239D01*
X57159869Y-92138414D01*
X57062611Y-92372637D01*
X57062390Y-92626250D01*
X54225294Y-92626250D01*
X55311544Y-91540000D01*
X62884163Y-91540000D01*
X64990506Y-93646343D01*
X64990321Y-93858474D01*
X65087170Y-94092867D01*
X65266345Y-94272355D01*
X65500568Y-94369613D01*
X65754181Y-94369834D01*
X65988574Y-94272985D01*
X66168062Y-94093810D01*
X66265320Y-93859587D01*
X66265541Y-93605974D01*
X66168692Y-93371581D01*
X65989517Y-93192093D01*
X65755294Y-93094835D01*
X65541900Y-93094649D01*
X63321479Y-90874228D01*
X63302559Y-90861586D01*
X63194954Y-90789687D01*
X63170192Y-90784761D01*
X63045707Y-90759999D01*
X63045702Y-90760000D01*
X61382315Y-90760000D01*
X61437389Y-90627367D01*
X61437610Y-90373754D01*
X61376549Y-90225973D01*
X64262916Y-90225973D01*
X64359765Y-90460366D01*
X64538940Y-90639854D01*
X64773163Y-90737112D01*
X65026776Y-90737333D01*
X65062437Y-90722598D01*
X65062390Y-90776250D01*
X65159239Y-91010643D01*
X65338414Y-91190131D01*
X65572637Y-91287389D01*
X65826250Y-91287610D01*
X66060643Y-91190761D01*
X66240131Y-91011586D01*
X66337389Y-90777363D01*
X66337610Y-90523750D01*
X66240761Y-90289357D01*
X66061586Y-90109869D01*
X65827363Y-90012611D01*
X65573750Y-90012390D01*
X65538089Y-90027125D01*
X65538136Y-89973473D01*
X65441287Y-89739080D01*
X65262112Y-89559592D01*
X65027889Y-89462334D01*
X64774276Y-89462113D01*
X64539883Y-89558962D01*
X64360395Y-89738137D01*
X64263137Y-89972360D01*
X64262916Y-90225973D01*
X61376549Y-90225973D01*
X61340761Y-90139361D01*
X61161586Y-89959873D01*
X60927363Y-89862615D01*
X60673750Y-89862394D01*
X60439357Y-89959243D01*
X60259869Y-90138418D01*
X60162611Y-90372641D01*
X60162390Y-90626254D01*
X60217653Y-90760000D01*
X59641545Y-90760000D01*
X59740131Y-90661586D01*
X59837389Y-90427363D01*
X59837610Y-90173750D01*
X59740761Y-89939357D01*
X59561586Y-89759869D01*
X59327363Y-89662611D01*
X59073750Y-89662390D01*
X58839357Y-89759239D01*
X58659869Y-89938414D01*
X58562611Y-90172637D01*
X58562390Y-90426250D01*
X58659239Y-90660643D01*
X58758423Y-90760000D01*
X57741545Y-90760000D01*
X57840131Y-90661586D01*
X57937389Y-90427363D01*
X57937610Y-90173750D01*
X57840761Y-89939357D01*
X57801561Y-89900089D01*
X57840131Y-89861586D01*
X57937389Y-89627363D01*
X57937610Y-89373750D01*
X57840761Y-89139357D01*
X57661586Y-88959869D01*
X57427363Y-88862611D01*
X57173750Y-88862390D01*
X56939357Y-88959239D01*
X56759869Y-89138414D01*
X56662611Y-89372637D01*
X56662390Y-89626250D01*
X56759239Y-89860643D01*
X56798439Y-89899911D01*
X56759869Y-89938414D01*
X56662611Y-90172637D01*
X56662390Y-90426250D01*
X56759239Y-90660643D01*
X56858423Y-90760000D01*
X55150005Y-90760000D01*
X55150000Y-90759999D01*
X55025515Y-90784761D01*
X55002715Y-90789297D01*
X54940761Y-90639357D01*
X54761586Y-90459869D01*
X54527363Y-90362611D01*
X54273750Y-90362390D01*
X54039357Y-90459239D01*
X53859869Y-90638414D01*
X53762611Y-90872637D01*
X53762390Y-91126250D01*
X53859239Y-91360643D01*
X54038414Y-91540131D01*
X54158472Y-91589984D01*
X52885881Y-92862575D01*
X52673750Y-92862390D01*
X52439357Y-92959239D01*
X52259869Y-93138414D01*
X52162611Y-93372637D01*
X52162390Y-93626250D01*
X50425435Y-93626250D01*
X50425435Y-87908018D01*
X51450253Y-87908018D01*
X51609769Y-88294076D01*
X51904881Y-88589704D01*
X52290661Y-88749894D01*
X52708377Y-88750258D01*
X53094435Y-88590742D01*
X53390063Y-88295630D01*
X53550253Y-87909850D01*
X53550338Y-87811635D01*
X59425253Y-87811635D01*
X59664527Y-88390723D01*
X60107195Y-88834164D01*
X60685865Y-89074449D01*
X61312438Y-89074996D01*
X61891526Y-88835722D01*
X62334967Y-88393054D01*
X62575252Y-87814384D01*
X62575799Y-87187811D01*
X62336525Y-86608723D01*
X61954719Y-86226250D01*
X62912390Y-86226250D01*
X63009239Y-86460643D01*
X63188414Y-86640131D01*
X63422637Y-86737389D01*
X63676250Y-86737610D01*
X63910643Y-86640761D01*
X64090131Y-86461586D01*
X64187389Y-86227363D01*
X64187610Y-85973750D01*
X64090761Y-85739357D01*
X63911586Y-85559869D01*
X63677363Y-85462611D01*
X63423750Y-85462390D01*
X63189357Y-85559239D01*
X63009869Y-85738414D01*
X62912611Y-85972637D01*
X62912390Y-86226250D01*
X61954719Y-86226250D01*
X61893857Y-86165282D01*
X61315187Y-85924997D01*
X60688614Y-85924450D01*
X60109526Y-86163724D01*
X59666085Y-86606392D01*
X59425800Y-87185062D01*
X59425253Y-87811635D01*
X53550338Y-87811635D01*
X53550617Y-87492134D01*
X53391101Y-87106076D01*
X53095989Y-86810448D01*
X52710209Y-86650258D01*
X52292493Y-86649894D01*
X51906435Y-86809410D01*
X51610807Y-87104522D01*
X51450617Y-87490302D01*
X51450253Y-87908018D01*
X50425435Y-87908018D01*
X50425435Y-85425076D01*
X53746894Y-85425076D01*
X53664883Y-85458962D01*
G36*
X90417506Y-85660082D02*
X90312620Y-85912676D01*
X90312381Y-86186180D01*
X90416826Y-86438957D01*
X90610054Y-86632522D01*
X90862648Y-86737408D01*
X91097093Y-86737613D01*
X91144118Y-86769034D01*
X91312499Y-86802527D01*
X93225000Y-86802527D01*
X93225000Y-87875000D01*
X90082990Y-87875000D01*
X90143000Y-87815094D01*
X90247886Y-87562500D01*
X90248125Y-87288996D01*
X90143680Y-87036219D01*
X89950452Y-86842654D01*
X89697858Y-86737768D01*
X89424354Y-86737529D01*
X89171577Y-86841974D01*
X88978012Y-87035202D01*
X88873126Y-87287796D01*
X88872887Y-87561300D01*
X88977332Y-87814077D01*
X89038149Y-87875000D01*
X88407963Y-87875000D01*
X88483243Y-87799851D01*
X88588129Y-87547257D01*
X88588368Y-87273753D01*
X88483923Y-87020976D01*
X88290695Y-86827411D01*
X88038101Y-86722525D01*
X87764597Y-86722286D01*
X87511820Y-86826731D01*
X87318255Y-87019959D01*
X87213369Y-87272553D01*
X87213130Y-87546057D01*
X87317575Y-87798834D01*
X87393608Y-87875000D01*
X85901776Y-87875000D01*
X85688388Y-87661612D01*
X85647835Y-87634515D01*
X85600000Y-87625000D01*
X84500000Y-87625000D01*
X84452165Y-87634515D01*
X84411612Y-87661612D01*
X84311658Y-87761566D01*
X84176060Y-87817594D01*
X83982495Y-88010822D01*
X83925754Y-88147470D01*
X83698224Y-88375000D01*
X80051776Y-88375000D01*
X79588388Y-87911612D01*
X79547835Y-87884515D01*
X79500000Y-87875000D01*
X79398229Y-87875000D01*
X79390472Y-87867229D01*
X79137878Y-87762343D01*
X78864374Y-87762104D01*
X78611597Y-87866549D01*
X78603131Y-87875000D01*
X78250000Y-87875000D01*
X78202165Y-87884515D01*
X78161612Y-87911612D01*
X77698224Y-88375000D01*
X76922158Y-88375000D01*
X76937906Y-88337075D01*
X76938145Y-88063571D01*
X76833700Y-87810794D01*
X76640472Y-87617229D01*
X76387878Y-87512343D01*
X76114374Y-87512104D01*
X75861597Y-87616549D01*
X75668032Y-87809777D01*
X75563146Y-88062371D01*
X75562907Y-88335875D01*
X75579073Y-88375000D01*
X72500000Y-88375000D01*
X72452165Y-88384515D01*
X72411612Y-88411612D01*
X72000576Y-88822648D01*
X71933700Y-88660794D01*
X71740472Y-88467229D01*
X71487878Y-88362343D01*
X71214374Y-88362104D01*
X70961597Y-88466549D01*
X70768032Y-88659777D01*
X70663146Y-88912371D01*
X70662907Y-89185875D01*
X70767352Y-89438652D01*
X70960580Y-89632217D01*
X71123399Y-89699825D01*
X69448224Y-91375000D01*
X67875000Y-91375000D01*
X67875000Y-86536152D01*
X67912381Y-86536152D01*
X68016826Y-86788929D01*
X68210054Y-86982494D01*
X68462648Y-87087380D01*
X68736152Y-87087619D01*
X68988929Y-86983174D01*
X69182494Y-86789946D01*
X69287380Y-86537352D01*
X69287556Y-86335875D01*
X79112907Y-86335875D01*
X79217352Y-86588652D01*
X79410580Y-86782217D01*
X79663174Y-86887103D01*
X79936678Y-86887342D01*
X80189455Y-86782897D01*
X80383020Y-86589669D01*
X80487906Y-86337075D01*
X80488145Y-86063571D01*
X80383700Y-85810794D01*
X80190472Y-85617229D01*
X79937878Y-85512343D01*
X79664374Y-85512104D01*
X79411597Y-85616549D01*
X79218032Y-85809777D01*
X79113146Y-86062371D01*
X79112907Y-86335875D01*
X69287556Y-86335875D01*
X69287619Y-86263848D01*
X69183174Y-86011071D01*
X68989946Y-85817506D01*
X68737352Y-85712620D01*
X68463848Y-85712381D01*
X68211071Y-85816826D01*
X68017506Y-86010054D01*
X67912620Y-86262648D01*
X67912381Y-86536152D01*
X67875000Y-86536152D01*
X67875000Y-85475076D01*
X90602835Y-85475076D01*
X90417506Y-85660082D01*
X90417506Y-85660082D01*
G37*
X90417506Y-85660082D02*
X90312620Y-85912676D01*
X90312381Y-86186180D01*
X90416826Y-86438957D01*
X90610054Y-86632522D01*
X90862648Y-86737408D01*
X91097093Y-86737613D01*
X91144118Y-86769034D01*
X91312499Y-86802527D01*
X93225000Y-86802527D01*
X93225000Y-87875000D01*
X90082990Y-87875000D01*
X90143000Y-87815094D01*
X90247886Y-87562500D01*
X90248125Y-87288996D01*
X90143680Y-87036219D01*
X89950452Y-86842654D01*
X89697858Y-86737768D01*
X89424354Y-86737529D01*
X89171577Y-86841974D01*
X88978012Y-87035202D01*
X88873126Y-87287796D01*
X88872887Y-87561300D01*
X88977332Y-87814077D01*
X89038149Y-87875000D01*
X88407963Y-87875000D01*
X88483243Y-87799851D01*
X88588129Y-87547257D01*
X88588368Y-87273753D01*
X88483923Y-87020976D01*
X88290695Y-86827411D01*
X88038101Y-86722525D01*
X87764597Y-86722286D01*
X87511820Y-86826731D01*
X87318255Y-87019959D01*
X87213369Y-87272553D01*
X87213130Y-87546057D01*
X87317575Y-87798834D01*
X87393608Y-87875000D01*
X85901776Y-87875000D01*
X85688388Y-87661612D01*
X85647835Y-87634515D01*
X85600000Y-87625000D01*
X84500000Y-87625000D01*
X84452165Y-87634515D01*
X84411612Y-87661612D01*
X84311658Y-87761566D01*
X84176060Y-87817594D01*
X83982495Y-88010822D01*
X83925754Y-88147470D01*
X83698224Y-88375000D01*
X80051776Y-88375000D01*
X79588388Y-87911612D01*
X79547835Y-87884515D01*
X79500000Y-87875000D01*
X79398229Y-87875000D01*
X79390472Y-87867229D01*
X79137878Y-87762343D01*
X78864374Y-87762104D01*
X78611597Y-87866549D01*
X78603131Y-87875000D01*
X78250000Y-87875000D01*
X78202165Y-87884515D01*
X78161612Y-87911612D01*
X77698224Y-88375000D01*
X76922158Y-88375000D01*
X76937906Y-88337075D01*
X76938145Y-88063571D01*
X76833700Y-87810794D01*
X76640472Y-87617229D01*
X76387878Y-87512343D01*
X76114374Y-87512104D01*
X75861597Y-87616549D01*
X75668032Y-87809777D01*
X75563146Y-88062371D01*
X75562907Y-88335875D01*
X75579073Y-88375000D01*
X72500000Y-88375000D01*
X72452165Y-88384515D01*
X72411612Y-88411612D01*
X72000576Y-88822648D01*
X71933700Y-88660794D01*
X71740472Y-88467229D01*
X71487878Y-88362343D01*
X71214374Y-88362104D01*
X70961597Y-88466549D01*
X70768032Y-88659777D01*
X70663146Y-88912371D01*
X70662907Y-89185875D01*
X70767352Y-89438652D01*
X70960580Y-89632217D01*
X71123399Y-89699825D01*
X69448224Y-91375000D01*
X67875000Y-91375000D01*
X67875000Y-86536152D01*
X67912381Y-86536152D01*
X68016826Y-86788929D01*
X68210054Y-86982494D01*
X68462648Y-87087380D01*
X68736152Y-87087619D01*
X68988929Y-86983174D01*
X69182494Y-86789946D01*
X69287380Y-86537352D01*
X69287556Y-86335875D01*
X79112907Y-86335875D01*
X79217352Y-86588652D01*
X79410580Y-86782217D01*
X79663174Y-86887103D01*
X79936678Y-86887342D01*
X80189455Y-86782897D01*
X80383020Y-86589669D01*
X80487906Y-86337075D01*
X80488145Y-86063571D01*
X80383700Y-85810794D01*
X80190472Y-85617229D01*
X79937878Y-85512343D01*
X79664374Y-85512104D01*
X79411597Y-85616549D01*
X79218032Y-85809777D01*
X79113146Y-86062371D01*
X79112907Y-86335875D01*
X69287556Y-86335875D01*
X69287619Y-86263848D01*
X69183174Y-86011071D01*
X68989946Y-85817506D01*
X68737352Y-85712620D01*
X68463848Y-85712381D01*
X68211071Y-85816826D01*
X68017506Y-86010054D01*
X67912620Y-86262648D01*
X67912381Y-86536152D01*
X67875000Y-86536152D01*
X67875000Y-85475076D01*
X90602835Y-85475076D01*
X90417506Y-85660082D01*
M02*
