G04 #@! TF.GenerationSoftware,KiCad,Pcbnew,(2017-02-19 revision a416f3a4e)-master*
G04 #@! TF.CreationDate,2017-03-09T22:42:25-08:00*
G04 #@! TF.ProjectId,Flight Computer,466C6967687420436F6D70757465722E,rev?*
G04 #@! TF.FileFunction,Soldermask,Top*
G04 #@! TF.FilePolarity,Negative*
%FSLAX46Y46*%
G04 Gerber Fmt 4.6, Leading zero omitted, Abs format (unit mm)*
G04 Created by KiCad (PCBNEW (2017-02-19 revision a416f3a4e)-master) date 03/09/17 22:42:25*
%MOMM*%
%LPD*%
G01*
G04 APERTURE LIST*
%ADD10C,0.150000*%
%ADD11R,1.800000X0.800000*%
%ADD12R,1.800000X0.700000*%
%ADD13R,0.500000X0.900000*%
%ADD14R,0.400000X0.600000*%
%ADD15R,1.500000X0.700000*%
%ADD16R,0.600000X0.500000*%
%ADD17R,0.500000X0.600000*%
%ADD18R,0.700000X0.250000*%
%ADD19R,0.250000X0.700000*%
%ADD20R,1.325000X1.825000*%
%ADD21R,0.800000X0.800000*%
%ADD22R,0.600000X0.400000*%
%ADD23R,0.800000X0.900000*%
%ADD24C,0.500000*%
%ADD25C,2.500000*%
%ADD26R,1.000000X1.250000*%
%ADD27R,1.000000X2.130000*%
%ADD28R,1.000000X3.800000*%
%ADD29R,1.650000X1.000000*%
%ADD30R,3.800000X1.000000*%
%ADD31R,1.000000X1.000000*%
%ADD32R,0.800000X0.750000*%
%ADD33R,0.750000X0.800000*%
%ADD34R,1.250000X1.000000*%
%ADD35R,1.100000X1.100000*%
%ADD36R,1.475000X2.100000*%
%ADD37R,0.450000X1.380000*%
%ADD38R,1.175000X1.900000*%
%ADD39R,2.375000X1.900000*%
%ADD40C,1.450000*%
%ADD41R,0.600000X0.700000*%
%ADD42R,0.600000X0.750000*%
%ADD43R,0.750000X0.600000*%
%ADD44R,2.500000X0.900000*%
%ADD45R,0.800000X0.600000*%
%ADD46R,2.200000X1.050000*%
%ADD47R,0.200000X0.550000*%
%ADD48R,0.550000X0.200000*%
%ADD49R,0.800000X0.875000*%
%ADD50R,3.700000X0.980000*%
%ADD51R,1.050000X2.200000*%
%ADD52R,1.600000X1.000000*%
%ADD53R,1.675000X1.675000*%
%ADD54R,0.550000X0.400000*%
%ADD55R,0.400000X0.550000*%
%ADD56R,1.287500X1.287500*%
%ADD57R,1.250000X1.250000*%
%ADD58R,0.800000X0.350000*%
%ADD59R,0.350000X0.800000*%
%ADD60R,0.900000X0.500000*%
G04 APERTURE END LIST*
D10*
D11*
X68900435Y-116000076D03*
X78400435Y-116000076D03*
X68900435Y-117100076D03*
X78400435Y-117100076D03*
X68900435Y-118200076D03*
X78400435Y-118200076D03*
X68900435Y-119300076D03*
X78400435Y-119300076D03*
X68900435Y-120400076D03*
X78400435Y-120400076D03*
X68900435Y-121500076D03*
X78400435Y-121500076D03*
X68900435Y-122600076D03*
X78400435Y-122600076D03*
D12*
X68900435Y-114900076D03*
X78400435Y-114900076D03*
X68900435Y-123700076D03*
X78400435Y-123700076D03*
D13*
X91550000Y-119450000D03*
X90050000Y-119450000D03*
D14*
X69300000Y-109750000D03*
X70200000Y-109750000D03*
X70350000Y-105950000D03*
X69450000Y-105950000D03*
D15*
X76050000Y-100200000D03*
X76050000Y-99200000D03*
X76050000Y-98200000D03*
X79550000Y-98200000D03*
X79550000Y-99200000D03*
X79550000Y-100200000D03*
D16*
X71800000Y-95400000D03*
X72900000Y-95400000D03*
D17*
X68300000Y-95550000D03*
X68300000Y-96650000D03*
X68200000Y-99350000D03*
X68200000Y-100450000D03*
D16*
X93450435Y-97900076D03*
X94550435Y-97900076D03*
D17*
X84350000Y-118150000D03*
X84350000Y-117050000D03*
D16*
X70600000Y-95400000D03*
X69500000Y-95400000D03*
X56250435Y-100300076D03*
X57350435Y-100300076D03*
D17*
X52200000Y-116950000D03*
X52200000Y-118050000D03*
D18*
X69509296Y-97497972D03*
X69509296Y-97997972D03*
X69509296Y-98497972D03*
X69509296Y-98997972D03*
X69509296Y-99497972D03*
X69509296Y-99997972D03*
X69509296Y-100497972D03*
D19*
X70409296Y-101397972D03*
X70909296Y-101397972D03*
X71409296Y-101397972D03*
X71909296Y-101397972D03*
X72409296Y-101397972D03*
D18*
X73309296Y-100497972D03*
X73309296Y-99997972D03*
X73309296Y-99497972D03*
X73309296Y-98997972D03*
X73309296Y-98497972D03*
X73309296Y-97997972D03*
X73309296Y-97497972D03*
D19*
X72409296Y-96597972D03*
X71909296Y-96597972D03*
X71409296Y-96597972D03*
X70909296Y-96597972D03*
X70409296Y-96597972D03*
D20*
X72071796Y-99910472D03*
X72071796Y-98085472D03*
X70746796Y-99910472D03*
X70746796Y-98085472D03*
D21*
X79100000Y-94250000D03*
X80700000Y-94250000D03*
D22*
X77850000Y-91100000D03*
X77850000Y-92000000D03*
D21*
X54450000Y-121800000D03*
X54450000Y-123400000D03*
X71800000Y-111300000D03*
X73400000Y-111300000D03*
X99050000Y-123650000D03*
X97450000Y-123650000D03*
D22*
X74550000Y-101300000D03*
X74550000Y-100400000D03*
X96800000Y-120750000D03*
X96800000Y-121650000D03*
X55750000Y-122500000D03*
X55750000Y-123400000D03*
D14*
X71550000Y-108300000D03*
X72450000Y-108300000D03*
D22*
X67450000Y-110700000D03*
X67450000Y-109800000D03*
D23*
X64650435Y-110500076D03*
X64650435Y-111900076D03*
X63550435Y-111900076D03*
X63550435Y-110500076D03*
X98300000Y-108850000D03*
X98300000Y-110250000D03*
X97200000Y-110250000D03*
X97200000Y-108850000D03*
D17*
X83550000Y-110700000D03*
X83550000Y-111800000D03*
D24*
X66100526Y-98249723D03*
X65600000Y-106750002D03*
X67150526Y-107399723D03*
D16*
X63400526Y-108149723D03*
X64500526Y-108149723D03*
D17*
X62600526Y-120449723D03*
X62600526Y-119349723D03*
X97350000Y-115550000D03*
X97350000Y-116650000D03*
D25*
X89000526Y-122499723D03*
D22*
X99350526Y-115449723D03*
X99350526Y-116349723D03*
D14*
X64400526Y-119399723D03*
X65300526Y-119399723D03*
D22*
X63750526Y-120399723D03*
X63750526Y-121299723D03*
X64850526Y-121299723D03*
X64850526Y-120399723D03*
D14*
X66600526Y-108749723D03*
X67500526Y-108749723D03*
D22*
X64850526Y-122149723D03*
X64850526Y-123049723D03*
D14*
X56550526Y-109849723D03*
X55650526Y-109849723D03*
X56550526Y-108699723D03*
X55650526Y-108699723D03*
D22*
X99350526Y-117199723D03*
X99350526Y-118099723D03*
X98300526Y-118449723D03*
X98300526Y-119349723D03*
X99400526Y-119499723D03*
X99400526Y-120399723D03*
X66300526Y-109799723D03*
X66300526Y-110699723D03*
D25*
X61000526Y-87499723D03*
D26*
X84400000Y-92650000D03*
X82400000Y-92650000D03*
D16*
X64500526Y-109199723D03*
X63400526Y-109199723D03*
X98300000Y-111550000D03*
X99400000Y-111550000D03*
D17*
X95950000Y-108750000D03*
X95950000Y-109850000D03*
X66000000Y-111850000D03*
X66000000Y-112950000D03*
D27*
X51750526Y-92834723D03*
X64250526Y-92834723D03*
D28*
X51750526Y-97999723D03*
X64250526Y-97999723D03*
D27*
X51750526Y-103164723D03*
X64250526Y-103164723D03*
D29*
X53075526Y-91269723D03*
X53075526Y-104729723D03*
D30*
X58000526Y-91269723D03*
X58000526Y-104729723D03*
D29*
X62925526Y-91269723D03*
X62925526Y-104729723D03*
D31*
X64250526Y-91269723D03*
X51750526Y-91269723D03*
X51750526Y-104729723D03*
X64250526Y-104729723D03*
D27*
X85850435Y-94105076D03*
X98350435Y-94105076D03*
D28*
X85850435Y-99270076D03*
X98350435Y-99270076D03*
D27*
X85850435Y-104435076D03*
X98350435Y-104435076D03*
D29*
X87175435Y-92540076D03*
X87175435Y-106000076D03*
D30*
X92100435Y-92540076D03*
X92100435Y-106000076D03*
D29*
X97025435Y-92540076D03*
X97025435Y-106000076D03*
D31*
X98350435Y-92540076D03*
X85850435Y-92540076D03*
X85850435Y-106000076D03*
X98350435Y-106000076D03*
D17*
X85650000Y-110000000D03*
X85650000Y-111100000D03*
X88350000Y-96750076D03*
X88350000Y-97850076D03*
X95550000Y-115500000D03*
X95550000Y-114400000D03*
D16*
X64600000Y-113300076D03*
X63500000Y-113300076D03*
D17*
X53700000Y-117650000D03*
X53700000Y-116550000D03*
X95350000Y-112300000D03*
X95350000Y-113400000D03*
D32*
X98350000Y-114400000D03*
X96850000Y-114400000D03*
D33*
X61350435Y-120950076D03*
X61350435Y-119450076D03*
D32*
X56050435Y-101750076D03*
X57550435Y-101750076D03*
X93450649Y-90554868D03*
X91950649Y-90554868D03*
D34*
X52000526Y-109749723D03*
X52000526Y-111749723D03*
D26*
X60550435Y-122700076D03*
X58550435Y-122700076D03*
X95500000Y-123900000D03*
X93500000Y-123900000D03*
D34*
X80600526Y-87399723D03*
X80600526Y-89399723D03*
D26*
X96850435Y-99900076D03*
X94850435Y-99900076D03*
X94500000Y-120900000D03*
X92500000Y-120900000D03*
D14*
X93400435Y-100250076D03*
X92500435Y-100250076D03*
D35*
X69600000Y-86400000D03*
X66800000Y-86400000D03*
D36*
X72538026Y-89040000D03*
D37*
X73700526Y-89400000D03*
X74350526Y-89400000D03*
X75000526Y-89400000D03*
X75650526Y-89400000D03*
D38*
X74163026Y-86740000D03*
X75838026Y-86740000D03*
D39*
X72088026Y-86740000D03*
X77913026Y-86740000D03*
D36*
X77463026Y-89040000D03*
D37*
X76300526Y-89400000D03*
D17*
X66000870Y-120300152D03*
X66000870Y-121400152D03*
X66000870Y-123650152D03*
X66000870Y-122550152D03*
D16*
X75320120Y-111569520D03*
X76420120Y-111569520D03*
D17*
X77570120Y-103619520D03*
X77570120Y-104719520D03*
D16*
X85450000Y-119550000D03*
X84350000Y-119550000D03*
D17*
X77550526Y-106899723D03*
X77550526Y-105799723D03*
D16*
X73620120Y-102369520D03*
X74720120Y-102369520D03*
D40*
X94500435Y-87700076D03*
X94500435Y-122500076D03*
X52500435Y-87700076D03*
X52500435Y-122500076D03*
D41*
X75020120Y-110489520D03*
D42*
X75620120Y-110489520D03*
X75020120Y-108649520D03*
X75620120Y-108649520D03*
D43*
X76540120Y-109269520D03*
X76540120Y-109869520D03*
D41*
X76220120Y-108649520D03*
D43*
X74700120Y-109269520D03*
X74700120Y-109869520D03*
D42*
X76220120Y-110489520D03*
D14*
X75620120Y-107469520D03*
X74720120Y-107469520D03*
D22*
X77670120Y-108619520D03*
X77670120Y-109519520D03*
X77670120Y-111619520D03*
X77670120Y-110719520D03*
D14*
X75720120Y-102369520D03*
X76620120Y-102369520D03*
D22*
X73570120Y-109219520D03*
X73570120Y-108319520D03*
D44*
X82150000Y-116100000D03*
X82150000Y-119000000D03*
D45*
X91600000Y-107350000D03*
X91600000Y-108550000D03*
X93000000Y-108550000D03*
X93000000Y-107350000D03*
D31*
X81500526Y-122499723D03*
X84500526Y-122499723D03*
D46*
X83000526Y-123974723D03*
X83000526Y-121024723D03*
D47*
X74000120Y-106474520D03*
X74400120Y-106474520D03*
X74800120Y-106474520D03*
X75200120Y-106474520D03*
X75600120Y-106474520D03*
X76000120Y-106474520D03*
D48*
X76500120Y-105974520D03*
X76500120Y-105574520D03*
X76500120Y-105174520D03*
X76500120Y-104774520D03*
X76500120Y-104374520D03*
X76500120Y-103974520D03*
D47*
X76000120Y-103474520D03*
X75600120Y-103474520D03*
X75200120Y-103474520D03*
X74800120Y-103474520D03*
X74400120Y-103474520D03*
X74000120Y-103474520D03*
D48*
X73500120Y-103974520D03*
X73500120Y-104374520D03*
X73500120Y-104774520D03*
X73500120Y-105174520D03*
X73500120Y-105574520D03*
X73500120Y-105974520D03*
D49*
X75400120Y-104539520D03*
X74600120Y-104539520D03*
X75400120Y-105409520D03*
X74600120Y-105409520D03*
D50*
X68200000Y-90735000D03*
X68200000Y-88365000D03*
X83800526Y-87414723D03*
X83800526Y-89784723D03*
D31*
X97500526Y-88999723D03*
X97500526Y-85999723D03*
D51*
X98975526Y-87499723D03*
X96025526Y-87499723D03*
D31*
X55500526Y-88999723D03*
X55500526Y-85999723D03*
D51*
X56975526Y-87499723D03*
X54025526Y-87499723D03*
D17*
X84400000Y-97550000D03*
X84400000Y-96450000D03*
D16*
X85359484Y-86005221D03*
X84259484Y-86005221D03*
D34*
X92559575Y-86054868D03*
X92559575Y-88054868D03*
D52*
X64900526Y-89199723D03*
X64900526Y-86199723D03*
X66150000Y-95350000D03*
X66150000Y-92350000D03*
D53*
X87900749Y-89084905D03*
X89575749Y-89084905D03*
X87900749Y-87409905D03*
X89575749Y-87409905D03*
D54*
X86488249Y-89547405D03*
X86488249Y-88897405D03*
X86488249Y-88247405D03*
X86488249Y-87597405D03*
X86488249Y-86947405D03*
D55*
X87438249Y-85997405D03*
X88088249Y-85997405D03*
X88738249Y-85997405D03*
X89388249Y-85997405D03*
X90038249Y-85997405D03*
D54*
X90988249Y-86947405D03*
X90988249Y-87597405D03*
X90988249Y-88247405D03*
X90988249Y-88897405D03*
X90988249Y-89547405D03*
D55*
X90038249Y-90497405D03*
X89388249Y-90497405D03*
X88738249Y-90497405D03*
X88088249Y-90497405D03*
X87438249Y-90497405D03*
D14*
X84350000Y-91250000D03*
X85250000Y-91250000D03*
X92046389Y-89304868D03*
X92946389Y-89304868D03*
D22*
X84400000Y-95450000D03*
X84400000Y-94550000D03*
D16*
X95950000Y-111100000D03*
X94850000Y-111100000D03*
D17*
X91000435Y-96750076D03*
X91000435Y-95650076D03*
X93900435Y-96750076D03*
X93900435Y-95650076D03*
D16*
X96250000Y-93750000D03*
X95150000Y-93750000D03*
X60100435Y-97700076D03*
X61200435Y-97700076D03*
D17*
X94350000Y-108450000D03*
X94350000Y-109550000D03*
X59300435Y-95750076D03*
X59300435Y-94650076D03*
X56500526Y-95749723D03*
X56500526Y-94649723D03*
X55500526Y-94649723D03*
X55500526Y-93549723D03*
D14*
X89850435Y-95650076D03*
X88950435Y-95650076D03*
X92900435Y-95650076D03*
X92000435Y-95650076D03*
D22*
X95150000Y-94750076D03*
X95150000Y-95650076D03*
D14*
X61200435Y-96300076D03*
X60300435Y-96300076D03*
X60300435Y-94650076D03*
X61200435Y-94650076D03*
X57450526Y-94650076D03*
X58350526Y-94650076D03*
D56*
X92181326Y-112668315D03*
X90893826Y-112668315D03*
X89606326Y-112668315D03*
X88318826Y-112668315D03*
X92181326Y-113955815D03*
X90893826Y-113955815D03*
X89606326Y-113955815D03*
X88318826Y-113955815D03*
X92181326Y-115243315D03*
X90893826Y-115243315D03*
X89606326Y-115243315D03*
X88318826Y-115243315D03*
X92181326Y-116530815D03*
X90893826Y-116530815D03*
X89606326Y-116530815D03*
X88318826Y-116530815D03*
D18*
X93650076Y-111849565D03*
X93650076Y-112349565D03*
X93650076Y-112849565D03*
X93650076Y-113349565D03*
X93650076Y-113849565D03*
X93650076Y-114349565D03*
X93650076Y-114849565D03*
X93650076Y-115349565D03*
X93650076Y-115849565D03*
X93650076Y-116349565D03*
X93650076Y-116849565D03*
X93650076Y-117349565D03*
D19*
X93000076Y-117999565D03*
X92500076Y-117999565D03*
X92000076Y-117999565D03*
X91500076Y-117999565D03*
X91000076Y-117999565D03*
X90500076Y-117999565D03*
X90000076Y-117999565D03*
X89500076Y-117999565D03*
X89000076Y-117999565D03*
X88500076Y-117999565D03*
X88000076Y-117999565D03*
X87500076Y-117999565D03*
D18*
X86850076Y-117349565D03*
X86850076Y-116849565D03*
X86850076Y-116349565D03*
X86850076Y-115849565D03*
X86850076Y-115349565D03*
X86850076Y-114849565D03*
X86850076Y-114349565D03*
X86850076Y-113849565D03*
X86850076Y-113349565D03*
X86850076Y-112849565D03*
X86850076Y-112349565D03*
X86850076Y-111849565D03*
D19*
X87500076Y-111199565D03*
X88000076Y-111199565D03*
X88500076Y-111199565D03*
X89000076Y-111199565D03*
X89500076Y-111199565D03*
X90000076Y-111199565D03*
X90500076Y-111199565D03*
X91000076Y-111199565D03*
X91500076Y-111199565D03*
X92000076Y-111199565D03*
X92500076Y-111199565D03*
X93000076Y-111199565D03*
D57*
X90050435Y-101850076D03*
X88800435Y-101850076D03*
X90050435Y-103100076D03*
X88800435Y-103100076D03*
D58*
X91425435Y-101500076D03*
X91425435Y-102150076D03*
X91425435Y-102800076D03*
X91425435Y-103450076D03*
D59*
X90400435Y-104475076D03*
X89750435Y-104475076D03*
X89100435Y-104475076D03*
X88450435Y-104475076D03*
D58*
X87425435Y-103450076D03*
X87425435Y-102800076D03*
X87425435Y-102150076D03*
X87425435Y-101500076D03*
D59*
X88450435Y-100475076D03*
X89100435Y-100475076D03*
X89750435Y-100475076D03*
X90400435Y-100475076D03*
D56*
X60231685Y-112568826D03*
X58944185Y-112568826D03*
X57656685Y-112568826D03*
X56369185Y-112568826D03*
X60231685Y-113856326D03*
X58944185Y-113856326D03*
X57656685Y-113856326D03*
X56369185Y-113856326D03*
X60231685Y-115143826D03*
X58944185Y-115143826D03*
X57656685Y-115143826D03*
X56369185Y-115143826D03*
X60231685Y-116431326D03*
X58944185Y-116431326D03*
X57656685Y-116431326D03*
X56369185Y-116431326D03*
D18*
X61700435Y-111750076D03*
X61700435Y-112250076D03*
X61700435Y-112750076D03*
X61700435Y-113250076D03*
X61700435Y-113750076D03*
X61700435Y-114250076D03*
X61700435Y-114750076D03*
X61700435Y-115250076D03*
X61700435Y-115750076D03*
X61700435Y-116250076D03*
X61700435Y-116750076D03*
X61700435Y-117250076D03*
D19*
X61050435Y-117900076D03*
X60550435Y-117900076D03*
X60050435Y-117900076D03*
X59550435Y-117900076D03*
X59050435Y-117900076D03*
X58550435Y-117900076D03*
X58050435Y-117900076D03*
X57550435Y-117900076D03*
X57050435Y-117900076D03*
X56550435Y-117900076D03*
X56050435Y-117900076D03*
X55550435Y-117900076D03*
D18*
X54900435Y-117250076D03*
X54900435Y-116750076D03*
X54900435Y-116250076D03*
X54900435Y-115750076D03*
X54900435Y-115250076D03*
X54900435Y-114750076D03*
X54900435Y-114250076D03*
X54900435Y-113750076D03*
X54900435Y-113250076D03*
X54900435Y-112750076D03*
X54900435Y-112250076D03*
X54900435Y-111750076D03*
D19*
X55550435Y-111100076D03*
X56050435Y-111100076D03*
X56550435Y-111100076D03*
X57050435Y-111100076D03*
X57550435Y-111100076D03*
X58050435Y-111100076D03*
X58550435Y-111100076D03*
X59050435Y-111100076D03*
X59550435Y-111100076D03*
X60050435Y-111100076D03*
X60550435Y-111100076D03*
X61050435Y-111100076D03*
D57*
X60250435Y-101600076D03*
X61500435Y-101600076D03*
X60250435Y-100350076D03*
X61500435Y-100350076D03*
D58*
X58875435Y-101950076D03*
X58875435Y-101300076D03*
X58875435Y-100650076D03*
X58875435Y-100000076D03*
D59*
X59900435Y-98975076D03*
X60550435Y-98975076D03*
X61200435Y-98975076D03*
X61850435Y-98975076D03*
D58*
X62875435Y-100000076D03*
X62875435Y-100650076D03*
X62875435Y-101300076D03*
X62875435Y-101950076D03*
D59*
X61850435Y-102975076D03*
X61200435Y-102975076D03*
X60550435Y-102975076D03*
X59900435Y-102975076D03*
D17*
X92050435Y-96800076D03*
X92050435Y-97900076D03*
X90300000Y-108550000D03*
X90300000Y-107450000D03*
X92600435Y-103650076D03*
X92600435Y-104750076D03*
X94900435Y-101450076D03*
X94900435Y-102550076D03*
D16*
X87350435Y-99300076D03*
X88450435Y-99300076D03*
D17*
X89800435Y-96750076D03*
X89800435Y-97850076D03*
X85650000Y-117450000D03*
X85650000Y-116350000D03*
D16*
X93500435Y-98950076D03*
X92400435Y-98950076D03*
X93500000Y-119299474D03*
X92400000Y-119299474D03*
D17*
X62200435Y-108750076D03*
X62200435Y-109850076D03*
D60*
X58450435Y-119850076D03*
X58450435Y-121350076D03*
D13*
X54200000Y-106300000D03*
X55700000Y-106300000D03*
D60*
X51800526Y-114549723D03*
X51800526Y-113049723D03*
D14*
X66567565Y-99936044D03*
X65667565Y-99936044D03*
X66584000Y-101293060D03*
X65684000Y-101293060D03*
X66584000Y-102563060D03*
X65684000Y-102563060D03*
X63150435Y-97700076D03*
X62250435Y-97700076D03*
X83711000Y-101156060D03*
X84611000Y-101156060D03*
X83711000Y-102256060D03*
X84611000Y-102256060D03*
X83711000Y-103356060D03*
X84611000Y-103356060D03*
X94700435Y-103700076D03*
X95600435Y-103700076D03*
D16*
X56550435Y-99000076D03*
X57650435Y-99000076D03*
X58750435Y-97700076D03*
X57650435Y-97700076D03*
D17*
X53700000Y-110650000D03*
X53700000Y-111750000D03*
D13*
X91250435Y-99150076D03*
X89750435Y-99150076D03*
D16*
X64600000Y-114300000D03*
X63500000Y-114300000D03*
D17*
X59850435Y-121050076D03*
X59850435Y-119950076D03*
D22*
X89200000Y-107650000D03*
X89200000Y-108550000D03*
X93700435Y-102800076D03*
X93700435Y-103700076D03*
D60*
X96850435Y-101450076D03*
X96850435Y-102950076D03*
D14*
X93400435Y-101550076D03*
X92500435Y-101550076D03*
D13*
X97900000Y-112900000D03*
X99400000Y-112900000D03*
M02*
