G04 #@! TF.GenerationSoftware,KiCad,Pcbnew,(2017-02-19 revision a416f3a4e)-master*
G04 #@! TF.CreationDate,2017-03-09T22:42:25-08:00*
G04 #@! TF.ProjectId,Flight Computer,466C6967687420436F6D70757465722E,rev?*
G04 #@! TF.FileFunction,Copper,L2,Inr,Plane*
G04 #@! TF.FilePolarity,Positive*
%FSLAX46Y46*%
G04 Gerber Fmt 4.6, Leading zero omitted, Abs format (unit mm)*
G04 Created by KiCad (PCBNEW (2017-02-19 revision a416f3a4e)-master) date 03/09/17 22:42:25*
%MOMM*%
%LPD*%
G01*
G04 APERTURE LIST*
%ADD10C,0.150000*%
%ADD11C,0.625000*%
%ADD12C,0.250000*%
G04 APERTURE END LIST*
D10*
D11*
X80450000Y-97250000D03*
X79400000Y-102650000D03*
X78150000Y-101300000D03*
X69050000Y-96600000D03*
X68850000Y-100500000D03*
X73600000Y-101800000D03*
X89200000Y-94799996D03*
X86000000Y-91600000D03*
X95250000Y-121500000D03*
X62700000Y-108777432D03*
X53200000Y-110150000D03*
X57700000Y-92500000D03*
X89100526Y-98399723D03*
X50700000Y-118250000D03*
X74540000Y-111562490D03*
X77000000Y-123700000D03*
X77000526Y-121549723D03*
X53400000Y-101900000D03*
X65544178Y-97540594D03*
X59200000Y-90300000D03*
X54400000Y-91000000D03*
X52900000Y-98000000D03*
X97000000Y-96800000D03*
X99300000Y-104500000D03*
X84400000Y-105000000D03*
X97100000Y-91800000D03*
X94800000Y-91400000D03*
X87200000Y-91600000D03*
X66415299Y-96715299D03*
X80299990Y-118400000D03*
X65700000Y-90650000D03*
X60231685Y-115143826D03*
X60231685Y-116431326D03*
X60550000Y-124250000D03*
X55150000Y-100150000D03*
X55100435Y-101827521D03*
X88459847Y-114039799D03*
X50700000Y-97500000D03*
X50700000Y-98300000D03*
X99300000Y-102300000D03*
X99300000Y-101500000D03*
X97050000Y-93299980D03*
X93650000Y-85700008D03*
X94800000Y-90542406D03*
X62650526Y-103459704D03*
X54299984Y-110650000D03*
X58900000Y-102800000D03*
X71750000Y-114450000D03*
X57300000Y-90300000D03*
X57300000Y-89500000D03*
X89600000Y-115450004D03*
X85650000Y-118575069D03*
X88500000Y-115450000D03*
X89560506Y-87425148D03*
X79497500Y-92311250D03*
X80750000Y-95500000D03*
X94794930Y-119355076D03*
X96032471Y-115497608D03*
X95800000Y-112200004D03*
X96500000Y-123750010D03*
X88750000Y-110250000D03*
X88800000Y-103050000D03*
X92600000Y-105400000D03*
X90900000Y-107449988D03*
X91200000Y-97550000D03*
X61100000Y-92550004D03*
X62650000Y-94950000D03*
X61750000Y-100100000D03*
X61550020Y-101850000D03*
X81400526Y-121024723D03*
X60600000Y-120950000D03*
X60000000Y-101850000D03*
X60000000Y-100100000D03*
X84100000Y-109650000D03*
X57750000Y-112700000D03*
X57656676Y-116537510D03*
X53700002Y-118250000D03*
X58944185Y-116431326D03*
X89606326Y-113955815D03*
X65973070Y-119500000D03*
X85500000Y-88500000D03*
X94800000Y-98750000D03*
X89606326Y-112668315D03*
X99400000Y-110800000D03*
X95950000Y-110500000D03*
X84500526Y-121024723D03*
X94800518Y-96749723D03*
X81400526Y-123999723D03*
X64900526Y-90099723D03*
X78750000Y-90800000D03*
X71350526Y-89049723D03*
X79800526Y-86199723D03*
X84500526Y-123974723D03*
X77000526Y-119799723D03*
X58944185Y-115143826D03*
X57656685Y-115143826D03*
X58944185Y-113856326D03*
X57656685Y-113856326D03*
X56975526Y-85999723D03*
X54025526Y-85999723D03*
X98975526Y-85974723D03*
X96025526Y-85999723D03*
X66000526Y-113749723D03*
X55100526Y-95749723D03*
X57900526Y-95749723D03*
X65150000Y-118100000D03*
X66000870Y-124400144D03*
X78470120Y-103619520D03*
X76320120Y-107769520D03*
X59425435Y-97700076D03*
X87900749Y-87409905D03*
X87900749Y-89084905D03*
X89575749Y-89084905D03*
X90050435Y-101850076D03*
X55100435Y-99000076D03*
X95600435Y-102550076D03*
X88800435Y-101850076D03*
X99400000Y-106900000D03*
X58450000Y-120887510D03*
X62650000Y-113500000D03*
X61800000Y-111237526D03*
X63500000Y-114850000D03*
X52949034Y-111585276D03*
X53047544Y-116600000D03*
X60600435Y-119550076D03*
X68300000Y-98500000D03*
X67100000Y-100600000D03*
X88100000Y-91200000D03*
X55750000Y-121650000D03*
X99400000Y-113700000D03*
X99400000Y-100700000D03*
X99400000Y-99900000D03*
X50700000Y-95900000D03*
X50700000Y-96700000D03*
X96250000Y-89400008D03*
X54950000Y-109950000D03*
X54350000Y-92962500D03*
X81500000Y-118077488D03*
X95850000Y-97300000D03*
X84350000Y-99950000D03*
X82934999Y-101450000D03*
X77225000Y-102375000D03*
X54200000Y-107450000D03*
X84300000Y-110805023D03*
X65589989Y-110265784D03*
X78750000Y-93200000D03*
X84564989Y-88400768D03*
X81750000Y-90700000D03*
X78320120Y-105819520D03*
X66250000Y-118100000D03*
X50700526Y-114599723D03*
X90700526Y-91099723D03*
X79000526Y-88449723D03*
X87650000Y-98400000D03*
X77670120Y-110119520D03*
X74060120Y-107469520D03*
X67000870Y-121750152D03*
X85100000Y-116049999D03*
X97230809Y-112202127D03*
X95950000Y-107900000D03*
X96149998Y-114400000D03*
X92400000Y-119950000D03*
X84400000Y-93747544D03*
X89400000Y-91212490D03*
X69550000Y-89650000D03*
X68200000Y-89600000D03*
X92362490Y-87400000D03*
X91650000Y-87597405D03*
X86649990Y-90500000D03*
X66900000Y-97500000D03*
X64327950Y-115055058D03*
X60800000Y-90500004D03*
X68600000Y-86400000D03*
X76250526Y-88199723D03*
X72350000Y-90750000D03*
X64300000Y-95627221D03*
X76675526Y-90949723D03*
X78950526Y-96699723D03*
X78950526Y-95899723D03*
X90050000Y-120100000D03*
X96250247Y-113403900D03*
X76000000Y-117000020D03*
X87750000Y-94900000D03*
X82000000Y-110150000D03*
X81410001Y-96289999D03*
X80600000Y-91250000D03*
X65550000Y-109450000D03*
X73900000Y-91800000D03*
X65550000Y-96750000D03*
X82000000Y-111600000D03*
X84300000Y-112212488D03*
X62150000Y-105702245D03*
X59500000Y-105702237D03*
X62500000Y-107600000D03*
X59500000Y-108300000D03*
X63046085Y-106401390D03*
X59300000Y-107150000D03*
X66100526Y-98249723D03*
X76650000Y-103300000D03*
X67150526Y-107399723D03*
X65959017Y-108759462D03*
X68199998Y-103850000D03*
X70541831Y-112200000D03*
X71060721Y-105964028D03*
X72100000Y-109750000D03*
X72650002Y-105750000D03*
X73200000Y-117300000D03*
X81350000Y-107250000D03*
X89864997Y-109750000D03*
X57650000Y-110350000D03*
X58424988Y-108350000D03*
X69250000Y-114050000D03*
X72350000Y-117300000D03*
X80500000Y-107250000D03*
X90650000Y-109750000D03*
X66750000Y-111800000D03*
X57400000Y-119950000D03*
X98950000Y-121500000D03*
X68510147Y-105839855D03*
X70450000Y-122750000D03*
X64100000Y-124250000D03*
X58824797Y-118988907D03*
X98550000Y-122400000D03*
X99350000Y-118750000D03*
X74550000Y-99200000D03*
X54977968Y-108700000D03*
X69050000Y-110550000D03*
X74600000Y-117500000D03*
X75800000Y-118700000D03*
X67950000Y-105100000D03*
X55199996Y-107500000D03*
X72800000Y-112800000D03*
X80250000Y-108550000D03*
X91400000Y-109400000D03*
X67450000Y-112300000D03*
X84100000Y-106400000D03*
X64849996Y-123700000D03*
X67501056Y-108102117D03*
X50700000Y-109500000D03*
X57450000Y-120800000D03*
X66150526Y-107799723D03*
X66800526Y-119449723D03*
X82827488Y-110450000D03*
X94899996Y-105650000D03*
X75625000Y-109575000D03*
X82800000Y-107800004D03*
X94900000Y-104700000D03*
X77650000Y-107825000D03*
X73800000Y-118700000D03*
X53000000Y-108250000D03*
X65600000Y-106750002D03*
X87339854Y-118689854D03*
X86500000Y-119150000D03*
X53050000Y-118900000D03*
X54422502Y-117700000D03*
X93951510Y-88764364D03*
X91550526Y-88899723D03*
X95058137Y-88765707D03*
X91000000Y-86050028D03*
X65543688Y-99036855D03*
X83550006Y-112500000D03*
X59800526Y-92549723D03*
X94821842Y-114485754D03*
X94787460Y-115270435D03*
X95739255Y-116272512D03*
X95700000Y-117100001D03*
X96012478Y-120647743D03*
X94754751Y-117879943D03*
X96051088Y-119014989D03*
X96050000Y-119849992D03*
X54052507Y-115788738D03*
X50700000Y-116700000D03*
X52855071Y-115105070D03*
X53545563Y-114235207D03*
X52823989Y-113926054D03*
X50700000Y-113500000D03*
X53796247Y-112837510D03*
X53100000Y-112400000D03*
X50750000Y-120700000D03*
X50750000Y-119900000D03*
X54450000Y-120550000D03*
X55100000Y-119900000D03*
X52850000Y-120400004D03*
X63784489Y-115621519D03*
X64600000Y-116200006D03*
X64100000Y-116850000D03*
X63515656Y-118604799D03*
X63300000Y-117850000D03*
X62470405Y-117749325D03*
X61700000Y-117900000D03*
X62700000Y-118500000D03*
X50700000Y-111100000D03*
X50700006Y-110300000D03*
X59600000Y-109850000D03*
X58700000Y-85900000D03*
X63550000Y-86100000D03*
X91800000Y-124062490D03*
X98150000Y-124300000D03*
X90800000Y-124400000D03*
X93100000Y-122100000D03*
X90800000Y-122800000D03*
X90800000Y-123600006D03*
X91450000Y-120400000D03*
X88850000Y-120457208D03*
X80850000Y-99000000D03*
X99322937Y-93500000D03*
X81500000Y-99550000D03*
X99322937Y-94300000D03*
X80850000Y-100100000D03*
X99322937Y-95100000D03*
X76750000Y-96250000D03*
X99322949Y-92700000D03*
X81500000Y-100650000D03*
X99300000Y-95900000D03*
X75550002Y-95700000D03*
X99305666Y-91913496D03*
X80800000Y-101200000D03*
X99300000Y-96700000D03*
X81499764Y-101787510D03*
X99322937Y-97485003D03*
X76100000Y-92900000D03*
X99350000Y-91100000D03*
X65627931Y-93732224D03*
X52800000Y-93500000D03*
X74050000Y-90800000D03*
X94859346Y-110307778D03*
X85743093Y-115577498D03*
X95150000Y-109250000D03*
X84550000Y-115350000D03*
X95150000Y-108400000D03*
X81600000Y-113350000D03*
X96950000Y-107900000D03*
X82650000Y-113350004D03*
X96950000Y-107050000D03*
X83553126Y-113653750D03*
X94877500Y-106650000D03*
X84350000Y-113425000D03*
X69200000Y-108700000D03*
X50700000Y-108700000D03*
X69200000Y-107700000D03*
X50700000Y-107900000D03*
X69200000Y-106850000D03*
X50700000Y-107100000D03*
X70350000Y-107200000D03*
X50700000Y-106300000D03*
X50700000Y-105500000D03*
X71659363Y-107221483D03*
X71850000Y-105700000D03*
X50700000Y-104700000D03*
X50700000Y-103900000D03*
X69900000Y-104350000D03*
X50700000Y-103100000D03*
X70700000Y-104350000D03*
X50700000Y-102300000D03*
X71500000Y-104050000D03*
X50700000Y-101500000D03*
X72350000Y-103750000D03*
X50700000Y-100700000D03*
X72300000Y-102950000D03*
X70800000Y-102400000D03*
X50700000Y-99900000D03*
X78800000Y-110000000D03*
X97150000Y-103700000D03*
X81350000Y-105350000D03*
X78800012Y-110900000D03*
X97050000Y-104500000D03*
X81350000Y-106162500D03*
D12*
G36*
X58159869Y-85538414D02*
X58062611Y-85772637D01*
X58062390Y-86026250D01*
X58159239Y-86260643D01*
X58338414Y-86440131D01*
X58572637Y-86537389D01*
X58826250Y-86537610D01*
X59060643Y-86440761D01*
X59240131Y-86261586D01*
X59337389Y-86027363D01*
X59337610Y-85773750D01*
X59240761Y-85539357D01*
X59126679Y-85425076D01*
X90843115Y-85425076D01*
X90639357Y-85509267D01*
X90459869Y-85688442D01*
X90362611Y-85922665D01*
X90362390Y-86176278D01*
X90459239Y-86410671D01*
X90638414Y-86590159D01*
X90872637Y-86687417D01*
X91126250Y-86687638D01*
X91360643Y-86590789D01*
X91540131Y-86411614D01*
X91637389Y-86177391D01*
X91637610Y-85923778D01*
X91540761Y-85689385D01*
X91361586Y-85509897D01*
X91157315Y-85425076D01*
X99575435Y-85425076D01*
X99575435Y-90503334D01*
X99477363Y-90462611D01*
X99223750Y-90462390D01*
X98989357Y-90559239D01*
X98809869Y-90738414D01*
X98712611Y-90972637D01*
X98712390Y-91226250D01*
X98809239Y-91460643D01*
X98833059Y-91484504D01*
X98765535Y-91551910D01*
X98668277Y-91786133D01*
X98668056Y-92039746D01*
X98764905Y-92274139D01*
X98805983Y-92315289D01*
X98782818Y-92338414D01*
X98685560Y-92572637D01*
X98685339Y-92826250D01*
X98782188Y-93060643D01*
X98821382Y-93099905D01*
X98782806Y-93138414D01*
X98685548Y-93372637D01*
X98685327Y-93626250D01*
X98782176Y-93860643D01*
X98821376Y-93899911D01*
X98782806Y-93938414D01*
X98685548Y-94172637D01*
X98685327Y-94426250D01*
X98782176Y-94660643D01*
X98821376Y-94699911D01*
X98782806Y-94738414D01*
X98685548Y-94972637D01*
X98685327Y-95226250D01*
X98782176Y-95460643D01*
X98809927Y-95488443D01*
X98759869Y-95538414D01*
X98662611Y-95772637D01*
X98662390Y-96026250D01*
X98759239Y-96260643D01*
X98798439Y-96299911D01*
X98759869Y-96338414D01*
X98662611Y-96572637D01*
X98662390Y-96826250D01*
X98759239Y-97060643D01*
X98802389Y-97103868D01*
X98782806Y-97123417D01*
X98685548Y-97357640D01*
X98685327Y-97611253D01*
X98782176Y-97845646D01*
X98961351Y-98025134D01*
X99195574Y-98122392D01*
X99449187Y-98122613D01*
X99575435Y-98070449D01*
X99575435Y-99282572D01*
X99527363Y-99262611D01*
X99273750Y-99262390D01*
X99039357Y-99359239D01*
X98859869Y-99538414D01*
X98762611Y-99772637D01*
X98762390Y-100026250D01*
X98859239Y-100260643D01*
X98898439Y-100299911D01*
X98859869Y-100338414D01*
X98762611Y-100572637D01*
X98762390Y-100826250D01*
X98859239Y-101060643D01*
X99038414Y-101240131D01*
X99272637Y-101337389D01*
X99526250Y-101337610D01*
X99575435Y-101317287D01*
X99575435Y-113082572D01*
X99527363Y-113062611D01*
X99273750Y-113062390D01*
X99039357Y-113159239D01*
X98859869Y-113338414D01*
X98762611Y-113572637D01*
X98762390Y-113826250D01*
X98859239Y-114060643D01*
X99038414Y-114240131D01*
X99272637Y-114337389D01*
X99526250Y-114337610D01*
X99575435Y-114317287D01*
X99575435Y-118153334D01*
X99477363Y-118112611D01*
X99223750Y-118112390D01*
X98989357Y-118209239D01*
X98809869Y-118388414D01*
X98712611Y-118622637D01*
X98712390Y-118876250D01*
X98809239Y-119110643D01*
X98988414Y-119290131D01*
X99222637Y-119387389D01*
X99476250Y-119387610D01*
X99575435Y-119346628D01*
X99575435Y-121344284D01*
X99490761Y-121139357D01*
X99311586Y-120959869D01*
X99077363Y-120862611D01*
X98823750Y-120862390D01*
X98589357Y-120959239D01*
X98409869Y-121138414D01*
X98312611Y-121372637D01*
X98312390Y-121626250D01*
X98376678Y-121781840D01*
X98189357Y-121859239D01*
X98009869Y-122038414D01*
X97912611Y-122272637D01*
X97912390Y-122526250D01*
X98009239Y-122760643D01*
X98188414Y-122940131D01*
X98422637Y-123037389D01*
X98676250Y-123037610D01*
X98910643Y-122940761D01*
X99090131Y-122761586D01*
X99187389Y-122527363D01*
X99187610Y-122273750D01*
X99123322Y-122118160D01*
X99310643Y-122040761D01*
X99490131Y-121861586D01*
X99575435Y-121656151D01*
X99575435Y-124575076D01*
X98726053Y-124575076D01*
X98787389Y-124427363D01*
X98787610Y-124173750D01*
X98690761Y-123939357D01*
X98511586Y-123759869D01*
X98277363Y-123662611D01*
X98023750Y-123662390D01*
X97789357Y-123759239D01*
X97609869Y-123938414D01*
X97512611Y-124172637D01*
X97512390Y-124426250D01*
X97573884Y-124575076D01*
X92188867Y-124575076D01*
X92340131Y-124424076D01*
X92437389Y-124189853D01*
X92437610Y-123936240D01*
X92340761Y-123701847D01*
X92161586Y-123522359D01*
X91927363Y-123425101D01*
X91673750Y-123424880D01*
X91439357Y-123521729D01*
X91437567Y-123523516D01*
X91437610Y-123473756D01*
X91340761Y-123239363D01*
X91301558Y-123200092D01*
X91340131Y-123161586D01*
X91437389Y-122927363D01*
X91437610Y-122673750D01*
X91340761Y-122439357D01*
X91161586Y-122259869D01*
X91080623Y-122226250D01*
X92462390Y-122226250D01*
X92559239Y-122460643D01*
X92738414Y-122640131D01*
X92972637Y-122737389D01*
X93226250Y-122737610D01*
X93450308Y-122645031D01*
X93450253Y-122708018D01*
X93609769Y-123094076D01*
X93904881Y-123389704D01*
X94290661Y-123549894D01*
X94708377Y-123550258D01*
X95094435Y-123390742D01*
X95390063Y-123095630D01*
X95550253Y-122709850D01*
X95550617Y-122292134D01*
X95391101Y-121906076D01*
X95095989Y-121610448D01*
X94710209Y-121450258D01*
X94292493Y-121449894D01*
X93906435Y-121609410D01*
X93680330Y-121835121D01*
X93640761Y-121739357D01*
X93461586Y-121559869D01*
X93227363Y-121462611D01*
X92973750Y-121462390D01*
X92739357Y-121559239D01*
X92559869Y-121738414D01*
X92462611Y-121972637D01*
X92462390Y-122226250D01*
X91080623Y-122226250D01*
X90927363Y-122162611D01*
X90673750Y-122162390D01*
X90575786Y-122202868D01*
X90575799Y-122187811D01*
X90336525Y-121608723D01*
X89893857Y-121165282D01*
X89315187Y-120924997D01*
X89283770Y-120924970D01*
X89390131Y-120818794D01*
X89487389Y-120584571D01*
X89487543Y-120408134D01*
X89509239Y-120460643D01*
X89688414Y-120640131D01*
X89922637Y-120737389D01*
X90176250Y-120737610D01*
X90410643Y-120640761D01*
X90525354Y-120526250D01*
X90812390Y-120526250D01*
X90909239Y-120760643D01*
X91088414Y-120940131D01*
X91322637Y-121037389D01*
X91576250Y-121037610D01*
X91810643Y-120940761D01*
X91977702Y-120773993D01*
X95374868Y-120773993D01*
X95471717Y-121008386D01*
X95650892Y-121187874D01*
X95885115Y-121285132D01*
X96138728Y-121285353D01*
X96373121Y-121188504D01*
X96552609Y-121009329D01*
X96649867Y-120775106D01*
X96650088Y-120521493D01*
X96553239Y-120287100D01*
X96533892Y-120267719D01*
X96590131Y-120211578D01*
X96687389Y-119977355D01*
X96687610Y-119723742D01*
X96590761Y-119489349D01*
X96534603Y-119433093D01*
X96591219Y-119376575D01*
X96688477Y-119142352D01*
X96688698Y-118888739D01*
X96591849Y-118654346D01*
X96412674Y-118474858D01*
X96178451Y-118377600D01*
X95924838Y-118377379D01*
X95690445Y-118474228D01*
X95510957Y-118653403D01*
X95413699Y-118887626D01*
X95413478Y-119141239D01*
X95510327Y-119375632D01*
X95566485Y-119431888D01*
X95509869Y-119488406D01*
X95412611Y-119722629D01*
X95412390Y-119976242D01*
X95509239Y-120210635D01*
X95528586Y-120230016D01*
X95472347Y-120286157D01*
X95375089Y-120520380D01*
X95374868Y-120773993D01*
X91977702Y-120773993D01*
X91990131Y-120761586D01*
X92087389Y-120527363D01*
X92087404Y-120510473D01*
X92272637Y-120587389D01*
X92526250Y-120587610D01*
X92760643Y-120490761D01*
X92940131Y-120311586D01*
X93037389Y-120077363D01*
X93037610Y-119823750D01*
X92940761Y-119589357D01*
X92761586Y-119409869D01*
X92527363Y-119312611D01*
X92273750Y-119312390D01*
X92039357Y-119409239D01*
X91859869Y-119588414D01*
X91762611Y-119822637D01*
X91762596Y-119839527D01*
X91577363Y-119762611D01*
X91323750Y-119762390D01*
X91089357Y-119859239D01*
X90909869Y-120038414D01*
X90812611Y-120272637D01*
X90812390Y-120526250D01*
X90525354Y-120526250D01*
X90590131Y-120461586D01*
X90687389Y-120227363D01*
X90687610Y-119973750D01*
X90590761Y-119739357D01*
X90411586Y-119559869D01*
X90177363Y-119462611D01*
X89923750Y-119462390D01*
X89689357Y-119559239D01*
X89509869Y-119738414D01*
X89412611Y-119972637D01*
X89412457Y-120149074D01*
X89390761Y-120096565D01*
X89211586Y-119917077D01*
X88977363Y-119819819D01*
X88723750Y-119819598D01*
X88489357Y-119916447D01*
X88309869Y-120095622D01*
X88212611Y-120329845D01*
X88212390Y-120583458D01*
X88309239Y-120817851D01*
X88488414Y-120997339D01*
X88500282Y-121002267D01*
X88109526Y-121163724D01*
X87666085Y-121606392D01*
X87425800Y-122185062D01*
X87425253Y-122811635D01*
X87664527Y-123390723D01*
X88107195Y-123834164D01*
X88685865Y-124074449D01*
X89312438Y-124074996D01*
X89891526Y-123835722D01*
X90162530Y-123565190D01*
X90162390Y-123726256D01*
X90259239Y-123960649D01*
X90298436Y-123999914D01*
X90259869Y-124038414D01*
X90162611Y-124272637D01*
X90162390Y-124526250D01*
X90182564Y-124575076D01*
X64655291Y-124575076D01*
X64737389Y-124377363D01*
X64737424Y-124337402D01*
X64976246Y-124337610D01*
X65210639Y-124240761D01*
X65390127Y-124061586D01*
X65487385Y-123827363D01*
X65487606Y-123573750D01*
X65390757Y-123339357D01*
X65211582Y-123159869D01*
X64977359Y-123062611D01*
X64723746Y-123062390D01*
X64489353Y-123159239D01*
X64309865Y-123338414D01*
X64212607Y-123572637D01*
X64212572Y-123612598D01*
X63973750Y-123612390D01*
X63739357Y-123709239D01*
X63559869Y-123888414D01*
X63462611Y-124122637D01*
X63462390Y-124376250D01*
X63544543Y-124575076D01*
X50425435Y-124575076D01*
X50425435Y-122708018D01*
X51450253Y-122708018D01*
X51609769Y-123094076D01*
X51904881Y-123389704D01*
X52290661Y-123549894D01*
X52708377Y-123550258D01*
X53094435Y-123390742D01*
X53390063Y-123095630D01*
X53481157Y-122876250D01*
X69812390Y-122876250D01*
X69909239Y-123110643D01*
X70088414Y-123290131D01*
X70322637Y-123387389D01*
X70576250Y-123387610D01*
X70810643Y-123290761D01*
X70990131Y-123111586D01*
X71087389Y-122877363D01*
X71087610Y-122623750D01*
X70990761Y-122389357D01*
X70811586Y-122209869D01*
X70577363Y-122112611D01*
X70323750Y-122112390D01*
X70089357Y-122209239D01*
X69909869Y-122388414D01*
X69812611Y-122622637D01*
X69812390Y-122876250D01*
X53481157Y-122876250D01*
X53550253Y-122709850D01*
X53550617Y-122292134D01*
X53391101Y-121906076D01*
X53261502Y-121776250D01*
X55112390Y-121776250D01*
X55209239Y-122010643D01*
X55388414Y-122190131D01*
X55622637Y-122287389D01*
X55876250Y-122287610D01*
X56110643Y-122190761D01*
X56290131Y-122011586D01*
X56346264Y-121876402D01*
X66363260Y-121876402D01*
X66460109Y-122110795D01*
X66639284Y-122290283D01*
X66873507Y-122387541D01*
X67127120Y-122387762D01*
X67361513Y-122290913D01*
X67541001Y-122111738D01*
X67638259Y-121877515D01*
X67638480Y-121623902D01*
X67541631Y-121389509D01*
X67362456Y-121210021D01*
X67128233Y-121112763D01*
X66874620Y-121112542D01*
X66640227Y-121209391D01*
X66460739Y-121388566D01*
X66363481Y-121622789D01*
X66363260Y-121876402D01*
X56346264Y-121876402D01*
X56387389Y-121777363D01*
X56387610Y-121523750D01*
X56290761Y-121289357D01*
X56111586Y-121109869D01*
X55877363Y-121012611D01*
X55623750Y-121012390D01*
X55389357Y-121109239D01*
X55209869Y-121288414D01*
X55112611Y-121522637D01*
X55112390Y-121776250D01*
X53261502Y-121776250D01*
X53095989Y-121610448D01*
X52710209Y-121450258D01*
X52292493Y-121449894D01*
X51906435Y-121609410D01*
X51610807Y-121904522D01*
X51450617Y-122290302D01*
X51450253Y-122708018D01*
X50425435Y-122708018D01*
X50425435Y-121255503D01*
X50622637Y-121337389D01*
X50876250Y-121337610D01*
X51110643Y-121240761D01*
X51290131Y-121061586D01*
X51387389Y-120827363D01*
X51387610Y-120573750D01*
X51367986Y-120526254D01*
X52212390Y-120526254D01*
X52309239Y-120760647D01*
X52488414Y-120940135D01*
X52722637Y-121037393D01*
X52976250Y-121037614D01*
X53210643Y-120940765D01*
X53390131Y-120761590D01*
X53425567Y-120676250D01*
X53812390Y-120676250D01*
X53909239Y-120910643D01*
X54088414Y-121090131D01*
X54322637Y-121187389D01*
X54576250Y-121187610D01*
X54810643Y-121090761D01*
X54990131Y-120911586D01*
X55087389Y-120677363D01*
X55087511Y-120537489D01*
X55226250Y-120537610D01*
X55460643Y-120440761D01*
X55640131Y-120261586D01*
X55717089Y-120076250D01*
X56762390Y-120076250D01*
X56859239Y-120310643D01*
X56948395Y-120399955D01*
X56909869Y-120438414D01*
X56812611Y-120672637D01*
X56812390Y-120926250D01*
X56909239Y-121160643D01*
X57088414Y-121340131D01*
X57322637Y-121437389D01*
X57576250Y-121437610D01*
X57810643Y-121340761D01*
X57907538Y-121244035D01*
X57909239Y-121248153D01*
X58088414Y-121427641D01*
X58322637Y-121524899D01*
X58576250Y-121525120D01*
X58810643Y-121428271D01*
X58990131Y-121249096D01*
X59087389Y-121014873D01*
X59087610Y-120761260D01*
X58990761Y-120526867D01*
X58811586Y-120347379D01*
X58577363Y-120250121D01*
X58323750Y-120249900D01*
X58089357Y-120346749D01*
X57992462Y-120443475D01*
X57990761Y-120439357D01*
X57901605Y-120350045D01*
X57940131Y-120311586D01*
X58037389Y-120077363D01*
X58037610Y-119823750D01*
X57976696Y-119676326D01*
X59962825Y-119676326D01*
X60059674Y-119910719D01*
X60238849Y-120090207D01*
X60473072Y-120187465D01*
X60726685Y-120187686D01*
X60961078Y-120090837D01*
X61140566Y-119911662D01*
X61237824Y-119677439D01*
X61237912Y-119575973D01*
X66162916Y-119575973D01*
X66259765Y-119810366D01*
X66438940Y-119989854D01*
X66673163Y-120087112D01*
X66926776Y-120087333D01*
X67161169Y-119990484D01*
X67340657Y-119811309D01*
X67437915Y-119577086D01*
X67438136Y-119323473D01*
X67341287Y-119089080D01*
X67162112Y-118909592D01*
X66961403Y-118826250D01*
X73162390Y-118826250D01*
X73259239Y-119060643D01*
X73438414Y-119240131D01*
X73672637Y-119337389D01*
X73926250Y-119337610D01*
X74160643Y-119240761D01*
X74340131Y-119061586D01*
X74437389Y-118827363D01*
X74437389Y-118826250D01*
X75162390Y-118826250D01*
X75259239Y-119060643D01*
X75438414Y-119240131D01*
X75672637Y-119337389D01*
X75926250Y-119337610D01*
X76074752Y-119276250D01*
X85862390Y-119276250D01*
X85959239Y-119510643D01*
X86138414Y-119690131D01*
X86372637Y-119787389D01*
X86626250Y-119787610D01*
X86860643Y-119690761D01*
X87040131Y-119511586D01*
X87130768Y-119293309D01*
X87212491Y-119327243D01*
X87466104Y-119327464D01*
X87700497Y-119230615D01*
X87879985Y-119051440D01*
X87977243Y-118817217D01*
X87977464Y-118563604D01*
X87880615Y-118329211D01*
X87701440Y-118149723D01*
X87467217Y-118052465D01*
X87213604Y-118052244D01*
X86979211Y-118149093D01*
X86799723Y-118328268D01*
X86709086Y-118546545D01*
X86627363Y-118512611D01*
X86373750Y-118512390D01*
X86139357Y-118609239D01*
X85959869Y-118788414D01*
X85862611Y-119022637D01*
X85862390Y-119276250D01*
X76074752Y-119276250D01*
X76160643Y-119240761D01*
X76340131Y-119061586D01*
X76437389Y-118827363D01*
X76437610Y-118573750D01*
X76340761Y-118339357D01*
X76205379Y-118203738D01*
X80862390Y-118203738D01*
X80959239Y-118438131D01*
X81138414Y-118617619D01*
X81372637Y-118714877D01*
X81626250Y-118715098D01*
X81860643Y-118618249D01*
X82040131Y-118439074D01*
X82137389Y-118204851D01*
X82137562Y-118006193D01*
X94117141Y-118006193D01*
X94213990Y-118240586D01*
X94393165Y-118420074D01*
X94627388Y-118517332D01*
X94881001Y-118517553D01*
X95115394Y-118420704D01*
X95294882Y-118241529D01*
X95392140Y-118007306D01*
X95392361Y-117753693D01*
X95346893Y-117643653D01*
X95572637Y-117737390D01*
X95826250Y-117737611D01*
X96060643Y-117640762D01*
X96240131Y-117461587D01*
X96337389Y-117227364D01*
X96337610Y-116973751D01*
X96240761Y-116739358D01*
X96207410Y-116705949D01*
X96279386Y-116634098D01*
X96376644Y-116399875D01*
X96376865Y-116146262D01*
X96280016Y-115911869D01*
X96100841Y-115732381D01*
X95866618Y-115635123D01*
X95613005Y-115634902D01*
X95378612Y-115731751D01*
X95199124Y-115910926D01*
X95101866Y-116145149D01*
X95101645Y-116398762D01*
X95198494Y-116633155D01*
X95231845Y-116666564D01*
X95159869Y-116738415D01*
X95062611Y-116972638D01*
X95062390Y-117226251D01*
X95107858Y-117336291D01*
X94882114Y-117242554D01*
X94628501Y-117242333D01*
X94394108Y-117339182D01*
X94214620Y-117518357D01*
X94117362Y-117752580D01*
X94117141Y-118006193D01*
X82137562Y-118006193D01*
X82137610Y-117951238D01*
X82040761Y-117716845D01*
X81861586Y-117537357D01*
X81627363Y-117440099D01*
X81373750Y-117439878D01*
X81139357Y-117536727D01*
X80959869Y-117715902D01*
X80862611Y-117950125D01*
X80862390Y-118203738D01*
X76205379Y-118203738D01*
X76161586Y-118159869D01*
X75927363Y-118062611D01*
X75673750Y-118062390D01*
X75439357Y-118159239D01*
X75259869Y-118338414D01*
X75162611Y-118572637D01*
X75162390Y-118826250D01*
X74437389Y-118826250D01*
X74437610Y-118573750D01*
X74340761Y-118339357D01*
X74161586Y-118159869D01*
X73927363Y-118062611D01*
X73673750Y-118062390D01*
X73439357Y-118159239D01*
X73259869Y-118338414D01*
X73162611Y-118572637D01*
X73162390Y-118826250D01*
X66961403Y-118826250D01*
X66927889Y-118812334D01*
X66674276Y-118812113D01*
X66439883Y-118908962D01*
X66260395Y-119088137D01*
X66163137Y-119322360D01*
X66162916Y-119575973D01*
X61237912Y-119575973D01*
X61238045Y-119423826D01*
X61141196Y-119189433D01*
X60962021Y-119009945D01*
X60727798Y-118912687D01*
X60474185Y-118912466D01*
X60239792Y-119009315D01*
X60060304Y-119188490D01*
X59963046Y-119422713D01*
X59962825Y-119676326D01*
X57976696Y-119676326D01*
X57940761Y-119589357D01*
X57761586Y-119409869D01*
X57527363Y-119312611D01*
X57273750Y-119312390D01*
X57039357Y-119409239D01*
X56859869Y-119588414D01*
X56762611Y-119822637D01*
X56762390Y-120076250D01*
X55717089Y-120076250D01*
X55737389Y-120027363D01*
X55737610Y-119773750D01*
X55640761Y-119539357D01*
X55461586Y-119359869D01*
X55227363Y-119262611D01*
X54973750Y-119262390D01*
X54739357Y-119359239D01*
X54559869Y-119538414D01*
X54462611Y-119772637D01*
X54462489Y-119912511D01*
X54323750Y-119912390D01*
X54089357Y-120009239D01*
X53909869Y-120188414D01*
X53812611Y-120422637D01*
X53812390Y-120676250D01*
X53425567Y-120676250D01*
X53487389Y-120527367D01*
X53487610Y-120273754D01*
X53390761Y-120039361D01*
X53211586Y-119859873D01*
X52977363Y-119762615D01*
X52723750Y-119762394D01*
X52489357Y-119859243D01*
X52309869Y-120038418D01*
X52212611Y-120272641D01*
X52212390Y-120526254D01*
X51367986Y-120526254D01*
X51290761Y-120339357D01*
X51251561Y-120300089D01*
X51290131Y-120261586D01*
X51387389Y-120027363D01*
X51387610Y-119773750D01*
X51290761Y-119539357D01*
X51111586Y-119359869D01*
X50877363Y-119262611D01*
X50623750Y-119262390D01*
X50425435Y-119344332D01*
X50425435Y-119026250D01*
X52412390Y-119026250D01*
X52509239Y-119260643D01*
X52688414Y-119440131D01*
X52922637Y-119537389D01*
X53176250Y-119537610D01*
X53410643Y-119440761D01*
X53590131Y-119261586D01*
X53650933Y-119115157D01*
X58187187Y-119115157D01*
X58284036Y-119349550D01*
X58463211Y-119529038D01*
X58697434Y-119626296D01*
X58951047Y-119626517D01*
X59185440Y-119529668D01*
X59364928Y-119350493D01*
X59462186Y-119116270D01*
X59462407Y-118862657D01*
X59365558Y-118628264D01*
X59186383Y-118448776D01*
X58952160Y-118351518D01*
X58698547Y-118351297D01*
X58464154Y-118448146D01*
X58284666Y-118627321D01*
X58187408Y-118861544D01*
X58187187Y-119115157D01*
X53650933Y-119115157D01*
X53687389Y-119027363D01*
X53687610Y-118773750D01*
X53590761Y-118539357D01*
X53411586Y-118359869D01*
X53177363Y-118262611D01*
X52923750Y-118262390D01*
X52689357Y-118359239D01*
X52509869Y-118538414D01*
X52412611Y-118772637D01*
X52412390Y-119026250D01*
X50425435Y-119026250D01*
X50425435Y-117826250D01*
X53784892Y-117826250D01*
X53881741Y-118060643D01*
X54060916Y-118240131D01*
X54295139Y-118337389D01*
X54548752Y-118337610D01*
X54783145Y-118240761D01*
X54962633Y-118061586D01*
X54977305Y-118026250D01*
X61062390Y-118026250D01*
X61159239Y-118260643D01*
X61338414Y-118440131D01*
X61572637Y-118537389D01*
X61826250Y-118537610D01*
X62060643Y-118440761D01*
X62062553Y-118438854D01*
X62062390Y-118626250D01*
X62159239Y-118860643D01*
X62338414Y-119040131D01*
X62572637Y-119137389D01*
X62826250Y-119137610D01*
X63053166Y-119043850D01*
X63154070Y-119144930D01*
X63388293Y-119242188D01*
X63641906Y-119242409D01*
X63876299Y-119145560D01*
X64055787Y-118966385D01*
X64153045Y-118732162D01*
X64153266Y-118478549D01*
X64056417Y-118244156D01*
X64038543Y-118226250D01*
X65612390Y-118226250D01*
X65709239Y-118460643D01*
X65888414Y-118640131D01*
X66122637Y-118737389D01*
X66376250Y-118737610D01*
X66610643Y-118640761D01*
X66790131Y-118461586D01*
X66887389Y-118227363D01*
X66887610Y-117973750D01*
X66790761Y-117739357D01*
X66611586Y-117559869D01*
X66377363Y-117462611D01*
X66123750Y-117462390D01*
X65889357Y-117559239D01*
X65709869Y-117738414D01*
X65612611Y-117972637D01*
X65612390Y-118226250D01*
X64038543Y-118226250D01*
X63894117Y-118081573D01*
X63937389Y-117977363D01*
X63937610Y-117723750D01*
X63840761Y-117489357D01*
X63744040Y-117392467D01*
X63972637Y-117487389D01*
X64226250Y-117487610D01*
X64374752Y-117426250D01*
X71712390Y-117426250D01*
X71809239Y-117660643D01*
X71988414Y-117840131D01*
X72222637Y-117937389D01*
X72476250Y-117937610D01*
X72710643Y-117840761D01*
X72774955Y-117776561D01*
X72838414Y-117840131D01*
X73072637Y-117937389D01*
X73326250Y-117937610D01*
X73560643Y-117840761D01*
X73740131Y-117661586D01*
X73754803Y-117626250D01*
X73962390Y-117626250D01*
X74059239Y-117860643D01*
X74238414Y-118040131D01*
X74472637Y-118137389D01*
X74726250Y-118137610D01*
X74960643Y-118040761D01*
X75140131Y-117861586D01*
X75237389Y-117627363D01*
X75237610Y-117373750D01*
X75140761Y-117139357D01*
X75127697Y-117126270D01*
X75362390Y-117126270D01*
X75459239Y-117360663D01*
X75638414Y-117540151D01*
X75872637Y-117637409D01*
X76126250Y-117637630D01*
X76360643Y-117540781D01*
X76540131Y-117361606D01*
X76637389Y-117127383D01*
X76637610Y-116873770D01*
X76540761Y-116639377D01*
X76361586Y-116459889D01*
X76127363Y-116362631D01*
X75873750Y-116362410D01*
X75639357Y-116459259D01*
X75459869Y-116638434D01*
X75362611Y-116872657D01*
X75362390Y-117126270D01*
X75127697Y-117126270D01*
X74961586Y-116959869D01*
X74727363Y-116862611D01*
X74473750Y-116862390D01*
X74239357Y-116959239D01*
X74059869Y-117138414D01*
X73962611Y-117372637D01*
X73962390Y-117626250D01*
X73754803Y-117626250D01*
X73837389Y-117427363D01*
X73837610Y-117173750D01*
X73740761Y-116939357D01*
X73561586Y-116759869D01*
X73327363Y-116662611D01*
X73073750Y-116662390D01*
X72839357Y-116759239D01*
X72775045Y-116823439D01*
X72711586Y-116759869D01*
X72477363Y-116662611D01*
X72223750Y-116662390D01*
X71989357Y-116759239D01*
X71809869Y-116938414D01*
X71712611Y-117172637D01*
X71712390Y-117426250D01*
X64374752Y-117426250D01*
X64460643Y-117390761D01*
X64640131Y-117211586D01*
X64737389Y-116977363D01*
X64737515Y-116832961D01*
X64960643Y-116740767D01*
X65140131Y-116561592D01*
X65237389Y-116327369D01*
X65237610Y-116073756D01*
X65140761Y-115839363D01*
X64961586Y-115659875D01*
X64727363Y-115562617D01*
X64721858Y-115562612D01*
X64808370Y-115476250D01*
X83912390Y-115476250D01*
X84009239Y-115710643D01*
X84188414Y-115890131D01*
X84422637Y-115987389D01*
X84462555Y-115987424D01*
X84462390Y-116176249D01*
X84559239Y-116410642D01*
X84738414Y-116590130D01*
X84972637Y-116687388D01*
X85226250Y-116687609D01*
X85460643Y-116590760D01*
X85640131Y-116411585D01*
X85721769Y-116214979D01*
X85869343Y-116215108D01*
X86103736Y-116118259D01*
X86283224Y-115939084D01*
X86380482Y-115704861D01*
X86380703Y-115451248D01*
X86358159Y-115396685D01*
X94149850Y-115396685D01*
X94246699Y-115631078D01*
X94425874Y-115810566D01*
X94660097Y-115907824D01*
X94913710Y-115908045D01*
X95148103Y-115811196D01*
X95327591Y-115632021D01*
X95424849Y-115397798D01*
X95425070Y-115144185D01*
X95328221Y-114909792D01*
X95313842Y-114895387D01*
X95361973Y-114847340D01*
X95459231Y-114613117D01*
X95459306Y-114526250D01*
X95512388Y-114526250D01*
X95609237Y-114760643D01*
X95788412Y-114940131D01*
X96022635Y-115037389D01*
X96276248Y-115037610D01*
X96510641Y-114940761D01*
X96690129Y-114761586D01*
X96787387Y-114527363D01*
X96787608Y-114273750D01*
X96690759Y-114039357D01*
X96600510Y-113948950D01*
X96610890Y-113944661D01*
X96790378Y-113765486D01*
X96887636Y-113531263D01*
X96887857Y-113277650D01*
X96791008Y-113043257D01*
X96611833Y-112863769D01*
X96377610Y-112766511D01*
X96123997Y-112766290D01*
X95889604Y-112863139D01*
X95710116Y-113042314D01*
X95612858Y-113276537D01*
X95612637Y-113530150D01*
X95709486Y-113764543D01*
X95799735Y-113854950D01*
X95789355Y-113859239D01*
X95609867Y-114038414D01*
X95512609Y-114272637D01*
X95512388Y-114526250D01*
X95459306Y-114526250D01*
X95459452Y-114359504D01*
X95362603Y-114125111D01*
X95183428Y-113945623D01*
X94949205Y-113848365D01*
X94695592Y-113848144D01*
X94461199Y-113944993D01*
X94281711Y-114124168D01*
X94184453Y-114358391D01*
X94184232Y-114612004D01*
X94281081Y-114846397D01*
X94295460Y-114860802D01*
X94247329Y-114908849D01*
X94150071Y-115143072D01*
X94149850Y-115396685D01*
X86358159Y-115396685D01*
X86283854Y-115216855D01*
X86104679Y-115037367D01*
X85870456Y-114940109D01*
X85616843Y-114939888D01*
X85382450Y-115036737D01*
X85202962Y-115215912D01*
X85187585Y-115252945D01*
X85187610Y-115223750D01*
X85090761Y-114989357D01*
X84911586Y-114809869D01*
X84677363Y-114712611D01*
X84423750Y-114712390D01*
X84189357Y-114809239D01*
X84009869Y-114988414D01*
X83912611Y-115222637D01*
X83912390Y-115476250D01*
X64808370Y-115476250D01*
X64868081Y-115416644D01*
X64965339Y-115182421D01*
X64965560Y-114928808D01*
X64868711Y-114694415D01*
X64689536Y-114514927D01*
X64455313Y-114417669D01*
X64201700Y-114417448D01*
X64036937Y-114485526D01*
X63861586Y-114309869D01*
X63627363Y-114212611D01*
X63373750Y-114212390D01*
X63139357Y-114309239D01*
X62959869Y-114488414D01*
X62862611Y-114722637D01*
X62862390Y-114976250D01*
X62959239Y-115210643D01*
X63138414Y-115390131D01*
X63182665Y-115408506D01*
X63147100Y-115494156D01*
X63146879Y-115747769D01*
X63243728Y-115982162D01*
X63422903Y-116161650D01*
X63657126Y-116258908D01*
X63860738Y-116259085D01*
X63739357Y-116309239D01*
X63559869Y-116488414D01*
X63462611Y-116722637D01*
X63462390Y-116976250D01*
X63559239Y-117210643D01*
X63655960Y-117307533D01*
X63427363Y-117212611D01*
X63173750Y-117212390D01*
X62939357Y-117309239D01*
X62935603Y-117312987D01*
X62831991Y-117209194D01*
X62597768Y-117111936D01*
X62344155Y-117111715D01*
X62109762Y-117208564D01*
X61988566Y-117329548D01*
X61827363Y-117262611D01*
X61573750Y-117262390D01*
X61339357Y-117359239D01*
X61159869Y-117538414D01*
X61062611Y-117772637D01*
X61062390Y-118026250D01*
X54977305Y-118026250D01*
X55059891Y-117827363D01*
X55060112Y-117573750D01*
X54963263Y-117339357D01*
X54784088Y-117159869D01*
X54549865Y-117062611D01*
X54296252Y-117062390D01*
X54061859Y-117159239D01*
X53882371Y-117338414D01*
X53785113Y-117572637D01*
X53784892Y-117826250D01*
X50425435Y-117826250D01*
X50425435Y-117276265D01*
X50572637Y-117337389D01*
X50826250Y-117337610D01*
X51060643Y-117240761D01*
X51240131Y-117061586D01*
X51337389Y-116827363D01*
X51337477Y-116726250D01*
X52409934Y-116726250D01*
X52506783Y-116960643D01*
X52685958Y-117140131D01*
X52920181Y-117237389D01*
X53173794Y-117237610D01*
X53408187Y-117140761D01*
X53587675Y-116961586D01*
X53684933Y-116727363D01*
X53685154Y-116473750D01*
X53588305Y-116239357D01*
X53409130Y-116059869D01*
X53174907Y-115962611D01*
X52921294Y-115962390D01*
X52686901Y-116059239D01*
X52507413Y-116238414D01*
X52410155Y-116472637D01*
X52409934Y-116726250D01*
X51337477Y-116726250D01*
X51337610Y-116573750D01*
X51240761Y-116339357D01*
X51061586Y-116159869D01*
X50827363Y-116062611D01*
X50573750Y-116062390D01*
X50425435Y-116123672D01*
X50425435Y-115914988D01*
X53414897Y-115914988D01*
X53511746Y-116149381D01*
X53690921Y-116328869D01*
X53925144Y-116426127D01*
X54178757Y-116426348D01*
X54413150Y-116329499D01*
X54592638Y-116150324D01*
X54689896Y-115916101D01*
X54690117Y-115662488D01*
X54593268Y-115428095D01*
X54414093Y-115248607D01*
X54179870Y-115151349D01*
X53926257Y-115151128D01*
X53691864Y-115247977D01*
X53512376Y-115427152D01*
X53415118Y-115661375D01*
X53414897Y-115914988D01*
X50425435Y-115914988D01*
X50425435Y-115175770D01*
X50573163Y-115237112D01*
X50826776Y-115237333D01*
X51061169Y-115140484D01*
X51240657Y-114961309D01*
X51337915Y-114727086D01*
X51338136Y-114473473D01*
X51241287Y-114239080D01*
X51062112Y-114059592D01*
X51044561Y-114052304D01*
X52186379Y-114052304D01*
X52283228Y-114286697D01*
X52462403Y-114466185D01*
X52596822Y-114522001D01*
X52494428Y-114564309D01*
X52314940Y-114743484D01*
X52217682Y-114977707D01*
X52217461Y-115231320D01*
X52314310Y-115465713D01*
X52493485Y-115645201D01*
X52727708Y-115742459D01*
X52981321Y-115742680D01*
X53215714Y-115645831D01*
X53395202Y-115466656D01*
X53492460Y-115232433D01*
X53492681Y-114978820D01*
X53448801Y-114872623D01*
X53671813Y-114872817D01*
X53906206Y-114775968D01*
X54085694Y-114596793D01*
X54182952Y-114362570D01*
X54183114Y-114176250D01*
X68612390Y-114176250D01*
X68709239Y-114410643D01*
X68888414Y-114590131D01*
X69122637Y-114687389D01*
X69376250Y-114687610D01*
X69610643Y-114590761D01*
X69790131Y-114411586D01*
X69887389Y-114177363D01*
X69887610Y-113923750D01*
X69790761Y-113689357D01*
X69611586Y-113509869D01*
X69530623Y-113476250D01*
X80962390Y-113476250D01*
X81059239Y-113710643D01*
X81238414Y-113890131D01*
X81472637Y-113987389D01*
X81726250Y-113987610D01*
X81960643Y-113890761D01*
X82125128Y-113726563D01*
X82288414Y-113890135D01*
X82522637Y-113987393D01*
X82776250Y-113987614D01*
X82968481Y-113908186D01*
X83012365Y-114014393D01*
X83191540Y-114193881D01*
X83425763Y-114291139D01*
X83679376Y-114291360D01*
X83913769Y-114194511D01*
X84093257Y-114015336D01*
X84095619Y-114009647D01*
X84222637Y-114062389D01*
X84476250Y-114062610D01*
X84710643Y-113965761D01*
X84890131Y-113786586D01*
X84987389Y-113552363D01*
X84987610Y-113298750D01*
X84890761Y-113064357D01*
X84711586Y-112884869D01*
X84527298Y-112808346D01*
X84660643Y-112753249D01*
X84840131Y-112574074D01*
X84937389Y-112339851D01*
X84937398Y-112328377D01*
X96593199Y-112328377D01*
X96690048Y-112562770D01*
X96869223Y-112742258D01*
X97103446Y-112839516D01*
X97357059Y-112839737D01*
X97591452Y-112742888D01*
X97770940Y-112563713D01*
X97868198Y-112329490D01*
X97868419Y-112075877D01*
X97771570Y-111841484D01*
X97592395Y-111661996D01*
X97358172Y-111564738D01*
X97104559Y-111564517D01*
X96870166Y-111661366D01*
X96690678Y-111840541D01*
X96593420Y-112074764D01*
X96593199Y-112328377D01*
X84937398Y-112328377D01*
X84937610Y-112086238D01*
X84840761Y-111851845D01*
X84661586Y-111672357D01*
X84427363Y-111575099D01*
X84173750Y-111574878D01*
X83939357Y-111671727D01*
X83759869Y-111850902D01*
X83743589Y-111890108D01*
X83677369Y-111862611D01*
X83423756Y-111862390D01*
X83189363Y-111959239D01*
X83009875Y-112138414D01*
X82912617Y-112372637D01*
X82912396Y-112626250D01*
X82983438Y-112798185D01*
X82777363Y-112712615D01*
X82523750Y-112712394D01*
X82289357Y-112809243D01*
X82124872Y-112973441D01*
X81961586Y-112809869D01*
X81727363Y-112712611D01*
X81473750Y-112712390D01*
X81239357Y-112809239D01*
X81059869Y-112988414D01*
X80962611Y-113222637D01*
X80962390Y-113476250D01*
X69530623Y-113476250D01*
X69377363Y-113412611D01*
X69123750Y-113412390D01*
X68889357Y-113509239D01*
X68709869Y-113688414D01*
X68612611Y-113922637D01*
X68612390Y-114176250D01*
X54183114Y-114176250D01*
X54183173Y-114108957D01*
X54086324Y-113874564D01*
X53907149Y-113695076D01*
X53741398Y-113626250D01*
X62012390Y-113626250D01*
X62109239Y-113860643D01*
X62288414Y-114040131D01*
X62522637Y-114137389D01*
X62776250Y-114137610D01*
X63010643Y-114040761D01*
X63190131Y-113861586D01*
X63287389Y-113627363D01*
X63287610Y-113373750D01*
X63190761Y-113139357D01*
X63011586Y-112959869D01*
X62777363Y-112862611D01*
X62523750Y-112862390D01*
X62289357Y-112959239D01*
X62109869Y-113138414D01*
X62012611Y-113372637D01*
X62012390Y-113626250D01*
X53741398Y-113626250D01*
X53672926Y-113597818D01*
X53419313Y-113597597D01*
X53384066Y-113612161D01*
X53364750Y-113565411D01*
X53185575Y-113385923D01*
X52951352Y-113288665D01*
X52697739Y-113288444D01*
X52463346Y-113385293D01*
X52283858Y-113564468D01*
X52186600Y-113798691D01*
X52186379Y-114052304D01*
X51044561Y-114052304D01*
X51038648Y-114049849D01*
X51060643Y-114040761D01*
X51240131Y-113861586D01*
X51337389Y-113627363D01*
X51337610Y-113373750D01*
X51240761Y-113139357D01*
X51061586Y-112959869D01*
X50827363Y-112862611D01*
X50573750Y-112862390D01*
X50425435Y-112923672D01*
X50425435Y-111676265D01*
X50572637Y-111737389D01*
X50826250Y-111737610D01*
X50889378Y-111711526D01*
X52311424Y-111711526D01*
X52408273Y-111945919D01*
X52542460Y-112080340D01*
X52462611Y-112272637D01*
X52462390Y-112526250D01*
X52559239Y-112760643D01*
X52738414Y-112940131D01*
X52972637Y-113037389D01*
X53189138Y-113037578D01*
X53255486Y-113198153D01*
X53434661Y-113377641D01*
X53668884Y-113474899D01*
X53922497Y-113475120D01*
X54156890Y-113378271D01*
X54336378Y-113199096D01*
X54433636Y-112964873D01*
X54433857Y-112711260D01*
X54337008Y-112476867D01*
X54157833Y-112297379D01*
X53923610Y-112200121D01*
X53707109Y-112199932D01*
X53640761Y-112039357D01*
X53527851Y-111926250D01*
X66112390Y-111926250D01*
X66209239Y-112160643D01*
X66388414Y-112340131D01*
X66622637Y-112437389D01*
X66817063Y-112437558D01*
X66909239Y-112660643D01*
X67088414Y-112840131D01*
X67322637Y-112937389D01*
X67576250Y-112937610D01*
X67603743Y-112926250D01*
X72162390Y-112926250D01*
X72259239Y-113160643D01*
X72438414Y-113340131D01*
X72672637Y-113437389D01*
X72926250Y-113437610D01*
X73160643Y-113340761D01*
X73340131Y-113161586D01*
X73437389Y-112927363D01*
X73437610Y-112673750D01*
X73340761Y-112439357D01*
X73161586Y-112259869D01*
X72927363Y-112162611D01*
X72673750Y-112162390D01*
X72439357Y-112259239D01*
X72259869Y-112438414D01*
X72162611Y-112672637D01*
X72162390Y-112926250D01*
X67603743Y-112926250D01*
X67810643Y-112840761D01*
X67990131Y-112661586D01*
X68087389Y-112427363D01*
X68087477Y-112326250D01*
X69904221Y-112326250D01*
X70001070Y-112560643D01*
X70180245Y-112740131D01*
X70414468Y-112837389D01*
X70668081Y-112837610D01*
X70902474Y-112740761D01*
X71081962Y-112561586D01*
X71179220Y-112327363D01*
X71179441Y-112073750D01*
X71082592Y-111839357D01*
X70969683Y-111726250D01*
X81362390Y-111726250D01*
X81459239Y-111960643D01*
X81638414Y-112140131D01*
X81872637Y-112237389D01*
X82126250Y-112237610D01*
X82360643Y-112140761D01*
X82540131Y-111961586D01*
X82637389Y-111727363D01*
X82637610Y-111473750D01*
X82540761Y-111239357D01*
X82361586Y-111059869D01*
X82127363Y-110962611D01*
X81873750Y-110962390D01*
X81639357Y-111059239D01*
X81459869Y-111238414D01*
X81362611Y-111472637D01*
X81362390Y-111726250D01*
X70969683Y-111726250D01*
X70903417Y-111659869D01*
X70669194Y-111562611D01*
X70415581Y-111562390D01*
X70181188Y-111659239D01*
X70001700Y-111838414D01*
X69904442Y-112072637D01*
X69904221Y-112326250D01*
X68087477Y-112326250D01*
X68087610Y-112173750D01*
X67990761Y-111939357D01*
X67811586Y-111759869D01*
X67577363Y-111662611D01*
X67382937Y-111662442D01*
X67290761Y-111439357D01*
X67111586Y-111259869D01*
X66877363Y-111162611D01*
X66623750Y-111162390D01*
X66389357Y-111259239D01*
X66209869Y-111438414D01*
X66112611Y-111672637D01*
X66112390Y-111926250D01*
X53527851Y-111926250D01*
X53506574Y-111904936D01*
X53586423Y-111712639D01*
X53586644Y-111459026D01*
X53547288Y-111363776D01*
X61162390Y-111363776D01*
X61259239Y-111598169D01*
X61438414Y-111777657D01*
X61672637Y-111874915D01*
X61926250Y-111875136D01*
X62160643Y-111778287D01*
X62340131Y-111599112D01*
X62437389Y-111364889D01*
X62437610Y-111111276D01*
X62340761Y-110876883D01*
X62161586Y-110697395D01*
X61927363Y-110600137D01*
X61673750Y-110599916D01*
X61439357Y-110696765D01*
X61259869Y-110875940D01*
X61162611Y-111110163D01*
X61162390Y-111363776D01*
X53547288Y-111363776D01*
X53489795Y-111224633D01*
X53310620Y-111045145D01*
X53076397Y-110947887D01*
X52822784Y-110947666D01*
X52588391Y-111044515D01*
X52408903Y-111223690D01*
X52311645Y-111457913D01*
X52311424Y-111711526D01*
X50889378Y-111711526D01*
X51060643Y-111640761D01*
X51240131Y-111461586D01*
X51337389Y-111227363D01*
X51337610Y-110973750D01*
X51240761Y-110739357D01*
X51201564Y-110700092D01*
X51240137Y-110661586D01*
X51337395Y-110427363D01*
X51337616Y-110173750D01*
X51240767Y-109939357D01*
X51201564Y-109900086D01*
X51240131Y-109861586D01*
X51337389Y-109627363D01*
X51337610Y-109373750D01*
X51240761Y-109139357D01*
X51201561Y-109100089D01*
X51240131Y-109061586D01*
X51337389Y-108827363D01*
X51337610Y-108573750D01*
X51256005Y-108376250D01*
X52362390Y-108376250D01*
X52459239Y-108610643D01*
X52638414Y-108790131D01*
X52872637Y-108887389D01*
X53126250Y-108887610D01*
X53360643Y-108790761D01*
X53540131Y-108611586D01*
X53637389Y-108377363D01*
X53637610Y-108123750D01*
X53540761Y-107889357D01*
X53361586Y-107709869D01*
X53127363Y-107612611D01*
X52873750Y-107612390D01*
X52639357Y-107709239D01*
X52459869Y-107888414D01*
X52362611Y-108122637D01*
X52362390Y-108376250D01*
X51256005Y-108376250D01*
X51240761Y-108339357D01*
X51201561Y-108300089D01*
X51240131Y-108261586D01*
X51337389Y-108027363D01*
X51337610Y-107773750D01*
X51256005Y-107576250D01*
X53562390Y-107576250D01*
X53659239Y-107810643D01*
X53838414Y-107990131D01*
X54072637Y-108087389D01*
X54326250Y-108087610D01*
X54560643Y-107990761D01*
X54675084Y-107876520D01*
X54838410Y-108040131D01*
X54892100Y-108062425D01*
X54851718Y-108062390D01*
X54617325Y-108159239D01*
X54437837Y-108338414D01*
X54340579Y-108572637D01*
X54340358Y-108826250D01*
X54437207Y-109060643D01*
X54616382Y-109240131D01*
X54807034Y-109319297D01*
X54589357Y-109409239D01*
X54409869Y-109588414D01*
X54312611Y-109822637D01*
X54312390Y-110076250D01*
X54409239Y-110310643D01*
X54588414Y-110490131D01*
X54822637Y-110587389D01*
X55076250Y-110587610D01*
X55310643Y-110490761D01*
X55325179Y-110476250D01*
X57012390Y-110476250D01*
X57109239Y-110710643D01*
X57288414Y-110890131D01*
X57522637Y-110987389D01*
X57776250Y-110987610D01*
X58010643Y-110890761D01*
X58190131Y-110711586D01*
X58287389Y-110477363D01*
X58287610Y-110223750D01*
X58190761Y-109989357D01*
X58177677Y-109976250D01*
X58962390Y-109976250D01*
X59059239Y-110210643D01*
X59238414Y-110390131D01*
X59472637Y-110487389D01*
X59726250Y-110487610D01*
X59960643Y-110390761D01*
X60140131Y-110211586D01*
X60237389Y-109977363D01*
X60237610Y-109723750D01*
X60176665Y-109576250D01*
X64912390Y-109576250D01*
X65009239Y-109810643D01*
X65076290Y-109877812D01*
X65049858Y-109904198D01*
X64952600Y-110138421D01*
X64952379Y-110392034D01*
X65049228Y-110626427D01*
X65228403Y-110805915D01*
X65462626Y-110903173D01*
X65716239Y-110903394D01*
X65950632Y-110806545D01*
X66081154Y-110676250D01*
X68412390Y-110676250D01*
X68509239Y-110910643D01*
X68688414Y-111090131D01*
X68922637Y-111187389D01*
X69176250Y-111187610D01*
X69410643Y-111090761D01*
X69590131Y-110911586D01*
X69687389Y-110677363D01*
X69687610Y-110423750D01*
X69590761Y-110189357D01*
X69411586Y-110009869D01*
X69177363Y-109912611D01*
X68923750Y-109912390D01*
X68689357Y-110009239D01*
X68509869Y-110188414D01*
X68412611Y-110422637D01*
X68412390Y-110676250D01*
X66081154Y-110676250D01*
X66130120Y-110627370D01*
X66227378Y-110393147D01*
X66227599Y-110139534D01*
X66130750Y-109905141D01*
X66101910Y-109876250D01*
X71462390Y-109876250D01*
X71559239Y-110110643D01*
X71738414Y-110290131D01*
X71972637Y-110387389D01*
X72226250Y-110387610D01*
X72460643Y-110290761D01*
X72505712Y-110245770D01*
X77032510Y-110245770D01*
X77129359Y-110480163D01*
X77308534Y-110659651D01*
X77542757Y-110756909D01*
X77796370Y-110757130D01*
X78030763Y-110660281D01*
X78210251Y-110481106D01*
X78259968Y-110361374D01*
X78348445Y-110450005D01*
X78259881Y-110538414D01*
X78162623Y-110772637D01*
X78162402Y-111026250D01*
X78259251Y-111260643D01*
X78438426Y-111440131D01*
X78672649Y-111537389D01*
X78926262Y-111537610D01*
X79160655Y-111440761D01*
X79340143Y-111261586D01*
X79437401Y-111027363D01*
X79437622Y-110773750D01*
X79340773Y-110539357D01*
X79251567Y-110449995D01*
X79340131Y-110361586D01*
X79375565Y-110276250D01*
X81362390Y-110276250D01*
X81459239Y-110510643D01*
X81638414Y-110690131D01*
X81872637Y-110787389D01*
X82126250Y-110787610D01*
X82255196Y-110734331D01*
X82286727Y-110810643D01*
X82465902Y-110990131D01*
X82700125Y-111087389D01*
X82953738Y-111087610D01*
X83188131Y-110990761D01*
X83247722Y-110931273D01*
X83662390Y-110931273D01*
X83759239Y-111165666D01*
X83938414Y-111345154D01*
X84172637Y-111442412D01*
X84426250Y-111442633D01*
X84660643Y-111345784D01*
X84840131Y-111166609D01*
X84937389Y-110932386D01*
X84937610Y-110678773D01*
X84840761Y-110444380D01*
X84830428Y-110434028D01*
X94221736Y-110434028D01*
X94318585Y-110668421D01*
X94497760Y-110847909D01*
X94731983Y-110945167D01*
X94985596Y-110945388D01*
X95219989Y-110848539D01*
X95399477Y-110669364D01*
X95496735Y-110435141D01*
X95496956Y-110181528D01*
X95400107Y-109947135D01*
X95321869Y-109868761D01*
X95510643Y-109790761D01*
X95690131Y-109611586D01*
X95787389Y-109377363D01*
X95787610Y-109123750D01*
X95690761Y-108889357D01*
X95626561Y-108825045D01*
X95690131Y-108761586D01*
X95787389Y-108527363D01*
X95787393Y-108522754D01*
X95822637Y-108537389D01*
X96076250Y-108537610D01*
X96310643Y-108440761D01*
X96450086Y-108301561D01*
X96588414Y-108440131D01*
X96822637Y-108537389D01*
X97076250Y-108537610D01*
X97310643Y-108440761D01*
X97490131Y-108261586D01*
X97587389Y-108027363D01*
X97587610Y-107773750D01*
X97490761Y-107539357D01*
X97426561Y-107475045D01*
X97490131Y-107411586D01*
X97587389Y-107177363D01*
X97587610Y-106923750D01*
X97490761Y-106689357D01*
X97311586Y-106509869D01*
X97077363Y-106412611D01*
X96823750Y-106412390D01*
X96589357Y-106509239D01*
X96409869Y-106688414D01*
X96312611Y-106922637D01*
X96312390Y-107176250D01*
X96409239Y-107410643D01*
X96473439Y-107474955D01*
X96449914Y-107498439D01*
X96311586Y-107359869D01*
X96077363Y-107262611D01*
X95823750Y-107262390D01*
X95589357Y-107359239D01*
X95409869Y-107538414D01*
X95312611Y-107772637D01*
X95312607Y-107777246D01*
X95277363Y-107762611D01*
X95023750Y-107762390D01*
X94789357Y-107859239D01*
X94609869Y-108038414D01*
X94512611Y-108272637D01*
X94512390Y-108526250D01*
X94609239Y-108760643D01*
X94673439Y-108824955D01*
X94609869Y-108888414D01*
X94512611Y-109122637D01*
X94512390Y-109376250D01*
X94609239Y-109610643D01*
X94687477Y-109689017D01*
X94498703Y-109767017D01*
X94319215Y-109946192D01*
X94221957Y-110180415D01*
X94221736Y-110434028D01*
X84830428Y-110434028D01*
X84661586Y-110264892D01*
X84427363Y-110167634D01*
X84173750Y-110167413D01*
X83939357Y-110264262D01*
X83759869Y-110443437D01*
X83662611Y-110677660D01*
X83662390Y-110931273D01*
X83247722Y-110931273D01*
X83367619Y-110811586D01*
X83464877Y-110577363D01*
X83465098Y-110323750D01*
X83368249Y-110089357D01*
X83189074Y-109909869D01*
X83108111Y-109876250D01*
X89227387Y-109876250D01*
X89324236Y-110110643D01*
X89503411Y-110290131D01*
X89737634Y-110387389D01*
X89991247Y-110387610D01*
X90225640Y-110290761D01*
X90257397Y-110259060D01*
X90288414Y-110290131D01*
X90522637Y-110387389D01*
X90776250Y-110387610D01*
X91010643Y-110290761D01*
X91190131Y-110111586D01*
X91228543Y-110019080D01*
X91272637Y-110037389D01*
X91526250Y-110037610D01*
X91760643Y-109940761D01*
X91940131Y-109761586D01*
X92037389Y-109527363D01*
X92037610Y-109273750D01*
X91940761Y-109039357D01*
X91761586Y-108859869D01*
X91527363Y-108762611D01*
X91273750Y-108762390D01*
X91039357Y-108859239D01*
X90859869Y-109038414D01*
X90821457Y-109130920D01*
X90777363Y-109112611D01*
X90523750Y-109112390D01*
X90289357Y-109209239D01*
X90257600Y-109240940D01*
X90226583Y-109209869D01*
X89992360Y-109112611D01*
X89738747Y-109112390D01*
X89504354Y-109209239D01*
X89324866Y-109388414D01*
X89227608Y-109622637D01*
X89227387Y-109876250D01*
X83108111Y-109876250D01*
X82954851Y-109812611D01*
X82701238Y-109812390D01*
X82572292Y-109865669D01*
X82540761Y-109789357D01*
X82361586Y-109609869D01*
X82127363Y-109512611D01*
X81873750Y-109512390D01*
X81639357Y-109609239D01*
X81459869Y-109788414D01*
X81362611Y-110022637D01*
X81362390Y-110276250D01*
X79375565Y-110276250D01*
X79437389Y-110127363D01*
X79437610Y-109873750D01*
X79340761Y-109639357D01*
X79161586Y-109459869D01*
X78927363Y-109362611D01*
X78673750Y-109362390D01*
X78439357Y-109459239D01*
X78259869Y-109638414D01*
X78210152Y-109758146D01*
X78031706Y-109579389D01*
X77797483Y-109482131D01*
X77543870Y-109481910D01*
X77309477Y-109578759D01*
X77129989Y-109757934D01*
X77032731Y-109992157D01*
X77032510Y-110245770D01*
X72505712Y-110245770D01*
X72640131Y-110111586D01*
X72737389Y-109877363D01*
X72737542Y-109701250D01*
X74987390Y-109701250D01*
X75084239Y-109935643D01*
X75263414Y-110115131D01*
X75497637Y-110212389D01*
X75751250Y-110212610D01*
X75985643Y-110115761D01*
X76165131Y-109936586D01*
X76262389Y-109702363D01*
X76262610Y-109448750D01*
X76165761Y-109214357D01*
X75986586Y-109034869D01*
X75752363Y-108937611D01*
X75498750Y-108937390D01*
X75264357Y-109034239D01*
X75084869Y-109213414D01*
X74987611Y-109447637D01*
X74987390Y-109701250D01*
X72737542Y-109701250D01*
X72737610Y-109623750D01*
X72640761Y-109389357D01*
X72461586Y-109209869D01*
X72227363Y-109112611D01*
X71973750Y-109112390D01*
X71739357Y-109209239D01*
X71559869Y-109388414D01*
X71462611Y-109622637D01*
X71462390Y-109876250D01*
X66101910Y-109876250D01*
X66063699Y-109837972D01*
X66090131Y-109811586D01*
X66187389Y-109577363D01*
X66187583Y-109354796D01*
X66319660Y-109300223D01*
X66499148Y-109121048D01*
X66596406Y-108886825D01*
X66596627Y-108633212D01*
X66499778Y-108398819D01*
X66461876Y-108360851D01*
X66511169Y-108340484D01*
X66690657Y-108161309D01*
X66784472Y-107935378D01*
X66788940Y-107939854D01*
X66865038Y-107971453D01*
X66863667Y-107974754D01*
X66863446Y-108228367D01*
X66960295Y-108462760D01*
X67139470Y-108642248D01*
X67373693Y-108739506D01*
X67627306Y-108739727D01*
X67861699Y-108642878D01*
X68041187Y-108463703D01*
X68138445Y-108229480D01*
X68138666Y-107975867D01*
X68041817Y-107741474D01*
X67862642Y-107561986D01*
X67786544Y-107530387D01*
X67787915Y-107527086D01*
X67788136Y-107273473D01*
X67691287Y-107039080D01*
X67512112Y-106859592D01*
X67277889Y-106762334D01*
X67024276Y-106762113D01*
X66789883Y-106858962D01*
X66610395Y-107038137D01*
X66516580Y-107264068D01*
X66512112Y-107259592D01*
X66277889Y-107162334D01*
X66089461Y-107162170D01*
X66140131Y-107111588D01*
X66237389Y-106877365D01*
X66237610Y-106623752D01*
X66140761Y-106389359D01*
X65961586Y-106209871D01*
X65727363Y-106112613D01*
X65473750Y-106112392D01*
X65239357Y-106209241D01*
X65059869Y-106388416D01*
X64962611Y-106622639D01*
X64962390Y-106876252D01*
X65059239Y-107110645D01*
X65238414Y-107290133D01*
X65472637Y-107387391D01*
X65661065Y-107387555D01*
X65610395Y-107438137D01*
X65513137Y-107672360D01*
X65512916Y-107925973D01*
X65609765Y-108160366D01*
X65647667Y-108198334D01*
X65598374Y-108218701D01*
X65418886Y-108397876D01*
X65321628Y-108632099D01*
X65321434Y-108854666D01*
X65189357Y-108909239D01*
X65009869Y-109088414D01*
X64912611Y-109322637D01*
X64912390Y-109576250D01*
X60176665Y-109576250D01*
X60140761Y-109489357D01*
X59961586Y-109309869D01*
X59727363Y-109212611D01*
X59473750Y-109212390D01*
X59239357Y-109309239D01*
X59059869Y-109488414D01*
X58962611Y-109722637D01*
X58962390Y-109976250D01*
X58177677Y-109976250D01*
X58011586Y-109809869D01*
X57777363Y-109712611D01*
X57523750Y-109712390D01*
X57289357Y-109809239D01*
X57109869Y-109988414D01*
X57012611Y-110222637D01*
X57012390Y-110476250D01*
X55325179Y-110476250D01*
X55490131Y-110311586D01*
X55587389Y-110077363D01*
X55587610Y-109823750D01*
X55490761Y-109589357D01*
X55311586Y-109409869D01*
X55120934Y-109330703D01*
X55338611Y-109240761D01*
X55518099Y-109061586D01*
X55615357Y-108827363D01*
X55615578Y-108573750D01*
X55575292Y-108476250D01*
X57787378Y-108476250D01*
X57884227Y-108710643D01*
X58063402Y-108890131D01*
X58297625Y-108987389D01*
X58551238Y-108987610D01*
X58785631Y-108890761D01*
X58965119Y-108711586D01*
X58978331Y-108679768D01*
X59138414Y-108840131D01*
X59372637Y-108937389D01*
X59626250Y-108937610D01*
X59860643Y-108840761D01*
X60040131Y-108661586D01*
X60137389Y-108427363D01*
X60137610Y-108173750D01*
X60040761Y-107939357D01*
X59861586Y-107759869D01*
X59780623Y-107726250D01*
X61862390Y-107726250D01*
X61959239Y-107960643D01*
X62138414Y-108140131D01*
X62372637Y-108237389D01*
X62626250Y-108237610D01*
X62860643Y-108140761D01*
X63040131Y-107961586D01*
X63137389Y-107727363D01*
X63137610Y-107473750D01*
X63040761Y-107239357D01*
X62861586Y-107059869D01*
X62627363Y-106962611D01*
X62373750Y-106962390D01*
X62139357Y-107059239D01*
X61959869Y-107238414D01*
X61862611Y-107472637D01*
X61862390Y-107726250D01*
X59780623Y-107726250D01*
X59670782Y-107680640D01*
X59840131Y-107511586D01*
X59937389Y-107277363D01*
X59937610Y-107023750D01*
X59840761Y-106789357D01*
X59661586Y-106609869D01*
X59427363Y-106512611D01*
X59173750Y-106512390D01*
X58939357Y-106609239D01*
X58759869Y-106788414D01*
X58662611Y-107022637D01*
X58662390Y-107276250D01*
X58759239Y-107510643D01*
X58938414Y-107690131D01*
X59129218Y-107769360D01*
X58959869Y-107938414D01*
X58946657Y-107970232D01*
X58786574Y-107809869D01*
X58552351Y-107712611D01*
X58298738Y-107712390D01*
X58064345Y-107809239D01*
X57884857Y-107988414D01*
X57787599Y-108222637D01*
X57787378Y-108476250D01*
X55575292Y-108476250D01*
X55518729Y-108339357D01*
X55339554Y-108159869D01*
X55285864Y-108137575D01*
X55326246Y-108137610D01*
X55560639Y-108040761D01*
X55740127Y-107861586D01*
X55837385Y-107627363D01*
X55837606Y-107373750D01*
X55740757Y-107139357D01*
X55561582Y-106959869D01*
X55327359Y-106862611D01*
X55073746Y-106862390D01*
X54839353Y-106959239D01*
X54724912Y-107073480D01*
X54561586Y-106909869D01*
X54327363Y-106812611D01*
X54073750Y-106812390D01*
X53839357Y-106909239D01*
X53659869Y-107088414D01*
X53562611Y-107322637D01*
X53562390Y-107576250D01*
X51256005Y-107576250D01*
X51240761Y-107539357D01*
X51201561Y-107500089D01*
X51240131Y-107461586D01*
X51337389Y-107227363D01*
X51337610Y-106973750D01*
X51240761Y-106739357D01*
X51201561Y-106700089D01*
X51240131Y-106661586D01*
X51337389Y-106427363D01*
X51337610Y-106173750D01*
X51240761Y-105939357D01*
X51201561Y-105900089D01*
X51240131Y-105861586D01*
X51253874Y-105828487D01*
X58862390Y-105828487D01*
X58959239Y-106062880D01*
X59138414Y-106242368D01*
X59372637Y-106339626D01*
X59626250Y-106339847D01*
X59860643Y-106242998D01*
X60040131Y-106063823D01*
X60137389Y-105829600D01*
X60137389Y-105828495D01*
X61512390Y-105828495D01*
X61609239Y-106062888D01*
X61788414Y-106242376D01*
X62022637Y-106339634D01*
X62276250Y-106339855D01*
X62408686Y-106285134D01*
X62408475Y-106527640D01*
X62505324Y-106762033D01*
X62684499Y-106941521D01*
X62918722Y-107038779D01*
X63172335Y-107039000D01*
X63406728Y-106942151D01*
X63586216Y-106762976D01*
X63683474Y-106528753D01*
X63683695Y-106275140D01*
X63586846Y-106040747D01*
X63407671Y-105861259D01*
X63173448Y-105764001D01*
X62919835Y-105763780D01*
X62787399Y-105818501D01*
X62787610Y-105575995D01*
X62690761Y-105341602D01*
X62575611Y-105226250D01*
X67312390Y-105226250D01*
X67409239Y-105460643D01*
X67588414Y-105640131D01*
X67822637Y-105737389D01*
X67872736Y-105737433D01*
X67872537Y-105966105D01*
X67969386Y-106200498D01*
X68148561Y-106379986D01*
X68382784Y-106477244D01*
X68636397Y-106477465D01*
X68695160Y-106453185D01*
X68659869Y-106488414D01*
X68562611Y-106722637D01*
X68562390Y-106976250D01*
X68659239Y-107210643D01*
X68723439Y-107274955D01*
X68659869Y-107338414D01*
X68562611Y-107572637D01*
X68562390Y-107826250D01*
X68659239Y-108060643D01*
X68798439Y-108200086D01*
X68659869Y-108338414D01*
X68562611Y-108572637D01*
X68562390Y-108826250D01*
X68659239Y-109060643D01*
X68838414Y-109240131D01*
X69072637Y-109337389D01*
X69326250Y-109337610D01*
X69560643Y-109240761D01*
X69740131Y-109061586D01*
X69837389Y-108827363D01*
X69837520Y-108676250D01*
X79612390Y-108676250D01*
X79709239Y-108910643D01*
X79888414Y-109090131D01*
X80122637Y-109187389D01*
X80376250Y-109187610D01*
X80610643Y-109090761D01*
X80790131Y-108911586D01*
X80887389Y-108677363D01*
X80887610Y-108423750D01*
X80790761Y-108189357D01*
X80611586Y-108009869D01*
X80410219Y-107926254D01*
X82162390Y-107926254D01*
X82259239Y-108160647D01*
X82438414Y-108340135D01*
X82672637Y-108437393D01*
X82926250Y-108437614D01*
X83160643Y-108340765D01*
X83340131Y-108161590D01*
X83437389Y-107927367D01*
X83437610Y-107673754D01*
X83340761Y-107439361D01*
X83161586Y-107259873D01*
X82927363Y-107162615D01*
X82673750Y-107162394D01*
X82439357Y-107259243D01*
X82259869Y-107438418D01*
X82162611Y-107672641D01*
X82162390Y-107926254D01*
X80410219Y-107926254D01*
X80377363Y-107912611D01*
X80123750Y-107912390D01*
X79889357Y-108009239D01*
X79709869Y-108188414D01*
X79612611Y-108422637D01*
X79612390Y-108676250D01*
X69837520Y-108676250D01*
X69837610Y-108573750D01*
X69740761Y-108339357D01*
X69601561Y-108199914D01*
X69740131Y-108061586D01*
X69837389Y-107827363D01*
X69837597Y-107589050D01*
X69988414Y-107740131D01*
X70222637Y-107837389D01*
X70476250Y-107837610D01*
X70710643Y-107740761D01*
X70890131Y-107561586D01*
X70978930Y-107347733D01*
X71021753Y-107347733D01*
X71118602Y-107582126D01*
X71297777Y-107761614D01*
X71532000Y-107858872D01*
X71785613Y-107859093D01*
X72020006Y-107762244D01*
X72186770Y-107595770D01*
X73422510Y-107595770D01*
X73519359Y-107830163D01*
X73698534Y-108009651D01*
X73932757Y-108106909D01*
X74186370Y-108107130D01*
X74420763Y-108010281D01*
X74479897Y-107951250D01*
X77012390Y-107951250D01*
X77109239Y-108185643D01*
X77288414Y-108365131D01*
X77522637Y-108462389D01*
X77776250Y-108462610D01*
X78010643Y-108365761D01*
X78190131Y-108186586D01*
X78287389Y-107952363D01*
X78287610Y-107698750D01*
X78190761Y-107464357D01*
X78102808Y-107376250D01*
X79862390Y-107376250D01*
X79959239Y-107610643D01*
X80138414Y-107790131D01*
X80372637Y-107887389D01*
X80626250Y-107887610D01*
X80860643Y-107790761D01*
X80924955Y-107726561D01*
X80988414Y-107790131D01*
X81222637Y-107887389D01*
X81476250Y-107887610D01*
X81710643Y-107790761D01*
X81890131Y-107611586D01*
X81987389Y-107377363D01*
X81987610Y-107123750D01*
X81890761Y-106889357D01*
X81711586Y-106709869D01*
X81703139Y-106706362D01*
X81710643Y-106703261D01*
X81887963Y-106526250D01*
X83462390Y-106526250D01*
X83559239Y-106760643D01*
X83738414Y-106940131D01*
X83972637Y-107037389D01*
X84226250Y-107037610D01*
X84460643Y-106940761D01*
X84625441Y-106776250D01*
X94239890Y-106776250D01*
X94336739Y-107010643D01*
X94515914Y-107190131D01*
X94750137Y-107287389D01*
X95003750Y-107287610D01*
X95238143Y-107190761D01*
X95417631Y-107011586D01*
X95514889Y-106777363D01*
X95515110Y-106523750D01*
X95418261Y-106289357D01*
X95290290Y-106161162D01*
X95440127Y-106011586D01*
X95537385Y-105777363D01*
X95537606Y-105523750D01*
X95440757Y-105289357D01*
X95326559Y-105174960D01*
X95440131Y-105061586D01*
X95537389Y-104827363D01*
X95537564Y-104626250D01*
X96412390Y-104626250D01*
X96509239Y-104860643D01*
X96688414Y-105040131D01*
X96922637Y-105137389D01*
X97176250Y-105137610D01*
X97410643Y-105040761D01*
X97590131Y-104861586D01*
X97687389Y-104627363D01*
X97687610Y-104373750D01*
X97597029Y-104154526D01*
X97690131Y-104061586D01*
X97787389Y-103827363D01*
X97787610Y-103573750D01*
X97690761Y-103339357D01*
X97511586Y-103159869D01*
X97277363Y-103062611D01*
X97023750Y-103062390D01*
X96789357Y-103159239D01*
X96609869Y-103338414D01*
X96512611Y-103572637D01*
X96512390Y-103826250D01*
X96602971Y-104045474D01*
X96509869Y-104138414D01*
X96412611Y-104372637D01*
X96412390Y-104626250D01*
X95537564Y-104626250D01*
X95537610Y-104573750D01*
X95440761Y-104339357D01*
X95261586Y-104159869D01*
X95027363Y-104062611D01*
X94773750Y-104062390D01*
X94539357Y-104159239D01*
X94359869Y-104338414D01*
X94262611Y-104572637D01*
X94262390Y-104826250D01*
X94359239Y-105060643D01*
X94473437Y-105175040D01*
X94359865Y-105288414D01*
X94262607Y-105522637D01*
X94262386Y-105776250D01*
X94359235Y-106010643D01*
X94487206Y-106138838D01*
X94337369Y-106288414D01*
X94240111Y-106522637D01*
X94239890Y-106776250D01*
X84625441Y-106776250D01*
X84640131Y-106761586D01*
X84737389Y-106527363D01*
X84737610Y-106273750D01*
X84640761Y-106039357D01*
X84461586Y-105859869D01*
X84227363Y-105762611D01*
X83973750Y-105762390D01*
X83739357Y-105859239D01*
X83559869Y-106038414D01*
X83462611Y-106272637D01*
X83462390Y-106526250D01*
X81887963Y-106526250D01*
X81890131Y-106524086D01*
X81987389Y-106289863D01*
X81987610Y-106036250D01*
X81890761Y-105801857D01*
X81845311Y-105756328D01*
X81890131Y-105711586D01*
X81987389Y-105477363D01*
X81987610Y-105223750D01*
X81890761Y-104989357D01*
X81711586Y-104809869D01*
X81477363Y-104712611D01*
X81223750Y-104712390D01*
X80989357Y-104809239D01*
X80809869Y-104988414D01*
X80712611Y-105222637D01*
X80712390Y-105476250D01*
X80809239Y-105710643D01*
X80854689Y-105756172D01*
X80809869Y-105800914D01*
X80712611Y-106035137D01*
X80712390Y-106288750D01*
X80809239Y-106523143D01*
X80988414Y-106702631D01*
X80996861Y-106706138D01*
X80989357Y-106709239D01*
X80925045Y-106773439D01*
X80861586Y-106709869D01*
X80627363Y-106612611D01*
X80373750Y-106612390D01*
X80139357Y-106709239D01*
X79959869Y-106888414D01*
X79862611Y-107122637D01*
X79862390Y-107376250D01*
X78102808Y-107376250D01*
X78011586Y-107284869D01*
X77777363Y-107187611D01*
X77523750Y-107187390D01*
X77289357Y-107284239D01*
X77109869Y-107463414D01*
X77012611Y-107697637D01*
X77012390Y-107951250D01*
X74479897Y-107951250D01*
X74600251Y-107831106D01*
X74697509Y-107596883D01*
X74697730Y-107343270D01*
X74600881Y-107108877D01*
X74421706Y-106929389D01*
X74187483Y-106832131D01*
X73933870Y-106831910D01*
X73699477Y-106928759D01*
X73519989Y-107107934D01*
X73422731Y-107342157D01*
X73422510Y-107595770D01*
X72186770Y-107595770D01*
X72199494Y-107583069D01*
X72296752Y-107348846D01*
X72296973Y-107095233D01*
X72200124Y-106860840D01*
X72020949Y-106681352D01*
X71786726Y-106584094D01*
X71533113Y-106583873D01*
X71298720Y-106680722D01*
X71119232Y-106859897D01*
X71021974Y-107094120D01*
X71021753Y-107347733D01*
X70978930Y-107347733D01*
X70987389Y-107327363D01*
X70987610Y-107073750D01*
X70890761Y-106839357D01*
X70711586Y-106659869D01*
X70477363Y-106562611D01*
X70223750Y-106562390D01*
X69989357Y-106659239D01*
X69837534Y-106810797D01*
X69837610Y-106723750D01*
X69740761Y-106489357D01*
X69561586Y-106309869D01*
X69327363Y-106212611D01*
X69073750Y-106212390D01*
X69014987Y-106236670D01*
X69050278Y-106201441D01*
X69096436Y-106090278D01*
X70423111Y-106090278D01*
X70519960Y-106324671D01*
X70699135Y-106504159D01*
X70933358Y-106601417D01*
X71186971Y-106601638D01*
X71421364Y-106504789D01*
X71600852Y-106325614D01*
X71614592Y-106292525D01*
X71722637Y-106337389D01*
X71976250Y-106337610D01*
X72210643Y-106240761D01*
X72224912Y-106226516D01*
X72288416Y-106290131D01*
X72522639Y-106387389D01*
X72776252Y-106387610D01*
X73010645Y-106290761D01*
X73190133Y-106111586D01*
X73258985Y-105945770D01*
X77682510Y-105945770D01*
X77779359Y-106180163D01*
X77958534Y-106359651D01*
X78192757Y-106456909D01*
X78446370Y-106457130D01*
X78680763Y-106360281D01*
X78860251Y-106181106D01*
X78957509Y-105946883D01*
X78957730Y-105693270D01*
X78860881Y-105458877D01*
X78681706Y-105279389D01*
X78447483Y-105182131D01*
X78193870Y-105181910D01*
X77959477Y-105278759D01*
X77779989Y-105457934D01*
X77682731Y-105692157D01*
X77682510Y-105945770D01*
X73258985Y-105945770D01*
X73287391Y-105877363D01*
X73287612Y-105623750D01*
X73190763Y-105389357D01*
X73011588Y-105209869D01*
X72777365Y-105112611D01*
X72523752Y-105112390D01*
X72289359Y-105209239D01*
X72275090Y-105223484D01*
X72211586Y-105159869D01*
X71977363Y-105062611D01*
X71723750Y-105062390D01*
X71489357Y-105159239D01*
X71309869Y-105338414D01*
X71296129Y-105371503D01*
X71188084Y-105326639D01*
X70934471Y-105326418D01*
X70700078Y-105423267D01*
X70520590Y-105602442D01*
X70423332Y-105836665D01*
X70423111Y-106090278D01*
X69096436Y-106090278D01*
X69147536Y-105967218D01*
X69147757Y-105713605D01*
X69050908Y-105479212D01*
X68871733Y-105299724D01*
X68637510Y-105202466D01*
X68587411Y-105202422D01*
X68587610Y-104973750D01*
X68490761Y-104739357D01*
X68311586Y-104559869D01*
X68137170Y-104487445D01*
X68326248Y-104487610D01*
X68353741Y-104476250D01*
X69262390Y-104476250D01*
X69359239Y-104710643D01*
X69538414Y-104890131D01*
X69772637Y-104987389D01*
X70026250Y-104987610D01*
X70260643Y-104890761D01*
X70299911Y-104851561D01*
X70338414Y-104890131D01*
X70572637Y-104987389D01*
X70826250Y-104987610D01*
X71060643Y-104890761D01*
X71240131Y-104711586D01*
X71268188Y-104644018D01*
X71372637Y-104687389D01*
X71626250Y-104687610D01*
X71860643Y-104590761D01*
X72040131Y-104411586D01*
X72075541Y-104326309D01*
X72222637Y-104387389D01*
X72476250Y-104387610D01*
X72710643Y-104290761D01*
X72890131Y-104111586D01*
X72987389Y-103877363D01*
X72987610Y-103623750D01*
X72906005Y-103426250D01*
X76012390Y-103426250D01*
X76109239Y-103660643D01*
X76288414Y-103840131D01*
X76522637Y-103937389D01*
X76776250Y-103937610D01*
X77010643Y-103840761D01*
X77190131Y-103661586D01*
X77287389Y-103427363D01*
X77287610Y-103173750D01*
X77220982Y-103012496D01*
X77351250Y-103012610D01*
X77585643Y-102915761D01*
X77765131Y-102736586D01*
X77862389Y-102502363D01*
X77862610Y-102248750D01*
X77765761Y-102014357D01*
X77586586Y-101834869D01*
X77352363Y-101737611D01*
X77098750Y-101737390D01*
X76864357Y-101834239D01*
X76684869Y-102013414D01*
X76587611Y-102247637D01*
X76587390Y-102501250D01*
X76654018Y-102662504D01*
X76523750Y-102662390D01*
X76289357Y-102759239D01*
X76109869Y-102938414D01*
X76012611Y-103172637D01*
X76012390Y-103426250D01*
X72906005Y-103426250D01*
X72890761Y-103389357D01*
X72826605Y-103325089D01*
X72840131Y-103311586D01*
X72937389Y-103077363D01*
X72937610Y-102823750D01*
X72840761Y-102589357D01*
X72661586Y-102409869D01*
X72427363Y-102312611D01*
X72173750Y-102312390D01*
X71939357Y-102409239D01*
X71759869Y-102588414D01*
X71662611Y-102822637D01*
X71662390Y-103076250D01*
X71759239Y-103310643D01*
X71823395Y-103374911D01*
X71809869Y-103388414D01*
X71774459Y-103473691D01*
X71627363Y-103412611D01*
X71373750Y-103412390D01*
X71139357Y-103509239D01*
X70959869Y-103688414D01*
X70931812Y-103755982D01*
X70827363Y-103712611D01*
X70573750Y-103712390D01*
X70339357Y-103809239D01*
X70300089Y-103848439D01*
X70261586Y-103809869D01*
X70027363Y-103712611D01*
X69773750Y-103712390D01*
X69539357Y-103809239D01*
X69359869Y-103988414D01*
X69262611Y-104222637D01*
X69262390Y-104476250D01*
X68353741Y-104476250D01*
X68560641Y-104390761D01*
X68740129Y-104211586D01*
X68837387Y-103977363D01*
X68837608Y-103723750D01*
X68740759Y-103489357D01*
X68561584Y-103309869D01*
X68327361Y-103212611D01*
X68073748Y-103212390D01*
X67839355Y-103309239D01*
X67659867Y-103488414D01*
X67562609Y-103722637D01*
X67562388Y-103976250D01*
X67659237Y-104210643D01*
X67838412Y-104390131D01*
X68012828Y-104462555D01*
X67823750Y-104462390D01*
X67589357Y-104559239D01*
X67409869Y-104738414D01*
X67312611Y-104972637D01*
X67312390Y-105226250D01*
X62575611Y-105226250D01*
X62511586Y-105162114D01*
X62277363Y-105064856D01*
X62023750Y-105064635D01*
X61789357Y-105161484D01*
X61609869Y-105340659D01*
X61512611Y-105574882D01*
X61512390Y-105828495D01*
X60137389Y-105828495D01*
X60137610Y-105575987D01*
X60040761Y-105341594D01*
X59861586Y-105162106D01*
X59627363Y-105064848D01*
X59373750Y-105064627D01*
X59139357Y-105161476D01*
X58959869Y-105340651D01*
X58862611Y-105574874D01*
X58862390Y-105828487D01*
X51253874Y-105828487D01*
X51337389Y-105627363D01*
X51337610Y-105373750D01*
X51240761Y-105139357D01*
X51201561Y-105100089D01*
X51240131Y-105061586D01*
X51337389Y-104827363D01*
X51337610Y-104573750D01*
X51240761Y-104339357D01*
X51201561Y-104300089D01*
X51240131Y-104261586D01*
X51337389Y-104027363D01*
X51337610Y-103773750D01*
X51240761Y-103539357D01*
X51201561Y-103500089D01*
X51240131Y-103461586D01*
X51337389Y-103227363D01*
X51337610Y-102973750D01*
X51240761Y-102739357D01*
X51201561Y-102700089D01*
X51240131Y-102661586D01*
X51296327Y-102526250D01*
X70162390Y-102526250D01*
X70259239Y-102760643D01*
X70438414Y-102940131D01*
X70672637Y-103037389D01*
X70926250Y-103037610D01*
X71160643Y-102940761D01*
X71340131Y-102761586D01*
X71437389Y-102527363D01*
X71437610Y-102273750D01*
X71340761Y-102039357D01*
X71161586Y-101859869D01*
X70927363Y-101762611D01*
X70673750Y-101762390D01*
X70439357Y-101859239D01*
X70259869Y-102038414D01*
X70162611Y-102272637D01*
X70162390Y-102526250D01*
X51296327Y-102526250D01*
X51337389Y-102427363D01*
X51337610Y-102173750D01*
X51240761Y-101939357D01*
X51201561Y-101900089D01*
X51240131Y-101861586D01*
X51337389Y-101627363D01*
X51337610Y-101373750D01*
X51317984Y-101326250D01*
X80162390Y-101326250D01*
X80259239Y-101560643D01*
X80438414Y-101740131D01*
X80672637Y-101837389D01*
X80862220Y-101837554D01*
X80862154Y-101913760D01*
X80959003Y-102148153D01*
X81138178Y-102327641D01*
X81372401Y-102424899D01*
X81626014Y-102425120D01*
X81860407Y-102328271D01*
X82039895Y-102149096D01*
X82137153Y-101914873D01*
X82137374Y-101661260D01*
X82102249Y-101576250D01*
X82297389Y-101576250D01*
X82394238Y-101810643D01*
X82573413Y-101990131D01*
X82807636Y-102087389D01*
X83061249Y-102087610D01*
X83295642Y-101990761D01*
X83475130Y-101811586D01*
X83572388Y-101577363D01*
X83572609Y-101323750D01*
X83475760Y-101089357D01*
X83296585Y-100909869D01*
X83062362Y-100812611D01*
X82808749Y-100812390D01*
X82574356Y-100909239D01*
X82394868Y-101088414D01*
X82297610Y-101322637D01*
X82297389Y-101576250D01*
X82102249Y-101576250D01*
X82040525Y-101426867D01*
X81861350Y-101247379D01*
X81792653Y-101218854D01*
X81860643Y-101190761D01*
X82040131Y-101011586D01*
X82137389Y-100777363D01*
X82137610Y-100523750D01*
X82040761Y-100289357D01*
X81861586Y-100109869D01*
X81838050Y-100100096D01*
X81860643Y-100090761D01*
X81875179Y-100076250D01*
X83712390Y-100076250D01*
X83809239Y-100310643D01*
X83988414Y-100490131D01*
X84222637Y-100587389D01*
X84476250Y-100587610D01*
X84710643Y-100490761D01*
X84890131Y-100311586D01*
X84987389Y-100077363D01*
X84987610Y-99823750D01*
X84890761Y-99589357D01*
X84711586Y-99409869D01*
X84477363Y-99312611D01*
X84223750Y-99312390D01*
X83989357Y-99409239D01*
X83809869Y-99588414D01*
X83712611Y-99822637D01*
X83712390Y-100076250D01*
X81875179Y-100076250D01*
X82040131Y-99911586D01*
X82137389Y-99677363D01*
X82137610Y-99423750D01*
X82040761Y-99189357D01*
X81861586Y-99009869D01*
X81627363Y-98912611D01*
X81487576Y-98912489D01*
X81487610Y-98873750D01*
X81390761Y-98639357D01*
X81277852Y-98526250D01*
X87012390Y-98526250D01*
X87109239Y-98760643D01*
X87288414Y-98940131D01*
X87522637Y-99037389D01*
X87776250Y-99037610D01*
X88010643Y-98940761D01*
X88190131Y-98761586D01*
X88287389Y-98527363D01*
X88287610Y-98273750D01*
X88190761Y-98039357D01*
X88011586Y-97859869D01*
X87777363Y-97762611D01*
X87523750Y-97762390D01*
X87289357Y-97859239D01*
X87109869Y-98038414D01*
X87012611Y-98272637D01*
X87012390Y-98526250D01*
X81277852Y-98526250D01*
X81211586Y-98459869D01*
X80977363Y-98362611D01*
X80723750Y-98362390D01*
X80489357Y-98459239D01*
X80309869Y-98638414D01*
X80212611Y-98872637D01*
X80212390Y-99126250D01*
X80309239Y-99360643D01*
X80488414Y-99540131D01*
X80511950Y-99549904D01*
X80489357Y-99559239D01*
X80309869Y-99738414D01*
X80212611Y-99972637D01*
X80212390Y-100226250D01*
X80309239Y-100460643D01*
X80487593Y-100639308D01*
X80439357Y-100659239D01*
X80259869Y-100838414D01*
X80162611Y-101072637D01*
X80162390Y-101326250D01*
X51317984Y-101326250D01*
X51240761Y-101139357D01*
X51201561Y-101100089D01*
X51240131Y-101061586D01*
X51337389Y-100827363D01*
X51337477Y-100726250D01*
X66462390Y-100726250D01*
X66559239Y-100960643D01*
X66738414Y-101140131D01*
X66972637Y-101237389D01*
X67226250Y-101237610D01*
X67460643Y-101140761D01*
X67640131Y-100961586D01*
X67737389Y-100727363D01*
X67737610Y-100473750D01*
X67640761Y-100239357D01*
X67461586Y-100059869D01*
X67227363Y-99962611D01*
X66973750Y-99962390D01*
X66739357Y-100059239D01*
X66559869Y-100238414D01*
X66462611Y-100472637D01*
X66462390Y-100726250D01*
X51337477Y-100726250D01*
X51337610Y-100573750D01*
X51240761Y-100339357D01*
X51201561Y-100300089D01*
X51240131Y-100261586D01*
X51337389Y-100027363D01*
X51337610Y-99773750D01*
X51240761Y-99539357D01*
X51061586Y-99359869D01*
X50827363Y-99262611D01*
X50573750Y-99262390D01*
X50425435Y-99323672D01*
X50425435Y-99163105D01*
X64906078Y-99163105D01*
X65002927Y-99397498D01*
X65182102Y-99576986D01*
X65416325Y-99674244D01*
X65669938Y-99674465D01*
X65904331Y-99577616D01*
X66083819Y-99398441D01*
X66113795Y-99326250D01*
X73912390Y-99326250D01*
X74009239Y-99560643D01*
X74188414Y-99740131D01*
X74422637Y-99837389D01*
X74676250Y-99837610D01*
X74910643Y-99740761D01*
X75090131Y-99561586D01*
X75187389Y-99327363D01*
X75187610Y-99073750D01*
X75090761Y-98839357D01*
X74911586Y-98659869D01*
X74677363Y-98562611D01*
X74423750Y-98562390D01*
X74189357Y-98659239D01*
X74009869Y-98838414D01*
X73912611Y-99072637D01*
X73912390Y-99326250D01*
X66113795Y-99326250D01*
X66181077Y-99164218D01*
X66181298Y-98910605D01*
X66171662Y-98887285D01*
X66226776Y-98887333D01*
X66461169Y-98790484D01*
X66625689Y-98626250D01*
X67662390Y-98626250D01*
X67759239Y-98860643D01*
X67938414Y-99040131D01*
X68172637Y-99137389D01*
X68426250Y-99137610D01*
X68660643Y-99040761D01*
X68840131Y-98861586D01*
X68937389Y-98627363D01*
X68937610Y-98373750D01*
X68840761Y-98139357D01*
X68661586Y-97959869D01*
X68427363Y-97862611D01*
X68173750Y-97862390D01*
X67939357Y-97959239D01*
X67759869Y-98138414D01*
X67662611Y-98372637D01*
X67662390Y-98626250D01*
X66625689Y-98626250D01*
X66640657Y-98611309D01*
X66737915Y-98377086D01*
X66738136Y-98123473D01*
X66737931Y-98122978D01*
X66772637Y-98137389D01*
X67026250Y-98137610D01*
X67260643Y-98040761D01*
X67440131Y-97861586D01*
X67537389Y-97627363D01*
X67537564Y-97426250D01*
X95212390Y-97426250D01*
X95309239Y-97660643D01*
X95488414Y-97840131D01*
X95722637Y-97937389D01*
X95976250Y-97937610D01*
X96210643Y-97840761D01*
X96390131Y-97661586D01*
X96487389Y-97427363D01*
X96487610Y-97173750D01*
X96390761Y-96939357D01*
X96211586Y-96759869D01*
X95977363Y-96662611D01*
X95723750Y-96662390D01*
X95489357Y-96759239D01*
X95309869Y-96938414D01*
X95212611Y-97172637D01*
X95212390Y-97426250D01*
X67537564Y-97426250D01*
X67537610Y-97373750D01*
X67440761Y-97139357D01*
X67261586Y-96959869D01*
X67027363Y-96862611D01*
X66773750Y-96862390D01*
X66539357Y-96959239D01*
X66359869Y-97138414D01*
X66262611Y-97372637D01*
X66262390Y-97626250D01*
X66262595Y-97626745D01*
X66227889Y-97612334D01*
X65974276Y-97612113D01*
X65739883Y-97708962D01*
X65560395Y-97888137D01*
X65463137Y-98122360D01*
X65462916Y-98375973D01*
X65472552Y-98399293D01*
X65417438Y-98399245D01*
X65183045Y-98496094D01*
X65003557Y-98675269D01*
X64906299Y-98909492D01*
X64906078Y-99163105D01*
X50425435Y-99163105D01*
X50425435Y-97276265D01*
X50572637Y-97337389D01*
X50826250Y-97337610D01*
X51060643Y-97240761D01*
X51240131Y-97061586D01*
X51317089Y-96876250D01*
X64912390Y-96876250D01*
X65009239Y-97110643D01*
X65188414Y-97290131D01*
X65422637Y-97387389D01*
X65676250Y-97387610D01*
X65910643Y-97290761D01*
X66090131Y-97111586D01*
X66187389Y-96877363D01*
X66187610Y-96623750D01*
X66090761Y-96389357D01*
X66077677Y-96376250D01*
X76112390Y-96376250D01*
X76209239Y-96610643D01*
X76388414Y-96790131D01*
X76622637Y-96887389D01*
X76876250Y-96887610D01*
X77110643Y-96790761D01*
X77290131Y-96611586D01*
X77387389Y-96377363D01*
X77387610Y-96123750D01*
X77347210Y-96025973D01*
X78312916Y-96025973D01*
X78409765Y-96260366D01*
X78448965Y-96299634D01*
X78410395Y-96338137D01*
X78313137Y-96572360D01*
X78312916Y-96825973D01*
X78409765Y-97060366D01*
X78588940Y-97239854D01*
X78823163Y-97337112D01*
X79076776Y-97337333D01*
X79311169Y-97240484D01*
X79490657Y-97061309D01*
X79587915Y-96827086D01*
X79588136Y-96573473D01*
X79523173Y-96416249D01*
X80772391Y-96416249D01*
X80869240Y-96650642D01*
X81048415Y-96830130D01*
X81282638Y-96927388D01*
X81536251Y-96927609D01*
X81770644Y-96830760D01*
X81950132Y-96651585D01*
X82047390Y-96417362D01*
X82047611Y-96163749D01*
X81950762Y-95929356D01*
X81771587Y-95749868D01*
X81537364Y-95652610D01*
X81283751Y-95652389D01*
X81049358Y-95749238D01*
X80869870Y-95928413D01*
X80772612Y-96162636D01*
X80772391Y-96416249D01*
X79523173Y-96416249D01*
X79491287Y-96339080D01*
X79452087Y-96299812D01*
X79490657Y-96261309D01*
X79587915Y-96027086D01*
X79588136Y-95773473D01*
X79491287Y-95539080D01*
X79312112Y-95359592D01*
X79077889Y-95262334D01*
X78824276Y-95262113D01*
X78589883Y-95358962D01*
X78410395Y-95538137D01*
X78313137Y-95772360D01*
X78312916Y-96025973D01*
X77347210Y-96025973D01*
X77290761Y-95889357D01*
X77111586Y-95709869D01*
X76877363Y-95612611D01*
X76623750Y-95612390D01*
X76389357Y-95709239D01*
X76209869Y-95888414D01*
X76112611Y-96122637D01*
X76112390Y-96376250D01*
X66077677Y-96376250D01*
X65911586Y-96209869D01*
X65677363Y-96112611D01*
X65423750Y-96112390D01*
X65189357Y-96209239D01*
X65009869Y-96388414D01*
X64912611Y-96622637D01*
X64912390Y-96876250D01*
X51317089Y-96876250D01*
X51337389Y-96827363D01*
X51337610Y-96573750D01*
X51240761Y-96339357D01*
X51201561Y-96300089D01*
X51240131Y-96261586D01*
X51337389Y-96027363D01*
X51337610Y-95773750D01*
X51329231Y-95753471D01*
X63662390Y-95753471D01*
X63759239Y-95987864D01*
X63938414Y-96167352D01*
X64172637Y-96264610D01*
X64426250Y-96264831D01*
X64660643Y-96167982D01*
X64840131Y-95988807D01*
X64907630Y-95826250D01*
X74912392Y-95826250D01*
X75009241Y-96060643D01*
X75188416Y-96240131D01*
X75422639Y-96337389D01*
X75676252Y-96337610D01*
X75910645Y-96240761D01*
X76090133Y-96061586D01*
X76187391Y-95827363D01*
X76187612Y-95573750D01*
X76090763Y-95339357D01*
X75911588Y-95159869D01*
X75677365Y-95062611D01*
X75423752Y-95062390D01*
X75189359Y-95159239D01*
X75009871Y-95338414D01*
X74912613Y-95572637D01*
X74912392Y-95826250D01*
X64907630Y-95826250D01*
X64937389Y-95754584D01*
X64937610Y-95500971D01*
X64840761Y-95266578D01*
X64661586Y-95087090D01*
X64515068Y-95026250D01*
X87112390Y-95026250D01*
X87209239Y-95260643D01*
X87388414Y-95440131D01*
X87622637Y-95537389D01*
X87876250Y-95537610D01*
X88110643Y-95440761D01*
X88290131Y-95261586D01*
X88387389Y-95027363D01*
X88387610Y-94773750D01*
X88290761Y-94539357D01*
X88111586Y-94359869D01*
X87877363Y-94262611D01*
X87623750Y-94262390D01*
X87389357Y-94359239D01*
X87209869Y-94538414D01*
X87112611Y-94772637D01*
X87112390Y-95026250D01*
X64515068Y-95026250D01*
X64427363Y-94989832D01*
X64173750Y-94989611D01*
X63939357Y-95086460D01*
X63759869Y-95265635D01*
X63662611Y-95499858D01*
X63662390Y-95753471D01*
X51329231Y-95753471D01*
X51240761Y-95539357D01*
X51061586Y-95359869D01*
X50827363Y-95262611D01*
X50573750Y-95262390D01*
X50425435Y-95323672D01*
X50425435Y-93626250D01*
X52162390Y-93626250D01*
X52259239Y-93860643D01*
X52438414Y-94040131D01*
X52672637Y-94137389D01*
X52926250Y-94137610D01*
X53160643Y-94040761D01*
X53340131Y-93861586D01*
X53341423Y-93858474D01*
X64990321Y-93858474D01*
X65087170Y-94092867D01*
X65266345Y-94272355D01*
X65500568Y-94369613D01*
X65754181Y-94369834D01*
X65988574Y-94272985D01*
X66168062Y-94093810D01*
X66259420Y-93873794D01*
X83762390Y-93873794D01*
X83859239Y-94108187D01*
X84038414Y-94287675D01*
X84272637Y-94384933D01*
X84526250Y-94385154D01*
X84760643Y-94288305D01*
X84940131Y-94109130D01*
X85037389Y-93874907D01*
X85037610Y-93621294D01*
X84940761Y-93386901D01*
X84761586Y-93207413D01*
X84527363Y-93110155D01*
X84273750Y-93109934D01*
X84039357Y-93206783D01*
X83859869Y-93385958D01*
X83762611Y-93620181D01*
X83762390Y-93873794D01*
X66259420Y-93873794D01*
X66265320Y-93859587D01*
X66265541Y-93605974D01*
X66168692Y-93371581D01*
X65989517Y-93192093D01*
X65755294Y-93094835D01*
X65501681Y-93094614D01*
X65267288Y-93191463D01*
X65087800Y-93370638D01*
X64990542Y-93604861D01*
X64990321Y-93858474D01*
X53341423Y-93858474D01*
X53437389Y-93627363D01*
X53437610Y-93373750D01*
X53340761Y-93139357D01*
X53290243Y-93088750D01*
X53712390Y-93088750D01*
X53809239Y-93323143D01*
X53988414Y-93502631D01*
X54222637Y-93599889D01*
X54476250Y-93600110D01*
X54710643Y-93503261D01*
X54890131Y-93324086D01*
X54987389Y-93089863D01*
X54987610Y-92836250D01*
X54921386Y-92675973D01*
X59162916Y-92675973D01*
X59259765Y-92910366D01*
X59438940Y-93089854D01*
X59673163Y-93187112D01*
X59926776Y-93187333D01*
X60161169Y-93090484D01*
X60225515Y-93026250D01*
X75462390Y-93026250D01*
X75559239Y-93260643D01*
X75738414Y-93440131D01*
X75972637Y-93537389D01*
X76226250Y-93537610D01*
X76460643Y-93440761D01*
X76575354Y-93326250D01*
X78112390Y-93326250D01*
X78209239Y-93560643D01*
X78388414Y-93740131D01*
X78622637Y-93837389D01*
X78876250Y-93837610D01*
X79110643Y-93740761D01*
X79290131Y-93561586D01*
X79387389Y-93327363D01*
X79387610Y-93073750D01*
X79290761Y-92839357D01*
X79111586Y-92659869D01*
X78877363Y-92562611D01*
X78623750Y-92562390D01*
X78389357Y-92659239D01*
X78209869Y-92838414D01*
X78112611Y-93072637D01*
X78112390Y-93326250D01*
X76575354Y-93326250D01*
X76640131Y-93261586D01*
X76737389Y-93027363D01*
X76737610Y-92773750D01*
X76640761Y-92539357D01*
X76461586Y-92359869D01*
X76227363Y-92262611D01*
X75973750Y-92262390D01*
X75739357Y-92359239D01*
X75559869Y-92538414D01*
X75462611Y-92772637D01*
X75462390Y-93026250D01*
X60225515Y-93026250D01*
X60340657Y-92911309D01*
X60437915Y-92677086D01*
X60438136Y-92423473D01*
X60341287Y-92189080D01*
X60162112Y-92009592D01*
X59961403Y-91926250D01*
X73262390Y-91926250D01*
X73359239Y-92160643D01*
X73538414Y-92340131D01*
X73772637Y-92437389D01*
X74026250Y-92437610D01*
X74260643Y-92340761D01*
X74440131Y-92161586D01*
X74537389Y-91927363D01*
X74537610Y-91673750D01*
X74440761Y-91439357D01*
X74362284Y-91360743D01*
X74410643Y-91340761D01*
X74590131Y-91161586D01*
X74625680Y-91075973D01*
X76037916Y-91075973D01*
X76134765Y-91310366D01*
X76313940Y-91489854D01*
X76548163Y-91587112D01*
X76801776Y-91587333D01*
X77036169Y-91490484D01*
X77150602Y-91376250D01*
X79962390Y-91376250D01*
X80059239Y-91610643D01*
X80238414Y-91790131D01*
X80472637Y-91887389D01*
X80726250Y-91887610D01*
X80960643Y-91790761D01*
X81140131Y-91611586D01*
X81237389Y-91377363D01*
X81237610Y-91123750D01*
X81213156Y-91064567D01*
X81388414Y-91240131D01*
X81622637Y-91337389D01*
X81876250Y-91337610D01*
X81903743Y-91326250D01*
X87462390Y-91326250D01*
X87559239Y-91560643D01*
X87738414Y-91740131D01*
X87972637Y-91837389D01*
X88226250Y-91837610D01*
X88460643Y-91740761D01*
X88640131Y-91561586D01*
X88732664Y-91338740D01*
X88762390Y-91338740D01*
X88859239Y-91573133D01*
X89038414Y-91752621D01*
X89272637Y-91849879D01*
X89526250Y-91850100D01*
X89760643Y-91753251D01*
X89940131Y-91574076D01*
X90037389Y-91339853D01*
X90037488Y-91225973D01*
X90062916Y-91225973D01*
X90159765Y-91460366D01*
X90338940Y-91639854D01*
X90573163Y-91737112D01*
X90826776Y-91737333D01*
X91061169Y-91640484D01*
X91240657Y-91461309D01*
X91337915Y-91227086D01*
X91338136Y-90973473D01*
X91241287Y-90739080D01*
X91062112Y-90559592D01*
X90827889Y-90462334D01*
X90574276Y-90462113D01*
X90339883Y-90558962D01*
X90160395Y-90738137D01*
X90063137Y-90972360D01*
X90062916Y-91225973D01*
X90037488Y-91225973D01*
X90037610Y-91086240D01*
X89940761Y-90851847D01*
X89761586Y-90672359D01*
X89527363Y-90575101D01*
X89273750Y-90574880D01*
X89039357Y-90671729D01*
X88859869Y-90850904D01*
X88762611Y-91085127D01*
X88762390Y-91338740D01*
X88732664Y-91338740D01*
X88737389Y-91327363D01*
X88737610Y-91073750D01*
X88640761Y-90839357D01*
X88461586Y-90659869D01*
X88227363Y-90562611D01*
X87973750Y-90562390D01*
X87739357Y-90659239D01*
X87559869Y-90838414D01*
X87462611Y-91072637D01*
X87462390Y-91326250D01*
X81903743Y-91326250D01*
X82110643Y-91240761D01*
X82290131Y-91061586D01*
X82387389Y-90827363D01*
X82387564Y-90626250D01*
X86012380Y-90626250D01*
X86109229Y-90860643D01*
X86288404Y-91040131D01*
X86522627Y-91137389D01*
X86776240Y-91137610D01*
X87010633Y-91040761D01*
X87190121Y-90861586D01*
X87287379Y-90627363D01*
X87287600Y-90373750D01*
X87190751Y-90139357D01*
X87011576Y-89959869D01*
X86777353Y-89862611D01*
X86523740Y-89862390D01*
X86289347Y-89959239D01*
X86109859Y-90138414D01*
X86012601Y-90372637D01*
X86012380Y-90626250D01*
X82387564Y-90626250D01*
X82387610Y-90573750D01*
X82290761Y-90339357D01*
X82111586Y-90159869D01*
X81877363Y-90062611D01*
X81623750Y-90062390D01*
X81389357Y-90159239D01*
X81209869Y-90338414D01*
X81112611Y-90572637D01*
X81112390Y-90826250D01*
X81136844Y-90885433D01*
X80961586Y-90709869D01*
X80727363Y-90612611D01*
X80473750Y-90612390D01*
X80239357Y-90709239D01*
X80059869Y-90888414D01*
X79962611Y-91122637D01*
X79962390Y-91376250D01*
X77150602Y-91376250D01*
X77215657Y-91311309D01*
X77312915Y-91077086D01*
X77313136Y-90823473D01*
X77216287Y-90589080D01*
X77037112Y-90409592D01*
X76802889Y-90312334D01*
X76549276Y-90312113D01*
X76314883Y-90408962D01*
X76135395Y-90588137D01*
X76038137Y-90822360D01*
X76037916Y-91075973D01*
X74625680Y-91075973D01*
X74687389Y-90927363D01*
X74687610Y-90673750D01*
X74590761Y-90439357D01*
X74411586Y-90259869D01*
X74177363Y-90162611D01*
X73923750Y-90162390D01*
X73689357Y-90259239D01*
X73509869Y-90438414D01*
X73412611Y-90672637D01*
X73412390Y-90926250D01*
X73509239Y-91160643D01*
X73587716Y-91239257D01*
X73539357Y-91259239D01*
X73359869Y-91438414D01*
X73262611Y-91672637D01*
X73262390Y-91926250D01*
X59961403Y-91926250D01*
X59927889Y-91912334D01*
X59674276Y-91912113D01*
X59439883Y-92008962D01*
X59260395Y-92188137D01*
X59163137Y-92422360D01*
X59162916Y-92675973D01*
X54921386Y-92675973D01*
X54890761Y-92601857D01*
X54711586Y-92422369D01*
X54477363Y-92325111D01*
X54223750Y-92324890D01*
X53989357Y-92421739D01*
X53809869Y-92600914D01*
X53712611Y-92835137D01*
X53712390Y-93088750D01*
X53290243Y-93088750D01*
X53161586Y-92959869D01*
X52927363Y-92862611D01*
X52673750Y-92862390D01*
X52439357Y-92959239D01*
X52259869Y-93138414D01*
X52162611Y-93372637D01*
X52162390Y-93626250D01*
X50425435Y-93626250D01*
X50425435Y-90626254D01*
X60162390Y-90626254D01*
X60259239Y-90860647D01*
X60438414Y-91040135D01*
X60672637Y-91137393D01*
X60926250Y-91137614D01*
X61160643Y-91040765D01*
X61325445Y-90876250D01*
X71712390Y-90876250D01*
X71809239Y-91110643D01*
X71988414Y-91290131D01*
X72222637Y-91387389D01*
X72476250Y-91387610D01*
X72710643Y-91290761D01*
X72890131Y-91111586D01*
X72987389Y-90877363D01*
X72987610Y-90623750D01*
X72890761Y-90389357D01*
X72711586Y-90209869D01*
X72477363Y-90112611D01*
X72223750Y-90112390D01*
X71989357Y-90209239D01*
X71809869Y-90388414D01*
X71712611Y-90622637D01*
X71712390Y-90876250D01*
X61325445Y-90876250D01*
X61340131Y-90861590D01*
X61437389Y-90627367D01*
X61437610Y-90373754D01*
X61340761Y-90139361D01*
X61161586Y-89959873D01*
X60927363Y-89862615D01*
X60673750Y-89862394D01*
X60439357Y-89959243D01*
X60259869Y-90138418D01*
X60162611Y-90372641D01*
X60162390Y-90626254D01*
X50425435Y-90626254D01*
X50425435Y-89726250D01*
X67562390Y-89726250D01*
X67659239Y-89960643D01*
X67838414Y-90140131D01*
X68072637Y-90237389D01*
X68326250Y-90237610D01*
X68560643Y-90140761D01*
X68740131Y-89961586D01*
X68817089Y-89776250D01*
X68912390Y-89776250D01*
X69009239Y-90010643D01*
X69188414Y-90190131D01*
X69422637Y-90287389D01*
X69676250Y-90287610D01*
X69910643Y-90190761D01*
X70090131Y-90011586D01*
X70187389Y-89777363D01*
X70187610Y-89523750D01*
X70090761Y-89289357D01*
X69911586Y-89109869D01*
X69677363Y-89012611D01*
X69423750Y-89012390D01*
X69189357Y-89109239D01*
X69009869Y-89288414D01*
X68912611Y-89522637D01*
X68912390Y-89776250D01*
X68817089Y-89776250D01*
X68837389Y-89727363D01*
X68837610Y-89473750D01*
X68740761Y-89239357D01*
X68561586Y-89059869D01*
X68327363Y-88962611D01*
X68073750Y-88962390D01*
X67839357Y-89059239D01*
X67659869Y-89238414D01*
X67562611Y-89472637D01*
X67562390Y-89726250D01*
X50425435Y-89726250D01*
X50425435Y-87908018D01*
X51450253Y-87908018D01*
X51609769Y-88294076D01*
X51904881Y-88589704D01*
X52290661Y-88749894D01*
X52708377Y-88750258D01*
X53094435Y-88590742D01*
X53390063Y-88295630D01*
X53550253Y-87909850D01*
X53550338Y-87811635D01*
X59425253Y-87811635D01*
X59664527Y-88390723D01*
X60107195Y-88834164D01*
X60685865Y-89074449D01*
X61312438Y-89074996D01*
X61891526Y-88835722D01*
X62334967Y-88393054D01*
X62362821Y-88325973D01*
X75612916Y-88325973D01*
X75709765Y-88560366D01*
X75888940Y-88739854D01*
X76123163Y-88837112D01*
X76376776Y-88837333D01*
X76611169Y-88740484D01*
X76775967Y-88575973D01*
X78362916Y-88575973D01*
X78459765Y-88810366D01*
X78638940Y-88989854D01*
X78873163Y-89087112D01*
X79126776Y-89087333D01*
X79361169Y-88990484D01*
X79540657Y-88811309D01*
X79637915Y-88577086D01*
X79637958Y-88527018D01*
X83927379Y-88527018D01*
X84024228Y-88761411D01*
X84203403Y-88940899D01*
X84437626Y-89038157D01*
X84691239Y-89038378D01*
X84721261Y-89025973D01*
X90912916Y-89025973D01*
X91009765Y-89260366D01*
X91188940Y-89439854D01*
X91423163Y-89537112D01*
X91676776Y-89537333D01*
X91703579Y-89526258D01*
X95612390Y-89526258D01*
X95709239Y-89760651D01*
X95888414Y-89940139D01*
X96122637Y-90037397D01*
X96376250Y-90037618D01*
X96610643Y-89940769D01*
X96790131Y-89761594D01*
X96887389Y-89527371D01*
X96887610Y-89273758D01*
X96790761Y-89039365D01*
X96611586Y-88859877D01*
X96377363Y-88762619D01*
X96123750Y-88762398D01*
X95889357Y-88859247D01*
X95709869Y-89038422D01*
X95612611Y-89272645D01*
X95612390Y-89526258D01*
X91703579Y-89526258D01*
X91911169Y-89440484D01*
X92090657Y-89261309D01*
X92187915Y-89027086D01*
X92188033Y-88890614D01*
X93313900Y-88890614D01*
X93410749Y-89125007D01*
X93589924Y-89304495D01*
X93824147Y-89401753D01*
X94077760Y-89401974D01*
X94312153Y-89305125D01*
X94491641Y-89125950D01*
X94504457Y-89095085D01*
X94517376Y-89126350D01*
X94696551Y-89305838D01*
X94930774Y-89403096D01*
X95184387Y-89403317D01*
X95418780Y-89306468D01*
X95598268Y-89127293D01*
X95695526Y-88893070D01*
X95695747Y-88639457D01*
X95598898Y-88405064D01*
X95419723Y-88225576D01*
X95419236Y-88225374D01*
X95550253Y-87909850D01*
X95550617Y-87492134D01*
X95391101Y-87106076D01*
X95095989Y-86810448D01*
X94710209Y-86650258D01*
X94292493Y-86649894D01*
X93906435Y-86809410D01*
X93610807Y-87104522D01*
X93450617Y-87490302D01*
X93450253Y-87908018D01*
X93583634Y-88230824D01*
X93411379Y-88402778D01*
X93314121Y-88637001D01*
X93313900Y-88890614D01*
X92188033Y-88890614D01*
X92188136Y-88773473D01*
X92091287Y-88539080D01*
X91912112Y-88359592D01*
X91677889Y-88262334D01*
X91424276Y-88262113D01*
X91189883Y-88358962D01*
X91010395Y-88538137D01*
X90913137Y-88772360D01*
X90912916Y-89025973D01*
X84721261Y-89025973D01*
X84925632Y-88941529D01*
X85105120Y-88762354D01*
X85202378Y-88528131D01*
X85202599Y-88274518D01*
X85105750Y-88040125D01*
X84926575Y-87860637D01*
X84692352Y-87763379D01*
X84438739Y-87763158D01*
X84204346Y-87860007D01*
X84024858Y-88039182D01*
X83927600Y-88273405D01*
X83927379Y-88527018D01*
X79637958Y-88527018D01*
X79638136Y-88323473D01*
X79541287Y-88089080D01*
X79362112Y-87909592D01*
X79127889Y-87812334D01*
X78874276Y-87812113D01*
X78639883Y-87908962D01*
X78460395Y-88088137D01*
X78363137Y-88322360D01*
X78362916Y-88575973D01*
X76775967Y-88575973D01*
X76790657Y-88561309D01*
X76887915Y-88327086D01*
X76888136Y-88073473D01*
X76791287Y-87839080D01*
X76676064Y-87723655D01*
X91012390Y-87723655D01*
X91109239Y-87958048D01*
X91288414Y-88137536D01*
X91522637Y-88234794D01*
X91776250Y-88235015D01*
X92010643Y-88138166D01*
X92147885Y-88001163D01*
X92235127Y-88037389D01*
X92488740Y-88037610D01*
X92723133Y-87940761D01*
X92902621Y-87761586D01*
X92999879Y-87527363D01*
X93000100Y-87273750D01*
X92903251Y-87039357D01*
X92724076Y-86859869D01*
X92489853Y-86762611D01*
X92236240Y-86762390D01*
X92001847Y-86859239D01*
X91864605Y-86996242D01*
X91777363Y-86960016D01*
X91523750Y-86959795D01*
X91289357Y-87056644D01*
X91109869Y-87235819D01*
X91012611Y-87470042D01*
X91012390Y-87723655D01*
X76676064Y-87723655D01*
X76612112Y-87659592D01*
X76377889Y-87562334D01*
X76124276Y-87562113D01*
X75889883Y-87658962D01*
X75710395Y-87838137D01*
X75613137Y-88072360D01*
X75612916Y-88325973D01*
X62362821Y-88325973D01*
X62575252Y-87814384D01*
X62575799Y-87187811D01*
X62336525Y-86608723D01*
X61954719Y-86226250D01*
X62912390Y-86226250D01*
X63009239Y-86460643D01*
X63188414Y-86640131D01*
X63422637Y-86737389D01*
X63676250Y-86737610D01*
X63910643Y-86640761D01*
X64025354Y-86526250D01*
X67962390Y-86526250D01*
X68059239Y-86760643D01*
X68238414Y-86940131D01*
X68472637Y-87037389D01*
X68726250Y-87037610D01*
X68960643Y-86940761D01*
X69140131Y-86761586D01*
X69237389Y-86527363D01*
X69237610Y-86273750D01*
X69140761Y-86039357D01*
X68961586Y-85859869D01*
X68727363Y-85762611D01*
X68473750Y-85762390D01*
X68239357Y-85859239D01*
X68059869Y-86038414D01*
X67962611Y-86272637D01*
X67962390Y-86526250D01*
X64025354Y-86526250D01*
X64090131Y-86461586D01*
X64187389Y-86227363D01*
X64187610Y-85973750D01*
X64090761Y-85739357D01*
X63911586Y-85559869D01*
X63677363Y-85462611D01*
X63423750Y-85462390D01*
X63189357Y-85559239D01*
X63009869Y-85738414D01*
X62912611Y-85972637D01*
X62912390Y-86226250D01*
X61954719Y-86226250D01*
X61893857Y-86165282D01*
X61315187Y-85924997D01*
X60688614Y-85924450D01*
X60109526Y-86163724D01*
X59666085Y-86606392D01*
X59425800Y-87185062D01*
X59425253Y-87811635D01*
X53550338Y-87811635D01*
X53550617Y-87492134D01*
X53391101Y-87106076D01*
X53095989Y-86810448D01*
X52710209Y-86650258D01*
X52292493Y-86649894D01*
X51906435Y-86809410D01*
X51610807Y-87104522D01*
X51450617Y-87490302D01*
X51450253Y-87908018D01*
X50425435Y-87908018D01*
X50425435Y-85425076D01*
X58273405Y-85425076D01*
X58159869Y-85538414D01*
X58159869Y-85538414D01*
G37*
X58159869Y-85538414D02*
X58062611Y-85772637D01*
X58062390Y-86026250D01*
X58159239Y-86260643D01*
X58338414Y-86440131D01*
X58572637Y-86537389D01*
X58826250Y-86537610D01*
X59060643Y-86440761D01*
X59240131Y-86261586D01*
X59337389Y-86027363D01*
X59337610Y-85773750D01*
X59240761Y-85539357D01*
X59126679Y-85425076D01*
X90843115Y-85425076D01*
X90639357Y-85509267D01*
X90459869Y-85688442D01*
X90362611Y-85922665D01*
X90362390Y-86176278D01*
X90459239Y-86410671D01*
X90638414Y-86590159D01*
X90872637Y-86687417D01*
X91126250Y-86687638D01*
X91360643Y-86590789D01*
X91540131Y-86411614D01*
X91637389Y-86177391D01*
X91637610Y-85923778D01*
X91540761Y-85689385D01*
X91361586Y-85509897D01*
X91157315Y-85425076D01*
X99575435Y-85425076D01*
X99575435Y-90503334D01*
X99477363Y-90462611D01*
X99223750Y-90462390D01*
X98989357Y-90559239D01*
X98809869Y-90738414D01*
X98712611Y-90972637D01*
X98712390Y-91226250D01*
X98809239Y-91460643D01*
X98833059Y-91484504D01*
X98765535Y-91551910D01*
X98668277Y-91786133D01*
X98668056Y-92039746D01*
X98764905Y-92274139D01*
X98805983Y-92315289D01*
X98782818Y-92338414D01*
X98685560Y-92572637D01*
X98685339Y-92826250D01*
X98782188Y-93060643D01*
X98821382Y-93099905D01*
X98782806Y-93138414D01*
X98685548Y-93372637D01*
X98685327Y-93626250D01*
X98782176Y-93860643D01*
X98821376Y-93899911D01*
X98782806Y-93938414D01*
X98685548Y-94172637D01*
X98685327Y-94426250D01*
X98782176Y-94660643D01*
X98821376Y-94699911D01*
X98782806Y-94738414D01*
X98685548Y-94972637D01*
X98685327Y-95226250D01*
X98782176Y-95460643D01*
X98809927Y-95488443D01*
X98759869Y-95538414D01*
X98662611Y-95772637D01*
X98662390Y-96026250D01*
X98759239Y-96260643D01*
X98798439Y-96299911D01*
X98759869Y-96338414D01*
X98662611Y-96572637D01*
X98662390Y-96826250D01*
X98759239Y-97060643D01*
X98802389Y-97103868D01*
X98782806Y-97123417D01*
X98685548Y-97357640D01*
X98685327Y-97611253D01*
X98782176Y-97845646D01*
X98961351Y-98025134D01*
X99195574Y-98122392D01*
X99449187Y-98122613D01*
X99575435Y-98070449D01*
X99575435Y-99282572D01*
X99527363Y-99262611D01*
X99273750Y-99262390D01*
X99039357Y-99359239D01*
X98859869Y-99538414D01*
X98762611Y-99772637D01*
X98762390Y-100026250D01*
X98859239Y-100260643D01*
X98898439Y-100299911D01*
X98859869Y-100338414D01*
X98762611Y-100572637D01*
X98762390Y-100826250D01*
X98859239Y-101060643D01*
X99038414Y-101240131D01*
X99272637Y-101337389D01*
X99526250Y-101337610D01*
X99575435Y-101317287D01*
X99575435Y-113082572D01*
X99527363Y-113062611D01*
X99273750Y-113062390D01*
X99039357Y-113159239D01*
X98859869Y-113338414D01*
X98762611Y-113572637D01*
X98762390Y-113826250D01*
X98859239Y-114060643D01*
X99038414Y-114240131D01*
X99272637Y-114337389D01*
X99526250Y-114337610D01*
X99575435Y-114317287D01*
X99575435Y-118153334D01*
X99477363Y-118112611D01*
X99223750Y-118112390D01*
X98989357Y-118209239D01*
X98809869Y-118388414D01*
X98712611Y-118622637D01*
X98712390Y-118876250D01*
X98809239Y-119110643D01*
X98988414Y-119290131D01*
X99222637Y-119387389D01*
X99476250Y-119387610D01*
X99575435Y-119346628D01*
X99575435Y-121344284D01*
X99490761Y-121139357D01*
X99311586Y-120959869D01*
X99077363Y-120862611D01*
X98823750Y-120862390D01*
X98589357Y-120959239D01*
X98409869Y-121138414D01*
X98312611Y-121372637D01*
X98312390Y-121626250D01*
X98376678Y-121781840D01*
X98189357Y-121859239D01*
X98009869Y-122038414D01*
X97912611Y-122272637D01*
X97912390Y-122526250D01*
X98009239Y-122760643D01*
X98188414Y-122940131D01*
X98422637Y-123037389D01*
X98676250Y-123037610D01*
X98910643Y-122940761D01*
X99090131Y-122761586D01*
X99187389Y-122527363D01*
X99187610Y-122273750D01*
X99123322Y-122118160D01*
X99310643Y-122040761D01*
X99490131Y-121861586D01*
X99575435Y-121656151D01*
X99575435Y-124575076D01*
X98726053Y-124575076D01*
X98787389Y-124427363D01*
X98787610Y-124173750D01*
X98690761Y-123939357D01*
X98511586Y-123759869D01*
X98277363Y-123662611D01*
X98023750Y-123662390D01*
X97789357Y-123759239D01*
X97609869Y-123938414D01*
X97512611Y-124172637D01*
X97512390Y-124426250D01*
X97573884Y-124575076D01*
X92188867Y-124575076D01*
X92340131Y-124424076D01*
X92437389Y-124189853D01*
X92437610Y-123936240D01*
X92340761Y-123701847D01*
X92161586Y-123522359D01*
X91927363Y-123425101D01*
X91673750Y-123424880D01*
X91439357Y-123521729D01*
X91437567Y-123523516D01*
X91437610Y-123473756D01*
X91340761Y-123239363D01*
X91301558Y-123200092D01*
X91340131Y-123161586D01*
X91437389Y-122927363D01*
X91437610Y-122673750D01*
X91340761Y-122439357D01*
X91161586Y-122259869D01*
X91080623Y-122226250D01*
X92462390Y-122226250D01*
X92559239Y-122460643D01*
X92738414Y-122640131D01*
X92972637Y-122737389D01*
X93226250Y-122737610D01*
X93450308Y-122645031D01*
X93450253Y-122708018D01*
X93609769Y-123094076D01*
X93904881Y-123389704D01*
X94290661Y-123549894D01*
X94708377Y-123550258D01*
X95094435Y-123390742D01*
X95390063Y-123095630D01*
X95550253Y-122709850D01*
X95550617Y-122292134D01*
X95391101Y-121906076D01*
X95095989Y-121610448D01*
X94710209Y-121450258D01*
X94292493Y-121449894D01*
X93906435Y-121609410D01*
X93680330Y-121835121D01*
X93640761Y-121739357D01*
X93461586Y-121559869D01*
X93227363Y-121462611D01*
X92973750Y-121462390D01*
X92739357Y-121559239D01*
X92559869Y-121738414D01*
X92462611Y-121972637D01*
X92462390Y-122226250D01*
X91080623Y-122226250D01*
X90927363Y-122162611D01*
X90673750Y-122162390D01*
X90575786Y-122202868D01*
X90575799Y-122187811D01*
X90336525Y-121608723D01*
X89893857Y-121165282D01*
X89315187Y-120924997D01*
X89283770Y-120924970D01*
X89390131Y-120818794D01*
X89487389Y-120584571D01*
X89487543Y-120408134D01*
X89509239Y-120460643D01*
X89688414Y-120640131D01*
X89922637Y-120737389D01*
X90176250Y-120737610D01*
X90410643Y-120640761D01*
X90525354Y-120526250D01*
X90812390Y-120526250D01*
X90909239Y-120760643D01*
X91088414Y-120940131D01*
X91322637Y-121037389D01*
X91576250Y-121037610D01*
X91810643Y-120940761D01*
X91977702Y-120773993D01*
X95374868Y-120773993D01*
X95471717Y-121008386D01*
X95650892Y-121187874D01*
X95885115Y-121285132D01*
X96138728Y-121285353D01*
X96373121Y-121188504D01*
X96552609Y-121009329D01*
X96649867Y-120775106D01*
X96650088Y-120521493D01*
X96553239Y-120287100D01*
X96533892Y-120267719D01*
X96590131Y-120211578D01*
X96687389Y-119977355D01*
X96687610Y-119723742D01*
X96590761Y-119489349D01*
X96534603Y-119433093D01*
X96591219Y-119376575D01*
X96688477Y-119142352D01*
X96688698Y-118888739D01*
X96591849Y-118654346D01*
X96412674Y-118474858D01*
X96178451Y-118377600D01*
X95924838Y-118377379D01*
X95690445Y-118474228D01*
X95510957Y-118653403D01*
X95413699Y-118887626D01*
X95413478Y-119141239D01*
X95510327Y-119375632D01*
X95566485Y-119431888D01*
X95509869Y-119488406D01*
X95412611Y-119722629D01*
X95412390Y-119976242D01*
X95509239Y-120210635D01*
X95528586Y-120230016D01*
X95472347Y-120286157D01*
X95375089Y-120520380D01*
X95374868Y-120773993D01*
X91977702Y-120773993D01*
X91990131Y-120761586D01*
X92087389Y-120527363D01*
X92087404Y-120510473D01*
X92272637Y-120587389D01*
X92526250Y-120587610D01*
X92760643Y-120490761D01*
X92940131Y-120311586D01*
X93037389Y-120077363D01*
X93037610Y-119823750D01*
X92940761Y-119589357D01*
X92761586Y-119409869D01*
X92527363Y-119312611D01*
X92273750Y-119312390D01*
X92039357Y-119409239D01*
X91859869Y-119588414D01*
X91762611Y-119822637D01*
X91762596Y-119839527D01*
X91577363Y-119762611D01*
X91323750Y-119762390D01*
X91089357Y-119859239D01*
X90909869Y-120038414D01*
X90812611Y-120272637D01*
X90812390Y-120526250D01*
X90525354Y-120526250D01*
X90590131Y-120461586D01*
X90687389Y-120227363D01*
X90687610Y-119973750D01*
X90590761Y-119739357D01*
X90411586Y-119559869D01*
X90177363Y-119462611D01*
X89923750Y-119462390D01*
X89689357Y-119559239D01*
X89509869Y-119738414D01*
X89412611Y-119972637D01*
X89412457Y-120149074D01*
X89390761Y-120096565D01*
X89211586Y-119917077D01*
X88977363Y-119819819D01*
X88723750Y-119819598D01*
X88489357Y-119916447D01*
X88309869Y-120095622D01*
X88212611Y-120329845D01*
X88212390Y-120583458D01*
X88309239Y-120817851D01*
X88488414Y-120997339D01*
X88500282Y-121002267D01*
X88109526Y-121163724D01*
X87666085Y-121606392D01*
X87425800Y-122185062D01*
X87425253Y-122811635D01*
X87664527Y-123390723D01*
X88107195Y-123834164D01*
X88685865Y-124074449D01*
X89312438Y-124074996D01*
X89891526Y-123835722D01*
X90162530Y-123565190D01*
X90162390Y-123726256D01*
X90259239Y-123960649D01*
X90298436Y-123999914D01*
X90259869Y-124038414D01*
X90162611Y-124272637D01*
X90162390Y-124526250D01*
X90182564Y-124575076D01*
X64655291Y-124575076D01*
X64737389Y-124377363D01*
X64737424Y-124337402D01*
X64976246Y-124337610D01*
X65210639Y-124240761D01*
X65390127Y-124061586D01*
X65487385Y-123827363D01*
X65487606Y-123573750D01*
X65390757Y-123339357D01*
X65211582Y-123159869D01*
X64977359Y-123062611D01*
X64723746Y-123062390D01*
X64489353Y-123159239D01*
X64309865Y-123338414D01*
X64212607Y-123572637D01*
X64212572Y-123612598D01*
X63973750Y-123612390D01*
X63739357Y-123709239D01*
X63559869Y-123888414D01*
X63462611Y-124122637D01*
X63462390Y-124376250D01*
X63544543Y-124575076D01*
X50425435Y-124575076D01*
X50425435Y-122708018D01*
X51450253Y-122708018D01*
X51609769Y-123094076D01*
X51904881Y-123389704D01*
X52290661Y-123549894D01*
X52708377Y-123550258D01*
X53094435Y-123390742D01*
X53390063Y-123095630D01*
X53481157Y-122876250D01*
X69812390Y-122876250D01*
X69909239Y-123110643D01*
X70088414Y-123290131D01*
X70322637Y-123387389D01*
X70576250Y-123387610D01*
X70810643Y-123290761D01*
X70990131Y-123111586D01*
X71087389Y-122877363D01*
X71087610Y-122623750D01*
X70990761Y-122389357D01*
X70811586Y-122209869D01*
X70577363Y-122112611D01*
X70323750Y-122112390D01*
X70089357Y-122209239D01*
X69909869Y-122388414D01*
X69812611Y-122622637D01*
X69812390Y-122876250D01*
X53481157Y-122876250D01*
X53550253Y-122709850D01*
X53550617Y-122292134D01*
X53391101Y-121906076D01*
X53261502Y-121776250D01*
X55112390Y-121776250D01*
X55209239Y-122010643D01*
X55388414Y-122190131D01*
X55622637Y-122287389D01*
X55876250Y-122287610D01*
X56110643Y-122190761D01*
X56290131Y-122011586D01*
X56346264Y-121876402D01*
X66363260Y-121876402D01*
X66460109Y-122110795D01*
X66639284Y-122290283D01*
X66873507Y-122387541D01*
X67127120Y-122387762D01*
X67361513Y-122290913D01*
X67541001Y-122111738D01*
X67638259Y-121877515D01*
X67638480Y-121623902D01*
X67541631Y-121389509D01*
X67362456Y-121210021D01*
X67128233Y-121112763D01*
X66874620Y-121112542D01*
X66640227Y-121209391D01*
X66460739Y-121388566D01*
X66363481Y-121622789D01*
X66363260Y-121876402D01*
X56346264Y-121876402D01*
X56387389Y-121777363D01*
X56387610Y-121523750D01*
X56290761Y-121289357D01*
X56111586Y-121109869D01*
X55877363Y-121012611D01*
X55623750Y-121012390D01*
X55389357Y-121109239D01*
X55209869Y-121288414D01*
X55112611Y-121522637D01*
X55112390Y-121776250D01*
X53261502Y-121776250D01*
X53095989Y-121610448D01*
X52710209Y-121450258D01*
X52292493Y-121449894D01*
X51906435Y-121609410D01*
X51610807Y-121904522D01*
X51450617Y-122290302D01*
X51450253Y-122708018D01*
X50425435Y-122708018D01*
X50425435Y-121255503D01*
X50622637Y-121337389D01*
X50876250Y-121337610D01*
X51110643Y-121240761D01*
X51290131Y-121061586D01*
X51387389Y-120827363D01*
X51387610Y-120573750D01*
X51367986Y-120526254D01*
X52212390Y-120526254D01*
X52309239Y-120760647D01*
X52488414Y-120940135D01*
X52722637Y-121037393D01*
X52976250Y-121037614D01*
X53210643Y-120940765D01*
X53390131Y-120761590D01*
X53425567Y-120676250D01*
X53812390Y-120676250D01*
X53909239Y-120910643D01*
X54088414Y-121090131D01*
X54322637Y-121187389D01*
X54576250Y-121187610D01*
X54810643Y-121090761D01*
X54990131Y-120911586D01*
X55087389Y-120677363D01*
X55087511Y-120537489D01*
X55226250Y-120537610D01*
X55460643Y-120440761D01*
X55640131Y-120261586D01*
X55717089Y-120076250D01*
X56762390Y-120076250D01*
X56859239Y-120310643D01*
X56948395Y-120399955D01*
X56909869Y-120438414D01*
X56812611Y-120672637D01*
X56812390Y-120926250D01*
X56909239Y-121160643D01*
X57088414Y-121340131D01*
X57322637Y-121437389D01*
X57576250Y-121437610D01*
X57810643Y-121340761D01*
X57907538Y-121244035D01*
X57909239Y-121248153D01*
X58088414Y-121427641D01*
X58322637Y-121524899D01*
X58576250Y-121525120D01*
X58810643Y-121428271D01*
X58990131Y-121249096D01*
X59087389Y-121014873D01*
X59087610Y-120761260D01*
X58990761Y-120526867D01*
X58811586Y-120347379D01*
X58577363Y-120250121D01*
X58323750Y-120249900D01*
X58089357Y-120346749D01*
X57992462Y-120443475D01*
X57990761Y-120439357D01*
X57901605Y-120350045D01*
X57940131Y-120311586D01*
X58037389Y-120077363D01*
X58037610Y-119823750D01*
X57976696Y-119676326D01*
X59962825Y-119676326D01*
X60059674Y-119910719D01*
X60238849Y-120090207D01*
X60473072Y-120187465D01*
X60726685Y-120187686D01*
X60961078Y-120090837D01*
X61140566Y-119911662D01*
X61237824Y-119677439D01*
X61237912Y-119575973D01*
X66162916Y-119575973D01*
X66259765Y-119810366D01*
X66438940Y-119989854D01*
X66673163Y-120087112D01*
X66926776Y-120087333D01*
X67161169Y-119990484D01*
X67340657Y-119811309D01*
X67437915Y-119577086D01*
X67438136Y-119323473D01*
X67341287Y-119089080D01*
X67162112Y-118909592D01*
X66961403Y-118826250D01*
X73162390Y-118826250D01*
X73259239Y-119060643D01*
X73438414Y-119240131D01*
X73672637Y-119337389D01*
X73926250Y-119337610D01*
X74160643Y-119240761D01*
X74340131Y-119061586D01*
X74437389Y-118827363D01*
X74437389Y-118826250D01*
X75162390Y-118826250D01*
X75259239Y-119060643D01*
X75438414Y-119240131D01*
X75672637Y-119337389D01*
X75926250Y-119337610D01*
X76074752Y-119276250D01*
X85862390Y-119276250D01*
X85959239Y-119510643D01*
X86138414Y-119690131D01*
X86372637Y-119787389D01*
X86626250Y-119787610D01*
X86860643Y-119690761D01*
X87040131Y-119511586D01*
X87130768Y-119293309D01*
X87212491Y-119327243D01*
X87466104Y-119327464D01*
X87700497Y-119230615D01*
X87879985Y-119051440D01*
X87977243Y-118817217D01*
X87977464Y-118563604D01*
X87880615Y-118329211D01*
X87701440Y-118149723D01*
X87467217Y-118052465D01*
X87213604Y-118052244D01*
X86979211Y-118149093D01*
X86799723Y-118328268D01*
X86709086Y-118546545D01*
X86627363Y-118512611D01*
X86373750Y-118512390D01*
X86139357Y-118609239D01*
X85959869Y-118788414D01*
X85862611Y-119022637D01*
X85862390Y-119276250D01*
X76074752Y-119276250D01*
X76160643Y-119240761D01*
X76340131Y-119061586D01*
X76437389Y-118827363D01*
X76437610Y-118573750D01*
X76340761Y-118339357D01*
X76205379Y-118203738D01*
X80862390Y-118203738D01*
X80959239Y-118438131D01*
X81138414Y-118617619D01*
X81372637Y-118714877D01*
X81626250Y-118715098D01*
X81860643Y-118618249D01*
X82040131Y-118439074D01*
X82137389Y-118204851D01*
X82137562Y-118006193D01*
X94117141Y-118006193D01*
X94213990Y-118240586D01*
X94393165Y-118420074D01*
X94627388Y-118517332D01*
X94881001Y-118517553D01*
X95115394Y-118420704D01*
X95294882Y-118241529D01*
X95392140Y-118007306D01*
X95392361Y-117753693D01*
X95346893Y-117643653D01*
X95572637Y-117737390D01*
X95826250Y-117737611D01*
X96060643Y-117640762D01*
X96240131Y-117461587D01*
X96337389Y-117227364D01*
X96337610Y-116973751D01*
X96240761Y-116739358D01*
X96207410Y-116705949D01*
X96279386Y-116634098D01*
X96376644Y-116399875D01*
X96376865Y-116146262D01*
X96280016Y-115911869D01*
X96100841Y-115732381D01*
X95866618Y-115635123D01*
X95613005Y-115634902D01*
X95378612Y-115731751D01*
X95199124Y-115910926D01*
X95101866Y-116145149D01*
X95101645Y-116398762D01*
X95198494Y-116633155D01*
X95231845Y-116666564D01*
X95159869Y-116738415D01*
X95062611Y-116972638D01*
X95062390Y-117226251D01*
X95107858Y-117336291D01*
X94882114Y-117242554D01*
X94628501Y-117242333D01*
X94394108Y-117339182D01*
X94214620Y-117518357D01*
X94117362Y-117752580D01*
X94117141Y-118006193D01*
X82137562Y-118006193D01*
X82137610Y-117951238D01*
X82040761Y-117716845D01*
X81861586Y-117537357D01*
X81627363Y-117440099D01*
X81373750Y-117439878D01*
X81139357Y-117536727D01*
X80959869Y-117715902D01*
X80862611Y-117950125D01*
X80862390Y-118203738D01*
X76205379Y-118203738D01*
X76161586Y-118159869D01*
X75927363Y-118062611D01*
X75673750Y-118062390D01*
X75439357Y-118159239D01*
X75259869Y-118338414D01*
X75162611Y-118572637D01*
X75162390Y-118826250D01*
X74437389Y-118826250D01*
X74437610Y-118573750D01*
X74340761Y-118339357D01*
X74161586Y-118159869D01*
X73927363Y-118062611D01*
X73673750Y-118062390D01*
X73439357Y-118159239D01*
X73259869Y-118338414D01*
X73162611Y-118572637D01*
X73162390Y-118826250D01*
X66961403Y-118826250D01*
X66927889Y-118812334D01*
X66674276Y-118812113D01*
X66439883Y-118908962D01*
X66260395Y-119088137D01*
X66163137Y-119322360D01*
X66162916Y-119575973D01*
X61237912Y-119575973D01*
X61238045Y-119423826D01*
X61141196Y-119189433D01*
X60962021Y-119009945D01*
X60727798Y-118912687D01*
X60474185Y-118912466D01*
X60239792Y-119009315D01*
X60060304Y-119188490D01*
X59963046Y-119422713D01*
X59962825Y-119676326D01*
X57976696Y-119676326D01*
X57940761Y-119589357D01*
X57761586Y-119409869D01*
X57527363Y-119312611D01*
X57273750Y-119312390D01*
X57039357Y-119409239D01*
X56859869Y-119588414D01*
X56762611Y-119822637D01*
X56762390Y-120076250D01*
X55717089Y-120076250D01*
X55737389Y-120027363D01*
X55737610Y-119773750D01*
X55640761Y-119539357D01*
X55461586Y-119359869D01*
X55227363Y-119262611D01*
X54973750Y-119262390D01*
X54739357Y-119359239D01*
X54559869Y-119538414D01*
X54462611Y-119772637D01*
X54462489Y-119912511D01*
X54323750Y-119912390D01*
X54089357Y-120009239D01*
X53909869Y-120188414D01*
X53812611Y-120422637D01*
X53812390Y-120676250D01*
X53425567Y-120676250D01*
X53487389Y-120527367D01*
X53487610Y-120273754D01*
X53390761Y-120039361D01*
X53211586Y-119859873D01*
X52977363Y-119762615D01*
X52723750Y-119762394D01*
X52489357Y-119859243D01*
X52309869Y-120038418D01*
X52212611Y-120272641D01*
X52212390Y-120526254D01*
X51367986Y-120526254D01*
X51290761Y-120339357D01*
X51251561Y-120300089D01*
X51290131Y-120261586D01*
X51387389Y-120027363D01*
X51387610Y-119773750D01*
X51290761Y-119539357D01*
X51111586Y-119359869D01*
X50877363Y-119262611D01*
X50623750Y-119262390D01*
X50425435Y-119344332D01*
X50425435Y-119026250D01*
X52412390Y-119026250D01*
X52509239Y-119260643D01*
X52688414Y-119440131D01*
X52922637Y-119537389D01*
X53176250Y-119537610D01*
X53410643Y-119440761D01*
X53590131Y-119261586D01*
X53650933Y-119115157D01*
X58187187Y-119115157D01*
X58284036Y-119349550D01*
X58463211Y-119529038D01*
X58697434Y-119626296D01*
X58951047Y-119626517D01*
X59185440Y-119529668D01*
X59364928Y-119350493D01*
X59462186Y-119116270D01*
X59462407Y-118862657D01*
X59365558Y-118628264D01*
X59186383Y-118448776D01*
X58952160Y-118351518D01*
X58698547Y-118351297D01*
X58464154Y-118448146D01*
X58284666Y-118627321D01*
X58187408Y-118861544D01*
X58187187Y-119115157D01*
X53650933Y-119115157D01*
X53687389Y-119027363D01*
X53687610Y-118773750D01*
X53590761Y-118539357D01*
X53411586Y-118359869D01*
X53177363Y-118262611D01*
X52923750Y-118262390D01*
X52689357Y-118359239D01*
X52509869Y-118538414D01*
X52412611Y-118772637D01*
X52412390Y-119026250D01*
X50425435Y-119026250D01*
X50425435Y-117826250D01*
X53784892Y-117826250D01*
X53881741Y-118060643D01*
X54060916Y-118240131D01*
X54295139Y-118337389D01*
X54548752Y-118337610D01*
X54783145Y-118240761D01*
X54962633Y-118061586D01*
X54977305Y-118026250D01*
X61062390Y-118026250D01*
X61159239Y-118260643D01*
X61338414Y-118440131D01*
X61572637Y-118537389D01*
X61826250Y-118537610D01*
X62060643Y-118440761D01*
X62062553Y-118438854D01*
X62062390Y-118626250D01*
X62159239Y-118860643D01*
X62338414Y-119040131D01*
X62572637Y-119137389D01*
X62826250Y-119137610D01*
X63053166Y-119043850D01*
X63154070Y-119144930D01*
X63388293Y-119242188D01*
X63641906Y-119242409D01*
X63876299Y-119145560D01*
X64055787Y-118966385D01*
X64153045Y-118732162D01*
X64153266Y-118478549D01*
X64056417Y-118244156D01*
X64038543Y-118226250D01*
X65612390Y-118226250D01*
X65709239Y-118460643D01*
X65888414Y-118640131D01*
X66122637Y-118737389D01*
X66376250Y-118737610D01*
X66610643Y-118640761D01*
X66790131Y-118461586D01*
X66887389Y-118227363D01*
X66887610Y-117973750D01*
X66790761Y-117739357D01*
X66611586Y-117559869D01*
X66377363Y-117462611D01*
X66123750Y-117462390D01*
X65889357Y-117559239D01*
X65709869Y-117738414D01*
X65612611Y-117972637D01*
X65612390Y-118226250D01*
X64038543Y-118226250D01*
X63894117Y-118081573D01*
X63937389Y-117977363D01*
X63937610Y-117723750D01*
X63840761Y-117489357D01*
X63744040Y-117392467D01*
X63972637Y-117487389D01*
X64226250Y-117487610D01*
X64374752Y-117426250D01*
X71712390Y-117426250D01*
X71809239Y-117660643D01*
X71988414Y-117840131D01*
X72222637Y-117937389D01*
X72476250Y-117937610D01*
X72710643Y-117840761D01*
X72774955Y-117776561D01*
X72838414Y-117840131D01*
X73072637Y-117937389D01*
X73326250Y-117937610D01*
X73560643Y-117840761D01*
X73740131Y-117661586D01*
X73754803Y-117626250D01*
X73962390Y-117626250D01*
X74059239Y-117860643D01*
X74238414Y-118040131D01*
X74472637Y-118137389D01*
X74726250Y-118137610D01*
X74960643Y-118040761D01*
X75140131Y-117861586D01*
X75237389Y-117627363D01*
X75237610Y-117373750D01*
X75140761Y-117139357D01*
X75127697Y-117126270D01*
X75362390Y-117126270D01*
X75459239Y-117360663D01*
X75638414Y-117540151D01*
X75872637Y-117637409D01*
X76126250Y-117637630D01*
X76360643Y-117540781D01*
X76540131Y-117361606D01*
X76637389Y-117127383D01*
X76637610Y-116873770D01*
X76540761Y-116639377D01*
X76361586Y-116459889D01*
X76127363Y-116362631D01*
X75873750Y-116362410D01*
X75639357Y-116459259D01*
X75459869Y-116638434D01*
X75362611Y-116872657D01*
X75362390Y-117126270D01*
X75127697Y-117126270D01*
X74961586Y-116959869D01*
X74727363Y-116862611D01*
X74473750Y-116862390D01*
X74239357Y-116959239D01*
X74059869Y-117138414D01*
X73962611Y-117372637D01*
X73962390Y-117626250D01*
X73754803Y-117626250D01*
X73837389Y-117427363D01*
X73837610Y-117173750D01*
X73740761Y-116939357D01*
X73561586Y-116759869D01*
X73327363Y-116662611D01*
X73073750Y-116662390D01*
X72839357Y-116759239D01*
X72775045Y-116823439D01*
X72711586Y-116759869D01*
X72477363Y-116662611D01*
X72223750Y-116662390D01*
X71989357Y-116759239D01*
X71809869Y-116938414D01*
X71712611Y-117172637D01*
X71712390Y-117426250D01*
X64374752Y-117426250D01*
X64460643Y-117390761D01*
X64640131Y-117211586D01*
X64737389Y-116977363D01*
X64737515Y-116832961D01*
X64960643Y-116740767D01*
X65140131Y-116561592D01*
X65237389Y-116327369D01*
X65237610Y-116073756D01*
X65140761Y-115839363D01*
X64961586Y-115659875D01*
X64727363Y-115562617D01*
X64721858Y-115562612D01*
X64808370Y-115476250D01*
X83912390Y-115476250D01*
X84009239Y-115710643D01*
X84188414Y-115890131D01*
X84422637Y-115987389D01*
X84462555Y-115987424D01*
X84462390Y-116176249D01*
X84559239Y-116410642D01*
X84738414Y-116590130D01*
X84972637Y-116687388D01*
X85226250Y-116687609D01*
X85460643Y-116590760D01*
X85640131Y-116411585D01*
X85721769Y-116214979D01*
X85869343Y-116215108D01*
X86103736Y-116118259D01*
X86283224Y-115939084D01*
X86380482Y-115704861D01*
X86380703Y-115451248D01*
X86358159Y-115396685D01*
X94149850Y-115396685D01*
X94246699Y-115631078D01*
X94425874Y-115810566D01*
X94660097Y-115907824D01*
X94913710Y-115908045D01*
X95148103Y-115811196D01*
X95327591Y-115632021D01*
X95424849Y-115397798D01*
X95425070Y-115144185D01*
X95328221Y-114909792D01*
X95313842Y-114895387D01*
X95361973Y-114847340D01*
X95459231Y-114613117D01*
X95459306Y-114526250D01*
X95512388Y-114526250D01*
X95609237Y-114760643D01*
X95788412Y-114940131D01*
X96022635Y-115037389D01*
X96276248Y-115037610D01*
X96510641Y-114940761D01*
X96690129Y-114761586D01*
X96787387Y-114527363D01*
X96787608Y-114273750D01*
X96690759Y-114039357D01*
X96600510Y-113948950D01*
X96610890Y-113944661D01*
X96790378Y-113765486D01*
X96887636Y-113531263D01*
X96887857Y-113277650D01*
X96791008Y-113043257D01*
X96611833Y-112863769D01*
X96377610Y-112766511D01*
X96123997Y-112766290D01*
X95889604Y-112863139D01*
X95710116Y-113042314D01*
X95612858Y-113276537D01*
X95612637Y-113530150D01*
X95709486Y-113764543D01*
X95799735Y-113854950D01*
X95789355Y-113859239D01*
X95609867Y-114038414D01*
X95512609Y-114272637D01*
X95512388Y-114526250D01*
X95459306Y-114526250D01*
X95459452Y-114359504D01*
X95362603Y-114125111D01*
X95183428Y-113945623D01*
X94949205Y-113848365D01*
X94695592Y-113848144D01*
X94461199Y-113944993D01*
X94281711Y-114124168D01*
X94184453Y-114358391D01*
X94184232Y-114612004D01*
X94281081Y-114846397D01*
X94295460Y-114860802D01*
X94247329Y-114908849D01*
X94150071Y-115143072D01*
X94149850Y-115396685D01*
X86358159Y-115396685D01*
X86283854Y-115216855D01*
X86104679Y-115037367D01*
X85870456Y-114940109D01*
X85616843Y-114939888D01*
X85382450Y-115036737D01*
X85202962Y-115215912D01*
X85187585Y-115252945D01*
X85187610Y-115223750D01*
X85090761Y-114989357D01*
X84911586Y-114809869D01*
X84677363Y-114712611D01*
X84423750Y-114712390D01*
X84189357Y-114809239D01*
X84009869Y-114988414D01*
X83912611Y-115222637D01*
X83912390Y-115476250D01*
X64808370Y-115476250D01*
X64868081Y-115416644D01*
X64965339Y-115182421D01*
X64965560Y-114928808D01*
X64868711Y-114694415D01*
X64689536Y-114514927D01*
X64455313Y-114417669D01*
X64201700Y-114417448D01*
X64036937Y-114485526D01*
X63861586Y-114309869D01*
X63627363Y-114212611D01*
X63373750Y-114212390D01*
X63139357Y-114309239D01*
X62959869Y-114488414D01*
X62862611Y-114722637D01*
X62862390Y-114976250D01*
X62959239Y-115210643D01*
X63138414Y-115390131D01*
X63182665Y-115408506D01*
X63147100Y-115494156D01*
X63146879Y-115747769D01*
X63243728Y-115982162D01*
X63422903Y-116161650D01*
X63657126Y-116258908D01*
X63860738Y-116259085D01*
X63739357Y-116309239D01*
X63559869Y-116488414D01*
X63462611Y-116722637D01*
X63462390Y-116976250D01*
X63559239Y-117210643D01*
X63655960Y-117307533D01*
X63427363Y-117212611D01*
X63173750Y-117212390D01*
X62939357Y-117309239D01*
X62935603Y-117312987D01*
X62831991Y-117209194D01*
X62597768Y-117111936D01*
X62344155Y-117111715D01*
X62109762Y-117208564D01*
X61988566Y-117329548D01*
X61827363Y-117262611D01*
X61573750Y-117262390D01*
X61339357Y-117359239D01*
X61159869Y-117538414D01*
X61062611Y-117772637D01*
X61062390Y-118026250D01*
X54977305Y-118026250D01*
X55059891Y-117827363D01*
X55060112Y-117573750D01*
X54963263Y-117339357D01*
X54784088Y-117159869D01*
X54549865Y-117062611D01*
X54296252Y-117062390D01*
X54061859Y-117159239D01*
X53882371Y-117338414D01*
X53785113Y-117572637D01*
X53784892Y-117826250D01*
X50425435Y-117826250D01*
X50425435Y-117276265D01*
X50572637Y-117337389D01*
X50826250Y-117337610D01*
X51060643Y-117240761D01*
X51240131Y-117061586D01*
X51337389Y-116827363D01*
X51337477Y-116726250D01*
X52409934Y-116726250D01*
X52506783Y-116960643D01*
X52685958Y-117140131D01*
X52920181Y-117237389D01*
X53173794Y-117237610D01*
X53408187Y-117140761D01*
X53587675Y-116961586D01*
X53684933Y-116727363D01*
X53685154Y-116473750D01*
X53588305Y-116239357D01*
X53409130Y-116059869D01*
X53174907Y-115962611D01*
X52921294Y-115962390D01*
X52686901Y-116059239D01*
X52507413Y-116238414D01*
X52410155Y-116472637D01*
X52409934Y-116726250D01*
X51337477Y-116726250D01*
X51337610Y-116573750D01*
X51240761Y-116339357D01*
X51061586Y-116159869D01*
X50827363Y-116062611D01*
X50573750Y-116062390D01*
X50425435Y-116123672D01*
X50425435Y-115914988D01*
X53414897Y-115914988D01*
X53511746Y-116149381D01*
X53690921Y-116328869D01*
X53925144Y-116426127D01*
X54178757Y-116426348D01*
X54413150Y-116329499D01*
X54592638Y-116150324D01*
X54689896Y-115916101D01*
X54690117Y-115662488D01*
X54593268Y-115428095D01*
X54414093Y-115248607D01*
X54179870Y-115151349D01*
X53926257Y-115151128D01*
X53691864Y-115247977D01*
X53512376Y-115427152D01*
X53415118Y-115661375D01*
X53414897Y-115914988D01*
X50425435Y-115914988D01*
X50425435Y-115175770D01*
X50573163Y-115237112D01*
X50826776Y-115237333D01*
X51061169Y-115140484D01*
X51240657Y-114961309D01*
X51337915Y-114727086D01*
X51338136Y-114473473D01*
X51241287Y-114239080D01*
X51062112Y-114059592D01*
X51044561Y-114052304D01*
X52186379Y-114052304D01*
X52283228Y-114286697D01*
X52462403Y-114466185D01*
X52596822Y-114522001D01*
X52494428Y-114564309D01*
X52314940Y-114743484D01*
X52217682Y-114977707D01*
X52217461Y-115231320D01*
X52314310Y-115465713D01*
X52493485Y-115645201D01*
X52727708Y-115742459D01*
X52981321Y-115742680D01*
X53215714Y-115645831D01*
X53395202Y-115466656D01*
X53492460Y-115232433D01*
X53492681Y-114978820D01*
X53448801Y-114872623D01*
X53671813Y-114872817D01*
X53906206Y-114775968D01*
X54085694Y-114596793D01*
X54182952Y-114362570D01*
X54183114Y-114176250D01*
X68612390Y-114176250D01*
X68709239Y-114410643D01*
X68888414Y-114590131D01*
X69122637Y-114687389D01*
X69376250Y-114687610D01*
X69610643Y-114590761D01*
X69790131Y-114411586D01*
X69887389Y-114177363D01*
X69887610Y-113923750D01*
X69790761Y-113689357D01*
X69611586Y-113509869D01*
X69530623Y-113476250D01*
X80962390Y-113476250D01*
X81059239Y-113710643D01*
X81238414Y-113890131D01*
X81472637Y-113987389D01*
X81726250Y-113987610D01*
X81960643Y-113890761D01*
X82125128Y-113726563D01*
X82288414Y-113890135D01*
X82522637Y-113987393D01*
X82776250Y-113987614D01*
X82968481Y-113908186D01*
X83012365Y-114014393D01*
X83191540Y-114193881D01*
X83425763Y-114291139D01*
X83679376Y-114291360D01*
X83913769Y-114194511D01*
X84093257Y-114015336D01*
X84095619Y-114009647D01*
X84222637Y-114062389D01*
X84476250Y-114062610D01*
X84710643Y-113965761D01*
X84890131Y-113786586D01*
X84987389Y-113552363D01*
X84987610Y-113298750D01*
X84890761Y-113064357D01*
X84711586Y-112884869D01*
X84527298Y-112808346D01*
X84660643Y-112753249D01*
X84840131Y-112574074D01*
X84937389Y-112339851D01*
X84937398Y-112328377D01*
X96593199Y-112328377D01*
X96690048Y-112562770D01*
X96869223Y-112742258D01*
X97103446Y-112839516D01*
X97357059Y-112839737D01*
X97591452Y-112742888D01*
X97770940Y-112563713D01*
X97868198Y-112329490D01*
X97868419Y-112075877D01*
X97771570Y-111841484D01*
X97592395Y-111661996D01*
X97358172Y-111564738D01*
X97104559Y-111564517D01*
X96870166Y-111661366D01*
X96690678Y-111840541D01*
X96593420Y-112074764D01*
X96593199Y-112328377D01*
X84937398Y-112328377D01*
X84937610Y-112086238D01*
X84840761Y-111851845D01*
X84661586Y-111672357D01*
X84427363Y-111575099D01*
X84173750Y-111574878D01*
X83939357Y-111671727D01*
X83759869Y-111850902D01*
X83743589Y-111890108D01*
X83677369Y-111862611D01*
X83423756Y-111862390D01*
X83189363Y-111959239D01*
X83009875Y-112138414D01*
X82912617Y-112372637D01*
X82912396Y-112626250D01*
X82983438Y-112798185D01*
X82777363Y-112712615D01*
X82523750Y-112712394D01*
X82289357Y-112809243D01*
X82124872Y-112973441D01*
X81961586Y-112809869D01*
X81727363Y-112712611D01*
X81473750Y-112712390D01*
X81239357Y-112809239D01*
X81059869Y-112988414D01*
X80962611Y-113222637D01*
X80962390Y-113476250D01*
X69530623Y-113476250D01*
X69377363Y-113412611D01*
X69123750Y-113412390D01*
X68889357Y-113509239D01*
X68709869Y-113688414D01*
X68612611Y-113922637D01*
X68612390Y-114176250D01*
X54183114Y-114176250D01*
X54183173Y-114108957D01*
X54086324Y-113874564D01*
X53907149Y-113695076D01*
X53741398Y-113626250D01*
X62012390Y-113626250D01*
X62109239Y-113860643D01*
X62288414Y-114040131D01*
X62522637Y-114137389D01*
X62776250Y-114137610D01*
X63010643Y-114040761D01*
X63190131Y-113861586D01*
X63287389Y-113627363D01*
X63287610Y-113373750D01*
X63190761Y-113139357D01*
X63011586Y-112959869D01*
X62777363Y-112862611D01*
X62523750Y-112862390D01*
X62289357Y-112959239D01*
X62109869Y-113138414D01*
X62012611Y-113372637D01*
X62012390Y-113626250D01*
X53741398Y-113626250D01*
X53672926Y-113597818D01*
X53419313Y-113597597D01*
X53384066Y-113612161D01*
X53364750Y-113565411D01*
X53185575Y-113385923D01*
X52951352Y-113288665D01*
X52697739Y-113288444D01*
X52463346Y-113385293D01*
X52283858Y-113564468D01*
X52186600Y-113798691D01*
X52186379Y-114052304D01*
X51044561Y-114052304D01*
X51038648Y-114049849D01*
X51060643Y-114040761D01*
X51240131Y-113861586D01*
X51337389Y-113627363D01*
X51337610Y-113373750D01*
X51240761Y-113139357D01*
X51061586Y-112959869D01*
X50827363Y-112862611D01*
X50573750Y-112862390D01*
X50425435Y-112923672D01*
X50425435Y-111676265D01*
X50572637Y-111737389D01*
X50826250Y-111737610D01*
X50889378Y-111711526D01*
X52311424Y-111711526D01*
X52408273Y-111945919D01*
X52542460Y-112080340D01*
X52462611Y-112272637D01*
X52462390Y-112526250D01*
X52559239Y-112760643D01*
X52738414Y-112940131D01*
X52972637Y-113037389D01*
X53189138Y-113037578D01*
X53255486Y-113198153D01*
X53434661Y-113377641D01*
X53668884Y-113474899D01*
X53922497Y-113475120D01*
X54156890Y-113378271D01*
X54336378Y-113199096D01*
X54433636Y-112964873D01*
X54433857Y-112711260D01*
X54337008Y-112476867D01*
X54157833Y-112297379D01*
X53923610Y-112200121D01*
X53707109Y-112199932D01*
X53640761Y-112039357D01*
X53527851Y-111926250D01*
X66112390Y-111926250D01*
X66209239Y-112160643D01*
X66388414Y-112340131D01*
X66622637Y-112437389D01*
X66817063Y-112437558D01*
X66909239Y-112660643D01*
X67088414Y-112840131D01*
X67322637Y-112937389D01*
X67576250Y-112937610D01*
X67603743Y-112926250D01*
X72162390Y-112926250D01*
X72259239Y-113160643D01*
X72438414Y-113340131D01*
X72672637Y-113437389D01*
X72926250Y-113437610D01*
X73160643Y-113340761D01*
X73340131Y-113161586D01*
X73437389Y-112927363D01*
X73437610Y-112673750D01*
X73340761Y-112439357D01*
X73161586Y-112259869D01*
X72927363Y-112162611D01*
X72673750Y-112162390D01*
X72439357Y-112259239D01*
X72259869Y-112438414D01*
X72162611Y-112672637D01*
X72162390Y-112926250D01*
X67603743Y-112926250D01*
X67810643Y-112840761D01*
X67990131Y-112661586D01*
X68087389Y-112427363D01*
X68087477Y-112326250D01*
X69904221Y-112326250D01*
X70001070Y-112560643D01*
X70180245Y-112740131D01*
X70414468Y-112837389D01*
X70668081Y-112837610D01*
X70902474Y-112740761D01*
X71081962Y-112561586D01*
X71179220Y-112327363D01*
X71179441Y-112073750D01*
X71082592Y-111839357D01*
X70969683Y-111726250D01*
X81362390Y-111726250D01*
X81459239Y-111960643D01*
X81638414Y-112140131D01*
X81872637Y-112237389D01*
X82126250Y-112237610D01*
X82360643Y-112140761D01*
X82540131Y-111961586D01*
X82637389Y-111727363D01*
X82637610Y-111473750D01*
X82540761Y-111239357D01*
X82361586Y-111059869D01*
X82127363Y-110962611D01*
X81873750Y-110962390D01*
X81639357Y-111059239D01*
X81459869Y-111238414D01*
X81362611Y-111472637D01*
X81362390Y-111726250D01*
X70969683Y-111726250D01*
X70903417Y-111659869D01*
X70669194Y-111562611D01*
X70415581Y-111562390D01*
X70181188Y-111659239D01*
X70001700Y-111838414D01*
X69904442Y-112072637D01*
X69904221Y-112326250D01*
X68087477Y-112326250D01*
X68087610Y-112173750D01*
X67990761Y-111939357D01*
X67811586Y-111759869D01*
X67577363Y-111662611D01*
X67382937Y-111662442D01*
X67290761Y-111439357D01*
X67111586Y-111259869D01*
X66877363Y-111162611D01*
X66623750Y-111162390D01*
X66389357Y-111259239D01*
X66209869Y-111438414D01*
X66112611Y-111672637D01*
X66112390Y-111926250D01*
X53527851Y-111926250D01*
X53506574Y-111904936D01*
X53586423Y-111712639D01*
X53586644Y-111459026D01*
X53547288Y-111363776D01*
X61162390Y-111363776D01*
X61259239Y-111598169D01*
X61438414Y-111777657D01*
X61672637Y-111874915D01*
X61926250Y-111875136D01*
X62160643Y-111778287D01*
X62340131Y-111599112D01*
X62437389Y-111364889D01*
X62437610Y-111111276D01*
X62340761Y-110876883D01*
X62161586Y-110697395D01*
X61927363Y-110600137D01*
X61673750Y-110599916D01*
X61439357Y-110696765D01*
X61259869Y-110875940D01*
X61162611Y-111110163D01*
X61162390Y-111363776D01*
X53547288Y-111363776D01*
X53489795Y-111224633D01*
X53310620Y-111045145D01*
X53076397Y-110947887D01*
X52822784Y-110947666D01*
X52588391Y-111044515D01*
X52408903Y-111223690D01*
X52311645Y-111457913D01*
X52311424Y-111711526D01*
X50889378Y-111711526D01*
X51060643Y-111640761D01*
X51240131Y-111461586D01*
X51337389Y-111227363D01*
X51337610Y-110973750D01*
X51240761Y-110739357D01*
X51201564Y-110700092D01*
X51240137Y-110661586D01*
X51337395Y-110427363D01*
X51337616Y-110173750D01*
X51240767Y-109939357D01*
X51201564Y-109900086D01*
X51240131Y-109861586D01*
X51337389Y-109627363D01*
X51337610Y-109373750D01*
X51240761Y-109139357D01*
X51201561Y-109100089D01*
X51240131Y-109061586D01*
X51337389Y-108827363D01*
X51337610Y-108573750D01*
X51256005Y-108376250D01*
X52362390Y-108376250D01*
X52459239Y-108610643D01*
X52638414Y-108790131D01*
X52872637Y-108887389D01*
X53126250Y-108887610D01*
X53360643Y-108790761D01*
X53540131Y-108611586D01*
X53637389Y-108377363D01*
X53637610Y-108123750D01*
X53540761Y-107889357D01*
X53361586Y-107709869D01*
X53127363Y-107612611D01*
X52873750Y-107612390D01*
X52639357Y-107709239D01*
X52459869Y-107888414D01*
X52362611Y-108122637D01*
X52362390Y-108376250D01*
X51256005Y-108376250D01*
X51240761Y-108339357D01*
X51201561Y-108300089D01*
X51240131Y-108261586D01*
X51337389Y-108027363D01*
X51337610Y-107773750D01*
X51256005Y-107576250D01*
X53562390Y-107576250D01*
X53659239Y-107810643D01*
X53838414Y-107990131D01*
X54072637Y-108087389D01*
X54326250Y-108087610D01*
X54560643Y-107990761D01*
X54675084Y-107876520D01*
X54838410Y-108040131D01*
X54892100Y-108062425D01*
X54851718Y-108062390D01*
X54617325Y-108159239D01*
X54437837Y-108338414D01*
X54340579Y-108572637D01*
X54340358Y-108826250D01*
X54437207Y-109060643D01*
X54616382Y-109240131D01*
X54807034Y-109319297D01*
X54589357Y-109409239D01*
X54409869Y-109588414D01*
X54312611Y-109822637D01*
X54312390Y-110076250D01*
X54409239Y-110310643D01*
X54588414Y-110490131D01*
X54822637Y-110587389D01*
X55076250Y-110587610D01*
X55310643Y-110490761D01*
X55325179Y-110476250D01*
X57012390Y-110476250D01*
X57109239Y-110710643D01*
X57288414Y-110890131D01*
X57522637Y-110987389D01*
X57776250Y-110987610D01*
X58010643Y-110890761D01*
X58190131Y-110711586D01*
X58287389Y-110477363D01*
X58287610Y-110223750D01*
X58190761Y-109989357D01*
X58177677Y-109976250D01*
X58962390Y-109976250D01*
X59059239Y-110210643D01*
X59238414Y-110390131D01*
X59472637Y-110487389D01*
X59726250Y-110487610D01*
X59960643Y-110390761D01*
X60140131Y-110211586D01*
X60237389Y-109977363D01*
X60237610Y-109723750D01*
X60176665Y-109576250D01*
X64912390Y-109576250D01*
X65009239Y-109810643D01*
X65076290Y-109877812D01*
X65049858Y-109904198D01*
X64952600Y-110138421D01*
X64952379Y-110392034D01*
X65049228Y-110626427D01*
X65228403Y-110805915D01*
X65462626Y-110903173D01*
X65716239Y-110903394D01*
X65950632Y-110806545D01*
X66081154Y-110676250D01*
X68412390Y-110676250D01*
X68509239Y-110910643D01*
X68688414Y-111090131D01*
X68922637Y-111187389D01*
X69176250Y-111187610D01*
X69410643Y-111090761D01*
X69590131Y-110911586D01*
X69687389Y-110677363D01*
X69687610Y-110423750D01*
X69590761Y-110189357D01*
X69411586Y-110009869D01*
X69177363Y-109912611D01*
X68923750Y-109912390D01*
X68689357Y-110009239D01*
X68509869Y-110188414D01*
X68412611Y-110422637D01*
X68412390Y-110676250D01*
X66081154Y-110676250D01*
X66130120Y-110627370D01*
X66227378Y-110393147D01*
X66227599Y-110139534D01*
X66130750Y-109905141D01*
X66101910Y-109876250D01*
X71462390Y-109876250D01*
X71559239Y-110110643D01*
X71738414Y-110290131D01*
X71972637Y-110387389D01*
X72226250Y-110387610D01*
X72460643Y-110290761D01*
X72505712Y-110245770D01*
X77032510Y-110245770D01*
X77129359Y-110480163D01*
X77308534Y-110659651D01*
X77542757Y-110756909D01*
X77796370Y-110757130D01*
X78030763Y-110660281D01*
X78210251Y-110481106D01*
X78259968Y-110361374D01*
X78348445Y-110450005D01*
X78259881Y-110538414D01*
X78162623Y-110772637D01*
X78162402Y-111026250D01*
X78259251Y-111260643D01*
X78438426Y-111440131D01*
X78672649Y-111537389D01*
X78926262Y-111537610D01*
X79160655Y-111440761D01*
X79340143Y-111261586D01*
X79437401Y-111027363D01*
X79437622Y-110773750D01*
X79340773Y-110539357D01*
X79251567Y-110449995D01*
X79340131Y-110361586D01*
X79375565Y-110276250D01*
X81362390Y-110276250D01*
X81459239Y-110510643D01*
X81638414Y-110690131D01*
X81872637Y-110787389D01*
X82126250Y-110787610D01*
X82255196Y-110734331D01*
X82286727Y-110810643D01*
X82465902Y-110990131D01*
X82700125Y-111087389D01*
X82953738Y-111087610D01*
X83188131Y-110990761D01*
X83247722Y-110931273D01*
X83662390Y-110931273D01*
X83759239Y-111165666D01*
X83938414Y-111345154D01*
X84172637Y-111442412D01*
X84426250Y-111442633D01*
X84660643Y-111345784D01*
X84840131Y-111166609D01*
X84937389Y-110932386D01*
X84937610Y-110678773D01*
X84840761Y-110444380D01*
X84830428Y-110434028D01*
X94221736Y-110434028D01*
X94318585Y-110668421D01*
X94497760Y-110847909D01*
X94731983Y-110945167D01*
X94985596Y-110945388D01*
X95219989Y-110848539D01*
X95399477Y-110669364D01*
X95496735Y-110435141D01*
X95496956Y-110181528D01*
X95400107Y-109947135D01*
X95321869Y-109868761D01*
X95510643Y-109790761D01*
X95690131Y-109611586D01*
X95787389Y-109377363D01*
X95787610Y-109123750D01*
X95690761Y-108889357D01*
X95626561Y-108825045D01*
X95690131Y-108761586D01*
X95787389Y-108527363D01*
X95787393Y-108522754D01*
X95822637Y-108537389D01*
X96076250Y-108537610D01*
X96310643Y-108440761D01*
X96450086Y-108301561D01*
X96588414Y-108440131D01*
X96822637Y-108537389D01*
X97076250Y-108537610D01*
X97310643Y-108440761D01*
X97490131Y-108261586D01*
X97587389Y-108027363D01*
X97587610Y-107773750D01*
X97490761Y-107539357D01*
X97426561Y-107475045D01*
X97490131Y-107411586D01*
X97587389Y-107177363D01*
X97587610Y-106923750D01*
X97490761Y-106689357D01*
X97311586Y-106509869D01*
X97077363Y-106412611D01*
X96823750Y-106412390D01*
X96589357Y-106509239D01*
X96409869Y-106688414D01*
X96312611Y-106922637D01*
X96312390Y-107176250D01*
X96409239Y-107410643D01*
X96473439Y-107474955D01*
X96449914Y-107498439D01*
X96311586Y-107359869D01*
X96077363Y-107262611D01*
X95823750Y-107262390D01*
X95589357Y-107359239D01*
X95409869Y-107538414D01*
X95312611Y-107772637D01*
X95312607Y-107777246D01*
X95277363Y-107762611D01*
X95023750Y-107762390D01*
X94789357Y-107859239D01*
X94609869Y-108038414D01*
X94512611Y-108272637D01*
X94512390Y-108526250D01*
X94609239Y-108760643D01*
X94673439Y-108824955D01*
X94609869Y-108888414D01*
X94512611Y-109122637D01*
X94512390Y-109376250D01*
X94609239Y-109610643D01*
X94687477Y-109689017D01*
X94498703Y-109767017D01*
X94319215Y-109946192D01*
X94221957Y-110180415D01*
X94221736Y-110434028D01*
X84830428Y-110434028D01*
X84661586Y-110264892D01*
X84427363Y-110167634D01*
X84173750Y-110167413D01*
X83939357Y-110264262D01*
X83759869Y-110443437D01*
X83662611Y-110677660D01*
X83662390Y-110931273D01*
X83247722Y-110931273D01*
X83367619Y-110811586D01*
X83464877Y-110577363D01*
X83465098Y-110323750D01*
X83368249Y-110089357D01*
X83189074Y-109909869D01*
X83108111Y-109876250D01*
X89227387Y-109876250D01*
X89324236Y-110110643D01*
X89503411Y-110290131D01*
X89737634Y-110387389D01*
X89991247Y-110387610D01*
X90225640Y-110290761D01*
X90257397Y-110259060D01*
X90288414Y-110290131D01*
X90522637Y-110387389D01*
X90776250Y-110387610D01*
X91010643Y-110290761D01*
X91190131Y-110111586D01*
X91228543Y-110019080D01*
X91272637Y-110037389D01*
X91526250Y-110037610D01*
X91760643Y-109940761D01*
X91940131Y-109761586D01*
X92037389Y-109527363D01*
X92037610Y-109273750D01*
X91940761Y-109039357D01*
X91761586Y-108859869D01*
X91527363Y-108762611D01*
X91273750Y-108762390D01*
X91039357Y-108859239D01*
X90859869Y-109038414D01*
X90821457Y-109130920D01*
X90777363Y-109112611D01*
X90523750Y-109112390D01*
X90289357Y-109209239D01*
X90257600Y-109240940D01*
X90226583Y-109209869D01*
X89992360Y-109112611D01*
X89738747Y-109112390D01*
X89504354Y-109209239D01*
X89324866Y-109388414D01*
X89227608Y-109622637D01*
X89227387Y-109876250D01*
X83108111Y-109876250D01*
X82954851Y-109812611D01*
X82701238Y-109812390D01*
X82572292Y-109865669D01*
X82540761Y-109789357D01*
X82361586Y-109609869D01*
X82127363Y-109512611D01*
X81873750Y-109512390D01*
X81639357Y-109609239D01*
X81459869Y-109788414D01*
X81362611Y-110022637D01*
X81362390Y-110276250D01*
X79375565Y-110276250D01*
X79437389Y-110127363D01*
X79437610Y-109873750D01*
X79340761Y-109639357D01*
X79161586Y-109459869D01*
X78927363Y-109362611D01*
X78673750Y-109362390D01*
X78439357Y-109459239D01*
X78259869Y-109638414D01*
X78210152Y-109758146D01*
X78031706Y-109579389D01*
X77797483Y-109482131D01*
X77543870Y-109481910D01*
X77309477Y-109578759D01*
X77129989Y-109757934D01*
X77032731Y-109992157D01*
X77032510Y-110245770D01*
X72505712Y-110245770D01*
X72640131Y-110111586D01*
X72737389Y-109877363D01*
X72737542Y-109701250D01*
X74987390Y-109701250D01*
X75084239Y-109935643D01*
X75263414Y-110115131D01*
X75497637Y-110212389D01*
X75751250Y-110212610D01*
X75985643Y-110115761D01*
X76165131Y-109936586D01*
X76262389Y-109702363D01*
X76262610Y-109448750D01*
X76165761Y-109214357D01*
X75986586Y-109034869D01*
X75752363Y-108937611D01*
X75498750Y-108937390D01*
X75264357Y-109034239D01*
X75084869Y-109213414D01*
X74987611Y-109447637D01*
X74987390Y-109701250D01*
X72737542Y-109701250D01*
X72737610Y-109623750D01*
X72640761Y-109389357D01*
X72461586Y-109209869D01*
X72227363Y-109112611D01*
X71973750Y-109112390D01*
X71739357Y-109209239D01*
X71559869Y-109388414D01*
X71462611Y-109622637D01*
X71462390Y-109876250D01*
X66101910Y-109876250D01*
X66063699Y-109837972D01*
X66090131Y-109811586D01*
X66187389Y-109577363D01*
X66187583Y-109354796D01*
X66319660Y-109300223D01*
X66499148Y-109121048D01*
X66596406Y-108886825D01*
X66596627Y-108633212D01*
X66499778Y-108398819D01*
X66461876Y-108360851D01*
X66511169Y-108340484D01*
X66690657Y-108161309D01*
X66784472Y-107935378D01*
X66788940Y-107939854D01*
X66865038Y-107971453D01*
X66863667Y-107974754D01*
X66863446Y-108228367D01*
X66960295Y-108462760D01*
X67139470Y-108642248D01*
X67373693Y-108739506D01*
X67627306Y-108739727D01*
X67861699Y-108642878D01*
X68041187Y-108463703D01*
X68138445Y-108229480D01*
X68138666Y-107975867D01*
X68041817Y-107741474D01*
X67862642Y-107561986D01*
X67786544Y-107530387D01*
X67787915Y-107527086D01*
X67788136Y-107273473D01*
X67691287Y-107039080D01*
X67512112Y-106859592D01*
X67277889Y-106762334D01*
X67024276Y-106762113D01*
X66789883Y-106858962D01*
X66610395Y-107038137D01*
X66516580Y-107264068D01*
X66512112Y-107259592D01*
X66277889Y-107162334D01*
X66089461Y-107162170D01*
X66140131Y-107111588D01*
X66237389Y-106877365D01*
X66237610Y-106623752D01*
X66140761Y-106389359D01*
X65961586Y-106209871D01*
X65727363Y-106112613D01*
X65473750Y-106112392D01*
X65239357Y-106209241D01*
X65059869Y-106388416D01*
X64962611Y-106622639D01*
X64962390Y-106876252D01*
X65059239Y-107110645D01*
X65238414Y-107290133D01*
X65472637Y-107387391D01*
X65661065Y-107387555D01*
X65610395Y-107438137D01*
X65513137Y-107672360D01*
X65512916Y-107925973D01*
X65609765Y-108160366D01*
X65647667Y-108198334D01*
X65598374Y-108218701D01*
X65418886Y-108397876D01*
X65321628Y-108632099D01*
X65321434Y-108854666D01*
X65189357Y-108909239D01*
X65009869Y-109088414D01*
X64912611Y-109322637D01*
X64912390Y-109576250D01*
X60176665Y-109576250D01*
X60140761Y-109489357D01*
X59961586Y-109309869D01*
X59727363Y-109212611D01*
X59473750Y-109212390D01*
X59239357Y-109309239D01*
X59059869Y-109488414D01*
X58962611Y-109722637D01*
X58962390Y-109976250D01*
X58177677Y-109976250D01*
X58011586Y-109809869D01*
X57777363Y-109712611D01*
X57523750Y-109712390D01*
X57289357Y-109809239D01*
X57109869Y-109988414D01*
X57012611Y-110222637D01*
X57012390Y-110476250D01*
X55325179Y-110476250D01*
X55490131Y-110311586D01*
X55587389Y-110077363D01*
X55587610Y-109823750D01*
X55490761Y-109589357D01*
X55311586Y-109409869D01*
X55120934Y-109330703D01*
X55338611Y-109240761D01*
X55518099Y-109061586D01*
X55615357Y-108827363D01*
X55615578Y-108573750D01*
X55575292Y-108476250D01*
X57787378Y-108476250D01*
X57884227Y-108710643D01*
X58063402Y-108890131D01*
X58297625Y-108987389D01*
X58551238Y-108987610D01*
X58785631Y-108890761D01*
X58965119Y-108711586D01*
X58978331Y-108679768D01*
X59138414Y-108840131D01*
X59372637Y-108937389D01*
X59626250Y-108937610D01*
X59860643Y-108840761D01*
X60040131Y-108661586D01*
X60137389Y-108427363D01*
X60137610Y-108173750D01*
X60040761Y-107939357D01*
X59861586Y-107759869D01*
X59780623Y-107726250D01*
X61862390Y-107726250D01*
X61959239Y-107960643D01*
X62138414Y-108140131D01*
X62372637Y-108237389D01*
X62626250Y-108237610D01*
X62860643Y-108140761D01*
X63040131Y-107961586D01*
X63137389Y-107727363D01*
X63137610Y-107473750D01*
X63040761Y-107239357D01*
X62861586Y-107059869D01*
X62627363Y-106962611D01*
X62373750Y-106962390D01*
X62139357Y-107059239D01*
X61959869Y-107238414D01*
X61862611Y-107472637D01*
X61862390Y-107726250D01*
X59780623Y-107726250D01*
X59670782Y-107680640D01*
X59840131Y-107511586D01*
X59937389Y-107277363D01*
X59937610Y-107023750D01*
X59840761Y-106789357D01*
X59661586Y-106609869D01*
X59427363Y-106512611D01*
X59173750Y-106512390D01*
X58939357Y-106609239D01*
X58759869Y-106788414D01*
X58662611Y-107022637D01*
X58662390Y-107276250D01*
X58759239Y-107510643D01*
X58938414Y-107690131D01*
X59129218Y-107769360D01*
X58959869Y-107938414D01*
X58946657Y-107970232D01*
X58786574Y-107809869D01*
X58552351Y-107712611D01*
X58298738Y-107712390D01*
X58064345Y-107809239D01*
X57884857Y-107988414D01*
X57787599Y-108222637D01*
X57787378Y-108476250D01*
X55575292Y-108476250D01*
X55518729Y-108339357D01*
X55339554Y-108159869D01*
X55285864Y-108137575D01*
X55326246Y-108137610D01*
X55560639Y-108040761D01*
X55740127Y-107861586D01*
X55837385Y-107627363D01*
X55837606Y-107373750D01*
X55740757Y-107139357D01*
X55561582Y-106959869D01*
X55327359Y-106862611D01*
X55073746Y-106862390D01*
X54839353Y-106959239D01*
X54724912Y-107073480D01*
X54561586Y-106909869D01*
X54327363Y-106812611D01*
X54073750Y-106812390D01*
X53839357Y-106909239D01*
X53659869Y-107088414D01*
X53562611Y-107322637D01*
X53562390Y-107576250D01*
X51256005Y-107576250D01*
X51240761Y-107539357D01*
X51201561Y-107500089D01*
X51240131Y-107461586D01*
X51337389Y-107227363D01*
X51337610Y-106973750D01*
X51240761Y-106739357D01*
X51201561Y-106700089D01*
X51240131Y-106661586D01*
X51337389Y-106427363D01*
X51337610Y-106173750D01*
X51240761Y-105939357D01*
X51201561Y-105900089D01*
X51240131Y-105861586D01*
X51253874Y-105828487D01*
X58862390Y-105828487D01*
X58959239Y-106062880D01*
X59138414Y-106242368D01*
X59372637Y-106339626D01*
X59626250Y-106339847D01*
X59860643Y-106242998D01*
X60040131Y-106063823D01*
X60137389Y-105829600D01*
X60137389Y-105828495D01*
X61512390Y-105828495D01*
X61609239Y-106062888D01*
X61788414Y-106242376D01*
X62022637Y-106339634D01*
X62276250Y-106339855D01*
X62408686Y-106285134D01*
X62408475Y-106527640D01*
X62505324Y-106762033D01*
X62684499Y-106941521D01*
X62918722Y-107038779D01*
X63172335Y-107039000D01*
X63406728Y-106942151D01*
X63586216Y-106762976D01*
X63683474Y-106528753D01*
X63683695Y-106275140D01*
X63586846Y-106040747D01*
X63407671Y-105861259D01*
X63173448Y-105764001D01*
X62919835Y-105763780D01*
X62787399Y-105818501D01*
X62787610Y-105575995D01*
X62690761Y-105341602D01*
X62575611Y-105226250D01*
X67312390Y-105226250D01*
X67409239Y-105460643D01*
X67588414Y-105640131D01*
X67822637Y-105737389D01*
X67872736Y-105737433D01*
X67872537Y-105966105D01*
X67969386Y-106200498D01*
X68148561Y-106379986D01*
X68382784Y-106477244D01*
X68636397Y-106477465D01*
X68695160Y-106453185D01*
X68659869Y-106488414D01*
X68562611Y-106722637D01*
X68562390Y-106976250D01*
X68659239Y-107210643D01*
X68723439Y-107274955D01*
X68659869Y-107338414D01*
X68562611Y-107572637D01*
X68562390Y-107826250D01*
X68659239Y-108060643D01*
X68798439Y-108200086D01*
X68659869Y-108338414D01*
X68562611Y-108572637D01*
X68562390Y-108826250D01*
X68659239Y-109060643D01*
X68838414Y-109240131D01*
X69072637Y-109337389D01*
X69326250Y-109337610D01*
X69560643Y-109240761D01*
X69740131Y-109061586D01*
X69837389Y-108827363D01*
X69837520Y-108676250D01*
X79612390Y-108676250D01*
X79709239Y-108910643D01*
X79888414Y-109090131D01*
X80122637Y-109187389D01*
X80376250Y-109187610D01*
X80610643Y-109090761D01*
X80790131Y-108911586D01*
X80887389Y-108677363D01*
X80887610Y-108423750D01*
X80790761Y-108189357D01*
X80611586Y-108009869D01*
X80410219Y-107926254D01*
X82162390Y-107926254D01*
X82259239Y-108160647D01*
X82438414Y-108340135D01*
X82672637Y-108437393D01*
X82926250Y-108437614D01*
X83160643Y-108340765D01*
X83340131Y-108161590D01*
X83437389Y-107927367D01*
X83437610Y-107673754D01*
X83340761Y-107439361D01*
X83161586Y-107259873D01*
X82927363Y-107162615D01*
X82673750Y-107162394D01*
X82439357Y-107259243D01*
X82259869Y-107438418D01*
X82162611Y-107672641D01*
X82162390Y-107926254D01*
X80410219Y-107926254D01*
X80377363Y-107912611D01*
X80123750Y-107912390D01*
X79889357Y-108009239D01*
X79709869Y-108188414D01*
X79612611Y-108422637D01*
X79612390Y-108676250D01*
X69837520Y-108676250D01*
X69837610Y-108573750D01*
X69740761Y-108339357D01*
X69601561Y-108199914D01*
X69740131Y-108061586D01*
X69837389Y-107827363D01*
X69837597Y-107589050D01*
X69988414Y-107740131D01*
X70222637Y-107837389D01*
X70476250Y-107837610D01*
X70710643Y-107740761D01*
X70890131Y-107561586D01*
X70978930Y-107347733D01*
X71021753Y-107347733D01*
X71118602Y-107582126D01*
X71297777Y-107761614D01*
X71532000Y-107858872D01*
X71785613Y-107859093D01*
X72020006Y-107762244D01*
X72186770Y-107595770D01*
X73422510Y-107595770D01*
X73519359Y-107830163D01*
X73698534Y-108009651D01*
X73932757Y-108106909D01*
X74186370Y-108107130D01*
X74420763Y-108010281D01*
X74479897Y-107951250D01*
X77012390Y-107951250D01*
X77109239Y-108185643D01*
X77288414Y-108365131D01*
X77522637Y-108462389D01*
X77776250Y-108462610D01*
X78010643Y-108365761D01*
X78190131Y-108186586D01*
X78287389Y-107952363D01*
X78287610Y-107698750D01*
X78190761Y-107464357D01*
X78102808Y-107376250D01*
X79862390Y-107376250D01*
X79959239Y-107610643D01*
X80138414Y-107790131D01*
X80372637Y-107887389D01*
X80626250Y-107887610D01*
X80860643Y-107790761D01*
X80924955Y-107726561D01*
X80988414Y-107790131D01*
X81222637Y-107887389D01*
X81476250Y-107887610D01*
X81710643Y-107790761D01*
X81890131Y-107611586D01*
X81987389Y-107377363D01*
X81987610Y-107123750D01*
X81890761Y-106889357D01*
X81711586Y-106709869D01*
X81703139Y-106706362D01*
X81710643Y-106703261D01*
X81887963Y-106526250D01*
X83462390Y-106526250D01*
X83559239Y-106760643D01*
X83738414Y-106940131D01*
X83972637Y-107037389D01*
X84226250Y-107037610D01*
X84460643Y-106940761D01*
X84625441Y-106776250D01*
X94239890Y-106776250D01*
X94336739Y-107010643D01*
X94515914Y-107190131D01*
X94750137Y-107287389D01*
X95003750Y-107287610D01*
X95238143Y-107190761D01*
X95417631Y-107011586D01*
X95514889Y-106777363D01*
X95515110Y-106523750D01*
X95418261Y-106289357D01*
X95290290Y-106161162D01*
X95440127Y-106011586D01*
X95537385Y-105777363D01*
X95537606Y-105523750D01*
X95440757Y-105289357D01*
X95326559Y-105174960D01*
X95440131Y-105061586D01*
X95537389Y-104827363D01*
X95537564Y-104626250D01*
X96412390Y-104626250D01*
X96509239Y-104860643D01*
X96688414Y-105040131D01*
X96922637Y-105137389D01*
X97176250Y-105137610D01*
X97410643Y-105040761D01*
X97590131Y-104861586D01*
X97687389Y-104627363D01*
X97687610Y-104373750D01*
X97597029Y-104154526D01*
X97690131Y-104061586D01*
X97787389Y-103827363D01*
X97787610Y-103573750D01*
X97690761Y-103339357D01*
X97511586Y-103159869D01*
X97277363Y-103062611D01*
X97023750Y-103062390D01*
X96789357Y-103159239D01*
X96609869Y-103338414D01*
X96512611Y-103572637D01*
X96512390Y-103826250D01*
X96602971Y-104045474D01*
X96509869Y-104138414D01*
X96412611Y-104372637D01*
X96412390Y-104626250D01*
X95537564Y-104626250D01*
X95537610Y-104573750D01*
X95440761Y-104339357D01*
X95261586Y-104159869D01*
X95027363Y-104062611D01*
X94773750Y-104062390D01*
X94539357Y-104159239D01*
X94359869Y-104338414D01*
X94262611Y-104572637D01*
X94262390Y-104826250D01*
X94359239Y-105060643D01*
X94473437Y-105175040D01*
X94359865Y-105288414D01*
X94262607Y-105522637D01*
X94262386Y-105776250D01*
X94359235Y-106010643D01*
X94487206Y-106138838D01*
X94337369Y-106288414D01*
X94240111Y-106522637D01*
X94239890Y-106776250D01*
X84625441Y-106776250D01*
X84640131Y-106761586D01*
X84737389Y-106527363D01*
X84737610Y-106273750D01*
X84640761Y-106039357D01*
X84461586Y-105859869D01*
X84227363Y-105762611D01*
X83973750Y-105762390D01*
X83739357Y-105859239D01*
X83559869Y-106038414D01*
X83462611Y-106272637D01*
X83462390Y-106526250D01*
X81887963Y-106526250D01*
X81890131Y-106524086D01*
X81987389Y-106289863D01*
X81987610Y-106036250D01*
X81890761Y-105801857D01*
X81845311Y-105756328D01*
X81890131Y-105711586D01*
X81987389Y-105477363D01*
X81987610Y-105223750D01*
X81890761Y-104989357D01*
X81711586Y-104809869D01*
X81477363Y-104712611D01*
X81223750Y-104712390D01*
X80989357Y-104809239D01*
X80809869Y-104988414D01*
X80712611Y-105222637D01*
X80712390Y-105476250D01*
X80809239Y-105710643D01*
X80854689Y-105756172D01*
X80809869Y-105800914D01*
X80712611Y-106035137D01*
X80712390Y-106288750D01*
X80809239Y-106523143D01*
X80988414Y-106702631D01*
X80996861Y-106706138D01*
X80989357Y-106709239D01*
X80925045Y-106773439D01*
X80861586Y-106709869D01*
X80627363Y-106612611D01*
X80373750Y-106612390D01*
X80139357Y-106709239D01*
X79959869Y-106888414D01*
X79862611Y-107122637D01*
X79862390Y-107376250D01*
X78102808Y-107376250D01*
X78011586Y-107284869D01*
X77777363Y-107187611D01*
X77523750Y-107187390D01*
X77289357Y-107284239D01*
X77109869Y-107463414D01*
X77012611Y-107697637D01*
X77012390Y-107951250D01*
X74479897Y-107951250D01*
X74600251Y-107831106D01*
X74697509Y-107596883D01*
X74697730Y-107343270D01*
X74600881Y-107108877D01*
X74421706Y-106929389D01*
X74187483Y-106832131D01*
X73933870Y-106831910D01*
X73699477Y-106928759D01*
X73519989Y-107107934D01*
X73422731Y-107342157D01*
X73422510Y-107595770D01*
X72186770Y-107595770D01*
X72199494Y-107583069D01*
X72296752Y-107348846D01*
X72296973Y-107095233D01*
X72200124Y-106860840D01*
X72020949Y-106681352D01*
X71786726Y-106584094D01*
X71533113Y-106583873D01*
X71298720Y-106680722D01*
X71119232Y-106859897D01*
X71021974Y-107094120D01*
X71021753Y-107347733D01*
X70978930Y-107347733D01*
X70987389Y-107327363D01*
X70987610Y-107073750D01*
X70890761Y-106839357D01*
X70711586Y-106659869D01*
X70477363Y-106562611D01*
X70223750Y-106562390D01*
X69989357Y-106659239D01*
X69837534Y-106810797D01*
X69837610Y-106723750D01*
X69740761Y-106489357D01*
X69561586Y-106309869D01*
X69327363Y-106212611D01*
X69073750Y-106212390D01*
X69014987Y-106236670D01*
X69050278Y-106201441D01*
X69096436Y-106090278D01*
X70423111Y-106090278D01*
X70519960Y-106324671D01*
X70699135Y-106504159D01*
X70933358Y-106601417D01*
X71186971Y-106601638D01*
X71421364Y-106504789D01*
X71600852Y-106325614D01*
X71614592Y-106292525D01*
X71722637Y-106337389D01*
X71976250Y-106337610D01*
X72210643Y-106240761D01*
X72224912Y-106226516D01*
X72288416Y-106290131D01*
X72522639Y-106387389D01*
X72776252Y-106387610D01*
X73010645Y-106290761D01*
X73190133Y-106111586D01*
X73258985Y-105945770D01*
X77682510Y-105945770D01*
X77779359Y-106180163D01*
X77958534Y-106359651D01*
X78192757Y-106456909D01*
X78446370Y-106457130D01*
X78680763Y-106360281D01*
X78860251Y-106181106D01*
X78957509Y-105946883D01*
X78957730Y-105693270D01*
X78860881Y-105458877D01*
X78681706Y-105279389D01*
X78447483Y-105182131D01*
X78193870Y-105181910D01*
X77959477Y-105278759D01*
X77779989Y-105457934D01*
X77682731Y-105692157D01*
X77682510Y-105945770D01*
X73258985Y-105945770D01*
X73287391Y-105877363D01*
X73287612Y-105623750D01*
X73190763Y-105389357D01*
X73011588Y-105209869D01*
X72777365Y-105112611D01*
X72523752Y-105112390D01*
X72289359Y-105209239D01*
X72275090Y-105223484D01*
X72211586Y-105159869D01*
X71977363Y-105062611D01*
X71723750Y-105062390D01*
X71489357Y-105159239D01*
X71309869Y-105338414D01*
X71296129Y-105371503D01*
X71188084Y-105326639D01*
X70934471Y-105326418D01*
X70700078Y-105423267D01*
X70520590Y-105602442D01*
X70423332Y-105836665D01*
X70423111Y-106090278D01*
X69096436Y-106090278D01*
X69147536Y-105967218D01*
X69147757Y-105713605D01*
X69050908Y-105479212D01*
X68871733Y-105299724D01*
X68637510Y-105202466D01*
X68587411Y-105202422D01*
X68587610Y-104973750D01*
X68490761Y-104739357D01*
X68311586Y-104559869D01*
X68137170Y-104487445D01*
X68326248Y-104487610D01*
X68353741Y-104476250D01*
X69262390Y-104476250D01*
X69359239Y-104710643D01*
X69538414Y-104890131D01*
X69772637Y-104987389D01*
X70026250Y-104987610D01*
X70260643Y-104890761D01*
X70299911Y-104851561D01*
X70338414Y-104890131D01*
X70572637Y-104987389D01*
X70826250Y-104987610D01*
X71060643Y-104890761D01*
X71240131Y-104711586D01*
X71268188Y-104644018D01*
X71372637Y-104687389D01*
X71626250Y-104687610D01*
X71860643Y-104590761D01*
X72040131Y-104411586D01*
X72075541Y-104326309D01*
X72222637Y-104387389D01*
X72476250Y-104387610D01*
X72710643Y-104290761D01*
X72890131Y-104111586D01*
X72987389Y-103877363D01*
X72987610Y-103623750D01*
X72906005Y-103426250D01*
X76012390Y-103426250D01*
X76109239Y-103660643D01*
X76288414Y-103840131D01*
X76522637Y-103937389D01*
X76776250Y-103937610D01*
X77010643Y-103840761D01*
X77190131Y-103661586D01*
X77287389Y-103427363D01*
X77287610Y-103173750D01*
X77220982Y-103012496D01*
X77351250Y-103012610D01*
X77585643Y-102915761D01*
X77765131Y-102736586D01*
X77862389Y-102502363D01*
X77862610Y-102248750D01*
X77765761Y-102014357D01*
X77586586Y-101834869D01*
X77352363Y-101737611D01*
X77098750Y-101737390D01*
X76864357Y-101834239D01*
X76684869Y-102013414D01*
X76587611Y-102247637D01*
X76587390Y-102501250D01*
X76654018Y-102662504D01*
X76523750Y-102662390D01*
X76289357Y-102759239D01*
X76109869Y-102938414D01*
X76012611Y-103172637D01*
X76012390Y-103426250D01*
X72906005Y-103426250D01*
X72890761Y-103389357D01*
X72826605Y-103325089D01*
X72840131Y-103311586D01*
X72937389Y-103077363D01*
X72937610Y-102823750D01*
X72840761Y-102589357D01*
X72661586Y-102409869D01*
X72427363Y-102312611D01*
X72173750Y-102312390D01*
X71939357Y-102409239D01*
X71759869Y-102588414D01*
X71662611Y-102822637D01*
X71662390Y-103076250D01*
X71759239Y-103310643D01*
X71823395Y-103374911D01*
X71809869Y-103388414D01*
X71774459Y-103473691D01*
X71627363Y-103412611D01*
X71373750Y-103412390D01*
X71139357Y-103509239D01*
X70959869Y-103688414D01*
X70931812Y-103755982D01*
X70827363Y-103712611D01*
X70573750Y-103712390D01*
X70339357Y-103809239D01*
X70300089Y-103848439D01*
X70261586Y-103809869D01*
X70027363Y-103712611D01*
X69773750Y-103712390D01*
X69539357Y-103809239D01*
X69359869Y-103988414D01*
X69262611Y-104222637D01*
X69262390Y-104476250D01*
X68353741Y-104476250D01*
X68560641Y-104390761D01*
X68740129Y-104211586D01*
X68837387Y-103977363D01*
X68837608Y-103723750D01*
X68740759Y-103489357D01*
X68561584Y-103309869D01*
X68327361Y-103212611D01*
X68073748Y-103212390D01*
X67839355Y-103309239D01*
X67659867Y-103488414D01*
X67562609Y-103722637D01*
X67562388Y-103976250D01*
X67659237Y-104210643D01*
X67838412Y-104390131D01*
X68012828Y-104462555D01*
X67823750Y-104462390D01*
X67589357Y-104559239D01*
X67409869Y-104738414D01*
X67312611Y-104972637D01*
X67312390Y-105226250D01*
X62575611Y-105226250D01*
X62511586Y-105162114D01*
X62277363Y-105064856D01*
X62023750Y-105064635D01*
X61789357Y-105161484D01*
X61609869Y-105340659D01*
X61512611Y-105574882D01*
X61512390Y-105828495D01*
X60137389Y-105828495D01*
X60137610Y-105575987D01*
X60040761Y-105341594D01*
X59861586Y-105162106D01*
X59627363Y-105064848D01*
X59373750Y-105064627D01*
X59139357Y-105161476D01*
X58959869Y-105340651D01*
X58862611Y-105574874D01*
X58862390Y-105828487D01*
X51253874Y-105828487D01*
X51337389Y-105627363D01*
X51337610Y-105373750D01*
X51240761Y-105139357D01*
X51201561Y-105100089D01*
X51240131Y-105061586D01*
X51337389Y-104827363D01*
X51337610Y-104573750D01*
X51240761Y-104339357D01*
X51201561Y-104300089D01*
X51240131Y-104261586D01*
X51337389Y-104027363D01*
X51337610Y-103773750D01*
X51240761Y-103539357D01*
X51201561Y-103500089D01*
X51240131Y-103461586D01*
X51337389Y-103227363D01*
X51337610Y-102973750D01*
X51240761Y-102739357D01*
X51201561Y-102700089D01*
X51240131Y-102661586D01*
X51296327Y-102526250D01*
X70162390Y-102526250D01*
X70259239Y-102760643D01*
X70438414Y-102940131D01*
X70672637Y-103037389D01*
X70926250Y-103037610D01*
X71160643Y-102940761D01*
X71340131Y-102761586D01*
X71437389Y-102527363D01*
X71437610Y-102273750D01*
X71340761Y-102039357D01*
X71161586Y-101859869D01*
X70927363Y-101762611D01*
X70673750Y-101762390D01*
X70439357Y-101859239D01*
X70259869Y-102038414D01*
X70162611Y-102272637D01*
X70162390Y-102526250D01*
X51296327Y-102526250D01*
X51337389Y-102427363D01*
X51337610Y-102173750D01*
X51240761Y-101939357D01*
X51201561Y-101900089D01*
X51240131Y-101861586D01*
X51337389Y-101627363D01*
X51337610Y-101373750D01*
X51317984Y-101326250D01*
X80162390Y-101326250D01*
X80259239Y-101560643D01*
X80438414Y-101740131D01*
X80672637Y-101837389D01*
X80862220Y-101837554D01*
X80862154Y-101913760D01*
X80959003Y-102148153D01*
X81138178Y-102327641D01*
X81372401Y-102424899D01*
X81626014Y-102425120D01*
X81860407Y-102328271D01*
X82039895Y-102149096D01*
X82137153Y-101914873D01*
X82137374Y-101661260D01*
X82102249Y-101576250D01*
X82297389Y-101576250D01*
X82394238Y-101810643D01*
X82573413Y-101990131D01*
X82807636Y-102087389D01*
X83061249Y-102087610D01*
X83295642Y-101990761D01*
X83475130Y-101811586D01*
X83572388Y-101577363D01*
X83572609Y-101323750D01*
X83475760Y-101089357D01*
X83296585Y-100909869D01*
X83062362Y-100812611D01*
X82808749Y-100812390D01*
X82574356Y-100909239D01*
X82394868Y-101088414D01*
X82297610Y-101322637D01*
X82297389Y-101576250D01*
X82102249Y-101576250D01*
X82040525Y-101426867D01*
X81861350Y-101247379D01*
X81792653Y-101218854D01*
X81860643Y-101190761D01*
X82040131Y-101011586D01*
X82137389Y-100777363D01*
X82137610Y-100523750D01*
X82040761Y-100289357D01*
X81861586Y-100109869D01*
X81838050Y-100100096D01*
X81860643Y-100090761D01*
X81875179Y-100076250D01*
X83712390Y-100076250D01*
X83809239Y-100310643D01*
X83988414Y-100490131D01*
X84222637Y-100587389D01*
X84476250Y-100587610D01*
X84710643Y-100490761D01*
X84890131Y-100311586D01*
X84987389Y-100077363D01*
X84987610Y-99823750D01*
X84890761Y-99589357D01*
X84711586Y-99409869D01*
X84477363Y-99312611D01*
X84223750Y-99312390D01*
X83989357Y-99409239D01*
X83809869Y-99588414D01*
X83712611Y-99822637D01*
X83712390Y-100076250D01*
X81875179Y-100076250D01*
X82040131Y-99911586D01*
X82137389Y-99677363D01*
X82137610Y-99423750D01*
X82040761Y-99189357D01*
X81861586Y-99009869D01*
X81627363Y-98912611D01*
X81487576Y-98912489D01*
X81487610Y-98873750D01*
X81390761Y-98639357D01*
X81277852Y-98526250D01*
X87012390Y-98526250D01*
X87109239Y-98760643D01*
X87288414Y-98940131D01*
X87522637Y-99037389D01*
X87776250Y-99037610D01*
X88010643Y-98940761D01*
X88190131Y-98761586D01*
X88287389Y-98527363D01*
X88287610Y-98273750D01*
X88190761Y-98039357D01*
X88011586Y-97859869D01*
X87777363Y-97762611D01*
X87523750Y-97762390D01*
X87289357Y-97859239D01*
X87109869Y-98038414D01*
X87012611Y-98272637D01*
X87012390Y-98526250D01*
X81277852Y-98526250D01*
X81211586Y-98459869D01*
X80977363Y-98362611D01*
X80723750Y-98362390D01*
X80489357Y-98459239D01*
X80309869Y-98638414D01*
X80212611Y-98872637D01*
X80212390Y-99126250D01*
X80309239Y-99360643D01*
X80488414Y-99540131D01*
X80511950Y-99549904D01*
X80489357Y-99559239D01*
X80309869Y-99738414D01*
X80212611Y-99972637D01*
X80212390Y-100226250D01*
X80309239Y-100460643D01*
X80487593Y-100639308D01*
X80439357Y-100659239D01*
X80259869Y-100838414D01*
X80162611Y-101072637D01*
X80162390Y-101326250D01*
X51317984Y-101326250D01*
X51240761Y-101139357D01*
X51201561Y-101100089D01*
X51240131Y-101061586D01*
X51337389Y-100827363D01*
X51337477Y-100726250D01*
X66462390Y-100726250D01*
X66559239Y-100960643D01*
X66738414Y-101140131D01*
X66972637Y-101237389D01*
X67226250Y-101237610D01*
X67460643Y-101140761D01*
X67640131Y-100961586D01*
X67737389Y-100727363D01*
X67737610Y-100473750D01*
X67640761Y-100239357D01*
X67461586Y-100059869D01*
X67227363Y-99962611D01*
X66973750Y-99962390D01*
X66739357Y-100059239D01*
X66559869Y-100238414D01*
X66462611Y-100472637D01*
X66462390Y-100726250D01*
X51337477Y-100726250D01*
X51337610Y-100573750D01*
X51240761Y-100339357D01*
X51201561Y-100300089D01*
X51240131Y-100261586D01*
X51337389Y-100027363D01*
X51337610Y-99773750D01*
X51240761Y-99539357D01*
X51061586Y-99359869D01*
X50827363Y-99262611D01*
X50573750Y-99262390D01*
X50425435Y-99323672D01*
X50425435Y-99163105D01*
X64906078Y-99163105D01*
X65002927Y-99397498D01*
X65182102Y-99576986D01*
X65416325Y-99674244D01*
X65669938Y-99674465D01*
X65904331Y-99577616D01*
X66083819Y-99398441D01*
X66113795Y-99326250D01*
X73912390Y-99326250D01*
X74009239Y-99560643D01*
X74188414Y-99740131D01*
X74422637Y-99837389D01*
X74676250Y-99837610D01*
X74910643Y-99740761D01*
X75090131Y-99561586D01*
X75187389Y-99327363D01*
X75187610Y-99073750D01*
X75090761Y-98839357D01*
X74911586Y-98659869D01*
X74677363Y-98562611D01*
X74423750Y-98562390D01*
X74189357Y-98659239D01*
X74009869Y-98838414D01*
X73912611Y-99072637D01*
X73912390Y-99326250D01*
X66113795Y-99326250D01*
X66181077Y-99164218D01*
X66181298Y-98910605D01*
X66171662Y-98887285D01*
X66226776Y-98887333D01*
X66461169Y-98790484D01*
X66625689Y-98626250D01*
X67662390Y-98626250D01*
X67759239Y-98860643D01*
X67938414Y-99040131D01*
X68172637Y-99137389D01*
X68426250Y-99137610D01*
X68660643Y-99040761D01*
X68840131Y-98861586D01*
X68937389Y-98627363D01*
X68937610Y-98373750D01*
X68840761Y-98139357D01*
X68661586Y-97959869D01*
X68427363Y-97862611D01*
X68173750Y-97862390D01*
X67939357Y-97959239D01*
X67759869Y-98138414D01*
X67662611Y-98372637D01*
X67662390Y-98626250D01*
X66625689Y-98626250D01*
X66640657Y-98611309D01*
X66737915Y-98377086D01*
X66738136Y-98123473D01*
X66737931Y-98122978D01*
X66772637Y-98137389D01*
X67026250Y-98137610D01*
X67260643Y-98040761D01*
X67440131Y-97861586D01*
X67537389Y-97627363D01*
X67537564Y-97426250D01*
X95212390Y-97426250D01*
X95309239Y-97660643D01*
X95488414Y-97840131D01*
X95722637Y-97937389D01*
X95976250Y-97937610D01*
X96210643Y-97840761D01*
X96390131Y-97661586D01*
X96487389Y-97427363D01*
X96487610Y-97173750D01*
X96390761Y-96939357D01*
X96211586Y-96759869D01*
X95977363Y-96662611D01*
X95723750Y-96662390D01*
X95489357Y-96759239D01*
X95309869Y-96938414D01*
X95212611Y-97172637D01*
X95212390Y-97426250D01*
X67537564Y-97426250D01*
X67537610Y-97373750D01*
X67440761Y-97139357D01*
X67261586Y-96959869D01*
X67027363Y-96862611D01*
X66773750Y-96862390D01*
X66539357Y-96959239D01*
X66359869Y-97138414D01*
X66262611Y-97372637D01*
X66262390Y-97626250D01*
X66262595Y-97626745D01*
X66227889Y-97612334D01*
X65974276Y-97612113D01*
X65739883Y-97708962D01*
X65560395Y-97888137D01*
X65463137Y-98122360D01*
X65462916Y-98375973D01*
X65472552Y-98399293D01*
X65417438Y-98399245D01*
X65183045Y-98496094D01*
X65003557Y-98675269D01*
X64906299Y-98909492D01*
X64906078Y-99163105D01*
X50425435Y-99163105D01*
X50425435Y-97276265D01*
X50572637Y-97337389D01*
X50826250Y-97337610D01*
X51060643Y-97240761D01*
X51240131Y-97061586D01*
X51317089Y-96876250D01*
X64912390Y-96876250D01*
X65009239Y-97110643D01*
X65188414Y-97290131D01*
X65422637Y-97387389D01*
X65676250Y-97387610D01*
X65910643Y-97290761D01*
X66090131Y-97111586D01*
X66187389Y-96877363D01*
X66187610Y-96623750D01*
X66090761Y-96389357D01*
X66077677Y-96376250D01*
X76112390Y-96376250D01*
X76209239Y-96610643D01*
X76388414Y-96790131D01*
X76622637Y-96887389D01*
X76876250Y-96887610D01*
X77110643Y-96790761D01*
X77290131Y-96611586D01*
X77387389Y-96377363D01*
X77387610Y-96123750D01*
X77347210Y-96025973D01*
X78312916Y-96025973D01*
X78409765Y-96260366D01*
X78448965Y-96299634D01*
X78410395Y-96338137D01*
X78313137Y-96572360D01*
X78312916Y-96825973D01*
X78409765Y-97060366D01*
X78588940Y-97239854D01*
X78823163Y-97337112D01*
X79076776Y-97337333D01*
X79311169Y-97240484D01*
X79490657Y-97061309D01*
X79587915Y-96827086D01*
X79588136Y-96573473D01*
X79523173Y-96416249D01*
X80772391Y-96416249D01*
X80869240Y-96650642D01*
X81048415Y-96830130D01*
X81282638Y-96927388D01*
X81536251Y-96927609D01*
X81770644Y-96830760D01*
X81950132Y-96651585D01*
X82047390Y-96417362D01*
X82047611Y-96163749D01*
X81950762Y-95929356D01*
X81771587Y-95749868D01*
X81537364Y-95652610D01*
X81283751Y-95652389D01*
X81049358Y-95749238D01*
X80869870Y-95928413D01*
X80772612Y-96162636D01*
X80772391Y-96416249D01*
X79523173Y-96416249D01*
X79491287Y-96339080D01*
X79452087Y-96299812D01*
X79490657Y-96261309D01*
X79587915Y-96027086D01*
X79588136Y-95773473D01*
X79491287Y-95539080D01*
X79312112Y-95359592D01*
X79077889Y-95262334D01*
X78824276Y-95262113D01*
X78589883Y-95358962D01*
X78410395Y-95538137D01*
X78313137Y-95772360D01*
X78312916Y-96025973D01*
X77347210Y-96025973D01*
X77290761Y-95889357D01*
X77111586Y-95709869D01*
X76877363Y-95612611D01*
X76623750Y-95612390D01*
X76389357Y-95709239D01*
X76209869Y-95888414D01*
X76112611Y-96122637D01*
X76112390Y-96376250D01*
X66077677Y-96376250D01*
X65911586Y-96209869D01*
X65677363Y-96112611D01*
X65423750Y-96112390D01*
X65189357Y-96209239D01*
X65009869Y-96388414D01*
X64912611Y-96622637D01*
X64912390Y-96876250D01*
X51317089Y-96876250D01*
X51337389Y-96827363D01*
X51337610Y-96573750D01*
X51240761Y-96339357D01*
X51201561Y-96300089D01*
X51240131Y-96261586D01*
X51337389Y-96027363D01*
X51337610Y-95773750D01*
X51329231Y-95753471D01*
X63662390Y-95753471D01*
X63759239Y-95987864D01*
X63938414Y-96167352D01*
X64172637Y-96264610D01*
X64426250Y-96264831D01*
X64660643Y-96167982D01*
X64840131Y-95988807D01*
X64907630Y-95826250D01*
X74912392Y-95826250D01*
X75009241Y-96060643D01*
X75188416Y-96240131D01*
X75422639Y-96337389D01*
X75676252Y-96337610D01*
X75910645Y-96240761D01*
X76090133Y-96061586D01*
X76187391Y-95827363D01*
X76187612Y-95573750D01*
X76090763Y-95339357D01*
X75911588Y-95159869D01*
X75677365Y-95062611D01*
X75423752Y-95062390D01*
X75189359Y-95159239D01*
X75009871Y-95338414D01*
X74912613Y-95572637D01*
X74912392Y-95826250D01*
X64907630Y-95826250D01*
X64937389Y-95754584D01*
X64937610Y-95500971D01*
X64840761Y-95266578D01*
X64661586Y-95087090D01*
X64515068Y-95026250D01*
X87112390Y-95026250D01*
X87209239Y-95260643D01*
X87388414Y-95440131D01*
X87622637Y-95537389D01*
X87876250Y-95537610D01*
X88110643Y-95440761D01*
X88290131Y-95261586D01*
X88387389Y-95027363D01*
X88387610Y-94773750D01*
X88290761Y-94539357D01*
X88111586Y-94359869D01*
X87877363Y-94262611D01*
X87623750Y-94262390D01*
X87389357Y-94359239D01*
X87209869Y-94538414D01*
X87112611Y-94772637D01*
X87112390Y-95026250D01*
X64515068Y-95026250D01*
X64427363Y-94989832D01*
X64173750Y-94989611D01*
X63939357Y-95086460D01*
X63759869Y-95265635D01*
X63662611Y-95499858D01*
X63662390Y-95753471D01*
X51329231Y-95753471D01*
X51240761Y-95539357D01*
X51061586Y-95359869D01*
X50827363Y-95262611D01*
X50573750Y-95262390D01*
X50425435Y-95323672D01*
X50425435Y-93626250D01*
X52162390Y-93626250D01*
X52259239Y-93860643D01*
X52438414Y-94040131D01*
X52672637Y-94137389D01*
X52926250Y-94137610D01*
X53160643Y-94040761D01*
X53340131Y-93861586D01*
X53341423Y-93858474D01*
X64990321Y-93858474D01*
X65087170Y-94092867D01*
X65266345Y-94272355D01*
X65500568Y-94369613D01*
X65754181Y-94369834D01*
X65988574Y-94272985D01*
X66168062Y-94093810D01*
X66259420Y-93873794D01*
X83762390Y-93873794D01*
X83859239Y-94108187D01*
X84038414Y-94287675D01*
X84272637Y-94384933D01*
X84526250Y-94385154D01*
X84760643Y-94288305D01*
X84940131Y-94109130D01*
X85037389Y-93874907D01*
X85037610Y-93621294D01*
X84940761Y-93386901D01*
X84761586Y-93207413D01*
X84527363Y-93110155D01*
X84273750Y-93109934D01*
X84039357Y-93206783D01*
X83859869Y-93385958D01*
X83762611Y-93620181D01*
X83762390Y-93873794D01*
X66259420Y-93873794D01*
X66265320Y-93859587D01*
X66265541Y-93605974D01*
X66168692Y-93371581D01*
X65989517Y-93192093D01*
X65755294Y-93094835D01*
X65501681Y-93094614D01*
X65267288Y-93191463D01*
X65087800Y-93370638D01*
X64990542Y-93604861D01*
X64990321Y-93858474D01*
X53341423Y-93858474D01*
X53437389Y-93627363D01*
X53437610Y-93373750D01*
X53340761Y-93139357D01*
X53290243Y-93088750D01*
X53712390Y-93088750D01*
X53809239Y-93323143D01*
X53988414Y-93502631D01*
X54222637Y-93599889D01*
X54476250Y-93600110D01*
X54710643Y-93503261D01*
X54890131Y-93324086D01*
X54987389Y-93089863D01*
X54987610Y-92836250D01*
X54921386Y-92675973D01*
X59162916Y-92675973D01*
X59259765Y-92910366D01*
X59438940Y-93089854D01*
X59673163Y-93187112D01*
X59926776Y-93187333D01*
X60161169Y-93090484D01*
X60225515Y-93026250D01*
X75462390Y-93026250D01*
X75559239Y-93260643D01*
X75738414Y-93440131D01*
X75972637Y-93537389D01*
X76226250Y-93537610D01*
X76460643Y-93440761D01*
X76575354Y-93326250D01*
X78112390Y-93326250D01*
X78209239Y-93560643D01*
X78388414Y-93740131D01*
X78622637Y-93837389D01*
X78876250Y-93837610D01*
X79110643Y-93740761D01*
X79290131Y-93561586D01*
X79387389Y-93327363D01*
X79387610Y-93073750D01*
X79290761Y-92839357D01*
X79111586Y-92659869D01*
X78877363Y-92562611D01*
X78623750Y-92562390D01*
X78389357Y-92659239D01*
X78209869Y-92838414D01*
X78112611Y-93072637D01*
X78112390Y-93326250D01*
X76575354Y-93326250D01*
X76640131Y-93261586D01*
X76737389Y-93027363D01*
X76737610Y-92773750D01*
X76640761Y-92539357D01*
X76461586Y-92359869D01*
X76227363Y-92262611D01*
X75973750Y-92262390D01*
X75739357Y-92359239D01*
X75559869Y-92538414D01*
X75462611Y-92772637D01*
X75462390Y-93026250D01*
X60225515Y-93026250D01*
X60340657Y-92911309D01*
X60437915Y-92677086D01*
X60438136Y-92423473D01*
X60341287Y-92189080D01*
X60162112Y-92009592D01*
X59961403Y-91926250D01*
X73262390Y-91926250D01*
X73359239Y-92160643D01*
X73538414Y-92340131D01*
X73772637Y-92437389D01*
X74026250Y-92437610D01*
X74260643Y-92340761D01*
X74440131Y-92161586D01*
X74537389Y-91927363D01*
X74537610Y-91673750D01*
X74440761Y-91439357D01*
X74362284Y-91360743D01*
X74410643Y-91340761D01*
X74590131Y-91161586D01*
X74625680Y-91075973D01*
X76037916Y-91075973D01*
X76134765Y-91310366D01*
X76313940Y-91489854D01*
X76548163Y-91587112D01*
X76801776Y-91587333D01*
X77036169Y-91490484D01*
X77150602Y-91376250D01*
X79962390Y-91376250D01*
X80059239Y-91610643D01*
X80238414Y-91790131D01*
X80472637Y-91887389D01*
X80726250Y-91887610D01*
X80960643Y-91790761D01*
X81140131Y-91611586D01*
X81237389Y-91377363D01*
X81237610Y-91123750D01*
X81213156Y-91064567D01*
X81388414Y-91240131D01*
X81622637Y-91337389D01*
X81876250Y-91337610D01*
X81903743Y-91326250D01*
X87462390Y-91326250D01*
X87559239Y-91560643D01*
X87738414Y-91740131D01*
X87972637Y-91837389D01*
X88226250Y-91837610D01*
X88460643Y-91740761D01*
X88640131Y-91561586D01*
X88732664Y-91338740D01*
X88762390Y-91338740D01*
X88859239Y-91573133D01*
X89038414Y-91752621D01*
X89272637Y-91849879D01*
X89526250Y-91850100D01*
X89760643Y-91753251D01*
X89940131Y-91574076D01*
X90037389Y-91339853D01*
X90037488Y-91225973D01*
X90062916Y-91225973D01*
X90159765Y-91460366D01*
X90338940Y-91639854D01*
X90573163Y-91737112D01*
X90826776Y-91737333D01*
X91061169Y-91640484D01*
X91240657Y-91461309D01*
X91337915Y-91227086D01*
X91338136Y-90973473D01*
X91241287Y-90739080D01*
X91062112Y-90559592D01*
X90827889Y-90462334D01*
X90574276Y-90462113D01*
X90339883Y-90558962D01*
X90160395Y-90738137D01*
X90063137Y-90972360D01*
X90062916Y-91225973D01*
X90037488Y-91225973D01*
X90037610Y-91086240D01*
X89940761Y-90851847D01*
X89761586Y-90672359D01*
X89527363Y-90575101D01*
X89273750Y-90574880D01*
X89039357Y-90671729D01*
X88859869Y-90850904D01*
X88762611Y-91085127D01*
X88762390Y-91338740D01*
X88732664Y-91338740D01*
X88737389Y-91327363D01*
X88737610Y-91073750D01*
X88640761Y-90839357D01*
X88461586Y-90659869D01*
X88227363Y-90562611D01*
X87973750Y-90562390D01*
X87739357Y-90659239D01*
X87559869Y-90838414D01*
X87462611Y-91072637D01*
X87462390Y-91326250D01*
X81903743Y-91326250D01*
X82110643Y-91240761D01*
X82290131Y-91061586D01*
X82387389Y-90827363D01*
X82387564Y-90626250D01*
X86012380Y-90626250D01*
X86109229Y-90860643D01*
X86288404Y-91040131D01*
X86522627Y-91137389D01*
X86776240Y-91137610D01*
X87010633Y-91040761D01*
X87190121Y-90861586D01*
X87287379Y-90627363D01*
X87287600Y-90373750D01*
X87190751Y-90139357D01*
X87011576Y-89959869D01*
X86777353Y-89862611D01*
X86523740Y-89862390D01*
X86289347Y-89959239D01*
X86109859Y-90138414D01*
X86012601Y-90372637D01*
X86012380Y-90626250D01*
X82387564Y-90626250D01*
X82387610Y-90573750D01*
X82290761Y-90339357D01*
X82111586Y-90159869D01*
X81877363Y-90062611D01*
X81623750Y-90062390D01*
X81389357Y-90159239D01*
X81209869Y-90338414D01*
X81112611Y-90572637D01*
X81112390Y-90826250D01*
X81136844Y-90885433D01*
X80961586Y-90709869D01*
X80727363Y-90612611D01*
X80473750Y-90612390D01*
X80239357Y-90709239D01*
X80059869Y-90888414D01*
X79962611Y-91122637D01*
X79962390Y-91376250D01*
X77150602Y-91376250D01*
X77215657Y-91311309D01*
X77312915Y-91077086D01*
X77313136Y-90823473D01*
X77216287Y-90589080D01*
X77037112Y-90409592D01*
X76802889Y-90312334D01*
X76549276Y-90312113D01*
X76314883Y-90408962D01*
X76135395Y-90588137D01*
X76038137Y-90822360D01*
X76037916Y-91075973D01*
X74625680Y-91075973D01*
X74687389Y-90927363D01*
X74687610Y-90673750D01*
X74590761Y-90439357D01*
X74411586Y-90259869D01*
X74177363Y-90162611D01*
X73923750Y-90162390D01*
X73689357Y-90259239D01*
X73509869Y-90438414D01*
X73412611Y-90672637D01*
X73412390Y-90926250D01*
X73509239Y-91160643D01*
X73587716Y-91239257D01*
X73539357Y-91259239D01*
X73359869Y-91438414D01*
X73262611Y-91672637D01*
X73262390Y-91926250D01*
X59961403Y-91926250D01*
X59927889Y-91912334D01*
X59674276Y-91912113D01*
X59439883Y-92008962D01*
X59260395Y-92188137D01*
X59163137Y-92422360D01*
X59162916Y-92675973D01*
X54921386Y-92675973D01*
X54890761Y-92601857D01*
X54711586Y-92422369D01*
X54477363Y-92325111D01*
X54223750Y-92324890D01*
X53989357Y-92421739D01*
X53809869Y-92600914D01*
X53712611Y-92835137D01*
X53712390Y-93088750D01*
X53290243Y-93088750D01*
X53161586Y-92959869D01*
X52927363Y-92862611D01*
X52673750Y-92862390D01*
X52439357Y-92959239D01*
X52259869Y-93138414D01*
X52162611Y-93372637D01*
X52162390Y-93626250D01*
X50425435Y-93626250D01*
X50425435Y-90626254D01*
X60162390Y-90626254D01*
X60259239Y-90860647D01*
X60438414Y-91040135D01*
X60672637Y-91137393D01*
X60926250Y-91137614D01*
X61160643Y-91040765D01*
X61325445Y-90876250D01*
X71712390Y-90876250D01*
X71809239Y-91110643D01*
X71988414Y-91290131D01*
X72222637Y-91387389D01*
X72476250Y-91387610D01*
X72710643Y-91290761D01*
X72890131Y-91111586D01*
X72987389Y-90877363D01*
X72987610Y-90623750D01*
X72890761Y-90389357D01*
X72711586Y-90209869D01*
X72477363Y-90112611D01*
X72223750Y-90112390D01*
X71989357Y-90209239D01*
X71809869Y-90388414D01*
X71712611Y-90622637D01*
X71712390Y-90876250D01*
X61325445Y-90876250D01*
X61340131Y-90861590D01*
X61437389Y-90627367D01*
X61437610Y-90373754D01*
X61340761Y-90139361D01*
X61161586Y-89959873D01*
X60927363Y-89862615D01*
X60673750Y-89862394D01*
X60439357Y-89959243D01*
X60259869Y-90138418D01*
X60162611Y-90372641D01*
X60162390Y-90626254D01*
X50425435Y-90626254D01*
X50425435Y-89726250D01*
X67562390Y-89726250D01*
X67659239Y-89960643D01*
X67838414Y-90140131D01*
X68072637Y-90237389D01*
X68326250Y-90237610D01*
X68560643Y-90140761D01*
X68740131Y-89961586D01*
X68817089Y-89776250D01*
X68912390Y-89776250D01*
X69009239Y-90010643D01*
X69188414Y-90190131D01*
X69422637Y-90287389D01*
X69676250Y-90287610D01*
X69910643Y-90190761D01*
X70090131Y-90011586D01*
X70187389Y-89777363D01*
X70187610Y-89523750D01*
X70090761Y-89289357D01*
X69911586Y-89109869D01*
X69677363Y-89012611D01*
X69423750Y-89012390D01*
X69189357Y-89109239D01*
X69009869Y-89288414D01*
X68912611Y-89522637D01*
X68912390Y-89776250D01*
X68817089Y-89776250D01*
X68837389Y-89727363D01*
X68837610Y-89473750D01*
X68740761Y-89239357D01*
X68561586Y-89059869D01*
X68327363Y-88962611D01*
X68073750Y-88962390D01*
X67839357Y-89059239D01*
X67659869Y-89238414D01*
X67562611Y-89472637D01*
X67562390Y-89726250D01*
X50425435Y-89726250D01*
X50425435Y-87908018D01*
X51450253Y-87908018D01*
X51609769Y-88294076D01*
X51904881Y-88589704D01*
X52290661Y-88749894D01*
X52708377Y-88750258D01*
X53094435Y-88590742D01*
X53390063Y-88295630D01*
X53550253Y-87909850D01*
X53550338Y-87811635D01*
X59425253Y-87811635D01*
X59664527Y-88390723D01*
X60107195Y-88834164D01*
X60685865Y-89074449D01*
X61312438Y-89074996D01*
X61891526Y-88835722D01*
X62334967Y-88393054D01*
X62362821Y-88325973D01*
X75612916Y-88325973D01*
X75709765Y-88560366D01*
X75888940Y-88739854D01*
X76123163Y-88837112D01*
X76376776Y-88837333D01*
X76611169Y-88740484D01*
X76775967Y-88575973D01*
X78362916Y-88575973D01*
X78459765Y-88810366D01*
X78638940Y-88989854D01*
X78873163Y-89087112D01*
X79126776Y-89087333D01*
X79361169Y-88990484D01*
X79540657Y-88811309D01*
X79637915Y-88577086D01*
X79637958Y-88527018D01*
X83927379Y-88527018D01*
X84024228Y-88761411D01*
X84203403Y-88940899D01*
X84437626Y-89038157D01*
X84691239Y-89038378D01*
X84721261Y-89025973D01*
X90912916Y-89025973D01*
X91009765Y-89260366D01*
X91188940Y-89439854D01*
X91423163Y-89537112D01*
X91676776Y-89537333D01*
X91703579Y-89526258D01*
X95612390Y-89526258D01*
X95709239Y-89760651D01*
X95888414Y-89940139D01*
X96122637Y-90037397D01*
X96376250Y-90037618D01*
X96610643Y-89940769D01*
X96790131Y-89761594D01*
X96887389Y-89527371D01*
X96887610Y-89273758D01*
X96790761Y-89039365D01*
X96611586Y-88859877D01*
X96377363Y-88762619D01*
X96123750Y-88762398D01*
X95889357Y-88859247D01*
X95709869Y-89038422D01*
X95612611Y-89272645D01*
X95612390Y-89526258D01*
X91703579Y-89526258D01*
X91911169Y-89440484D01*
X92090657Y-89261309D01*
X92187915Y-89027086D01*
X92188033Y-88890614D01*
X93313900Y-88890614D01*
X93410749Y-89125007D01*
X93589924Y-89304495D01*
X93824147Y-89401753D01*
X94077760Y-89401974D01*
X94312153Y-89305125D01*
X94491641Y-89125950D01*
X94504457Y-89095085D01*
X94517376Y-89126350D01*
X94696551Y-89305838D01*
X94930774Y-89403096D01*
X95184387Y-89403317D01*
X95418780Y-89306468D01*
X95598268Y-89127293D01*
X95695526Y-88893070D01*
X95695747Y-88639457D01*
X95598898Y-88405064D01*
X95419723Y-88225576D01*
X95419236Y-88225374D01*
X95550253Y-87909850D01*
X95550617Y-87492134D01*
X95391101Y-87106076D01*
X95095989Y-86810448D01*
X94710209Y-86650258D01*
X94292493Y-86649894D01*
X93906435Y-86809410D01*
X93610807Y-87104522D01*
X93450617Y-87490302D01*
X93450253Y-87908018D01*
X93583634Y-88230824D01*
X93411379Y-88402778D01*
X93314121Y-88637001D01*
X93313900Y-88890614D01*
X92188033Y-88890614D01*
X92188136Y-88773473D01*
X92091287Y-88539080D01*
X91912112Y-88359592D01*
X91677889Y-88262334D01*
X91424276Y-88262113D01*
X91189883Y-88358962D01*
X91010395Y-88538137D01*
X90913137Y-88772360D01*
X90912916Y-89025973D01*
X84721261Y-89025973D01*
X84925632Y-88941529D01*
X85105120Y-88762354D01*
X85202378Y-88528131D01*
X85202599Y-88274518D01*
X85105750Y-88040125D01*
X84926575Y-87860637D01*
X84692352Y-87763379D01*
X84438739Y-87763158D01*
X84204346Y-87860007D01*
X84024858Y-88039182D01*
X83927600Y-88273405D01*
X83927379Y-88527018D01*
X79637958Y-88527018D01*
X79638136Y-88323473D01*
X79541287Y-88089080D01*
X79362112Y-87909592D01*
X79127889Y-87812334D01*
X78874276Y-87812113D01*
X78639883Y-87908962D01*
X78460395Y-88088137D01*
X78363137Y-88322360D01*
X78362916Y-88575973D01*
X76775967Y-88575973D01*
X76790657Y-88561309D01*
X76887915Y-88327086D01*
X76888136Y-88073473D01*
X76791287Y-87839080D01*
X76676064Y-87723655D01*
X91012390Y-87723655D01*
X91109239Y-87958048D01*
X91288414Y-88137536D01*
X91522637Y-88234794D01*
X91776250Y-88235015D01*
X92010643Y-88138166D01*
X92147885Y-88001163D01*
X92235127Y-88037389D01*
X92488740Y-88037610D01*
X92723133Y-87940761D01*
X92902621Y-87761586D01*
X92999879Y-87527363D01*
X93000100Y-87273750D01*
X92903251Y-87039357D01*
X92724076Y-86859869D01*
X92489853Y-86762611D01*
X92236240Y-86762390D01*
X92001847Y-86859239D01*
X91864605Y-86996242D01*
X91777363Y-86960016D01*
X91523750Y-86959795D01*
X91289357Y-87056644D01*
X91109869Y-87235819D01*
X91012611Y-87470042D01*
X91012390Y-87723655D01*
X76676064Y-87723655D01*
X76612112Y-87659592D01*
X76377889Y-87562334D01*
X76124276Y-87562113D01*
X75889883Y-87658962D01*
X75710395Y-87838137D01*
X75613137Y-88072360D01*
X75612916Y-88325973D01*
X62362821Y-88325973D01*
X62575252Y-87814384D01*
X62575799Y-87187811D01*
X62336525Y-86608723D01*
X61954719Y-86226250D01*
X62912390Y-86226250D01*
X63009239Y-86460643D01*
X63188414Y-86640131D01*
X63422637Y-86737389D01*
X63676250Y-86737610D01*
X63910643Y-86640761D01*
X64025354Y-86526250D01*
X67962390Y-86526250D01*
X68059239Y-86760643D01*
X68238414Y-86940131D01*
X68472637Y-87037389D01*
X68726250Y-87037610D01*
X68960643Y-86940761D01*
X69140131Y-86761586D01*
X69237389Y-86527363D01*
X69237610Y-86273750D01*
X69140761Y-86039357D01*
X68961586Y-85859869D01*
X68727363Y-85762611D01*
X68473750Y-85762390D01*
X68239357Y-85859239D01*
X68059869Y-86038414D01*
X67962611Y-86272637D01*
X67962390Y-86526250D01*
X64025354Y-86526250D01*
X64090131Y-86461586D01*
X64187389Y-86227363D01*
X64187610Y-85973750D01*
X64090761Y-85739357D01*
X63911586Y-85559869D01*
X63677363Y-85462611D01*
X63423750Y-85462390D01*
X63189357Y-85559239D01*
X63009869Y-85738414D01*
X62912611Y-85972637D01*
X62912390Y-86226250D01*
X61954719Y-86226250D01*
X61893857Y-86165282D01*
X61315187Y-85924997D01*
X60688614Y-85924450D01*
X60109526Y-86163724D01*
X59666085Y-86606392D01*
X59425800Y-87185062D01*
X59425253Y-87811635D01*
X53550338Y-87811635D01*
X53550617Y-87492134D01*
X53391101Y-87106076D01*
X53095989Y-86810448D01*
X52710209Y-86650258D01*
X52292493Y-86649894D01*
X51906435Y-86809410D01*
X51610807Y-87104522D01*
X51450617Y-87490302D01*
X51450253Y-87908018D01*
X50425435Y-87908018D01*
X50425435Y-85425076D01*
X58273405Y-85425076D01*
X58159869Y-85538414D01*
M02*
