M48
;DRILL file {KiCad (2017-02-19 revision a416f3a4e)-master} date 03/09/17 22:42:30
;FORMAT={2:4/ absolute / inch / suppress leading zeros}
FMAT,2
INCH,TZ
T1C0.012
T2C0.057
T3C0.098
%
G90
G05
M72
T1
X19961Y-37756
X19961Y-38071
X19961Y-38386
X19961Y-38701
X19961Y-39331
X19961Y-39646
X19961Y-39961
X19961Y-40276
X19961Y-40591
X19961Y-40906
X19961Y-41220
X19961Y-41535
X19961Y-41850
X19961Y-42165
X19961Y-42480
X19961Y-42795
X19961Y-43110
X19961Y-43740
X19961Y-44685
X19961Y-45945
X19961Y-46555
X19961Y-43425
X19961Y-45118
X19980Y-47205
X19980Y-47520
X20787Y-36811
X20797Y-44853
X20807Y-47402
X20809Y-45317
X20827Y-38583
X20846Y-43931
X20866Y-42618
X20885Y-45906
X20886Y-46811
X20906Y-44252
X20945Y-43366
X21024Y-40118
X21081Y-44974
X21142Y-46555
X21180Y-44424
X21270Y-33858
X21281Y-45586
X21339Y-42303
X21378Y-43563
X21398Y-36599
X21417Y-35827
X21426Y-46339
X21437Y-47461
X21634Y-43287
X21645Y-42795
X21693Y-47205
X21693Y-38976
X21693Y-40090
X21693Y-37697
X21713Y-39429
X21732Y-42323
X21949Y-47894
X22431Y-33858
X22559Y-35236
X22559Y-35551
X22598Y-47224
X22618Y-47559
X22697Y-43445
X22699Y-45881
X22699Y-44825
X22699Y-45332
X22717Y-36417
X22736Y-44370
X22795Y-37697
X23002Y-42657
X23012Y-47594
X23110Y-33819
X23159Y-46846
X23189Y-40472
X23206Y-44825
X23206Y-45332
X23206Y-45839
X23307Y-35551
X23346Y-42185
X23396Y-38465
X23425Y-41615
X23425Y-42638
X23465Y-43248
X23544Y-36437
X23622Y-39409
X23622Y-40098
X23713Y-45332
X23713Y-45839
X23839Y-48917
X23858Y-47618
X23858Y-47067
X23937Y-35630
X24055Y-36437
X24232Y-40098
X24291Y-46417
X24311Y-39409
X24331Y-43794
X24469Y-41615
X24595Y-46358
X24606Y-42362
X24665Y-37382
X24665Y-44685
X24666Y-40732
X24685Y-42826
X24685Y-46654
X24821Y-41890
X24921Y-46398
X25000Y-45217
X25006Y-46695
X25020Y-33898
X25112Y-45520
X25236Y-46004
X25236Y-48917
X25315Y-37649
X25326Y-45297
X25433Y-45748
X25531Y-48701
X25551Y-35472
X25650Y-46496
X25805Y-38991
X25805Y-38402
X25807Y-38091
X25807Y-43091
X25823Y-43412
X25827Y-42028
X25838Y-36902
X25866Y-35689
X25968Y-42819
X25974Y-47047
X25984Y-44783
X25985Y-48976
X26024Y-38681
X26044Y-42441
X26083Y-46496
X26148Y-38077
X26280Y-44016
X26299Y-47027
X26339Y-38386
X26378Y-47933
X26417Y-39606
X26437Y-42283
X26555Y-44213
X26575Y-42560
X26752Y-41378
X26850Y-40886
X26850Y-35276
X26890Y-38780
X26972Y-41669
X27008Y-34016
X27106Y-39567
X27185Y-38031
X27185Y-43524
X27244Y-42067
X27244Y-42402
X27244Y-42795
X27264Y-44902
X27382Y-35295
X27520Y-41083
X27697Y-42205
X27736Y-48327
X27772Y-44173
X27835Y-41083
X27874Y-40315
X27977Y-41718
X28091Y-35059
X28150Y-40965
X28212Y-42213
X28248Y-45059
X28287Y-41614
X28386Y-43209
X28465Y-40531
X28484Y-35728
X28484Y-40846
X28484Y-46181
X28602Y-41634
X28661Y-44409
X28819Y-46181
X28976Y-40079
X29055Y-46732
X29094Y-36142
X29154Y-35748
X29158Y-42311
X29346Y-43922
X29350Y-39055
X29370Y-46260
X29744Y-37677
X29774Y-43140
X29843Y-46732
X29921Y-46063
X29961Y-36575
X30020Y-34724
X30047Y-42429
X30177Y-40669
X30187Y-35807
X30217Y-37894
X30315Y-48701
X30315Y-47165
X30315Y-47854
X30404Y-40305
X30571Y-42451
X30579Y-43354
X30768Y-39882
X30835Y-41661
X30894Y-40795
X31004Y-35748
X31004Y-36693
X31024Y-43307
X31024Y-43661
X31083Y-37756
X31083Y-38071
X31103Y-34823
X31260Y-40413
X31298Y-36343
X31418Y-33937
X31594Y-42736
X31614Y-46614
X31673Y-38287
X31693Y-42224
X31732Y-35925
X31791Y-37598
X31811Y-39843
X31831Y-38976
X31831Y-39409
X32028Y-41476
X32028Y-41796
X32028Y-42224
X32047Y-47648
X32047Y-48819
X32051Y-37909
X32087Y-40074
X32087Y-39193
X32087Y-39626
X32087Y-46487
X32126Y-44626
X32185Y-35709
X32283Y-43366
X32283Y-43937
X32539Y-44626
X32598Y-42441
X32609Y-43484
X32652Y-39941
X32894Y-44291
X32895Y-44746
X33110Y-41890
X33110Y-43169
X33189Y-43624
X33189Y-44178
X33209Y-39350
X33209Y-44656
X33228Y-36908
X33228Y-41339
X33268Y-47648
X33268Y-48809
X33287Y-45413
X33293Y-34803
X33504Y-45689
X33661Y-34843
X33720Y-46683
X33757Y-45503
X33858Y-36063
X34055Y-46909
X34114Y-35630
X34331Y-36063
X34386Y-46728
X34508Y-38740
X34547Y-37362
X34607Y-34413
X34607Y-35073
X34685Y-35906
X34827Y-44898
X34843Y-45453
X34941Y-43406
X34961Y-40571
X34961Y-40098
X34980Y-47424
X35079Y-38740
X35118Y-37323
X35197Y-35910
X35260Y-34419
X35266Y-35073
X35276Y-45453
X35278Y-44358
X35278Y-44864
X35380Y-43209
X35453Y-47283
X35453Y-40098
X35689Y-43209
X35709Y-35866
X35748Y-48346
X35748Y-48661
X35748Y-48976
X35787Y-42303
X35827Y-33878
X35906Y-38406
X35984Y-43071
X36004Y-47402
X36044Y-35000
X36083Y-34487
X36142Y-48843
X36363Y-34409
X36378Y-47224
X36457Y-41496
X36654Y-48071
X36870Y-33740
X36989Y-34947
X37305Y-46409
X37318Y-45382
X37321Y-46990
X37323Y-35647
X37323Y-35984
X37323Y-38878
X37323Y-38090
X37331Y-45073
X37346Y-43428
X37353Y-41988
X37362Y-41594
X37362Y-41220
X37424Y-34947
X37461Y-42677
X37461Y-43012
X37500Y-47835
X37638Y-40374
X37677Y-46102
X37693Y-45777
X37717Y-44173
X37736Y-38307
X37776Y-42480
X37776Y-43504
X37800Y-47499
X37805Y-33858
X37808Y-45471
X37815Y-47185
X37815Y-46856
X37854Y-45039
X37894Y-35197
X37894Y-44647
X37992Y-48720
X38169Y-42146
X38169Y-42480
X38189Y-38110
X38209Y-36732
X38209Y-41142
X38228Y-36142
X38248Y-40827
X38280Y-44174
X38642Y-48937
X38799Y-48189
X38957Y-47835
X38967Y-33848
X39094Y-37756
X39094Y-38071
X39094Y-39961
X39094Y-40276
X39094Y-41142
X39097Y-36186
X39104Y-36811
X39104Y-37126
X39104Y-37441
X39104Y-38380
X39104Y-36496
X39114Y-35866
X39114Y-46752
X39134Y-39331
X39134Y-39646
X39134Y-42087
X39134Y-43622
X39134Y-44764
T2
X20669Y-34528
X20669Y-48228
X37205Y-34528
X37205Y-48228
T3
X24016Y-34449
X35040Y-48228
T0
M30
