G75*
G70*
%OFA0B0*%
%FSLAX24Y24*%
%IPPOS*%
%LPD*%
%AMOC8*
5,1,8,0,0,1.08239X$1,22.5*
%
%ADD10C,0.0600*%
%ADD11C,0.0554*%
%ADD12C,0.0594*%
%ADD13C,0.0768*%
%ADD14C,0.0080*%
%ADD15C,0.0320*%
%ADD16C,0.0310*%
%ADD17C,0.0120*%
%ADD18C,0.0060*%
D10*
X001550Y007990D03*
X001550Y010140D03*
X001550Y011140D03*
X001550Y012140D03*
X001550Y013140D03*
X001550Y014140D03*
X001550Y015140D03*
X001550Y016140D03*
X001550Y017140D03*
X001550Y018140D03*
X001550Y019140D03*
X019050Y019140D03*
X019050Y018140D03*
X019050Y017140D03*
X019050Y016140D03*
X019050Y015140D03*
X019050Y014140D03*
X019050Y013140D03*
X019050Y012140D03*
X019050Y011140D03*
X019050Y010140D03*
D11*
X017800Y011446D03*
X017800Y012234D03*
D12*
X019300Y008609D03*
X019300Y006640D03*
D13*
X018316Y006246D03*
X018316Y009002D03*
D14*
X000840Y003180D02*
X000840Y022140D01*
X019930Y022140D01*
X019930Y003180D01*
X000840Y003180D01*
X000840Y003204D02*
X019930Y003204D01*
X019930Y003283D02*
X000840Y003283D01*
X000840Y003361D02*
X001836Y003361D01*
X001863Y003350D02*
X002237Y003350D01*
X002582Y003493D01*
X002847Y003758D01*
X002990Y004103D01*
X002990Y004477D01*
X002847Y004822D01*
X002582Y005087D01*
X002237Y005230D01*
X001863Y005230D01*
X001518Y005087D01*
X001253Y004822D01*
X001110Y004477D01*
X001110Y004103D01*
X001253Y003758D01*
X001518Y003493D01*
X001863Y003350D01*
X001647Y003440D02*
X000840Y003440D01*
X000840Y003518D02*
X001493Y003518D01*
X001414Y003597D02*
X000840Y003597D01*
X000840Y003675D02*
X001336Y003675D01*
X001257Y003754D02*
X000840Y003754D01*
X000840Y003832D02*
X001222Y003832D01*
X001190Y003911D02*
X000840Y003911D01*
X000840Y003989D02*
X001157Y003989D01*
X001125Y004068D02*
X000840Y004068D01*
X000840Y004146D02*
X001110Y004146D01*
X001110Y004225D02*
X000840Y004225D01*
X000840Y004303D02*
X001110Y004303D01*
X001110Y004382D02*
X000840Y004382D01*
X000840Y004460D02*
X001110Y004460D01*
X001135Y004539D02*
X000840Y004539D01*
X000840Y004617D02*
X001168Y004617D01*
X001201Y004696D02*
X000840Y004696D01*
X000840Y004774D02*
X001233Y004774D01*
X001283Y004853D02*
X000840Y004853D01*
X000840Y004931D02*
X001362Y004931D01*
X001440Y005010D02*
X000840Y005010D01*
X000840Y005088D02*
X001520Y005088D01*
X001710Y005167D02*
X000840Y005167D01*
X000840Y005245D02*
X004619Y005245D01*
X004697Y005324D02*
X000840Y005324D01*
X000840Y005402D02*
X004776Y005402D01*
X004854Y005481D02*
X000840Y005481D01*
X000840Y005559D02*
X004933Y005559D01*
X005011Y005638D02*
X000840Y005638D01*
X000840Y005716D02*
X005090Y005716D01*
X005168Y005795D02*
X000840Y005795D01*
X000840Y005873D02*
X005247Y005873D01*
X005325Y005952D02*
X000840Y005952D01*
X000840Y006030D02*
X005404Y006030D01*
X005482Y006109D02*
X000840Y006109D01*
X000840Y006187D02*
X005561Y006187D01*
X005639Y006266D02*
X000840Y006266D01*
X000840Y006344D02*
X005718Y006344D01*
X005796Y006423D02*
X000840Y006423D01*
X000840Y006501D02*
X005875Y006501D01*
X005953Y006580D02*
X000840Y006580D01*
X000840Y006658D02*
X006032Y006658D01*
X006104Y006730D02*
X004524Y005150D01*
X004438Y005150D01*
X004343Y005110D01*
X004270Y005037D01*
X004230Y004942D01*
X004230Y004838D01*
X004270Y004743D01*
X004343Y004670D01*
X004438Y004630D01*
X004542Y004630D01*
X004637Y004670D01*
X004710Y004743D01*
X004750Y004838D01*
X004750Y004924D01*
X006236Y006410D01*
X007032Y006410D01*
X007093Y006350D01*
X007188Y006310D01*
X007292Y006310D01*
X007387Y006350D01*
X007460Y006423D01*
X007500Y006518D01*
X007500Y006622D01*
X007478Y006674D01*
X007488Y006670D01*
X007592Y006670D01*
X007687Y006710D01*
X007760Y006783D01*
X007800Y006878D01*
X007800Y006934D01*
X008010Y006724D01*
X008104Y006630D01*
X008344Y006630D01*
X008700Y006274D01*
X008700Y006188D01*
X008740Y006093D01*
X008813Y006020D01*
X008908Y005980D01*
X009012Y005980D01*
X009107Y006020D01*
X009180Y006093D01*
X009183Y006100D01*
X013782Y006100D01*
X013790Y006083D01*
X013863Y006010D01*
X013958Y005970D01*
X014062Y005970D01*
X014157Y006010D01*
X014230Y006083D01*
X014270Y006178D01*
X014270Y006282D01*
X014230Y006377D01*
X014157Y006450D01*
X014134Y006460D01*
X015987Y006460D01*
X015990Y006453D01*
X016063Y006380D01*
X016158Y006340D01*
X016262Y006340D01*
X016357Y006380D01*
X016430Y006453D01*
X016470Y006548D01*
X016470Y006652D01*
X016430Y006747D01*
X016357Y006820D01*
X016262Y006860D01*
X016158Y006860D01*
X016063Y006820D01*
X015990Y006747D01*
X015987Y006740D01*
X013723Y006740D01*
X013720Y006747D01*
X013647Y006820D01*
X013552Y006860D01*
X013448Y006860D01*
X013353Y006820D01*
X013280Y006747D01*
X013240Y006652D01*
X013240Y006548D01*
X013280Y006453D01*
X013353Y006380D01*
X013400Y006360D01*
X009192Y006360D01*
X009180Y006387D01*
X009107Y006460D01*
X009012Y006500D01*
X008926Y006500D01*
X008476Y006950D01*
X008236Y006950D01*
X007786Y007400D01*
X007776Y007410D01*
X007334Y007410D01*
X007284Y007360D01*
X005318Y007360D01*
X005257Y007420D01*
X005162Y007460D01*
X005058Y007460D01*
X004963Y007420D01*
X004890Y007347D01*
X004850Y007252D01*
X004850Y007148D01*
X004890Y007053D01*
X004963Y006980D01*
X005058Y006940D01*
X005162Y006940D01*
X005257Y006980D01*
X005318Y007040D01*
X007304Y007040D01*
X007280Y006982D01*
X007280Y006878D01*
X007302Y006826D01*
X007292Y006830D01*
X007188Y006830D01*
X007093Y006790D01*
X007032Y006730D01*
X006104Y006730D01*
X006170Y006344D02*
X007106Y006344D01*
X007374Y006344D02*
X008630Y006344D01*
X008700Y006266D02*
X006522Y006266D01*
X006497Y006290D02*
X006402Y006330D01*
X006298Y006330D01*
X006203Y006290D01*
X006130Y006217D01*
X006090Y006122D01*
X006090Y006018D01*
X006130Y005923D01*
X006203Y005850D01*
X006298Y005810D01*
X006402Y005810D01*
X006497Y005850D01*
X006570Y005923D01*
X006610Y006018D01*
X006610Y006122D01*
X006570Y006217D01*
X006497Y006290D01*
X006583Y006187D02*
X008701Y006187D01*
X008733Y006109D02*
X006610Y006109D01*
X006610Y006030D02*
X008802Y006030D01*
X008903Y005680D02*
X008830Y005607D01*
X008790Y005512D01*
X008790Y005408D01*
X008830Y005313D01*
X008903Y005240D01*
X008998Y005200D01*
X009102Y005200D01*
X009197Y005240D01*
X009270Y005313D01*
X009310Y005408D01*
X009310Y005512D01*
X009270Y005607D01*
X009197Y005680D01*
X009102Y005720D01*
X008998Y005720D01*
X008903Y005680D01*
X008860Y005638D02*
X005464Y005638D01*
X005542Y005716D02*
X008989Y005716D01*
X009111Y005716D02*
X012952Y005716D01*
X012973Y005725D02*
X012878Y005685D01*
X012805Y005612D01*
X012765Y005517D01*
X012765Y005413D01*
X012805Y005318D01*
X012878Y005245D01*
X012973Y005205D01*
X013077Y005205D01*
X013172Y005245D01*
X013245Y005318D01*
X013285Y005413D01*
X013285Y005517D01*
X013245Y005612D01*
X013172Y005685D01*
X013077Y005725D01*
X012973Y005725D01*
X013098Y005716D02*
X013727Y005716D01*
X013748Y005725D02*
X013653Y005685D01*
X013580Y005612D01*
X013540Y005517D01*
X013540Y005413D01*
X013580Y005318D01*
X013653Y005245D01*
X013748Y005205D01*
X013852Y005205D01*
X013947Y005245D01*
X014020Y005318D01*
X014060Y005413D01*
X014060Y005517D01*
X014020Y005612D01*
X013947Y005685D01*
X013852Y005725D01*
X013748Y005725D01*
X013873Y005716D02*
X014378Y005716D01*
X014350Y005687D02*
X014310Y005592D01*
X014310Y005488D01*
X014350Y005393D01*
X014423Y005320D01*
X014518Y005280D01*
X014622Y005280D01*
X014717Y005320D01*
X014790Y005393D01*
X014830Y005488D01*
X014830Y005592D01*
X014790Y005687D01*
X014717Y005760D01*
X014622Y005800D01*
X014518Y005800D01*
X014423Y005760D01*
X014350Y005687D01*
X014329Y005638D02*
X013995Y005638D01*
X014042Y005559D02*
X014310Y005559D01*
X014313Y005481D02*
X014060Y005481D01*
X014055Y005402D02*
X014346Y005402D01*
X014419Y005324D02*
X014023Y005324D01*
X013948Y005245D02*
X019930Y005245D01*
X019930Y005167D02*
X018890Y005167D01*
X018737Y005230D02*
X019082Y005087D01*
X019347Y004822D01*
X019490Y004477D01*
X019490Y004103D01*
X019347Y003758D01*
X019082Y003493D01*
X018737Y003350D01*
X018363Y003350D01*
X018018Y003493D01*
X017753Y003758D01*
X017610Y004103D01*
X017610Y004477D01*
X017753Y004822D01*
X018018Y005087D01*
X018363Y005230D01*
X018737Y005230D01*
X019080Y005088D02*
X019930Y005088D01*
X019930Y005010D02*
X019160Y005010D01*
X019238Y004931D02*
X019930Y004931D01*
X019930Y004853D02*
X019317Y004853D01*
X019367Y004774D02*
X019930Y004774D01*
X019930Y004696D02*
X019399Y004696D01*
X019432Y004617D02*
X019930Y004617D01*
X019930Y004539D02*
X019465Y004539D01*
X019490Y004460D02*
X019930Y004460D01*
X019930Y004382D02*
X019490Y004382D01*
X019490Y004303D02*
X019930Y004303D01*
X019930Y004225D02*
X019490Y004225D01*
X019490Y004146D02*
X019930Y004146D01*
X019930Y004068D02*
X019475Y004068D01*
X019443Y003989D02*
X019930Y003989D01*
X019930Y003911D02*
X019410Y003911D01*
X019378Y003832D02*
X019930Y003832D01*
X019930Y003754D02*
X019343Y003754D01*
X019264Y003675D02*
X019930Y003675D01*
X019930Y003597D02*
X019186Y003597D01*
X019107Y003518D02*
X019930Y003518D01*
X019930Y003440D02*
X018953Y003440D01*
X018764Y003361D02*
X019930Y003361D01*
X018336Y003361D02*
X002264Y003361D01*
X002453Y003440D02*
X018147Y003440D01*
X017993Y003518D02*
X002607Y003518D01*
X002686Y003597D02*
X017914Y003597D01*
X017836Y003675D02*
X008044Y003675D01*
X008032Y003670D02*
X008127Y003710D01*
X008200Y003783D01*
X008240Y003878D01*
X008240Y003982D01*
X008200Y004077D01*
X008127Y004150D01*
X008032Y004190D01*
X007928Y004190D01*
X007833Y004150D01*
X007760Y004077D01*
X007720Y003982D01*
X007720Y003878D01*
X007760Y003783D01*
X007833Y003710D01*
X007928Y003670D01*
X008032Y003670D01*
X007916Y003675D02*
X007183Y003675D01*
X007177Y003670D02*
X007250Y003743D01*
X007290Y003838D01*
X007290Y003942D01*
X007250Y004037D01*
X007177Y004110D01*
X007082Y004150D01*
X006978Y004150D01*
X006883Y004110D01*
X006810Y004037D01*
X006770Y003942D01*
X006770Y003838D01*
X006810Y003743D01*
X006883Y003670D01*
X006978Y003630D01*
X007082Y003630D01*
X007177Y003670D01*
X007255Y003754D02*
X007789Y003754D01*
X007739Y003832D02*
X007287Y003832D01*
X007290Y003911D02*
X007720Y003911D01*
X007723Y003989D02*
X007270Y003989D01*
X007220Y004068D02*
X007756Y004068D01*
X007828Y004146D02*
X007091Y004146D01*
X006969Y004146D02*
X006220Y004146D01*
X006210Y004123D02*
X006250Y004218D01*
X006250Y004322D01*
X006210Y004417D01*
X006137Y004490D01*
X006042Y004530D01*
X005938Y004530D01*
X005843Y004490D01*
X005770Y004417D01*
X005730Y004322D01*
X005730Y004218D01*
X005770Y004123D01*
X005817Y004075D01*
X005780Y004037D01*
X005740Y003942D01*
X005740Y003838D01*
X005780Y003743D01*
X005853Y003670D01*
X005948Y003630D01*
X006052Y003630D01*
X006147Y003670D01*
X006220Y003743D01*
X006260Y003838D01*
X006260Y003942D01*
X006220Y004037D01*
X006173Y004085D01*
X006210Y004123D01*
X006190Y004068D02*
X006840Y004068D01*
X006790Y003989D02*
X006240Y003989D01*
X006260Y003911D02*
X006770Y003911D01*
X006773Y003832D02*
X006257Y003832D01*
X006225Y003754D02*
X006805Y003754D01*
X006877Y003675D02*
X006153Y003675D01*
X005847Y003675D02*
X002764Y003675D01*
X002843Y003754D02*
X005775Y003754D01*
X005743Y003832D02*
X002878Y003832D01*
X002910Y003911D02*
X005740Y003911D01*
X005760Y003989D02*
X002943Y003989D01*
X002975Y004068D02*
X005810Y004068D01*
X005760Y004146D02*
X002990Y004146D01*
X002990Y004225D02*
X005730Y004225D01*
X005730Y004303D02*
X002990Y004303D01*
X002990Y004382D02*
X005755Y004382D01*
X005812Y004460D02*
X002990Y004460D01*
X002965Y004539D02*
X003241Y004539D01*
X003256Y004524D02*
X003184Y004596D01*
X003145Y004689D01*
X003145Y004791D01*
X003184Y004884D01*
X003256Y004956D01*
X003349Y004995D01*
X003451Y004995D01*
X003544Y004956D01*
X003616Y004884D01*
X003655Y004791D01*
X003655Y004689D01*
X003616Y004596D01*
X003544Y004524D01*
X003451Y004485D01*
X003349Y004485D01*
X003256Y004524D01*
X003175Y004617D02*
X002932Y004617D01*
X002899Y004696D02*
X003145Y004696D01*
X003145Y004774D02*
X002867Y004774D01*
X002817Y004853D02*
X003171Y004853D01*
X003230Y004931D02*
X002738Y004931D01*
X002660Y005010D02*
X004258Y005010D01*
X004230Y004931D02*
X003570Y004931D01*
X003629Y004853D02*
X004230Y004853D01*
X004257Y004774D02*
X003655Y004774D01*
X003655Y004696D02*
X004317Y004696D01*
X004663Y004696D02*
X005252Y004696D01*
X005278Y004670D02*
X005373Y004630D01*
X005477Y004630D01*
X005572Y004670D01*
X005645Y004743D01*
X005685Y004838D01*
X005685Y004942D01*
X005645Y005037D01*
X005572Y005110D01*
X005477Y005150D01*
X005373Y005150D01*
X005278Y005110D01*
X005205Y005037D01*
X005165Y004942D01*
X005165Y004838D01*
X005205Y004743D01*
X005278Y004670D01*
X005192Y004774D02*
X004723Y004774D01*
X004750Y004853D02*
X005165Y004853D01*
X005165Y004931D02*
X004757Y004931D01*
X004836Y005010D02*
X005193Y005010D01*
X005255Y005088D02*
X004914Y005088D01*
X004993Y005167D02*
X012271Y005167D01*
X012298Y005155D02*
X012402Y005155D01*
X012497Y005195D01*
X012570Y005268D01*
X012610Y005363D01*
X012610Y005467D01*
X012570Y005562D01*
X012497Y005635D01*
X012402Y005675D01*
X012298Y005675D01*
X012203Y005635D01*
X012130Y005562D01*
X012090Y005467D01*
X012090Y005363D01*
X012130Y005268D01*
X012203Y005195D01*
X012298Y005155D01*
X012429Y005167D02*
X018210Y005167D01*
X018020Y005088D02*
X008610Y005088D01*
X008587Y005110D02*
X008492Y005150D01*
X008388Y005150D01*
X008293Y005110D01*
X008220Y005037D01*
X008180Y004942D01*
X008180Y004838D01*
X008220Y004743D01*
X008293Y004670D01*
X008363Y004641D01*
X008320Y004597D01*
X008280Y004502D01*
X008280Y004398D01*
X008320Y004303D01*
X008393Y004230D01*
X008488Y004190D01*
X008592Y004190D01*
X008687Y004230D01*
X008760Y004303D01*
X008800Y004398D01*
X008800Y004502D01*
X008760Y004597D01*
X008687Y004670D01*
X008617Y004699D01*
X008660Y004743D01*
X008700Y004838D01*
X008700Y004942D01*
X008660Y005037D01*
X008587Y005110D01*
X008672Y005010D02*
X017940Y005010D01*
X017862Y004931D02*
X008700Y004931D01*
X008700Y004853D02*
X012444Y004853D01*
X012403Y004835D02*
X012498Y004875D01*
X012602Y004875D01*
X012697Y004835D01*
X012770Y004762D01*
X012810Y004667D01*
X012810Y004563D01*
X012770Y004468D01*
X012697Y004395D01*
X012602Y004355D01*
X012498Y004355D01*
X012403Y004395D01*
X012330Y004468D01*
X012290Y004563D01*
X012290Y004667D01*
X012330Y004762D01*
X012403Y004835D01*
X012341Y004774D02*
X008673Y004774D01*
X008627Y004696D02*
X009289Y004696D01*
X009253Y004680D02*
X009180Y004607D01*
X009140Y004512D01*
X009140Y004408D01*
X009180Y004313D01*
X009253Y004240D01*
X009348Y004200D01*
X009452Y004200D01*
X009547Y004240D01*
X009620Y004313D01*
X009660Y004408D01*
X009660Y004512D01*
X009620Y004607D01*
X009547Y004680D01*
X009452Y004720D01*
X009348Y004720D01*
X009253Y004680D01*
X009189Y004617D02*
X008741Y004617D01*
X008785Y004539D02*
X009151Y004539D01*
X009140Y004460D02*
X008800Y004460D01*
X008793Y004382D02*
X009151Y004382D01*
X009189Y004303D02*
X008761Y004303D01*
X008675Y004225D02*
X009289Y004225D01*
X009511Y004225D02*
X010300Y004225D01*
X010300Y004198D02*
X010340Y004103D01*
X010413Y004030D01*
X010508Y003990D01*
X010612Y003990D01*
X010707Y004030D01*
X010780Y004103D01*
X010820Y004198D01*
X010820Y004302D01*
X010780Y004397D01*
X010707Y004470D01*
X010612Y004510D01*
X010508Y004510D01*
X010413Y004470D01*
X010340Y004397D01*
X010300Y004302D01*
X010300Y004198D01*
X010322Y004146D02*
X008132Y004146D01*
X008204Y004068D02*
X010375Y004068D01*
X010301Y004303D02*
X009611Y004303D01*
X009649Y004382D02*
X010333Y004382D01*
X010402Y004460D02*
X009660Y004460D01*
X009649Y004539D02*
X012300Y004539D01*
X012290Y004617D02*
X009611Y004617D01*
X009511Y004696D02*
X012302Y004696D01*
X012337Y004460D02*
X010718Y004460D01*
X010787Y004382D02*
X012434Y004382D01*
X012666Y004382D02*
X013316Y004382D01*
X013305Y004393D02*
X013378Y004320D01*
X013473Y004280D01*
X013577Y004280D01*
X013672Y004320D01*
X013745Y004393D01*
X013785Y004488D01*
X013785Y004592D01*
X013745Y004687D01*
X013672Y004760D01*
X013577Y004800D01*
X013473Y004800D01*
X013378Y004760D01*
X013305Y004687D01*
X013265Y004592D01*
X013265Y004488D01*
X013305Y004393D01*
X013277Y004460D02*
X012763Y004460D01*
X012800Y004539D02*
X013265Y004539D01*
X013275Y004617D02*
X012810Y004617D01*
X012798Y004696D02*
X013313Y004696D01*
X013411Y004774D02*
X012759Y004774D01*
X012656Y004853D02*
X017783Y004853D01*
X017733Y004774D02*
X013639Y004774D01*
X013737Y004696D02*
X017701Y004696D01*
X017668Y004617D02*
X013775Y004617D01*
X013785Y004539D02*
X017635Y004539D01*
X017610Y004460D02*
X013773Y004460D01*
X013734Y004382D02*
X017610Y004382D01*
X017610Y004303D02*
X013632Y004303D01*
X013418Y004303D02*
X010819Y004303D01*
X010820Y004225D02*
X017610Y004225D01*
X017610Y004146D02*
X010798Y004146D01*
X010745Y004068D02*
X017625Y004068D01*
X017657Y003989D02*
X008237Y003989D01*
X008240Y003911D02*
X017690Y003911D01*
X017722Y003832D02*
X008221Y003832D01*
X008171Y003754D02*
X017757Y003754D01*
X018220Y005762D02*
X018042Y005836D01*
X017906Y005972D01*
X017832Y006150D01*
X017832Y006343D01*
X017906Y006520D01*
X018042Y006656D01*
X018220Y006730D01*
X018412Y006730D01*
X018590Y006656D01*
X018726Y006520D01*
X018800Y006343D01*
X018800Y006150D01*
X018726Y005972D01*
X018590Y005836D01*
X018412Y005762D01*
X018220Y005762D01*
X018142Y005795D02*
X014635Y005795D01*
X014505Y005795D02*
X005621Y005795D01*
X005699Y005873D02*
X006179Y005873D01*
X006118Y005952D02*
X005778Y005952D01*
X005856Y006030D02*
X006090Y006030D01*
X006090Y006109D02*
X005935Y006109D01*
X006013Y006187D02*
X006117Y006187D01*
X006092Y006266D02*
X006178Y006266D01*
X006582Y005952D02*
X017926Y005952D01*
X017882Y006030D02*
X014178Y006030D01*
X014241Y006109D02*
X017849Y006109D01*
X017832Y006187D02*
X014270Y006187D01*
X014270Y006266D02*
X017832Y006266D01*
X017832Y006344D02*
X016271Y006344D01*
X016149Y006344D02*
X014244Y006344D01*
X014185Y006423D02*
X016020Y006423D01*
X016210Y006600D02*
X013500Y006600D01*
X013260Y006501D02*
X010044Y006501D01*
X010040Y006493D02*
X010080Y006588D01*
X010080Y006692D01*
X010040Y006787D01*
X009967Y006860D01*
X009872Y006900D01*
X009768Y006900D01*
X009673Y006860D01*
X009600Y006787D01*
X009560Y006692D01*
X009560Y006588D01*
X009600Y006493D01*
X009673Y006420D01*
X009768Y006380D01*
X009872Y006380D01*
X009967Y006420D01*
X010040Y006493D01*
X010076Y006580D02*
X013240Y006580D01*
X013243Y006658D02*
X010080Y006658D01*
X010061Y006737D02*
X013275Y006737D01*
X013347Y006815D02*
X011262Y006815D01*
X011297Y006830D02*
X011370Y006903D01*
X011410Y006998D01*
X011410Y007102D01*
X011370Y007197D01*
X011297Y007270D01*
X011202Y007310D01*
X011098Y007310D01*
X011003Y007270D01*
X010930Y007197D01*
X010890Y007102D01*
X010890Y006998D01*
X010930Y006903D01*
X011003Y006830D01*
X011098Y006790D01*
X011202Y006790D01*
X011297Y006830D01*
X011361Y006894D02*
X013709Y006894D01*
X013710Y006893D02*
X013783Y006820D01*
X013878Y006780D01*
X013982Y006780D01*
X014077Y006820D01*
X014150Y006893D01*
X014190Y006988D01*
X014190Y007092D01*
X014150Y007187D01*
X014077Y007260D01*
X013982Y007300D01*
X013878Y007300D01*
X013783Y007260D01*
X013710Y007187D01*
X013670Y007092D01*
X013670Y006988D01*
X013710Y006893D01*
X013677Y006972D02*
X011830Y006972D01*
X011817Y006960D02*
X011890Y007033D01*
X011930Y007128D01*
X011930Y007232D01*
X011890Y007327D01*
X011817Y007400D01*
X011722Y007440D01*
X011662Y007440D01*
X011690Y007508D01*
X011690Y007612D01*
X011650Y007707D01*
X011577Y007780D01*
X011482Y007820D01*
X011378Y007820D01*
X011283Y007780D01*
X011210Y007707D01*
X011170Y007612D01*
X011170Y007508D01*
X011210Y007413D01*
X011283Y007340D01*
X011378Y007300D01*
X011438Y007300D01*
X011410Y007232D01*
X011410Y007128D01*
X011450Y007033D01*
X011523Y006960D01*
X011618Y006920D01*
X011722Y006920D01*
X011817Y006960D01*
X011898Y007051D02*
X013670Y007051D01*
X013685Y007129D02*
X011930Y007129D01*
X011930Y007208D02*
X013730Y007208D01*
X013845Y007286D02*
X011908Y007286D01*
X011853Y007365D02*
X019930Y007365D01*
X019930Y007443D02*
X011663Y007443D01*
X011690Y007522D02*
X019930Y007522D01*
X019930Y007600D02*
X012728Y007600D01*
X012722Y007595D02*
X012795Y007668D01*
X012835Y007763D01*
X012835Y007867D01*
X012795Y007962D01*
X012722Y008035D01*
X012627Y008075D01*
X012523Y008075D01*
X012428Y008035D01*
X012355Y007962D01*
X012315Y007867D01*
X012315Y007763D01*
X012355Y007668D01*
X012428Y007595D01*
X012523Y007555D01*
X012627Y007555D01*
X012722Y007595D01*
X012800Y007679D02*
X019930Y007679D01*
X019930Y007757D02*
X012832Y007757D01*
X012835Y007836D02*
X019930Y007836D01*
X019930Y007914D02*
X012815Y007914D01*
X012765Y007993D02*
X019930Y007993D01*
X019930Y008071D02*
X012636Y008071D01*
X012514Y008071D02*
X001949Y008071D01*
X001950Y008070D02*
X001889Y008217D01*
X001777Y008329D01*
X001630Y008390D01*
X001470Y008390D01*
X001323Y008329D01*
X001211Y008217D01*
X001150Y008070D01*
X001150Y007910D01*
X001211Y007763D01*
X001323Y007651D01*
X001470Y007590D01*
X001630Y007590D01*
X001777Y007651D01*
X001889Y007763D01*
X001950Y007910D01*
X001950Y008070D01*
X001950Y007993D02*
X012385Y007993D01*
X012335Y007914D02*
X001950Y007914D01*
X001919Y007836D02*
X012315Y007836D01*
X012318Y007757D02*
X011601Y007757D01*
X011662Y007679D02*
X012350Y007679D01*
X012422Y007600D02*
X011690Y007600D01*
X011432Y007286D02*
X011260Y007286D01*
X011258Y007365D02*
X007822Y007365D01*
X007900Y007286D02*
X010208Y007286D01*
X010213Y007290D02*
X010140Y007217D01*
X010100Y007122D01*
X010100Y007018D01*
X010140Y006923D01*
X010213Y006850D01*
X010308Y006810D01*
X010412Y006810D01*
X010507Y006850D01*
X010580Y006923D01*
X010620Y007018D01*
X010620Y007122D01*
X010580Y007217D01*
X010507Y007290D01*
X010412Y007330D01*
X010308Y007330D01*
X010213Y007290D01*
X010136Y007208D02*
X007979Y007208D01*
X008057Y007129D02*
X010103Y007129D01*
X010100Y007051D02*
X008136Y007051D01*
X008214Y006972D02*
X010119Y006972D01*
X010169Y006894D02*
X009887Y006894D01*
X009753Y006894D02*
X008533Y006894D01*
X008611Y006815D02*
X009627Y006815D01*
X009579Y006737D02*
X008690Y006737D01*
X008768Y006658D02*
X009560Y006658D01*
X009564Y006580D02*
X008847Y006580D01*
X008925Y006501D02*
X009596Y006501D01*
X009670Y006423D02*
X009145Y006423D01*
X009118Y006030D02*
X013842Y006030D01*
X013605Y005638D02*
X013220Y005638D01*
X013267Y005559D02*
X013558Y005559D01*
X013540Y005481D02*
X013285Y005481D01*
X013280Y005402D02*
X013545Y005402D01*
X013577Y005324D02*
X013248Y005324D01*
X013173Y005245D02*
X013652Y005245D01*
X012877Y005245D02*
X012548Y005245D01*
X012594Y005324D02*
X012802Y005324D01*
X012770Y005402D02*
X012610Y005402D01*
X012604Y005481D02*
X012765Y005481D01*
X012783Y005559D02*
X012572Y005559D01*
X012492Y005638D02*
X012830Y005638D01*
X012208Y005638D02*
X009240Y005638D01*
X009290Y005559D02*
X012128Y005559D01*
X012096Y005481D02*
X009310Y005481D01*
X009307Y005402D02*
X012090Y005402D01*
X012106Y005324D02*
X009275Y005324D01*
X009203Y005245D02*
X012152Y005245D01*
X013310Y006423D02*
X009970Y006423D01*
X010013Y006815D02*
X010296Y006815D01*
X010424Y006815D02*
X011038Y006815D01*
X010939Y006894D02*
X010551Y006894D01*
X010601Y006972D02*
X010901Y006972D01*
X010890Y007051D02*
X010620Y007051D01*
X010617Y007129D02*
X010901Y007129D01*
X010940Y007208D02*
X010584Y007208D01*
X010512Y007286D02*
X011040Y007286D01*
X011197Y007443D02*
X005203Y007443D01*
X005313Y007365D02*
X007288Y007365D01*
X007280Y006972D02*
X005239Y006972D01*
X004981Y006972D02*
X000840Y006972D01*
X000840Y006894D02*
X007280Y006894D01*
X007152Y006815D02*
X000840Y006815D01*
X000840Y006737D02*
X007039Y006737D01*
X007485Y006658D02*
X008076Y006658D01*
X007997Y006737D02*
X007714Y006737D01*
X007774Y006815D02*
X007919Y006815D01*
X007840Y006894D02*
X007800Y006894D01*
X007500Y006580D02*
X008394Y006580D01*
X008473Y006501D02*
X007493Y006501D01*
X007460Y006423D02*
X008551Y006423D01*
X008810Y005559D02*
X005385Y005559D01*
X005307Y005481D02*
X008790Y005481D01*
X008793Y005402D02*
X005228Y005402D01*
X005150Y005324D02*
X008825Y005324D01*
X008897Y005245D02*
X005071Y005245D01*
X004540Y005167D02*
X002390Y005167D01*
X002580Y005088D02*
X004320Y005088D01*
X003625Y004617D02*
X008339Y004617D01*
X008295Y004539D02*
X003559Y004539D01*
X005598Y004696D02*
X006402Y004696D01*
X006428Y004670D02*
X006523Y004630D01*
X006627Y004630D01*
X006722Y004670D01*
X006795Y004743D01*
X006835Y004838D01*
X006835Y004942D01*
X006795Y005037D01*
X006722Y005110D01*
X006627Y005150D01*
X006523Y005150D01*
X006428Y005110D01*
X006355Y005037D01*
X006315Y004942D01*
X006315Y004838D01*
X006355Y004743D01*
X006428Y004670D01*
X006342Y004774D02*
X005658Y004774D01*
X005685Y004853D02*
X006315Y004853D01*
X006315Y004931D02*
X005685Y004931D01*
X005657Y005010D02*
X006343Y005010D01*
X006405Y005088D02*
X005595Y005088D01*
X006168Y004460D02*
X008280Y004460D01*
X008287Y004382D02*
X006225Y004382D01*
X006250Y004303D02*
X008319Y004303D01*
X008405Y004225D02*
X006250Y004225D01*
X006748Y004696D02*
X007377Y004696D01*
X007403Y004670D02*
X007498Y004630D01*
X007602Y004630D01*
X007697Y004670D01*
X007770Y004743D01*
X007810Y004838D01*
X007810Y004942D01*
X007770Y005037D01*
X007697Y005110D01*
X007602Y005150D01*
X007498Y005150D01*
X007403Y005110D01*
X007330Y005037D01*
X007290Y004942D01*
X007290Y004838D01*
X007330Y004743D01*
X007403Y004670D01*
X007317Y004774D02*
X006808Y004774D01*
X006835Y004853D02*
X007290Y004853D01*
X007290Y004931D02*
X006835Y004931D01*
X006807Y005010D02*
X007318Y005010D01*
X007380Y005088D02*
X006745Y005088D01*
X006521Y005873D02*
X018005Y005873D01*
X018489Y005795D02*
X019930Y005795D01*
X019930Y005873D02*
X018627Y005873D01*
X018705Y005952D02*
X019930Y005952D01*
X019930Y006030D02*
X018750Y006030D01*
X018782Y006109D02*
X019930Y006109D01*
X019930Y006187D02*
X018800Y006187D01*
X018800Y006266D02*
X019167Y006266D01*
X019221Y006243D02*
X019379Y006243D01*
X019525Y006304D01*
X019636Y006415D01*
X019697Y006561D01*
X019697Y006719D01*
X019636Y006865D01*
X019525Y006976D01*
X019379Y007037D01*
X019221Y007037D01*
X019075Y006976D01*
X018964Y006865D01*
X018903Y006719D01*
X018903Y006561D01*
X018964Y006415D01*
X019075Y006304D01*
X019221Y006243D01*
X019035Y006344D02*
X018799Y006344D01*
X018766Y006423D02*
X018961Y006423D01*
X018928Y006501D02*
X018734Y006501D01*
X018667Y006580D02*
X018903Y006580D01*
X018903Y006658D02*
X018586Y006658D01*
X018910Y006737D02*
X016435Y006737D01*
X016467Y006658D02*
X018045Y006658D01*
X017965Y006580D02*
X016470Y006580D01*
X016450Y006501D02*
X017898Y006501D01*
X017865Y006423D02*
X016400Y006423D01*
X016363Y006815D02*
X018943Y006815D01*
X018992Y006894D02*
X014151Y006894D01*
X014183Y006972D02*
X019071Y006972D01*
X019529Y006972D02*
X019930Y006972D01*
X019930Y006894D02*
X019608Y006894D01*
X019657Y006815D02*
X019930Y006815D01*
X019930Y006737D02*
X019690Y006737D01*
X019697Y006658D02*
X019930Y006658D01*
X019930Y006580D02*
X019697Y006580D01*
X019672Y006501D02*
X019930Y006501D01*
X019930Y006423D02*
X019639Y006423D01*
X019565Y006344D02*
X019930Y006344D01*
X019930Y006266D02*
X019433Y006266D01*
X019930Y005716D02*
X014762Y005716D01*
X014811Y005638D02*
X019930Y005638D01*
X019930Y005559D02*
X014830Y005559D01*
X014827Y005481D02*
X019930Y005481D01*
X019930Y005402D02*
X014794Y005402D01*
X014721Y005324D02*
X019930Y005324D01*
X019930Y007051D02*
X014190Y007051D01*
X014175Y007129D02*
X019930Y007129D01*
X019930Y007208D02*
X014130Y007208D01*
X014015Y007286D02*
X019930Y007286D01*
X019930Y008150D02*
X001917Y008150D01*
X001878Y008228D02*
X019182Y008228D01*
X019221Y008212D02*
X019379Y008212D01*
X019525Y008272D01*
X019636Y008384D01*
X019697Y008530D01*
X019697Y008687D01*
X019636Y008833D01*
X019525Y008945D01*
X019379Y009005D01*
X019221Y009005D01*
X019075Y008945D01*
X018964Y008833D01*
X018903Y008687D01*
X018903Y008530D01*
X018964Y008384D01*
X019075Y008272D01*
X019221Y008212D01*
X019418Y008228D02*
X019930Y008228D01*
X019930Y008307D02*
X019559Y008307D01*
X019637Y008385D02*
X019930Y008385D01*
X019930Y008464D02*
X019669Y008464D01*
X019697Y008542D02*
X019930Y008542D01*
X019930Y008621D02*
X019697Y008621D01*
X019692Y008699D02*
X019930Y008699D01*
X019930Y008778D02*
X019660Y008778D01*
X019614Y008856D02*
X019930Y008856D01*
X019930Y008935D02*
X019535Y008935D01*
X019930Y009013D02*
X018800Y009013D01*
X018800Y008935D02*
X019065Y008935D01*
X018986Y008856D02*
X018779Y008856D01*
X018800Y008906D02*
X018726Y008728D01*
X018590Y008592D01*
X018412Y008518D01*
X018220Y008518D01*
X018042Y008592D01*
X017906Y008728D01*
X017832Y008906D01*
X017832Y009098D01*
X017906Y009276D01*
X018042Y009412D01*
X018220Y009486D01*
X018412Y009486D01*
X018590Y009412D01*
X018726Y009276D01*
X018800Y009098D01*
X018800Y008906D01*
X018746Y008778D02*
X018940Y008778D01*
X018908Y008699D02*
X018697Y008699D01*
X018618Y008621D02*
X018903Y008621D01*
X018903Y008542D02*
X018469Y008542D01*
X018162Y008542D02*
X015560Y008542D01*
X015560Y008567D02*
X015520Y008662D01*
X015503Y008680D01*
X015577Y008680D01*
X015672Y008720D01*
X015745Y008793D01*
X015785Y008888D01*
X015785Y008992D01*
X015759Y009055D01*
X015802Y009055D01*
X015897Y009095D01*
X015970Y009168D01*
X016010Y009263D01*
X016010Y009367D01*
X015970Y009462D01*
X015897Y009535D01*
X015802Y009575D01*
X015698Y009575D01*
X015603Y009535D01*
X015530Y009462D01*
X015490Y009367D01*
X015490Y009263D01*
X015516Y009200D01*
X015473Y009200D01*
X015378Y009160D01*
X015305Y009087D01*
X015265Y008992D01*
X015265Y008888D01*
X015305Y008793D01*
X015322Y008775D01*
X015248Y008775D01*
X015201Y008755D01*
X015235Y008838D01*
X015235Y008942D01*
X015195Y009037D01*
X015122Y009110D01*
X015027Y009150D01*
X014923Y009150D01*
X014828Y009110D01*
X014755Y009037D01*
X014715Y008942D01*
X014715Y008838D01*
X014755Y008743D01*
X014828Y008670D01*
X014923Y008630D01*
X015027Y008630D01*
X015074Y008650D01*
X015040Y008567D01*
X015040Y008463D01*
X015080Y008368D01*
X015153Y008295D01*
X015248Y008255D01*
X015352Y008255D01*
X015447Y008295D01*
X015520Y008368D01*
X015560Y008463D01*
X015560Y008567D01*
X015538Y008621D02*
X018013Y008621D01*
X017935Y008699D02*
X015623Y008699D01*
X015730Y008778D02*
X017885Y008778D01*
X017853Y008856D02*
X015772Y008856D01*
X015785Y008935D02*
X017832Y008935D01*
X017832Y009013D02*
X015776Y009013D01*
X015890Y009092D02*
X017832Y009092D01*
X017862Y009170D02*
X015971Y009170D01*
X016004Y009249D02*
X017894Y009249D01*
X017956Y009327D02*
X016010Y009327D01*
X015994Y009406D02*
X018035Y009406D01*
X018215Y009484D02*
X015949Y009484D01*
X015832Y009563D02*
X019930Y009563D01*
X019930Y009641D02*
X012080Y009641D01*
X012080Y009563D02*
X015668Y009563D01*
X015551Y009484D02*
X012080Y009484D01*
X012080Y009466D02*
X012080Y010304D01*
X012010Y010374D01*
X012010Y010392D01*
X012027Y010400D01*
X012100Y010473D01*
X012140Y010568D01*
X012140Y010672D01*
X012100Y010767D01*
X012027Y010840D01*
X011932Y010880D01*
X011828Y010880D01*
X011733Y010840D01*
X011660Y010767D01*
X011642Y010724D01*
X011640Y010727D01*
X011567Y010800D01*
X011472Y010840D01*
X011368Y010840D01*
X011273Y010800D01*
X011200Y010727D01*
X011160Y010632D01*
X011160Y010528D01*
X011200Y010433D01*
X011273Y010360D01*
X011368Y010320D01*
X011472Y010320D01*
X011495Y010330D01*
X011670Y010164D01*
X011670Y009604D01*
X011616Y009550D01*
X011414Y009550D01*
X011354Y009610D01*
X011328Y009610D01*
X011330Y009613D01*
X011370Y009708D01*
X011370Y009812D01*
X011330Y009907D01*
X011257Y009980D01*
X011194Y010007D01*
X011230Y010043D01*
X011270Y010138D01*
X011270Y010242D01*
X011230Y010337D01*
X011157Y010410D01*
X011062Y010450D01*
X010958Y010450D01*
X010863Y010410D01*
X010790Y010337D01*
X010750Y010242D01*
X010750Y010200D01*
X009898Y010200D01*
X009950Y010253D01*
X009990Y010348D01*
X009990Y010452D01*
X009950Y010547D01*
X009943Y010555D01*
X010027Y010590D01*
X010100Y010663D01*
X010140Y010758D01*
X010140Y010862D01*
X010100Y010957D01*
X010027Y011030D01*
X009932Y011070D01*
X009828Y011070D01*
X009733Y011030D01*
X009660Y010957D01*
X009620Y010862D01*
X009620Y010758D01*
X009660Y010663D01*
X009667Y010655D01*
X009647Y010647D01*
X008990Y011304D01*
X008914Y011380D01*
X008904Y011380D01*
X008927Y011390D01*
X009000Y011463D01*
X009040Y011558D01*
X009040Y011662D01*
X009000Y011757D01*
X008927Y011830D01*
X008832Y011870D01*
X008728Y011870D01*
X008633Y011830D01*
X008560Y011757D01*
X008520Y011662D01*
X008520Y011558D01*
X008560Y011463D01*
X008633Y011390D01*
X008656Y011380D01*
X008364Y011380D01*
X007980Y011764D01*
X007904Y011840D01*
X007408Y011840D01*
X007460Y011893D01*
X007500Y011988D01*
X007500Y012092D01*
X007472Y012160D01*
X009478Y012160D01*
X009620Y012302D01*
X010428Y013110D01*
X011370Y013110D01*
X011390Y013063D01*
X011463Y012990D01*
X011558Y012950D01*
X011662Y012950D01*
X011757Y012990D01*
X011830Y013063D01*
X011870Y013158D01*
X011870Y013262D01*
X011830Y013357D01*
X011757Y013430D01*
X011662Y013470D01*
X011558Y013470D01*
X011463Y013430D01*
X011402Y013370D01*
X011338Y013370D01*
X011410Y013443D01*
X011450Y013538D01*
X011450Y013642D01*
X011410Y013737D01*
X011337Y013810D01*
X011242Y013850D01*
X011138Y013850D01*
X011043Y013810D01*
X010970Y013737D01*
X010954Y013700D01*
X010392Y013700D01*
X010310Y013618D01*
X009402Y012710D01*
X007583Y012710D01*
X007580Y012717D01*
X007507Y012790D01*
X007412Y012830D01*
X007308Y012830D01*
X007213Y012790D01*
X007140Y012717D01*
X007100Y012622D01*
X007100Y012538D01*
X007057Y012580D01*
X006962Y012620D01*
X006858Y012620D01*
X006763Y012580D01*
X006750Y012568D01*
X006750Y012976D01*
X006861Y013087D01*
X006878Y013080D01*
X006982Y013080D01*
X007077Y013120D01*
X007150Y013193D01*
X007190Y013288D01*
X007190Y013392D01*
X007150Y013487D01*
X007077Y013560D01*
X006982Y013600D01*
X006878Y013600D01*
X006783Y013560D01*
X006710Y013487D01*
X006670Y013392D01*
X006670Y013288D01*
X006677Y013271D01*
X006490Y013084D01*
X006490Y012166D01*
X006566Y012090D01*
X007034Y011622D01*
X006980Y011567D01*
X006940Y011472D01*
X006940Y011368D01*
X004052Y011368D01*
X004060Y011388D02*
X004020Y011293D01*
X003947Y011220D01*
X003852Y011180D01*
X003748Y011180D01*
X003653Y011220D01*
X003580Y011293D01*
X003540Y011388D01*
X003540Y011492D01*
X003580Y011587D01*
X003653Y011660D01*
X003748Y011700D01*
X003852Y011700D01*
X003947Y011660D01*
X004020Y011587D01*
X004060Y011492D01*
X004060Y011388D01*
X004060Y011447D02*
X006940Y011447D01*
X006940Y011368D02*
X006980Y011273D01*
X007053Y011200D01*
X007148Y011160D01*
X007252Y011160D01*
X007347Y011200D01*
X007420Y011273D01*
X007423Y011280D01*
X007832Y011280D01*
X008502Y010610D01*
X006568Y010610D01*
X006560Y010627D01*
X006487Y010700D01*
X006392Y010740D01*
X006288Y010740D01*
X006193Y010700D01*
X006120Y010627D01*
X006080Y010532D01*
X006080Y010428D01*
X006120Y010333D01*
X006193Y010260D01*
X006288Y010220D01*
X006390Y010220D01*
X006390Y010168D01*
X006430Y010073D01*
X006482Y010020D01*
X005773Y010020D01*
X005770Y010027D01*
X005704Y010093D01*
X005767Y010120D01*
X005840Y010193D01*
X005880Y010288D01*
X005880Y010392D01*
X005840Y010487D01*
X005767Y010560D01*
X005672Y010600D01*
X005568Y010600D01*
X005473Y010560D01*
X005400Y010487D01*
X005360Y010392D01*
X005360Y010288D01*
X005400Y010193D01*
X005466Y010127D01*
X005403Y010100D01*
X005330Y010027D01*
X005290Y009932D01*
X005290Y009828D01*
X005330Y009733D01*
X005403Y009660D01*
X005498Y009620D01*
X005602Y009620D01*
X005697Y009660D01*
X005770Y009733D01*
X005773Y009740D01*
X006647Y009740D01*
X006650Y009733D01*
X006723Y009660D01*
X006818Y009620D01*
X006922Y009620D01*
X007017Y009660D01*
X007090Y009733D01*
X007130Y009828D01*
X007130Y009932D01*
X007123Y009949D01*
X007394Y010220D01*
X008516Y010220D01*
X009076Y009660D01*
X010456Y009660D01*
X010886Y009230D01*
X011186Y009230D01*
X011256Y009160D01*
X011774Y009160D01*
X011850Y009236D01*
X012080Y009466D01*
X012019Y009406D02*
X015506Y009406D01*
X015490Y009327D02*
X011941Y009327D01*
X011862Y009249D02*
X015496Y009249D01*
X015401Y009170D02*
X011784Y009170D01*
X011629Y009563D02*
X011401Y009563D01*
X011342Y009641D02*
X011670Y009641D01*
X011670Y009720D02*
X011370Y009720D01*
X011370Y009798D02*
X011670Y009798D01*
X011670Y009877D02*
X011343Y009877D01*
X011283Y009955D02*
X011670Y009955D01*
X011670Y010034D02*
X011221Y010034D01*
X011259Y010112D02*
X011670Y010112D01*
X011642Y010191D02*
X011270Y010191D01*
X011259Y010269D02*
X011559Y010269D01*
X011302Y010348D02*
X011220Y010348D01*
X011206Y010426D02*
X011120Y010426D01*
X011170Y010505D02*
X009968Y010505D01*
X009990Y010426D02*
X010900Y010426D01*
X010800Y010348D02*
X009990Y010348D01*
X009957Y010269D02*
X010761Y010269D01*
X010880Y010060D02*
X011010Y010190D01*
X010880Y010060D02*
X009250Y010060D01*
X008660Y010650D01*
X007890Y011420D01*
X007200Y011420D01*
X007016Y011604D02*
X004004Y011604D01*
X004046Y011525D02*
X006962Y011525D01*
X006974Y011682D02*
X003895Y011682D01*
X003705Y011682D02*
X000840Y011682D01*
X000840Y011604D02*
X003596Y011604D01*
X003554Y011525D02*
X001666Y011525D01*
X001630Y011540D02*
X001470Y011540D01*
X001323Y011479D01*
X001211Y011367D01*
X001150Y011220D01*
X001150Y011060D01*
X001211Y010913D01*
X001323Y010801D01*
X001470Y010740D01*
X000840Y010740D01*
X000840Y010662D02*
X006154Y010662D01*
X006101Y010583D02*
X005713Y010583D01*
X005823Y010505D02*
X006080Y010505D01*
X006081Y010426D02*
X005866Y010426D01*
X005880Y010348D02*
X006113Y010348D01*
X006183Y010269D02*
X005872Y010269D01*
X005838Y010191D02*
X006390Y010191D01*
X006413Y010112D02*
X005749Y010112D01*
X005764Y010034D02*
X006469Y010034D01*
X006870Y009880D02*
X005550Y009880D01*
X005652Y009641D02*
X006768Y009641D01*
X006663Y009720D02*
X005757Y009720D01*
X005448Y009641D02*
X000840Y009641D01*
X000840Y009563D02*
X008615Y009563D01*
X008590Y009537D02*
X008550Y009442D01*
X008550Y009338D01*
X008590Y009243D01*
X008663Y009170D01*
X008758Y009130D01*
X008862Y009130D01*
X008957Y009170D01*
X009030Y009243D01*
X009070Y009338D01*
X009070Y009442D01*
X009030Y009537D01*
X008957Y009610D01*
X008862Y009650D01*
X008758Y009650D01*
X008663Y009610D01*
X008590Y009537D01*
X008568Y009484D02*
X004634Y009484D01*
X004607Y009510D02*
X004512Y009550D01*
X004408Y009550D01*
X004313Y009510D01*
X004240Y009437D01*
X004200Y009342D01*
X004200Y009238D01*
X004240Y009143D01*
X004313Y009070D01*
X004408Y009030D01*
X004512Y009030D01*
X004607Y009070D01*
X004680Y009143D01*
X004720Y009238D01*
X004720Y009342D01*
X004680Y009437D01*
X004607Y009510D01*
X004694Y009406D02*
X008550Y009406D01*
X008555Y009327D02*
X004720Y009327D01*
X004720Y009249D02*
X008587Y009249D01*
X008662Y009170D02*
X004692Y009170D01*
X004629Y009092D02*
X014809Y009092D01*
X014745Y009013D02*
X004109Y009013D01*
X004110Y009012D02*
X004070Y009107D01*
X003997Y009180D01*
X003902Y009220D01*
X003798Y009220D01*
X003703Y009180D01*
X003630Y009107D01*
X003590Y009012D01*
X003590Y008908D01*
X003630Y008813D01*
X003703Y008740D01*
X003798Y008700D01*
X003902Y008700D01*
X003997Y008740D01*
X004070Y008813D01*
X004110Y008908D01*
X004110Y009012D01*
X004110Y008935D02*
X014715Y008935D01*
X014715Y008856D02*
X013677Y008856D01*
X013647Y008885D02*
X013552Y008925D01*
X013448Y008925D01*
X013353Y008885D01*
X013280Y008812D01*
X013240Y008717D01*
X013240Y008613D01*
X013280Y008518D01*
X013353Y008445D01*
X013448Y008405D01*
X013552Y008405D01*
X013647Y008445D01*
X013720Y008518D01*
X013760Y008613D01*
X013760Y008717D01*
X013720Y008812D01*
X013647Y008885D01*
X013735Y008778D02*
X014314Y008778D01*
X014273Y008760D02*
X014200Y008687D01*
X014160Y008592D01*
X014160Y008488D01*
X014200Y008393D01*
X014273Y008320D01*
X014368Y008280D01*
X014472Y008280D01*
X014567Y008320D01*
X014640Y008393D01*
X014680Y008488D01*
X014680Y008592D01*
X014640Y008687D01*
X014567Y008760D01*
X014472Y008800D01*
X014368Y008800D01*
X014273Y008760D01*
X014211Y008699D02*
X013760Y008699D01*
X013760Y008621D02*
X014172Y008621D01*
X014160Y008542D02*
X013730Y008542D01*
X013666Y008464D02*
X014170Y008464D01*
X014207Y008385D02*
X001642Y008385D01*
X001799Y008307D02*
X014304Y008307D01*
X014536Y008307D02*
X015141Y008307D01*
X015072Y008385D02*
X014633Y008385D01*
X014670Y008464D02*
X015040Y008464D01*
X015040Y008542D02*
X014680Y008542D01*
X014668Y008621D02*
X015062Y008621D01*
X015210Y008778D02*
X015320Y008778D01*
X015278Y008856D02*
X015235Y008856D01*
X015235Y008935D02*
X015265Y008935D01*
X015274Y009013D02*
X015205Y009013D01*
X015141Y009092D02*
X015309Y009092D01*
X014798Y008699D02*
X014629Y008699D01*
X014526Y008778D02*
X014740Y008778D01*
X015459Y008307D02*
X019041Y008307D01*
X018963Y008385D02*
X015528Y008385D01*
X015560Y008464D02*
X018931Y008464D01*
X018800Y009092D02*
X019930Y009092D01*
X019930Y009170D02*
X018770Y009170D01*
X018737Y009249D02*
X019930Y009249D01*
X019930Y009327D02*
X018675Y009327D01*
X018597Y009406D02*
X019930Y009406D01*
X019930Y009484D02*
X018417Y009484D01*
X018748Y009877D02*
X017122Y009877D01*
X017120Y009873D02*
X017160Y009968D01*
X017160Y010072D01*
X017120Y010167D01*
X017047Y010240D01*
X016952Y010280D01*
X016848Y010280D01*
X016753Y010240D01*
X016680Y010167D01*
X016640Y010072D01*
X016640Y009968D01*
X016680Y009873D01*
X016753Y009800D01*
X016848Y009760D01*
X016952Y009760D01*
X017047Y009800D01*
X017120Y009873D01*
X017155Y009955D02*
X018694Y009955D01*
X018711Y009913D02*
X018823Y009801D01*
X018970Y009740D01*
X019130Y009740D01*
X019277Y009801D01*
X019389Y009913D01*
X019450Y010060D01*
X019450Y010220D01*
X019389Y010367D01*
X019277Y010479D01*
X019130Y010540D01*
X018970Y010540D01*
X018823Y010479D01*
X018711Y010367D01*
X018650Y010220D01*
X018650Y010060D01*
X018711Y009913D01*
X018661Y010034D02*
X017160Y010034D01*
X017143Y010112D02*
X018650Y010112D01*
X018650Y010191D02*
X017097Y010191D01*
X016978Y010269D02*
X018670Y010269D01*
X018703Y010348D02*
X012868Y010348D01*
X012885Y010388D02*
X012845Y010293D01*
X012793Y010240D01*
X012845Y010187D01*
X012885Y010092D01*
X012885Y009988D01*
X012845Y009893D01*
X012772Y009820D01*
X012677Y009780D01*
X012573Y009780D01*
X012478Y009820D01*
X012405Y009893D01*
X012365Y009988D01*
X012365Y010092D01*
X012405Y010187D01*
X012457Y010240D01*
X012405Y010293D01*
X012365Y010388D01*
X012365Y010492D01*
X012405Y010587D01*
X012465Y010647D01*
X012420Y010693D01*
X012380Y010788D01*
X012380Y010892D01*
X012420Y010987D01*
X012477Y011045D01*
X012410Y011113D01*
X012370Y011208D01*
X012370Y011312D01*
X012410Y011407D01*
X012483Y011480D01*
X012537Y011503D01*
X012510Y011568D01*
X012510Y011672D01*
X012550Y011767D01*
X012623Y011840D01*
X012640Y011848D01*
X012640Y011976D01*
X012526Y012090D01*
X012336Y012090D01*
X012036Y012390D01*
X011960Y012466D01*
X011960Y013566D01*
X011450Y013566D01*
X011449Y013645D02*
X011882Y013645D01*
X011960Y013566D02*
X011456Y014070D01*
X010484Y014070D01*
X010030Y013616D01*
X009954Y013540D01*
X009506Y013540D01*
X009256Y013790D01*
X008916Y013790D01*
X008146Y014560D01*
X008070Y014636D01*
X008070Y015746D01*
X007166Y016650D01*
X007136Y016680D01*
X006476Y016680D01*
X006470Y016668D01*
X006397Y016595D01*
X006302Y016555D01*
X006198Y016555D01*
X006103Y016595D01*
X006030Y016668D01*
X005990Y016763D01*
X005990Y016867D01*
X006030Y016962D01*
X006082Y017015D01*
X006030Y017068D01*
X005990Y017163D01*
X005990Y017267D01*
X006030Y017362D01*
X006082Y017415D01*
X006030Y017468D01*
X005990Y017563D01*
X005990Y017667D01*
X006030Y017762D01*
X006082Y017815D01*
X006030Y017868D01*
X005990Y017963D01*
X005990Y018067D01*
X006030Y018162D01*
X006103Y018235D01*
X006198Y018275D01*
X006302Y018275D01*
X006397Y018235D01*
X006470Y018162D01*
X006510Y018067D01*
X006510Y017963D01*
X006503Y017946D01*
X006669Y017780D01*
X007194Y017780D01*
X007270Y017704D01*
X008484Y016490D01*
X009210Y016490D01*
X009163Y016510D01*
X009090Y016583D01*
X009050Y016678D01*
X009050Y016782D01*
X009090Y016877D01*
X009163Y016950D01*
X009258Y016990D01*
X009362Y016990D01*
X009457Y016950D01*
X009530Y016877D01*
X009570Y016782D01*
X009570Y016678D01*
X009530Y016583D01*
X009457Y016510D01*
X009410Y016490D01*
X009824Y016490D01*
X009876Y016437D01*
X009910Y016517D01*
X009932Y016540D01*
X009860Y016613D01*
X009820Y016708D01*
X009820Y016812D01*
X009860Y016907D01*
X009933Y016980D01*
X010028Y017020D01*
X010132Y017020D01*
X010227Y016980D01*
X010300Y016907D01*
X010340Y016812D01*
X010340Y016708D01*
X010300Y016613D01*
X010278Y016590D01*
X010350Y016517D01*
X010390Y016422D01*
X010390Y016318D01*
X010350Y016223D01*
X010277Y016150D01*
X010261Y016143D01*
X010320Y016084D01*
X010490Y015914D01*
X010490Y015544D01*
X010524Y015510D01*
X011694Y015510D01*
X011770Y015434D01*
X011770Y015434D01*
X012460Y014744D01*
X012460Y014254D01*
X012541Y014172D01*
X012510Y014248D01*
X012510Y014352D01*
X012550Y014447D01*
X012623Y014520D01*
X012718Y014560D01*
X012822Y014560D01*
X012917Y014520D01*
X012920Y014518D01*
X012920Y014602D01*
X012960Y014697D01*
X013033Y014770D01*
X013128Y014810D01*
X013232Y014810D01*
X013240Y014807D01*
X013240Y014862D01*
X013280Y014957D01*
X013353Y015030D01*
X013448Y015070D01*
X013453Y015070D01*
X012593Y015910D01*
X012073Y015910D01*
X012070Y015903D01*
X011997Y015830D01*
X011902Y015790D01*
X011798Y015790D01*
X011703Y015830D01*
X011630Y015903D01*
X011590Y015998D01*
X011590Y016102D01*
X011630Y016197D01*
X011662Y016230D01*
X011590Y016303D01*
X011550Y016398D01*
X011550Y016502D01*
X011590Y016597D01*
X011663Y016670D01*
X011758Y016710D01*
X011862Y016710D01*
X011957Y016670D01*
X012030Y016597D01*
X012070Y016502D01*
X012070Y016398D01*
X012030Y016303D01*
X011998Y016270D01*
X012070Y016197D01*
X012073Y016190D01*
X012649Y016190D01*
X012706Y016191D01*
X012707Y016190D01*
X012708Y016190D01*
X012748Y016150D01*
X014007Y014920D01*
X014007Y014920D01*
X014048Y014880D01*
X014089Y014840D01*
X014089Y014839D01*
X014090Y014839D01*
X014090Y014781D01*
X014091Y014724D01*
X014090Y014723D01*
X014093Y014076D01*
X014103Y014085D01*
X014120Y014093D01*
X014120Y014224D01*
X015360Y015464D01*
X015436Y015540D01*
X015841Y015540D01*
X016172Y015871D01*
X016165Y015888D01*
X016165Y015992D01*
X016205Y016087D01*
X016278Y016160D01*
X016373Y016200D01*
X016477Y016200D01*
X016572Y016160D01*
X016616Y016117D01*
X016650Y016197D01*
X016723Y016270D01*
X016810Y016306D01*
X014920Y018196D01*
X014920Y018702D01*
X014903Y018710D01*
X014830Y018783D01*
X014790Y018878D01*
X014790Y018982D01*
X014830Y019077D01*
X014903Y019150D01*
X014998Y019190D01*
X015102Y019190D01*
X015197Y019150D01*
X015270Y019077D01*
X015310Y018982D01*
X015310Y018878D01*
X015270Y018783D01*
X015197Y018710D01*
X015180Y018702D01*
X015180Y018304D01*
X017884Y015600D01*
X017960Y015524D01*
X017960Y015146D01*
X016790Y013976D01*
X016714Y013900D01*
X016644Y013900D01*
X016250Y013506D01*
X016250Y013456D01*
X016103Y013309D01*
X016110Y013292D01*
X016110Y013188D01*
X016070Y013093D01*
X015997Y013020D01*
X015902Y012980D01*
X015798Y012980D01*
X015703Y013020D01*
X015630Y013093D01*
X015590Y013188D01*
X015590Y013292D01*
X015630Y013387D01*
X015703Y013460D01*
X015798Y013500D01*
X015902Y013500D01*
X015919Y013493D01*
X015990Y013564D01*
X015990Y013614D01*
X016536Y014160D01*
X016606Y014160D01*
X017480Y015034D01*
X017393Y015070D01*
X017320Y015143D01*
X017317Y015150D01*
X015808Y015150D01*
X015840Y015117D01*
X015880Y015022D01*
X015880Y014918D01*
X015840Y014823D01*
X015767Y014750D01*
X015672Y014710D01*
X015568Y014710D01*
X015473Y014750D01*
X015400Y014823D01*
X015361Y014917D01*
X014780Y014336D01*
X014780Y014210D01*
X014794Y014210D01*
X014994Y014010D01*
X015070Y013934D01*
X015070Y012566D01*
X014903Y012399D01*
X014910Y012382D01*
X014910Y012278D01*
X014870Y012183D01*
X014828Y012140D01*
X014880Y012087D01*
X014920Y011992D01*
X014920Y011888D01*
X014880Y011793D01*
X014807Y011720D01*
X014712Y011680D01*
X014608Y011680D01*
X014513Y011720D01*
X014440Y011793D01*
X014400Y011888D01*
X014400Y011992D01*
X014440Y012087D01*
X014482Y012130D01*
X014445Y012167D01*
X014397Y012120D01*
X014302Y012080D01*
X014198Y012080D01*
X014103Y012120D01*
X014030Y012193D01*
X013990Y012288D01*
X013990Y012392D01*
X013993Y012399D01*
X013861Y012531D01*
X013820Y012571D01*
X013820Y012572D01*
X013820Y012572D01*
X013820Y012630D01*
X013819Y012901D01*
X013797Y012880D01*
X013702Y012840D01*
X013598Y012840D01*
X013503Y012880D01*
X013470Y012912D01*
X013470Y012264D01*
X013508Y012280D01*
X013612Y012280D01*
X013707Y012240D01*
X013780Y012167D01*
X013820Y012072D01*
X013820Y011968D01*
X013780Y011873D01*
X013728Y011820D01*
X013780Y011767D01*
X013820Y011672D01*
X013820Y011568D01*
X013780Y011473D01*
X013707Y011400D01*
X013612Y011360D01*
X013508Y011360D01*
X013413Y011400D01*
X013360Y011452D01*
X013307Y011400D01*
X013212Y011360D01*
X013108Y011360D01*
X013013Y011400D01*
X012965Y011447D01*
X012917Y011400D01*
X012863Y011377D01*
X012890Y011312D01*
X012890Y011208D01*
X012850Y011113D01*
X012793Y011055D01*
X012860Y010987D01*
X012900Y010892D01*
X012900Y010788D01*
X012860Y010693D01*
X012800Y010632D01*
X012845Y010587D01*
X012885Y010492D01*
X012885Y010388D01*
X012885Y010426D02*
X018770Y010426D01*
X018885Y010505D02*
X012880Y010505D01*
X012847Y010583D02*
X019930Y010583D01*
X019930Y010505D02*
X019215Y010505D01*
X019330Y010426D02*
X019930Y010426D01*
X019930Y010348D02*
X019397Y010348D01*
X019430Y010269D02*
X019930Y010269D01*
X019930Y010191D02*
X019450Y010191D01*
X019450Y010112D02*
X019930Y010112D01*
X019930Y010034D02*
X019439Y010034D01*
X019406Y009955D02*
X019930Y009955D01*
X019930Y009877D02*
X019352Y009877D01*
X019270Y009798D02*
X019930Y009798D01*
X019930Y009720D02*
X012080Y009720D01*
X012080Y009798D02*
X012530Y009798D01*
X012421Y009877D02*
X012080Y009877D01*
X012080Y009955D02*
X012379Y009955D01*
X012365Y010034D02*
X012080Y010034D01*
X012080Y010112D02*
X012373Y010112D01*
X012408Y010191D02*
X012080Y010191D01*
X012080Y010269D02*
X012428Y010269D01*
X012382Y010348D02*
X012036Y010348D01*
X012054Y010426D02*
X012365Y010426D01*
X012370Y010505D02*
X012114Y010505D01*
X012140Y010583D02*
X012403Y010583D01*
X012451Y010662D02*
X012140Y010662D01*
X012112Y010740D02*
X012400Y010740D01*
X012380Y010819D02*
X012049Y010819D01*
X012382Y010897D02*
X010125Y010897D01*
X010140Y010819D02*
X011316Y010819D01*
X011212Y010740D02*
X010132Y010740D01*
X010099Y010662D02*
X011172Y010662D01*
X011160Y010583D02*
X010011Y010583D01*
X009661Y010662D02*
X009632Y010662D01*
X009628Y010740D02*
X009554Y010740D01*
X009620Y010819D02*
X009475Y010819D01*
X009397Y010897D02*
X009635Y010897D01*
X009678Y010976D02*
X009318Y010976D01*
X009240Y011054D02*
X009790Y011054D01*
X009970Y011054D02*
X010758Y011054D01*
X010730Y011083D02*
X010803Y011010D01*
X010898Y010970D01*
X011002Y010970D01*
X011097Y011010D01*
X011170Y011083D01*
X011210Y011178D01*
X011210Y011282D01*
X011170Y011377D01*
X011097Y011450D01*
X011002Y011490D01*
X010898Y011490D01*
X010803Y011450D01*
X010730Y011377D01*
X010690Y011282D01*
X010690Y011178D01*
X010730Y011083D01*
X010709Y011133D02*
X009161Y011133D01*
X009083Y011211D02*
X010690Y011211D01*
X010693Y011290D02*
X009004Y011290D01*
X008926Y011368D02*
X010726Y011368D01*
X010799Y011447D02*
X008984Y011447D01*
X009026Y011525D02*
X012528Y011525D01*
X012510Y011604D02*
X009040Y011604D01*
X009032Y011682D02*
X012514Y011682D01*
X012547Y011761D02*
X008997Y011761D01*
X008906Y011839D02*
X012621Y011839D01*
X012640Y011918D02*
X007471Y011918D01*
X007500Y011996D02*
X011465Y011996D01*
X011433Y012010D02*
X011528Y011970D01*
X011632Y011970D01*
X011727Y012010D01*
X011800Y012083D01*
X011840Y012178D01*
X011840Y012282D01*
X011800Y012377D01*
X011727Y012450D01*
X011632Y012490D01*
X011528Y012490D01*
X011433Y012450D01*
X011360Y012377D01*
X011320Y012282D01*
X011320Y012178D01*
X011360Y012083D01*
X011433Y012010D01*
X011368Y012075D02*
X007500Y012075D01*
X007475Y012153D02*
X011330Y012153D01*
X011320Y012232D02*
X009550Y012232D01*
X009628Y012310D02*
X011332Y012310D01*
X011371Y012389D02*
X009707Y012389D01*
X009785Y012467D02*
X011473Y012467D01*
X011687Y012467D02*
X011960Y012467D01*
X011960Y012546D02*
X009864Y012546D01*
X009942Y012624D02*
X011960Y012624D01*
X011960Y012703D02*
X010021Y012703D01*
X010099Y012781D02*
X011960Y012781D01*
X011960Y012860D02*
X010178Y012860D01*
X010256Y012938D02*
X011960Y012938D01*
X011960Y013017D02*
X011784Y013017D01*
X011844Y013095D02*
X011960Y013095D01*
X011960Y013174D02*
X011870Y013174D01*
X011870Y013252D02*
X011960Y013252D01*
X011960Y013331D02*
X011841Y013331D01*
X011779Y013409D02*
X011960Y013409D01*
X011960Y013488D02*
X011429Y013488D01*
X011441Y013409D02*
X011377Y013409D01*
X011190Y013590D02*
X011160Y013560D01*
X010450Y013560D01*
X009460Y012570D01*
X007360Y012570D01*
X007133Y012703D02*
X006750Y012703D01*
X006750Y012781D02*
X007203Y012781D01*
X007101Y012624D02*
X006750Y012624D01*
X006750Y012860D02*
X009552Y012860D01*
X009630Y012938D02*
X006750Y012938D01*
X006790Y013017D02*
X009709Y013017D01*
X009787Y013095D02*
X007018Y013095D01*
X007131Y013174D02*
X009866Y013174D01*
X009944Y013252D02*
X007175Y013252D01*
X007190Y013331D02*
X010023Y013331D01*
X010101Y013409D02*
X007183Y013409D01*
X007150Y013488D02*
X010180Y013488D01*
X010258Y013566D02*
X009980Y013566D01*
X010058Y013645D02*
X010337Y013645D01*
X010215Y013802D02*
X011034Y013802D01*
X010964Y013723D02*
X010137Y013723D01*
X010294Y013880D02*
X011646Y013880D01*
X011568Y013959D02*
X010372Y013959D01*
X010451Y014037D02*
X011489Y014037D01*
X011346Y013802D02*
X011725Y013802D01*
X011803Y013723D02*
X011416Y013723D01*
X011376Y013095D02*
X010413Y013095D01*
X010335Y013017D02*
X011436Y013017D01*
X011789Y012389D02*
X012038Y012389D01*
X012116Y012310D02*
X011828Y012310D01*
X011840Y012232D02*
X012195Y012232D01*
X012273Y012153D02*
X011830Y012153D01*
X011792Y012075D02*
X012542Y012075D01*
X012620Y011996D02*
X011695Y011996D01*
X011101Y011447D02*
X012449Y011447D01*
X012393Y011368D02*
X011174Y011368D01*
X011207Y011290D02*
X012370Y011290D01*
X012370Y011211D02*
X011210Y011211D01*
X011191Y011133D02*
X012401Y011133D01*
X012468Y011054D02*
X011142Y011054D01*
X011015Y010976D02*
X012415Y010976D01*
X012794Y011054D02*
X018653Y011054D01*
X018650Y011060D02*
X018711Y010913D01*
X018823Y010801D01*
X018970Y010740D01*
X012880Y010740D01*
X012900Y010819D02*
X018806Y010819D01*
X018727Y010897D02*
X012898Y010897D01*
X012865Y010976D02*
X018685Y010976D01*
X018650Y011060D02*
X018650Y011220D01*
X018711Y011367D01*
X018823Y011479D01*
X018970Y011540D01*
X019130Y011540D01*
X019277Y011479D01*
X019389Y011367D01*
X019450Y011220D01*
X019450Y011060D01*
X019389Y010913D01*
X019277Y010801D01*
X019130Y010740D01*
X019930Y010740D01*
X019930Y010662D02*
X012829Y010662D01*
X012822Y010269D02*
X016822Y010269D01*
X016703Y010191D02*
X012842Y010191D01*
X012877Y010112D02*
X016657Y010112D01*
X016640Y010034D02*
X012885Y010034D01*
X012871Y009955D02*
X016645Y009955D01*
X016678Y009877D02*
X012829Y009877D01*
X012720Y009798D02*
X016756Y009798D01*
X017044Y009798D02*
X018830Y009798D01*
X018970Y010740D02*
X019130Y010740D01*
X019294Y010819D02*
X019930Y010819D01*
X019930Y010897D02*
X019373Y010897D01*
X019415Y010976D02*
X019930Y010976D01*
X019930Y011054D02*
X019447Y011054D01*
X019450Y011133D02*
X019930Y011133D01*
X019930Y011211D02*
X019450Y011211D01*
X019421Y011290D02*
X019930Y011290D01*
X019930Y011368D02*
X019388Y011368D01*
X019309Y011447D02*
X019930Y011447D01*
X019930Y011525D02*
X019166Y011525D01*
X019130Y011740D02*
X018970Y011740D01*
X018823Y011801D01*
X018711Y011913D01*
X018650Y012060D01*
X018650Y012220D01*
X018711Y012367D01*
X018823Y012479D01*
X018970Y012540D01*
X019130Y012540D01*
X019277Y012479D01*
X019389Y012367D01*
X019450Y012220D01*
X019450Y012060D01*
X019389Y011913D01*
X019277Y011801D01*
X019130Y011740D01*
X019179Y011761D02*
X019930Y011761D01*
X019930Y011839D02*
X019315Y011839D01*
X019391Y011918D02*
X019930Y011918D01*
X019930Y011996D02*
X019423Y011996D01*
X019450Y012075D02*
X019930Y012075D01*
X019930Y012153D02*
X019450Y012153D01*
X019445Y012232D02*
X019930Y012232D01*
X019930Y012310D02*
X019413Y012310D01*
X019367Y012389D02*
X019930Y012389D01*
X019930Y012467D02*
X019289Y012467D01*
X019130Y012740D02*
X018970Y012740D01*
X018823Y012801D01*
X018711Y012913D01*
X018650Y013060D01*
X018650Y013220D01*
X018711Y013367D01*
X018823Y013479D01*
X018970Y013540D01*
X019130Y013540D01*
X019277Y013479D01*
X019389Y013367D01*
X019450Y013220D01*
X019450Y013060D01*
X019389Y012913D01*
X019277Y012801D01*
X019130Y012740D01*
X019229Y012781D02*
X019930Y012781D01*
X019930Y012703D02*
X015070Y012703D01*
X015070Y012781D02*
X018871Y012781D01*
X018765Y012860D02*
X015070Y012860D01*
X015070Y012938D02*
X016659Y012938D01*
X016678Y012930D02*
X016782Y012930D01*
X016877Y012970D01*
X016950Y013043D01*
X016990Y013138D01*
X016990Y013242D01*
X016950Y013337D01*
X016877Y013410D01*
X016782Y013450D01*
X016678Y013450D01*
X016583Y013410D01*
X016510Y013337D01*
X016470Y013242D01*
X016470Y013138D01*
X016510Y013043D01*
X016583Y012970D01*
X016678Y012930D01*
X016801Y012938D02*
X018701Y012938D01*
X018668Y013017D02*
X016924Y013017D01*
X016972Y013095D02*
X018650Y013095D01*
X018650Y013174D02*
X016990Y013174D01*
X016986Y013252D02*
X018663Y013252D01*
X018696Y013331D02*
X016953Y013331D01*
X016879Y013409D02*
X018753Y013409D01*
X018844Y013488D02*
X016250Y013488D01*
X016203Y013409D02*
X016581Y013409D01*
X016507Y013331D02*
X016124Y013331D01*
X016110Y013252D02*
X016474Y013252D01*
X016470Y013174D02*
X016104Y013174D01*
X016071Y013095D02*
X016488Y013095D01*
X016536Y013017D02*
X015990Y013017D01*
X015710Y013017D02*
X015070Y013017D01*
X015070Y013095D02*
X015629Y013095D01*
X015596Y013174D02*
X015070Y013174D01*
X015070Y013252D02*
X015590Y013252D01*
X015606Y013331D02*
X015070Y013331D01*
X015070Y013409D02*
X015651Y013409D01*
X015768Y013488D02*
X015070Y013488D01*
X015070Y013566D02*
X015990Y013566D01*
X016021Y013645D02*
X015070Y013645D01*
X015070Y013723D02*
X016099Y013723D01*
X016178Y013802D02*
X015070Y013802D01*
X015070Y013880D02*
X016256Y013880D01*
X016335Y013959D02*
X015045Y013959D01*
X014967Y014037D02*
X016413Y014037D01*
X016492Y014116D02*
X014888Y014116D01*
X014810Y014194D02*
X016640Y014194D01*
X016719Y014273D02*
X014780Y014273D01*
X014795Y014351D02*
X016797Y014351D01*
X016876Y014430D02*
X014873Y014430D01*
X014952Y014508D02*
X016954Y014508D01*
X017033Y014587D02*
X015030Y014587D01*
X015109Y014665D02*
X017111Y014665D01*
X017190Y014744D02*
X015753Y014744D01*
X015840Y014822D02*
X017268Y014822D01*
X017347Y014901D02*
X015873Y014901D01*
X015880Y014979D02*
X017425Y014979D01*
X017422Y015058D02*
X015865Y015058D01*
X015822Y015136D02*
X017326Y015136D01*
X017636Y014822D02*
X018802Y014822D01*
X018823Y014801D02*
X018970Y014740D01*
X019130Y014740D01*
X019277Y014801D01*
X019389Y014913D01*
X019450Y015060D01*
X019450Y015220D01*
X019389Y015367D01*
X019277Y015479D01*
X019130Y015540D01*
X018970Y015540D01*
X018823Y015479D01*
X018711Y015367D01*
X018650Y015220D01*
X018650Y015060D01*
X018711Y014913D01*
X018823Y014801D01*
X018724Y014901D02*
X017714Y014901D01*
X017793Y014979D02*
X018684Y014979D01*
X018651Y015058D02*
X017871Y015058D01*
X017950Y015136D02*
X018650Y015136D01*
X018650Y015215D02*
X017960Y015215D01*
X017960Y015293D02*
X018680Y015293D01*
X018716Y015372D02*
X017960Y015372D01*
X017960Y015450D02*
X018794Y015450D01*
X018943Y015529D02*
X017955Y015529D01*
X017877Y015607D02*
X019930Y015607D01*
X019930Y015529D02*
X019157Y015529D01*
X019306Y015450D02*
X019930Y015450D01*
X019930Y015372D02*
X019384Y015372D01*
X019420Y015293D02*
X019930Y015293D01*
X019930Y015215D02*
X019450Y015215D01*
X019450Y015136D02*
X019930Y015136D01*
X019930Y015058D02*
X019449Y015058D01*
X019416Y014979D02*
X019930Y014979D01*
X019930Y014901D02*
X019376Y014901D01*
X019298Y014822D02*
X019930Y014822D01*
X019930Y014744D02*
X019138Y014744D01*
X018962Y014744D02*
X017557Y014744D01*
X017479Y014665D02*
X019930Y014665D01*
X019930Y014587D02*
X017400Y014587D01*
X017322Y014508D02*
X018893Y014508D01*
X018823Y014479D02*
X018970Y014540D01*
X019130Y014540D01*
X019277Y014479D01*
X019389Y014367D01*
X019450Y014220D01*
X019450Y014060D01*
X019389Y013913D01*
X019277Y013801D01*
X019130Y013740D01*
X018970Y013740D01*
X018823Y013801D01*
X018711Y013913D01*
X018650Y014060D01*
X018650Y014220D01*
X018711Y014367D01*
X018823Y014479D01*
X018774Y014430D02*
X017243Y014430D01*
X017165Y014351D02*
X018704Y014351D01*
X018672Y014273D02*
X017086Y014273D01*
X017008Y014194D02*
X018650Y014194D01*
X018650Y014116D02*
X016929Y014116D01*
X016851Y014037D02*
X018660Y014037D01*
X018692Y013959D02*
X016772Y013959D01*
X016624Y013880D02*
X018744Y013880D01*
X018823Y013802D02*
X016545Y013802D01*
X016467Y013723D02*
X019930Y013723D01*
X019930Y013645D02*
X016388Y013645D01*
X016310Y013566D02*
X019930Y013566D01*
X019930Y013488D02*
X019256Y013488D01*
X019347Y013409D02*
X019930Y013409D01*
X019930Y013331D02*
X019404Y013331D01*
X019437Y013252D02*
X019930Y013252D01*
X019930Y013174D02*
X019450Y013174D01*
X019450Y013095D02*
X019930Y013095D01*
X019930Y013017D02*
X019432Y013017D01*
X019399Y012938D02*
X019930Y012938D01*
X019930Y012860D02*
X019335Y012860D01*
X019930Y012624D02*
X015070Y012624D01*
X015049Y012546D02*
X017578Y012546D01*
X017586Y012553D02*
X017480Y012447D01*
X017423Y012309D01*
X017423Y012159D01*
X017480Y012020D01*
X017586Y011914D01*
X017725Y011857D01*
X017875Y011857D01*
X018014Y011914D01*
X018120Y012020D01*
X018177Y012159D01*
X018177Y012309D01*
X018120Y012447D01*
X018014Y012553D01*
X017875Y012611D01*
X017725Y012611D01*
X017586Y012553D01*
X017500Y012467D02*
X014971Y012467D01*
X014907Y012389D02*
X017456Y012389D01*
X017423Y012310D02*
X014910Y012310D01*
X014891Y012232D02*
X017423Y012232D01*
X017425Y012153D02*
X014841Y012153D01*
X014886Y012075D02*
X017103Y012075D01*
X017093Y012070D02*
X017020Y011997D01*
X016980Y011902D01*
X016980Y011798D01*
X017020Y011703D01*
X017093Y011630D01*
X017188Y011590D01*
X017292Y011590D01*
X017387Y011630D01*
X017460Y011703D01*
X017500Y011798D01*
X017500Y011902D01*
X017460Y011997D01*
X017387Y012070D01*
X017292Y012110D01*
X017188Y012110D01*
X017093Y012070D01*
X017019Y011996D02*
X014918Y011996D01*
X014920Y011918D02*
X016987Y011918D01*
X016980Y011839D02*
X014900Y011839D01*
X014848Y011761D02*
X016996Y011761D01*
X017040Y011682D02*
X014717Y011682D01*
X014603Y011682D02*
X013816Y011682D01*
X013820Y011604D02*
X017156Y011604D01*
X017324Y011604D02*
X017457Y011604D01*
X017480Y011660D02*
X017423Y011521D01*
X017423Y011371D01*
X017480Y011233D01*
X017586Y011127D01*
X017725Y011069D01*
X017875Y011069D01*
X018014Y011127D01*
X018120Y011233D01*
X018177Y011371D01*
X018177Y011521D01*
X018120Y011660D01*
X018014Y011766D01*
X017875Y011823D01*
X017725Y011823D01*
X017586Y011766D01*
X017480Y011660D01*
X017502Y011682D02*
X017440Y011682D01*
X017484Y011761D02*
X017581Y011761D01*
X017500Y011839D02*
X018785Y011839D01*
X018709Y011918D02*
X018017Y011918D01*
X018096Y011996D02*
X018677Y011996D01*
X018650Y012075D02*
X018142Y012075D01*
X018175Y012153D02*
X018650Y012153D01*
X018655Y012232D02*
X018177Y012232D01*
X018177Y012310D02*
X018687Y012310D01*
X018733Y012389D02*
X018144Y012389D01*
X018100Y012467D02*
X018811Y012467D01*
X018022Y012546D02*
X019930Y012546D01*
X019930Y011682D02*
X018098Y011682D01*
X018143Y011604D02*
X019930Y011604D01*
X018934Y011525D02*
X018176Y011525D01*
X018177Y011447D02*
X018791Y011447D01*
X018712Y011368D02*
X018176Y011368D01*
X018143Y011290D02*
X018679Y011290D01*
X018650Y011211D02*
X018098Y011211D01*
X018020Y011133D02*
X018650Y011133D01*
X018921Y011761D02*
X018019Y011761D01*
X017583Y011918D02*
X017493Y011918D01*
X017504Y011996D02*
X017461Y011996D01*
X017458Y012075D02*
X017377Y012075D01*
X017424Y011525D02*
X013802Y011525D01*
X013754Y011447D02*
X017423Y011447D01*
X017424Y011368D02*
X013631Y011368D01*
X013489Y011368D02*
X013231Y011368D01*
X013089Y011368D02*
X012867Y011368D01*
X012890Y011290D02*
X017457Y011290D01*
X017502Y011211D02*
X012890Y011211D01*
X012859Y011133D02*
X017580Y011133D01*
X019277Y013802D02*
X019930Y013802D01*
X019930Y013880D02*
X019356Y013880D01*
X019408Y013959D02*
X019930Y013959D01*
X019930Y014037D02*
X019440Y014037D01*
X019450Y014116D02*
X019930Y014116D01*
X019930Y014194D02*
X019450Y014194D01*
X019428Y014273D02*
X019930Y014273D01*
X019930Y014351D02*
X019396Y014351D01*
X019326Y014430D02*
X019930Y014430D01*
X019930Y014508D02*
X019207Y014508D01*
X019130Y015740D02*
X018970Y015740D01*
X018823Y015801D01*
X018711Y015913D01*
X018650Y016060D01*
X018650Y016220D01*
X018711Y016367D01*
X018823Y016479D01*
X018970Y016540D01*
X019130Y016540D01*
X019277Y016479D01*
X019389Y016367D01*
X019450Y016220D01*
X019450Y016060D01*
X019389Y015913D01*
X019277Y015801D01*
X019130Y015740D01*
X019188Y015764D02*
X019930Y015764D01*
X019930Y015686D02*
X017798Y015686D01*
X017720Y015764D02*
X018912Y015764D01*
X018782Y015843D02*
X017641Y015843D01*
X017563Y015921D02*
X018708Y015921D01*
X018675Y016000D02*
X017484Y016000D01*
X017406Y016078D02*
X018650Y016078D01*
X018650Y016157D02*
X017327Y016157D01*
X017249Y016235D02*
X018656Y016235D01*
X018689Y016314D02*
X017170Y016314D01*
X017092Y016392D02*
X018736Y016392D01*
X018815Y016471D02*
X017013Y016471D01*
X016935Y016549D02*
X019930Y016549D01*
X019930Y016471D02*
X019285Y016471D01*
X019364Y016392D02*
X019930Y016392D01*
X019930Y016314D02*
X019411Y016314D01*
X019444Y016235D02*
X019930Y016235D01*
X019930Y016157D02*
X019450Y016157D01*
X019450Y016078D02*
X019930Y016078D01*
X019930Y016000D02*
X019425Y016000D01*
X019392Y015921D02*
X019930Y015921D01*
X019930Y015843D02*
X019318Y015843D01*
X019130Y016740D02*
X018970Y016740D01*
X018823Y016801D01*
X018711Y016913D01*
X018650Y017060D01*
X018650Y017220D01*
X018711Y017367D01*
X018823Y017479D01*
X018970Y017540D01*
X019130Y017540D01*
X019277Y017479D01*
X019389Y017367D01*
X019450Y017220D01*
X019450Y017060D01*
X019389Y016913D01*
X019277Y016801D01*
X019130Y016740D01*
X019237Y016785D02*
X019930Y016785D01*
X019930Y016863D02*
X019339Y016863D01*
X019401Y016942D02*
X019930Y016942D01*
X019930Y017020D02*
X019433Y017020D01*
X019450Y017099D02*
X019930Y017099D01*
X019930Y017177D02*
X019450Y017177D01*
X019435Y017256D02*
X019930Y017256D01*
X019930Y017334D02*
X019403Y017334D01*
X019343Y017413D02*
X019930Y017413D01*
X019930Y017491D02*
X019248Y017491D01*
X019130Y017740D02*
X018970Y017740D01*
X018823Y017801D01*
X018711Y017913D01*
X018650Y018060D01*
X018650Y018220D01*
X018711Y018367D01*
X018823Y018479D01*
X018970Y018540D01*
X019130Y018540D01*
X019277Y018479D01*
X019389Y018367D01*
X019450Y018220D01*
X019450Y018060D01*
X019389Y017913D01*
X019277Y017801D01*
X019130Y017740D01*
X019281Y017805D02*
X019930Y017805D01*
X019930Y017727D02*
X015757Y017727D01*
X015679Y017805D02*
X018819Y017805D01*
X018741Y017884D02*
X015600Y017884D01*
X015522Y017962D02*
X018691Y017962D01*
X018658Y018041D02*
X015443Y018041D01*
X015365Y018119D02*
X018650Y018119D01*
X018650Y018198D02*
X015286Y018198D01*
X015208Y018276D02*
X018673Y018276D01*
X018706Y018355D02*
X015180Y018355D01*
X015180Y018433D02*
X018777Y018433D01*
X018902Y018512D02*
X015180Y018512D01*
X015180Y018590D02*
X019930Y018590D01*
X019930Y018512D02*
X019198Y018512D01*
X019323Y018433D02*
X019930Y018433D01*
X019930Y018355D02*
X019394Y018355D01*
X019427Y018276D02*
X019930Y018276D01*
X019930Y018198D02*
X019450Y018198D01*
X019450Y018119D02*
X019930Y018119D01*
X019930Y018041D02*
X019442Y018041D01*
X019409Y017962D02*
X019930Y017962D01*
X019930Y017884D02*
X019359Y017884D01*
X019930Y017648D02*
X015836Y017648D01*
X015914Y017570D02*
X019930Y017570D01*
X019930Y016706D02*
X016778Y016706D01*
X016856Y016628D02*
X019930Y016628D01*
X018863Y016785D02*
X016699Y016785D01*
X016621Y016863D02*
X018761Y016863D01*
X018699Y016942D02*
X016542Y016942D01*
X016464Y017020D02*
X018667Y017020D01*
X018650Y017099D02*
X016385Y017099D01*
X016307Y017177D02*
X018650Y017177D01*
X018665Y017256D02*
X016228Y017256D01*
X016150Y017334D02*
X018697Y017334D01*
X018757Y017413D02*
X016071Y017413D01*
X015993Y017491D02*
X018852Y017491D01*
X018970Y018740D02*
X018823Y018801D01*
X018711Y018913D01*
X018650Y019060D01*
X018650Y019220D01*
X018711Y019367D01*
X018823Y019479D01*
X018970Y019540D01*
X019130Y019540D01*
X019277Y019479D01*
X019389Y019367D01*
X019450Y019220D01*
X019450Y019060D01*
X019389Y018913D01*
X019277Y018801D01*
X019130Y018740D01*
X018970Y018740D01*
X018953Y018747D02*
X015235Y018747D01*
X015288Y018826D02*
X018799Y018826D01*
X018720Y018904D02*
X015310Y018904D01*
X015310Y018983D02*
X018682Y018983D01*
X018650Y019061D02*
X015277Y019061D01*
X015208Y019140D02*
X018650Y019140D01*
X018650Y019218D02*
X017139Y019218D01*
X017167Y019230D02*
X017240Y019303D01*
X017280Y019398D01*
X017280Y019502D01*
X017240Y019597D01*
X017167Y019670D01*
X017072Y019710D01*
X016968Y019710D01*
X016873Y019670D01*
X016800Y019597D01*
X016760Y019502D01*
X016760Y019398D01*
X016800Y019303D01*
X016873Y019230D01*
X016968Y019190D01*
X017072Y019190D01*
X017167Y019230D01*
X017234Y019297D02*
X018682Y019297D01*
X018719Y019375D02*
X017270Y019375D01*
X017280Y019454D02*
X018798Y019454D01*
X018951Y019532D02*
X017511Y019532D01*
X017482Y019520D02*
X017577Y019560D01*
X017650Y019633D01*
X017690Y019728D01*
X017690Y019832D01*
X017650Y019927D01*
X017577Y020000D01*
X017482Y020040D01*
X017378Y020040D01*
X017283Y020000D01*
X017210Y019927D01*
X017170Y019832D01*
X017170Y019728D01*
X017210Y019633D01*
X017283Y019560D01*
X017378Y019520D01*
X017482Y019520D01*
X017349Y019532D02*
X017267Y019532D01*
X017232Y019611D02*
X017227Y019611D01*
X017186Y019689D02*
X017122Y019689D01*
X017170Y019768D02*
X012810Y019768D01*
X012770Y019673D01*
X012697Y019600D01*
X012602Y019560D01*
X012498Y019560D01*
X012403Y019600D01*
X012330Y019673D01*
X012290Y019768D01*
X012290Y019872D01*
X012330Y019967D01*
X012403Y020040D01*
X012498Y020080D01*
X012602Y020080D01*
X012697Y020040D01*
X012770Y019967D01*
X012810Y019872D01*
X012810Y019768D01*
X012810Y019846D02*
X017176Y019846D01*
X017208Y019925D02*
X012788Y019925D01*
X012735Y020003D02*
X012999Y020003D01*
X013003Y020000D02*
X013098Y019960D01*
X013202Y019960D01*
X013297Y020000D01*
X013370Y020073D01*
X013410Y020168D01*
X013410Y020272D01*
X013370Y020367D01*
X013297Y020440D01*
X013202Y020480D01*
X013126Y020480D01*
X013197Y020510D01*
X013270Y020583D01*
X013310Y020678D01*
X013310Y020782D01*
X013270Y020877D01*
X013197Y020950D01*
X013102Y020990D01*
X012998Y020990D01*
X012903Y020950D01*
X012830Y020877D01*
X012790Y020782D01*
X012790Y020678D01*
X012830Y020583D01*
X012903Y020510D01*
X012998Y020470D01*
X013074Y020470D01*
X013003Y020440D01*
X012930Y020367D01*
X012890Y020272D01*
X012890Y020168D01*
X012930Y020073D01*
X013003Y020000D01*
X012926Y020082D02*
X009630Y020082D01*
X009630Y020048D02*
X009590Y019953D01*
X009517Y019880D01*
X009422Y019840D01*
X009318Y019840D01*
X009223Y019880D01*
X009150Y019953D01*
X009110Y020048D01*
X009110Y020152D01*
X009150Y020247D01*
X009223Y020320D01*
X009318Y020360D01*
X009422Y020360D01*
X009517Y020320D01*
X009590Y020247D01*
X009630Y020152D01*
X009630Y020048D01*
X009611Y020003D02*
X012365Y020003D01*
X012312Y019925D02*
X009562Y019925D01*
X009436Y019846D02*
X012290Y019846D01*
X012290Y019768D02*
X004660Y019768D01*
X004660Y019772D02*
X004620Y019867D01*
X004547Y019940D01*
X004452Y019980D01*
X004348Y019980D01*
X004253Y019940D01*
X004180Y019867D01*
X004140Y019772D01*
X004140Y019668D01*
X004180Y019573D01*
X004253Y019500D01*
X004348Y019460D01*
X004452Y019460D01*
X004547Y019500D01*
X004620Y019573D01*
X004660Y019668D01*
X004660Y019772D01*
X004629Y019846D02*
X009304Y019846D01*
X009178Y019925D02*
X004563Y019925D01*
X004660Y019689D02*
X008414Y019689D01*
X008393Y019680D02*
X008320Y019607D01*
X008280Y019512D01*
X008280Y019408D01*
X008320Y019313D01*
X008393Y019240D01*
X008488Y019200D01*
X008592Y019200D01*
X008687Y019240D01*
X008760Y019313D01*
X008800Y019408D01*
X008800Y019512D01*
X008760Y019607D01*
X008687Y019680D01*
X008592Y019720D01*
X008488Y019720D01*
X008393Y019680D01*
X008323Y019611D02*
X006397Y019611D01*
X006372Y019635D02*
X006277Y019675D01*
X006173Y019675D01*
X006078Y019635D01*
X006005Y019562D01*
X005965Y019467D01*
X005965Y019363D01*
X006005Y019268D01*
X006078Y019195D01*
X006173Y019155D01*
X006277Y019155D01*
X006372Y019195D01*
X006445Y019268D01*
X006485Y019363D01*
X006485Y019467D01*
X006445Y019562D01*
X006372Y019635D01*
X006458Y019532D02*
X008288Y019532D01*
X008280Y019454D02*
X006485Y019454D01*
X006485Y019375D02*
X008294Y019375D01*
X008336Y019297D02*
X006457Y019297D01*
X006396Y019218D02*
X008445Y019218D01*
X008635Y019218D02*
X013122Y019218D01*
X013130Y019237D02*
X013090Y019142D01*
X013090Y019038D01*
X013130Y018943D01*
X013202Y018870D01*
X013130Y018797D01*
X013090Y018702D01*
X013090Y018598D01*
X013122Y018520D01*
X012658Y018520D01*
X012407Y018771D01*
X012410Y018778D01*
X012410Y018882D01*
X012370Y018977D01*
X012297Y019050D01*
X012202Y019090D01*
X012098Y019090D01*
X012003Y019050D01*
X011930Y018977D01*
X011890Y018882D01*
X011890Y018778D01*
X011930Y018683D01*
X012003Y018610D01*
X012098Y018570D01*
X012202Y018570D01*
X012209Y018573D01*
X012542Y018240D01*
X013638Y018240D01*
X013720Y018322D01*
X013948Y018550D01*
X014298Y018550D01*
X014380Y018632D01*
X014434Y018686D01*
X014448Y018680D01*
X014552Y018680D01*
X014647Y018720D01*
X014720Y018793D01*
X014760Y018888D01*
X014760Y018992D01*
X014720Y019087D01*
X014647Y019160D01*
X014556Y019198D01*
X014600Y019243D01*
X014640Y019338D01*
X014640Y019442D01*
X014600Y019537D01*
X014527Y019610D01*
X014432Y019650D01*
X014328Y019650D01*
X014233Y019610D01*
X014160Y019537D01*
X014120Y019442D01*
X014120Y019338D01*
X014155Y019255D01*
X014142Y019260D01*
X014038Y019260D01*
X014019Y019252D01*
X014030Y019278D01*
X014030Y019382D01*
X013990Y019477D01*
X013917Y019550D01*
X013822Y019590D01*
X013718Y019590D01*
X013623Y019550D01*
X013550Y019477D01*
X013510Y019382D01*
X013510Y019298D01*
X013497Y019310D01*
X013402Y019350D01*
X013298Y019350D01*
X013203Y019310D01*
X013130Y019237D01*
X013189Y019297D02*
X008744Y019297D01*
X008786Y019375D02*
X013510Y019375D01*
X013540Y019454D02*
X008800Y019454D01*
X008792Y019532D02*
X013604Y019532D01*
X013936Y019532D02*
X014157Y019532D01*
X014125Y019454D02*
X014000Y019454D01*
X014030Y019375D02*
X014120Y019375D01*
X014137Y019297D02*
X014030Y019297D01*
X014233Y019611D02*
X012708Y019611D01*
X012777Y019689D02*
X016918Y019689D01*
X016813Y019611D02*
X014527Y019611D01*
X014603Y019532D02*
X016773Y019532D01*
X016760Y019454D02*
X014635Y019454D01*
X014640Y019375D02*
X016770Y019375D01*
X016806Y019297D02*
X014623Y019297D01*
X014576Y019218D02*
X016901Y019218D01*
X017628Y019611D02*
X019930Y019611D01*
X019930Y019689D02*
X017674Y019689D01*
X017690Y019768D02*
X019930Y019768D01*
X019930Y019846D02*
X017684Y019846D01*
X017652Y019925D02*
X018183Y019925D01*
X018018Y019993D02*
X018363Y019850D01*
X018737Y019850D01*
X019082Y019993D01*
X019347Y020258D01*
X019490Y020603D01*
X019490Y020977D01*
X019347Y021322D01*
X019082Y021587D01*
X018737Y021730D01*
X018363Y021730D01*
X018018Y021587D01*
X017753Y021322D01*
X017610Y020977D01*
X017610Y020603D01*
X017753Y020258D01*
X018018Y019993D01*
X018008Y020003D02*
X017571Y020003D01*
X017772Y020239D02*
X017256Y020239D01*
X017260Y020243D02*
X017300Y020338D01*
X017300Y020442D01*
X017260Y020537D01*
X017187Y020610D01*
X017092Y020650D01*
X016988Y020650D01*
X016893Y020610D01*
X016820Y020537D01*
X016780Y020442D01*
X016780Y020338D01*
X016820Y020243D01*
X016893Y020170D01*
X016988Y020130D01*
X017092Y020130D01*
X017187Y020170D01*
X017260Y020243D01*
X017291Y020317D02*
X017728Y020317D01*
X017696Y020396D02*
X017300Y020396D01*
X017287Y020474D02*
X017663Y020474D01*
X017631Y020553D02*
X017245Y020553D01*
X017137Y020631D02*
X017610Y020631D01*
X017610Y020710D02*
X014649Y020710D01*
X014602Y020690D02*
X014697Y020730D01*
X014770Y020803D01*
X014810Y020898D01*
X014810Y021002D01*
X014770Y021097D01*
X014697Y021170D01*
X014602Y021210D01*
X014498Y021210D01*
X014403Y021170D01*
X014330Y021097D01*
X014290Y021002D01*
X014290Y020920D01*
X014270Y020967D01*
X014197Y021040D01*
X014102Y021080D01*
X013998Y021080D01*
X013903Y021040D01*
X013830Y020967D01*
X013790Y020872D01*
X013790Y020768D01*
X013830Y020673D01*
X013903Y020600D01*
X013998Y020560D01*
X014102Y020560D01*
X014197Y020600D01*
X014270Y020673D01*
X014310Y020768D01*
X014310Y020850D01*
X014330Y020803D01*
X014403Y020730D01*
X014498Y020690D01*
X014602Y020690D01*
X014451Y020710D02*
X014286Y020710D01*
X014310Y020788D02*
X014344Y020788D01*
X014290Y020945D02*
X014280Y020945D01*
X014299Y021024D02*
X014214Y021024D01*
X014334Y021102D02*
X002938Y021102D01*
X002906Y021181D02*
X010219Y021181D01*
X010173Y021200D02*
X010268Y021160D01*
X010372Y021160D01*
X010467Y021200D01*
X010540Y021273D01*
X010580Y021368D01*
X010580Y021472D01*
X010540Y021567D01*
X010467Y021640D01*
X010372Y021680D01*
X010268Y021680D01*
X010173Y021640D01*
X010100Y021567D01*
X010060Y021472D01*
X010060Y021368D01*
X010100Y021273D01*
X010173Y021200D01*
X010113Y021259D02*
X002873Y021259D01*
X002847Y021322D02*
X002582Y021587D01*
X002237Y021730D01*
X001863Y021730D01*
X001518Y021587D01*
X001253Y021322D01*
X001110Y020977D01*
X001110Y020603D01*
X001253Y020258D01*
X001518Y019993D01*
X001863Y019850D01*
X002237Y019850D01*
X002582Y019993D01*
X002847Y020258D01*
X002990Y020603D01*
X002990Y020977D01*
X002847Y021322D01*
X002832Y021338D02*
X010073Y021338D01*
X010060Y021416D02*
X002753Y021416D01*
X002675Y021495D02*
X010069Y021495D01*
X010105Y021573D02*
X002596Y021573D01*
X002426Y021652D02*
X010200Y021652D01*
X010440Y021652D02*
X018174Y021652D01*
X018004Y021573D02*
X017505Y021573D01*
X017540Y021537D02*
X017467Y021610D01*
X017372Y021650D01*
X017268Y021650D01*
X017173Y021610D01*
X017100Y021537D01*
X017060Y021442D01*
X017060Y021338D01*
X017100Y021243D01*
X017173Y021170D01*
X017268Y021130D01*
X017372Y021130D01*
X017467Y021170D01*
X017540Y021243D01*
X017580Y021338D01*
X017580Y021442D01*
X017540Y021537D01*
X017558Y021495D02*
X017925Y021495D01*
X017847Y021416D02*
X017580Y021416D01*
X017580Y021338D02*
X017768Y021338D01*
X017727Y021259D02*
X017547Y021259D01*
X017478Y021181D02*
X017694Y021181D01*
X017662Y021102D02*
X015777Y021102D01*
X015770Y021117D02*
X015698Y021190D01*
X015750Y021243D01*
X015790Y021338D01*
X015790Y021442D01*
X015750Y021537D01*
X015677Y021610D01*
X015582Y021650D01*
X015478Y021650D01*
X015383Y021610D01*
X015310Y021537D01*
X015270Y021442D01*
X015270Y021338D01*
X015310Y021243D01*
X015382Y021170D01*
X015330Y021117D01*
X015290Y021022D01*
X015290Y020918D01*
X015330Y020823D01*
X015403Y020750D01*
X015498Y020710D01*
X015602Y020710D01*
X015697Y020750D01*
X015770Y020823D01*
X015810Y020918D01*
X015810Y021022D01*
X015770Y021117D01*
X015707Y021181D02*
X017162Y021181D01*
X017093Y021259D02*
X015757Y021259D01*
X015790Y021338D02*
X017060Y021338D01*
X017060Y021416D02*
X015790Y021416D01*
X015768Y021495D02*
X017082Y021495D01*
X017135Y021573D02*
X015715Y021573D01*
X015345Y021573D02*
X010535Y021573D01*
X010571Y021495D02*
X015292Y021495D01*
X015270Y021416D02*
X010580Y021416D01*
X010567Y021338D02*
X015270Y021338D01*
X015303Y021259D02*
X010527Y021259D01*
X010421Y021181D02*
X014427Y021181D01*
X014673Y021181D02*
X015372Y021181D01*
X015323Y021102D02*
X014766Y021102D01*
X014801Y021024D02*
X015291Y021024D01*
X015290Y020945D02*
X014810Y020945D01*
X014797Y020867D02*
X015311Y020867D01*
X015364Y020788D02*
X014756Y020788D01*
X014229Y020631D02*
X016943Y020631D01*
X016835Y020553D02*
X013240Y020553D01*
X013216Y020474D02*
X016793Y020474D01*
X016780Y020396D02*
X013342Y020396D01*
X013391Y020317D02*
X016789Y020317D01*
X016824Y020239D02*
X013410Y020239D01*
X013407Y020160D02*
X016916Y020160D01*
X017164Y020160D02*
X017851Y020160D01*
X017929Y020082D02*
X013374Y020082D01*
X013301Y020003D02*
X017289Y020003D01*
X017610Y020788D02*
X015736Y020788D01*
X015789Y020867D02*
X017610Y020867D01*
X017610Y020945D02*
X015810Y020945D01*
X015809Y021024D02*
X017629Y021024D01*
X018926Y021652D02*
X019930Y021652D01*
X019930Y021730D02*
X000840Y021730D01*
X000840Y021652D02*
X001674Y021652D01*
X001504Y021573D02*
X000840Y021573D01*
X000840Y021495D02*
X001425Y021495D01*
X001347Y021416D02*
X000840Y021416D01*
X000840Y021338D02*
X001268Y021338D01*
X001227Y021259D02*
X000840Y021259D01*
X000840Y021181D02*
X001194Y021181D01*
X001162Y021102D02*
X000840Y021102D01*
X000840Y021024D02*
X001129Y021024D01*
X001110Y020945D02*
X000840Y020945D01*
X000840Y020867D02*
X001110Y020867D01*
X001110Y020788D02*
X000840Y020788D01*
X000840Y020710D02*
X001110Y020710D01*
X001110Y020631D02*
X000840Y020631D01*
X000840Y020553D02*
X001131Y020553D01*
X001163Y020474D02*
X000840Y020474D01*
X000840Y020396D02*
X001196Y020396D01*
X001228Y020317D02*
X000840Y020317D01*
X000840Y020239D02*
X001272Y020239D01*
X001351Y020160D02*
X000840Y020160D01*
X000840Y020082D02*
X001429Y020082D01*
X001508Y020003D02*
X000840Y020003D01*
X000840Y019925D02*
X001683Y019925D01*
X001630Y019540D02*
X001470Y019540D01*
X001323Y019479D01*
X001211Y019367D01*
X001150Y019220D01*
X001150Y019060D01*
X001211Y018913D01*
X001323Y018801D01*
X001470Y018740D01*
X001630Y018740D01*
X001777Y018801D01*
X001889Y018913D01*
X001950Y019060D01*
X001950Y019220D01*
X001889Y019367D01*
X001777Y019479D01*
X001630Y019540D01*
X001649Y019532D02*
X004220Y019532D01*
X004164Y019611D02*
X000840Y019611D01*
X000840Y019689D02*
X004140Y019689D01*
X004140Y019768D02*
X000840Y019768D01*
X000840Y019846D02*
X004171Y019846D01*
X004237Y019925D02*
X002417Y019925D01*
X002592Y020003D02*
X009129Y020003D01*
X009110Y020082D02*
X002671Y020082D01*
X002749Y020160D02*
X003964Y020160D01*
X003988Y020150D02*
X004092Y020150D01*
X004187Y020190D01*
X004260Y020263D01*
X004300Y020358D01*
X004300Y020462D01*
X004260Y020557D01*
X004187Y020630D01*
X004092Y020670D01*
X003988Y020670D01*
X003893Y020630D01*
X003820Y020557D01*
X003780Y020462D01*
X003780Y020358D01*
X003820Y020263D01*
X003893Y020190D01*
X003988Y020150D01*
X004116Y020160D02*
X009113Y020160D01*
X009146Y020239D02*
X004236Y020239D01*
X004283Y020317D02*
X009219Y020317D01*
X009521Y020317D02*
X012909Y020317D01*
X012890Y020239D02*
X009594Y020239D01*
X009627Y020160D02*
X012893Y020160D01*
X012958Y020396D02*
X004300Y020396D01*
X004295Y020474D02*
X012988Y020474D01*
X012860Y020553D02*
X004262Y020553D01*
X004186Y020631D02*
X010141Y020631D01*
X010153Y020620D02*
X010080Y020693D01*
X010040Y020788D01*
X002990Y020788D01*
X002990Y020710D02*
X010073Y020710D01*
X010040Y020788D02*
X010040Y020892D01*
X010080Y020987D01*
X010153Y021060D01*
X010248Y021100D01*
X010352Y021100D01*
X010447Y021060D01*
X010520Y020987D01*
X010560Y020892D01*
X010560Y020788D01*
X012793Y020788D01*
X012790Y020710D02*
X010527Y020710D01*
X010520Y020693D02*
X010560Y020788D01*
X010560Y020867D02*
X012825Y020867D01*
X012897Y020945D02*
X010538Y020945D01*
X010484Y021024D02*
X013886Y021024D01*
X013820Y020945D02*
X013203Y020945D01*
X013275Y020867D02*
X013790Y020867D01*
X013790Y020788D02*
X013307Y020788D01*
X013310Y020710D02*
X013814Y020710D01*
X013871Y020631D02*
X013290Y020631D01*
X012810Y020631D02*
X010459Y020631D01*
X010447Y020620D02*
X010520Y020693D01*
X010447Y020620D02*
X010352Y020580D01*
X010248Y020580D01*
X010153Y020620D01*
X010040Y020867D02*
X002990Y020867D01*
X002990Y020945D02*
X010062Y020945D01*
X010116Y021024D02*
X002971Y021024D01*
X002990Y020631D02*
X003894Y020631D01*
X003818Y020553D02*
X002969Y020553D01*
X002937Y020474D02*
X003785Y020474D01*
X003780Y020396D02*
X002904Y020396D01*
X002872Y020317D02*
X003797Y020317D01*
X003844Y020239D02*
X002828Y020239D01*
X001881Y019375D02*
X005965Y019375D01*
X005965Y019454D02*
X001802Y019454D01*
X001918Y019297D02*
X005364Y019297D01*
X005330Y019262D02*
X005290Y019167D01*
X005290Y019063D01*
X005330Y018968D01*
X005403Y018895D01*
X005498Y018855D01*
X005602Y018855D01*
X005697Y018895D01*
X005770Y018968D01*
X005810Y019063D01*
X005810Y019167D01*
X005770Y019262D01*
X005697Y019335D01*
X005602Y019375D01*
X005498Y019375D01*
X005403Y019335D01*
X005330Y019262D01*
X005311Y019218D02*
X001950Y019218D01*
X001950Y019140D02*
X005290Y019140D01*
X005291Y019061D02*
X001950Y019061D01*
X001918Y018983D02*
X005323Y018983D01*
X005393Y018904D02*
X001880Y018904D01*
X001801Y018826D02*
X011890Y018826D01*
X011899Y018904D02*
X005707Y018904D01*
X005777Y018983D02*
X011935Y018983D01*
X012028Y019061D02*
X005809Y019061D01*
X005810Y019140D02*
X013090Y019140D01*
X013090Y019061D02*
X012272Y019061D01*
X012365Y018983D02*
X013113Y018983D01*
X013168Y018904D02*
X012401Y018904D01*
X012410Y018826D02*
X013158Y018826D01*
X013109Y018747D02*
X012431Y018747D01*
X012509Y018669D02*
X013090Y018669D01*
X013093Y018590D02*
X012588Y018590D01*
X012600Y018380D02*
X012150Y018830D01*
X012050Y018590D02*
X008773Y018590D01*
X008770Y018597D02*
X008697Y018670D01*
X008602Y018710D01*
X008498Y018710D01*
X008403Y018670D01*
X008330Y018597D01*
X008322Y018580D01*
X005342Y018580D01*
X005260Y018498D01*
X005249Y018487D01*
X005242Y018490D01*
X005138Y018490D01*
X005043Y018450D01*
X004970Y018377D01*
X004930Y018282D01*
X004930Y018178D01*
X004970Y018083D01*
X005043Y018010D01*
X005138Y017970D01*
X005242Y017970D01*
X005337Y018010D01*
X005410Y018083D01*
X005450Y018178D01*
X005450Y018282D01*
X005447Y018289D01*
X005458Y018300D01*
X008332Y018300D01*
X008403Y018230D01*
X008498Y018190D01*
X008602Y018190D01*
X008697Y018230D01*
X008770Y018303D01*
X008810Y018398D01*
X008810Y018502D01*
X008770Y018597D01*
X008806Y018512D02*
X012270Y018512D01*
X012349Y018433D02*
X008810Y018433D01*
X008792Y018355D02*
X011147Y018355D01*
X011113Y018340D02*
X011208Y018380D01*
X011312Y018380D01*
X011407Y018340D01*
X011480Y018267D01*
X011520Y018172D01*
X011520Y018068D01*
X011480Y017973D01*
X011407Y017900D01*
X011312Y017860D01*
X011208Y017860D01*
X011113Y017900D01*
X011040Y017973D01*
X011000Y018068D01*
X011000Y018172D01*
X011040Y018267D01*
X011113Y018340D01*
X011048Y018276D02*
X008744Y018276D01*
X008620Y018198D02*
X011011Y018198D01*
X011000Y018119D02*
X007652Y018119D01*
X007640Y018147D02*
X007680Y018052D01*
X007680Y017948D01*
X007640Y017853D01*
X007567Y017780D01*
X007472Y017740D01*
X007368Y017740D01*
X007273Y017780D01*
X007200Y017853D01*
X007160Y017948D01*
X007160Y018052D01*
X007200Y018147D01*
X007273Y018220D01*
X007368Y018260D01*
X007472Y018260D01*
X007567Y018220D01*
X007640Y018147D01*
X007590Y018198D02*
X008480Y018198D01*
X008356Y018276D02*
X005450Y018276D01*
X005450Y018198D02*
X006065Y018198D01*
X006012Y018119D02*
X005425Y018119D01*
X005368Y018041D02*
X005990Y018041D01*
X005991Y017962D02*
X001909Y017962D01*
X001889Y017913D02*
X001950Y018060D01*
X001950Y018220D01*
X001889Y018367D01*
X001777Y018479D01*
X001630Y018540D01*
X001470Y018540D01*
X001323Y018479D01*
X001211Y018367D01*
X001150Y018220D01*
X001150Y018060D01*
X001211Y017913D01*
X001323Y017801D01*
X001470Y017740D01*
X001630Y017740D01*
X001777Y017801D01*
X001889Y017913D01*
X001859Y017884D02*
X006023Y017884D01*
X006072Y017805D02*
X001781Y017805D01*
X001942Y018041D02*
X005012Y018041D01*
X004955Y018119D02*
X001950Y018119D01*
X001950Y018198D02*
X003710Y018198D01*
X003728Y018190D02*
X003832Y018190D01*
X003927Y018230D01*
X004000Y018303D01*
X004040Y018398D01*
X004040Y018502D01*
X004000Y018597D01*
X003927Y018670D01*
X003832Y018710D01*
X003728Y018710D01*
X003633Y018670D01*
X003560Y018597D01*
X003520Y018502D01*
X003520Y018398D01*
X003560Y018303D01*
X003633Y018230D01*
X003728Y018190D01*
X003850Y018198D02*
X004930Y018198D01*
X004930Y018276D02*
X003974Y018276D01*
X004022Y018355D02*
X004960Y018355D01*
X005025Y018433D02*
X004040Y018433D01*
X004036Y018512D02*
X005274Y018512D01*
X005400Y018440D02*
X005190Y018230D01*
X005400Y018440D02*
X006100Y018440D01*
X008540Y018440D01*
X008550Y018450D01*
X008327Y018590D02*
X004003Y018590D01*
X003929Y018669D02*
X008401Y018669D01*
X008699Y018669D02*
X011944Y018669D01*
X011903Y018747D02*
X001647Y018747D01*
X001453Y018747D02*
X000840Y018747D01*
X000840Y018669D02*
X003631Y018669D01*
X003557Y018590D02*
X000840Y018590D01*
X000840Y018512D02*
X001402Y018512D01*
X001277Y018433D02*
X000840Y018433D01*
X000840Y018355D02*
X001206Y018355D01*
X001173Y018276D02*
X000840Y018276D01*
X000840Y018198D02*
X001150Y018198D01*
X001150Y018119D02*
X000840Y018119D01*
X000840Y018041D02*
X001158Y018041D01*
X001191Y017962D02*
X000840Y017962D01*
X000840Y017884D02*
X001241Y017884D01*
X001319Y017805D02*
X000840Y017805D01*
X000840Y017727D02*
X006015Y017727D01*
X005990Y017648D02*
X000840Y017648D01*
X000840Y017570D02*
X005990Y017570D01*
X006020Y017491D02*
X001748Y017491D01*
X001777Y017479D02*
X001630Y017540D01*
X001470Y017540D01*
X001323Y017479D01*
X001211Y017367D01*
X001150Y017220D01*
X001150Y017060D01*
X001211Y016913D01*
X001323Y016801D01*
X001470Y016740D01*
X001630Y016740D01*
X001777Y016801D01*
X001889Y016913D01*
X001950Y017060D01*
X001950Y017220D01*
X001889Y017367D01*
X001777Y017479D01*
X001843Y017413D02*
X006080Y017413D01*
X006018Y017334D02*
X001903Y017334D01*
X001935Y017256D02*
X005990Y017256D01*
X005990Y017177D02*
X001950Y017177D01*
X001950Y017099D02*
X006017Y017099D01*
X006077Y017020D02*
X001933Y017020D01*
X001901Y016942D02*
X006021Y016942D01*
X005990Y016863D02*
X001839Y016863D01*
X001737Y016785D02*
X005990Y016785D01*
X006014Y016706D02*
X000840Y016706D01*
X000840Y016628D02*
X006070Y016628D01*
X006430Y016628D02*
X007189Y016628D01*
X007267Y016549D02*
X000840Y016549D01*
X000840Y016471D02*
X001315Y016471D01*
X001323Y016479D02*
X001211Y016367D01*
X001150Y016220D01*
X001150Y016060D01*
X001211Y015913D01*
X001323Y015801D01*
X001470Y015740D01*
X001630Y015740D01*
X001777Y015801D01*
X001889Y015913D01*
X001950Y016060D01*
X001950Y016220D01*
X001889Y016367D01*
X001777Y016479D01*
X001630Y016540D01*
X001470Y016540D01*
X001323Y016479D01*
X001236Y016392D02*
X000840Y016392D01*
X000840Y016314D02*
X001189Y016314D01*
X001156Y016235D02*
X000840Y016235D01*
X000840Y016157D02*
X001150Y016157D01*
X001150Y016078D02*
X000840Y016078D01*
X000840Y016000D02*
X001175Y016000D01*
X001208Y015921D02*
X000840Y015921D01*
X000840Y015843D02*
X001282Y015843D01*
X001412Y015764D02*
X000840Y015764D01*
X000840Y015686D02*
X008070Y015686D01*
X008070Y015607D02*
X000840Y015607D01*
X000840Y015529D02*
X001443Y015529D01*
X001470Y015540D02*
X001323Y015479D01*
X001211Y015367D01*
X001150Y015220D01*
X001150Y015060D01*
X001211Y014913D01*
X001323Y014801D01*
X001470Y014740D01*
X001630Y014740D01*
X001777Y014801D01*
X001889Y014913D01*
X001950Y015060D01*
X001950Y015220D01*
X001889Y015367D01*
X001777Y015479D01*
X001630Y015540D01*
X001470Y015540D01*
X001657Y015529D02*
X008070Y015529D01*
X008070Y015450D02*
X001806Y015450D01*
X001884Y015372D02*
X008070Y015372D01*
X008070Y015293D02*
X002575Y015293D01*
X002547Y015320D02*
X002452Y015360D01*
X002348Y015360D01*
X002253Y015320D01*
X002180Y015247D01*
X002140Y015152D01*
X002140Y015048D01*
X002180Y014953D01*
X002253Y014880D01*
X002348Y014840D01*
X002452Y014840D01*
X002547Y014880D01*
X002620Y014953D01*
X002660Y015048D01*
X002660Y015152D01*
X002620Y015247D01*
X002547Y015320D01*
X002634Y015215D02*
X008070Y015215D01*
X008070Y015136D02*
X002660Y015136D01*
X002660Y015058D02*
X008070Y015058D01*
X008070Y014979D02*
X002631Y014979D01*
X002568Y014901D02*
X008070Y014901D01*
X008070Y014822D02*
X001798Y014822D01*
X001876Y014901D02*
X002232Y014901D01*
X002169Y014979D02*
X001916Y014979D01*
X001949Y015058D02*
X002140Y015058D01*
X002140Y015136D02*
X001950Y015136D01*
X001950Y015215D02*
X002166Y015215D01*
X002225Y015293D02*
X001920Y015293D01*
X001688Y015764D02*
X008052Y015764D01*
X007974Y015843D02*
X001818Y015843D01*
X001892Y015921D02*
X007895Y015921D01*
X007817Y016000D02*
X001925Y016000D01*
X001950Y016078D02*
X007738Y016078D01*
X007660Y016157D02*
X001950Y016157D01*
X001944Y016235D02*
X007581Y016235D01*
X007503Y016314D02*
X001911Y016314D01*
X001864Y016392D02*
X007424Y016392D01*
X007346Y016471D02*
X001785Y016471D01*
X001363Y016785D02*
X000840Y016785D01*
X000840Y016863D02*
X001261Y016863D01*
X001199Y016942D02*
X000840Y016942D01*
X000840Y017020D02*
X001167Y017020D01*
X001150Y017099D02*
X000840Y017099D01*
X000840Y017177D02*
X001150Y017177D01*
X001165Y017256D02*
X000840Y017256D01*
X000840Y017334D02*
X001197Y017334D01*
X001257Y017413D02*
X000840Y017413D01*
X000840Y017491D02*
X001352Y017491D01*
X001927Y018276D02*
X003586Y018276D01*
X003538Y018355D02*
X001894Y018355D01*
X001823Y018433D02*
X003520Y018433D01*
X003524Y018512D02*
X001698Y018512D01*
X001299Y018826D02*
X000840Y018826D01*
X000840Y018904D02*
X001220Y018904D01*
X001182Y018983D02*
X000840Y018983D01*
X000840Y019061D02*
X001150Y019061D01*
X001150Y019140D02*
X000840Y019140D01*
X000840Y019218D02*
X001150Y019218D01*
X001182Y019297D02*
X000840Y019297D01*
X000840Y019375D02*
X001219Y019375D01*
X001298Y019454D02*
X000840Y019454D01*
X000840Y019532D02*
X001451Y019532D01*
X000840Y021809D02*
X019930Y021809D01*
X019930Y021887D02*
X000840Y021887D01*
X000840Y021966D02*
X019930Y021966D01*
X019930Y022044D02*
X000840Y022044D01*
X000840Y022123D02*
X019930Y022123D01*
X019930Y021573D02*
X019096Y021573D01*
X019175Y021495D02*
X019930Y021495D01*
X019930Y021416D02*
X019253Y021416D01*
X019332Y021338D02*
X019930Y021338D01*
X019930Y021259D02*
X019373Y021259D01*
X019406Y021181D02*
X019930Y021181D01*
X019930Y021102D02*
X019438Y021102D01*
X019471Y021024D02*
X019930Y021024D01*
X019930Y020945D02*
X019490Y020945D01*
X019490Y020867D02*
X019930Y020867D01*
X019930Y020788D02*
X019490Y020788D01*
X019490Y020710D02*
X019930Y020710D01*
X019930Y020631D02*
X019490Y020631D01*
X019469Y020553D02*
X019930Y020553D01*
X019930Y020474D02*
X019437Y020474D01*
X019404Y020396D02*
X019930Y020396D01*
X019930Y020317D02*
X019372Y020317D01*
X019328Y020239D02*
X019930Y020239D01*
X019930Y020160D02*
X019249Y020160D01*
X019171Y020082D02*
X019930Y020082D01*
X019930Y020003D02*
X019092Y020003D01*
X018917Y019925D02*
X019930Y019925D01*
X019930Y019532D02*
X019149Y019532D01*
X019302Y019454D02*
X019930Y019454D01*
X019930Y019375D02*
X019381Y019375D01*
X019418Y019297D02*
X019930Y019297D01*
X019930Y019218D02*
X019450Y019218D01*
X019450Y019140D02*
X019930Y019140D01*
X019930Y019061D02*
X019450Y019061D01*
X019418Y018983D02*
X019930Y018983D01*
X019930Y018904D02*
X019380Y018904D01*
X019301Y018826D02*
X019930Y018826D01*
X019930Y018747D02*
X019147Y018747D01*
X019930Y018669D02*
X015180Y018669D01*
X014920Y018669D02*
X014417Y018669D01*
X014338Y018590D02*
X014920Y018590D01*
X014920Y018512D02*
X013910Y018512D01*
X013831Y018433D02*
X014920Y018433D01*
X014920Y018355D02*
X013753Y018355D01*
X013674Y018276D02*
X014920Y018276D01*
X014920Y018198D02*
X011509Y018198D01*
X011520Y018119D02*
X014997Y018119D01*
X015076Y018041D02*
X011509Y018041D01*
X011470Y017962D02*
X015154Y017962D01*
X015233Y017884D02*
X014626Y017884D01*
X014657Y017870D02*
X014562Y017910D01*
X014458Y017910D01*
X014363Y017870D01*
X014290Y017797D01*
X014250Y017702D01*
X014250Y017598D01*
X014290Y017503D01*
X014363Y017430D01*
X014458Y017390D01*
X014562Y017390D01*
X014657Y017430D01*
X014730Y017503D01*
X014770Y017598D01*
X014770Y017702D01*
X014730Y017797D01*
X014657Y017870D01*
X014723Y017805D02*
X015311Y017805D01*
X015390Y017727D02*
X014760Y017727D01*
X014770Y017648D02*
X015468Y017648D01*
X015547Y017570D02*
X014758Y017570D01*
X014719Y017491D02*
X015625Y017491D01*
X015704Y017413D02*
X014616Y017413D01*
X014404Y017413D02*
X007561Y017413D01*
X007483Y017491D02*
X014301Y017491D01*
X014262Y017570D02*
X007404Y017570D01*
X007326Y017648D02*
X014250Y017648D01*
X014260Y017727D02*
X007247Y017727D01*
X007247Y017805D02*
X006644Y017805D01*
X006565Y017884D02*
X007187Y017884D01*
X007160Y017962D02*
X006509Y017962D01*
X006510Y018041D02*
X007160Y018041D01*
X007188Y018119D02*
X006488Y018119D01*
X006435Y018198D02*
X007250Y018198D01*
X007680Y018041D02*
X011011Y018041D01*
X011050Y017962D02*
X007680Y017962D01*
X007653Y017884D02*
X011151Y017884D01*
X011369Y017884D02*
X014394Y017884D01*
X014297Y017805D02*
X007593Y017805D01*
X007640Y017334D02*
X015782Y017334D01*
X015861Y017256D02*
X007718Y017256D01*
X007797Y017177D02*
X015939Y017177D01*
X016018Y017099D02*
X007875Y017099D01*
X007954Y017020D02*
X016096Y017020D01*
X016175Y016942D02*
X010266Y016942D01*
X010319Y016863D02*
X016253Y016863D01*
X016332Y016785D02*
X010340Y016785D01*
X010339Y016706D02*
X011749Y016706D01*
X011871Y016706D02*
X016410Y016706D01*
X016489Y016628D02*
X012000Y016628D01*
X012050Y016549D02*
X016567Y016549D01*
X016646Y016471D02*
X012070Y016471D01*
X012067Y016392D02*
X016724Y016392D01*
X016803Y016314D02*
X012035Y016314D01*
X012033Y016235D02*
X016687Y016235D01*
X016633Y016157D02*
X016576Y016157D01*
X016274Y016157D02*
X012741Y016157D01*
X012822Y016078D02*
X016201Y016078D01*
X016168Y016000D02*
X012902Y016000D01*
X012982Y015921D02*
X016165Y015921D01*
X016144Y015843D02*
X013063Y015843D01*
X013143Y015764D02*
X016065Y015764D01*
X015987Y015686D02*
X013223Y015686D01*
X013304Y015607D02*
X015908Y015607D01*
X015425Y015529D02*
X013384Y015529D01*
X013464Y015450D02*
X015346Y015450D01*
X015268Y015372D02*
X013545Y015372D01*
X013625Y015293D02*
X015189Y015293D01*
X015111Y015215D02*
X013706Y015215D01*
X013786Y015136D02*
X015032Y015136D01*
X014954Y015058D02*
X013866Y015058D01*
X013947Y014979D02*
X014875Y014979D01*
X014797Y014901D02*
X014027Y014901D01*
X014090Y014822D02*
X014718Y014822D01*
X014640Y014744D02*
X014090Y014744D01*
X014091Y014665D02*
X014561Y014665D01*
X014483Y014587D02*
X014091Y014587D01*
X014091Y014508D02*
X014404Y014508D01*
X014326Y014430D02*
X014092Y014430D01*
X014092Y014351D02*
X014247Y014351D01*
X014169Y014273D02*
X014092Y014273D01*
X014093Y014194D02*
X014120Y014194D01*
X014120Y014116D02*
X014093Y014116D01*
X013950Y014780D02*
X013960Y012630D01*
X014250Y012340D01*
X014431Y012153D02*
X014459Y012153D01*
X014434Y012075D02*
X013819Y012075D01*
X013820Y011996D02*
X014402Y011996D01*
X014400Y011918D02*
X013799Y011918D01*
X013747Y011839D02*
X014420Y011839D01*
X014472Y011761D02*
X013783Y011761D01*
X013786Y012153D02*
X014069Y012153D01*
X014014Y012232D02*
X013716Y012232D01*
X013470Y012310D02*
X013990Y012310D01*
X013990Y012389D02*
X013470Y012389D01*
X013470Y012467D02*
X013925Y012467D01*
X013846Y012546D02*
X013470Y012546D01*
X013470Y012624D02*
X013820Y012624D01*
X013820Y012703D02*
X013470Y012703D01*
X013470Y012781D02*
X013819Y012781D01*
X013819Y012860D02*
X013749Y012860D01*
X013551Y012860D02*
X013470Y012860D01*
X013366Y011447D02*
X013354Y011447D01*
X012966Y011447D02*
X012964Y011447D01*
X011711Y010819D02*
X011524Y010819D01*
X011628Y010740D02*
X011648Y010740D01*
X010885Y010976D02*
X010082Y010976D01*
X008938Y009798D02*
X007117Y009798D01*
X007130Y009877D02*
X008860Y009877D01*
X008781Y009955D02*
X007129Y009955D01*
X007207Y010034D02*
X008703Y010034D01*
X008624Y010112D02*
X007286Y010112D01*
X007364Y010191D02*
X008546Y010191D01*
X008737Y009641D02*
X006972Y009641D01*
X007077Y009720D02*
X009017Y009720D01*
X008883Y009641D02*
X010475Y009641D01*
X010554Y009563D02*
X009005Y009563D01*
X009052Y009484D02*
X010632Y009484D01*
X010711Y009406D02*
X009070Y009406D01*
X009065Y009327D02*
X010789Y009327D01*
X010868Y009249D02*
X009033Y009249D01*
X008958Y009170D02*
X011246Y009170D01*
X011259Y007757D02*
X001883Y007757D01*
X001804Y007679D02*
X011198Y007679D01*
X011170Y007600D02*
X003054Y007600D01*
X003077Y007590D02*
X002982Y007630D01*
X002878Y007630D01*
X002783Y007590D01*
X002710Y007517D01*
X002670Y007422D01*
X002670Y007318D01*
X002710Y007223D01*
X002783Y007150D01*
X002878Y007110D01*
X002982Y007110D01*
X003077Y007150D01*
X003150Y007223D01*
X003190Y007318D01*
X003190Y007422D01*
X003150Y007517D01*
X003077Y007590D01*
X003146Y007522D02*
X011170Y007522D01*
X011360Y007208D02*
X011410Y007208D01*
X011399Y007129D02*
X011410Y007129D01*
X011410Y007051D02*
X011442Y007051D01*
X011399Y006972D02*
X011510Y006972D01*
X013270Y008542D02*
X000840Y008542D01*
X000840Y008464D02*
X013334Y008464D01*
X013240Y008621D02*
X000840Y008621D01*
X000840Y008699D02*
X013240Y008699D01*
X013265Y008778D02*
X004035Y008778D01*
X004088Y008856D02*
X013323Y008856D01*
X013653Y006815D02*
X013794Y006815D01*
X014066Y006815D02*
X016057Y006815D01*
X010360Y013240D02*
X009480Y012360D01*
X009420Y012300D01*
X007100Y012300D01*
X007040Y012360D01*
X006910Y012360D01*
X007092Y012546D02*
X007100Y012546D01*
X007517Y012781D02*
X009473Y012781D01*
X009480Y013566D02*
X007064Y013566D01*
X006796Y013566D02*
X000840Y013566D01*
X000840Y013488D02*
X001344Y013488D01*
X001323Y013479D02*
X001470Y013540D01*
X001630Y013540D01*
X001777Y013479D01*
X001889Y013367D01*
X001950Y013220D01*
X001950Y013060D01*
X001889Y012913D01*
X001777Y012801D01*
X001630Y012740D01*
X001470Y012740D01*
X001323Y012801D01*
X001211Y012913D01*
X001150Y013060D01*
X001150Y013220D01*
X001211Y013367D01*
X001323Y013479D01*
X001253Y013409D02*
X000840Y013409D01*
X000840Y013331D02*
X001196Y013331D01*
X001163Y013252D02*
X000840Y013252D01*
X000840Y013174D02*
X001150Y013174D01*
X001150Y013095D02*
X000840Y013095D01*
X000840Y013017D02*
X001168Y013017D01*
X001201Y012938D02*
X000840Y012938D01*
X000840Y012860D02*
X001265Y012860D01*
X001371Y012781D02*
X000840Y012781D01*
X000840Y012703D02*
X006490Y012703D01*
X006490Y012781D02*
X001729Y012781D01*
X001835Y012860D02*
X005083Y012860D01*
X005093Y012850D02*
X005188Y012810D01*
X005292Y012810D01*
X005387Y012850D01*
X005460Y012923D01*
X005500Y013018D01*
X005500Y013122D01*
X005460Y013217D01*
X005387Y013290D01*
X005292Y013330D01*
X005188Y013330D01*
X005093Y013290D01*
X005020Y013217D01*
X004980Y013122D01*
X004980Y013018D01*
X005020Y012923D01*
X005093Y012850D01*
X005013Y012938D02*
X001899Y012938D01*
X001932Y013017D02*
X004981Y013017D01*
X004980Y013095D02*
X001950Y013095D01*
X001950Y013174D02*
X005001Y013174D01*
X005054Y013252D02*
X001937Y013252D01*
X001904Y013331D02*
X006670Y013331D01*
X006677Y013409D02*
X001847Y013409D01*
X001756Y013488D02*
X006710Y013488D01*
X006658Y013252D02*
X005426Y013252D01*
X005479Y013174D02*
X006580Y013174D01*
X006501Y013095D02*
X005500Y013095D01*
X005499Y013017D02*
X006490Y013017D01*
X006490Y012938D02*
X005467Y012938D01*
X005397Y012860D02*
X006490Y012860D01*
X006490Y012624D02*
X000840Y012624D01*
X000840Y012546D02*
X006490Y012546D01*
X006490Y012467D02*
X001789Y012467D01*
X001777Y012479D02*
X001630Y012540D01*
X001470Y012540D01*
X001323Y012479D01*
X001211Y012367D01*
X001150Y012220D01*
X001150Y012060D01*
X001211Y011913D01*
X001323Y011801D01*
X001470Y011740D01*
X001630Y011740D01*
X001777Y011801D01*
X001889Y011913D01*
X001950Y012060D01*
X001950Y012220D01*
X001889Y012367D01*
X001777Y012479D01*
X001867Y012389D02*
X005101Y012389D01*
X005133Y012420D02*
X005060Y012347D01*
X005020Y012252D01*
X005020Y012148D01*
X005060Y012053D01*
X005133Y011980D01*
X005228Y011940D01*
X005332Y011940D01*
X005427Y011980D01*
X005500Y012053D01*
X005540Y012148D01*
X005540Y012252D01*
X005500Y012347D01*
X005427Y012420D01*
X005332Y012460D01*
X005228Y012460D01*
X005133Y012420D01*
X005044Y012310D02*
X001913Y012310D01*
X001945Y012232D02*
X005020Y012232D01*
X005020Y012153D02*
X001950Y012153D01*
X001950Y012075D02*
X005051Y012075D01*
X005116Y011996D02*
X001923Y011996D01*
X001891Y011918D02*
X006739Y011918D01*
X006660Y011996D02*
X005444Y011996D01*
X005509Y012075D02*
X006582Y012075D01*
X006503Y012153D02*
X005540Y012153D01*
X005540Y012232D02*
X006490Y012232D01*
X006490Y012310D02*
X005516Y012310D01*
X005459Y012389D02*
X006490Y012389D01*
X006817Y011839D02*
X001815Y011839D01*
X001679Y011761D02*
X006896Y011761D01*
X006973Y011290D02*
X004017Y011290D01*
X003927Y011211D02*
X007041Y011211D01*
X007359Y011211D02*
X007901Y011211D01*
X007979Y011133D02*
X001950Y011133D01*
X001950Y011060D02*
X001950Y011220D01*
X001889Y011367D01*
X001777Y011479D01*
X001630Y011540D01*
X001434Y011525D02*
X000840Y011525D01*
X000840Y011447D02*
X001291Y011447D01*
X001212Y011368D02*
X000840Y011368D01*
X000840Y011290D02*
X001179Y011290D01*
X001150Y011211D02*
X000840Y011211D01*
X000840Y011133D02*
X001150Y011133D01*
X001153Y011054D02*
X000840Y011054D01*
X000840Y010976D02*
X001185Y010976D01*
X001227Y010897D02*
X000840Y010897D01*
X000840Y010819D02*
X001306Y010819D01*
X001470Y010740D02*
X001630Y010740D01*
X008372Y010740D01*
X008450Y010662D02*
X006526Y010662D01*
X005527Y010583D02*
X000840Y010583D01*
X000840Y010505D02*
X001385Y010505D01*
X001323Y010479D02*
X001470Y010540D01*
X001630Y010540D01*
X001777Y010479D01*
X001889Y010367D01*
X001950Y010220D01*
X001950Y010060D01*
X001889Y009913D01*
X001777Y009801D01*
X001630Y009740D01*
X001470Y009740D01*
X001323Y009801D01*
X001211Y009913D01*
X001150Y010060D01*
X001150Y010220D01*
X001211Y010367D01*
X001323Y010479D01*
X001270Y010426D02*
X000840Y010426D01*
X000840Y010348D02*
X001203Y010348D01*
X001170Y010269D02*
X000840Y010269D01*
X000840Y010191D02*
X001150Y010191D01*
X001150Y010112D02*
X000840Y010112D01*
X000840Y010034D02*
X001161Y010034D01*
X001194Y009955D02*
X000840Y009955D01*
X000840Y009877D02*
X001248Y009877D01*
X001330Y009798D02*
X000840Y009798D01*
X000840Y009720D02*
X005343Y009720D01*
X005303Y009798D02*
X001770Y009798D01*
X001852Y009877D02*
X005290Y009877D01*
X005300Y009955D02*
X001906Y009955D01*
X001939Y010034D02*
X005336Y010034D01*
X005431Y010112D02*
X001950Y010112D01*
X001950Y010191D02*
X005402Y010191D01*
X005368Y010269D02*
X001930Y010269D01*
X001897Y010348D02*
X005360Y010348D01*
X005374Y010426D02*
X001830Y010426D01*
X001715Y010505D02*
X005417Y010505D01*
X004286Y009484D02*
X000840Y009484D01*
X000840Y009406D02*
X004226Y009406D01*
X004200Y009327D02*
X000840Y009327D01*
X000840Y009249D02*
X004200Y009249D01*
X004228Y009170D02*
X004008Y009170D01*
X004077Y009092D02*
X004291Y009092D01*
X003692Y009170D02*
X000840Y009170D01*
X000840Y009092D02*
X003623Y009092D01*
X003591Y009013D02*
X000840Y009013D01*
X000840Y008935D02*
X003590Y008935D01*
X003612Y008856D02*
X000840Y008856D01*
X000840Y008778D02*
X003665Y008778D01*
X002806Y007600D02*
X001654Y007600D01*
X001446Y007600D02*
X000840Y007600D01*
X000840Y007522D02*
X002714Y007522D01*
X002679Y007443D02*
X000840Y007443D01*
X000840Y007365D02*
X002670Y007365D01*
X002683Y007286D02*
X000840Y007286D01*
X000840Y007208D02*
X002725Y007208D01*
X002832Y007129D02*
X000840Y007129D01*
X000840Y007051D02*
X004892Y007051D01*
X004858Y007129D02*
X003028Y007129D01*
X003135Y007208D02*
X004850Y007208D01*
X004864Y007286D02*
X003177Y007286D01*
X003190Y007365D02*
X004907Y007365D01*
X005017Y007443D02*
X003181Y007443D01*
X001458Y008385D02*
X000840Y008385D01*
X000840Y008307D02*
X001301Y008307D01*
X001222Y008228D02*
X000840Y008228D01*
X000840Y008150D02*
X001183Y008150D01*
X001151Y008071D02*
X000840Y008071D01*
X000840Y007993D02*
X001150Y007993D01*
X001150Y007914D02*
X000840Y007914D01*
X000840Y007836D02*
X001181Y007836D01*
X001217Y007757D02*
X000840Y007757D01*
X000840Y007679D02*
X001296Y007679D01*
X001630Y010740D02*
X001777Y010801D01*
X001889Y010913D01*
X001950Y011060D01*
X001947Y011054D02*
X008058Y011054D01*
X008136Y010976D02*
X001915Y010976D01*
X001873Y010897D02*
X008215Y010897D01*
X008293Y010819D02*
X001794Y010819D01*
X001950Y011211D02*
X003673Y011211D01*
X003583Y011290D02*
X001921Y011290D01*
X001888Y011368D02*
X003548Y011368D01*
X003540Y011447D02*
X001809Y011447D01*
X001421Y011761D02*
X000840Y011761D01*
X000840Y011839D02*
X001285Y011839D01*
X001209Y011918D02*
X000840Y011918D01*
X000840Y011996D02*
X001177Y011996D01*
X001150Y012075D02*
X000840Y012075D01*
X000840Y012153D02*
X001150Y012153D01*
X001155Y012232D02*
X000840Y012232D01*
X000840Y012310D02*
X001187Y012310D01*
X001233Y012389D02*
X000840Y012389D01*
X000840Y012467D02*
X001311Y012467D01*
X000840Y013645D02*
X009402Y013645D01*
X009323Y013723D02*
X000840Y013723D01*
X000840Y013802D02*
X001323Y013802D01*
X001323Y013801D02*
X001470Y013740D01*
X001630Y013740D01*
X001777Y013801D01*
X001889Y013913D01*
X001950Y014060D01*
X001950Y014220D01*
X001889Y014367D01*
X001777Y014479D01*
X001630Y014540D01*
X001470Y014540D01*
X001323Y014479D01*
X001211Y014367D01*
X001150Y014220D01*
X001150Y014060D01*
X001211Y013913D01*
X001323Y013801D01*
X001244Y013880D02*
X000840Y013880D01*
X000840Y013959D02*
X001192Y013959D01*
X001160Y014037D02*
X000840Y014037D01*
X000840Y014116D02*
X001150Y014116D01*
X001150Y014194D02*
X000840Y014194D01*
X000840Y014273D02*
X001172Y014273D01*
X001204Y014351D02*
X000840Y014351D01*
X000840Y014430D02*
X001274Y014430D01*
X001393Y014508D02*
X000840Y014508D01*
X000840Y014587D02*
X008120Y014587D01*
X008070Y014665D02*
X000840Y014665D01*
X000840Y014744D02*
X001462Y014744D01*
X001638Y014744D02*
X008070Y014744D01*
X008198Y014508D02*
X001707Y014508D01*
X001826Y014430D02*
X005252Y014430D01*
X005273Y014450D02*
X005200Y014377D01*
X005160Y014282D01*
X005160Y014178D01*
X005200Y014083D01*
X005273Y014010D01*
X005368Y013970D01*
X005472Y013970D01*
X005567Y014010D01*
X005640Y014083D01*
X005680Y014178D01*
X005680Y014282D01*
X005640Y014377D01*
X005567Y014450D01*
X005472Y014490D01*
X005368Y014490D01*
X005273Y014450D01*
X005189Y014351D02*
X001896Y014351D01*
X001928Y014273D02*
X005160Y014273D01*
X005160Y014194D02*
X001950Y014194D01*
X001950Y014116D02*
X005186Y014116D01*
X005245Y014037D02*
X001940Y014037D01*
X001908Y013959D02*
X008748Y013959D01*
X008669Y014037D02*
X005595Y014037D01*
X005654Y014116D02*
X008591Y014116D01*
X008512Y014194D02*
X005680Y014194D01*
X005680Y014273D02*
X008434Y014273D01*
X008355Y014351D02*
X005651Y014351D01*
X005588Y014430D02*
X008277Y014430D01*
X008826Y013880D02*
X001856Y013880D01*
X001777Y013802D02*
X008905Y013802D01*
X008654Y011839D02*
X007905Y011839D01*
X007983Y011761D02*
X008563Y011761D01*
X008528Y011682D02*
X008062Y011682D01*
X008140Y011604D02*
X008520Y011604D01*
X008534Y011525D02*
X008219Y011525D01*
X008297Y011447D02*
X008576Y011447D01*
X012146Y015058D02*
X013418Y015058D01*
X013385Y015136D02*
X012068Y015136D01*
X011989Y015215D02*
X013305Y015215D01*
X013225Y015293D02*
X011911Y015293D01*
X011832Y015372D02*
X013144Y015372D01*
X013064Y015450D02*
X011754Y015450D01*
X011690Y015843D02*
X010490Y015843D01*
X010483Y015921D02*
X011622Y015921D01*
X011590Y016000D02*
X010404Y016000D01*
X010326Y016078D02*
X011590Y016078D01*
X011613Y016157D02*
X010284Y016157D01*
X010356Y016235D02*
X011657Y016235D01*
X011585Y016314D02*
X010388Y016314D01*
X010390Y016392D02*
X011553Y016392D01*
X011550Y016471D02*
X010370Y016471D01*
X010319Y016549D02*
X011570Y016549D01*
X011620Y016628D02*
X010307Y016628D01*
X009923Y016549D02*
X009497Y016549D01*
X009549Y016628D02*
X009853Y016628D01*
X009821Y016706D02*
X009570Y016706D01*
X009569Y016785D02*
X009820Y016785D01*
X009841Y016863D02*
X009536Y016863D01*
X009466Y016942D02*
X009894Y016942D01*
X009890Y016471D02*
X009843Y016471D01*
X009123Y016549D02*
X008425Y016549D01*
X008346Y016628D02*
X009071Y016628D01*
X009050Y016706D02*
X008268Y016706D01*
X008189Y016785D02*
X009051Y016785D01*
X009084Y016863D02*
X008111Y016863D01*
X008032Y016942D02*
X009154Y016942D01*
X010490Y015764D02*
X012742Y015764D01*
X012662Y015843D02*
X012010Y015843D01*
X011850Y016050D02*
X012650Y016050D01*
X013950Y014780D01*
X013301Y014979D02*
X012225Y014979D01*
X012303Y014901D02*
X013256Y014901D01*
X013240Y014822D02*
X012382Y014822D01*
X012460Y014744D02*
X013006Y014744D01*
X012946Y014665D02*
X012460Y014665D01*
X012460Y014587D02*
X012920Y014587D01*
X012610Y014508D02*
X012460Y014508D01*
X012460Y014430D02*
X012542Y014430D01*
X012510Y014351D02*
X012460Y014351D01*
X012460Y014273D02*
X012510Y014273D01*
X012520Y014194D02*
X012532Y014194D01*
X012983Y015529D02*
X010505Y015529D01*
X010490Y015607D02*
X012903Y015607D01*
X012823Y015686D02*
X010490Y015686D01*
X011472Y018276D02*
X012506Y018276D01*
X012427Y018355D02*
X011373Y018355D01*
X012600Y018380D02*
X013580Y018380D01*
X013890Y018690D01*
X014240Y018690D01*
X014490Y018940D01*
X014500Y018940D01*
X014675Y018747D02*
X014865Y018747D01*
X014812Y018826D02*
X014734Y018826D01*
X014760Y018904D02*
X014790Y018904D01*
X014790Y018983D02*
X014760Y018983D01*
X014731Y019061D02*
X014823Y019061D01*
X014892Y019140D02*
X014668Y019140D01*
X012392Y019611D02*
X008757Y019611D01*
X008666Y019689D02*
X012323Y019689D01*
X015344Y014901D02*
X015367Y014901D01*
X015400Y014822D02*
X015266Y014822D01*
X015187Y014744D02*
X015487Y014744D01*
X006054Y019218D02*
X005789Y019218D01*
X005736Y019297D02*
X005993Y019297D01*
X005992Y019532D02*
X004580Y019532D01*
X004636Y019611D02*
X006053Y019611D01*
X001294Y015450D02*
X000840Y015450D01*
X000840Y015372D02*
X001216Y015372D01*
X001180Y015293D02*
X000840Y015293D01*
X000840Y015215D02*
X001150Y015215D01*
X001150Y015136D02*
X000840Y015136D01*
X000840Y015058D02*
X001151Y015058D01*
X001184Y014979D02*
X000840Y014979D01*
X000840Y014901D02*
X001224Y014901D01*
X001302Y014822D02*
X000840Y014822D01*
X007720Y005088D02*
X008270Y005088D01*
X008208Y005010D02*
X007782Y005010D01*
X007810Y004931D02*
X008180Y004931D01*
X008180Y004853D02*
X007810Y004853D01*
X007783Y004774D02*
X008207Y004774D01*
X008267Y004696D02*
X007723Y004696D01*
D15*
X007550Y004890D03*
X008440Y004890D03*
X008540Y004450D03*
X007980Y003930D03*
X007030Y003890D03*
X006000Y003890D03*
X005990Y004270D03*
X005425Y004890D03*
X004490Y004890D03*
X005050Y003890D03*
X006575Y004890D03*
X006350Y006070D03*
X007240Y006570D03*
X007540Y006930D03*
X008960Y006240D03*
X009050Y005460D03*
X009400Y004460D03*
X010560Y004250D03*
X012350Y005415D03*
X013025Y005465D03*
X013800Y005465D03*
X014570Y005540D03*
X014010Y006230D03*
X013500Y006600D03*
X013500Y007090D03*
X013930Y007040D03*
X012575Y007815D03*
X011670Y007180D03*
X011430Y007560D03*
X011150Y007050D03*
X010760Y007050D03*
X010360Y007070D03*
X009820Y006640D03*
X008840Y008810D03*
X008810Y009390D03*
X009730Y010400D03*
X009880Y010810D03*
X009630Y011230D03*
X008750Y010990D03*
X008780Y011610D03*
X007900Y010940D03*
X007200Y011420D03*
X007240Y012040D03*
X006910Y012360D03*
X007360Y012570D03*
X006930Y013340D03*
X008200Y013890D03*
X008500Y014790D03*
X008780Y015130D03*
X009600Y015330D03*
X009810Y014920D03*
X009820Y014520D03*
X009750Y014060D03*
X011190Y013590D03*
X011610Y013210D03*
X012500Y013490D03*
X012900Y012890D03*
X012540Y012630D03*
X012770Y011620D03*
X012630Y011260D03*
X012640Y010840D03*
X012625Y010440D03*
X012625Y010040D03*
X011880Y010620D03*
X011420Y010580D03*
X011010Y010190D03*
X011110Y009760D03*
X011510Y009730D03*
X010500Y010420D03*
X010950Y011230D03*
X011580Y012230D03*
X013160Y011620D03*
X013560Y011620D03*
X013560Y012020D03*
X014250Y012340D03*
X014650Y012330D03*
X014660Y011940D03*
X013650Y013100D03*
X013410Y013860D03*
X013180Y014550D03*
X013500Y014810D03*
X012770Y014300D03*
X011930Y014360D03*
X011740Y014710D03*
X011220Y014880D03*
X010970Y015840D03*
X010080Y015730D03*
X009660Y016100D03*
X010130Y016370D03*
X010080Y016760D03*
X009310Y016730D03*
X008550Y018450D03*
X008540Y019460D03*
X009370Y020100D03*
X010300Y020840D03*
X010320Y021420D03*
X011770Y019690D03*
X012550Y019820D03*
X013150Y020220D03*
X013050Y020730D03*
X014050Y020820D03*
X014550Y020950D03*
X015530Y021390D03*
X015550Y020970D03*
X015980Y019530D03*
X017020Y019450D03*
X017430Y019780D03*
X017040Y020390D03*
X017320Y021390D03*
X015050Y018930D03*
X014500Y018940D03*
X014090Y019000D03*
X013770Y019330D03*
X013350Y019090D03*
X013350Y018650D03*
X014380Y019390D03*
X014510Y017650D03*
X013350Y017670D03*
X012150Y018830D03*
X011260Y018120D03*
X010700Y018990D03*
X011810Y016450D03*
X011850Y016050D03*
X014250Y013865D03*
X014680Y013770D03*
X015800Y013760D03*
X015850Y013240D03*
X016730Y013190D03*
X017240Y011850D03*
X016425Y011065D03*
X016900Y010020D03*
X015750Y009315D03*
X015525Y008940D03*
X015300Y008515D03*
X014975Y008890D03*
X014420Y008540D03*
X013500Y008665D03*
X016210Y006600D03*
X017700Y006940D03*
X013525Y004540D03*
X012550Y004615D03*
X006870Y009880D03*
X006650Y010220D03*
X006340Y010480D03*
X005620Y010340D03*
X005550Y009880D03*
X004460Y009290D03*
X003850Y008960D03*
X003000Y009540D03*
X003800Y011440D03*
X005280Y012200D03*
X005240Y013070D03*
X004450Y013190D03*
X005420Y014230D03*
X006200Y015190D03*
X006250Y016815D03*
X006250Y017215D03*
X006250Y017615D03*
X006250Y018015D03*
X005190Y018230D03*
X005550Y019115D03*
X005350Y019490D03*
X006225Y019415D03*
X007420Y018000D03*
X004400Y019720D03*
X004040Y020410D03*
X003780Y018450D03*
X002400Y015100D03*
X002930Y007370D03*
X005110Y007200D03*
X015620Y014970D03*
X016425Y015940D03*
X016870Y016050D03*
X017540Y015290D03*
D16*
X003400Y004740D03*
D17*
X004490Y004890D02*
X006170Y006570D01*
X007240Y006570D01*
X007350Y007200D02*
X007400Y007250D01*
X007710Y007250D01*
X007720Y007240D01*
X008170Y006790D01*
X008410Y006790D01*
X008960Y006240D01*
X007350Y007200D02*
X005110Y007200D01*
D18*
X006870Y009880D02*
X007340Y010350D01*
X008570Y010350D01*
X009130Y009790D01*
X010510Y009790D01*
X010940Y009360D01*
X011240Y009360D01*
X011310Y009290D01*
X011720Y009290D01*
X011950Y009520D01*
X011950Y010250D01*
X011880Y010320D01*
X011880Y010620D01*
X011800Y010220D02*
X011800Y009550D01*
X011670Y009420D01*
X011360Y009420D01*
X011300Y009480D01*
X011010Y009480D01*
X010570Y009920D01*
X009190Y009920D01*
X008630Y010480D01*
X006340Y010480D01*
X007130Y011710D02*
X006620Y012220D01*
X006620Y013030D01*
X006930Y013340D01*
X008200Y014690D02*
X008200Y015800D01*
X007220Y016780D01*
X007190Y016810D01*
X006255Y016810D01*
X006250Y016815D01*
X006250Y017215D02*
X006265Y017230D01*
X007190Y017230D01*
X007250Y017170D01*
X008730Y015690D01*
X009440Y014980D01*
X009440Y013970D01*
X009620Y013790D01*
X009850Y013790D01*
X010380Y014320D01*
X011570Y014320D01*
X012220Y013670D01*
X012220Y012570D01*
X012450Y012340D01*
X012640Y012340D01*
X013160Y011820D01*
X013160Y011620D01*
X013220Y011970D02*
X013220Y013130D01*
X012600Y013750D01*
X012560Y013750D01*
X012210Y014100D01*
X012210Y014630D01*
X011590Y015250D01*
X010090Y015250D01*
X009580Y015760D01*
X008840Y015760D01*
X007120Y017480D01*
X006385Y017480D01*
X006250Y017615D01*
X006615Y017650D02*
X006250Y018015D01*
X006615Y017650D02*
X007140Y017650D01*
X008430Y016360D01*
X009770Y016360D01*
X010100Y016030D01*
X010190Y016030D01*
X010360Y015860D01*
X010360Y015490D01*
X010470Y015380D01*
X011640Y015380D01*
X012330Y014690D01*
X012330Y014200D01*
X012510Y014020D01*
X013340Y013190D01*
X013340Y012190D01*
X013510Y012020D01*
X013560Y012020D01*
X013220Y011970D02*
X013560Y011630D01*
X013560Y011620D01*
X012770Y011620D02*
X012770Y012030D01*
X012580Y012220D01*
X012390Y012220D01*
X012090Y012520D01*
X012090Y013620D01*
X011510Y014200D01*
X010430Y014200D01*
X009900Y013670D01*
X009560Y013670D01*
X009310Y013920D01*
X008970Y013920D01*
X008200Y014690D01*
X010360Y013240D02*
X011580Y013240D01*
X011610Y013210D01*
X011420Y010580D02*
X011800Y010220D01*
X009730Y010400D02*
X009710Y010400D01*
X008860Y011250D01*
X008310Y011250D01*
X007850Y011710D01*
X007130Y011710D01*
X008960Y006240D02*
X008970Y006230D01*
X014010Y006230D01*
X014650Y012330D02*
X014940Y012620D01*
X014940Y013880D01*
X014740Y014080D01*
X014650Y014080D01*
X014650Y014090D01*
X014650Y014390D01*
X015540Y015280D01*
X015840Y015280D01*
X017530Y015280D01*
X017540Y015290D01*
X017830Y015200D02*
X017830Y015470D01*
X015050Y018250D01*
X015050Y018930D01*
X016425Y015940D02*
X015895Y015410D01*
X015490Y015410D01*
X014250Y014170D01*
X014250Y013865D01*
X015850Y013240D02*
X016120Y013510D01*
X016120Y013560D01*
X016590Y014030D01*
X016660Y014030D01*
X017830Y015200D01*
M02*
