%
M48
M72
T01C0.0150
T02C0.0160
T03C0.0354
T04C0.0394
T05C0.0400
T06C0.0512
T07C0.1300
%
T01
X3400Y4740
T02
X4490Y4890
X5425Y4890
X5990Y4270
X6000Y3890
X7030Y3890
X7980Y3930
X8540Y4450
X8440Y4890
X9050Y5460
X8960Y6240
X9820Y6640
X10360Y7070
X10760Y7050
X11150Y7050
X11670Y7180
X11430Y7560
X12575Y7815
X13500Y7090
X13930Y7040
X13500Y6600
X14010Y6230
X13800Y5465
X14570Y5540
X13525Y4540
X12550Y4615
X12350Y5415
X13025Y5465
X10560Y4250
X9400Y4460
X7550Y4890
X6575Y4890
X6350Y6070
X7240Y6570
X7540Y6930
X8840Y8810
X8810Y9390
X9730Y10400
X9880Y10810
X9630Y11230
X8750Y10990
X8780Y11610
X7900Y10940
X7200Y11420
X7240Y12040
X6910Y12360
X7360Y12570
X6930Y13340
X8200Y13890
X8500Y14790
X8780Y15130
X9600Y15330
X9810Y14920
X9820Y14520
X9750Y14060
X11190Y13590
X11610Y13210
X12500Y13490
X12900Y12890
X12540Y12630
X12770Y11620
X12630Y11260
X12640Y10840
X12625Y10440
X12625Y10040
X11880Y10620
X11420Y10580
X11010Y10190
X11110Y9760
X11510Y9730
X10500Y10420
X10950Y11230
X11580Y12230
X13160Y11620
X13560Y11620
X13560Y12020
X14250Y12340
X14650Y12330
X14660Y11940
X13650Y13100
X13410Y13860
X13180Y14550
X13500Y14810
X12770Y14300
X11930Y14360
X11740Y14710
X11220Y14880
X10970Y15840
X10080Y15730
X9660Y16100
X10130Y16370
X10080Y16760
X9310Y16730
X8550Y18450
X8540Y19460
X9370Y20100
X10300Y20840
X10320Y21420
X11770Y19690
X12550Y19820
X13150Y20220
X13050Y20730
X14050Y20820
X14550Y20950
X15530Y21390
X15550Y20970
X15980Y19530
X17020Y19450
X17430Y19780
X17040Y20390
X17320Y21390
X15050Y18930
X14500Y18940
X14090Y19000
X13770Y19330
X13350Y19090
X13350Y18650
X14380Y19390
X14510Y17650
X13350Y17670
X12150Y18830
X11260Y18120
X10700Y18990
X11810Y16450
X11850Y16050
X14250Y13865
X14680Y13770
X15800Y13760
X15850Y13240
X16730Y13190
X17240Y11850
X16425Y11065
X16900Y10020
X15750Y9315
X15525Y8940
X15300Y8515
X14975Y8890
X14420Y8540
X13500Y8665
X16210Y6600
X17700Y6940
X15620Y14970
X16425Y15940
X16870Y16050
X17540Y15290
X7420Y18000
X6250Y18015
X6250Y17615
X6250Y17215
X6250Y16815
X5190Y18230
X5550Y19115
X5350Y19490
X6225Y19415
X4400Y19720
X4040Y20410
X3780Y18450
X6200Y15190
X5420Y14230
X4450Y13190
X5240Y13070
X5280Y12200
X3800Y11440
X3000Y9540
X3850Y8960
X4460Y9290
X5550Y9880
X5620Y10340
X6340Y10480
X6650Y10220
X6870Y9880
X5110Y7200
X2930Y7370
X5050Y3890
X2400Y15100
T03
X17800Y12234
X17800Y11446
T04
X19300Y8609
X19300Y6640
T05
X19050Y10140
X19050Y11140
X19050Y12140
X19050Y13140
X19050Y14140
X19050Y15140
X19050Y16140
X19050Y17140
X19050Y18140
X19050Y19140
X1550Y19140
X1550Y18140
X1550Y17140
X1550Y16140
X1550Y15140
X1550Y14140
X1550Y13140
X1550Y12140
X1550Y11140
X1550Y10140
X1550Y7990
T06
X18316Y9002
X18316Y6246
T07
X2050Y4290
X2050Y20790
X18550Y20790
X18550Y4290
M30
