G75*
G70*
%OFA0B0*%
%FSLAX24Y24*%
%IPPOS*%
%LPD*%
%AMOC8*
5,1,8,0,0,1.08239X$1,22.5*
%
%ADD10C,0.0600*%
%ADD11C,0.0554*%
%ADD12C,0.0594*%
%ADD13C,0.0768*%
%ADD14C,0.0320*%
%ADD15C,0.0080*%
%ADD16C,0.0310*%
D10*
X001550Y007990D03*
X001550Y010140D03*
X001550Y011140D03*
X001550Y012140D03*
X001550Y013140D03*
X001550Y014140D03*
X001550Y015140D03*
X001550Y016140D03*
X001550Y017140D03*
X001550Y018140D03*
X001550Y019140D03*
X019050Y019140D03*
X019050Y018140D03*
X019050Y017140D03*
X019050Y016140D03*
X019050Y015140D03*
X019050Y014140D03*
X019050Y013140D03*
X019050Y012140D03*
X019050Y011140D03*
X019050Y010140D03*
D11*
X017800Y011446D03*
X017800Y012234D03*
D12*
X019300Y008609D03*
X019300Y006640D03*
D13*
X018316Y006246D03*
X018316Y009002D03*
D14*
X016900Y010020D03*
X016425Y011065D03*
X017240Y011850D03*
X016730Y013190D03*
X015850Y013240D03*
X015800Y013760D03*
X014680Y013770D03*
X014250Y013865D03*
X013410Y013860D03*
X013180Y014550D03*
X013500Y014810D03*
X012770Y014300D03*
X011930Y014360D03*
X011740Y014710D03*
X011220Y014880D03*
X010970Y015840D03*
X010080Y015730D03*
X009660Y016100D03*
X010130Y016370D03*
X010080Y016760D03*
X009310Y016730D03*
X009600Y015330D03*
X009810Y014920D03*
X009820Y014520D03*
X009750Y014060D03*
X008780Y015130D03*
X008500Y014790D03*
X008200Y013890D03*
X006930Y013340D03*
X007360Y012570D03*
X006910Y012360D03*
X007240Y012040D03*
X007200Y011420D03*
X007900Y010940D03*
X008750Y010990D03*
X008780Y011610D03*
X009630Y011230D03*
X009880Y010810D03*
X009730Y010400D03*
X010500Y010420D03*
X011010Y010190D03*
X011110Y009760D03*
X011510Y009730D03*
X011420Y010580D03*
X011880Y010620D03*
X012625Y010440D03*
X012640Y010840D03*
X012630Y011260D03*
X012770Y011620D03*
X013160Y011620D03*
X013560Y011620D03*
X013560Y012020D03*
X014250Y012340D03*
X014650Y012330D03*
X014660Y011940D03*
X013650Y013100D03*
X012900Y012890D03*
X012540Y012630D03*
X012500Y013490D03*
X011610Y013210D03*
X011190Y013590D03*
X011580Y012230D03*
X010950Y011230D03*
X012625Y010040D03*
X013500Y008665D03*
X014420Y008540D03*
X014975Y008890D03*
X015300Y008515D03*
X015525Y008940D03*
X015750Y009315D03*
X013930Y007040D03*
X013500Y007090D03*
X013500Y006600D03*
X014010Y006230D03*
X013800Y005465D03*
X014570Y005540D03*
X013525Y004540D03*
X012550Y004615D03*
X012350Y005415D03*
X013025Y005465D03*
X011670Y007180D03*
X011430Y007560D03*
X011150Y007050D03*
X010760Y007050D03*
X010360Y007070D03*
X009820Y006640D03*
X008960Y006240D03*
X009050Y005460D03*
X008440Y004890D03*
X008540Y004450D03*
X007980Y003930D03*
X007030Y003890D03*
X006000Y003890D03*
X005990Y004270D03*
X005425Y004890D03*
X004490Y004890D03*
X005050Y003890D03*
X006575Y004890D03*
X007550Y004890D03*
X006350Y006070D03*
X007240Y006570D03*
X007540Y006930D03*
X008840Y008810D03*
X008810Y009390D03*
X006870Y009880D03*
X006650Y010220D03*
X006340Y010480D03*
X005620Y010340D03*
X005550Y009880D03*
X004460Y009290D03*
X003850Y008960D03*
X003000Y009540D03*
X003800Y011440D03*
X005280Y012200D03*
X005240Y013070D03*
X004450Y013190D03*
X005420Y014230D03*
X006200Y015190D03*
X006250Y016815D03*
X006250Y017215D03*
X006250Y017615D03*
X006250Y018015D03*
X005190Y018230D03*
X005550Y019115D03*
X005350Y019490D03*
X006225Y019415D03*
X007420Y018000D03*
X008550Y018450D03*
X008540Y019460D03*
X009370Y020100D03*
X010300Y020840D03*
X010320Y021420D03*
X011770Y019690D03*
X012550Y019820D03*
X013150Y020220D03*
X013050Y020730D03*
X014050Y020820D03*
X014550Y020950D03*
X015530Y021390D03*
X015550Y020970D03*
X015980Y019530D03*
X017020Y019450D03*
X017430Y019780D03*
X017040Y020390D03*
X017320Y021390D03*
X015050Y018930D03*
X014500Y018940D03*
X014090Y019000D03*
X013770Y019330D03*
X013350Y019090D03*
X013350Y018650D03*
X014380Y019390D03*
X014510Y017650D03*
X013350Y017670D03*
X012150Y018830D03*
X011260Y018120D03*
X010700Y018990D03*
X011810Y016450D03*
X011850Y016050D03*
X015620Y014970D03*
X016425Y015940D03*
X016870Y016050D03*
X017540Y015290D03*
X012575Y007815D03*
X009400Y004460D03*
X010560Y004250D03*
X005110Y007200D03*
X002930Y007370D03*
X002400Y015100D03*
X003780Y018450D03*
X004400Y019720D03*
X004040Y020410D03*
X016210Y006600D03*
X017700Y006940D03*
D15*
X000840Y003180D02*
X000840Y022140D01*
X019800Y022140D01*
X019800Y003180D01*
X000840Y003180D01*
X000840Y003204D02*
X019800Y003204D01*
X019800Y003283D02*
X000840Y003283D01*
X000840Y003361D02*
X001836Y003361D01*
X001863Y003350D02*
X002237Y003350D01*
X002582Y003493D01*
X002847Y003758D01*
X002990Y004103D01*
X002990Y004477D01*
X002847Y004822D01*
X002582Y005087D01*
X002237Y005230D01*
X001863Y005230D01*
X001518Y005087D01*
X001253Y004822D01*
X001110Y004477D01*
X001110Y004103D01*
X001253Y003758D01*
X001518Y003493D01*
X001863Y003350D01*
X001647Y003440D02*
X000840Y003440D01*
X000840Y003518D02*
X001493Y003518D01*
X001414Y003597D02*
X000840Y003597D01*
X000840Y003675D02*
X001336Y003675D01*
X001257Y003754D02*
X000840Y003754D01*
X000840Y003832D02*
X001222Y003832D01*
X001190Y003911D02*
X000840Y003911D01*
X000840Y003989D02*
X001157Y003989D01*
X001125Y004068D02*
X000840Y004068D01*
X000840Y004146D02*
X001110Y004146D01*
X001110Y004225D02*
X000840Y004225D01*
X000840Y004303D02*
X001110Y004303D01*
X001110Y004382D02*
X000840Y004382D01*
X000840Y004460D02*
X001110Y004460D01*
X001135Y004539D02*
X000840Y004539D01*
X000840Y004617D02*
X001168Y004617D01*
X001201Y004696D02*
X000840Y004696D01*
X000840Y004774D02*
X001233Y004774D01*
X001283Y004853D02*
X000840Y004853D01*
X000840Y004931D02*
X001362Y004931D01*
X001440Y005010D02*
X000840Y005010D01*
X000840Y005088D02*
X001520Y005088D01*
X001710Y005167D02*
X000840Y005167D01*
X000840Y005245D02*
X008897Y005245D01*
X008903Y005240D02*
X008998Y005200D01*
X009102Y005200D01*
X009197Y005240D01*
X009270Y005313D01*
X009310Y005408D01*
X009310Y005512D01*
X009270Y005607D01*
X009197Y005680D01*
X009102Y005720D01*
X008998Y005720D01*
X008903Y005680D01*
X008830Y005607D01*
X008790Y005512D01*
X008790Y005408D01*
X008830Y005313D01*
X008903Y005240D01*
X008825Y005324D02*
X000840Y005324D01*
X000840Y005402D02*
X008793Y005402D01*
X008790Y005481D02*
X000840Y005481D01*
X000840Y005559D02*
X008810Y005559D01*
X008860Y005638D02*
X000840Y005638D01*
X000840Y005716D02*
X008989Y005716D01*
X009111Y005716D02*
X012952Y005716D01*
X012973Y005725D02*
X012878Y005685D01*
X012805Y005612D01*
X012765Y005517D01*
X012765Y005413D01*
X012805Y005318D01*
X012878Y005245D01*
X012973Y005205D01*
X013077Y005205D01*
X013172Y005245D01*
X013245Y005318D01*
X013285Y005413D01*
X013285Y005517D01*
X013245Y005612D01*
X013172Y005685D01*
X013077Y005725D01*
X012973Y005725D01*
X013098Y005716D02*
X013727Y005716D01*
X013748Y005725D02*
X013653Y005685D01*
X013580Y005612D01*
X013540Y005517D01*
X013540Y005413D01*
X013580Y005318D01*
X013653Y005245D01*
X013748Y005205D01*
X013852Y005205D01*
X013947Y005245D01*
X014020Y005318D01*
X014060Y005413D01*
X014060Y005517D01*
X014020Y005612D01*
X013947Y005685D01*
X013852Y005725D01*
X013748Y005725D01*
X013873Y005716D02*
X019800Y005716D01*
X019800Y005638D02*
X013995Y005638D01*
X014042Y005559D02*
X019800Y005559D01*
X019800Y005481D02*
X014060Y005481D01*
X014055Y005402D02*
X019800Y005402D01*
X019800Y005324D02*
X014023Y005324D01*
X013948Y005245D02*
X019800Y005245D01*
X019800Y005167D02*
X018890Y005167D01*
X018737Y005230D02*
X019082Y005087D01*
X019347Y004822D01*
X019490Y004477D01*
X019490Y004103D01*
X019347Y003758D01*
X019082Y003493D01*
X018737Y003350D01*
X018363Y003350D01*
X018018Y003493D01*
X017753Y003758D01*
X017610Y004103D01*
X017610Y004477D01*
X017753Y004822D01*
X018018Y005087D01*
X018363Y005230D01*
X018737Y005230D01*
X019080Y005088D02*
X019800Y005088D01*
X019800Y005010D02*
X019160Y005010D01*
X019238Y004931D02*
X019800Y004931D01*
X019800Y004853D02*
X019317Y004853D01*
X019367Y004774D02*
X019800Y004774D01*
X019800Y004696D02*
X019399Y004696D01*
X019432Y004617D02*
X019800Y004617D01*
X019800Y004539D02*
X019465Y004539D01*
X019490Y004460D02*
X019800Y004460D01*
X019800Y004382D02*
X019490Y004382D01*
X019490Y004303D02*
X019800Y004303D01*
X019800Y004225D02*
X019490Y004225D01*
X019490Y004146D02*
X019800Y004146D01*
X019800Y004068D02*
X019475Y004068D01*
X019443Y003989D02*
X019800Y003989D01*
X019800Y003911D02*
X019410Y003911D01*
X019378Y003832D02*
X019800Y003832D01*
X019800Y003754D02*
X019343Y003754D01*
X019264Y003675D02*
X019800Y003675D01*
X019800Y003597D02*
X019186Y003597D01*
X019107Y003518D02*
X019800Y003518D01*
X019800Y003440D02*
X018953Y003440D01*
X018764Y003361D02*
X019800Y003361D01*
X018336Y003361D02*
X002264Y003361D01*
X002453Y003440D02*
X018147Y003440D01*
X017993Y003518D02*
X002607Y003518D01*
X002686Y003597D02*
X017914Y003597D01*
X017836Y003675D02*
X008044Y003675D01*
X008032Y003670D02*
X008127Y003710D01*
X008200Y003783D01*
X008240Y003878D01*
X008240Y003982D01*
X008200Y004077D01*
X008127Y004150D01*
X008032Y004190D01*
X007928Y004190D01*
X007833Y004150D01*
X007760Y004077D01*
X007720Y003982D01*
X007720Y003878D01*
X007760Y003783D01*
X007833Y003710D01*
X007928Y003670D01*
X008032Y003670D01*
X007916Y003675D02*
X007183Y003675D01*
X007177Y003670D02*
X007250Y003743D01*
X007290Y003838D01*
X007290Y003942D01*
X007250Y004037D01*
X007177Y004110D01*
X007082Y004150D01*
X006978Y004150D01*
X006883Y004110D01*
X006810Y004037D01*
X006770Y003942D01*
X006770Y003838D01*
X006810Y003743D01*
X006883Y003670D01*
X006978Y003630D01*
X007082Y003630D01*
X007177Y003670D01*
X007255Y003754D02*
X007789Y003754D01*
X007739Y003832D02*
X007287Y003832D01*
X007290Y003911D02*
X007720Y003911D01*
X007723Y003989D02*
X007270Y003989D01*
X007220Y004068D02*
X007756Y004068D01*
X007828Y004146D02*
X007091Y004146D01*
X006969Y004146D02*
X006220Y004146D01*
X006210Y004123D02*
X006250Y004218D01*
X006250Y004322D01*
X006210Y004417D01*
X006137Y004490D01*
X006042Y004530D01*
X005938Y004530D01*
X005843Y004490D01*
X005770Y004417D01*
X005730Y004322D01*
X005730Y004218D01*
X005770Y004123D01*
X005817Y004075D01*
X005780Y004037D01*
X005740Y003942D01*
X005740Y003838D01*
X005780Y003743D01*
X005853Y003670D01*
X005948Y003630D01*
X006052Y003630D01*
X006147Y003670D01*
X006220Y003743D01*
X006260Y003838D01*
X006260Y003942D01*
X006220Y004037D01*
X006173Y004085D01*
X006210Y004123D01*
X006190Y004068D02*
X006840Y004068D01*
X006790Y003989D02*
X006240Y003989D01*
X006260Y003911D02*
X006770Y003911D01*
X006773Y003832D02*
X006257Y003832D01*
X006225Y003754D02*
X006805Y003754D01*
X006877Y003675D02*
X006153Y003675D01*
X005847Y003675D02*
X005203Y003675D01*
X005197Y003670D02*
X005270Y003743D01*
X005310Y003838D01*
X005310Y003942D01*
X005270Y004037D01*
X005197Y004110D01*
X005102Y004150D01*
X004998Y004150D01*
X004903Y004110D01*
X004830Y004037D01*
X004790Y003942D01*
X004790Y003838D01*
X004830Y003743D01*
X004903Y003670D01*
X004998Y003630D01*
X005102Y003630D01*
X005197Y003670D01*
X005275Y003754D02*
X005775Y003754D01*
X005743Y003832D02*
X005307Y003832D01*
X005310Y003911D02*
X005740Y003911D01*
X005760Y003989D02*
X005290Y003989D01*
X005240Y004068D02*
X005810Y004068D01*
X005760Y004146D02*
X005111Y004146D01*
X004989Y004146D02*
X002990Y004146D01*
X002990Y004225D02*
X005730Y004225D01*
X005730Y004303D02*
X002990Y004303D01*
X002990Y004382D02*
X005755Y004382D01*
X005812Y004460D02*
X002990Y004460D01*
X002965Y004539D02*
X008295Y004539D01*
X008280Y004502D02*
X008320Y004597D01*
X008363Y004641D01*
X008293Y004670D01*
X008220Y004743D01*
X008180Y004838D01*
X008180Y004942D01*
X008220Y005037D01*
X008293Y005110D01*
X008388Y005150D01*
X008492Y005150D01*
X008587Y005110D01*
X008660Y005037D01*
X008700Y004942D01*
X008700Y004838D01*
X008660Y004743D01*
X008617Y004699D01*
X008687Y004670D01*
X008760Y004597D01*
X008800Y004502D01*
X008800Y004398D01*
X008760Y004303D01*
X008687Y004230D01*
X008592Y004190D01*
X008488Y004190D01*
X008393Y004230D01*
X008320Y004303D01*
X008280Y004398D01*
X008280Y004502D01*
X008280Y004460D02*
X006168Y004460D01*
X006225Y004382D02*
X008287Y004382D01*
X008319Y004303D02*
X006250Y004303D01*
X006250Y004225D02*
X008405Y004225D01*
X008204Y004068D02*
X010375Y004068D01*
X010340Y004103D02*
X010413Y004030D01*
X010508Y003990D01*
X010612Y003990D01*
X010707Y004030D01*
X010780Y004103D01*
X010820Y004198D01*
X010820Y004302D01*
X010780Y004397D01*
X010707Y004470D01*
X010612Y004510D01*
X010508Y004510D01*
X010413Y004470D01*
X010340Y004397D01*
X010300Y004302D01*
X010300Y004198D01*
X010340Y004103D01*
X010322Y004146D02*
X008132Y004146D01*
X008237Y003989D02*
X017657Y003989D01*
X017625Y004068D02*
X010745Y004068D01*
X010798Y004146D02*
X017610Y004146D01*
X017610Y004225D02*
X010820Y004225D01*
X010819Y004303D02*
X013418Y004303D01*
X013378Y004320D02*
X013473Y004280D01*
X013577Y004280D01*
X013672Y004320D01*
X013745Y004393D01*
X013785Y004488D01*
X013785Y004592D01*
X013745Y004687D01*
X013672Y004760D01*
X013577Y004800D01*
X013473Y004800D01*
X013378Y004760D01*
X013305Y004687D01*
X013265Y004592D01*
X013265Y004488D01*
X013305Y004393D01*
X013378Y004320D01*
X013316Y004382D02*
X012666Y004382D01*
X012697Y004395D02*
X012770Y004468D01*
X012810Y004563D01*
X012810Y004667D01*
X012770Y004762D01*
X012697Y004835D01*
X012602Y004875D01*
X012498Y004875D01*
X012403Y004835D01*
X012330Y004762D01*
X012290Y004667D01*
X012290Y004563D01*
X012330Y004468D01*
X012403Y004395D01*
X012498Y004355D01*
X012602Y004355D01*
X012697Y004395D01*
X012763Y004460D02*
X013277Y004460D01*
X013265Y004539D02*
X012800Y004539D01*
X012810Y004617D02*
X013275Y004617D01*
X013313Y004696D02*
X012798Y004696D01*
X012759Y004774D02*
X013411Y004774D01*
X013639Y004774D02*
X017733Y004774D01*
X017701Y004696D02*
X013737Y004696D01*
X013775Y004617D02*
X017668Y004617D01*
X017635Y004539D02*
X013785Y004539D01*
X013773Y004460D02*
X017610Y004460D01*
X017610Y004382D02*
X013734Y004382D01*
X013632Y004303D02*
X017610Y004303D01*
X017690Y003911D02*
X008240Y003911D01*
X008221Y003832D02*
X017722Y003832D01*
X017757Y003754D02*
X008171Y003754D01*
X008675Y004225D02*
X009289Y004225D01*
X009253Y004240D02*
X009348Y004200D01*
X009452Y004200D01*
X009547Y004240D01*
X009620Y004313D01*
X009660Y004408D01*
X009660Y004512D01*
X009620Y004607D01*
X009547Y004680D01*
X009452Y004720D01*
X009348Y004720D01*
X009253Y004680D01*
X009180Y004607D01*
X009140Y004512D01*
X009140Y004408D01*
X009180Y004313D01*
X009253Y004240D01*
X009189Y004303D02*
X008761Y004303D01*
X008793Y004382D02*
X009151Y004382D01*
X009140Y004460D02*
X008800Y004460D01*
X008785Y004539D02*
X009151Y004539D01*
X009189Y004617D02*
X008741Y004617D01*
X008627Y004696D02*
X009289Y004696D01*
X009511Y004696D02*
X012302Y004696D01*
X012290Y004617D02*
X009611Y004617D01*
X009649Y004539D02*
X012300Y004539D01*
X012337Y004460D02*
X010718Y004460D01*
X010787Y004382D02*
X012434Y004382D01*
X012341Y004774D02*
X008673Y004774D01*
X008700Y004853D02*
X012444Y004853D01*
X012656Y004853D02*
X017783Y004853D01*
X017862Y004931D02*
X008700Y004931D01*
X008672Y005010D02*
X017940Y005010D01*
X018020Y005088D02*
X008610Y005088D01*
X008270Y005088D02*
X007720Y005088D01*
X007697Y005110D02*
X007602Y005150D01*
X007498Y005150D01*
X007403Y005110D01*
X007330Y005037D01*
X007290Y004942D01*
X007290Y004838D01*
X007330Y004743D01*
X007403Y004670D01*
X007498Y004630D01*
X007602Y004630D01*
X007697Y004670D01*
X007770Y004743D01*
X007810Y004838D01*
X007810Y004942D01*
X007770Y005037D01*
X007697Y005110D01*
X007782Y005010D02*
X008208Y005010D01*
X008180Y004931D02*
X007810Y004931D01*
X007810Y004853D02*
X008180Y004853D01*
X008207Y004774D02*
X007783Y004774D01*
X007723Y004696D02*
X008267Y004696D01*
X008339Y004617D02*
X002932Y004617D01*
X002899Y004696D02*
X004317Y004696D01*
X004343Y004670D02*
X004438Y004630D01*
X004542Y004630D01*
X004637Y004670D01*
X004710Y004743D01*
X004750Y004838D01*
X004750Y004942D01*
X004710Y005037D01*
X004637Y005110D01*
X004542Y005150D01*
X004438Y005150D01*
X004343Y005110D01*
X004270Y005037D01*
X004230Y004942D01*
X004230Y004838D01*
X004270Y004743D01*
X004343Y004670D01*
X004257Y004774D02*
X002867Y004774D01*
X002817Y004853D02*
X004230Y004853D01*
X004230Y004931D02*
X002738Y004931D01*
X002660Y005010D02*
X004258Y005010D01*
X004320Y005088D02*
X002580Y005088D01*
X002390Y005167D02*
X012271Y005167D01*
X012298Y005155D02*
X012402Y005155D01*
X012497Y005195D01*
X012570Y005268D01*
X012610Y005363D01*
X012610Y005467D01*
X012570Y005562D01*
X012497Y005635D01*
X012402Y005675D01*
X012298Y005675D01*
X012203Y005635D01*
X012130Y005562D01*
X012090Y005467D01*
X012090Y005363D01*
X012130Y005268D01*
X012203Y005195D01*
X012298Y005155D01*
X012429Y005167D02*
X018210Y005167D01*
X018220Y005762D02*
X018042Y005836D01*
X017906Y005972D01*
X017832Y006150D01*
X017832Y006343D01*
X017906Y006520D01*
X018042Y006656D01*
X018220Y006730D01*
X018412Y006730D01*
X018590Y006656D01*
X018726Y006520D01*
X018800Y006343D01*
X018800Y006150D01*
X018726Y005972D01*
X018590Y005836D01*
X018412Y005762D01*
X018220Y005762D01*
X018142Y005795D02*
X000840Y005795D01*
X000840Y005873D02*
X018005Y005873D01*
X017926Y005952D02*
X000840Y005952D01*
X000840Y006030D02*
X008802Y006030D01*
X008813Y006020D02*
X008908Y005980D01*
X009012Y005980D01*
X009107Y006020D01*
X009180Y006093D01*
X009220Y006188D01*
X009220Y006292D01*
X009180Y006387D01*
X009107Y006460D01*
X009012Y006500D01*
X008908Y006500D01*
X008813Y006460D01*
X008740Y006387D01*
X008700Y006292D01*
X008700Y006188D01*
X008740Y006093D01*
X008813Y006020D01*
X008733Y006109D02*
X000840Y006109D01*
X000840Y006187D02*
X008701Y006187D01*
X008700Y006266D02*
X000840Y006266D01*
X000840Y006344D02*
X007106Y006344D01*
X007093Y006350D02*
X007188Y006310D01*
X007292Y006310D01*
X007387Y006350D01*
X007460Y006423D01*
X007500Y006518D01*
X007500Y006622D01*
X007460Y006717D01*
X007387Y006790D01*
X007292Y006830D01*
X007188Y006830D01*
X007093Y006790D01*
X007020Y006717D01*
X006980Y006622D01*
X006980Y006518D01*
X007020Y006423D01*
X007093Y006350D01*
X007020Y006423D02*
X000840Y006423D01*
X000840Y006501D02*
X006987Y006501D01*
X006980Y006580D02*
X000840Y006580D01*
X000840Y006658D02*
X006995Y006658D01*
X007039Y006737D02*
X000840Y006737D01*
X000840Y006815D02*
X007152Y006815D01*
X007328Y006815D02*
X009627Y006815D01*
X009600Y006787D02*
X009673Y006860D01*
X009768Y006900D01*
X009872Y006900D01*
X009967Y006860D01*
X010040Y006787D01*
X010080Y006692D01*
X010080Y006588D01*
X010040Y006493D01*
X009967Y006420D01*
X009872Y006380D01*
X009768Y006380D01*
X009673Y006420D01*
X009600Y006493D01*
X009560Y006588D01*
X009560Y006692D01*
X009600Y006787D01*
X009579Y006737D02*
X007441Y006737D01*
X007485Y006658D02*
X009560Y006658D01*
X009564Y006580D02*
X007500Y006580D01*
X007493Y006501D02*
X009596Y006501D01*
X009670Y006423D02*
X009145Y006423D01*
X009198Y006344D02*
X013439Y006344D01*
X013448Y006340D02*
X013552Y006340D01*
X013647Y006380D01*
X013720Y006453D01*
X013760Y006548D01*
X013760Y006652D01*
X013720Y006747D01*
X013647Y006820D01*
X013588Y006845D01*
X013647Y006870D01*
X013720Y006943D01*
X013760Y007038D01*
X013760Y007142D01*
X013720Y007237D01*
X013647Y007310D01*
X013552Y007350D01*
X013448Y007350D01*
X013353Y007310D01*
X013280Y007237D01*
X013240Y007142D01*
X013240Y007038D01*
X013280Y006943D01*
X013353Y006870D01*
X013412Y006845D01*
X013353Y006820D01*
X013280Y006747D01*
X013240Y006652D01*
X013240Y006548D01*
X013280Y006453D01*
X013353Y006380D01*
X013448Y006340D01*
X013561Y006344D02*
X013776Y006344D01*
X013790Y006377D02*
X013750Y006282D01*
X013750Y006178D01*
X013790Y006083D01*
X013863Y006010D01*
X013958Y005970D01*
X014062Y005970D01*
X014157Y006010D01*
X014230Y006083D01*
X014270Y006178D01*
X014270Y006282D01*
X014230Y006377D01*
X014157Y006450D01*
X014062Y006490D01*
X013958Y006490D01*
X013863Y006450D01*
X013790Y006377D01*
X013835Y006423D02*
X013690Y006423D01*
X013740Y006501D02*
X015970Y006501D01*
X015950Y006548D02*
X015990Y006453D01*
X016063Y006380D01*
X016158Y006340D01*
X016262Y006340D01*
X016357Y006380D01*
X016430Y006453D01*
X016470Y006548D01*
X016470Y006652D01*
X016430Y006747D01*
X016357Y006820D01*
X016262Y006860D01*
X016158Y006860D01*
X016063Y006820D01*
X015990Y006747D01*
X015950Y006652D01*
X015950Y006548D01*
X015950Y006580D02*
X013760Y006580D01*
X013757Y006658D02*
X015953Y006658D01*
X015985Y006737D02*
X013725Y006737D01*
X013653Y006815D02*
X016057Y006815D01*
X016363Y006815D02*
X017470Y006815D01*
X017480Y006793D02*
X017440Y006888D01*
X017440Y006992D01*
X017480Y007087D01*
X017553Y007160D01*
X017648Y007200D01*
X017752Y007200D01*
X017847Y007160D01*
X017920Y007087D01*
X017960Y006992D01*
X017960Y006888D01*
X017920Y006793D01*
X017847Y006720D01*
X017752Y006680D01*
X017648Y006680D01*
X017553Y006720D01*
X017480Y006793D01*
X017536Y006737D02*
X016435Y006737D01*
X016467Y006658D02*
X018045Y006658D01*
X017965Y006580D02*
X016470Y006580D01*
X016450Y006501D02*
X017898Y006501D01*
X017865Y006423D02*
X016400Y006423D01*
X016271Y006344D02*
X017832Y006344D01*
X017832Y006266D02*
X014270Y006266D01*
X014270Y006187D02*
X017832Y006187D01*
X017849Y006109D02*
X014241Y006109D01*
X014178Y006030D02*
X017882Y006030D01*
X018489Y005795D02*
X019800Y005795D01*
X019800Y005873D02*
X018627Y005873D01*
X018705Y005952D02*
X019800Y005952D01*
X019800Y006030D02*
X018750Y006030D01*
X018782Y006109D02*
X019800Y006109D01*
X019800Y006187D02*
X018800Y006187D01*
X018800Y006266D02*
X019073Y006266D01*
X019071Y006266D02*
X019132Y006235D01*
X019198Y006214D01*
X019260Y006204D01*
X019260Y006600D01*
X018864Y006600D01*
X018874Y006538D01*
X018895Y006472D01*
X018926Y006411D01*
X018967Y006355D01*
X019015Y006307D01*
X019071Y006266D01*
X018978Y006344D02*
X018799Y006344D01*
X018766Y006423D02*
X018921Y006423D01*
X018886Y006501D02*
X018734Y006501D01*
X018667Y006580D02*
X018867Y006580D01*
X018864Y006680D02*
X019260Y006680D01*
X019260Y007076D01*
X019198Y007066D01*
X019132Y007045D01*
X019071Y007014D01*
X019015Y006973D01*
X018967Y006925D01*
X018926Y006869D01*
X018895Y006808D01*
X018874Y006742D01*
X018864Y006680D01*
X018873Y006737D02*
X017864Y006737D01*
X017930Y006815D02*
X018899Y006815D01*
X018944Y006894D02*
X017960Y006894D01*
X017960Y006972D02*
X019014Y006972D01*
X019150Y007051D02*
X017936Y007051D01*
X017879Y007129D02*
X019800Y007129D01*
X019800Y007051D02*
X019450Y007051D01*
X019468Y007045D02*
X019402Y007066D01*
X019340Y007076D01*
X019340Y006680D01*
X019260Y006680D01*
X019260Y006600D01*
X019340Y006600D01*
X019340Y006680D01*
X019736Y006680D01*
X019726Y006742D01*
X019705Y006808D01*
X019674Y006869D01*
X019633Y006925D01*
X019585Y006973D01*
X019529Y007014D01*
X019468Y007045D01*
X019340Y007051D02*
X019260Y007051D01*
X019260Y006972D02*
X019340Y006972D01*
X019340Y006894D02*
X019260Y006894D01*
X019260Y006815D02*
X019340Y006815D01*
X019340Y006737D02*
X019260Y006737D01*
X019260Y006658D02*
X018586Y006658D01*
X019260Y006580D02*
X019340Y006580D01*
X019340Y006600D02*
X019340Y006204D01*
X019402Y006214D01*
X019468Y006235D01*
X019529Y006266D01*
X019585Y006307D01*
X019633Y006355D01*
X019674Y006411D01*
X019705Y006472D01*
X019726Y006538D01*
X019736Y006600D01*
X019340Y006600D01*
X019340Y006658D02*
X019800Y006658D01*
X019800Y006580D02*
X019733Y006580D01*
X019714Y006501D02*
X019800Y006501D01*
X019800Y006423D02*
X019679Y006423D01*
X019622Y006344D02*
X019800Y006344D01*
X019800Y006266D02*
X019527Y006266D01*
X019340Y006266D02*
X019260Y006266D01*
X019260Y006344D02*
X019340Y006344D01*
X019340Y006423D02*
X019260Y006423D01*
X019260Y006501D02*
X019340Y006501D01*
X019727Y006737D02*
X019800Y006737D01*
X019800Y006815D02*
X019701Y006815D01*
X019656Y006894D02*
X019800Y006894D01*
X019800Y006972D02*
X019586Y006972D01*
X019800Y007208D02*
X013733Y007208D01*
X013760Y007129D02*
X017521Y007129D01*
X017464Y007051D02*
X013760Y007051D01*
X013733Y006972D02*
X017440Y006972D01*
X017440Y006894D02*
X013671Y006894D01*
X013347Y006815D02*
X010872Y006815D01*
X010907Y006830D02*
X010812Y006790D01*
X010708Y006790D01*
X010613Y006830D01*
X010550Y006892D01*
X010507Y006850D01*
X010412Y006810D01*
X010308Y006810D01*
X010213Y006850D01*
X010140Y006923D01*
X010100Y007018D01*
X010100Y007122D01*
X010140Y007217D01*
X010213Y007290D01*
X010308Y007330D01*
X010412Y007330D01*
X010507Y007290D01*
X010570Y007228D01*
X010613Y007270D01*
X010708Y007310D01*
X010812Y007310D01*
X010907Y007270D01*
X010980Y007197D01*
X011020Y007102D01*
X011020Y006998D01*
X010980Y006903D01*
X010907Y006830D01*
X010971Y006894D02*
X013329Y006894D01*
X013267Y006972D02*
X011830Y006972D01*
X011817Y006960D02*
X011890Y007033D01*
X011930Y007128D01*
X011930Y007232D01*
X011890Y007327D01*
X011817Y007400D01*
X011722Y007440D01*
X011662Y007440D01*
X011690Y007508D01*
X011690Y007612D01*
X011650Y007707D01*
X011577Y007780D01*
X011482Y007820D01*
X011378Y007820D01*
X011283Y007780D01*
X011210Y007707D01*
X011170Y007612D01*
X011170Y007508D01*
X011210Y007413D01*
X011283Y007340D01*
X011378Y007300D01*
X011438Y007300D01*
X011410Y007232D01*
X011410Y007128D01*
X011450Y007033D01*
X011523Y006960D01*
X011618Y006920D01*
X011722Y006920D01*
X011817Y006960D01*
X011898Y007051D02*
X013240Y007051D01*
X013240Y007129D02*
X011930Y007129D01*
X011930Y007208D02*
X013267Y007208D01*
X013328Y007286D02*
X011908Y007286D01*
X011853Y007365D02*
X019800Y007365D01*
X019800Y007443D02*
X011663Y007443D01*
X011690Y007522D02*
X019800Y007522D01*
X019800Y007600D02*
X011690Y007600D01*
X011662Y007679D02*
X019800Y007679D01*
X019800Y007757D02*
X011601Y007757D01*
X011259Y007757D02*
X001883Y007757D01*
X001889Y007763D02*
X001950Y007910D01*
X001950Y008070D01*
X001889Y008217D01*
X001777Y008329D01*
X001630Y008390D01*
X001470Y008390D01*
X001323Y008329D01*
X001211Y008217D01*
X001150Y008070D01*
X001150Y007910D01*
X001211Y007763D01*
X001323Y007651D01*
X001470Y007590D01*
X001630Y007590D01*
X001777Y007651D01*
X001889Y007763D01*
X001919Y007836D02*
X019800Y007836D01*
X019800Y007914D02*
X001950Y007914D01*
X001950Y007993D02*
X019800Y007993D01*
X019800Y008071D02*
X001949Y008071D01*
X001917Y008150D02*
X019800Y008150D01*
X019800Y008228D02*
X019418Y008228D01*
X019379Y008212D02*
X019525Y008272D01*
X019636Y008384D01*
X019697Y008530D01*
X019697Y008687D01*
X019636Y008833D01*
X019525Y008945D01*
X019379Y009005D01*
X019221Y009005D01*
X019075Y008945D01*
X018964Y008833D01*
X018903Y008687D01*
X018903Y008530D01*
X018964Y008384D01*
X019075Y008272D01*
X019221Y008212D01*
X019379Y008212D01*
X019182Y008228D02*
X001878Y008228D01*
X001799Y008307D02*
X015141Y008307D01*
X015153Y008295D02*
X015248Y008255D01*
X015352Y008255D01*
X015447Y008295D01*
X015520Y008368D01*
X015560Y008463D01*
X015560Y008567D01*
X015520Y008662D01*
X015503Y008680D01*
X015577Y008680D01*
X015672Y008720D01*
X015745Y008793D01*
X015785Y008888D01*
X015785Y008992D01*
X015759Y009055D01*
X015802Y009055D01*
X015897Y009095D01*
X015970Y009168D01*
X016010Y009263D01*
X016010Y009367D01*
X015970Y009462D01*
X015897Y009535D01*
X015802Y009575D01*
X015698Y009575D01*
X015603Y009535D01*
X015530Y009462D01*
X015490Y009367D01*
X015490Y009263D01*
X015516Y009200D01*
X015473Y009200D01*
X015378Y009160D01*
X015305Y009087D01*
X015265Y008992D01*
X015265Y008888D01*
X015305Y008793D01*
X015322Y008775D01*
X015248Y008775D01*
X015201Y008755D01*
X015235Y008838D01*
X015235Y008942D01*
X015195Y009037D01*
X015122Y009110D01*
X015027Y009150D01*
X014923Y009150D01*
X014828Y009110D01*
X014755Y009037D01*
X014715Y008942D01*
X014715Y008838D01*
X014755Y008743D01*
X014828Y008670D01*
X014923Y008630D01*
X015027Y008630D01*
X015074Y008650D01*
X015040Y008567D01*
X015040Y008463D01*
X015080Y008368D01*
X015153Y008295D01*
X015072Y008385D02*
X001642Y008385D01*
X001458Y008385D02*
X000840Y008385D01*
X000840Y008307D02*
X001301Y008307D01*
X001222Y008228D02*
X000840Y008228D01*
X000840Y008150D02*
X001183Y008150D01*
X001151Y008071D02*
X000840Y008071D01*
X000840Y007993D02*
X001150Y007993D01*
X001150Y007914D02*
X000840Y007914D01*
X000840Y007836D02*
X001181Y007836D01*
X001217Y007757D02*
X000840Y007757D01*
X000840Y007679D02*
X001296Y007679D01*
X001446Y007600D02*
X000840Y007600D01*
X000840Y007522D02*
X011170Y007522D01*
X011170Y007600D02*
X001654Y007600D01*
X001804Y007679D02*
X011198Y007679D01*
X011197Y007443D02*
X005203Y007443D01*
X005162Y007460D02*
X005058Y007460D01*
X004963Y007420D01*
X004890Y007347D01*
X004850Y007252D01*
X004850Y007148D01*
X004890Y007053D01*
X004963Y006980D01*
X005058Y006940D01*
X005162Y006940D01*
X005257Y006980D01*
X005330Y007053D01*
X005370Y007148D01*
X005370Y007252D01*
X005330Y007347D01*
X005257Y007420D01*
X005162Y007460D01*
X005017Y007443D02*
X000840Y007443D01*
X000840Y007365D02*
X004907Y007365D01*
X004864Y007286D02*
X000840Y007286D01*
X000840Y007208D02*
X004850Y007208D01*
X004858Y007129D02*
X000840Y007129D01*
X000840Y007051D02*
X004892Y007051D01*
X004981Y006972D02*
X000840Y006972D01*
X000840Y006894D02*
X009753Y006894D01*
X009887Y006894D02*
X010169Y006894D01*
X010119Y006972D02*
X005239Y006972D01*
X005328Y007051D02*
X010100Y007051D01*
X010103Y007129D02*
X005362Y007129D01*
X005370Y007208D02*
X010136Y007208D01*
X010208Y007286D02*
X005356Y007286D01*
X005313Y007365D02*
X011258Y007365D01*
X011432Y007286D02*
X010870Y007286D01*
X010970Y007208D02*
X011410Y007208D01*
X011410Y007129D02*
X011009Y007129D01*
X011020Y007051D02*
X011442Y007051D01*
X011510Y006972D02*
X011009Y006972D01*
X010648Y006815D02*
X010424Y006815D01*
X010296Y006815D02*
X010013Y006815D01*
X010061Y006737D02*
X013275Y006737D01*
X013243Y006658D02*
X010080Y006658D01*
X010076Y006580D02*
X013240Y006580D01*
X013260Y006501D02*
X010044Y006501D01*
X009970Y006423D02*
X013310Y006423D01*
X013750Y006266D02*
X009220Y006266D01*
X009219Y006187D02*
X013750Y006187D01*
X013779Y006109D02*
X009187Y006109D01*
X009118Y006030D02*
X013842Y006030D01*
X013605Y005638D02*
X013220Y005638D01*
X013267Y005559D02*
X013558Y005559D01*
X013540Y005481D02*
X013285Y005481D01*
X013280Y005402D02*
X013545Y005402D01*
X013577Y005324D02*
X013248Y005324D01*
X013173Y005245D02*
X013652Y005245D01*
X012877Y005245D02*
X012548Y005245D01*
X012594Y005324D02*
X012802Y005324D01*
X012770Y005402D02*
X012610Y005402D01*
X012604Y005481D02*
X012765Y005481D01*
X012783Y005559D02*
X012572Y005559D01*
X012492Y005638D02*
X012830Y005638D01*
X012208Y005638D02*
X009240Y005638D01*
X009290Y005559D02*
X012128Y005559D01*
X012096Y005481D02*
X009310Y005481D01*
X009307Y005402D02*
X012090Y005402D01*
X012106Y005324D02*
X009275Y005324D01*
X009203Y005245D02*
X012152Y005245D01*
X010402Y004460D02*
X009660Y004460D01*
X009649Y004382D02*
X010333Y004382D01*
X010301Y004303D02*
X009611Y004303D01*
X009511Y004225D02*
X010300Y004225D01*
X008722Y006344D02*
X007374Y006344D01*
X007460Y006423D02*
X008775Y006423D01*
X007380Y005088D02*
X006745Y005088D01*
X006722Y005110D02*
X006627Y005150D01*
X006523Y005150D01*
X006428Y005110D01*
X006355Y005037D01*
X006315Y004942D01*
X006315Y004838D01*
X006355Y004743D01*
X006428Y004670D01*
X006523Y004630D01*
X006627Y004630D01*
X006722Y004670D01*
X006795Y004743D01*
X006835Y004838D01*
X006835Y004942D01*
X006795Y005037D01*
X006722Y005110D01*
X006807Y005010D02*
X007318Y005010D01*
X007290Y004931D02*
X006835Y004931D01*
X006835Y004853D02*
X007290Y004853D01*
X007317Y004774D02*
X006808Y004774D01*
X006748Y004696D02*
X007377Y004696D01*
X006402Y004696D02*
X005598Y004696D01*
X005572Y004670D02*
X005645Y004743D01*
X005685Y004838D01*
X005685Y004942D01*
X005645Y005037D01*
X005572Y005110D01*
X005477Y005150D01*
X005373Y005150D01*
X005278Y005110D01*
X005205Y005037D01*
X005165Y004942D01*
X005165Y004838D01*
X005205Y004743D01*
X005278Y004670D01*
X005373Y004630D01*
X005477Y004630D01*
X005572Y004670D01*
X005658Y004774D02*
X006342Y004774D01*
X006315Y004853D02*
X005685Y004853D01*
X005685Y004931D02*
X006315Y004931D01*
X006343Y005010D02*
X005657Y005010D01*
X005595Y005088D02*
X006405Y005088D01*
X005255Y005088D02*
X004660Y005088D01*
X004722Y005010D02*
X005193Y005010D01*
X005165Y004931D02*
X004750Y004931D01*
X004750Y004853D02*
X005165Y004853D01*
X005192Y004774D02*
X004723Y004774D01*
X004663Y004696D02*
X005252Y004696D01*
X004860Y004068D02*
X002975Y004068D01*
X002943Y003989D02*
X004810Y003989D01*
X004790Y003911D02*
X002910Y003911D01*
X002878Y003832D02*
X004793Y003832D01*
X004825Y003754D02*
X002843Y003754D01*
X002764Y003675D02*
X004897Y003675D01*
X008693Y008590D02*
X008788Y008550D01*
X008892Y008550D01*
X008987Y008590D01*
X009060Y008663D01*
X009100Y008758D01*
X009100Y008862D01*
X009060Y008957D01*
X008987Y009030D01*
X008892Y009070D01*
X008788Y009070D01*
X008693Y009030D01*
X008620Y008957D01*
X008580Y008862D01*
X008580Y008758D01*
X008620Y008663D01*
X008693Y008590D01*
X008662Y008621D02*
X000840Y008621D01*
X000840Y008699D02*
X008605Y008699D01*
X008580Y008778D02*
X000840Y008778D01*
X000840Y008856D02*
X008580Y008856D01*
X008610Y008935D02*
X000840Y008935D01*
X000840Y009013D02*
X008675Y009013D01*
X009005Y009013D02*
X014745Y009013D01*
X014715Y008935D02*
X009070Y008935D01*
X009100Y008856D02*
X014715Y008856D01*
X014740Y008778D02*
X009100Y008778D01*
X009075Y008699D02*
X014798Y008699D01*
X015062Y008621D02*
X009018Y008621D01*
X009678Y010140D02*
X009782Y010140D01*
X009877Y010180D01*
X009950Y010253D01*
X009990Y010348D01*
X009990Y010452D01*
X009950Y010547D01*
X009943Y010555D01*
X010027Y010590D01*
X010100Y010663D01*
X010140Y010758D01*
X010140Y010862D01*
X010100Y010957D01*
X010027Y011030D01*
X009932Y011070D01*
X009838Y011070D01*
X009850Y011083D01*
X009890Y011178D01*
X009890Y011282D01*
X009850Y011377D01*
X009777Y011450D01*
X009682Y011490D01*
X009578Y011490D01*
X009483Y011450D01*
X009410Y011377D01*
X009370Y011282D01*
X009370Y011178D01*
X009410Y011083D01*
X009483Y011010D01*
X009578Y010970D01*
X009672Y010970D01*
X009660Y010957D01*
X009620Y010862D01*
X009620Y010758D01*
X009660Y010663D01*
X009667Y010655D01*
X009583Y010620D01*
X009510Y010547D01*
X009470Y010452D01*
X009470Y010348D01*
X009510Y010253D01*
X009583Y010180D01*
X009678Y010140D01*
X009572Y010191D02*
X005838Y010191D01*
X005840Y010193D02*
X005880Y010288D01*
X005880Y010392D01*
X005840Y010487D01*
X005767Y010560D01*
X005672Y010600D01*
X005568Y010600D01*
X005473Y010560D01*
X005400Y010487D01*
X005360Y010392D01*
X005360Y010288D01*
X005400Y010193D01*
X005466Y010127D01*
X005403Y010100D01*
X005330Y010027D01*
X005290Y009932D01*
X005290Y009828D01*
X005330Y009733D01*
X005403Y009660D01*
X005498Y009620D01*
X005602Y009620D01*
X005697Y009660D01*
X005770Y009733D01*
X005810Y009828D01*
X005810Y009932D01*
X005770Y010027D01*
X005704Y010093D01*
X005767Y010120D01*
X005840Y010193D01*
X005872Y010269D02*
X006183Y010269D01*
X006193Y010260D02*
X006288Y010220D01*
X006392Y010220D01*
X006487Y010260D01*
X006560Y010333D01*
X006600Y010428D01*
X006600Y010532D01*
X006560Y010627D01*
X006487Y010700D01*
X006392Y010740D01*
X006288Y010740D01*
X006193Y010700D01*
X006120Y010627D01*
X006080Y010532D01*
X006080Y010428D01*
X006120Y010333D01*
X006193Y010260D01*
X006113Y010348D02*
X005880Y010348D01*
X005866Y010426D02*
X006081Y010426D01*
X006080Y010505D02*
X005823Y010505D01*
X005713Y010583D02*
X006101Y010583D01*
X006154Y010662D02*
X000840Y010662D01*
X000840Y010740D02*
X001366Y010740D01*
X001381Y010732D02*
X001447Y010711D01*
X001510Y010701D01*
X001510Y011100D01*
X001590Y011100D01*
X001590Y011180D01*
X001989Y011180D01*
X001979Y011243D01*
X001958Y011309D01*
X001926Y011371D01*
X001886Y011427D01*
X001837Y011476D01*
X001781Y011516D01*
X001719Y011548D01*
X001653Y011569D01*
X001590Y011579D01*
X001590Y011180D01*
X001510Y011180D01*
X001510Y011579D01*
X001447Y011569D01*
X001381Y011548D01*
X001319Y011516D01*
X001263Y011476D01*
X001214Y011427D01*
X001174Y011371D01*
X001142Y011309D01*
X001121Y011243D01*
X001111Y011180D01*
X001510Y011180D01*
X001510Y011100D01*
X001111Y011100D01*
X001121Y011037D01*
X001142Y010971D01*
X001174Y010909D01*
X001214Y010853D01*
X001263Y010804D01*
X001319Y010764D01*
X001381Y010732D01*
X001510Y010740D02*
X001590Y010740D01*
X001590Y010701D02*
X001653Y010711D01*
X001719Y010732D01*
X001781Y010764D01*
X001837Y010804D01*
X001886Y010853D01*
X001926Y010909D01*
X001958Y010971D01*
X001979Y011037D01*
X001989Y011100D01*
X001590Y011100D01*
X001590Y010701D01*
X001590Y010819D02*
X001510Y010819D01*
X001510Y010897D02*
X001590Y010897D01*
X001590Y010976D02*
X001510Y010976D01*
X001510Y011054D02*
X001590Y011054D01*
X001590Y011133D02*
X007725Y011133D01*
X007753Y011160D02*
X007680Y011087D01*
X007640Y010992D01*
X007640Y010888D01*
X007680Y010793D01*
X007753Y010720D01*
X007848Y010680D01*
X007952Y010680D01*
X008047Y010720D01*
X008120Y010793D01*
X008160Y010888D01*
X008160Y010992D01*
X008120Y011087D01*
X008047Y011160D01*
X007952Y011200D01*
X007848Y011200D01*
X007753Y011160D01*
X007666Y011054D02*
X001982Y011054D01*
X001959Y010976D02*
X007640Y010976D01*
X007640Y010897D02*
X001917Y010897D01*
X001851Y010819D02*
X007669Y010819D01*
X007732Y010740D02*
X001734Y010740D01*
X001630Y010540D02*
X001470Y010540D01*
X001323Y010479D01*
X001211Y010367D01*
X001150Y010220D01*
X001150Y010060D01*
X001211Y009913D01*
X001323Y009801D01*
X001470Y009740D01*
X001630Y009740D01*
X001777Y009801D01*
X001889Y009913D01*
X001950Y010060D01*
X001950Y010220D01*
X001889Y010367D01*
X001777Y010479D01*
X001630Y010540D01*
X001715Y010505D02*
X005417Y010505D01*
X005374Y010426D02*
X001830Y010426D01*
X001897Y010348D02*
X005360Y010348D01*
X005368Y010269D02*
X001930Y010269D01*
X001950Y010191D02*
X005402Y010191D01*
X005431Y010112D02*
X001950Y010112D01*
X001939Y010034D02*
X005336Y010034D01*
X005300Y009955D02*
X001906Y009955D01*
X001852Y009877D02*
X005290Y009877D01*
X005303Y009798D02*
X003056Y009798D01*
X003052Y009800D02*
X002948Y009800D01*
X002853Y009760D01*
X002780Y009687D01*
X002740Y009592D01*
X002740Y009488D01*
X002780Y009393D01*
X002853Y009320D01*
X002948Y009280D01*
X003052Y009280D01*
X003147Y009320D01*
X003220Y009393D01*
X003260Y009488D01*
X003260Y009592D01*
X003220Y009687D01*
X003147Y009760D01*
X003052Y009800D01*
X002944Y009798D02*
X001770Y009798D01*
X001330Y009798D02*
X000840Y009798D01*
X000840Y009720D02*
X002812Y009720D01*
X002760Y009641D02*
X000840Y009641D01*
X000840Y009563D02*
X002740Y009563D01*
X002742Y009484D02*
X000840Y009484D01*
X000840Y009406D02*
X002774Y009406D01*
X002845Y009327D02*
X000840Y009327D01*
X000840Y009249D02*
X004200Y009249D01*
X004200Y009238D02*
X004240Y009143D01*
X004313Y009070D01*
X004408Y009030D01*
X004512Y009030D01*
X004607Y009070D01*
X004680Y009143D01*
X004720Y009238D01*
X004720Y009342D01*
X004680Y009437D01*
X004607Y009510D01*
X004512Y009550D01*
X004408Y009550D01*
X004313Y009510D01*
X004240Y009437D01*
X004200Y009342D01*
X004200Y009238D01*
X004228Y009170D02*
X000840Y009170D01*
X000840Y009092D02*
X004291Y009092D01*
X004200Y009327D02*
X003155Y009327D01*
X003226Y009406D02*
X004226Y009406D01*
X004286Y009484D02*
X003258Y009484D01*
X003260Y009563D02*
X011310Y009563D01*
X011290Y009583D02*
X011363Y009510D01*
X011458Y009470D01*
X011562Y009470D01*
X011657Y009510D01*
X011730Y009583D01*
X011770Y009678D01*
X011770Y009782D01*
X011730Y009877D01*
X011657Y009950D01*
X011562Y009990D01*
X011458Y009990D01*
X011363Y009950D01*
X011290Y009877D01*
X011250Y009782D01*
X011250Y009678D01*
X011290Y009583D01*
X011265Y009641D02*
X006972Y009641D01*
X007017Y009660D02*
X007090Y009733D01*
X007130Y009828D01*
X007130Y009932D01*
X007090Y010027D01*
X007017Y010100D01*
X006922Y010140D01*
X006818Y010140D01*
X006723Y010100D01*
X006650Y010027D01*
X006610Y009932D01*
X006610Y009828D01*
X006650Y009733D01*
X006723Y009660D01*
X006818Y009620D01*
X006922Y009620D01*
X007017Y009660D01*
X007077Y009720D02*
X011250Y009720D01*
X011257Y009798D02*
X007117Y009798D01*
X007130Y009877D02*
X011289Y009877D01*
X011374Y009955D02*
X011122Y009955D01*
X011157Y009970D02*
X011230Y010043D01*
X011270Y010138D01*
X011270Y010242D01*
X011230Y010337D01*
X011157Y010410D01*
X011062Y010450D01*
X010958Y010450D01*
X010863Y010410D01*
X010790Y010337D01*
X010750Y010242D01*
X010750Y010138D01*
X010790Y010043D01*
X010863Y009970D01*
X010958Y009930D01*
X011062Y009930D01*
X011157Y009970D01*
X011221Y010034D02*
X012365Y010034D01*
X012365Y009988D02*
X012405Y009893D01*
X012478Y009820D01*
X012573Y009780D01*
X012677Y009780D01*
X012772Y009820D01*
X012845Y009893D01*
X012885Y009988D01*
X012885Y010092D01*
X012845Y010187D01*
X012793Y010240D01*
X012845Y010293D01*
X012885Y010388D01*
X012885Y010492D01*
X012845Y010587D01*
X012800Y010632D01*
X012860Y010693D01*
X012900Y010788D01*
X012900Y010892D01*
X012860Y010987D01*
X012793Y011055D01*
X012850Y011113D01*
X012890Y011208D01*
X012890Y011312D01*
X012863Y011377D01*
X012917Y011400D01*
X012965Y011447D01*
X013013Y011400D01*
X013108Y011360D01*
X013212Y011360D01*
X013307Y011400D01*
X013360Y011452D01*
X013413Y011400D01*
X013508Y011360D01*
X013612Y011360D01*
X013707Y011400D01*
X013780Y011473D01*
X013820Y011568D01*
X013820Y011672D01*
X013780Y011767D01*
X013728Y011820D01*
X013780Y011873D01*
X013820Y011968D01*
X013820Y012072D01*
X013780Y012167D01*
X013707Y012240D01*
X013612Y012280D01*
X013508Y012280D01*
X013413Y012240D01*
X013340Y012167D01*
X013300Y012072D01*
X013300Y011968D01*
X013340Y011873D01*
X013392Y011820D01*
X013360Y011788D01*
X013307Y011840D01*
X013212Y011880D01*
X013108Y011880D01*
X013013Y011840D01*
X012965Y011793D01*
X012917Y011840D01*
X012822Y011880D01*
X012718Y011880D01*
X012623Y011840D01*
X012550Y011767D01*
X012510Y011672D01*
X012510Y011568D01*
X012537Y011503D01*
X012483Y011480D01*
X012410Y011407D01*
X012370Y011312D01*
X012370Y011208D01*
X012410Y011113D01*
X012477Y011045D01*
X012420Y010987D01*
X012380Y010892D01*
X012380Y010788D01*
X012420Y010693D01*
X012465Y010647D01*
X012405Y010587D01*
X012365Y010492D01*
X012365Y010388D01*
X012405Y010293D01*
X012457Y010240D01*
X012405Y010187D01*
X012365Y010092D01*
X012365Y009988D01*
X012379Y009955D02*
X011646Y009955D01*
X011731Y009877D02*
X012421Y009877D01*
X012530Y009798D02*
X011763Y009798D01*
X011770Y009720D02*
X019800Y009720D01*
X019800Y009798D02*
X019270Y009798D01*
X019277Y009801D02*
X019389Y009913D01*
X019450Y010060D01*
X019450Y010220D01*
X019389Y010367D01*
X019277Y010479D01*
X019130Y010540D01*
X018970Y010540D01*
X018823Y010479D01*
X018711Y010367D01*
X018650Y010220D01*
X018650Y010060D01*
X018711Y009913D01*
X018823Y009801D01*
X018970Y009740D01*
X019130Y009740D01*
X019277Y009801D01*
X019352Y009877D02*
X019800Y009877D01*
X019800Y009955D02*
X019406Y009955D01*
X019439Y010034D02*
X019800Y010034D01*
X019800Y010112D02*
X019450Y010112D01*
X019450Y010191D02*
X019800Y010191D01*
X019800Y010269D02*
X019430Y010269D01*
X019397Y010348D02*
X019800Y010348D01*
X019800Y010426D02*
X019330Y010426D01*
X019215Y010505D02*
X019800Y010505D01*
X019800Y010583D02*
X012847Y010583D01*
X012829Y010662D02*
X019800Y010662D01*
X019800Y010740D02*
X019234Y010740D01*
X019219Y010732D02*
X019281Y010764D01*
X019337Y010804D01*
X019386Y010853D01*
X019426Y010909D01*
X019458Y010971D01*
X019479Y011037D01*
X019489Y011100D01*
X019090Y011100D01*
X019090Y011180D01*
X019489Y011180D01*
X019479Y011243D01*
X019458Y011309D01*
X019426Y011371D01*
X019386Y011427D01*
X019337Y011476D01*
X019281Y011516D01*
X019219Y011548D01*
X019153Y011569D01*
X019090Y011579D01*
X019090Y011180D01*
X019010Y011180D01*
X019010Y011579D01*
X018947Y011569D01*
X018881Y011548D01*
X018819Y011516D01*
X018763Y011476D01*
X018714Y011427D01*
X018674Y011371D01*
X018642Y011309D01*
X018621Y011243D01*
X018611Y011180D01*
X019010Y011180D01*
X019010Y011100D01*
X019090Y011100D01*
X019090Y010701D01*
X019153Y010711D01*
X019219Y010732D01*
X019090Y010740D02*
X019010Y010740D01*
X019010Y010701D02*
X019010Y011100D01*
X018611Y011100D01*
X018621Y011037D01*
X018642Y010971D01*
X018674Y010909D01*
X018714Y010853D01*
X018763Y010804D01*
X018819Y010764D01*
X018881Y010732D01*
X018947Y010711D01*
X019010Y010701D01*
X019010Y010819D02*
X019090Y010819D01*
X019090Y010897D02*
X019010Y010897D01*
X019010Y010976D02*
X019090Y010976D01*
X019090Y011054D02*
X019010Y011054D01*
X019010Y011133D02*
X018076Y011133D01*
X018072Y011128D02*
X018118Y011175D01*
X018157Y011228D01*
X018187Y011286D01*
X018207Y011349D01*
X018216Y011406D01*
X017840Y011406D01*
X017840Y011030D01*
X017898Y011039D01*
X017960Y011060D01*
X018019Y011090D01*
X018072Y011128D01*
X018145Y011211D02*
X018616Y011211D01*
X018636Y011290D02*
X018188Y011290D01*
X018210Y011368D02*
X018672Y011368D01*
X018734Y011447D02*
X017840Y011447D01*
X017840Y011486D02*
X018216Y011486D01*
X018207Y011544D01*
X018187Y011606D01*
X018157Y011665D01*
X018118Y011718D01*
X018072Y011764D01*
X018019Y011803D01*
X017960Y011833D01*
X017898Y011853D01*
X017875Y011857D01*
X018014Y011914D01*
X018120Y012020D01*
X018177Y012159D01*
X018177Y012309D01*
X018120Y012447D01*
X018014Y012553D01*
X017875Y012611D01*
X017725Y012611D01*
X017586Y012553D01*
X017480Y012447D01*
X017423Y012309D01*
X017423Y012159D01*
X017480Y012020D01*
X017586Y011914D01*
X017725Y011857D01*
X017702Y011853D01*
X017640Y011833D01*
X017581Y011803D01*
X017528Y011764D01*
X017482Y011718D01*
X017443Y011665D01*
X017413Y011606D01*
X017393Y011544D01*
X017384Y011486D01*
X017760Y011486D01*
X017760Y011406D01*
X017840Y011406D01*
X017840Y011486D01*
X017760Y011447D02*
X013754Y011447D01*
X013802Y011525D02*
X017390Y011525D01*
X017412Y011604D02*
X013820Y011604D01*
X013816Y011682D02*
X017456Y011682D01*
X017524Y011761D02*
X013783Y011761D01*
X013747Y011839D02*
X017659Y011839D01*
X017583Y011918D02*
X013799Y011918D01*
X013820Y011996D02*
X017504Y011996D01*
X017458Y012075D02*
X014713Y012075D01*
X014702Y012070D02*
X014797Y012110D01*
X014870Y012183D01*
X014910Y012278D01*
X014910Y012382D01*
X014870Y012477D01*
X014797Y012550D01*
X014702Y012590D01*
X014598Y012590D01*
X014503Y012550D01*
X014455Y012503D01*
X014397Y012560D01*
X014302Y012600D01*
X014198Y012600D01*
X014103Y012560D01*
X014030Y012487D01*
X013990Y012392D01*
X013990Y012288D01*
X014030Y012193D01*
X014103Y012120D01*
X014198Y012080D01*
X014302Y012080D01*
X014397Y012120D01*
X014445Y012167D01*
X014503Y012110D01*
X014598Y012070D01*
X014702Y012070D01*
X014587Y012075D02*
X013819Y012075D01*
X013786Y012153D02*
X014069Y012153D01*
X014014Y012232D02*
X013716Y012232D01*
X013404Y012232D02*
X007138Y012232D01*
X007130Y012213D02*
X007170Y012308D01*
X007170Y012392D01*
X007213Y012350D01*
X007308Y012310D01*
X007170Y012310D01*
X007170Y012389D02*
X007174Y012389D01*
X007308Y012310D02*
X007412Y012310D01*
X013990Y012310D01*
X013990Y012389D02*
X012636Y012389D01*
X012592Y012370D02*
X012687Y012410D01*
X012760Y012483D01*
X012800Y012578D01*
X012800Y012650D01*
X012848Y012630D01*
X012952Y012630D01*
X013047Y012670D01*
X013120Y012743D01*
X013160Y012838D01*
X013160Y012942D01*
X013120Y013037D01*
X013047Y013110D01*
X012952Y013150D01*
X012848Y013150D01*
X012753Y013110D01*
X012680Y013037D01*
X012640Y012942D01*
X012640Y012870D01*
X012592Y012890D01*
X012488Y012890D01*
X012393Y012850D01*
X012320Y012777D01*
X012280Y012682D01*
X012280Y012578D01*
X012320Y012483D01*
X012393Y012410D01*
X012488Y012370D01*
X012592Y012370D01*
X012444Y012389D02*
X007546Y012389D01*
X007580Y012423D02*
X007620Y012518D01*
X007620Y012622D01*
X007580Y012717D01*
X007507Y012790D01*
X007412Y012830D01*
X007308Y012830D01*
X007213Y012790D01*
X007140Y012717D01*
X007100Y012622D01*
X007100Y012538D01*
X007057Y012580D01*
X006962Y012620D01*
X006858Y012620D01*
X006763Y012580D01*
X006690Y012507D01*
X006650Y012412D01*
X006650Y012308D01*
X006690Y012213D01*
X006763Y012140D01*
X006858Y012100D01*
X006962Y012100D01*
X007057Y012140D01*
X007130Y012213D01*
X007071Y012153D02*
X013334Y012153D01*
X013301Y012075D02*
X005509Y012075D01*
X005500Y012053D02*
X005540Y012148D01*
X005540Y012252D01*
X005500Y012347D01*
X005427Y012420D01*
X005332Y012460D01*
X005228Y012460D01*
X005133Y012420D01*
X005060Y012347D01*
X005020Y012252D01*
X005020Y012148D01*
X005060Y012053D01*
X005133Y011980D01*
X005228Y011940D01*
X005332Y011940D01*
X005427Y011980D01*
X005500Y012053D01*
X005444Y011996D02*
X013300Y011996D01*
X013321Y011918D02*
X001891Y011918D01*
X001889Y011913D02*
X001950Y012060D01*
X001950Y012220D01*
X001889Y012367D01*
X001777Y012479D01*
X001630Y012540D01*
X001470Y012540D01*
X001323Y012479D01*
X001211Y012367D01*
X001150Y012220D01*
X001150Y012060D01*
X001211Y011913D01*
X001323Y011801D01*
X001470Y011740D01*
X001630Y011740D01*
X001777Y011801D01*
X001889Y011913D01*
X001923Y011996D02*
X005116Y011996D01*
X005051Y012075D02*
X001950Y012075D01*
X001950Y012153D02*
X005020Y012153D01*
X005020Y012232D02*
X001945Y012232D01*
X001913Y012310D02*
X005044Y012310D01*
X005101Y012389D02*
X001867Y012389D01*
X001789Y012467D02*
X006673Y012467D01*
X006650Y012389D02*
X005459Y012389D01*
X005516Y012310D02*
X006650Y012310D01*
X006682Y012232D02*
X005540Y012232D01*
X005540Y012153D02*
X006749Y012153D01*
X006728Y012546D02*
X000840Y012546D01*
X000840Y012624D02*
X007101Y012624D01*
X007092Y012546D02*
X007100Y012546D01*
X007133Y012703D02*
X000840Y012703D01*
X000840Y012781D02*
X001371Y012781D01*
X001323Y012801D02*
X001470Y012740D01*
X001630Y012740D01*
X001777Y012801D01*
X001889Y012913D01*
X001950Y013060D01*
X001950Y013220D01*
X001889Y013367D01*
X001777Y013479D01*
X001630Y013540D01*
X001470Y013540D01*
X001323Y013479D01*
X001211Y013367D01*
X001150Y013220D01*
X001150Y013060D01*
X001211Y012913D01*
X001323Y012801D01*
X001265Y012860D02*
X000840Y012860D01*
X000840Y012938D02*
X001201Y012938D01*
X001168Y013017D02*
X000840Y013017D01*
X000840Y013095D02*
X001150Y013095D01*
X001150Y013174D02*
X000840Y013174D01*
X000840Y013252D02*
X001163Y013252D01*
X001196Y013331D02*
X000840Y013331D01*
X000840Y013409D02*
X001253Y013409D01*
X001344Y013488D02*
X000840Y013488D01*
X000840Y013566D02*
X006796Y013566D01*
X006783Y013560D02*
X006710Y013487D01*
X006670Y013392D01*
X006670Y013288D01*
X006710Y013193D01*
X006783Y013120D01*
X006878Y013080D01*
X006982Y013080D01*
X007077Y013120D01*
X007150Y013193D01*
X007190Y013288D01*
X007190Y013392D01*
X007150Y013487D01*
X007077Y013560D01*
X006982Y013600D01*
X006878Y013600D01*
X006783Y013560D01*
X006710Y013488D02*
X001756Y013488D01*
X001847Y013409D02*
X004301Y013409D01*
X004303Y013410D02*
X004230Y013337D01*
X004190Y013242D01*
X004190Y013138D01*
X004230Y013043D01*
X004303Y012970D01*
X004398Y012930D01*
X004502Y012930D01*
X004597Y012970D01*
X004670Y013043D01*
X004710Y013138D01*
X004710Y013242D01*
X004670Y013337D01*
X004597Y013410D01*
X004502Y013450D01*
X004398Y013450D01*
X004303Y013410D01*
X004227Y013331D02*
X001904Y013331D01*
X001937Y013252D02*
X004194Y013252D01*
X004190Y013174D02*
X001950Y013174D01*
X001950Y013095D02*
X004208Y013095D01*
X004256Y013017D02*
X001932Y013017D01*
X001899Y012938D02*
X004379Y012938D01*
X004521Y012938D02*
X005013Y012938D01*
X005020Y012923D02*
X005093Y012850D01*
X005188Y012810D01*
X005292Y012810D01*
X005387Y012850D01*
X005460Y012923D01*
X005500Y013018D01*
X005500Y013122D01*
X005460Y013217D01*
X005387Y013290D01*
X005292Y013330D01*
X005188Y013330D01*
X005093Y013290D01*
X005020Y013217D01*
X004980Y013122D01*
X004980Y013018D01*
X005020Y012923D01*
X005083Y012860D02*
X001835Y012860D01*
X001729Y012781D02*
X007203Y012781D01*
X007517Y012781D02*
X012323Y012781D01*
X012289Y012703D02*
X007587Y012703D01*
X007619Y012624D02*
X012280Y012624D01*
X012294Y012546D02*
X007620Y012546D01*
X007599Y012467D02*
X012335Y012467D01*
X012415Y012860D02*
X005397Y012860D01*
X005467Y012938D02*
X012640Y012938D01*
X012671Y013017D02*
X011784Y013017D01*
X011757Y012990D02*
X011830Y013063D01*
X011870Y013158D01*
X011870Y013262D01*
X011830Y013357D01*
X011757Y013430D01*
X011662Y013470D01*
X011558Y013470D01*
X011463Y013430D01*
X011390Y013357D01*
X011350Y013262D01*
X011350Y013158D01*
X011390Y013063D01*
X011463Y012990D01*
X011558Y012950D01*
X011662Y012950D01*
X011757Y012990D01*
X011844Y013095D02*
X012737Y013095D01*
X012647Y013270D02*
X012720Y013343D01*
X012760Y013438D01*
X012760Y013542D01*
X012720Y013637D01*
X012647Y013710D01*
X012552Y013750D01*
X012448Y013750D01*
X012353Y013710D01*
X012280Y013637D01*
X012240Y013542D01*
X012240Y013438D01*
X012280Y013343D01*
X012353Y013270D01*
X012448Y013230D01*
X012552Y013230D01*
X012647Y013270D01*
X012605Y013252D02*
X015590Y013252D01*
X015590Y013292D02*
X015590Y013188D01*
X015630Y013093D01*
X015703Y013020D01*
X015798Y012980D01*
X015902Y012980D01*
X015997Y013020D01*
X016070Y013093D01*
X016110Y013188D01*
X016110Y013292D01*
X016070Y013387D01*
X015997Y013460D01*
X015902Y013500D01*
X015798Y013500D01*
X015703Y013460D01*
X015630Y013387D01*
X015590Y013292D01*
X015606Y013331D02*
X012708Y013331D01*
X012748Y013409D02*
X015651Y013409D01*
X015653Y013540D02*
X015748Y013500D01*
X015852Y013500D01*
X015947Y013540D01*
X016020Y013613D01*
X016060Y013708D01*
X016060Y013812D01*
X016020Y013907D01*
X015947Y013980D01*
X015852Y014020D01*
X015748Y014020D01*
X015653Y013980D01*
X015580Y013907D01*
X015540Y013812D01*
X015540Y013708D01*
X015580Y013613D01*
X015653Y013540D01*
X015626Y013566D02*
X012750Y013566D01*
X012760Y013488D02*
X015768Y013488D01*
X015932Y013488D02*
X018844Y013488D01*
X018823Y013479D02*
X018711Y013367D01*
X018650Y013220D01*
X018650Y013060D01*
X018711Y012913D01*
X018823Y012801D01*
X018970Y012740D01*
X019130Y012740D01*
X019277Y012801D01*
X019389Y012913D01*
X019450Y013060D01*
X019450Y013220D01*
X019389Y013367D01*
X019277Y013479D01*
X019130Y013540D01*
X018970Y013540D01*
X018823Y013479D01*
X018753Y013409D02*
X016049Y013409D01*
X016094Y013331D02*
X018696Y013331D01*
X018663Y013252D02*
X016110Y013252D01*
X016104Y013174D02*
X018650Y013174D01*
X018650Y013095D02*
X016071Y013095D01*
X015990Y013017D02*
X018668Y013017D01*
X018701Y012938D02*
X013160Y012938D01*
X013160Y012860D02*
X018765Y012860D01*
X018871Y012781D02*
X013136Y012781D01*
X013080Y012703D02*
X019800Y012703D01*
X019800Y012781D02*
X019229Y012781D01*
X019335Y012860D02*
X019800Y012860D01*
X019800Y012938D02*
X019399Y012938D01*
X019432Y013017D02*
X019800Y013017D01*
X019800Y013095D02*
X019450Y013095D01*
X019450Y013174D02*
X019800Y013174D01*
X019800Y013252D02*
X019437Y013252D01*
X019404Y013331D02*
X019800Y013331D01*
X019800Y013409D02*
X019347Y013409D01*
X019256Y013488D02*
X019800Y013488D01*
X019800Y013566D02*
X015974Y013566D01*
X016034Y013645D02*
X019800Y013645D01*
X019800Y013723D02*
X016060Y013723D01*
X016060Y013802D02*
X018823Y013802D01*
X018823Y013801D02*
X018970Y013740D01*
X019130Y013740D01*
X019277Y013801D01*
X019389Y013913D01*
X019450Y014060D01*
X019450Y014220D01*
X019389Y014367D01*
X019277Y014479D01*
X019130Y014540D01*
X018970Y014540D01*
X018823Y014479D01*
X018711Y014367D01*
X018650Y014220D01*
X018650Y014060D01*
X018711Y013913D01*
X018823Y013801D01*
X018744Y013880D02*
X016032Y013880D01*
X015969Y013959D02*
X018692Y013959D01*
X018660Y014037D02*
X014446Y014037D01*
X014470Y014012D02*
X014397Y014085D01*
X014302Y014125D01*
X014198Y014125D01*
X014103Y014085D01*
X014030Y014012D01*
X013990Y013917D01*
X013990Y013813D01*
X014030Y013718D01*
X014103Y013645D01*
X013562Y013645D01*
X013557Y013640D02*
X013630Y013713D01*
X013670Y013808D01*
X013670Y013912D01*
X013630Y014007D01*
X013557Y014080D01*
X013462Y014120D01*
X013358Y014120D01*
X013263Y014080D01*
X013190Y014007D01*
X013150Y013912D01*
X013150Y013808D01*
X013190Y013713D01*
X013263Y013640D01*
X013358Y013600D01*
X013462Y013600D01*
X013557Y013640D01*
X013635Y013723D02*
X014027Y013723D01*
X013995Y013802D02*
X013667Y013802D01*
X013670Y013880D02*
X013990Y013880D01*
X014007Y013959D02*
X013651Y013959D01*
X013601Y014037D02*
X014054Y014037D01*
X014175Y014116D02*
X013472Y014116D01*
X013348Y014116D02*
X012953Y014116D01*
X012917Y014080D02*
X012990Y014153D01*
X013030Y014248D01*
X013030Y014332D01*
X013033Y014330D01*
X013128Y014290D01*
X013232Y014290D01*
X013327Y014330D01*
X013400Y014403D01*
X013440Y014498D01*
X013440Y014602D01*
X013400Y014697D01*
X013327Y014770D01*
X013232Y014810D01*
X013128Y014810D01*
X013033Y014770D01*
X012960Y014697D01*
X012920Y014602D01*
X012920Y014518D01*
X012917Y014520D01*
X012822Y014560D01*
X012718Y014560D01*
X012623Y014520D01*
X012550Y014447D01*
X012510Y014352D01*
X012510Y014248D01*
X012550Y014153D01*
X012623Y014080D01*
X012718Y014040D01*
X012822Y014040D01*
X012917Y014080D01*
X013008Y014194D02*
X018650Y014194D01*
X018650Y014116D02*
X014325Y014116D01*
X014470Y014012D02*
X014510Y013917D01*
X014510Y013813D01*
X014470Y013718D01*
X014397Y013645D01*
X015566Y013645D01*
X015540Y013723D02*
X014473Y013723D01*
X014505Y013802D02*
X015540Y013802D01*
X015568Y013880D02*
X014510Y013880D01*
X014493Y013959D02*
X015631Y013959D01*
X015672Y014710D02*
X015767Y014750D01*
X015840Y014823D01*
X015880Y014918D01*
X015880Y015022D01*
X015840Y015117D01*
X015767Y015190D01*
X015672Y015230D01*
X015568Y015230D01*
X015473Y015190D01*
X015400Y015117D01*
X015360Y015022D01*
X015360Y014918D01*
X015400Y014823D01*
X015473Y014750D01*
X015568Y014710D01*
X015672Y014710D01*
X015753Y014744D02*
X018962Y014744D01*
X018970Y014740D02*
X019130Y014740D01*
X019277Y014801D01*
X019389Y014913D01*
X019450Y015060D01*
X019450Y015220D01*
X019389Y015367D01*
X019277Y015479D01*
X019130Y015540D01*
X018970Y015540D01*
X018823Y015479D01*
X018711Y015367D01*
X018650Y015220D01*
X018650Y015060D01*
X018711Y014913D01*
X018823Y014801D01*
X018970Y014740D01*
X019138Y014744D02*
X019800Y014744D01*
X019800Y014822D02*
X019298Y014822D01*
X019376Y014901D02*
X019800Y014901D01*
X019800Y014979D02*
X019416Y014979D01*
X019449Y015058D02*
X019800Y015058D01*
X019800Y015136D02*
X019450Y015136D01*
X019450Y015215D02*
X019800Y015215D01*
X019800Y015293D02*
X019420Y015293D01*
X019384Y015372D02*
X019800Y015372D01*
X019800Y015450D02*
X019306Y015450D01*
X019157Y015529D02*
X019800Y015529D01*
X019800Y015607D02*
X011087Y015607D01*
X011117Y015620D02*
X011022Y015580D01*
X010918Y015580D01*
X010823Y015620D01*
X010750Y015693D01*
X010710Y015788D01*
X010710Y015892D01*
X010750Y015987D01*
X010823Y016060D01*
X010918Y016100D01*
X011022Y016100D01*
X011117Y016060D01*
X011190Y015987D01*
X011230Y015892D01*
X011230Y015788D01*
X011190Y015693D01*
X011117Y015620D01*
X011183Y015686D02*
X016360Y015686D01*
X016373Y015680D02*
X016477Y015680D01*
X016572Y015720D01*
X016645Y015793D01*
X016685Y015888D01*
X016685Y015992D01*
X016645Y016087D01*
X016572Y016160D01*
X016477Y016200D01*
X016373Y016200D01*
X016278Y016160D01*
X016205Y016087D01*
X016165Y015992D01*
X016165Y015888D01*
X016205Y015793D01*
X016278Y015720D01*
X016373Y015680D01*
X016490Y015686D02*
X019800Y015686D01*
X019800Y015764D02*
X019188Y015764D01*
X019130Y015740D02*
X019277Y015801D01*
X019389Y015913D01*
X019450Y016060D01*
X019450Y016220D01*
X019389Y016367D01*
X019277Y016479D01*
X019130Y016540D01*
X018970Y016540D01*
X018823Y016479D01*
X018711Y016367D01*
X018650Y016220D01*
X018650Y016060D01*
X018711Y015913D01*
X018823Y015801D01*
X018970Y015740D01*
X019130Y015740D01*
X019318Y015843D02*
X019800Y015843D01*
X019800Y015921D02*
X019392Y015921D01*
X019425Y016000D02*
X019800Y016000D01*
X019800Y016078D02*
X019450Y016078D01*
X019450Y016157D02*
X019800Y016157D01*
X019800Y016235D02*
X019444Y016235D01*
X019411Y016314D02*
X019800Y016314D01*
X019800Y016392D02*
X019364Y016392D01*
X019285Y016471D02*
X019800Y016471D01*
X019800Y016549D02*
X010237Y016549D01*
X010227Y016540D02*
X010300Y016613D01*
X010340Y016708D01*
X010340Y016812D01*
X010300Y016907D01*
X010227Y016980D01*
X010132Y017020D01*
X010028Y017020D01*
X009933Y016980D01*
X009860Y016907D01*
X009820Y016812D01*
X009820Y016708D01*
X009860Y016613D01*
X009933Y016540D01*
X010028Y016500D01*
X010132Y016500D01*
X010227Y016540D01*
X010307Y016628D02*
X019800Y016628D01*
X019800Y016706D02*
X010339Y016706D01*
X010340Y016785D02*
X018863Y016785D01*
X018823Y016801D02*
X018970Y016740D01*
X019130Y016740D01*
X019277Y016801D01*
X019389Y016913D01*
X019450Y017060D01*
X019450Y017220D01*
X019389Y017367D01*
X019277Y017479D01*
X019130Y017540D01*
X018970Y017540D01*
X018823Y017479D01*
X018711Y017367D01*
X018650Y017220D01*
X018650Y017060D01*
X018711Y016913D01*
X018823Y016801D01*
X018761Y016863D02*
X010319Y016863D01*
X010266Y016942D02*
X018699Y016942D01*
X018667Y017020D02*
X006423Y017020D01*
X006418Y017015D02*
X006470Y017068D01*
X006510Y017163D01*
X006510Y017267D01*
X006470Y017362D01*
X006418Y017415D01*
X006470Y017468D01*
X006510Y017563D01*
X006510Y017667D01*
X006470Y017762D01*
X006418Y017815D01*
X006470Y017868D01*
X006510Y017963D01*
X006510Y018067D01*
X006470Y018162D01*
X006397Y018235D01*
X006302Y018275D01*
X006198Y018275D01*
X006103Y018235D01*
X006030Y018162D01*
X005990Y018067D01*
X005990Y017963D01*
X006030Y017868D01*
X006082Y017815D01*
X006030Y017762D01*
X005990Y017667D01*
X005990Y017563D01*
X006030Y017468D01*
X006082Y017415D01*
X006030Y017362D01*
X005990Y017267D01*
X005990Y017163D01*
X006030Y017068D01*
X006082Y017015D01*
X006030Y016962D01*
X005990Y016867D01*
X005990Y016763D01*
X006030Y016668D01*
X006103Y016595D01*
X006198Y016555D01*
X006302Y016555D01*
X006397Y016595D01*
X006470Y016668D01*
X006510Y016763D01*
X006510Y016867D01*
X006470Y016962D01*
X006418Y017015D01*
X006479Y016942D02*
X009894Y016942D01*
X009841Y016863D02*
X006510Y016863D01*
X006510Y016785D02*
X009820Y016785D01*
X009821Y016706D02*
X006486Y016706D01*
X006430Y016628D02*
X009853Y016628D01*
X009923Y016549D02*
X000840Y016549D01*
X000840Y016471D02*
X001315Y016471D01*
X001323Y016479D02*
X001211Y016367D01*
X001150Y016220D01*
X001150Y016060D01*
X001211Y015913D01*
X001323Y015801D01*
X001470Y015740D01*
X001630Y015740D01*
X001777Y015801D01*
X001889Y015913D01*
X001950Y016060D01*
X001950Y016220D01*
X001889Y016367D01*
X001777Y016479D01*
X001630Y016540D01*
X001470Y016540D01*
X001323Y016479D01*
X001236Y016392D02*
X000840Y016392D01*
X000840Y016314D02*
X001189Y016314D01*
X001156Y016235D02*
X000840Y016235D01*
X000840Y016157D02*
X001150Y016157D01*
X001150Y016078D02*
X000840Y016078D01*
X000840Y016000D02*
X001175Y016000D01*
X001208Y015921D02*
X000840Y015921D01*
X000840Y015843D02*
X001282Y015843D01*
X001412Y015764D02*
X000840Y015764D01*
X000840Y015686D02*
X009820Y015686D01*
X009820Y015678D02*
X009860Y015583D01*
X009933Y015510D01*
X010028Y015470D01*
X010132Y015470D01*
X010227Y015510D01*
X010300Y015583D01*
X010340Y015678D01*
X010340Y015782D01*
X010300Y015877D01*
X010227Y015950D01*
X010132Y015990D01*
X010028Y015990D01*
X009933Y015950D01*
X009860Y015877D01*
X009820Y015782D01*
X009820Y015678D01*
X009850Y015607D02*
X000840Y015607D01*
X000840Y015529D02*
X001443Y015529D01*
X001470Y015540D02*
X001323Y015479D01*
X001211Y015367D01*
X001150Y015220D01*
X001150Y015060D01*
X001211Y014913D01*
X001323Y014801D01*
X001470Y014740D01*
X001630Y014740D01*
X001777Y014801D01*
X001889Y014913D01*
X001950Y015060D01*
X001950Y015220D01*
X001889Y015367D01*
X001777Y015479D01*
X001630Y015540D01*
X001470Y015540D01*
X001657Y015529D02*
X009431Y015529D01*
X009453Y015550D02*
X009380Y015477D01*
X009340Y015382D01*
X009340Y015278D01*
X009380Y015183D01*
X009453Y015110D01*
X009548Y015070D01*
X009592Y015070D01*
X009590Y015067D01*
X009550Y014972D01*
X009550Y014868D01*
X009590Y014773D01*
X009663Y014700D01*
X009758Y014660D01*
X009862Y014660D01*
X009957Y014700D01*
X010030Y014773D01*
X010070Y014868D01*
X010070Y014972D01*
X010030Y015067D01*
X009957Y015140D01*
X009862Y015180D01*
X009818Y015180D01*
X009820Y015183D01*
X009860Y015278D01*
X009860Y015382D01*
X009820Y015477D01*
X009747Y015550D01*
X009652Y015590D01*
X009548Y015590D01*
X009453Y015550D01*
X009368Y015450D02*
X001806Y015450D01*
X001884Y015372D02*
X006014Y015372D01*
X005980Y015337D02*
X006053Y015410D01*
X006148Y015450D01*
X006252Y015450D01*
X006347Y015410D01*
X006420Y015337D01*
X006460Y015242D01*
X006460Y015138D01*
X006420Y015043D01*
X006347Y014970D01*
X006252Y014930D01*
X006148Y014930D01*
X006053Y014970D01*
X005980Y015043D01*
X005940Y015138D01*
X005940Y015242D01*
X005980Y015337D01*
X005961Y015293D02*
X001920Y015293D01*
X001950Y015215D02*
X005940Y015215D01*
X005941Y015136D02*
X001950Y015136D01*
X001949Y015058D02*
X005973Y015058D01*
X006043Y014979D02*
X001916Y014979D01*
X001876Y014901D02*
X008655Y014901D01*
X008633Y014910D02*
X008728Y014870D01*
X008832Y014870D01*
X008927Y014910D01*
X009000Y014983D01*
X009040Y015078D01*
X009040Y015182D01*
X009000Y015277D01*
X008927Y015350D01*
X008832Y015390D01*
X008728Y015390D01*
X008633Y015350D01*
X008560Y015277D01*
X008520Y015182D01*
X008520Y015078D01*
X008560Y014983D01*
X008633Y014910D01*
X008563Y014979D02*
X006357Y014979D01*
X006427Y015058D02*
X008529Y015058D01*
X008520Y015136D02*
X006459Y015136D01*
X006460Y015215D02*
X008534Y015215D01*
X008575Y015293D02*
X006439Y015293D01*
X006386Y015372D02*
X008684Y015372D01*
X008876Y015372D02*
X009340Y015372D01*
X009340Y015293D02*
X008985Y015293D01*
X009026Y015215D02*
X009366Y015215D01*
X009426Y015136D02*
X009040Y015136D01*
X009031Y015058D02*
X009586Y015058D01*
X009553Y014979D02*
X008997Y014979D01*
X008905Y014901D02*
X009550Y014901D01*
X009569Y014822D02*
X001798Y014822D01*
X001638Y014744D02*
X009619Y014744D01*
X009746Y014665D02*
X000840Y014665D01*
X000840Y014587D02*
X011510Y014587D01*
X011520Y014563D02*
X011593Y014490D01*
X011686Y014451D01*
X011670Y014412D01*
X011670Y014308D01*
X011710Y014213D01*
X011783Y014140D01*
X011878Y014100D01*
X011982Y014100D01*
X012077Y014140D01*
X012150Y014213D01*
X012190Y014308D01*
X012190Y014412D01*
X012150Y014507D01*
X012077Y014580D01*
X011984Y014619D01*
X012000Y014658D01*
X012000Y014762D01*
X011960Y014857D01*
X011887Y014930D01*
X011792Y014970D01*
X011688Y014970D01*
X011593Y014930D01*
X011520Y014857D01*
X011480Y014762D01*
X011480Y014658D01*
X011520Y014563D01*
X011574Y014508D02*
X001707Y014508D01*
X001777Y014479D02*
X001630Y014540D01*
X001470Y014540D01*
X001323Y014479D01*
X001211Y014367D01*
X001150Y014220D01*
X001150Y014060D01*
X001211Y013913D01*
X001323Y013801D01*
X001470Y013740D01*
X001630Y013740D01*
X001777Y013801D01*
X001889Y013913D01*
X001950Y014060D01*
X001950Y014220D01*
X001889Y014367D01*
X001777Y014479D01*
X001826Y014430D02*
X005252Y014430D01*
X005273Y014450D02*
X005200Y014377D01*
X005160Y014282D01*
X005160Y014178D01*
X005200Y014083D01*
X005273Y014010D01*
X005368Y013970D01*
X005472Y013970D01*
X005567Y014010D01*
X005640Y014083D01*
X005680Y014178D01*
X005680Y014282D01*
X005640Y014377D01*
X005567Y014450D01*
X005472Y014490D01*
X005368Y014490D01*
X005273Y014450D01*
X005189Y014351D02*
X001896Y014351D01*
X001928Y014273D02*
X005160Y014273D01*
X005160Y014194D02*
X001950Y014194D01*
X001950Y014116D02*
X005186Y014116D01*
X005245Y014037D02*
X001940Y014037D01*
X001908Y013959D02*
X007947Y013959D01*
X007940Y013942D02*
X007940Y013838D01*
X007980Y013743D01*
X008053Y013670D01*
X008148Y013630D01*
X008252Y013630D01*
X008347Y013670D01*
X008420Y013743D01*
X008460Y013838D01*
X008460Y013942D01*
X008420Y014037D01*
X008347Y014110D01*
X008252Y014150D01*
X008148Y014150D01*
X008053Y014110D01*
X007980Y014037D01*
X007940Y013942D01*
X007940Y013880D02*
X001856Y013880D01*
X001777Y013802D02*
X007955Y013802D01*
X007999Y013723D02*
X000840Y013723D01*
X000840Y013645D02*
X008113Y013645D01*
X008287Y013645D02*
X010931Y013645D01*
X010930Y013642D02*
X010930Y013538D01*
X010970Y013443D01*
X011043Y013370D01*
X011138Y013330D01*
X011242Y013330D01*
X011337Y013370D01*
X011410Y013443D01*
X011450Y013538D01*
X011450Y013642D01*
X011410Y013737D01*
X011337Y013810D01*
X011242Y013850D01*
X011138Y013850D01*
X011043Y013810D01*
X010970Y013737D01*
X010930Y013642D01*
X010930Y013566D02*
X007064Y013566D01*
X007150Y013488D02*
X010951Y013488D01*
X011003Y013409D02*
X007183Y013409D01*
X007190Y013331D02*
X011137Y013331D01*
X011243Y013331D02*
X011379Y013331D01*
X011377Y013409D02*
X011441Y013409D01*
X011429Y013488D02*
X012240Y013488D01*
X012250Y013566D02*
X011450Y013566D01*
X011449Y013645D02*
X012287Y013645D01*
X012383Y013723D02*
X011416Y013723D01*
X011346Y013802D02*
X013153Y013802D01*
X013150Y013880D02*
X009938Y013880D01*
X009970Y013913D02*
X010010Y014008D01*
X010010Y014112D01*
X009970Y014207D01*
X009897Y014280D01*
X009802Y014320D01*
X009698Y014320D01*
X009603Y014280D01*
X009530Y014207D01*
X009490Y014112D01*
X009490Y014008D01*
X009530Y013913D01*
X009603Y013840D01*
X009698Y013800D01*
X009802Y013800D01*
X009897Y013840D01*
X009970Y013913D01*
X009989Y013959D02*
X013169Y013959D01*
X013219Y014037D02*
X010010Y014037D01*
X010008Y014116D02*
X011841Y014116D01*
X011728Y014194D02*
X009976Y014194D01*
X009905Y014273D02*
X011685Y014273D01*
X011670Y014351D02*
X005651Y014351D01*
X005680Y014273D02*
X009595Y014273D01*
X009524Y014194D02*
X005680Y014194D01*
X005654Y014116D02*
X008065Y014116D01*
X007979Y014037D02*
X005595Y014037D01*
X005588Y014430D02*
X011677Y014430D01*
X011480Y014665D02*
X009874Y014665D01*
X010001Y014744D02*
X011480Y014744D01*
X011505Y014822D02*
X010051Y014822D01*
X010070Y014901D02*
X011563Y014901D01*
X011917Y014901D02*
X015367Y014901D01*
X015360Y014979D02*
X010067Y014979D01*
X010034Y015058D02*
X015375Y015058D01*
X015418Y015136D02*
X009962Y015136D01*
X009834Y015215D02*
X015531Y015215D01*
X015709Y015215D02*
X017290Y015215D01*
X017280Y015238D02*
X017320Y015143D01*
X017393Y015070D01*
X017488Y015030D01*
X017592Y015030D01*
X017687Y015070D01*
X017760Y015143D01*
X017800Y015238D01*
X017800Y015342D01*
X017760Y015437D01*
X017687Y015510D01*
X017592Y015550D01*
X017488Y015550D01*
X017393Y015510D01*
X017320Y015437D01*
X017280Y015342D01*
X017280Y015238D01*
X017280Y015293D02*
X009860Y015293D01*
X009860Y015372D02*
X017292Y015372D01*
X017332Y015450D02*
X009832Y015450D01*
X009769Y015529D02*
X009914Y015529D01*
X009820Y015764D02*
X001688Y015764D01*
X001818Y015843D02*
X009602Y015843D01*
X009608Y015840D02*
X009712Y015840D01*
X009807Y015880D01*
X009880Y015953D01*
X009920Y016048D01*
X009920Y016152D01*
X009880Y016247D01*
X009807Y016320D01*
X009712Y016360D01*
X009608Y016360D01*
X009513Y016320D01*
X009440Y016247D01*
X009400Y016152D01*
X009400Y016048D01*
X009440Y015953D01*
X009513Y015880D01*
X009608Y015840D01*
X009718Y015843D02*
X009845Y015843D01*
X009849Y015921D02*
X009903Y015921D01*
X009900Y016000D02*
X010762Y016000D01*
X010722Y015921D02*
X010257Y015921D01*
X010315Y015843D02*
X010710Y015843D01*
X010720Y015764D02*
X010340Y015764D01*
X010340Y015686D02*
X010757Y015686D01*
X010853Y015607D02*
X010310Y015607D01*
X010246Y015529D02*
X017436Y015529D01*
X017644Y015529D02*
X018943Y015529D01*
X018794Y015450D02*
X017748Y015450D01*
X017788Y015372D02*
X018716Y015372D01*
X018680Y015293D02*
X017800Y015293D01*
X017790Y015215D02*
X018650Y015215D01*
X018650Y015136D02*
X017754Y015136D01*
X017658Y015058D02*
X018651Y015058D01*
X018684Y014979D02*
X015880Y014979D01*
X015873Y014901D02*
X018724Y014901D01*
X018802Y014822D02*
X015840Y014822D01*
X015865Y015058D02*
X017422Y015058D01*
X017326Y015136D02*
X015822Y015136D01*
X015487Y014744D02*
X013354Y014744D01*
X013414Y014665D02*
X019800Y014665D01*
X019800Y014587D02*
X013440Y014587D01*
X013440Y014508D02*
X018893Y014508D01*
X018774Y014430D02*
X013412Y014430D01*
X013349Y014351D02*
X018704Y014351D01*
X018672Y014273D02*
X013030Y014273D01*
X012920Y014587D02*
X012063Y014587D01*
X012000Y014665D02*
X012946Y014665D01*
X013006Y014744D02*
X012000Y014744D01*
X011975Y014822D02*
X015400Y014822D01*
X016233Y015764D02*
X011220Y015764D01*
X011230Y015843D02*
X011690Y015843D01*
X011703Y015830D02*
X011798Y015790D01*
X011902Y015790D01*
X011997Y015830D01*
X012070Y015903D01*
X012110Y015998D01*
X012110Y016102D01*
X012070Y016197D01*
X011997Y016270D01*
X011902Y016310D01*
X011798Y016310D01*
X011703Y016270D01*
X011630Y016197D01*
X011590Y016102D01*
X011590Y015998D01*
X011630Y015903D01*
X011703Y015830D01*
X011622Y015921D02*
X011218Y015921D01*
X011178Y016000D02*
X011590Y016000D01*
X011590Y016078D02*
X011075Y016078D01*
X010865Y016078D02*
X009920Y016078D01*
X009918Y016157D02*
X011613Y016157D01*
X011667Y016235D02*
X009885Y016235D01*
X009814Y016314D02*
X018689Y016314D01*
X018656Y016235D02*
X012033Y016235D01*
X012087Y016157D02*
X016274Y016157D01*
X016201Y016078D02*
X012110Y016078D01*
X012110Y016000D02*
X016168Y016000D01*
X016165Y015921D02*
X012078Y015921D01*
X012010Y015843D02*
X016184Y015843D01*
X016617Y015764D02*
X018912Y015764D01*
X018782Y015843D02*
X016666Y015843D01*
X016685Y015921D02*
X018708Y015921D01*
X018675Y016000D02*
X016682Y016000D01*
X016649Y016078D02*
X018650Y016078D01*
X018650Y016157D02*
X016576Y016157D01*
X014730Y017503D02*
X014657Y017430D01*
X014562Y017390D01*
X014458Y017390D01*
X014363Y017430D01*
X014290Y017503D01*
X014250Y017598D01*
X014250Y017702D01*
X014290Y017797D01*
X014363Y017870D01*
X014458Y017910D01*
X014562Y017910D01*
X014657Y017870D01*
X014730Y017797D01*
X014770Y017702D01*
X014770Y017598D01*
X014730Y017503D01*
X014719Y017491D02*
X018852Y017491D01*
X018757Y017413D02*
X014616Y017413D01*
X014758Y017570D02*
X019800Y017570D01*
X019800Y017648D02*
X014770Y017648D01*
X014760Y017727D02*
X019800Y017727D01*
X019800Y017805D02*
X019281Y017805D01*
X019277Y017801D02*
X019389Y017913D01*
X019450Y018060D01*
X019450Y018220D01*
X019389Y018367D01*
X019277Y018479D01*
X019130Y018540D01*
X018970Y018540D01*
X018823Y018479D01*
X018711Y018367D01*
X018650Y018220D01*
X018650Y018060D01*
X018711Y017913D01*
X018823Y017801D01*
X018970Y017740D01*
X019130Y017740D01*
X019277Y017801D01*
X019359Y017884D02*
X019800Y017884D01*
X019800Y017962D02*
X019409Y017962D01*
X019442Y018041D02*
X019800Y018041D01*
X019800Y018119D02*
X019450Y018119D01*
X019450Y018198D02*
X019800Y018198D01*
X019800Y018276D02*
X019427Y018276D01*
X019394Y018355D02*
X019800Y018355D01*
X019800Y018433D02*
X019323Y018433D01*
X019198Y018512D02*
X019800Y018512D01*
X019800Y018590D02*
X012250Y018590D01*
X012297Y018610D02*
X012370Y018683D01*
X012410Y018778D01*
X012410Y018882D01*
X012370Y018977D01*
X012297Y019050D01*
X012202Y019090D01*
X012098Y019090D01*
X012003Y019050D01*
X011930Y018977D01*
X011890Y018882D01*
X011890Y018778D01*
X011930Y018683D01*
X012003Y018610D01*
X012098Y018570D01*
X012202Y018570D01*
X012297Y018610D01*
X012356Y018669D02*
X019800Y018669D01*
X019800Y018747D02*
X019147Y018747D01*
X019130Y018740D02*
X019277Y018801D01*
X019389Y018913D01*
X019450Y019060D01*
X019450Y019220D01*
X019389Y019367D01*
X019277Y019479D01*
X019130Y019540D01*
X018970Y019540D01*
X018823Y019479D01*
X018711Y019367D01*
X018650Y019220D01*
X018650Y019060D01*
X018711Y018913D01*
X018823Y018801D01*
X018970Y018740D01*
X019130Y018740D01*
X018953Y018747D02*
X015235Y018747D01*
X015270Y018783D02*
X015310Y018878D01*
X015310Y018982D01*
X015270Y019077D01*
X015197Y019150D01*
X015102Y019190D01*
X014998Y019190D01*
X014903Y019150D01*
X014830Y019077D01*
X014790Y018982D01*
X014790Y018878D01*
X014830Y018783D01*
X014903Y018710D01*
X014998Y018670D01*
X015102Y018670D01*
X015197Y018710D01*
X015270Y018783D01*
X015288Y018826D02*
X018799Y018826D01*
X018720Y018904D02*
X015310Y018904D01*
X015310Y018983D02*
X018682Y018983D01*
X018650Y019061D02*
X015277Y019061D01*
X015208Y019140D02*
X018650Y019140D01*
X018650Y019218D02*
X017139Y019218D01*
X017167Y019230D02*
X017240Y019303D01*
X017280Y019398D01*
X017280Y019502D01*
X017240Y019597D01*
X017167Y019670D01*
X017072Y019710D01*
X016968Y019710D01*
X016873Y019670D01*
X016800Y019597D01*
X016760Y019502D01*
X016760Y019398D01*
X016800Y019303D01*
X016873Y019230D01*
X016968Y019190D01*
X017072Y019190D01*
X017167Y019230D01*
X017234Y019297D02*
X018682Y019297D01*
X018719Y019375D02*
X017270Y019375D01*
X017280Y019454D02*
X018798Y019454D01*
X018951Y019532D02*
X017511Y019532D01*
X017482Y019520D02*
X017577Y019560D01*
X017650Y019633D01*
X017690Y019728D01*
X017690Y019832D01*
X017650Y019927D01*
X017577Y020000D01*
X017482Y020040D01*
X017378Y020040D01*
X017283Y020000D01*
X017210Y019927D01*
X017170Y019832D01*
X017170Y019728D01*
X017210Y019633D01*
X017283Y019560D01*
X017378Y019520D01*
X017482Y019520D01*
X017349Y019532D02*
X017267Y019532D01*
X017232Y019611D02*
X017227Y019611D01*
X017186Y019689D02*
X017122Y019689D01*
X017170Y019768D02*
X016086Y019768D01*
X016127Y019750D02*
X016032Y019790D01*
X015928Y019790D01*
X015833Y019750D01*
X015760Y019677D01*
X015720Y019582D01*
X015720Y019478D01*
X015760Y019383D01*
X015833Y019310D01*
X015928Y019270D01*
X016032Y019270D01*
X016127Y019310D01*
X016200Y019383D01*
X016240Y019478D01*
X016240Y019582D01*
X016200Y019677D01*
X016127Y019750D01*
X016189Y019689D02*
X016918Y019689D01*
X016813Y019611D02*
X016228Y019611D01*
X016240Y019532D02*
X016773Y019532D01*
X016760Y019454D02*
X016230Y019454D01*
X016193Y019375D02*
X016770Y019375D01*
X016806Y019297D02*
X016096Y019297D01*
X015864Y019297D02*
X014030Y019297D01*
X014030Y019278D02*
X014030Y019382D01*
X013990Y019477D01*
X013917Y019550D01*
X013822Y019590D01*
X013718Y019590D01*
X013623Y019550D01*
X013550Y019477D01*
X013510Y019382D01*
X013510Y019298D01*
X013497Y019310D01*
X013402Y019350D01*
X013298Y019350D01*
X013203Y019310D01*
X013130Y019237D01*
X013090Y019142D01*
X013090Y019038D01*
X013130Y018943D01*
X013203Y018870D01*
X013298Y018830D01*
X013402Y018830D01*
X013497Y018870D01*
X013570Y018943D01*
X013610Y019038D01*
X013610Y019122D01*
X013623Y019110D01*
X013718Y019070D01*
X013822Y019070D01*
X013841Y019078D01*
X013830Y019052D01*
X013830Y018948D01*
X013870Y018853D01*
X013943Y018780D01*
X014038Y018740D01*
X014142Y018740D01*
X014237Y018780D01*
X014271Y018813D01*
X014280Y018793D01*
X014353Y018720D01*
X014448Y018680D01*
X014552Y018680D01*
X014647Y018720D01*
X014720Y018793D01*
X014760Y018888D01*
X014760Y018992D01*
X014720Y019087D01*
X014647Y019160D01*
X014552Y019200D01*
X014448Y019200D01*
X014353Y019160D01*
X014319Y019127D01*
X014310Y019147D01*
X014237Y019220D01*
X014142Y019260D01*
X014038Y019260D01*
X014019Y019252D01*
X014030Y019278D01*
X014030Y019375D02*
X015767Y019375D01*
X015730Y019454D02*
X014000Y019454D01*
X013936Y019532D02*
X015720Y019532D01*
X015732Y019611D02*
X012708Y019611D01*
X012697Y019600D02*
X012770Y019673D01*
X012810Y019768D01*
X012810Y019872D01*
X012770Y019967D01*
X012697Y020040D01*
X012602Y020080D01*
X012498Y020080D01*
X012403Y020040D01*
X012330Y019967D01*
X012290Y019872D01*
X012290Y019768D01*
X012330Y019673D01*
X012403Y019600D01*
X012498Y019560D01*
X012602Y019560D01*
X012697Y019600D01*
X012777Y019689D02*
X015771Y019689D01*
X015874Y019768D02*
X012810Y019768D01*
X012810Y019846D02*
X017176Y019846D01*
X017208Y019925D02*
X012788Y019925D01*
X012735Y020003D02*
X012999Y020003D01*
X013003Y020000D02*
X013098Y019960D01*
X013202Y019960D01*
X013297Y020000D01*
X013370Y020073D01*
X013410Y020168D01*
X013410Y020272D01*
X013370Y020367D01*
X013297Y020440D01*
X013202Y020480D01*
X013126Y020480D01*
X013197Y020510D01*
X013270Y020583D01*
X013310Y020678D01*
X013310Y020782D01*
X013270Y020877D01*
X013197Y020950D01*
X013102Y020990D01*
X012998Y020990D01*
X012903Y020950D01*
X012830Y020877D01*
X012790Y020782D01*
X012790Y020678D01*
X012830Y020583D01*
X012903Y020510D01*
X012998Y020470D01*
X013074Y020470D01*
X013003Y020440D01*
X012930Y020367D01*
X012890Y020272D01*
X012890Y020168D01*
X012930Y020073D01*
X013003Y020000D01*
X012926Y020082D02*
X002671Y020082D01*
X002749Y020160D02*
X012893Y020160D01*
X012890Y020239D02*
X002828Y020239D01*
X002847Y020258D02*
X002990Y020603D01*
X002990Y020977D01*
X002847Y021322D01*
X002582Y021587D01*
X002237Y021730D01*
X001863Y021730D01*
X001518Y021587D01*
X001253Y021322D01*
X001110Y020977D01*
X001110Y020603D01*
X001253Y020258D01*
X001518Y019993D01*
X001863Y019850D01*
X002237Y019850D01*
X002582Y019993D01*
X002847Y020258D01*
X002872Y020317D02*
X012909Y020317D01*
X012958Y020396D02*
X002904Y020396D01*
X002937Y020474D02*
X012988Y020474D01*
X012860Y020553D02*
X002969Y020553D01*
X002990Y020631D02*
X010141Y020631D01*
X010153Y020620D02*
X010080Y020693D01*
X010040Y020788D01*
X002990Y020788D01*
X002990Y020710D02*
X010073Y020710D01*
X010040Y020788D02*
X010040Y020892D01*
X010080Y020987D01*
X010153Y021060D01*
X010248Y021100D01*
X010352Y021100D01*
X010447Y021060D01*
X010520Y020987D01*
X010560Y020892D01*
X010560Y020788D01*
X012793Y020788D01*
X012790Y020710D02*
X010527Y020710D01*
X010520Y020693D02*
X010560Y020788D01*
X010560Y020867D02*
X012825Y020867D01*
X012897Y020945D02*
X010538Y020945D01*
X010484Y021024D02*
X013886Y021024D01*
X013903Y021040D02*
X013830Y020967D01*
X013790Y020872D01*
X013790Y020768D01*
X013830Y020673D01*
X013903Y020600D01*
X013998Y020560D01*
X014102Y020560D01*
X014197Y020600D01*
X014270Y020673D01*
X014310Y020768D01*
X014310Y020850D01*
X014330Y020803D01*
X014403Y020730D01*
X014498Y020690D01*
X014602Y020690D01*
X014697Y020730D01*
X014770Y020803D01*
X014810Y020898D01*
X014810Y021002D01*
X014770Y021097D01*
X014697Y021170D01*
X014602Y021210D01*
X014498Y021210D01*
X014403Y021170D01*
X014330Y021097D01*
X014290Y021002D01*
X014290Y020920D01*
X014270Y020967D01*
X014197Y021040D01*
X014102Y021080D01*
X013998Y021080D01*
X013903Y021040D01*
X013820Y020945D02*
X013203Y020945D01*
X013275Y020867D02*
X013790Y020867D01*
X013790Y020788D02*
X013307Y020788D01*
X013310Y020710D02*
X013814Y020710D01*
X013871Y020631D02*
X013290Y020631D01*
X013240Y020553D02*
X016835Y020553D01*
X016820Y020537D02*
X016780Y020442D01*
X016780Y020338D01*
X016820Y020243D01*
X016893Y020170D01*
X016988Y020130D01*
X017092Y020130D01*
X017187Y020170D01*
X017260Y020243D01*
X017300Y020338D01*
X017300Y020442D01*
X017260Y020537D01*
X017187Y020610D01*
X017092Y020650D01*
X016988Y020650D01*
X016893Y020610D01*
X016820Y020537D01*
X016793Y020474D02*
X013216Y020474D01*
X013342Y020396D02*
X016780Y020396D01*
X016789Y020317D02*
X013391Y020317D01*
X013410Y020239D02*
X016824Y020239D01*
X016916Y020160D02*
X013407Y020160D01*
X013374Y020082D02*
X017929Y020082D01*
X017851Y020160D02*
X017164Y020160D01*
X017256Y020239D02*
X017772Y020239D01*
X017753Y020258D02*
X018018Y019993D01*
X018363Y019850D01*
X018737Y019850D01*
X019082Y019993D01*
X019347Y020258D01*
X019490Y020603D01*
X019490Y020977D01*
X019347Y021322D01*
X019082Y021587D01*
X018737Y021730D01*
X018363Y021730D01*
X018018Y021587D01*
X017753Y021322D01*
X017610Y020977D01*
X017610Y020603D01*
X017753Y020258D01*
X017728Y020317D02*
X017291Y020317D01*
X017300Y020396D02*
X017696Y020396D01*
X017663Y020474D02*
X017287Y020474D01*
X017245Y020553D02*
X017631Y020553D01*
X017610Y020631D02*
X017137Y020631D01*
X016943Y020631D02*
X014229Y020631D01*
X014286Y020710D02*
X014451Y020710D01*
X014344Y020788D02*
X014310Y020788D01*
X014290Y020945D02*
X014280Y020945D01*
X014299Y021024D02*
X014214Y021024D01*
X014334Y021102D02*
X002938Y021102D01*
X002906Y021181D02*
X010219Y021181D01*
X010173Y021200D02*
X010268Y021160D01*
X010372Y021160D01*
X010467Y021200D01*
X010540Y021273D01*
X010580Y021368D01*
X010580Y021472D01*
X010540Y021567D01*
X010467Y021640D01*
X010372Y021680D01*
X010268Y021680D01*
X010173Y021640D01*
X010100Y021567D01*
X010060Y021472D01*
X010060Y021368D01*
X010100Y021273D01*
X010173Y021200D01*
X010113Y021259D02*
X002873Y021259D01*
X002832Y021338D02*
X010073Y021338D01*
X010060Y021416D02*
X002753Y021416D01*
X002675Y021495D02*
X010069Y021495D01*
X010105Y021573D02*
X002596Y021573D01*
X002426Y021652D02*
X010200Y021652D01*
X010440Y021652D02*
X018174Y021652D01*
X018004Y021573D02*
X017505Y021573D01*
X017540Y021537D02*
X017467Y021610D01*
X017372Y021650D01*
X017268Y021650D01*
X017173Y021610D01*
X017100Y021537D01*
X017060Y021442D01*
X017060Y021338D01*
X017100Y021243D01*
X017173Y021170D01*
X017268Y021130D01*
X017372Y021130D01*
X017467Y021170D01*
X017540Y021243D01*
X017580Y021338D01*
X017580Y021442D01*
X017540Y021537D01*
X017558Y021495D02*
X017925Y021495D01*
X017847Y021416D02*
X017580Y021416D01*
X017580Y021338D02*
X017768Y021338D01*
X017727Y021259D02*
X017547Y021259D01*
X017478Y021181D02*
X017694Y021181D01*
X017662Y021102D02*
X015777Y021102D01*
X015770Y021117D02*
X015698Y021190D01*
X015750Y021243D01*
X015790Y021338D01*
X015790Y021442D01*
X015750Y021537D01*
X015677Y021610D01*
X015582Y021650D01*
X015478Y021650D01*
X015383Y021610D01*
X015310Y021537D01*
X015270Y021442D01*
X015270Y021338D01*
X015310Y021243D01*
X015382Y021170D01*
X015330Y021117D01*
X015290Y021022D01*
X015290Y020918D01*
X015330Y020823D01*
X015403Y020750D01*
X015498Y020710D01*
X015602Y020710D01*
X015697Y020750D01*
X015770Y020823D01*
X015810Y020918D01*
X015810Y021022D01*
X015770Y021117D01*
X015707Y021181D02*
X017162Y021181D01*
X017093Y021259D02*
X015757Y021259D01*
X015790Y021338D02*
X017060Y021338D01*
X017060Y021416D02*
X015790Y021416D01*
X015768Y021495D02*
X017082Y021495D01*
X017135Y021573D02*
X015715Y021573D01*
X015345Y021573D02*
X010535Y021573D01*
X010571Y021495D02*
X015292Y021495D01*
X015270Y021416D02*
X010580Y021416D01*
X010567Y021338D02*
X015270Y021338D01*
X015303Y021259D02*
X010527Y021259D01*
X010421Y021181D02*
X014427Y021181D01*
X014673Y021181D02*
X015372Y021181D01*
X015323Y021102D02*
X014766Y021102D01*
X014801Y021024D02*
X015291Y021024D01*
X015290Y020945D02*
X014810Y020945D01*
X014797Y020867D02*
X015311Y020867D01*
X015364Y020788D02*
X014756Y020788D01*
X014649Y020710D02*
X017610Y020710D01*
X017610Y020788D02*
X015736Y020788D01*
X015789Y020867D02*
X017610Y020867D01*
X017610Y020945D02*
X015810Y020945D01*
X015809Y021024D02*
X017629Y021024D01*
X017571Y020003D02*
X018008Y020003D01*
X018183Y019925D02*
X017652Y019925D01*
X017684Y019846D02*
X019800Y019846D01*
X019800Y019768D02*
X017690Y019768D01*
X017674Y019689D02*
X019800Y019689D01*
X019800Y019611D02*
X017628Y019611D01*
X017289Y020003D02*
X013301Y020003D01*
X013604Y019532D02*
X011980Y019532D01*
X011990Y019543D02*
X011917Y019470D01*
X011822Y019430D01*
X011718Y019430D01*
X011623Y019470D01*
X011550Y019543D01*
X011510Y019638D01*
X011510Y019742D01*
X011550Y019837D01*
X011623Y019910D01*
X011718Y019950D01*
X011822Y019950D01*
X011917Y019910D01*
X011990Y019837D01*
X012030Y019742D01*
X012030Y019638D01*
X011990Y019543D01*
X012019Y019611D02*
X012392Y019611D01*
X012323Y019689D02*
X012030Y019689D01*
X012019Y019768D02*
X012290Y019768D01*
X012290Y019846D02*
X011982Y019846D01*
X011883Y019925D02*
X012312Y019925D01*
X012365Y020003D02*
X002592Y020003D01*
X002417Y019925D02*
X011657Y019925D01*
X011558Y019846D02*
X000840Y019846D01*
X000840Y019768D02*
X011521Y019768D01*
X011510Y019689D02*
X005519Y019689D01*
X005497Y019710D02*
X005402Y019750D01*
X005298Y019750D01*
X005203Y019710D01*
X005130Y019637D01*
X005090Y019542D01*
X005090Y019438D01*
X005130Y019343D01*
X005203Y019270D01*
X005298Y019230D01*
X005316Y019230D01*
X005290Y019167D01*
X005290Y019063D01*
X005330Y018968D01*
X005403Y018895D01*
X005498Y018855D01*
X005602Y018855D01*
X005697Y018895D01*
X005770Y018968D01*
X005810Y019063D01*
X005810Y019167D01*
X005770Y019262D01*
X005697Y019335D01*
X005602Y019375D01*
X005584Y019375D01*
X005965Y019375D01*
X005965Y019363D02*
X006005Y019268D01*
X006078Y019195D01*
X006173Y019155D01*
X006277Y019155D01*
X006372Y019195D01*
X006445Y019268D01*
X006485Y019363D01*
X006485Y019467D01*
X006445Y019562D01*
X006372Y019635D01*
X006277Y019675D01*
X006173Y019675D01*
X006078Y019635D01*
X006005Y019562D01*
X005965Y019467D01*
X005965Y019363D01*
X005993Y019297D02*
X005736Y019297D01*
X005789Y019218D02*
X006054Y019218D01*
X005965Y019454D02*
X005610Y019454D01*
X005610Y019438D02*
X005584Y019375D01*
X005610Y019438D02*
X005610Y019542D01*
X005570Y019637D01*
X005497Y019710D01*
X005581Y019611D02*
X006053Y019611D01*
X005992Y019532D02*
X005610Y019532D01*
X005311Y019218D02*
X001950Y019218D01*
X001950Y019220D02*
X001889Y019367D01*
X001777Y019479D01*
X001630Y019540D01*
X001470Y019540D01*
X001323Y019479D01*
X001211Y019367D01*
X001150Y019220D01*
X001150Y019060D01*
X001211Y018913D01*
X001323Y018801D01*
X001470Y018740D01*
X001630Y018740D01*
X001777Y018801D01*
X001889Y018913D01*
X001950Y019060D01*
X001950Y019220D01*
X001950Y019140D02*
X005290Y019140D01*
X005291Y019061D02*
X001950Y019061D01*
X001918Y018983D02*
X005323Y018983D01*
X005393Y018904D02*
X001880Y018904D01*
X001801Y018826D02*
X010497Y018826D01*
X010480Y018843D02*
X010553Y018770D01*
X010648Y018730D01*
X010752Y018730D01*
X010847Y018770D01*
X010920Y018843D01*
X010960Y018938D01*
X010960Y019042D01*
X010920Y019137D01*
X010847Y019210D01*
X010752Y019250D01*
X010648Y019250D01*
X010553Y019210D01*
X010480Y019137D01*
X010440Y019042D01*
X010440Y018938D01*
X010480Y018843D01*
X010454Y018904D02*
X005707Y018904D01*
X005777Y018983D02*
X010440Y018983D01*
X010448Y019061D02*
X005809Y019061D01*
X005810Y019140D02*
X010482Y019140D01*
X010571Y019218D02*
X006396Y019218D01*
X006457Y019297D02*
X013189Y019297D01*
X013122Y019218D02*
X010829Y019218D01*
X010918Y019140D02*
X013090Y019140D01*
X013090Y019061D02*
X012272Y019061D01*
X012365Y018983D02*
X013113Y018983D01*
X013168Y018904D02*
X012401Y018904D01*
X012410Y018826D02*
X013897Y018826D01*
X013848Y018904D02*
X013532Y018904D01*
X013587Y018983D02*
X013830Y018983D01*
X013834Y019061D02*
X013610Y019061D01*
X013510Y019375D02*
X006485Y019375D01*
X006485Y019454D02*
X011661Y019454D01*
X011560Y019532D02*
X006458Y019532D01*
X006397Y019611D02*
X011521Y019611D01*
X011879Y019454D02*
X013540Y019454D01*
X014240Y019218D02*
X016901Y019218D01*
X018706Y018355D02*
X011373Y018355D01*
X011407Y018340D02*
X011312Y018380D01*
X011208Y018380D01*
X011113Y018340D01*
X011040Y018267D01*
X011000Y018172D01*
X011000Y018068D01*
X011040Y017973D01*
X011113Y017900D01*
X011208Y017860D01*
X011312Y017860D01*
X011407Y017900D01*
X011480Y017973D01*
X011520Y018068D01*
X011520Y018172D01*
X011480Y018267D01*
X011407Y018340D01*
X011472Y018276D02*
X018673Y018276D01*
X018650Y018198D02*
X011509Y018198D01*
X011520Y018119D02*
X018650Y018119D01*
X018658Y018041D02*
X011509Y018041D01*
X011470Y017962D02*
X018691Y017962D01*
X018741Y017884D02*
X014626Y017884D01*
X014723Y017805D02*
X018819Y017805D01*
X018697Y017334D02*
X006482Y017334D01*
X006510Y017256D02*
X018665Y017256D01*
X018650Y017177D02*
X006510Y017177D01*
X006483Y017099D02*
X018650Y017099D01*
X019237Y016785D02*
X019800Y016785D01*
X019800Y016863D02*
X019339Y016863D01*
X019401Y016942D02*
X019800Y016942D01*
X019800Y017020D02*
X019433Y017020D01*
X019450Y017099D02*
X019800Y017099D01*
X019800Y017177D02*
X019450Y017177D01*
X019435Y017256D02*
X019800Y017256D01*
X019800Y017334D02*
X019403Y017334D01*
X019343Y017413D02*
X019800Y017413D01*
X019800Y017491D02*
X019248Y017491D01*
X018777Y018433D02*
X008810Y018433D01*
X008810Y018398D02*
X008770Y018303D01*
X008697Y018230D01*
X008602Y018190D01*
X008498Y018190D01*
X008403Y018230D01*
X008330Y018303D01*
X008290Y018398D01*
X008290Y018502D01*
X008330Y018597D01*
X008403Y018670D01*
X008498Y018710D01*
X008602Y018710D01*
X008697Y018670D01*
X008770Y018597D01*
X008810Y018502D01*
X008810Y018398D01*
X008792Y018355D02*
X011147Y018355D01*
X011048Y018276D02*
X008744Y018276D01*
X008620Y018198D02*
X011011Y018198D01*
X011000Y018119D02*
X006488Y018119D01*
X006510Y018041D02*
X011011Y018041D01*
X011050Y017962D02*
X006509Y017962D01*
X006477Y017884D02*
X011151Y017884D01*
X011369Y017884D02*
X013196Y017884D01*
X013203Y017890D02*
X013130Y017817D01*
X013090Y017722D01*
X013090Y017618D01*
X013130Y017523D01*
X013203Y017450D01*
X013298Y017410D01*
X013402Y017410D01*
X013497Y017450D01*
X013570Y017523D01*
X013610Y017618D01*
X013610Y017722D01*
X013570Y017817D01*
X013497Y017890D01*
X013402Y017930D01*
X013298Y017930D01*
X013203Y017890D01*
X013125Y017805D02*
X006428Y017805D01*
X006485Y017727D02*
X013092Y017727D01*
X013090Y017648D02*
X006510Y017648D01*
X006510Y017570D02*
X013110Y017570D01*
X013161Y017491D02*
X006480Y017491D01*
X006420Y017413D02*
X013292Y017413D01*
X013408Y017413D02*
X014404Y017413D01*
X014301Y017491D02*
X013539Y017491D01*
X013590Y017570D02*
X014262Y017570D01*
X014250Y017648D02*
X013610Y017648D01*
X013608Y017727D02*
X014260Y017727D01*
X014297Y017805D02*
X013575Y017805D01*
X013504Y017884D02*
X014394Y017884D01*
X014325Y018747D02*
X014159Y018747D01*
X014021Y018747D02*
X012397Y018747D01*
X012050Y018590D02*
X008773Y018590D01*
X008806Y018512D02*
X018902Y018512D01*
X019301Y018826D02*
X019800Y018826D01*
X019800Y018904D02*
X019380Y018904D01*
X019418Y018983D02*
X019800Y018983D01*
X019800Y019061D02*
X019450Y019061D01*
X019450Y019140D02*
X019800Y019140D01*
X019800Y019218D02*
X019450Y019218D01*
X019418Y019297D02*
X019800Y019297D01*
X019800Y019375D02*
X019381Y019375D01*
X019302Y019454D02*
X019800Y019454D01*
X019800Y019532D02*
X019149Y019532D01*
X018917Y019925D02*
X019800Y019925D01*
X019800Y020003D02*
X019092Y020003D01*
X019171Y020082D02*
X019800Y020082D01*
X019800Y020160D02*
X019249Y020160D01*
X019328Y020239D02*
X019800Y020239D01*
X019800Y020317D02*
X019372Y020317D01*
X019404Y020396D02*
X019800Y020396D01*
X019800Y020474D02*
X019437Y020474D01*
X019469Y020553D02*
X019800Y020553D01*
X019800Y020631D02*
X019490Y020631D01*
X019490Y020710D02*
X019800Y020710D01*
X019800Y020788D02*
X019490Y020788D01*
X019490Y020867D02*
X019800Y020867D01*
X019800Y020945D02*
X019490Y020945D01*
X019471Y021024D02*
X019800Y021024D01*
X019800Y021102D02*
X019438Y021102D01*
X019406Y021181D02*
X019800Y021181D01*
X019800Y021259D02*
X019373Y021259D01*
X019332Y021338D02*
X019800Y021338D01*
X019800Y021416D02*
X019253Y021416D01*
X019175Y021495D02*
X019800Y021495D01*
X019800Y021573D02*
X019096Y021573D01*
X018926Y021652D02*
X019800Y021652D01*
X019800Y021730D02*
X000840Y021730D01*
X000840Y021652D02*
X001674Y021652D01*
X001504Y021573D02*
X000840Y021573D01*
X000840Y021495D02*
X001425Y021495D01*
X001347Y021416D02*
X000840Y021416D01*
X000840Y021338D02*
X001268Y021338D01*
X001227Y021259D02*
X000840Y021259D01*
X000840Y021181D02*
X001194Y021181D01*
X001162Y021102D02*
X000840Y021102D01*
X000840Y021024D02*
X001129Y021024D01*
X001110Y020945D02*
X000840Y020945D01*
X000840Y020867D02*
X001110Y020867D01*
X001110Y020788D02*
X000840Y020788D01*
X000840Y020710D02*
X001110Y020710D01*
X001110Y020631D02*
X000840Y020631D01*
X000840Y020553D02*
X001131Y020553D01*
X001163Y020474D02*
X000840Y020474D01*
X000840Y020396D02*
X001196Y020396D01*
X001228Y020317D02*
X000840Y020317D01*
X000840Y020239D02*
X001272Y020239D01*
X001351Y020160D02*
X000840Y020160D01*
X000840Y020082D02*
X001429Y020082D01*
X001508Y020003D02*
X000840Y020003D01*
X000840Y019925D02*
X001683Y019925D01*
X001649Y019532D02*
X005090Y019532D01*
X005090Y019454D02*
X001802Y019454D01*
X001881Y019375D02*
X005116Y019375D01*
X005176Y019297D02*
X001918Y019297D01*
X001451Y019532D02*
X000840Y019532D01*
X000840Y019454D02*
X001298Y019454D01*
X001219Y019375D02*
X000840Y019375D01*
X000840Y019297D02*
X001182Y019297D01*
X001150Y019218D02*
X000840Y019218D01*
X000840Y019140D02*
X001150Y019140D01*
X001150Y019061D02*
X000840Y019061D01*
X000840Y018983D02*
X001182Y018983D01*
X001220Y018904D02*
X000840Y018904D01*
X000840Y018826D02*
X001299Y018826D01*
X001453Y018747D02*
X000840Y018747D01*
X000840Y018669D02*
X008401Y018669D01*
X008327Y018590D02*
X000840Y018590D01*
X000840Y018512D02*
X001402Y018512D01*
X001470Y018540D02*
X001323Y018479D01*
X001211Y018367D01*
X001150Y018220D01*
X001150Y018060D01*
X001211Y017913D01*
X001323Y017801D01*
X001470Y017740D01*
X001630Y017740D01*
X001777Y017801D01*
X001889Y017913D01*
X001950Y018060D01*
X001950Y018220D01*
X001889Y018367D01*
X001777Y018479D01*
X001630Y018540D01*
X001470Y018540D01*
X001277Y018433D02*
X000840Y018433D01*
X000840Y018355D02*
X001206Y018355D01*
X001173Y018276D02*
X000840Y018276D01*
X000840Y018198D02*
X001150Y018198D01*
X001150Y018119D02*
X000840Y018119D01*
X000840Y018041D02*
X001158Y018041D01*
X001191Y017962D02*
X000840Y017962D01*
X000840Y017884D02*
X001241Y017884D01*
X001319Y017805D02*
X000840Y017805D01*
X000840Y017727D02*
X006015Y017727D01*
X005990Y017648D02*
X000840Y017648D01*
X000840Y017570D02*
X005990Y017570D01*
X006020Y017491D02*
X001748Y017491D01*
X001777Y017479D02*
X001630Y017540D01*
X001470Y017540D01*
X001323Y017479D01*
X001211Y017367D01*
X001150Y017220D01*
X001150Y017060D01*
X001211Y016913D01*
X001323Y016801D01*
X001470Y016740D01*
X001630Y016740D01*
X001777Y016801D01*
X001889Y016913D01*
X001950Y017060D01*
X001950Y017220D01*
X001889Y017367D01*
X001777Y017479D01*
X001843Y017413D02*
X006080Y017413D01*
X006018Y017334D02*
X001903Y017334D01*
X001935Y017256D02*
X005990Y017256D01*
X005990Y017177D02*
X001950Y017177D01*
X001950Y017099D02*
X006017Y017099D01*
X006077Y017020D02*
X001933Y017020D01*
X001901Y016942D02*
X006021Y016942D01*
X005990Y016863D02*
X001839Y016863D01*
X001737Y016785D02*
X005990Y016785D01*
X006014Y016706D02*
X000840Y016706D01*
X000840Y016628D02*
X006070Y016628D01*
X006072Y017805D02*
X001781Y017805D01*
X001859Y017884D02*
X006023Y017884D01*
X005991Y017962D02*
X001909Y017962D01*
X001942Y018041D02*
X005012Y018041D01*
X005043Y018010D02*
X005138Y017970D01*
X005242Y017970D01*
X005337Y018010D01*
X005410Y018083D01*
X005450Y018178D01*
X005450Y018282D01*
X005410Y018377D01*
X005337Y018450D01*
X005242Y018490D01*
X005138Y018490D01*
X005043Y018450D01*
X004970Y018377D01*
X004930Y018282D01*
X004930Y018178D01*
X004970Y018083D01*
X005043Y018010D01*
X004955Y018119D02*
X001950Y018119D01*
X001950Y018198D02*
X004930Y018198D01*
X004930Y018276D02*
X001927Y018276D01*
X001894Y018355D02*
X004960Y018355D01*
X005025Y018433D02*
X001823Y018433D01*
X001698Y018512D02*
X008294Y018512D01*
X008290Y018433D02*
X005355Y018433D01*
X005420Y018355D02*
X008308Y018355D01*
X008356Y018276D02*
X005450Y018276D01*
X005450Y018198D02*
X006065Y018198D01*
X006012Y018119D02*
X005425Y018119D01*
X005368Y018041D02*
X005990Y018041D01*
X006435Y018198D02*
X008480Y018198D01*
X008699Y018669D02*
X011944Y018669D01*
X011903Y018747D02*
X010793Y018747D01*
X010903Y018826D02*
X011890Y018826D01*
X011899Y018904D02*
X010946Y018904D01*
X010960Y018983D02*
X011935Y018983D01*
X012028Y019061D02*
X010952Y019061D01*
X010607Y018747D02*
X001647Y018747D01*
X000840Y019611D02*
X005119Y019611D01*
X005181Y019689D02*
X000840Y019689D01*
X000840Y017491D02*
X001352Y017491D01*
X001257Y017413D02*
X000840Y017413D01*
X000840Y017334D02*
X001197Y017334D01*
X001165Y017256D02*
X000840Y017256D01*
X000840Y017177D02*
X001150Y017177D01*
X001150Y017099D02*
X000840Y017099D01*
X000840Y017020D02*
X001167Y017020D01*
X001199Y016942D02*
X000840Y016942D01*
X000840Y016863D02*
X001261Y016863D01*
X001363Y016785D02*
X000840Y016785D01*
X001785Y016471D02*
X018815Y016471D01*
X018736Y016392D02*
X001864Y016392D01*
X001911Y016314D02*
X009506Y016314D01*
X009435Y016235D02*
X001944Y016235D01*
X001950Y016157D02*
X009402Y016157D01*
X009400Y016078D02*
X001950Y016078D01*
X001925Y016000D02*
X009420Y016000D01*
X009471Y015921D02*
X001892Y015921D01*
X001294Y015450D02*
X000840Y015450D01*
X000840Y015372D02*
X001216Y015372D01*
X001180Y015293D02*
X000840Y015293D01*
X000840Y015215D02*
X001150Y015215D01*
X001150Y015136D02*
X000840Y015136D01*
X000840Y015058D02*
X001151Y015058D01*
X001184Y014979D02*
X000840Y014979D01*
X000840Y014901D02*
X001224Y014901D01*
X001302Y014822D02*
X000840Y014822D01*
X000840Y014744D02*
X001462Y014744D01*
X001393Y014508D02*
X000840Y014508D01*
X000840Y014430D02*
X001274Y014430D01*
X001204Y014351D02*
X000840Y014351D01*
X000840Y014273D02*
X001172Y014273D01*
X001150Y014194D02*
X000840Y014194D01*
X000840Y014116D02*
X001150Y014116D01*
X001160Y014037D02*
X000840Y014037D01*
X000840Y013959D02*
X001192Y013959D01*
X001244Y013880D02*
X000840Y013880D01*
X000840Y013802D02*
X001323Y013802D01*
X001311Y012467D02*
X000840Y012467D01*
X000840Y012389D02*
X001233Y012389D01*
X001187Y012310D02*
X000840Y012310D01*
X000840Y012232D02*
X001155Y012232D01*
X001150Y012153D02*
X000840Y012153D01*
X000840Y012075D02*
X001150Y012075D01*
X001177Y011996D02*
X000840Y011996D01*
X000840Y011918D02*
X001209Y011918D01*
X001285Y011839D02*
X000840Y011839D01*
X000840Y011761D02*
X001421Y011761D01*
X001336Y011525D02*
X000840Y011525D01*
X000840Y011447D02*
X001234Y011447D01*
X001172Y011368D02*
X000840Y011368D01*
X000840Y011290D02*
X001136Y011290D01*
X001116Y011211D02*
X000840Y011211D01*
X000840Y011133D02*
X001510Y011133D01*
X001510Y011211D02*
X001590Y011211D01*
X001590Y011290D02*
X001510Y011290D01*
X001510Y011368D02*
X001590Y011368D01*
X001590Y011447D02*
X001510Y011447D01*
X001510Y011525D02*
X001590Y011525D01*
X001764Y011525D02*
X006962Y011525D01*
X006980Y011567D02*
X006940Y011472D01*
X006940Y011368D01*
X001928Y011368D01*
X001964Y011290D02*
X006973Y011290D01*
X006980Y011273D02*
X007053Y011200D01*
X007148Y011160D01*
X007252Y011160D01*
X007347Y011200D01*
X007420Y011273D01*
X007460Y011368D01*
X009406Y011368D01*
X009373Y011290D02*
X007427Y011290D01*
X007460Y011368D02*
X007460Y011472D01*
X007420Y011567D01*
X007347Y011640D01*
X007252Y011680D01*
X007148Y011680D01*
X007053Y011640D01*
X006980Y011567D01*
X007016Y011604D02*
X000840Y011604D01*
X000840Y011682D02*
X012514Y011682D01*
X012510Y011604D02*
X007384Y011604D01*
X007438Y011525D02*
X012528Y011525D01*
X012449Y011447D02*
X009781Y011447D01*
X009854Y011368D02*
X012393Y011368D01*
X012370Y011290D02*
X009887Y011290D01*
X009890Y011211D02*
X012370Y011211D01*
X012401Y011133D02*
X009871Y011133D01*
X009970Y011054D02*
X012468Y011054D01*
X012415Y010976D02*
X010082Y010976D01*
X010125Y010897D02*
X012382Y010897D01*
X012380Y010819D02*
X012049Y010819D01*
X012027Y010840D02*
X011932Y010880D01*
X011828Y010880D01*
X011733Y010840D01*
X011660Y010767D01*
X011642Y010724D01*
X011640Y010727D01*
X011567Y010800D01*
X011472Y010840D01*
X011368Y010840D01*
X011273Y010800D01*
X011200Y010727D01*
X011160Y010632D01*
X011160Y010528D01*
X011200Y010433D01*
X011273Y010360D01*
X011368Y010320D01*
X011472Y010320D01*
X011567Y010360D01*
X011640Y010433D01*
X011658Y010476D01*
X011660Y010473D01*
X011733Y010400D01*
X011828Y010360D01*
X011932Y010360D01*
X012027Y010400D01*
X012100Y010473D01*
X012140Y010568D01*
X012140Y010672D01*
X012100Y010767D01*
X012027Y010840D01*
X012112Y010740D02*
X012400Y010740D01*
X012451Y010662D02*
X012140Y010662D01*
X012140Y010583D02*
X012403Y010583D01*
X012370Y010505D02*
X012114Y010505D01*
X012054Y010426D02*
X012365Y010426D01*
X012382Y010348D02*
X011538Y010348D01*
X011634Y010426D02*
X011706Y010426D01*
X011648Y010740D02*
X011628Y010740D01*
X011711Y010819D02*
X011524Y010819D01*
X011316Y010819D02*
X010140Y010819D01*
X010132Y010740D02*
X011212Y010740D01*
X011172Y010662D02*
X010596Y010662D01*
X010552Y010680D02*
X010448Y010680D01*
X010353Y010640D01*
X010280Y010567D01*
X010240Y010472D01*
X010240Y010368D01*
X010280Y010273D01*
X010353Y010200D01*
X010448Y010160D01*
X010552Y010160D01*
X010647Y010200D01*
X010720Y010273D01*
X010760Y010368D01*
X010760Y010472D01*
X010720Y010567D01*
X010647Y010640D01*
X010552Y010680D01*
X010404Y010662D02*
X010099Y010662D01*
X010011Y010583D02*
X010295Y010583D01*
X010254Y010505D02*
X009968Y010505D01*
X009990Y010426D02*
X010240Y010426D01*
X010249Y010348D02*
X009990Y010348D01*
X009957Y010269D02*
X010283Y010269D01*
X010375Y010191D02*
X009888Y010191D01*
X009503Y010269D02*
X006497Y010269D01*
X006567Y010348D02*
X009470Y010348D01*
X009470Y010426D02*
X006599Y010426D01*
X006600Y010505D02*
X009492Y010505D01*
X009545Y010583D02*
X006579Y010583D01*
X006526Y010662D02*
X009661Y010662D01*
X009628Y010740D02*
X008068Y010740D01*
X008131Y010819D02*
X009620Y010819D01*
X009635Y010897D02*
X008160Y010897D01*
X008160Y010976D02*
X009565Y010976D01*
X009438Y011054D02*
X008134Y011054D01*
X008075Y011133D02*
X009389Y011133D01*
X009370Y011211D02*
X007359Y011211D01*
X007460Y011447D02*
X009479Y011447D01*
X010705Y010583D02*
X011160Y010583D01*
X011170Y010505D02*
X010746Y010505D01*
X010760Y010426D02*
X010900Y010426D01*
X010800Y010348D02*
X010751Y010348D01*
X010761Y010269D02*
X010717Y010269D01*
X010750Y010191D02*
X010625Y010191D01*
X010761Y010112D02*
X006989Y010112D01*
X007084Y010034D02*
X010799Y010034D01*
X010898Y009955D02*
X007120Y009955D01*
X006751Y010112D02*
X005749Y010112D01*
X005764Y010034D02*
X006656Y010034D01*
X006620Y009955D02*
X005800Y009955D01*
X005810Y009877D02*
X006610Y009877D01*
X006623Y009798D02*
X005797Y009798D01*
X005757Y009720D02*
X006663Y009720D01*
X006768Y009641D02*
X005652Y009641D01*
X005448Y009641D02*
X003240Y009641D01*
X003188Y009720D02*
X005343Y009720D01*
X004694Y009406D02*
X015506Y009406D01*
X015490Y009327D02*
X004720Y009327D01*
X004720Y009249D02*
X015496Y009249D01*
X015401Y009170D02*
X004692Y009170D01*
X004629Y009092D02*
X014809Y009092D01*
X015141Y009092D02*
X015309Y009092D01*
X015274Y009013D02*
X015205Y009013D01*
X015235Y008935D02*
X015265Y008935D01*
X015278Y008856D02*
X015235Y008856D01*
X015210Y008778D02*
X015320Y008778D01*
X015538Y008621D02*
X018013Y008621D01*
X018042Y008592D02*
X018220Y008518D01*
X018412Y008518D01*
X018590Y008592D01*
X018726Y008728D01*
X018800Y008906D01*
X018800Y009098D01*
X018726Y009276D01*
X018590Y009412D01*
X018412Y009486D01*
X018220Y009486D01*
X018042Y009412D01*
X017906Y009276D01*
X017832Y009098D01*
X017832Y008906D01*
X017906Y008728D01*
X018042Y008592D01*
X018162Y008542D02*
X015560Y008542D01*
X015560Y008464D02*
X018931Y008464D01*
X018903Y008542D02*
X018469Y008542D01*
X018618Y008621D02*
X018903Y008621D01*
X018908Y008699D02*
X018697Y008699D01*
X018746Y008778D02*
X018940Y008778D01*
X018986Y008856D02*
X018779Y008856D01*
X018800Y008935D02*
X019065Y008935D01*
X018800Y009013D02*
X019800Y009013D01*
X019800Y008935D02*
X019535Y008935D01*
X019614Y008856D02*
X019800Y008856D01*
X019800Y008778D02*
X019660Y008778D01*
X019692Y008699D02*
X019800Y008699D01*
X019800Y008621D02*
X019697Y008621D01*
X019697Y008542D02*
X019800Y008542D01*
X019800Y008464D02*
X019669Y008464D01*
X019637Y008385D02*
X019800Y008385D01*
X019800Y008307D02*
X019559Y008307D01*
X019041Y008307D02*
X015459Y008307D01*
X015528Y008385D02*
X018963Y008385D01*
X018800Y009092D02*
X019800Y009092D01*
X019800Y009170D02*
X018770Y009170D01*
X018737Y009249D02*
X019800Y009249D01*
X019800Y009327D02*
X018675Y009327D01*
X018597Y009406D02*
X019800Y009406D01*
X019800Y009484D02*
X018417Y009484D01*
X018215Y009484D02*
X015949Y009484D01*
X015994Y009406D02*
X018035Y009406D01*
X017956Y009327D02*
X016010Y009327D01*
X016004Y009249D02*
X017894Y009249D01*
X017862Y009170D02*
X015971Y009170D01*
X015890Y009092D02*
X017832Y009092D01*
X017832Y009013D02*
X015776Y009013D01*
X015785Y008935D02*
X017832Y008935D01*
X017853Y008856D02*
X015772Y008856D01*
X015730Y008778D02*
X017885Y008778D01*
X017935Y008699D02*
X015623Y008699D01*
X015040Y008542D02*
X000840Y008542D01*
X000840Y008464D02*
X015040Y008464D01*
X015551Y009484D02*
X011596Y009484D01*
X011710Y009563D02*
X015668Y009563D01*
X015832Y009563D02*
X019800Y009563D01*
X019800Y009641D02*
X011755Y009641D01*
X011424Y009484D02*
X004634Y009484D01*
X005527Y010583D02*
X000840Y010583D01*
X000840Y010505D02*
X001385Y010505D01*
X001270Y010426D02*
X000840Y010426D01*
X000840Y010348D02*
X001203Y010348D01*
X001170Y010269D02*
X000840Y010269D01*
X000840Y010191D02*
X001150Y010191D01*
X001150Y010112D02*
X000840Y010112D01*
X000840Y010034D02*
X001161Y010034D01*
X001194Y009955D02*
X000840Y009955D01*
X000840Y009877D02*
X001248Y009877D01*
X001249Y010819D02*
X000840Y010819D01*
X000840Y010897D02*
X001183Y010897D01*
X001141Y010976D02*
X000840Y010976D01*
X000840Y011054D02*
X001118Y011054D01*
X001866Y011447D02*
X006940Y011447D01*
X006940Y011368D02*
X006980Y011273D01*
X007041Y011211D02*
X001984Y011211D01*
X001679Y011761D02*
X012547Y011761D01*
X012621Y011839D02*
X001815Y011839D01*
X004644Y013017D02*
X004981Y013017D01*
X004980Y013095D02*
X004692Y013095D01*
X004710Y013174D02*
X005001Y013174D01*
X005054Y013252D02*
X004706Y013252D01*
X004673Y013331D02*
X006670Y013331D01*
X006677Y013409D02*
X004599Y013409D01*
X005426Y013252D02*
X006685Y013252D01*
X006729Y013174D02*
X005479Y013174D01*
X005500Y013095D02*
X006842Y013095D01*
X007018Y013095D02*
X011376Y013095D01*
X011350Y013174D02*
X007131Y013174D01*
X007175Y013252D02*
X011350Y013252D01*
X011436Y013017D02*
X005499Y013017D01*
X007412Y012310D02*
X007507Y012350D01*
X007580Y012423D01*
X008401Y013723D02*
X010964Y013723D01*
X011034Y013802D02*
X009805Y013802D01*
X009695Y013802D02*
X008445Y013802D01*
X008460Y013880D02*
X009562Y013880D01*
X009511Y013959D02*
X008453Y013959D01*
X008421Y014037D02*
X009490Y014037D01*
X009492Y014116D02*
X008335Y014116D01*
X011779Y013409D02*
X012252Y013409D01*
X012292Y013331D02*
X011841Y013331D01*
X011870Y013252D02*
X012395Y013252D01*
X012713Y013645D02*
X013258Y013645D01*
X013185Y013723D02*
X012617Y013723D01*
X012587Y014116D02*
X012019Y014116D01*
X012132Y014194D02*
X012532Y014194D01*
X012510Y014273D02*
X012175Y014273D01*
X012190Y014351D02*
X012510Y014351D01*
X012542Y014430D02*
X012183Y014430D01*
X012150Y014508D02*
X012610Y014508D01*
X011870Y013174D02*
X015596Y013174D01*
X015629Y013095D02*
X013063Y013095D01*
X013129Y013017D02*
X015710Y013017D01*
X014875Y012467D02*
X017500Y012467D01*
X017456Y012389D02*
X014907Y012389D01*
X014910Y012310D02*
X017423Y012310D01*
X017423Y012232D02*
X014891Y012232D01*
X014841Y012153D02*
X017425Y012153D01*
X017578Y012546D02*
X014802Y012546D01*
X014498Y012546D02*
X014412Y012546D01*
X014088Y012546D02*
X012786Y012546D01*
X012800Y012624D02*
X019800Y012624D01*
X019800Y012546D02*
X018022Y012546D01*
X018100Y012467D02*
X018811Y012467D01*
X018823Y012479D02*
X018711Y012367D01*
X018650Y012220D01*
X018650Y012060D01*
X018711Y011913D01*
X018823Y011801D01*
X018970Y011740D01*
X019130Y011740D01*
X019277Y011801D01*
X019389Y011913D01*
X019450Y012060D01*
X019450Y012220D01*
X019389Y012367D01*
X019277Y012479D01*
X019130Y012540D01*
X018970Y012540D01*
X018823Y012479D01*
X018733Y012389D02*
X018144Y012389D01*
X018177Y012310D02*
X018687Y012310D01*
X018655Y012232D02*
X018177Y012232D01*
X018175Y012153D02*
X018650Y012153D01*
X018650Y012075D02*
X018142Y012075D01*
X018096Y011996D02*
X018677Y011996D01*
X018709Y011918D02*
X018017Y011918D01*
X017941Y011839D02*
X018785Y011839D01*
X018921Y011761D02*
X018076Y011761D01*
X018144Y011682D02*
X019800Y011682D01*
X019800Y011604D02*
X018188Y011604D01*
X018210Y011525D02*
X018836Y011525D01*
X019010Y011525D02*
X019090Y011525D01*
X019090Y011447D02*
X019010Y011447D01*
X019010Y011368D02*
X019090Y011368D01*
X019090Y011290D02*
X019010Y011290D01*
X019010Y011211D02*
X019090Y011211D01*
X019090Y011133D02*
X019800Y011133D01*
X019800Y011211D02*
X019484Y011211D01*
X019464Y011290D02*
X019800Y011290D01*
X019800Y011368D02*
X019428Y011368D01*
X019366Y011447D02*
X019800Y011447D01*
X019800Y011525D02*
X019264Y011525D01*
X019179Y011761D02*
X019800Y011761D01*
X019800Y011839D02*
X019315Y011839D01*
X019391Y011918D02*
X019800Y011918D01*
X019800Y011996D02*
X019423Y011996D01*
X019450Y012075D02*
X019800Y012075D01*
X019800Y012153D02*
X019450Y012153D01*
X019445Y012232D02*
X019800Y012232D01*
X019800Y012310D02*
X019413Y012310D01*
X019367Y012389D02*
X019800Y012389D01*
X019800Y012467D02*
X019289Y012467D01*
X019277Y013802D02*
X019800Y013802D01*
X019800Y013880D02*
X019356Y013880D01*
X019408Y013959D02*
X019800Y013959D01*
X019800Y014037D02*
X019440Y014037D01*
X019450Y014116D02*
X019800Y014116D01*
X019800Y014194D02*
X019450Y014194D01*
X019428Y014273D02*
X019800Y014273D01*
X019800Y014351D02*
X019396Y014351D01*
X019326Y014430D02*
X019800Y014430D01*
X019800Y014508D02*
X019207Y014508D01*
X017760Y011406D02*
X017384Y011406D01*
X017393Y011349D01*
X017413Y011286D01*
X017443Y011228D01*
X017482Y011175D01*
X017528Y011128D01*
X017581Y011090D01*
X017640Y011060D01*
X017702Y011039D01*
X017760Y011030D01*
X017760Y011406D01*
X017760Y011368D02*
X017840Y011368D01*
X017840Y011290D02*
X017760Y011290D01*
X017760Y011211D02*
X017840Y011211D01*
X017840Y011133D02*
X017760Y011133D01*
X017760Y011054D02*
X017840Y011054D01*
X017943Y011054D02*
X018618Y011054D01*
X018641Y010976D02*
X016669Y010976D01*
X016685Y011013D02*
X016645Y010918D01*
X016572Y010845D01*
X016477Y010805D01*
X016373Y010805D01*
X016278Y010845D01*
X016205Y010918D01*
X016165Y011013D01*
X016165Y011117D01*
X016205Y011212D01*
X016278Y011285D01*
X016373Y011325D01*
X016477Y011325D01*
X016572Y011285D01*
X016645Y011212D01*
X016685Y011117D01*
X016685Y011013D01*
X016685Y011054D02*
X017657Y011054D01*
X017524Y011133D02*
X016678Y011133D01*
X016646Y011211D02*
X017455Y011211D01*
X017412Y011290D02*
X016562Y011290D01*
X016288Y011290D02*
X012890Y011290D01*
X012890Y011211D02*
X016204Y011211D01*
X016172Y011133D02*
X012859Y011133D01*
X012794Y011054D02*
X016165Y011054D01*
X016181Y010976D02*
X012865Y010976D01*
X012898Y010897D02*
X016225Y010897D01*
X016341Y010819D02*
X012900Y010819D01*
X012880Y010740D02*
X018866Y010740D01*
X018749Y010819D02*
X016509Y010819D01*
X016625Y010897D02*
X018683Y010897D01*
X018885Y010505D02*
X012880Y010505D01*
X012885Y010426D02*
X018770Y010426D01*
X018703Y010348D02*
X012868Y010348D01*
X012822Y010269D02*
X018670Y010269D01*
X018650Y010191D02*
X012842Y010191D01*
X012877Y010112D02*
X018650Y010112D01*
X018661Y010034D02*
X012885Y010034D01*
X012871Y009955D02*
X018694Y009955D01*
X018748Y009877D02*
X012829Y009877D01*
X012720Y009798D02*
X018830Y009798D01*
X019351Y010819D02*
X019800Y010819D01*
X019800Y010897D02*
X019417Y010897D01*
X019459Y010976D02*
X019800Y010976D01*
X019800Y011054D02*
X019482Y011054D01*
X017390Y011368D02*
X013631Y011368D01*
X013489Y011368D02*
X013231Y011368D01*
X013089Y011368D02*
X012867Y011368D01*
X012964Y011447D02*
X012966Y011447D01*
X013354Y011447D02*
X013366Y011447D01*
X013373Y011839D02*
X013309Y011839D01*
X013011Y011839D02*
X012919Y011839D01*
X012745Y012467D02*
X014021Y012467D01*
X014431Y012153D02*
X014459Y012153D01*
X014302Y013605D02*
X014198Y013605D01*
X014103Y013645D01*
X014302Y013605D02*
X014397Y013645D01*
X011206Y010426D02*
X011120Y010426D01*
X011220Y010348D02*
X011302Y010348D01*
X011259Y010269D02*
X012428Y010269D01*
X012408Y010191D02*
X011270Y010191D01*
X011259Y010112D02*
X012373Y010112D01*
X013672Y007286D02*
X019800Y007286D01*
X016149Y006344D02*
X014244Y006344D01*
X014185Y006423D02*
X016020Y006423D01*
X010650Y007286D02*
X010512Y007286D01*
X014675Y018747D02*
X014865Y018747D01*
X014812Y018826D02*
X014734Y018826D01*
X014760Y018904D02*
X014790Y018904D01*
X014790Y018983D02*
X014760Y018983D01*
X014731Y019061D02*
X014823Y019061D01*
X014892Y019140D02*
X014668Y019140D01*
X014332Y019140D02*
X014314Y019140D01*
X012810Y020631D02*
X010459Y020631D01*
X010447Y020620D02*
X010520Y020693D01*
X010447Y020620D02*
X010352Y020580D01*
X010248Y020580D01*
X010153Y020620D01*
X010040Y020867D02*
X002990Y020867D01*
X002990Y020945D02*
X010062Y020945D01*
X010116Y021024D02*
X002971Y021024D01*
X000840Y021809D02*
X019800Y021809D01*
X019800Y021887D02*
X000840Y021887D01*
X000840Y021966D02*
X019800Y021966D01*
X019800Y022044D02*
X000840Y022044D01*
X000840Y022123D02*
X019800Y022123D01*
D16*
X003400Y004740D03*
M02*
