G75*
G70*
%OFA0B0*%
%FSLAX24Y24*%
%IPPOS*%
%LPD*%
%AMOC8*
5,1,8,0,0,1.08239X$1,22.5*
%
%ADD10R,0.0513X0.0474*%
%ADD11R,0.0356X0.0434*%
%ADD12C,0.1380*%
%ADD13R,0.0470X0.0200*%
%ADD14R,0.0434X0.0198*%
%ADD15R,0.0198X0.0434*%
%ADD16R,0.0434X0.0356*%
%ADD17C,0.0820*%
%ADD18R,0.1182X0.0277*%
%ADD19R,0.1182X0.0281*%
%ADD20R,0.0828X0.0513*%
%ADD21C,0.0634*%
%ADD22R,0.0395X0.0237*%
%ADD23R,0.0316X0.0946*%
%ADD24R,0.0277X0.0474*%
%ADD25R,0.0493X0.0552*%
%ADD26R,0.0356X0.0789*%
%ADD27R,0.0710X0.0946*%
%ADD28R,0.0237X0.0631*%
%ADD29R,0.0867X0.0828*%
%ADD30R,0.0946X0.0828*%
%ADD31C,0.0674*%
%ADD32C,0.0848*%
D10*
X007665Y011440D03*
X008335Y011440D03*
D11*
X008156Y012010D03*
X007644Y012010D03*
X006706Y014615D03*
X006194Y014615D03*
X005056Y014640D03*
X004544Y014640D03*
X003306Y014890D03*
X002794Y014890D03*
X002794Y014240D03*
X003306Y014240D03*
X003306Y013590D03*
X002794Y013590D03*
X002794Y015590D03*
X003306Y015590D03*
X003306Y016290D03*
X002794Y016290D03*
X002794Y016990D03*
X003306Y016990D03*
X003306Y017690D03*
X002794Y017690D03*
X002794Y018390D03*
X003306Y018390D03*
X010534Y016340D03*
X011046Y016340D03*
X011644Y018390D03*
X012156Y018390D03*
X012156Y019250D03*
X011644Y019250D03*
X013434Y016210D03*
X013946Y016210D03*
X015364Y015990D03*
X015876Y015990D03*
X016224Y013620D03*
X016736Y013620D03*
X014006Y008215D03*
X013494Y008215D03*
X011406Y008640D03*
X010894Y008640D03*
D12*
X002050Y004290D03*
X002050Y020790D03*
X018550Y020790D03*
X018550Y004290D03*
D13*
X006899Y015183D03*
X006899Y015438D03*
X006899Y015694D03*
X006899Y015950D03*
X006899Y016206D03*
X006899Y016462D03*
X006899Y016718D03*
X006899Y016974D03*
X006899Y017230D03*
X006899Y017486D03*
X006899Y017742D03*
X006899Y017997D03*
X004601Y017997D03*
X004601Y017742D03*
X004601Y017486D03*
X004601Y017230D03*
X004601Y016974D03*
X004601Y016718D03*
X004601Y016462D03*
X004601Y016206D03*
X004601Y015950D03*
X004601Y015694D03*
X004601Y015438D03*
X004601Y015183D03*
D14*
X009211Y014652D03*
X009211Y014455D03*
X009211Y014259D03*
X009211Y014062D03*
X009211Y013865D03*
X009211Y013668D03*
X009211Y013471D03*
X009211Y013274D03*
X009211Y013077D03*
X009211Y012881D03*
X009211Y012684D03*
X009211Y012487D03*
X009211Y012290D03*
X009211Y012093D03*
X009211Y011896D03*
X009211Y011699D03*
X009211Y011503D03*
X009211Y011306D03*
X009211Y011109D03*
X009211Y010912D03*
X009211Y010715D03*
X009211Y010518D03*
X009211Y010321D03*
X009211Y010125D03*
X009211Y009928D03*
X015289Y009928D03*
X015289Y010125D03*
X015289Y010321D03*
X015289Y010518D03*
X015289Y010715D03*
X015289Y010912D03*
X015289Y011109D03*
X015289Y011306D03*
X015289Y011503D03*
X015289Y011699D03*
X015289Y011896D03*
X015289Y012093D03*
X015289Y012290D03*
X015289Y012487D03*
X015289Y012684D03*
X015289Y012881D03*
X015289Y013077D03*
X015289Y013274D03*
X015289Y013471D03*
X015289Y013668D03*
X015289Y013865D03*
X015289Y014062D03*
X015289Y014259D03*
X015289Y014455D03*
X015289Y014652D03*
D15*
X014612Y015329D03*
X014415Y015329D03*
X014219Y015329D03*
X014022Y015329D03*
X013825Y015329D03*
X013628Y015329D03*
X013431Y015329D03*
X013234Y015329D03*
X013037Y015329D03*
X012841Y015329D03*
X012644Y015329D03*
X012447Y015329D03*
X012250Y015329D03*
X012053Y015329D03*
X011856Y015329D03*
X011659Y015329D03*
X011463Y015329D03*
X011266Y015329D03*
X011069Y015329D03*
X010872Y015329D03*
X010675Y015329D03*
X010478Y015329D03*
X010281Y015329D03*
X010085Y015329D03*
X009888Y015329D03*
X009888Y009251D03*
X010085Y009251D03*
X010281Y009251D03*
X010478Y009251D03*
X010675Y009251D03*
X010872Y009251D03*
X011069Y009251D03*
X011266Y009251D03*
X011463Y009251D03*
X011659Y009251D03*
X011856Y009251D03*
X012053Y009251D03*
X012250Y009251D03*
X012447Y009251D03*
X012644Y009251D03*
X012841Y009251D03*
X013037Y009251D03*
X013234Y009251D03*
X013431Y009251D03*
X013628Y009251D03*
X013825Y009251D03*
X014022Y009251D03*
X014219Y009251D03*
X014415Y009251D03*
X014612Y009251D03*
D16*
X012575Y008721D03*
X012575Y008209D03*
X011850Y006446D03*
X011850Y005934D03*
X011300Y005934D03*
X011300Y006446D03*
X010750Y006446D03*
X010260Y006446D03*
X010260Y005934D03*
X010750Y005934D03*
X009770Y005764D03*
X009770Y006276D03*
X008350Y010434D03*
X008350Y010946D03*
X008600Y013884D03*
X008600Y014396D03*
X012250Y015934D03*
X012250Y016446D03*
X016200Y015446D03*
X016200Y014934D03*
X016200Y014546D03*
X016200Y014034D03*
X016900Y011021D03*
X016900Y010509D03*
X017700Y007896D03*
X017700Y007384D03*
X018300Y007384D03*
X018300Y007896D03*
X015700Y006846D03*
X015150Y006746D03*
X015150Y006234D03*
X015700Y006334D03*
X014550Y006234D03*
X014550Y006746D03*
X003150Y007984D03*
X003150Y008496D03*
X002550Y008496D03*
X002550Y007984D03*
X002550Y009084D03*
X002550Y009596D03*
D17*
X001550Y010140D03*
X001550Y011140D03*
X001550Y012140D03*
X001550Y013140D03*
X001550Y014140D03*
X001550Y015140D03*
X001550Y016140D03*
X001550Y017140D03*
X001550Y018140D03*
X001550Y019140D03*
X001550Y007990D03*
X019050Y010140D03*
X019050Y011140D03*
X019050Y012140D03*
X019050Y013140D03*
X019050Y014140D03*
X019050Y015140D03*
X019050Y016140D03*
X019050Y017140D03*
X019050Y018140D03*
X019050Y019140D03*
D18*
X016450Y012234D03*
X016450Y011840D03*
D19*
X016450Y011446D03*
D20*
X016900Y014148D03*
X016900Y015132D03*
D21*
X017800Y012234D03*
X017800Y011446D03*
D22*
X004065Y009796D03*
X004065Y009540D03*
X004065Y009284D03*
X003435Y009284D03*
X003435Y009540D03*
X003435Y009796D03*
D23*
X005300Y009116D03*
X005800Y009116D03*
X006300Y009116D03*
X006800Y009116D03*
X006800Y011164D03*
X006300Y011164D03*
X005800Y011164D03*
X005300Y011164D03*
D24*
X005400Y005468D03*
X005696Y005468D03*
X005971Y005468D03*
X006267Y005468D03*
X006700Y005468D03*
X007133Y005468D03*
X007566Y005468D03*
X004967Y005468D03*
X004534Y005468D03*
D25*
X003993Y006102D03*
X003993Y007854D03*
X008107Y007854D03*
X008107Y006102D03*
D26*
X009716Y004990D03*
X010208Y004990D03*
X010700Y004990D03*
X011192Y004990D03*
X011684Y004990D03*
X011284Y020090D03*
X010792Y020090D03*
X010300Y020090D03*
X009808Y020090D03*
X006834Y020090D03*
X006342Y020090D03*
X005850Y020090D03*
X005358Y020090D03*
X004866Y020090D03*
X014158Y020090D03*
X014650Y020090D03*
X015142Y020090D03*
X015634Y020090D03*
D27*
X016559Y021389D03*
X013241Y021389D03*
X012209Y021389D03*
X008891Y021389D03*
X007759Y021389D03*
X003941Y021389D03*
X008791Y003691D03*
X012609Y003691D03*
D28*
X014688Y004812D03*
X014944Y004812D03*
X015200Y004812D03*
X015456Y004812D03*
X015712Y004812D03*
D29*
X015692Y003690D03*
X014708Y003690D03*
D30*
X013625Y003690D03*
X016775Y003690D03*
D31*
X019300Y006640D03*
X019300Y008609D03*
D32*
X018316Y009002D03*
X018316Y006246D03*
M02*
